<?xml version="1.0" standalone="no"?>
<!DOCTYPE svg PUBLIC "-//W3C//DTD SVG 1.1//EN" "http://www.w3.org/Graphics/SVG/1.1/DTD/svg11.dtd" >
<svg xmlns="http://www.w3.org/2000/svg">
<metadata>
Created by FontPrep 20130207 at Mon Jun 13 12:49:29 2016
 By Fera, Francesco
2009 Albert-Jan Pool published by FSI FontShop International GmbH
</metadata>
<defs>
<font id="272a5c6ec7b361f504c72cac3ee2ed67" horiz-adv-x='1024' >
  <font-face 
    font-family="AdihausDIN-Italic"
    font-weight="400"
    font-style="italic"
    font-stretch="normal"
    units-per-em="2048"
    panose-1="2 11 5 4 2 1 1 9 1 2"
    ascent="1565"
    descent="-483"
    x-height="1010"
    cap-height="1458"
    bbox="-303 -461 2466 2337"
    underline-thickness="100"
    underline-position="-182"
    slope="-11"
    unicode-range="U+0020-FEFF"
  />
<missing-glyph horiz-adv-x="1095" 
d="M920 100v1258h-744v-1258h744zM76 1458h944v-1458h-944v1458z" />
    <glyph glyph-name=".notdef" horiz-adv-x="1095" 
d="M920 100v1258h-744v-1258h744zM76 1458h944v-1458h-944v1458z" />
    <glyph glyph-name=".null" horiz-adv-x="0" 
 />
    <glyph glyph-name="nonmarkingreturn" horiz-adv-x="483" 
 />
    <glyph glyph-name="space" unicode=" " horiz-adv-x="483" 
 />
    <glyph glyph-name="exclam" unicode="!" horiz-adv-x="616" 
d="M328 0h-170l35 176h167zM379 403h-123l186 1055h166z" />
    <glyph glyph-name="quotedbl" unicode="&#x22;" horiz-adv-x="825" 
d="M446 1106h-155l71 352h154zM776 1106h-155l71 352h156z" />
    <glyph glyph-name="numbersign" unicode="#" horiz-adv-x="1284" 
d="M614 891l-106 -299h311l109 299h-314zM1262 891h-185l-108 -299h180l-25 -127h-198l-164 -465h-148l162 465h-311l-162 -465h-151l163 465h-172l25 127h190l109 299h-186l26 129h201l156 442h149l-154 -442h312l153 442h150l-154 -442h168z" />
    <glyph glyph-name="dollar" unicode="$" horiz-adv-x="1161" 
d="M431 880.5q60 -47.5 153 -65.5l100 526q-139 -12 -226 -107t-87 -200q0 -106 60 -153.5zM842.5 581q-56.5 47 -185.5 76l-102 -538q147 12 245.5 97.5t98.5 201.5t-56.5 163zM1049 453q0 -127 -42 -208t-147 -164.5t-323 -92.5l-41 -221h-117l43 223q-129 8 -219 54
t-170 144l112 99q117 -155 308 -166l106 557l-43 10q-133 33 -213 108.5t-80 228.5t121.5 293.5t355.5 151.5l35 181h117l-35 -185q204 -17 330 -163l-107 -93q-47 55 -104 89t-150 40l-104 -546l51 -11q316 -68 316 -329z" />
    <glyph glyph-name="percent" unicode="%" horiz-adv-x="1638" 
d="M330 930q0 -123 125 -123q147 0 184 176l39 195q8 32 8 71q0 123 -125 123q-84 0 -127 -50t-57 -126l-39 -195q-8 -32 -8 -71zM761 1397.5q38 -75.5 38 -131.5t-8 -88l-39 -195q-27 -129 -99.5 -202.5t-216.5 -73.5t-181.5 75.5t-37.5 131.5t8 87l39 195q58 277 307 277
q152 0 190 -75.5zM457 0h-123l938 1458h123zM1040 211q0 -123 125 -123q146 0 185 176l39 195q8 32 8 71q0 123 -125 123q-84 0 -127 -50t-58 -126l-38 -194q-9 -36 -9 -72zM1471 678q38 -76 38 -132t-8 -87l-39 -195q-58 -276 -307 -276q-152 0 -189.5 75.5t-37.5 130.5
t8 89l39 194q58 277 307 277q151 0 189 -76z" />
    <glyph glyph-name="ampersand" unicode="&#x26;" horiz-adv-x="1441" 
d="M905 1197q0 77 -40 111.5t-95 34.5q-90 0 -143.5 -63t-53.5 -149t78 -205l82 51q72 45 122 94t50 126zM272 332q0 -84 64 -148.5t158 -64.5q206 0 374 153l-284 473q-168 -105 -218.5 -163t-72 -112t-21.5 -138zM123 340q0 170 98 282.5t299 233.5q-96 141 -96 274
t91 236.5t263 103.5q131 0 201 -77t70 -179t-53.5 -175.5t-164.5 -143.5l-116 -74l262 -440q57 63 90 139t53 193h144q-23 -131 -69 -238.5t-144 -210.5l163 -264h-178l-98 160q-184 -172 -440 -172q-162 0 -268.5 91t-106.5 261z" />
    <glyph glyph-name="quotesingle" unicode="'" horiz-adv-x="495" 
d="M446 1106h-155l71 352h154z" />
    <glyph glyph-name="parenleft" unicode="(" horiz-adv-x="581" 
d="M109 90q0 51 18 143l209 1047q23 117 77 199t169 172l82 -109q-99 -86 -136 -138t-53 -136l-207 -1043q-14 -72 -14 -114q0 -100 92 -207l-106 -97q-131 153 -131 283z" />
    <glyph glyph-name="parenright" unicode=")" horiz-adv-x="581" 
d="M428 1651q129 -150 129 -273q0 -71 -16 -153l-209 -1047q-22 -114 -79 -198t-169 -173l-82 109q99 86 135 137t53 137l209 1043q15 78 15 115q0 97 -95 206z" />
    <glyph glyph-name="asterisk" unicode="*" horiz-adv-x="923" 
d="M678 1079l203 -170l-72 -84l-195 183l-47 -265l-110 23l59 260l-248 -92l-37 104l254 80l-202 170l71 84l195 -180l47 262l111 -22l-60 -261l248 93l37 -105z" />
    <glyph glyph-name="plus" unicode="+" horiz-adv-x="1015" 
d="M911 485h-338l-71 -362h-133l71 362h-342l27 131h342l74 363h131l-74 -363h340z" />
    <glyph glyph-name="comma" unicode="," horiz-adv-x="516" 
d="M221 -131l-207 -164l97 477h172z" />
    <glyph glyph-name="hyphen" unicode="-" horiz-adv-x="829" 
d="M680 485h-537l27 133h537z" />
    <glyph glyph-name="period" unicode="." horiz-adv-x="526" 
d="M256 0h-186l39 195h184z" />
    <glyph glyph-name="slash" unicode="/" horiz-adv-x="698" 
d="M16 -152h-147l907 1762h146z" />
    <glyph glyph-name="zero" unicode="0" horiz-adv-x="1081" 
d="M899 1154q0 93 -52 141t-112 48q-118 0 -205.5 -66.5t-113.5 -213.5l-129 -664q-4 -23 -8.5 -45t-4.5 -60q0 -82 68 -144.5t220 -17t198 262.5l129 664q10 47 10 95zM1042 1172q0 -64 -10 -115l-131 -660q-45 -223 -173.5 -316t-270.5 -93q-141 0 -232.5 80t-91.5 237
q0 45 10 96l129 660q45 220 174 314.5t270 94.5q223 0 274.5 -117t51.5 -181z" />
    <glyph glyph-name="one" unicode="1" horiz-adv-x="1081" 
d="M578 0h-144l260 1288l-311 -233l33 174l309 229h145z" />
    <glyph glyph-name="two" unicode="2" horiz-adv-x="1081" 
d="M905 1145q0 94 -52 147.5t-148 53.5t-177.5 -59.5t-113.5 -203.5h-144q37 193 154 290t281 97t254 -85.5t90 -246.5t-73 -249t-110 -127l-596 -637h596l-24 -125h-776l26 125l682 731q66 72 98.5 133.5t32.5 155.5z" />
    <glyph glyph-name="three" unicode="3" horiz-adv-x="1081" 
d="M778 481q0 203 -223 203h-33l25 123h33q130 0 214.5 101.5t84.5 240.5q0 92 -51.5 144.5t-150.5 52.5t-178 -66t-108 -174h-147q49 188 170 277.5t275 89.5t242.5 -85.5t88.5 -232.5q0 -218 -95.5 -300.5t-158.5 -106.5q156 -59 156 -262t-131.5 -351.5t-344.5 -148.5
q-175 0 -265.5 88.5t-90.5 232.5v21q0 20 2 37h141q-4 -20 -4 -46q0 -90 54.5 -148t144.5 -58q161 0 255.5 107.5t94.5 260.5z" />
    <glyph glyph-name="four" unicode="4" horiz-adv-x="1081" 
d="M926 236h-172l-47 -236h-140l47 236h-559l25 131l711 1091h157l-708 -1091h399l80 401h141l-80 -401h174z" />
    <glyph glyph-name="five" unicode="5" horiz-adv-x="1081" 
d="M631 840q-182 0 -269 -148h-126l153 766h701l-25 -127h-573l-93 -463q55 53 114.5 74t140.5 21q151 0 225.5 -87t74.5 -219q0 -188 -73.5 -379t-193.5 -241.5t-214 -50.5q-168 0 -250 86t-82 219v19q0 18 2 34h140q-2 -12 -2 -14v-29q0 -82 46 -135t133 -53
q153 0 234 109.5t98 244.5t17 172q0 86 -39 143.5t-139 57.5z" />
    <glyph glyph-name="six" unicode="6" horiz-adv-x="1081" 
d="M717 634q-55 71 -143 71q-148 0 -223 -107.5t-75 -235.5q0 -169 80 -208t140 -39t114 30.5t108 103.5t54 194q0 120 -55 191zM598 823q145 0 232.5 -102.5t87.5 -261.5q0 -200 -122.5 -335.5t-303.5 -135.5q-180 0 -268.5 108t-88.5 252t54.5 240t97.5 160l473 710h155
l-440 -657q55 22 123 22z" />
    <glyph glyph-name="seven" unicode="7" horiz-adv-x="1081" 
d="M1122 1331l-733 -1331h-158l734 1331h-486l-43 -219h-139l68 346h782z" />
    <glyph glyph-name="eight" unicode="8" horiz-adv-x="1081" 
d="M901 1156q0 74 -50.5 130.5t-134.5 56.5q-145 0 -225.5 -98.5t-80.5 -207.5t52 -165.5t135 -56.5t137 28.5t91 75t56.5 105t19.5 132.5zM795 478q0 90 -61.5 151t-147.5 61q-157 0 -246.5 -100t-89.5 -226q0 -127 62.5 -188t148.5 -61t146.5 26.5t101.5 72.5t63.5 110
t22.5 154zM795 745q143 -97 143 -281q0 -196 -123 -336t-350 -140q-151 0 -255 89.5t-104 247.5q0 320 285 441q-123 95 -123 246q0 198 126 328t317 130q148 0 240.5 -90.5t92.5 -229.5q0 -140 -66.5 -246.5t-182.5 -158.5z" />
    <glyph glyph-name="nine" unicode="9" horiz-adv-x="1081" 
d="M841 1271.5q-56 71.5 -170 71.5q-115 0 -192.5 -103t-77.5 -239q0 -169 80.5 -208t142.5 -39t116.5 33.5t105.5 108t51 189.5t-56 186.5zM574 635q-144 0 -231 101.5t-87 262.5q0 199 122 335t302 136t269 -107t89 -257q0 -97 -36 -186.5t-117 -208.5l-473 -711h-154
l438 657q-56 -22 -122 -22z" />
    <glyph glyph-name="colon" unicode=":" horiz-adv-x="577" 
d="M309 0h-184l39 195h184zM426 614h-186l41 195h184z" />
    <glyph glyph-name="semicolon" unicode=";" horiz-adv-x="577" 
d="M428 614h-184l39 195h184zM281 -131l-207 -164l94 477h174z" />
    <glyph glyph-name="less" unicode="&#x3c;" horiz-adv-x="1015" 
d="M862 805l-534 -254l436 -258l-29 -146l-575 351l26 127l707 340z" />
    <glyph glyph-name="equal" unicode="=" horiz-adv-x="1015" 
d="M944 655h-813l29 131h813zM879 315h-813l28 131h813z" />
    <glyph glyph-name="greater" unicode="&#x3e;" horiz-adv-x="1015" 
d="M856 473l-704 -340l30 160l533 254l-436 258l30 145l574 -350z" />
    <glyph glyph-name="question" unicode="?" horiz-adv-x="970" 
d="M524 0h-170l35 176h168zM860 1162q0 72 -45 126.5t-142 54.5t-169 -63t-94 -174h-148q33 174 148.5 269t289.5 95q128 0 217 -80.5t89 -230.5t-144 -311l-207 -242q-42 -50 -59 -119l-21 -86h-143l21 93q12 59 32.5 101t65.5 93l205 236q51 59 77.5 112.5t26.5 125.5z
" />
    <glyph glyph-name="at" unicode="@" horiz-adv-x="1923" 
d="M1200 648q0 105 -50.5 151.5t-109.5 46.5q-104 0 -178 -70q-81 -81 -121 -274q-16 -82 -16 -144q0 -106 48.5 -152t108.5 -46q110 0 186 75t112 257q20 96 20 156zM590 334q0 82 20 188q68 349 209 395t221 46t135.5 -43t77.5 -97l25 127h129l-160 -794q196 4 323.5 153
t127.5 348q0 273 -179.5 442t-459.5 169q-158 0 -297 -60.5t-242.5 -165t-163 -244.5t-59.5 -306q0 -338 212 -557.5t564 -219.5h101l-23 -108h-98q-195 0 -358 67.5t-280.5 186.5t-183 282t-65.5 351t69.5 351t190.5 282.5t283.5 188t340.5 68.5q347 0 559 -201t212 -526
q0 -248 -169.5 -425t-424.5 -177h-125l24 119q-106 -131 -242 -131q-135 0 -214.5 71.5t-79.5 219.5z" />
    <glyph glyph-name="A" unicode="A" horiz-adv-x="1189" 
d="M748 1243l-418 -786h526zM915 0l-45 332h-606l-178 -332h-160l797 1458h125l219 -1458h-152z" />
    <glyph glyph-name="B" unicode="B" horiz-adv-x="1302" 
d="M1098 1108q0 102 -52.5 160.5t-181.5 58.5h-348l-104 -516h364q147 0 213 67.5t87.5 124t21.5 105.5zM997 478q0 89 -62.5 144.5t-168.5 55.5h-381l-111 -547h398q142 0 233.5 93.5t91.5 253.5zM977 743q170 -81 170 -283.5t-134 -331t-337 -128.5h-576l293 1458h490
q209 0 287.5 -99.5t78.5 -258.5t-96 -242.5t-176 -114.5z" />
    <glyph glyph-name="C" unicode="C" horiz-adv-x="1243" 
d="M291 397q0 -134 81 -207t210 -73t228.5 85t143.5 214h152q-63 -205 -208.5 -316.5t-331.5 -111.5t-305.5 104t-119.5 289q0 125 37 299q70 328 125.5 489.5t214 231t268.5 69.5q212 0 319 -118.5t107 -309.5h-149q-2 135 -71.5 217t-217.5 82t-262 -122
q-59 -59 -99.5 -177t-81 -344t-40.5 -301z" />
    <glyph glyph-name="D" unicode="D" horiz-adv-x="1308" 
d="M1108 1055q0 123 -68.5 198.5t-220.5 75.5h-303l-242 -1200h301q241 0 324 132t113 253.5t46 207.5q50 260 50 333zM848 1458q276 0 341.5 -141t65.5 -251t-34 -280q-64 -321 -114 -443.5t-134 -199.5q-158 -143 -389 -143h-484l293 1458h455z" />
    <glyph glyph-name="E" unicode="E" horiz-adv-x="1171" 
d="M1225 1329h-709l-106 -528h608l-25 -129h-608l-111 -543h723l-24 -129h-873l293 1458h858z" />
    <glyph glyph-name="F" unicode="F" horiz-adv-x="1126" 
d="M1225 1329h-709l-108 -551h606l-27 -129h-608l-131 -649h-148l293 1458h858z" />
    <glyph glyph-name="G" unicode="G" horiz-adv-x="1267" 
d="M291 411q0 -89 22.5 -138.5t82.5 -102.5t182 -53t240 99t157 298l22 121h-340l23 127h489l-43 -232q-44 -247 -192 -395q-147 -147 -375 -147q-181 0 -299.5 106t-118.5 287q0 167 58.5 412t109 391.5t210 216t269.5 69.5q212 0 319 -118.5t107 -311.5h-149
q-2 141 -73.5 221t-216.5 80t-263 -122q-60 -64 -94.5 -166t-80.5 -328q-46 -225 -46 -314z" />
    <glyph glyph-name="H" unicode="H" horiz-adv-x="1351" 
d="M1053 0h-148l135 672h-655l-137 -672h-148l293 1458h148l-129 -657h655l131 657h148z" />
    <glyph glyph-name="I" unicode="I" horiz-adv-x="550" 
d="M248 0h-148l293 1458h148z" />
    <glyph glyph-name="J" unicode="J" horiz-adv-x="974" 
d="M297 117q125 0 216 85t126 259l199 997h149l-205 -1022q-45 -223 -176 -335.5t-327 -112.5t-304 135l109 92q41 -47 89 -72.5t124 -25.5z" />
    <glyph glyph-name="K" unicode="K" horiz-adv-x="1271" 
d="M817 887l336 -887h-162l-291 784l-370 -374l-82 -410h-148l293 1458h148l-166 -829l805 829h186z" />
    <glyph glyph-name="L" unicode="L" horiz-adv-x="1118" 
d="M963 0h-863l293 1458h148l-267 -1329h713z" />
    <glyph glyph-name="M" unicode="M" horiz-adv-x="1587" 
d="M1288 0h-147l225 1110l-551 -848h-127l-213 860l-227 -1122h-148l293 1458h144l243 -1014l656 1014h145z" />
    <glyph glyph-name="N" unicode="N" horiz-adv-x="1423" 
d="M1124 0h-137l-502 1182l-237 -1182h-148l293 1458h137l502 -1182l236 1182h149z" />
    <glyph glyph-name="O" unicode="O" horiz-adv-x="1263" 
d="M805 1341q-177 0 -295 -122q-98 -106 -157 -413q-46 -239 -54 -302t-8 -122q0 -124 78 -194.5t175 -70.5q173 0 292 123q57 61 103 195t82 354.5t36 282.5q0 127 -77 198t-175 71zM1206 1110q0 -58 -2 -86.5t-7 -68.5t-15 -94.5t-30 -154.5q-49 -251 -109.5 -418.5
t-216.5 -233.5t-262 -66q-198 0 -310.5 108.5t-112.5 284.5q0 125 36 298q69 331 109 439.5t120 190.5q149 161 395 161q179 0 261.5 -78.5t113 -151t30.5 -130.5z" />
    <glyph glyph-name="P" unicode="P" horiz-adv-x="1224" 
d="M1110 1084q0 244 -242 243h-354l-117 -588h353q160 0 233.5 75t100 141.5t26.5 128.5zM1260 1088q0 -86 -35 -176.5t-140.5 -196t-341.5 -105.5h-372l-123 -610h-148l293 1458h496q187 0 279 -100t92 -270z" />
    <glyph glyph-name="Q" unicode="Q" horiz-adv-x="1263" 
d="M805 1341q-177 0 -295 -122q-98 -106 -157 -413q-46 -239 -54 -302t-8 -122q0 -124 78 -194.5t191 -70.5t214 73l-145 191l100 88l137 -182q48 70 87.5 199t71.5 326.5t32 259.5q0 127 -77 198t-175 71zM215.5 863q74.5 327 190.5 446q149 161 395 161q179 0 292 -107.5
t113 -285.5q0 -89 -17 -180t-37 -189q-48 -242 -83.5 -347.5t-110.5 -192.5l123 -160l-100 -88l-123 160q-141 -92 -317 -92q-175 0 -287.5 108.5t-112.5 273.5q0 166 74.5 493z" />
    <glyph glyph-name="R" unicode="R" horiz-adv-x="1282" 
d="M1108 1132q0 80 -57.5 137.5t-173.5 57.5h-361l-110 -545h364q159 0 248.5 100t89.5 250zM1155 829q-102 -128 -283 -163l213 -666h-163l-201 655h-340l-133 -655h-148l293 1458h502q193 0 277.5 -94.5t84.5 -250.5t-102 -284z" />
    <glyph glyph-name="S" unicode="S" horiz-adv-x="1144" 
d="M145 287q133 -168 333 -168q181 0 293 86.5t112 226.5t-82 173.5t-125 43.5l-137 33q-210 47 -263 147.5t-53 178.5q0 176 132.5 319t383.5 143t391 -167l-106 -91q-57 66 -104.5 89.5t-90.5 32.5t-113 9t-137 -27.5t-137.5 -98t-70.5 -201.5q0 -86 58 -132t151 -69
l137 -31q166 -39 240.5 -119.5t74.5 -212.5t-44 -213t-156 -166t-349 -85q-154 0 -258 47t-192 153z" />
    <glyph glyph-name="T" unicode="T" horiz-adv-x="1067" 
d="M1171 1327h-399l-266 -1327h-148l267 1327h-402l27 131h948z" />
    <glyph glyph-name="U" unicode="U" horiz-adv-x="1329" 
d="M168 383q0 38 14 125l189 950h149l-192 -964q-11 -44 -11 -99q0 -117 67.5 -196.5t207.5 -79.5t257.5 99t151.5 286l189 954h149l-194 -979q-49 -238 -201 -364.5t-354 -126.5q-179 0 -300.5 100.5t-121.5 294.5z" />
    <glyph glyph-name="V" unicode="V" horiz-adv-x="1062" 
d="M498 0h-123l-170 1458h149l131 -1192l590 1192h162z" />
    <glyph glyph-name="W" unicode="W" horiz-adv-x="1669" 
d="M1190 0h-139l-78 1174l-547 -1174h-137l-68 1458h154l41 -1182l540 1182h134l75 -1182l498 1182h160z" />
    <glyph glyph-name="X" unicode="X" horiz-adv-x="1077" 
d="M666 739l288 -739h-166l-229 618l-457 -618h-174l572 760l-267 698h166l207 -581l420 581h176z" />
    <glyph glyph-name="Y" unicode="Y" horiz-adv-x="1013" 
d="M600 596l-121 -596h-149l123 606l-248 852h155l193 -704l459 704h166z" />
    <glyph glyph-name="Z" unicode="Z" horiz-adv-x="1089" 
d="M1133 1335l-926 -1204h698l-26 -131h-867l29 137l915 1190h-663l24 131h840z" />
    <glyph glyph-name="bracketleft" unicode="[" horiz-adv-x="614" 
d="M715 1483h-197l-301 -1508h213l-24 -127h-357l350 1762h342z" />
    <glyph glyph-name="backslash" unicode="\" horiz-adv-x="686" 
d="M422 -152l-203 1754h135l203 -1754h-135z" />
    <glyph glyph-name="bracketright" unicode="]" horiz-adv-x="614" 
d="M305 -152h-342l25 121h202l304 1520h-222l25 121h358z" />
    <glyph glyph-name="asciicircum" unicode="^" horiz-adv-x="1052" 
d="M846 846l-148 475l-338 -475h-153l444 624h137l197 -624h-139z" />
    <glyph glyph-name="underscore" unicode="_" horiz-adv-x="1015" 
d="M852 -332h-1016l19 101h1015z" />
    <glyph glyph-name="grave" unicode="`" horiz-adv-x="1028" 
d="M590 1206l-148 310h158l119 -310h-129z" />
    <glyph glyph-name="a" unicode="a" 
d="M193 242q0 -133 200 -133q135 0 215 79q63 59 82 164l23 117h-260q-117 0 -188.5 -58.5t-71.5 -168.5zM205 877q133 145 326 145q173 0 274.5 -57.5t101.5 -204.5q0 -40 -10 -80l-135 -680h-141l22 100q-112 -112 -289 -112q-210 0 -256.5 89t-46.5 154q0 152 90 238
q110 106 297 106h295l23 107q8 28 8 68q0 74 -54.5 111.5t-148.5 37.5t-155.5 -29.5t-116.5 -91.5z" />
    <glyph glyph-name="b" unicode="b" horiz-adv-x="1062" 
d="M297 326q0 -211 182 -211q203 0 270.5 215.5t67.5 353.5q0 211 -180 211q-139 0 -220.5 -116.5t-100.5 -265t-19 -187.5zM674 1022q141 0 215 -81t74 -239q0 -75 -25 -203t-62.5 -231.5t-101.5 -167.5q-112 -112 -287 -112t-243 141l-27 -129h-141l291 1458h143
l-113 -563q97 127 277 127z" />
    <glyph glyph-name="c" unicode="c" horiz-adv-x="954" 
d="M793 129q-141 -141 -323 -141t-275 99.5t-93 262.5q0 79 15 156q47 254 182 385t332 131q106 0 173.5 -40t117.5 -110l-107 -90q-41 59 -86 86t-109 27q-133 0 -227 -98q-115 -124 -131 -263t-16 -191q0 -106 62 -167t146 -61q83 0 139 27.5t116 88.5z" />
    <glyph glyph-name="d" unicode="d" horiz-adv-x="1062" 
d="M246 291.5q0 -176.5 180 -176.5q205 0 272.5 215.5t67.5 390t-182 174.5q-202 0 -270 -213.5t-68 -390zM384 -12q-147 0 -215.5 87t-68.5 230q0 92 25 213q59 285 169 395q110 109 282 109t241 -139l117 575h143l-291 -1458h-141l25 121q-70 -84 -139.5 -108.5
t-146.5 -24.5z" />
    <glyph glyph-name="e" unicode="e" horiz-adv-x="1036" 
d="M788 676q0 119 -58 172t-152 53t-178.5 -79t-127.5 -249h508q8 50 8 103zM102 336q0 261 87 409t181.5 212.5t240.5 64.5t231.5 -97t85.5 -249q0 -60 -25 -207h-651q-12 -93 -12 -127q0 -100 51 -165.5t153 -65.5t167 29.5t130 88.5l86 -94q-159 -147 -381 -147
q-154 0 -249 89t-95 259z" />
    <glyph glyph-name="f" unicode="f" horiz-adv-x="612" 
d="M647 1339q-129 0 -160 -143l-36 -186h208l-22 -109h-209l-180 -901h-144l181 901h-121l20 109h121l39 194q25 136 106 197t187 61h108l-24 -123h-74z" />
    <glyph glyph-name="g" unicode="g" horiz-adv-x="1058" 
d="M766 690q0 205 -182 205q-136 0 -216.5 -115t-100 -260t-19.5 -186q0 -203 170 -203q86 0 181 58.5t144 324.5q23 108 23 176zM100 -236q86 -102 194 -102q127 0 217 75.5t126 239.5l33 156q-103 -129 -279 -129q-135 0 -212 81t-77 230q0 74 24 203q76 410 222 457
t217 47q188 0 254 -141l25 129h141l-207 -1033q-49 -246 -180.5 -342t-290.5 -96q-194 0 -309 135z" />
    <glyph glyph-name="h" unicode="h" horiz-adv-x="1095" 
d="M688 1022q123 0 203 -76t80 -209q0 -43 -13 -100l-127 -637h-143l125 623q10 51 10 94q0 92 -52 136t-130 44q-147 0 -214 -93t-85 -186l-123 -618h-143l291 1458h143l-111 -557q108 121 289 121z" />
    <glyph glyph-name="i" unicode="i" horiz-adv-x="491" 
d="M483 1296h-161l28 150h164zM219 0h-143l200 1010h144z" />
    <glyph glyph-name="j" unicode="j" horiz-adv-x="493" 
d="M483 1296h-161l28 150h164zM-125 -328q72 0 110 37t54 117l237 1184h144l-238 -1198q-53 -262 -297 -263h-104l24 123h70z" />
    <glyph glyph-name="k" unicode="k" horiz-adv-x="1050" 
d="M625 616l272 -616h-166l-217 524l-235 -223l-60 -301h-143l291 1458h143l-193 -964l527 516h184z" />
    <glyph glyph-name="l" unicode="l" horiz-adv-x="507" 
d="M260 198q0 -75 111 -75h84l-25 -123h-106q-137 0 -172 68t-35 120t8 86l237 1184h144l-238 -1184q-8 -46 -8 -76z" />
    <glyph glyph-name="m" unicode="m" horiz-adv-x="1708" 
d="M688 1022q184 0 258 -168q63 78 144 123t205 45t206 -75.5t82 -209.5q0 -45 -10 -100l-127 -637h-146l125 623q4 25 8.5 49t4.5 45q0 92 -53.5 135t-131.5 43q-145 0 -211.5 -92t-85.5 -185l-125 -618h-143l125 623q10 62 10 94q0 92 -52 135t-130 43q-148 0 -214.5 -92
t-84.5 -185l-123 -618h-143l200 1010h142l-23 -113q109 125 293 125z" />
    <glyph glyph-name="n" unicode="n" horiz-adv-x="1095" 
d="M692 1022q122 0 200.5 -76.5t78.5 -208.5q0 -43 -13 -100l-127 -637h-143l125 623q10 62 10 94q0 92 -52 136t-132 44q-145 0 -212 -93t-85 -186l-123 -618h-143l200 1010h140l-21 -113q108 125 297 125z" />
    <glyph glyph-name="o" unicode="o" horiz-adv-x="1028" 
d="M784 676q0 115 -56 168t-125 53q-300 0 -329.5 -268.5t-29.5 -312.5q0 -97 55.5 -150t123.5 -53q125 0 211 85q86 86 128 300q22 116 22 178zM870.5 901q55.5 -121 55.5 -198t-27 -221q-48 -257 -184 -386q-119 -108 -287 -108q-220 0 -273 120.5t-53 196.5t26 221
q48 266 185 385q123 111 287 111q215 0 270.5 -121z" />
    <glyph glyph-name="p" unicode="p" horiz-adv-x="1062" 
d="M817 771q0 124 -180 124q-139 0 -220.5 -116.5t-100.5 -265t-19 -217t42.5 -125t129.5 -56.5q153 0 231.5 118.5t97.5 266t19 271.5zM496 -12q-182 0 -250 139l-117 -576h-143l290 1459h142l-25 -119q70 82 139.5 106.5t146.5 24.5q147 0 215.5 -87t68.5 -228
q0 -80 -25 -207t-63.5 -231.5t-102.5 -168.5t-131.5 -88t-144.5 -24z" />
    <glyph glyph-name="q" unicode="q" horiz-adv-x="1062" 
d="M766 684q0 211 -182 211q-202 0 -270 -213.5t-68 -360.5q0 -148 64 -177t128 -29q235 0 305 391q23 108 23 178zM100 307q0 76 25 205t94 319.5t356 190.5q176 0 244 -141l27 129h143l-291 -1459h-145l113 566q-90 -129 -277 -129q-141 0 -215 81t-74 238z" />
    <glyph glyph-name="r" unicode="r" horiz-adv-x="817" 
d="M676 1022q137 0 219 -94l-117 -105q-53 72 -151 72q-97 0 -178.5 -78t-106.5 -199l-123 -618h-143l200 1010h142l-25 -123q101 135 283 135z" />
    <glyph glyph-name="s" unicode="s" horiz-adv-x="962" 
d="M117 225q98 -114 265 -114q155 0 229.5 63t74.5 135t-38 96.5t-103 34.5l-137 21q-210 31 -231 109.5t-21 122.5t23.5 106.5t73.5 112.5q111 110 313 110t323 -113l-103 -88q-93 82 -223 82q-129 0 -196.5 -61t-67.5 -144q0 -51 38 -77.5t112 -36.5l135 -19
q135 -20 190 -77.5t55 -174.5t-107 -221t-343 -104t-369 145z" />
    <glyph glyph-name="t" unicode="t" horiz-adv-x="651" 
d="M291 198q0 -30 23.5 -52.5t88.5 -22.5h82l-26 -123h-103q-139 0 -174 68.5t-35 116.5t9 89l125 627h-125l20 109h127l62 307h143l-62 -307h199l-22 -109h-197l-127 -627q-8 -46 -8 -76z" />
    <glyph glyph-name="u" unicode="u" horiz-adv-x="1095" 
d="M170.5 96q-45.5 108 -45.5 158t12 119l127 637h144l-125 -623q-4 -23 -8.5 -47.5t-4.5 -46.5q0 -92 53.5 -136t131.5 -44q147 0 213.5 93t85.5 185l123 619h143l-201 -1010h-139l20 113q-108 -125 -296 -125t-233.5 108z" />
    <glyph glyph-name="v" unicode="v" horiz-adv-x="870" 
d="M401 0h-129l-149 1010h145l103 -813l420 813h159z" />
    <glyph glyph-name="w" unicode="w" horiz-adv-x="1409" 
d="M993 0h-131l-98 782l-404 -782h-131l-104 1010h145l64 -807l409 807h117l96 -807l375 807h152z" />
    <glyph glyph-name="x" unicode="x" horiz-adv-x="937" 
d="M553 510l233 -510h-168l-165 401l-312 -401h-176l422 524l-221 486h166l160 -379l288 379h176z" />
    <glyph glyph-name="y" unicode="y" horiz-adv-x="868" 
d="M-20 -430h-64l27 127h43q70 0 103 26t79 107l100 193l-145 987h143l105 -813l417 813h158l-672 -1252q-52 -91 -89 -123q-74 -65 -205 -65z" />
    <glyph glyph-name="z" unicode="z" horiz-adv-x="901" 
d="M874 889l-675 -762h536l-24 -127h-711l25 121l673 762h-505l24 127h682z" />
    <glyph glyph-name="braceleft" unicode="{" horiz-adv-x="692" 
d="M420 582q0 -44 -6 -68l-76 -379q-10 -58 -10 -92q0 -35 24.5 -51.5t83.5 -16.5h68l-25 -127h-82q-173 0 -195 76t-22 113t13 86l77 385q4 20 4 34.5t-3 41.5t-23.5 56.5t-79.5 29.5h-41l27 127h49q55 0 98 39q35 27 57 122l78 388q16 78 50 171t239 93h88l-27 -127h-51
q-82 0 -111 -30t-46 -122l-80 -397q-18 -96 -59.5 -141t-106.5 -66q88 -48 88 -145z" />
    <glyph glyph-name="bar" unicode="|" horiz-adv-x="634" 
d="M258 -152h-141l350 1762h143z" />
    <glyph glyph-name="braceright" unicode="}" horiz-adv-x="692" 
d="M365 877q0 43 6 67l75 379q4 23 7.5 41t3.5 52q0 67 -109 67h-67l24 127h82q178 0 196.5 -76t18.5 -114t-10 -85l-78 -385q-4 -16 -4 -56t22.5 -73t81.5 -33h43l-26 -126h-49q-126 0 -158 -162l-76 -387q-16 -78 -50 -171.5t-239 -93.5h-88l25 127h53q82 0 111.5 31.5
t46.5 120.5l80 397q18 96 59 141.5t107 65.5q-88 48 -88 146z" />
    <glyph glyph-name="asciitilde" unicode="~" horiz-adv-x="1050" 
d="M520 487q-102 55 -152 56q-51 0 -88.5 -16.5t-107.5 -73.5l-76 96q132 116 189 124.5t83 8.5q84 0 186 -56t151 -57q49 0 87.5 16.5t108.5 73.5l74 -96q-94 -83 -153.5 -107t-129.5 -24t-172 55z" />
    <glyph glyph-name="uni00A0" unicode="&#xa0;" horiz-adv-x="483" 
 />
    <glyph glyph-name="exclamdown" unicode="&#xa1;" horiz-adv-x="616" 
d="M424 834h-170l35 176h170zM174 -449h-168l232 1055h122z" />
    <glyph glyph-name="cent" unicode="&#xa2;" horiz-adv-x="974" 
d="M295 586q0 -70 41 -135.5t121 -83.5l145 766q-91 -19 -170 -107q-137 -153 -137 -440zM152 591q0 257 123 450.5t343 220.5l37 196h117l-39 -194q156 -18 250 -156l-104 -86q-65 98 -179 115l-145 -777q109 7 219 117l82 -98q-78 -78 -154.5 -109.5t-164.5 -36.5
l-45 -233h-115l47 240q-137 25 -204.5 127t-67.5 224z" />
    <glyph glyph-name="sterling" unicode="&#xa3;" horiz-adv-x="1069" 
d="M804 1339q-138 0 -224 -89t-117 -246l-43 -220h289l-23 -104h-287l-108 -549h610l-27 -131h-759l137 680h-123l18 104h125l47 236q43 211 167 330.5t326 119.5t312 -133l-108 -94q-74 96 -212 96z" />
    <glyph glyph-name="currency" unicode="&#xa4;" horiz-adv-x="1353" 
d="M997 555q0 68 -24.5 126t-67.5 101t-101.5 69t-126 26t-125.5 -26t-101 -69t-69 -101t-26 -126t26 -126t69 -101t101 -69t125.5 -26t126 26t101.5 69t67.5 101t24.5 126zM227 555q0 151 90 270l-149 150l90 90l150 -150q121 91 266 91t272 -91l150 150l90 -90l-148 -150
q88 -122 88 -270t-88 -270l148 -150l-90 -90l-150 150q-127 -91 -272 -91t-266 91l-150 -150l-90 90l149 150q-90 119 -90 270z" />
    <glyph glyph-name="yen" unicode="&#xa5;" horiz-adv-x="1003" 
d="M745 813h195l-20 -102h-244l-76 -113l-20 -102h299l-21 -105h-299l-78 -391h-149l78 391h-297l20 105h297l23 110l-31 105h-248l21 102h196l-186 645h155l193 -704l459 704h166z" />
    <glyph glyph-name="brokenbar" unicode="&#xa6;" horiz-adv-x="653" 
d="M258 -152h-141l141 717h143zM467 893h-143l143 717h143z" />
    <glyph glyph-name="section" unicode="&#xa7;" horiz-adv-x="1081" 
d="M778 601q0 134 -74.5 158.5t-109.5 24.5q-102 0 -178 -69q-111 -106 -111 -288q0 -83 56 -129t142 -46t165 74q110 102 110 275zM440 866q-133 75 -133 239t118 264.5t276 100.5t237.5 -84t79.5 -190q0 -29 -2 -39h-139q8 90 -44.5 138t-148.5 48t-165.5 -65.5
t-69.5 -171.5q0 -70 36.5 -107.5t96.5 -58.5l137 -45q135 -49 168 -136t33 -154q0 -141 -68 -255.5t-209 -177.5q59 -29 99 -88.5t40 -147.5q0 -178 -117 -287.5t-305 -109.5q-135 0 -223 73t-88 208v16q0 17 2 27h142q-10 -92 39 -143.5t152 -51.5t178 67.5t75 158
t-35 136.5t-100 68l-137 45q-135 46 -168 135.5t-33 155.5q0 140 70.5 257.5t205.5 174.5z" />
    <glyph glyph-name="dieresis" unicode="&#xa8;" 
d="M524 1221h-139l35 178h139zM934 1221h-139l34 178h140z" />
    <glyph glyph-name="copyright" unicode="&#xa9;" horiz-adv-x="1710" 
d="M904 334q-83 0 -147.5 29.5t-108.5 83t-66.5 125t-22.5 203.5t91 241.5t255 109.5q82 0 138.5 -25.5t115.5 -78.5l-72 -72q-49 43 -89 59.5t-100 16.5t-105 -23.5t-73 -63.5t-40 -94t-12 -153t56.5 -179.5t180.5 -80.5q53 0 93 16.5t89 59.5l72 -72q-55 -49 -113.5 -75.5
t-141.5 -26.5zM1485 729q0 123 -46 231.5t-126 190.5t-187.5 129t-230.5 47t-229.5 -47t-186.5 -129t-126 -190.5t-46 -231.5t46 -231.5t126 -190.5t186.5 -129t229.5 -47t230.5 47t187.5 129t126 190.5t46 231.5zM1599 729q0 -145 -55 -274t-150.5 -224.5t-224.5 -150.5
t-274 -55t-274 55t-224.5 150.5t-151 224.5t-55.5 274t55.5 274.5t151 224.5t224.5 150.5t274 55.5t274 -55.5t224.5 -150.5t150.5 -224.5t55 -274.5z" />
    <glyph glyph-name="ordfeminine" unicode="&#xaa;" horiz-adv-x="874" 
d="M496 1022q-92 0 -147.5 -48t-55.5 -130q0 -102 158 -103q105 -1 161 55t70 134l18 92h-204zM297 1354q112 112 263 112q140 0 219 -46.5t79 -164.5q0 -39 -6 -63l-109 -541h-112l14 78q-76 -88 -235 -88t-196.5 71.5t-37.5 123.5q0 119 74 190q84 84 233 84h234l16 84
q4 23 6 34t2 21q-1 113 -159 113q-76 0 -124 -21.5t-91 -68.5z" />
    <glyph glyph-name="guillemotleft" unicode="&#xab;" horiz-adv-x="1081" 
d="M987 784l-285 -247l191 -248l-35 -172l-330 432l498 430zM545 784l-283 -247l187 -248l-33 -172l-330 432l498 430z" />
    <glyph glyph-name="logicalnot" unicode="&#xac;" horiz-adv-x="1015" 
d="M858 213h-131l57 285h-686l27 133h817z" />
    <glyph glyph-name="uni00AD" unicode="&#xad;" horiz-adv-x="829" 
d="M680 485h-537l27 133h537z" />
    <glyph glyph-name="registered" unicode="&#xae;" horiz-adv-x="1710" 
d="M1061 884.5q0 57.5 -41 96.5t-105 39h-141v-268h141q63 0 104.5 37.5t41.5 95zM774 659v-315h-110v772h264q99 0 171 -66.5t72 -158.5t-46 -144.5t-117 -74.5l184 -328h-127l-176 315h-115zM1487 729q0 123 -46 232.5t-127 191.5t-188.5 129t-230.5 47t-230.5 -47
t-187.5 -129t-126 -191.5t-46 -232.5t46 -232.5t126 -191.5t187.5 -129t230.5 -47t230.5 47t188.5 129t127 191.5t46 232.5zM1599 729q0 -145 -55 -274t-150.5 -224.5t-224.5 -150.5t-274 -55t-274 55t-224.5 150.5t-151 224.5t-55.5 274t55.5 274.5t151 224.5t224.5 150.5
t274 55.5t274 -55.5t224.5 -150.5t150.5 -224.5t55 -274.5z" />
    <glyph glyph-name="macron" unicode="&#xaf;" horiz-adv-x="989" 
d="M961 1253h-586l22 109h586z" />
    <glyph glyph-name="degree" unicode="&#xb0;" horiz-adv-x="933" 
d="M740.5 1292.5q-60.5 61.5 -150.5 61.5t-149.5 -62t-59.5 -153q0 -90 59 -152.5t149.5 -62.5t151 62t60.5 153q0 92 -60.5 153.5zM922 1138.5q0 -69.5 -26 -130t-71 -104.5t-105.5 -69.5t-130 -25.5t-130 25.5t-104.5 69.5t-69.5 104.5t-25.5 130t25.5 130t69.5 105.5
t104.5 70.5t130 25.5t130 -25.5t105.5 -70.5t71 -105.5t26 -130z" />
    <glyph glyph-name="plusminus" unicode="&#xb1;" horiz-adv-x="1015" 
d="M817 0h-813l27 131h813zM930 590h-338l-72 -367h-133l74 367h-342l26 131h342l72 362h133l-74 -362h338z" />
    <glyph glyph-name="twosuperior" unicode="&#xb2;" horiz-adv-x="622" 
d="M584 1255q0 109 -105 109q-132 0 -155 -137h-113q24 156 113.5 197.5t180.5 41.5t143 -59t52 -141t-42 -145.5t-87 -108.5l-321 -326h344l-21 -102h-483l21 102l385 395q88 88 88 174z" />
    <glyph glyph-name="threesuperior" unicode="&#xb3;" horiz-adv-x="622" 
d="M471 1466q96 0 153.5 -56t57.5 -142q0 -180 -145 -238q43 -27 63.5 -64.5t20.5 -99.5q0 -129 -77.5 -210t-204.5 -81t-182 60t-55 133v20q0 19 2 29h115q-17 -139 123 -139q63 0 114.5 45t51.5 119q0 73 -25.5 107t-95.5 34h-18l20 98h14q85 0 125.5 48.5t40.5 117.5
t-31.5 94t-72.5 25q-125 0 -160 -133h-112q53 233 278 233z" />
    <glyph glyph-name="acute" unicode="&#xb4;" horiz-adv-x="991" 
d="M696 1206h-143l242 310h163z" />
    <glyph glyph-name="mu" unicode="&#xb5;" horiz-adv-x="1097" 
d="M272 293q0 -92 53.5 -135t131.5 -43q146 0 212 92t85 184l123 619h145l-201 -1010h-141l20 113q-108 -125 -297 -125q-119 0 -184 82l-102 -519h-144l291 1459h144l-125 -623q-11 -69 -11 -94z" />
    <glyph glyph-name="paragraph" unicode="&#xb6;" horiz-adv-x="1175" 
d="M318.5 1333.5q125.5 124.5 361.5 124.5h489l-381 -1907h-143l352 1774h-225l-354 -1774h-144l230 1149q-136 4 -223.5 103.5t-87.5 252.5t125.5 277.5z" />
    <glyph glyph-name="periodcentered" unicode="&#xb7;" horiz-adv-x="526" 
d="M346 461h-184l37 184h184z" />
    <glyph glyph-name="cedilla" unicode="&#xb8;" horiz-adv-x="1028" 
d="M317 -434h-153l192 301h133z" />
    <glyph glyph-name="onesuperior" unicode="&#xb9;" horiz-adv-x="622" 
d="M426 584h-111l148 739l-195 -145l27 139l194 141h113z" />
    <glyph glyph-name="ordmasculine" unicode="&#xba;" horiz-adv-x="884" 
d="M756 1198q0 85 -46 123.5t-104 38.5q-94 0 -151 -60q-74 -74 -109 -245q-16 -93 -16 -141q0 -88 44.5 -127t103.5 -39q94 0 161 67t101 251q16 89 16 132zM821.5 1374q48.5 -92 48.5 -156t-14 -163q-48 -234 -148 -323t-233 -89q-162 0 -211 91t-49 155t14 166
q47 229 150 320q102 91 233 91q161 0 209.5 -92z" />
    <glyph glyph-name="guillemotright" unicode="&#xbb;" horiz-adv-x="1081" 
d="M76 117l39 194l284 248l-190 248l35 172l329 -432zM518 117l39 194l283 248l-187 248l33 172l330 -432z" />
    <glyph glyph-name="onequarter" unicode="&#xbc;" horiz-adv-x="1611" 
d="M1501 135h-94l-27 -135h-110l28 135h-340l21 103l416 636h127l-420 -636h215l43 215h110l-43 -215h93zM442 0h-123l941 1458h122zM426 584h-111l148 739l-195 -145l27 139l194 141h113z" />
    <glyph glyph-name="onehalf" unicode="&#xbd;" horiz-adv-x="1611" 
d="M1456 672q0 108 -104 108t-128 -56t-28 -81h-113q24 156 113.5 198t181.5 42t143.5 -59.5t51.5 -141.5t-42 -145.5t-87 -108.5l-322 -326h344l-20 -102h-483l20 102l385 396q88 88 88 174zM442 0h-123l941 1458h122zM426 584h-111l148 739l-195 -145l27 139l194 141h113z
" />
    <glyph glyph-name="threequarters" unicode="&#xbe;" horiz-adv-x="1611" 
d="M1501 135h-94l-27 -135h-110l28 135h-340l21 103l416 636h127l-420 -636h215l43 215h110l-43 -215h93zM442 0h-123l941 1458h122zM473 1466q96 0 153.5 -56t57.5 -142q0 -180 -145 -238q43 -27 63.5 -64.5t20.5 -99.5q0 -129 -77.5 -210t-204.5 -81t-182 60t-55 133v20
q0 19 2 29h115q-17 -139 123 -139q63 0 114.5 45t51.5 119q0 73 -25.5 107t-95.5 34h-18l20 98h15q84 0 124.5 48.5t40.5 117.5t-31.5 94t-72.5 25q-125 0 -160 -133h-112q53 233 278 233z" />
    <glyph glyph-name="questiondown" unicode="&#xbf;" horiz-adv-x="970" 
d="M586 834h-170l33 176h169zM272 -461q-127 0 -216 80.5t-89 220.5q0 98 39 174t105 150l206 239q52 62 62 119l16 86h144l-19 -92q-12 -59 -32.5 -101t-65.5 -93l-205 -236q-51 -59 -77.5 -112.5t-26.5 -126.5t45 -126t142 -53t170 62.5t95 173.5h146
q-33 -174 -149 -269.5t-290 -95.5z" />
    <glyph glyph-name="Agrave" unicode="&#xc0;" horiz-adv-x="1189" 
d="M748 1243l-418 -786h526zM915 0l-45 332h-606l-178 -332h-160l797 1458h125l219 -1458h-152zM729 1587l-145 309h157l117 -309h-129z" />
    <glyph glyph-name="Aacute" unicode="&#xc1;" horiz-adv-x="1189" 
d="M748 1243l-418 -786h526zM915 0l-45 332h-606l-178 -332h-160l797 1458h125l219 -1458h-152zM836 1587h-142l240 309h164z" />
    <glyph glyph-name="Acircumflex" unicode="&#xc2;" horiz-adv-x="1189" 
d="M748 1243l-418 -786h526zM915 0l-45 332h-606l-178 -332h-160l797 1458h125l219 -1458h-152zM975 1587l-133 219l-224 -219h-139l305 314h134l182 -314h-125z" />
    <glyph glyph-name="Atilde" unicode="&#xc3;" horiz-adv-x="1189" 
d="M748 1243l-418 -786h526zM915 0l-45 332h-606l-178 -332h-160l797 1458h125l219 -1458h-152zM686 1706q-55 0 -127 -70l-61 76q104 100 187 99t151 -50q35 -25 54 -33t61 -8t116 70l61 -76q-104 -100 -188 -99t-149 50q-35 25 -55 33t-50 8z" />
    <glyph glyph-name="Adieresis" unicode="&#xc4;" horiz-adv-x="1189" 
d="M748 1243l-418 -786h526zM915 0l-45 332h-606l-178 -332h-160l797 1458h125l219 -1458h-152zM664 1604h-140l35 178h139zM1073 1604h-139l35 178h139z" />
    <glyph glyph-name="Aring" unicode="&#xc5;" horiz-adv-x="1189" 
d="M748 1243l-418 -786h526zM915 0l-45 332h-606l-178 -332h-160l797 1458h125l219 -1458h-152zM950 1766q0 58 -43 100t-101 43q-58 0 -101 -42q-43 -43 -43 -101t43 -101t101 -43t101 43t43 101zM1047 1766q0 -98 -70 -170t-169 -72q-100 0 -170 70t-72 172q-1 101 70 171
t173 70t170 -72q68 -71 68 -169z" />
    <glyph glyph-name="AE" unicode="&#xc6;" horiz-adv-x="1804" 
d="M414 479h417l170 850zM1858 1329h-709l-107 -532h607l-27 -131h-606l-107 -537h719l-26 -129h-867l70 354h-475l-246 -354h-168l1022 1458h946z" />
    <glyph glyph-name="Ccedilla" unicode="&#xc7;" horiz-adv-x="1243" 
d="M291 366q1 -44 23 -94t60 -84q77 -71 207 -71t229 85q100 85 144 214h152q-62 -205 -208 -317q-146 -111 -332 -111t-306 104q-119 104 -119 289q0 125 53 376t90 356q36 105 115 188q161 169 380 169q218 0 327 -119q108 -119 106 -309h-149q-2 136 -72 218t-203 81
q-162 0 -276 -122q-59 -59 -87 -140q-49 -145 -84 -337q-36 -191 -41 -232t-7 -71q-2 -29 -2 -73zM436 -434h-153l192 301h133z" />
    <glyph glyph-name="Egrave" unicode="&#xc8;" horiz-adv-x="1171" 
d="M1225 1329h-709l-106 -528h608l-25 -129h-608l-111 -543h723l-24 -129h-873l293 1458h858zM758 1587l-146 309h158l117 -309h-129z" />
    <glyph glyph-name="Eacute" unicode="&#xc9;" horiz-adv-x="1171" 
d="M1225 1329h-709l-106 -528h608l-25 -129h-608l-111 -543h723l-24 -129h-873l293 1458h858zM864 1587h-141l240 309h163z" />
    <glyph glyph-name="Ecircumflex" unicode="&#xca;" horiz-adv-x="1171" 
d="M1225 1329h-709l-106 -528h608l-25 -129h-608l-111 -543h723l-24 -129h-873l293 1458h858zM1004 1587l-134 219l-223 -219h-139l305 314h133l182 -314h-124z" />
    <glyph glyph-name="Edieresis" unicode="&#xcb;" horiz-adv-x="1171" 
d="M1225 1329h-709l-106 -528h608l-25 -129h-608l-111 -543h723l-24 -129h-873l293 1458h858zM692 1604h-139l35 178h139zM1102 1604h-139l34 178h140z" />
    <glyph glyph-name="Igrave" unicode="&#xcc;" horiz-adv-x="550" 
d="M248 0h-148l293 1458h148zM449 1587l-146 309h158l117 -309h-129z" />
    <glyph glyph-name="Iacute" unicode="&#xcd;" horiz-adv-x="550" 
d="M248 0h-148l293 1458h148zM549 1587h-141l239 309h164z" />
    <glyph glyph-name="Icircumflex" unicode="&#xce;" horiz-adv-x="550" 
d="M248 0h-148l293 1458h148zM659 1587l-133 219l-223 -219h-139l305 314h133l182 -314h-125z" />
    <glyph glyph-name="Idieresis" unicode="&#xcf;" horiz-adv-x="550" 
d="M248 0h-148l293 1458h148zM348 1604h-139l35 178h139zM758 1604h-140l35 178h140z" />
    <glyph glyph-name="Eth" unicode="&#xd0;" horiz-adv-x="1335" 
d="M1135 1055q0 123 -68 198.5t-221 75.5h-303l-109 -536h316l-23 -115h-315l-111 -549h301q177 0 293 104q66 62 105.5 168.5t70.5 256.5t39 197.5t16.5 97t8.5 102.5zM872 1458q276 0 343 -140t67 -242t-34 -281q-57 -303 -109 -437.5t-138 -213.5q-157 -144 -391 -144
h-483l135 678h-149l22 115h150l135 665h452z" />
    <glyph glyph-name="Ntilde" unicode="&#xd1;" horiz-adv-x="1423" 
d="M1124 0h-137l-502 1182l-237 -1182h-148l293 1458h137l502 -1182l236 1182h149zM805 1706q-57 0 -127 -70l-62 76q104 100 188 99t150 -50q34 -25 54 -33t62 -8t116 70l61 -76q-104 -100 -187 -99t-151 50q-35 25 -54 33t-50 8z" />
    <glyph glyph-name="Ograve" unicode="&#xd2;" horiz-adv-x="1263" 
d="M1057 1088q0 46 -22 99q-65 154 -259 154q-148 0 -266 -122q-95 -102 -156 -411q-46 -233 -55 -300q-8 -67 -8 -126q0 -123 77 -194t175 -71q176 0 293 123q59 63 84 139q26 75 46 156q91 383 91 553zM1206 1110q0 -170 -57 -427t-81 -324q-85 -238 -299 -329
q-99 -42 -205 -42q-198 0 -310 108q-113 108 -113 285q0 125 36 298t65 302t91 233q157 256 468 256q88 0 163 -27q150 -56 212 -203q30 -72 30 -130zM762 1587l-146 309h158l117 -309h-129z" />
    <glyph glyph-name="Oacute" unicode="&#xd3;" horiz-adv-x="1263" 
d="M1057 1088q0 46 -22 99q-65 154 -259 154q-148 0 -266 -122q-95 -102 -156 -411q-46 -233 -55 -300q-8 -67 -8 -126q0 -123 77 -194t175 -71q176 0 293 123q59 63 84 139q26 75 46 156q91 383 91 553zM1206 1110q0 -170 -57 -427t-81 -324q-85 -238 -299 -329
q-99 -42 -205 -42q-198 0 -310 108q-113 108 -113 285q0 125 36 298t65 302t91 233q157 256 468 256q88 0 163 -27q150 -56 212 -203q30 -72 30 -130zM868 1587h-141l240 309h163z" />
    <glyph glyph-name="Ocircumflex" unicode="&#xd4;" horiz-adv-x="1263" 
d="M1057 1088q0 46 -22 99q-65 154 -259 154q-148 0 -266 -122q-95 -102 -156 -411q-46 -233 -55 -300q-8 -67 -8 -126q0 -123 77 -194t175 -71q176 0 293 123q59 63 84 139q26 75 46 156q91 383 91 553zM1206 1110q0 -170 -57 -427t-81 -324q-85 -238 -299 -329
q-99 -42 -205 -42q-198 0 -310 108q-113 108 -113 285q0 125 36 298t65 302t91 233q157 256 468 256q88 0 163 -27q150 -56 212 -203q30 -72 30 -130zM1008 1587l-134 219l-223 -219h-139l305 314h133l183 -314h-125z" />
    <glyph glyph-name="Otilde" unicode="&#xd5;" horiz-adv-x="1263" 
d="M1057 1088q0 46 -22 99q-65 154 -259 154q-148 0 -266 -122q-95 -102 -156 -411q-46 -233 -55 -300q-8 -67 -8 -126q0 -123 77 -194t175 -71q176 0 293 123q59 63 84 139q26 75 46 156q91 383 91 553zM1206 1110q0 -170 -57 -427t-81 -324q-85 -238 -299 -329
q-99 -42 -205 -42q-198 0 -310 108q-113 108 -113 285q0 125 36 298t65 302t91 233q157 256 468 256q88 0 163 -27q150 -56 212 -203q30 -72 30 -130zM719 1706q-57 0 -127 -70l-62 76q104 100 188 99t150 -50q34 -25 54 -33t62 -8t116 70l61 -76q-104 -100 -187 -99
t-151 50q-35 25 -54 33t-50 8z" />
    <glyph glyph-name="Odieresis" unicode="&#xd6;" horiz-adv-x="1263" 
d="M1057 1088q0 46 -22 99q-65 154 -259 154q-148 0 -266 -122q-95 -102 -156 -411q-46 -233 -55 -300q-8 -67 -8 -126q0 -123 77 -194t175 -71q176 0 293 123q59 63 84 139q26 75 46 156q91 383 91 553zM1206 1110q0 -170 -57 -427t-81 -324q-85 -238 -299 -329
q-99 -42 -205 -42q-198 0 -310 108q-113 108 -113 285q0 125 36 298t65 302t91 233q157 256 468 256q88 0 163 -27q150 -56 212 -203q30 -72 30 -130zM696 1604h-139l35 178h139zM1106 1604h-139l34 178h140z" />
    <glyph glyph-name="multiply" unicode="&#xd7;" horiz-adv-x="1015" 
d="M606 547l236 -311l-101 -89l-235 312l-352 -305l-76 98l352 305l-235 313l102 88l235 -313l353 305l73 -98z" />
    <glyph glyph-name="Oslash" unicode="&#xd8;" horiz-adv-x="1265" 
d="M549 117q168 0 287 123q57 61 103 195t82 354.5t36 275.5t-25 127l-651 -1016q76 -59 168 -59zM291 366q0 -50 24 -102l652 1016q-74 61 -167 61q-172 0 -290 -122q-98 -106 -157 -413q-54 -281 -58 -335.5t-4 -104.5zM1206 1077q0 -89 -17 -180t-37 -191
q-49 -251 -109.5 -418.5t-216.5 -233.5t-288 -66t-233 65l-94 -143h-129l143 215q-84 100 -84 241q0 140 36 313q69 331 109 439.5t120 190.5q149 161 395 161q139 0 241 -67l95 145h129l-142 -221q82 -99 82 -250z" />
    <glyph glyph-name="Ugrave" unicode="&#xd9;" horiz-adv-x="1329" 
d="M168 352q0 72 14 156l189 950h149l-192 -964q-8 -33 -10 -93q-3 -121 66 -202t210 -81q140 1 256 100t151 286l189 954h149l-194 -979q-73 -356 -371 -460q-179 -61 -340 -10t-230 195q-36 76 -36 148zM801 1587l-146 309h158l117 -309h-129z" />
    <glyph glyph-name="Uacute" unicode="&#xda;" horiz-adv-x="1329" 
d="M168 352q0 72 14 156l189 950h149l-192 -964q-8 -33 -10 -93q-3 -121 66 -202t210 -81q140 1 256 100t151 286l189 954h149l-194 -979q-73 -356 -371 -460q-179 -61 -340 -10t-230 195q-36 76 -36 148zM907 1587h-141l240 309h163z" />
    <glyph glyph-name="Ucircumflex" unicode="&#xdb;" horiz-adv-x="1329" 
d="M168 352q0 72 14 156l189 950h149l-192 -964q-8 -33 -10 -93q-3 -121 66 -202t210 -81q140 1 256 100t151 286l189 954h149l-194 -979q-73 -356 -371 -460q-179 -61 -340 -10t-230 195q-36 76 -36 148zM1049 1587l-134 219l-223 -219h-139l305 314h133l183 -314h-125z
" />
    <glyph glyph-name="Udieresis" unicode="&#xdc;" horiz-adv-x="1329" 
d="M168 352q0 72 14 156l189 950h149l-192 -964q-8 -33 -10 -93q-3 -121 66 -202t210 -81q140 1 256 100t151 286l189 954h149l-194 -979q-73 -356 -371 -460q-179 -61 -340 -10t-230 195q-36 76 -36 148zM735 1604h-139l35 178h139zM1145 1604h-139l34 178h140z" />
    <glyph glyph-name="Yacute" unicode="&#xdd;" horiz-adv-x="1013" 
d="M600 596l-121 -596h-149l123 606l-248 852h155l193 -704l459 704h166zM741 1587h-141l240 309h164z" />
    <glyph glyph-name="Thorn" unicode="&#xde;" horiz-adv-x="1251" 
d="M1051 786q0 246 -242 246h-352l-119 -588h352q159 0 233 74t101 140t27 128zM1200 793q0 -86 -35 -176.5t-140 -197t-341 -106.5h-371l-65 -313h-148l293 1458h148l-60 -295h346q191 0 282 -101.5t91 -268.5z" />
    <glyph glyph-name="germandbls" unicode="&#xdf;" horiz-adv-x="1087" 
d="M987 721q0 -31 -10 -78l-68 -352q-29 -141 -113.5 -216t-215.5 -75h-117l22 123h84q71 0 123 43q55 41 76 139l70 348q6 31 6 52q0 63 -38 90.5t-91 27.5h-90l24 119h72q98 0 154.5 70.5t56.5 158.5q0 124 -72 150.5t-125 26.5q-137 0 -206.5 -78t-94.5 -201l-215 -1069
h-143l215 1075q80 397 459 398q141 0 233 -76t92 -221q0 -88 -45 -169t-133 -128q90 -52 90 -158z" />
    <glyph glyph-name="agrave" unicode="&#xe0;" 
d="M453 469q-117 0 -189 -58t-71 -169q0 -135 200 -133q135 0 215 79q63 59 82 164l23 117h-260zM205 877q133 145 317 145t270 -49q115 -67 115 -213q0 -40 -10 -80l-135 -680h-141l22 100q-114 -114 -289 -112q-211 0 -278 131q-25 47 -25 112q0 150 90 238
q112 108 297 106h295l23 107q8 28 8 68q0 74 -54 112t-148 37q-94 0 -156 -30q-61 -30 -117 -91zM565 1206l-147 310h157l119 -310h-129z" />
    <glyph glyph-name="aacute" unicode="&#xe1;" 
d="M453 469q-117 0 -189 -58t-71 -169q0 -135 200 -133q135 0 215 79q63 59 82 164l23 117h-260zM205 877q133 145 317 145t270 -49q115 -67 115 -213q0 -40 -10 -80l-135 -680h-141l22 100q-114 -114 -289 -112q-211 0 -278 131q-25 47 -25 112q0 150 90 238
q112 108 297 106h295l23 107q8 28 8 68q0 74 -54 112t-148 37q-94 0 -156 -30q-61 -30 -117 -91zM672 1206h-144l242 310h164z" />
    <glyph glyph-name="acircumflex" unicode="&#xe2;" 
d="M453 469q-117 0 -189 -58t-71 -169q0 -135 200 -133q135 0 215 79q63 59 82 164l23 117h-260zM205 877q133 145 317 145t270 -49q115 -67 115 -213q0 -40 -10 -80l-135 -680h-141l22 100q-114 -114 -289 -112q-211 0 -278 131q-25 47 -25 112q0 150 90 238
q112 108 297 106h295l23 107q8 28 8 68q0 74 -54 112t-148 37q-94 0 -156 -30q-61 -30 -117 -91zM809 1204l-133 219l-221 -219h-142l308 314h131l184 -314h-127z" />
    <glyph glyph-name="atilde" unicode="&#xe3;" 
d="M453 469q-117 0 -189 -58t-71 -169q0 -135 200 -133q135 0 215 79q63 59 82 164l23 117h-260zM205 877q133 145 317 145t270 -49q115 -67 115 -213q0 -40 -10 -80l-135 -680h-141l22 100q-114 -114 -289 -112q-211 0 -278 131q-25 47 -25 112q0 150 90 238
q112 108 297 106h295l23 107q8 28 8 68q0 74 -54 112t-148 37q-94 0 -156 -30q-61 -30 -117 -91zM509 1321q-42 0 -118 -70l-59 76q104 100 187 99t134 -38q50 -37 70 -45t61 -8t117 70l62 -76q-104 -100 -188 -99t-150 50q-35 25 -55 33t-61 8z" />
    <glyph glyph-name="adieresis" unicode="&#xe4;" 
d="M453 469q-117 0 -189 -58t-71 -169q0 -135 200 -133q135 0 215 79q63 59 82 164l23 117h-260zM205 877q133 145 317 145t270 -49q115 -67 115 -213q0 -40 -10 -80l-135 -680h-141l22 100q-114 -114 -289 -112q-211 0 -278 131q-25 47 -25 112q0 150 90 238
q112 108 297 106h295l23 107q8 28 8 68q0 74 -54 112t-148 37q-94 0 -156 -30q-61 -30 -117 -91zM500 1221h-140l35 178h140zM909 1221h-139l35 178h139z" />
    <glyph glyph-name="aring" unicode="&#xe5;" 
d="M453 469q-117 0 -189 -58t-71 -169q0 -135 200 -133q135 0 215 79q63 59 82 164l23 117h-260zM205 877q133 145 317 145t270 -49q115 -67 115 -213q0 -40 -10 -80l-135 -680h-141l22 100q-114 -114 -289 -112q-211 0 -278 131q-25 47 -25 112q0 150 90 238
q112 108 297 106h295l23 107q8 28 8 68q0 74 -54 112t-148 37q-94 0 -156 -30q-61 -30 -117 -91zM811 1404q0 58 -43 100t-102 42q-58 0 -102 -42t-44 -100t43 -101t103 -43t102 43q43 43 43 101zM905 1404q0 -102 -68 -170t-171 -70q-102 -1 -171 69t-69 172t69 170t170 69
q101 2 171 -68t69 -172z" />
    <glyph glyph-name="ae" unicode="&#xe6;" horiz-adv-x="1636" 
d="M1391 688q0 96 -56 154.5t-154 58.5t-180.5 -79t-128.5 -249h508q11 68 11 115zM193 240q0 -134 198 -134q133 0 217 80q63 63 82 164l23 119h-262q-117 0 -187.5 -58.5t-70.5 -170.5zM741 164q-115 -176 -333 -176q-182 0 -269.5 58t-87.5 194q0 137 90 227
q103 106 295 106h299l21 107q8 32 8 70q0 74 -53.5 111.5t-148.5 37.5t-157.5 -29.5t-117.5 -91.5l-82 96q68 76 152.5 112t211.5 36q233 0 305 -160q127 160 326 160q156 0 242 -97t86 -249q0 -60 -25 -207h-651q-12 -93 -12 -127q0 -100 52 -165.5t154 -65.5t166 29.5
t129 88.5l86 -94q-159 -147 -380 -147q-104 0 -185.5 45t-120.5 131z" />
    <glyph glyph-name="ccedilla" unicode="&#xe7;" horiz-adv-x="954" 
d="M793 129q-141 -141 -324 -141t-275 100t-92 262q0 88 15 156q47 254 182 385t332 131q106 0 174 -40t117 -110l-107 -90q-41 59 -86 86t-109 27q-130 0 -227 -98q-115 -124 -143 -367q-4 -35 -4 -87q0 -107 62 -168q62 -60 146 -60q83 -1 139 27t116 89zM326 -434h-154
l193 301h133z" />
    <glyph glyph-name="egrave" unicode="&#xe8;" horiz-adv-x="1036" 
d="M788 676q0 119 -58 172t-152 53t-179 -79q-84 -79 -127 -249h508q8 50 8 103zM102 336q0 260 115 457q59 101 153 165t238 64q143 0 232 -96q88 -96 88 -250q0 -71 -25 -207h-651q-12 -93 -12 -127q0 -100 51 -166t153 -66t168 30q64 30 129 89l86 -94
q-159 -147 -381 -147q-154 0 -249 89t-95 259zM594 1206l-148 310h158l119 -310h-129z" />
    <glyph glyph-name="eacute" unicode="&#xe9;" horiz-adv-x="1036" 
d="M788 676q0 119 -58 172t-152 53t-179 -79q-84 -79 -127 -249h508q8 50 8 103zM102 336q0 260 115 457q59 101 153 165t238 64q143 0 232 -96q88 -96 88 -250q0 -71 -25 -207h-651q-12 -93 -12 -127q0 -100 51 -166t153 -66t168 30q64 30 129 89l86 -94
q-159 -147 -381 -147q-154 0 -249 89t-95 259zM700 1206h-143l242 310h164z" />
    <glyph glyph-name="ecircumflex" unicode="&#xea;" horiz-adv-x="1036" 
d="M788 676q0 119 -58 172t-152 53t-179 -79q-84 -79 -127 -249h508q8 50 8 103zM102 336q0 260 115 457q59 101 153 165t238 64q143 0 232 -96q88 -96 88 -250q0 -71 -25 -207h-651q-12 -93 -12 -127q0 -100 51 -166t153 -66t168 30q64 30 129 89l86 -94
q-159 -147 -381 -147q-154 0 -249 89t-95 259zM838 1204l-133 219l-222 -219h-141l307 314h131l185 -314h-127z" />
    <glyph glyph-name="edieresis" unicode="&#xeb;" horiz-adv-x="1036" 
d="M788 676q0 119 -58 172t-152 53t-179 -79q-84 -79 -127 -249h508q8 50 8 103zM102 336q0 260 115 457q59 101 153 165t238 64q143 0 232 -96q88 -96 88 -250q0 -71 -25 -207h-651q-12 -93 -12 -127q0 -100 51 -166t153 -66t168 30q64 30 129 89l86 -94
q-159 -147 -381 -147q-154 0 -249 89t-95 259zM528 1221h-139l35 178h139zM938 1221h-139l35 178h139z" />
    <glyph glyph-name="igrave" unicode="&#xec;" horiz-adv-x="491" 
d="M219 0h-143l200 1010h144zM311 1206l-147 310h158l118 -310h-129z" />
    <glyph glyph-name="iacute" unicode="&#xed;" horiz-adv-x="491" 
d="M449 1206h-144l242 310h164zM219 0h-143l200 1010h144z" />
    <glyph glyph-name="icircumflex" unicode="&#xee;" horiz-adv-x="491" 
d="M219 0h-143l200 1010h144zM555 1204l-133 219l-221 -219h-142l308 314h131l184 -314h-127z" />
    <glyph glyph-name="idieresis" unicode="&#xef;" horiz-adv-x="491" 
d="M219 0h-143l200 1010h144zM236 1221h-140l35 178h139zM645 1221h-139l35 178h139z" />
    <glyph glyph-name="eth" unicode="&#xf0;" horiz-adv-x="1032" 
d="M780 670q0 122 -56 170.5t-122 48.5q-122 0 -205 -82q-84 -82 -129 -305q-20 -98 -20 -168q0 -121 56.5 -171t121.5 -50q119 0 204 83q86 84 128 294q22 110 22 180zM866 963q58 -162 58 -258q0 -95 -25 -223q-54 -273 -181 -383q-127 -111 -290 -111
q-203 0 -263.5 114.5t-60.5 205.5t27 225q53 259 182 372q114 105 281 105q74 0 127 -27l-78 207h-229l20 104h178l-61 168h143l60 -168h159l-18 -104h-111z" />
    <glyph glyph-name="ntilde" unicode="&#xf1;" horiz-adv-x="1095" 
d="M692 1022q124 0 202 -76t77 -209q0 -43 -13 -100l-127 -637h-143l125 623q10 62 10 94q0 92 -52 136t-132 44q-145 0 -240 -132q-39 -54 -57 -147l-123 -618h-143l200 1010h140l-21 -113q108 125 297 125zM566 1321q-43 0 -117 -70l-60 76q104 100 188 99t150 -50
q33 -25 53 -33t61 -8t117 70l62 -76q-104 -100 -188 -99t-150 50q-35 25 -54 33t-62 8z" />
    <glyph glyph-name="ograve" unicode="&#xf2;" horiz-adv-x="1028" 
d="M784 676q0 62 -16 103q-45 118 -180 118q-178 0 -266 -197q-53 -116 -73 -294q-5 -45 -5 -90q0 -98 55 -151q55 -52 124 -52q125 0 204 77q95 96 135 308q22 116 22 178zM600 1022q215 0 297 -178q29 -64 29 -150t-27 -220q-50 -250 -184 -378q-122 -110 -287 -108
q-220 0 -298 178q-28 63 -28 139t26 221q48 266 185 385q123 111 287 111zM590 1206l-148 310h158l119 -310h-129z" />
    <glyph glyph-name="oacute" unicode="&#xf3;" horiz-adv-x="1028" 
d="M784 676q0 62 -16 103q-45 118 -180 118q-178 0 -266 -197q-53 -116 -73 -294q-5 -45 -5 -90q0 -98 55 -151q55 -52 124 -52q125 0 204 77q95 96 135 308q22 116 22 178zM600 1022q215 0 297 -178q29 -64 29 -150t-27 -220q-50 -250 -184 -378q-122 -110 -287 -108
q-220 0 -298 178q-28 63 -28 139t26 221q48 266 185 385q123 111 287 111zM696 1206h-143l242 310h163z" />
    <glyph glyph-name="ocircumflex" unicode="&#xf4;" horiz-adv-x="1028" 
d="M784 676q0 62 -16 103q-45 118 -180 118q-178 0 -266 -197q-53 -116 -73 -294q-5 -45 -5 -90q0 -98 55 -151q55 -52 124 -52q125 0 204 77q95 96 135 308q22 116 22 178zM600 1022q215 0 297 -178q29 -64 29 -150t-27 -220q-50 -250 -184 -378q-122 -110 -287 -108
q-220 0 -298 178q-28 63 -28 139t26 221q48 266 185 385q123 111 287 111zM834 1204l-134 219l-221 -219h-141l307 314h131l185 -314h-127z" />
    <glyph glyph-name="otilde" unicode="&#xf5;" horiz-adv-x="1028" 
d="M784 676q0 62 -16 103q-45 118 -180 118q-178 0 -266 -197q-53 -116 -73 -294q-5 -45 -5 -90q0 -98 55 -151q55 -52 124 -52q125 0 204 77q95 96 135 308q22 116 22 178zM600 1022q215 0 297 -178q29 -64 29 -150t-27 -220q-50 -250 -184 -378q-122 -110 -287 -108
q-220 0 -298 178q-28 63 -28 139t26 221q48 266 185 385q123 111 287 111zM533 1321q-43 0 -117 -70l-60 76q104 100 188 99t150 -50q34 -25 54 -33t52 -8q32 -1 60 17t66 53l61 -76q-104 -100 -187 -99t-151 50q-35 25 -54 33t-62 8z" />
    <glyph glyph-name="odieresis" unicode="&#xf6;" horiz-adv-x="1028" 
d="M784 676q0 62 -16 103q-45 118 -180 118q-178 0 -266 -197q-53 -116 -73 -294q-5 -45 -5 -90q0 -98 55 -151q55 -52 124 -52q125 0 204 77q95 96 135 308q22 116 22 178zM600 1022q215 0 297 -178q29 -64 29 -150t-27 -220q-50 -250 -184 -378q-122 -110 -287 -108
q-220 0 -298 178q-28 63 -28 139t26 221q48 266 185 385q123 111 287 111zM524 1221h-139l35 178h139zM934 1221h-139l34 178h140z" />
    <glyph glyph-name="divide" unicode="&#xf7;" horiz-adv-x="1015" 
d="M520 117h-170l35 170h168zM653 819h-170l35 172h168zM913 487h-817l27 131h817z" />
    <glyph glyph-name="oslash" unicode="&#xf8;" horiz-adv-x="1030" 
d="M244 336q0 -62 12 -98l463 614q-53 45 -119 45t-171 -47.5t-163 -337.5q-22 -114 -22 -176zM424 113q301 0 330.5 268t29.5 310t-16 87l-463 -618q50 -47 119 -47zM926 690q0 -70 -18 -170q-31 -169 -78.5 -265.5t-113.5 -155.5q-123 -111 -288 -111q-125 0 -205 59
l-102 -137h-113l152 203q-58 80 -58 183t27 240q96 486 487 486q96 0 183 -57l102 135h115l-150 -201q60 -81 60 -209z" />
    <glyph glyph-name="ugrave" unicode="&#xf9;" horiz-adv-x="1095" 
d="M270 293q0 -92 54 -136t131 -44q146 0 241 132q39 54 58 146l123 619h143l-201 -1010h-139l20 113q-110 -127 -296 -126q-187 1 -257 165q-33 76 -18 173q4 26 8 48l127 637h144l-125 -623q-5 -23 -9 -47t-4 -47zM612 1206l-147 310h158l118 -310h-129z" />
    <glyph glyph-name="uacute" unicode="&#xfa;" horiz-adv-x="1095" 
d="M270 293q0 -92 54 -136t131 -44q146 0 241 132q39 54 58 146l123 619h143l-201 -1010h-139l20 113q-110 -127 -296 -126q-187 1 -257 165q-33 76 -18 173q4 26 8 48l127 637h144l-125 -623q-5 -23 -9 -47t-4 -47zM719 1206h-144l242 310h164z" />
    <glyph glyph-name="ucircumflex" unicode="&#xfb;" horiz-adv-x="1095" 
d="M270 293q0 -92 54 -136t131 -44q146 0 241 132q39 54 58 146l123 619h143l-201 -1010h-139l20 113q-110 -127 -296 -126q-187 1 -257 165q-33 76 -18 173q4 26 8 48l127 637h144l-125 -623q-5 -23 -9 -47t-4 -47zM856 1204l-133 219l-221 -219h-142l308 314h131l184 -314
h-127z" />
    <glyph glyph-name="udieresis" unicode="&#xfc;" horiz-adv-x="1095" 
d="M270 293q0 -92 54 -136t131 -44q146 0 241 132q39 54 58 146l123 619h143l-201 -1010h-139l20 113q-110 -127 -296 -126q-187 1 -257 165q-33 76 -18 173q4 26 8 48l127 637h144l-125 -623q-5 -23 -9 -47t-4 -47zM547 1221h-139l34 178h140zM956 1221h-139l35 178h139z
" />
    <glyph glyph-name="yacute" unicode="&#xfd;" horiz-adv-x="868" 
d="M-20 -430h-64l27 127h43q71 1 99 23q27 22 45 48q17 26 38 62l100 193l-145 987h143l105 -813l417 813h158l-672 -1252q-52 -91 -89 -123q-74 -65 -205 -65zM606 1206h-143l242 310h163z" />
    <glyph glyph-name="thorn" unicode="&#xfe;" horiz-adv-x="1062" 
d="M297 326q0 -211 182 -211q203 0 270.5 215.5t67.5 353.5q0 211 -180 211q-139 0 -220.5 -116.5t-100.5 -265t-19 -187.5zM397 895q102 127 265 127q159 0 230 -85.5t71 -229.5q0 -83 -26 -211q-59 -292 -167 -400t-282 -108t-242 139l-117 -576h-143l381 1907h143z" />
    <glyph glyph-name="ydieresis" unicode="&#xff;" horiz-adv-x="868" 
d="M-20 -430h-64l27 127h43q71 1 99 23q27 22 45 48q17 26 38 62l100 193l-145 987h143l105 -813l417 813h158l-672 -1252q-52 -91 -89 -123q-74 -65 -205 -65zM434 1221h-139l35 178h139zM844 1221h-139l34 178h140z" />
    <glyph glyph-name="Amacron" unicode="&#x100;" horiz-adv-x="1189" 
d="M748 1243l-418 -786h526zM915 0l-45 332h-606l-178 -332h-160l797 1458h125l219 -1458h-152zM1120 1743l-22 -109h-588l22 109h588z" />
    <glyph glyph-name="amacron" unicode="&#x101;" 
d="M453 469q-117 0 -189 -58t-71 -169q0 -135 200 -133q135 0 215 79q63 59 82 164l23 117h-260zM205 877q133 145 317 145t270 -49q115 -67 115 -213q0 -40 -10 -80l-135 -680h-141l22 100q-114 -114 -289 -112q-211 0 -278 131q-25 47 -25 112q0 150 90 238
q112 108 297 106h295l23 107q8 28 8 68q0 74 -54 112t-148 37q-94 0 -156 -30q-61 -30 -117 -91zM936 1253h-586l23 109h585z" />
    <glyph glyph-name="Abreve" unicode="&#x102;" horiz-adv-x="1189" 
d="M748 1243l-418 -786h526zM915 0l-45 332h-606l-178 -332h-160l797 1458h125l219 -1458h-152zM815 1581q-123 0 -191 53t-69 156v20q0 12 2 29h113q-2 -16 -2 -24v-13q0 -53 41 -82t112 -28q158 0 193 147h114q-33 -137 -111 -198q-79 -60 -202 -60z" />
    <glyph glyph-name="abreve" unicode="&#x103;" 
d="M453 469q-117 0 -189 -58t-71 -169q0 -135 200 -133q135 0 215 79q63 59 82 164l23 117h-260zM205 877q133 145 317 145t270 -49q115 -67 115 -213q0 -40 -10 -80l-135 -680h-141l22 100q-114 -114 -289 -112q-211 0 -278 131q-25 47 -25 112q0 150 90 238
q112 108 297 106h295l23 107q8 28 8 68q0 74 -54 112t-148 37q-94 0 -156 -30q-61 -30 -117 -91zM645 1190q-123 0 -191 53t-67 156v19q0 11 2 28h113q-2 -14 -2 -22v-15q0 -53 41 -81t112 -28q156 0 193 146h112q-31 -135 -110 -196q-80 -60 -203 -60z" />
    <glyph glyph-name="Aogonek" unicode="&#x104;" horiz-adv-x="1189" 
d="M748 1243l-418 -786h526zM915 0l-45 332h-606l-178 -332h-160l797 1458h125l219 -1458h-152zM862 -434h-153l192 301h133z" />
    <glyph glyph-name="aogonek" unicode="&#x105;" 
d="M453 469q-117 0 -189 -58t-71 -169q0 -135 200 -133q135 0 215 79q63 59 82 164l23 117h-260zM205 877q133 145 317 145t270 -49q115 -67 115 -213q0 -40 -10 -80l-135 -680h-141l22 100q-114 -114 -289 -112q-211 0 -278 131q-25 47 -25 112q0 150 90 238
q112 108 297 106h295l23 107q8 28 8 68q0 74 -54 112t-148 37q-94 0 -156 -30q-61 -30 -117 -91zM555 -434h-154l193 301h133z" />
    <glyph glyph-name="Cacute" unicode="&#x106;" horiz-adv-x="1243" 
d="M291 366q1 -44 23 -94t60 -84q77 -71 207 -71t229 85q100 85 144 214h152q-62 -205 -208 -317q-146 -111 -332 -111t-306 104q-119 104 -119 289q0 125 53 376t90 356q36 105 115 188q161 169 380 169q218 0 327 -119q108 -119 106 -309h-149q-2 136 -72 218t-203 81
q-162 0 -276 -122q-59 -59 -87 -140q-49 -145 -84 -337q-36 -191 -41 -232t-7 -71q-2 -29 -2 -73zM868 1587h-141l240 309h163z" />
    <glyph glyph-name="cacute" unicode="&#x107;" horiz-adv-x="954" 
d="M793 129q-141 -141 -324 -141t-275 100t-92 262q0 88 15 156q47 254 182 385t332 131q106 0 174 -40t117 -110l-107 -90q-41 59 -86 86t-109 27q-130 0 -227 -98q-115 -124 -143 -367q-4 -35 -4 -87q0 -107 62 -168q62 -60 146 -60q83 -1 139 27t116 89zM725 1206h-143
l241 310h164z" />
    <glyph glyph-name="Ccircumflex" unicode="&#x108;" horiz-adv-x="1243" 
d="M291 366q1 -44 23 -94t60 -84q77 -71 207 -71t229 85q100 85 144 214h152q-62 -205 -208 -317q-146 -111 -332 -111t-306 104q-119 104 -119 289q0 125 53 376t90 356q36 105 115 188q161 169 380 169q218 0 327 -119q108 -119 106 -309h-149q-2 136 -72 218t-203 81
q-162 0 -276 -122q-59 -59 -87 -140q-49 -145 -84 -337q-36 -191 -41 -232t-7 -71q-2 -29 -2 -73zM1008 1587l-134 219l-223 -219h-139l305 314h133l183 -314h-125z" />
    <glyph glyph-name="ccircumflex" unicode="&#x109;" horiz-adv-x="954" 
d="M793 129q-141 -141 -324 -141t-275 100t-92 262q0 88 15 156q47 254 182 385t332 131q106 0 174 -40t117 -110l-107 -90q-41 59 -86 86t-109 27q-130 0 -227 -98q-115 -124 -143 -367q-4 -35 -4 -87q0 -107 62 -168q62 -60 146 -60q83 -1 139 27t116 89zM862 1204
l-133 219l-221 -219h-141l307 314h131l184 -314h-127z" />
    <glyph glyph-name="Cdotaccent" unicode="&#x10a;" horiz-adv-x="1243" 
d="M291 366q1 -44 23 -94t60 -84q77 -71 207 -71t229 85q100 85 144 214h152q-62 -205 -208 -317q-146 -111 -332 -111t-306 104q-119 104 -119 289q0 125 53 376t90 356q36 105 115 188q161 169 380 169q218 0 327 -119q108 -119 106 -309h-149q-2 136 -72 218t-203 81
q-162 0 -276 -122q-59 -59 -87 -140q-49 -145 -84 -337q-36 -191 -41 -232t-7 -71q-2 -29 -2 -73zM911 1622h-147l31 152h147z" />
    <glyph glyph-name="cdotaccent" unicode="&#x10b;" horiz-adv-x="954" 
d="M793 129q-141 -141 -324 -141t-275 100t-92 262q0 88 15 156q47 254 182 385t332 131q106 0 174 -40t117 -110l-107 -90q-41 59 -86 86t-109 27q-130 0 -227 -98q-115 -124 -143 -367q-4 -35 -4 -87q0 -107 62 -168q62 -60 146 -60q83 -1 139 27t116 89zM766 1239h-148
l31 152h148z" />
    <glyph glyph-name="Ccaron" unicode="&#x10c;" horiz-adv-x="1243" 
d="M291 366q1 -44 23 -94t60 -84q77 -71 207 -71t229 85q100 85 144 214h152q-62 -205 -208 -317q-146 -111 -332 -111t-306 104q-119 104 -119 289q0 125 53 376t90 356q36 105 115 188q161 169 380 169q218 0 327 -119q108 -119 106 -309h-149q-2 136 -72 218t-203 81
q-162 0 -276 -122q-59 -59 -87 -140q-49 -145 -84 -337q-36 -191 -41 -232t-7 -71q-2 -29 -2 -73zM895 1587h-131l-184 314h125l133 -220l223 220h139z" />
    <glyph glyph-name="ccaron" unicode="&#x10d;" horiz-adv-x="954" 
d="M793 129q-141 -141 -324 -141t-275 100t-92 262q0 88 15 156q47 254 182 385t332 131q106 0 174 -40t117 -110l-107 -90q-41 59 -86 86t-109 27q-130 0 -227 -98q-115 -124 -143 -367q-4 -35 -4 -87q0 -107 62 -168q62 -60 146 -60q83 -1 139 27t116 89zM733 1204h-131
l-184 314h127l133 -220l221 220h141z" />
    <glyph glyph-name="Dcaron" unicode="&#x10e;" horiz-adv-x="1308" 
d="M1108 1055q0 123 -69 199t-220 75h-303l-242 -1200h301q176 0 293 104q68 63 115 185t100 438q9 47 17 94q8 46 8 105zM848 1458q273 0 372 -206q35 -76 35 -186t-48 -351t-86 -337q-37 -96 -73 -148q-157 -230 -464 -230h-484l293 1458h455zM905 1587h-131l-184 314h125
l133 -220l223 220h139z" />
    <glyph glyph-name="dcaron" unicode="&#x10f;" horiz-adv-x="1062" 
d="M246 324q0 -209 180 -209q204 0 281 241q31 98 45 194q14 97 14 138q0 207 -182 207q-201 0 -279 -241q-59 -182 -59 -330zM576 1022q172 0 241 -139l117 575h143l-291 -1458h-141l25 121q-70 -84 -140 -109t-141 -24q-284 0 -289 317q0 92 25 213q59 284 169 394
t282 110zM1276 1159h-121l141 314h144z" />
    <glyph glyph-name="Dcroat" unicode="&#x110;" horiz-adv-x="1335" 
d="M1135 1055q0 123 -68 199t-221 75h-303l-109 -536h316l-23 -115h-315l-111 -549h301q176 0 293 104q66 62 105 165t70 256q32 154 40 202t16 97t9 102zM872 1458q277 0 374 -205q36 -75 36 -186t-47 -344q-73 -365 -161 -493q-159 -230 -464 -230h-483l135 678h-149
l22 115h150l135 665h452z" />
    <glyph glyph-name="dcroat" unicode="&#x111;" horiz-adv-x="1058" 
d="M246 291.5q0 -176.5 180 -176.5q205 0 272.5 215.5t67.5 390t-182 174.5q-202 0 -270 -213.5t-68 -390zM384 -12q-147 0 -215.5 87t-68.5 230q0 92 25 213q59 285 169 395q110 109 282 109t241 -139l60 291h-250l18 96h250l39 188h143l-39 -188h121l-18 -96h-121
l-234 -1174h-141l25 121q-70 -84 -139.5 -108.5t-146.5 -24.5z" />
    <glyph glyph-name="Emacron" unicode="&#x112;" horiz-adv-x="1171" 
d="M1225 1329h-709l-106 -528h608l-25 -129h-608l-111 -543h723l-24 -129h-873l293 1458h858zM1149 1743l-23 -109h-587l22 109h588z" />
    <glyph glyph-name="emacron" unicode="&#x113;" horiz-adv-x="1036" 
d="M788 676q0 119 -58 172t-152 53t-179 -79q-84 -79 -127 -249h508q8 50 8 103zM102 336q0 260 115 457q59 101 153 165t238 64q143 0 232 -96q88 -96 88 -250q0 -71 -25 -207h-651q-12 -93 -12 -127q0 -100 51 -166t153 -66t168 30q64 30 129 89l86 -94
q-159 -147 -381 -147q-154 0 -249 89t-95 259zM965 1253h-586l22 109h586z" />
    <glyph glyph-name="Ebreve" unicode="&#x114;" horiz-adv-x="1171" 
d="M1225 1329h-709l-106 -528h608l-25 -129h-608l-111 -543h723l-24 -129h-873l293 1458h858zM792 1581q-124 0 -192 53t-68 156v20q0 12 3 29h112q-2 -16 -2 -24v-13q0 -53 41 -82t113 -28q158 0 192 147h115q-33 -137 -112 -197t-202 -61z" />
    <glyph glyph-name="ebreve" unicode="&#x115;" horiz-adv-x="1036" 
d="M788 676q0 119 -58 172t-152 53t-179 -79q-84 -79 -127 -249h508q8 50 8 103zM102 336q0 260 115 457q59 101 153 165t238 64q143 0 232 -96q88 -96 88 -250q0 -71 -25 -207h-651q-12 -93 -12 -127q0 -100 51 -166t153 -66t168 30q64 30 129 89l86 -94
q-159 -147 -381 -147q-154 0 -249 89t-95 259zM399 1399v19q0 11 2 28h113q-2 -14 -2 -22v-15q0 -53 41 -81t113 -28q156 0 192 146h113q-59 -256 -314 -256q-123 0 -191 53t-67 156z" />
    <glyph glyph-name="Edotaccent" unicode="&#x116;" horiz-adv-x="1171" 
d="M1225 1329h-709l-106 -528h608l-25 -129h-608l-111 -543h723l-24 -129h-873l293 1458h858zM907 1622h-147l31 152h147z" />
    <glyph glyph-name="edotaccent" unicode="&#x117;" horiz-adv-x="1036" 
d="M788 676q0 119 -58 172t-152 53t-179 -79q-84 -79 -127 -249h508q8 50 8 103zM102 336q0 260 115 457q59 101 153 165t238 64q143 0 232 -96q88 -96 88 -250q0 -71 -25 -207h-651q-12 -93 -12 -127q0 -100 51 -166t153 -66t168 30q64 30 129 89l86 -94
q-159 -147 -381 -147q-154 0 -249 89t-95 259zM741 1239h-147l31 152h147z" />
    <glyph glyph-name="Eogonek" unicode="&#x118;" horiz-adv-x="1171" 
d="M1225 1329h-709l-106 -528h608l-25 -129h-608l-111 -543h723l-24 -129h-873l293 1458h858zM758 -434h-154l193 301h133z" />
    <glyph glyph-name="eogonek" unicode="&#x119;" horiz-adv-x="1036" 
d="M788 676q0 119 -58 172t-152 53t-179 -79q-84 -79 -127 -249h508q8 50 8 103zM102 336q0 260 115 457q59 101 153 165t238 64q143 0 232 -96q88 -96 88 -250q0 -71 -25 -207h-651q-12 -93 -12 -127q0 -100 51 -166t153 -66t168 30q64 30 129 89l86 -94
q-159 -147 -381 -147q-154 0 -249 89t-95 259zM465 -434h-154l193 301h133z" />
    <glyph glyph-name="Ecaron" unicode="&#x11a;" horiz-adv-x="1171" 
d="M1225 1329h-709l-106 -528h608l-25 -129h-608l-111 -543h723l-24 -129h-873l293 1458h858zM874 1587h-131l-184 314h125l133 -220l223 220h140z" />
    <glyph glyph-name="ecaron" unicode="&#x11b;" horiz-adv-x="1036" 
d="M788 676q0 119 -58 172t-152 53t-179 -79q-84 -79 -127 -249h508q8 50 8 103zM102 336q0 260 115 457q59 101 153 165t238 64q143 0 232 -96q88 -96 88 -250q0 -71 -25 -207h-651q-12 -93 -12 -127q0 -100 51 -166t153 -66t168 30q64 30 129 89l86 -94
q-159 -147 -381 -147q-154 0 -249 89t-95 259zM709 1204h-131l-185 314h127l133 -220l221 220h142z" />
    <glyph glyph-name="Gcircumflex" unicode="&#x11c;" horiz-adv-x="1267" 
d="M291 377q0 -114 82 -187t203 -73q122 0 242 99q119 99 157 298l22 121h-340l23 127h489l-43 -232q-65 -365 -344 -496q-96 -46 -204 -46q-200 0 -318 106q-119 106 -119 287q0 105 49 350q49 246 81 342q33 97 63 144q89 142 244 209q100 44 210 44q313 0 400 -257
q27 -79 26 -173h-149q-2 142 -74 222t-200 79q-161 0 -279 -122q-60 -64 -87 -145q-27 -80 -46 -159q-88 -381 -88 -538zM1008 1587l-134 219l-223 -219h-139l305 314h133l183 -314h-125z" />
    <glyph glyph-name="gcircumflex" unicode="&#x11d;" horiz-adv-x="1058" 
d="M766 690q0 205 -182 205q-243 0 -314 -383q-22 -103 -22 -161t8 -96q26 -124 174 -124q247 0 313 383q23 108 23 176zM100 -236q86 -102 194 -102q195 0 291 169q34 60 52 146l33 156q-103 -129 -279 -129q-135 0 -212 81t-77 230q0 72 24 202q53 284 163 395
q110 110 286 110t244 -141l25 129h141l-207 -1033q-86 -432 -471 -438q-194 0 -309 135zM827 1204l-133 219l-221 -219h-141l307 314h131l184 -314h-127z" />
    <glyph glyph-name="Gbreve" unicode="&#x11e;" horiz-adv-x="1267" 
d="M291 377q0 -114 82 -187t203 -73q122 0 242 99q119 99 157 298l22 121h-340l23 127h489l-43 -232q-65 -365 -344 -496q-96 -46 -204 -46q-200 0 -318 106q-119 106 -119 287q0 105 49 350q49 246 81 342q33 97 63 144q89 142 244 209q100 44 210 44q313 0 400 -257
q27 -79 26 -173h-149q-2 142 -74 222t-200 79q-161 0 -279 -122q-60 -64 -87 -145q-27 -80 -46 -159q-88 -381 -88 -538zM848 1581q-123 0 -192 53t-68 156v20q0 12 2 29h112q-2 -16 -2 -24v-13q0 -53 41 -82t113 -28q158 0 193 147h114q-33 -137 -111 -198
q-79 -60 -202 -60z" />
    <glyph glyph-name="gbreve" unicode="&#x11f;" horiz-adv-x="1058" 
d="M766 690q0 205 -182 205q-243 0 -314 -383q-22 -103 -22 -161t8 -96q26 -124 174 -124q247 0 313 383q23 108 23 176zM100 -236q86 -102 194 -102q195 0 291 169q34 60 52 146l33 156q-103 -129 -279 -129q-135 0 -212 81t-77 230q0 72 24 202q53 284 163 395
q110 110 286 110t244 -141l25 129h141l-207 -1033q-86 -432 -471 -438q-194 0 -309 135zM406 1418q0 11 2 28h112q-2 -14 -2 -22v-15q0 -53 41 -81t113 -28q156 0 192 146h113q-59 -256 -314 -256q-123 0 -191 53t-66 156v19z" />
    <glyph glyph-name="Gdotaccent" unicode="&#x120;" horiz-adv-x="1267" 
d="M291 377q0 -114 82 -187t203 -73q122 0 242 99q119 99 157 298l22 121h-340l23 127h489l-43 -232q-65 -365 -344 -496q-96 -46 -204 -46q-200 0 -318 106q-119 106 -119 287q0 105 49 350q49 246 81 342q33 97 63 144q89 142 244 209q100 44 210 44q313 0 400 -257
q27 -79 26 -173h-149q-2 142 -74 222t-200 79q-161 0 -279 -122q-60 -64 -87 -145q-27 -80 -46 -159q-88 -381 -88 -538zM911 1622h-147l31 152h147z" />
    <glyph glyph-name="gdotaccent" unicode="&#x121;" horiz-adv-x="1058" 
d="M766 690q0 205 -182 205q-243 0 -314 -383q-22 -103 -22 -161t8 -96q26 -124 174 -124q247 0 313 383q23 108 23 176zM100 -236q86 -102 194 -102q195 0 291 169q34 60 52 146l33 156q-103 -129 -279 -129q-135 0 -212 81t-77 230q0 72 24 202q53 284 163 395
q110 110 286 110t244 -141l25 129h141l-207 -1033q-86 -432 -471 -438q-194 0 -309 135zM731 1239h-147l30 152h148z" />
    <glyph glyph-name="Gcommaaccent" unicode="&#x122;" horiz-adv-x="1267" 
d="M291 377q0 -114 82 -187t203 -73q122 0 242 99q119 99 157 298l22 121h-340l23 127h489l-43 -232q-65 -365 -344 -496q-96 -46 -204 -46q-200 0 -318 106q-119 106 -119 287q0 105 49 350q49 246 81 342q33 97 63 144q89 142 244 209q100 44 210 44q313 0 400 -257
q27 -79 26 -173h-149q-2 142 -74 222t-200 79q-161 0 -279 -122q-60 -64 -87 -145q-27 -80 -46 -159q-88 -381 -88 -538zM436 -434h-155l192 301h135z" />
    <glyph glyph-name="gcommaaccent" unicode="&#x123;" horiz-adv-x="1058" 
d="M766 690q0 205 -182 205q-243 0 -314 -383q-22 -103 -22 -161t8 -96q26 -124 174 -124q247 0 313 383q23 108 23 176zM100 -236q86 -102 194 -102q195 0 291 169q34 60 52 146l33 156q-103 -129 -279 -129q-135 0 -212 81t-77 230q0 72 24 202q53 284 163 395
q110 110 286 110t244 -141l25 129h141l-207 -1033q-86 -432 -471 -438q-194 0 -309 135zM690 1206h-141l239 310h164z" />
    <glyph glyph-name="Hcircumflex" unicode="&#x124;" horiz-adv-x="1351" 
d="M1053 0h-148l135 672h-655l-137 -672h-148l293 1458h148l-129 -657h655l131 657h148zM1069 1587l-133 219l-223 -219h-140l306 314h133l182 -314h-125z" />
    <glyph glyph-name="hcircumflex" unicode="&#x125;" horiz-adv-x="1095" 
d="M688 1022q125 0 204 -76t79 -209q0 -43 -13 -100l-127 -637h-143l125 623q10 51 10 94q0 92 -52 136t-130 44q-147 0 -242 -132q-39 -54 -57 -147l-123 -618h-143l291 1458h143l-111 -557q108 121 289 121zM649 1595l-133 220l-221 -220h-141l307 314h131l184 -314h-127z
" />
    <glyph glyph-name="Hbar" unicode="&#x126;" horiz-adv-x="1466" 
d="M473 1055l-49 -254h655l49 254h-655zM1423 1055h-147l-211 -1055h-147l135 672h-656l-137 -672h-147l211 1055h-148l25 119h147l58 284h147l-55 -284h655l57 284h148l-58 -284h148z" />
    <glyph glyph-name="hbar" unicode="&#x127;" horiz-adv-x="1114" 
d="M709 1022q120 0 199 -75t79 -210q0 -38 -10 -100l-129 -637h-143l124 623q11 69 11 94q0 92 -52.5 135t-130.5 43q-147 0 -213.5 -92t-85.5 -185l-122 -618h-144l234 1174h-123l18 96h123l39 188h143l-39 -188h248l-18 -96h-248l-53 -271q110 119 293 119z" />
    <glyph glyph-name="Itilde" unicode="&#x128;" horiz-adv-x="550" 
d="M248 0h-148l293 1458h148zM379 1706q-57 0 -127 -70l-62 76q104 100 188 99t150 -50q34 -25 54 -33t62 -8t116 70l61 -76q-104 -100 -187 -99t-151 50q-35 25 -54 33t-50 8z" />
    <glyph glyph-name="itilde" unicode="&#x129;" horiz-adv-x="491" 
d="M219 0h-143l200 1010h144zM265 1321q-43 0 -118 -70l-59 76q104 100 187 99t134 -38q50 -37 70 -45t61 -8t117 70l62 -76q-104 -100 -188 -99t-150 50q-35 25 -54 33t-62 8z" />
    <glyph glyph-name="Imacron" unicode="&#x12a;" horiz-adv-x="550" 
d="M248 0h-148l293 1458h148zM805 1743l-23 -109h-587l22 109h588z" />
    <glyph glyph-name="imacron" unicode="&#x12b;" horiz-adv-x="491" 
d="M219 0h-143l200 1010h144zM684 1253h-586l23 109h586z" />
    <glyph glyph-name="Ibreve" unicode="&#x12c;" horiz-adv-x="550" 
d="M248 0h-148l293 1458h148zM510 1581q-123 0 -192 53t-68 156v20q0 12 2 29h113l-3 -24v-13q0 -53 41 -82t113 -28q158 0 193 147h114q-33 -137 -111 -198q-79 -60 -202 -60z" />
    <glyph glyph-name="ibreve" unicode="&#x12d;" horiz-adv-x="491" 
d="M219 0h-143l200 1010h144zM139 1399v19q0 11 2 28h113q-2 -14 -2 -22v-15q0 -53 41 -81t113 -28q156 0 192 146h113q-59 -256 -314 -256q-123 0 -191 53t-67 156z" />
    <glyph glyph-name="Iogonek" unicode="&#x12e;" horiz-adv-x="550" 
d="M248 0h-148l293 1458h148zM43 -434h-154l193 301h133z" />
    <glyph glyph-name="iogonek" unicode="&#x12f;" horiz-adv-x="491" 
d="M483 1296h-161l28 150h164zM219 0h-143l200 1010h144zM14 -434h-153l192 301h133z" />
    <glyph glyph-name="Idotaccent" unicode="&#x130;" horiz-adv-x="550" 
d="M248 0h-148l293 1458h148zM580 1622h-148l31 152h147z" />
    <glyph glyph-name="dotlessi" unicode="&#x131;" horiz-adv-x="491" 
d="M219 0h-143l200 1010h144z" />
    <glyph glyph-name="IJ" unicode="&#x132;" horiz-adv-x="1525" 
d="M248 0h-148l293 1458h148zM1333 436q-45 -223 -176 -336q-131 -112 -327 -112t-304 135l109 92q41 -47 89 -73t124 -25q125 0 216 85t126 259l199 997h149z" />
    <glyph glyph-name="ij" unicode="&#x133;" horiz-adv-x="985" 
d="M483 1296h-161l28 150h164zM219 0h-143l200 1010h144zM975 1296h-162l29 150h164zM367 -328q71 0 109 37t54 117l238 1184h143l-237 -1198q-53 -262 -297 -263h-105l25 123h70z" />
    <glyph glyph-name="Jcircumflex" unicode="&#x134;" horiz-adv-x="974" 
d="M782 436q-45 -223 -176 -336q-131 -112 -327 -112t-304 135l109 92q41 -47 89 -73t124 -25q125 0 216 85t126 259l199 997h149zM1110 1587l-133 219l-223 -219h-140l306 314h133l182 -314h-125z" />
    <glyph glyph-name="jcircumflex" unicode="&#x135;" horiz-adv-x="493" 
d="M-125 -328q72 0 110 37t54 117l237 1184h144l-238 -1198q-53 -262 -297 -263h-104l24 123h70zM555 1204l-133 219l-221 -219h-142l308 314h131l184 -314h-127z" />
    <glyph glyph-name="Kcommaaccent" unicode="&#x136;" horiz-adv-x="1271" 
d="M817 887l336 -887h-162l-291 784l-370 -374l-82 -410h-148l293 1458h148l-166 -829l805 829h186zM459 -434h-156l193 301h135z" />
    <glyph glyph-name="kcommaaccent" unicode="&#x137;" horiz-adv-x="1050" 
d="M625 616l272 -616h-166l-217 524l-235 -223l-60 -301h-143l291 1458h143l-193 -964l527 516h184zM354 -434h-155l192 301h135z" />
    <glyph glyph-name="kgreenlandic" unicode="&#x138;" horiz-adv-x="1050" 
d="M625 616l272 -616h-166l-217 524l-235 -223l-60 -301h-143l200 1010h144l-103 -516l527 516h184z" />
    <glyph glyph-name="Lacute" unicode="&#x139;" horiz-adv-x="1118" 
d="M963 0h-863l293 1458h148l-267 -1329h713zM541 1587h-142l240 309h164z" />
    <glyph glyph-name="lacute" unicode="&#x13a;" horiz-adv-x="507" 
d="M260 198q0 -30 23 -53t88 -22h84l-25 -123h-106q-137 0 -188 99q-19 37 -19 89t8 86l237 1184h144l-238 -1184q-8 -46 -8 -76zM526 1597h-143l242 310h163z" />
    <glyph glyph-name="Lcommaaccent" unicode="&#x13b;" horiz-adv-x="1118" 
d="M963 0h-863l293 1458h148l-267 -1329h713zM428 -434h-156l193 301h135z" />
    <glyph glyph-name="lcommaaccent" unicode="&#x13c;" horiz-adv-x="507" 
d="M260 198q0 -30 23 -53t88 -22h84l-25 -123h-106q-137 0 -188 99q-19 37 -19 89t8 86l237 1184h144l-238 -1184q-8 -46 -8 -76zM117 -434h-156l193 301h135z" />
    <glyph glyph-name="Lcaron" unicode="&#x13d;" horiz-adv-x="1118" 
d="M963 0h-863l293 1458h148l-267 -1329h713zM801 1147h-121l141 313h144z" />
    <glyph glyph-name="lcaron" unicode="&#x13e;" horiz-adv-x="507" 
d="M260 198q0 -30 23 -53t88 -22h84l-25 -123h-106q-137 0 -188 99q-19 37 -19 89t8 86l237 1184h144l-238 -1184q-8 -46 -8 -76zM711 1159h-121l141 314h143z" />
    <glyph glyph-name="Ldot" unicode="&#x13f;" horiz-adv-x="1118" 
d="M963 0h-863l293 1458h148l-267 -1329h713zM936 662h-148l31 151h148z" />
    <glyph glyph-name="ldot" unicode="&#x140;" horiz-adv-x="563" 
d="M260 198q0 -30 23 -53t88 -22h84l-25 -123h-106q-137 0 -188 99q-19 37 -19 89t8 86l237 1184h144l-238 -1184q-8 -46 -8 -76zM594 479h-148l31 152h148z" />
    <glyph glyph-name="Lslash" unicode="&#x141;" horiz-adv-x="1136" 
d="M981 0h-862l119 596l-160 -94l26 135l162 94l146 727h147l-125 -635l340 201l-26 -135l-342 -201l-113 -559h713z" />
    <glyph glyph-name="lslash" unicode="&#x142;" horiz-adv-x="620" 
d="M283 196q0 -28 23.5 -50.5t88.5 -22.5h84l-26 -123h-105q-139 0 -174 68t-35 120t8 86l86 426l-137 -79l25 131l139 77l125 629h143l-108 -543l176 101l-27 -129l-176 -103l-100 -510q-4 -23 -7 -36.5t-3 -41.5z" />
    <glyph glyph-name="Nacute" unicode="&#x143;" horiz-adv-x="1423" 
d="M1124 0h-137l-502 1182l-237 -1182h-148l293 1458h137l502 -1182l236 1182h149zM954 1587h-141l240 309h164z" />
    <glyph glyph-name="nacute" unicode="&#x144;" horiz-adv-x="1095" 
d="M692 1022q124 0 202 -76t77 -209q0 -43 -13 -100l-127 -637h-143l125 623q10 62 10 94q0 92 -52 136t-132 44q-145 0 -240 -132q-39 -54 -57 -147l-123 -618h-143l200 1010h140l-21 -113q108 125 297 125zM729 1206h-143l241 310h164z" />
    <glyph glyph-name="Ncommaaccent" unicode="&#x145;" horiz-adv-x="1423" 
d="M1124 0h-137l-502 1182l-237 -1182h-148l293 1458h137l502 -1182l236 1182h149zM528 -434h-155l192 301h135z" />
    <glyph glyph-name="ncommaaccent" unicode="&#x146;" horiz-adv-x="1095" 
d="M692 1022q124 0 202 -76t77 -209q0 -43 -13 -100l-127 -637h-143l125 623q10 62 10 94q0 92 -52 136t-132 44q-145 0 -240 -132q-39 -54 -57 -147l-123 -618h-143l200 1010h140l-21 -113q108 125 297 125zM379 -434h-156l193 301h135z" />
    <glyph glyph-name="Ncaron" unicode="&#x147;" horiz-adv-x="1423" 
d="M1124 0h-137l-502 1182l-237 -1182h-148l293 1458h137l502 -1182l236 1182h149zM965 1587h-131l-185 314h125l133 -220l223 220h140z" />
    <glyph glyph-name="ncaron" unicode="&#x148;" horiz-adv-x="1095" 
d="M692 1022q124 0 202 -76t77 -209q0 -43 -13 -100l-127 -637h-143l125 623q10 62 10 94q0 92 -52 136t-132 44q-145 0 -240 -132q-39 -54 -57 -147l-123 -618h-143l200 1010h140l-21 -113q108 125 297 125zM737 1204h-131l-184 314h127l133 -220l221 220h141z" />
    <glyph glyph-name="napostrophe" unicode="&#x149;" horiz-adv-x="1095" 
d="M692 1022q124 0 202 -76t77 -209q0 -43 -13 -100l-127 -637h-143l125 623q10 62 10 94q0 92 -52 136t-132 44q-145 0 -240 -132q-39 -54 -57 -147l-123 -618h-143l200 1010h140l-21 -113q108 125 297 125zM317 1217l-163 -130l79 390h138z" />
    <glyph glyph-name="Eng" unicode="&#x14a;" horiz-adv-x="1423" 
d="M795 -434h-105l25 123h78q72 0 109.5 36.5t53.5 116.5l31 158l-502 1182l-237 -1182h-148l293 1458h137l502 -1182l236 1182h149l-325 -1630q-53 -262 -297 -262z" />
    <glyph glyph-name="eng" unicode="&#x14b;" horiz-adv-x="1095" 
d="M692 1022q122 0 200.5 -76.5t78.5 -208.5q0 -43 -13 -100l-159 -809q-53 -262 -297 -262h-105l25 123h72q72 0 109.5 36.5t53.5 116.5l156 781q10 62 10 94q0 92 -52 136t-132 44q-145 0 -212 -93t-85 -186l-123 -618h-143l200 1010h140l-21 -113q108 125 297 125z" />
    <glyph glyph-name="Omacron" unicode="&#x14c;" horiz-adv-x="1263" 
d="M1057 1088q0 46 -22 99q-65 154 -259 154q-148 0 -266 -122q-95 -102 -156 -411q-46 -233 -55 -300q-8 -67 -8 -126q0 -123 77 -194t175 -71q176 0 293 123q59 63 84 139q26 75 46 156q91 383 91 553zM1206 1110q0 -170 -57 -427t-81 -324q-85 -238 -299 -329
q-99 -42 -205 -42q-198 0 -310 108q-113 108 -113 285q0 125 36 298t65 302t91 233q157 256 468 256q88 0 163 -27q150 -56 212 -203q30 -72 30 -130zM1153 1743l-23 -109h-587l22 109h588z" />
    <glyph glyph-name="omacron" unicode="&#x14d;" horiz-adv-x="1028" 
d="M784 676q0 62 -16 103q-45 118 -180 118q-178 0 -266 -197q-53 -116 -73 -294q-5 -45 -5 -90q0 -98 55 -151q55 -52 124 -52q125 0 204 77q95 96 135 308q22 116 22 178zM600 1022q215 0 297 -178q29 -64 29 -150t-27 -220q-50 -250 -184 -378q-122 -110 -287 -108
q-220 0 -298 178q-28 63 -28 139t26 221q48 266 185 385q123 111 287 111zM961 1253h-586l22 109h586z" />
    <glyph glyph-name="Obreve" unicode="&#x14e;" horiz-adv-x="1263" 
d="M1057 1088q0 46 -22 99q-65 154 -259 154q-148 0 -266 -122q-95 -102 -156 -411q-46 -233 -55 -300q-8 -67 -8 -126q0 -123 77 -194t175 -71q176 0 293 123q59 63 84 139q26 75 46 156q91 383 91 553zM1206 1110q0 -170 -57 -427t-81 -324q-85 -238 -299 -329
q-99 -42 -205 -42q-198 0 -310 108q-113 108 -113 285q0 125 36 298t65 302t91 233q157 256 468 256q88 0 163 -27q150 -56 212 -203q30 -72 30 -130zM833 1581q-123 0 -191 53t-69 156v20q0 12 2 29h113q-2 -16 -2 -24v-13q0 -53 41 -82t113 -28q158 0 192 147h115
q-33 -137 -112 -197t-202 -61z" />
    <glyph glyph-name="obreve" unicode="&#x14f;" horiz-adv-x="1028" 
d="M784 676q0 62 -16 103q-45 118 -180 118q-178 0 -266 -197q-53 -116 -73 -294q-5 -45 -5 -90q0 -98 55 -151q55 -52 124 -52q125 0 204 77q95 96 135 308q22 116 22 178zM600 1022q215 0 297 -178q29 -64 29 -150t-27 -220q-50 -250 -184 -378q-122 -110 -287 -108
q-220 0 -298 178q-28 63 -28 139t26 221q48 266 185 385q123 111 287 111zM395 1399v19q0 11 2 28h113q-2 -14 -2 -22v-15q0 -53 41 -81t113 -28q156 0 192 146h113q-59 -256 -314 -256q-123 0 -191 53t-67 156z" />
    <glyph glyph-name="Ohungarumlaut" unicode="&#x150;" horiz-adv-x="1263" 
d="M1057 1088q0 46 -22 99q-65 154 -259 154q-148 0 -266 -122q-95 -102 -156 -411q-46 -233 -55 -300q-8 -67 -8 -126q0 -123 77 -194t175 -71q176 0 293 123q59 63 84 139q26 75 46 156q91 383 91 553zM1206 1110q0 -170 -57 -427t-81 -324q-85 -238 -299 -329
q-99 -42 -205 -42q-198 0 -310 108q-113 108 -113 285q0 125 36 298t65 302t91 233q157 256 468 256q88 0 163 -27q150 -56 212 -203q30 -72 30 -130zM729 1587h-141l239 309h164zM1047 1587h-140l240 309h164z" />
    <glyph glyph-name="ohungarumlaut" unicode="&#x151;" horiz-adv-x="1028" 
d="M784 676q0 62 -16 103q-45 118 -180 118q-178 0 -266 -197q-53 -116 -73 -294q-5 -45 -5 -90q0 -98 55 -151q55 -52 124 -52q125 0 204 77q95 96 135 308q22 116 22 178zM600 1022q215 0 297 -178q29 -64 29 -150t-27 -220q-50 -250 -184 -378q-122 -110 -287 -108
q-220 0 -298 178q-28 63 -28 139t26 221q48 266 185 385q123 111 287 111zM555 1204h-141l239 309h166zM874 1204h-141l240 309h166z" />
    <glyph glyph-name="OE" unicode="&#x152;" horiz-adv-x="1916" 
d="M805 1341q-177 0 -295 -122q-98 -106 -157 -413q-46 -239 -54 -302t-8 -122q0 -124 78 -194.5t175 -70.5q173 0 292 123q57 61 103 195t82 354.5t36 282.5q0 127 -77 198t-175 71zM556 -12q-189 0 -302 107t-113 286q0 155 74.5 482t190.5 446q149 161 393 161
q119 0 201.5 -48t123.5 -130l33 166h840l-27 -131h-696l-107 -526h598l-24 -129h-598l-111 -541h715l-27 -131h-852l27 135q-59 -66 -149.5 -106.5t-189.5 -40.5z" />
    <glyph glyph-name="oe" unicode="&#x153;" horiz-adv-x="1681" 
d="M1434 676q0 119 -59 172t-153 53t-177.5 -79t-126.5 -249h507q9 56 9 103zM784 676q0 115 -56 168t-125 53q-300 0 -329.5 -268.5t-29.5 -312.5q0 -97 55.5 -150t123.5 -53q125 0 211 85q86 86 128 300q22 116 22 178zM1573 676q0 -84 -27 -207h-649q-12 -67 -12 -147
t51.5 -145.5t153.5 -65.5t166.5 29.5t129.5 88.5l84 -94q-155 -147 -384 -147q-230 0 -302 202q-128 -202 -352 -202t-277 120.5t-53 205.5t26 221q49 256 179 371q129 116 293 116q98 0 177 -48t114 -153q126 201 354 201q156 0 242 -97t86 -249z" />
    <glyph glyph-name="Racute" unicode="&#x154;" horiz-adv-x="1282" 
d="M1108 1132q0 80 -57 138t-174 57h-361l-110 -545h364q84 0 148 29q190 87 190 321zM895 1458q193 0 286 -104q76 -85 76 -241t-102 -284t-283 -163l213 -666h-163l-201 655h-340l-133 -655h-148l293 1458h502zM868 1587h-141l240 309h163z" />
    <glyph glyph-name="racute" unicode="&#x155;" horiz-adv-x="817" 
d="M676 1022q135 0 219 -94l-117 -105q-53 72 -148 72t-184 -80q-79 -75 -104 -197l-123 -618h-143l200 1010h142l-25 -123q101 135 283 135zM530 1206h-143l242 310h164z" />
    <glyph glyph-name="Rcommaaccent" unicode="&#x156;" horiz-adv-x="1282" 
d="M1108 1132q0 80 -57 138t-174 57h-361l-110 -545h364q84 0 148 29q190 87 190 321zM895 1458q193 0 286 -104q76 -85 76 -241t-102 -284t-283 -163l213 -666h-163l-201 655h-340l-133 -655h-148l293 1458h502zM455 -434h-156l193 301h135z" />
    <glyph glyph-name="rcommaaccent" unicode="&#x157;" horiz-adv-x="817" 
d="M676 1022q135 0 219 -94l-117 -105q-53 72 -148 72t-184 -80q-79 -75 -104 -197l-123 -618h-143l200 1010h142l-25 -123q101 135 283 135zM20 -434h-155l192 301h136z" />
    <glyph glyph-name="Rcaron" unicode="&#x158;" horiz-adv-x="1282" 
d="M1108 1132q0 80 -57 138t-174 57h-361l-110 -545h364q84 0 148 29q190 87 190 321zM895 1458q193 0 286 -104q76 -85 76 -241t-102 -284t-283 -163l213 -666h-163l-201 655h-340l-133 -655h-148l293 1458h502zM879 1587h-131l-185 314h125l133 -220l223 220h140z" />
    <glyph glyph-name="rcaron" unicode="&#x159;" horiz-adv-x="817" 
d="M676 1022q135 0 219 -94l-117 -105q-53 72 -148 72t-184 -80q-79 -75 -104 -197l-123 -618h-143l200 1010h142l-25 -123q101 135 283 135zM537 1204h-131l-185 314h127l133 -220l221 220h142z" />
    <glyph glyph-name="Sacute" unicode="&#x15a;" horiz-adv-x="1144" 
d="M145 287q133 -168 333 -168q181 0 293 86t112 227t-126 192q-38 15 -81 25l-137 33q-129 29 -193 82q-63 53 -93 109q-30 57 -30 135t30 160q67 181 254 259q99 43 225 43t223 -38t175 -129l-106 -91q-59 68 -106 90q-46 23 -89 32t-113 9q-70 1 -136 -27
q-68 -28 -114 -74q-97 -97 -95 -226q0 -86 58 -132t151 -69l137 -31q167 -40 241 -120t74 -212t-44 -212q-44 -82 -119 -138q-153 -116 -386 -114q-154 0 -258 47t-192 153zM823 1587h-141l240 309h163z" />
    <glyph glyph-name="sacute" unicode="&#x15b;" horiz-adv-x="962" 
d="M299 698q0 -52 38 -78t112 -36l135 -19q135 -19 190 -77t55 -175t-108 -222t-342 -104t-369 146l107 92q99 -115 265 -115q221 1 287 133q17 36 17 87t-38 76t-103 34l-137 21q-142 21 -197 81t-55 127q0 146 94 240q114 113 316 113t323 -113l-103 -88q-93 82 -223 82
t-197 -61q-67 -60 -67 -144zM672 1206h-144l242 310h164z" />
    <glyph glyph-name="Scircumflex" unicode="&#x15c;" horiz-adv-x="1144" 
d="M145 287q133 -168 333 -168q181 0 293 86t112 227t-126 192q-38 15 -81 25l-137 33q-129 29 -193 82q-63 53 -93 109q-30 57 -30 135t30 160q67 181 254 259q99 43 225 43t223 -38t175 -129l-106 -91q-59 68 -106 90q-46 23 -89 32t-113 9q-70 1 -136 -27
q-68 -28 -114 -74q-97 -97 -95 -226q0 -86 58 -132t151 -69l137 -31q167 -40 241 -120t74 -212t-44 -212q-44 -82 -119 -138q-153 -116 -386 -114q-154 0 -258 47t-192 153zM963 1587l-134 219l-223 -219h-139l305 314h133l182 -314h-124z" />
    <glyph glyph-name="scircumflex" unicode="&#x15d;" horiz-adv-x="962" 
d="M299 698q0 -52 38 -78t112 -36l135 -19q135 -19 190 -77t55 -175t-108 -222t-342 -104t-369 146l107 92q99 -115 265 -115q221 1 287 133q17 36 17 87t-38 76t-103 34l-137 21q-142 21 -197 81t-55 127q0 146 94 240q114 113 316 113t323 -113l-103 -88q-93 82 -223 82
t-197 -61q-67 -60 -67 -144zM809 1204l-133 219l-221 -219h-142l308 314h131l184 -314h-127z" />
    <glyph glyph-name="Scedilla" unicode="&#x15e;" horiz-adv-x="1144" 
d="M145 287q133 -168 333 -168q181 0 293 86t112 227t-126 192q-38 15 -81 25l-137 33q-129 29 -193 82q-63 53 -93 109q-30 57 -30 135t30 160q67 181 254 259q99 43 225 43t223 -38t175 -129l-106 -91q-59 68 -106 90q-46 23 -89 32t-113 9q-70 1 -136 -27
q-68 -28 -114 -74q-97 -97 -95 -226q0 -86 58 -132t151 -69l137 -31q167 -40 241 -120t74 -212t-44 -212q-44 -82 -119 -138q-153 -116 -386 -114q-154 0 -258 47t-192 153zM377 -434h-154l193 301h133z" />
    <glyph glyph-name="scedilla" unicode="&#x15f;" horiz-adv-x="962" 
d="M299 698q0 -52 38 -78t112 -36l135 -19q135 -19 190 -77t55 -175t-108 -222t-342 -104t-369 146l107 92q99 -115 265 -115q221 1 287 133q17 36 17 87t-38 76t-103 34l-137 21q-142 21 -197 81t-55 127q0 146 94 240q114 113 316 113t323 -113l-103 -88q-93 82 -223 82
t-197 -61q-67 -60 -67 -144zM276 -434h-153l192 301h134z" />
    <glyph glyph-name="Scaron" unicode="&#x160;" horiz-adv-x="1144" 
d="M145 287q133 -168 333 -168q181 0 293 86t112 227t-126 192q-38 15 -81 25l-137 33q-129 29 -193 82q-63 53 -93 109q-30 57 -30 135t30 160q67 181 254 259q99 43 225 43t223 -38t175 -129l-106 -91q-59 68 -106 90q-46 23 -89 32t-113 9q-70 1 -136 -27
q-68 -28 -114 -74q-97 -97 -95 -226q0 -86 58 -132t151 -69l137 -31q167 -40 241 -120t74 -212t-44 -212q-44 -82 -119 -138q-153 -116 -386 -114q-154 0 -258 47t-192 153zM834 1587h-132l-184 314h125l133 -220l223 220h140z" />
    <glyph glyph-name="scaron" unicode="&#x161;" horiz-adv-x="962" 
d="M299 698q0 -52 38 -78t112 -36l135 -19q135 -19 190 -77t55 -175t-108 -222t-342 -104t-369 146l107 92q99 -115 265 -115q221 1 287 133q17 36 17 87t-38 76t-103 34l-137 21q-142 21 -197 81t-55 127q0 146 94 240q114 113 316 113t323 -113l-103 -88q-93 82 -223 82
t-197 -61q-67 -60 -67 -144zM680 1204h-131l-184 314h127l133 -220l221 220h141z" />
    <glyph glyph-name="Tcommaaccent" unicode="&#x162;" horiz-adv-x="1067" 
d="M1171 1327h-399l-266 -1327h-148l267 1327h-402l27 131h948zM301 -434h-154l193 301h133z" />
    <glyph glyph-name="tcommaaccent" unicode="&#x163;" horiz-adv-x="651" 
d="M291 198q-1 -30 23 -53t89 -22h82l-26 -123h-103q-138 0 -189 99q-35 69 -11 175l125 627h-125l20 109h127l62 307h143l-62 -307h199l-22 -109h-197l-127 -627q-8 -46 -8 -76zM152 -434h-156l192 301h136z" />
    <glyph glyph-name="Tcaron" unicode="&#x164;" horiz-adv-x="1067" 
d="M1171 1327h-399l-266 -1327h-148l267 1327h-402l27 131h948zM815 1587h-131l-184 314h125l133 -220l223 220h139z" />
    <glyph glyph-name="tcaron" unicode="&#x165;" horiz-adv-x="651" 
d="M291 198q-1 -30 23 -53t89 -22h82l-26 -123h-103q-138 0 -189 99q-35 69 -11 175l125 627h-125l20 109h127l62 307h143l-62 -307h199l-22 -109h-197l-127 -627q-8 -46 -8 -76zM737 1159h-121l142 314h143z" />
    <glyph glyph-name="Tbar" unicode="&#x166;" horiz-adv-x="1067" 
d="M1171 1327h-399l-108 -534h235l-22 -115h-236l-135 -678h-148l136 678h-232l23 115h231l109 534h-402l27 131h948z" />
    <glyph glyph-name="tbar" unicode="&#x167;" horiz-adv-x="651" 
d="M291 198q0 -30 23.5 -52.5t88.5 -22.5h82l-26 -123h-103q-139 0 -174 68.5t-35 116.5t9 89l45 226h-125l20 108h125l60 293h-125l20 109h127l62 307h143l-62 -307h199l-22 -109h-197l-59 -293h198l-22 -108h-199l-45 -226q-8 -46 -8 -76z" />
    <glyph glyph-name="Utilde" unicode="&#x168;" horiz-adv-x="1329" 
d="M168 352q0 72 14 156l189 950h149l-192 -964q-8 -33 -10 -93q-3 -121 66 -202t210 -81q140 1 256 100t151 286l189 954h149l-194 -979q-73 -356 -371 -460q-179 -61 -340 -10t-230 195q-36 76 -36 148zM766 1706q-55 0 -127 -70l-61 76q104 100 188 99t149 -50
q35 -25 55 -33t61 -8q42 0 116 70l61 -76q-104 -100 -187 -99t-151 50q-35 25 -54 33t-50 8z" />
    <glyph glyph-name="utilde" unicode="&#x169;" horiz-adv-x="1095" 
d="M270 293q0 -92 54 -136t131 -44q146 0 241 132q39 54 58 146l123 619h143l-201 -1010h-139l20 113q-110 -127 -296 -126q-187 1 -257 165q-33 76 -18 173q4 26 8 48l127 637h144l-125 -623q-5 -23 -9 -47t-4 -47zM564 1321q-43 0 -118 -70l-59 76q104 100 188 99t150 -50
q33 -25 53 -33t61 -8t117 70l62 -76q-104 -100 -188 -99t-150 50q-35 25 -54 33t-62 8z" />
    <glyph glyph-name="Umacron" unicode="&#x16a;" horiz-adv-x="1329" 
d="M168 352q0 72 14 156l189 950h149l-192 -964q-8 -33 -10 -93q-3 -121 66 -202t210 -81q140 1 256 100t151 286l189 954h149l-194 -979q-73 -356 -371 -460q-179 -61 -340 -10t-230 195q-36 76 -36 148zM1192 1743l-23 -109h-587l22 109h588z" />
    <glyph glyph-name="umacron" unicode="&#x16b;" horiz-adv-x="1095" 
d="M270 293q0 -92 54 -136t131 -44q146 0 241 132q39 54 58 146l123 619h143l-201 -1010h-139l20 113q-110 -127 -296 -126q-187 1 -257 165q-33 76 -18 173q4 26 8 48l127 637h144l-125 -623q-5 -23 -9 -47t-4 -47zM983 1253h-586l23 109h586z" />
    <glyph glyph-name="Ubreve" unicode="&#x16c;" horiz-adv-x="1329" 
d="M168 352q0 72 14 156l189 950h149l-192 -964q-8 -33 -10 -93q-3 -121 66 -202t210 -81q140 1 256 100t151 286l189 954h149l-194 -979q-73 -356 -371 -460q-179 -61 -340 -10t-230 195q-36 76 -36 148zM887 1581q-123 0 -192 53t-68 156v20q0 12 2 29h112q-2 -16 -2 -24
v-13q0 -53 41 -82t113 -28q158 0 192 147h115q-33 -137 -111 -198q-79 -60 -202 -60z" />
    <glyph glyph-name="ubreve" unicode="&#x16d;" horiz-adv-x="1095" 
d="M270 293q0 -92 54 -136t131 -44q146 0 241 132q39 54 58 146l123 619h143l-201 -1010h-139l20 113q-110 -127 -296 -126q-187 1 -257 165q-33 76 -18 173q4 26 8 48l127 637h144l-125 -623q-5 -23 -9 -47t-4 -47zM434 1399v19q0 11 2 28h113q-2 -14 -2 -22v-15
q0 -53 41 -81t112 -28q156 0 193 146h113q-59 -256 -314 -256q-122 0 -190 53t-68 156z" />
    <glyph glyph-name="Uring" unicode="&#x16e;" horiz-adv-x="1329" 
d="M168 352q0 72 14 156l189 950h149l-192 -964q-8 -33 -10 -93q-3 -121 66 -202t210 -81q140 1 256 100t151 286l189 954h149l-194 -979q-73 -356 -371 -460q-179 -61 -340 -10t-230 195q-36 76 -36 148zM1030 1766q0 58 -43 100t-101 43q-58 0 -102 -42q-44 -43 -43 -101
q0 -58 43 -101q44 -43 102 -43t101 43t43 101zM1126 1766q0 -99 -69 -170q-69 -72 -169 -72t-170 70t-72 172q-1 101 70 171t173 70t169 -71q68 -71 68 -170z" />
    <glyph glyph-name="uring" unicode="&#x16f;" horiz-adv-x="1095" 
d="M270 293q0 -92 54 -136t131 -44q146 0 241 132q39 54 58 146l123 619h143l-201 -1010h-139l20 113q-110 -127 -296 -126q-187 1 -257 165q-33 76 -18 173q4 26 8 48l127 637h144l-125 -623q-5 -23 -9 -47t-4 -47zM846 1404q0 58 -43 100t-103 42t-102 -42
q-43 -42 -43 -100t43 -101t102 -43t103 43q43 43 43 101zM940 1403q0 -102 -69 -170t-170 -69q-101 -2 -171 68t-69 172q0 102 68 170t171 70q102 1 171 -69t69 -172z" />
    <glyph glyph-name="Uhungarumlaut" unicode="&#x170;" horiz-adv-x="1329" 
d="M168 352q0 72 14 156l189 950h149l-192 -964q-8 -33 -10 -93q-3 -121 66 -202t210 -81q140 1 256 100t151 286l189 954h149l-194 -979q-73 -356 -371 -460q-179 -61 -340 -10t-230 195q-36 76 -36 148zM768 1587h-141l239 309h164zM1085 1587h-139l240 309h164z" />
    <glyph glyph-name="uhungarumlaut" unicode="&#x171;" horiz-adv-x="1095" 
d="M270 293q0 -92 54 -136t131 -44q146 0 241 132q39 54 58 146l123 619h143l-201 -1010h-139l20 113q-110 -127 -296 -126q-187 1 -257 165q-33 76 -18 173q4 26 8 48l127 637h144l-125 -623q-5 -23 -9 -47t-4 -47zM578 1204h-142l240 309h166zM897 1204h-141l239 309h166z
" />
    <glyph glyph-name="Uogonek" unicode="&#x172;" horiz-adv-x="1329" 
d="M168 352q0 72 14 156l189 950h149l-192 -964q-8 -33 -10 -93q-3 -121 66 -202t210 -81q140 1 256 100t151 286l189 954h149l-194 -979q-73 -356 -371 -460q-179 -61 -340 -10t-230 195q-36 76 -36 148zM664 -434h-154l192 301h134z" />
    <glyph glyph-name="uogonek" unicode="&#x173;" horiz-adv-x="1095" 
d="M270 293q0 -92 54 -136t131 -44q146 0 241 132q39 54 58 146l123 619h143l-201 -1010h-139l20 113q-110 -127 -296 -126q-187 1 -257 165q-33 76 -18 173q4 26 8 48l127 637h144l-125 -623q-5 -23 -9 -47t-4 -47zM612 -434h-153l192 301h133z" />
    <glyph glyph-name="Wcircumflex" unicode="&#x174;" horiz-adv-x="1669" 
d="M1190 0h-139l-78 1174l-547 -1174h-137l-68 1458h154l41 -1182l540 1182h134l75 -1182l498 1182h160zM1229 1587l-133 219l-224 -219h-139l305 314h133l183 -314h-125z" />
    <glyph glyph-name="wcircumflex" unicode="&#x175;" horiz-adv-x="1409" 
d="M993 0h-131l-98 782l-404 -782h-131l-104 1010h145l64 -807l409 807h117l96 -807l375 807h152zM1024 1204l-133 219l-221 -219h-142l308 314h131l184 -314h-127z" />
    <glyph glyph-name="Ycircumflex" unicode="&#x176;" horiz-adv-x="1013" 
d="M600 596l-121 -596h-149l123 606l-248 852h155l193 -704l459 704h166zM879 1587l-134 219l-223 -219h-139l305 314h133l183 -314h-125z" />
    <glyph glyph-name="ycircumflex" unicode="&#x177;" horiz-adv-x="868" 
d="M-20 -430h-64l27 127h43q71 1 99 23q27 22 45 48q17 26 38 62l100 193l-145 987h143l105 -813l417 813h158l-672 -1252q-52 -91 -89 -123q-74 -65 -205 -65zM748 1204l-134 219l-221 -219h-141l307 314h131l184 -314h-126z" />
    <glyph glyph-name="Ydieresis" unicode="&#x178;" horiz-adv-x="1013" 
d="M600 596l-121 -596h-149l123 606l-248 852h155l193 -704l459 704h166zM567 1604h-139l35 178h139zM977 1604h-139l34 178h140z" />
    <glyph glyph-name="Zacute" unicode="&#x179;" horiz-adv-x="1089" 
d="M1133 1335l-926 -1204h698l-26 -131h-867l29 137l915 1190h-663l24 131h840zM803 1587h-141l239 309h164z" />
    <glyph glyph-name="zacute" unicode="&#x17a;" horiz-adv-x="901" 
d="M874 889l-675 -762h536l-24 -127h-711l25 121l673 762h-505l24 127h682zM645 1206h-143l241 310h164z" />
    <glyph glyph-name="Zdotaccent" unicode="&#x17b;" horiz-adv-x="1089" 
d="M1133 1335l-926 -1204h698l-26 -131h-867l29 137l915 1190h-663l24 131h840zM846 1622h-148l31 152h148z" />
    <glyph glyph-name="zdotaccent" unicode="&#x17c;" horiz-adv-x="901" 
d="M874 889l-675 -762h536l-24 -127h-711l25 121l673 762h-505l24 127h682zM686 1239h-147l30 152h148z" />
    <glyph glyph-name="Zcaron" unicode="&#x17d;" horiz-adv-x="1089" 
d="M1133 1335l-926 -1204h698l-26 -131h-867l29 137l915 1190h-663l24 131h840zM813 1587h-131l-184 314h125l133 -220l223 220h139z" />
    <glyph glyph-name="zcaron" unicode="&#x17e;" horiz-adv-x="901" 
d="M874 889l-675 -762h536l-24 -127h-711l25 121l673 762h-505l24 127h682zM653 1204h-131l-184 314h127l133 -220l221 220h142z" />
    <glyph glyph-name="longs" unicode="&#x17f;" horiz-adv-x="491" 
d="M618 1339q-130 0 -159 -143l-240 -1196h-143l239 1204q25 136 106 197t187 61h109l-25 -123h-74z" />
    <glyph glyph-name="uni018F" unicode="&#x18f;" horiz-adv-x="1267" 
d="M291 402q0 -142 81.5 -213.5t178.5 -71.5q174 0 293 123q92 99 151 395h-676q-28 -154 -28 -233zM1065 1055q0 143 -78 214.5t-188 71.5q-172 0 -289 -122q-56 -60 -96 -179h-154q29 96 62.5 155.5t95.5 125.5t164 107.5t208 41.5q200 0 312 -108t112 -273
q0 -166 -68.5 -460t-175 -467.5t-415.5 -173.5q-183 0 -298.5 107t-115.5 286q0 111 45 336l9 45h825q45 213 45 293z" />
    <glyph glyph-name="florin" unicode="&#x192;" horiz-adv-x="784" 
d="M805 1339q-139 0 -191 -147l-147 -404h209l-25 -108h-223l-414 -1129h-145l416 1129h-189l21 108h207l147 404q54 140 129.5 205t220.5 65h97l-25 -123h-88z" />
    <glyph glyph-name="uni01B5" unicode="&#x1b5;" horiz-adv-x="1089" 
d="M1133 1335l-418 -542h188l-22 -115h-254l-420 -547h698l-26 -131h-867l29 137l416 541h-191l23 115h256l411 534h-663l24 131h840z" />
    <glyph glyph-name="uni01B6" unicode="&#x1b6;" horiz-adv-x="901" 
d="M874 889l-299 -336h142l-19 -96h-206l-293 -330h536l-24 -127h-711l25 121l297 336h-136l19 96h201l292 330h-505l24 127h682z" />
    <glyph glyph-name="uni01C4" unicode="&#x1c4;" horiz-adv-x="2398" 
d="M1108 1055q0 123 -69 199t-220 75h-303l-242 -1200h301q176 0 293 104q68 63 115 185t100 438q9 47 17 94q8 46 8 105zM848 1458q273 0 372 -206q35 -76 35 -186t-48 -351t-86 -337q-37 -96 -73 -148q-157 -230 -464 -230h-484l293 1458h455zM2441 1335l-925 -1204h698
l-27 -131h-866l29 137l915 1190h-663l24 131h840zM2120 1587h-131l-185 314h125l133 -220l224 220h139z" />
    <glyph glyph-name="uni01C5" unicode="&#x1c5;" horiz-adv-x="2209" 
d="M1108 1055q0 123 -69 199t-220 75h-303l-242 -1200h301q176 0 293 104q68 63 115 185t100 438q9 47 17 94q8 46 8 105zM848 1458q273 0 372 -206q35 -76 35 -186t-48 -351t-86 -337q-37 -96 -73 -148q-157 -230 -464 -230h-484l293 1458h455zM2183 889l-676 -762h537
l-25 -127h-710l24 121l674 762h-506l25 127h682zM1960 1204h-131l-184 314h127l133 -220l221 220h141z" />
    <glyph glyph-name="uni01C6" unicode="&#x1c6;" horiz-adv-x="1964" 
d="M246 324q0 -209 180 -209q204 0 281 241q31 98 45 194q14 97 14 138q0 207 -182 207q-201 0 -279 -241q-59 -182 -59 -330zM576 1022q172 0 241 -139l117 575h143l-291 -1458h-141l25 121q-70 -84 -140 -109t-141 -24q-284 0 -289 317q0 92 25 213q59 284 169 394
t282 110zM1937 889l-675 -762h536l-24 -127h-711l24 121l674 762h-506l25 127h682zM1714 1204h-131l-184 314h127l133 -220l221 220h141z" />
    <glyph glyph-name="uni01C7" unicode="&#x1c7;" horiz-adv-x="2093" 
d="M963 0h-863l293 1458h148l-267 -1329h713zM1901 436q-45 -223 -177 -336q-132 -112 -326 -112q-195 0 -304 135l108 92q41 -47 89 -73t124 -25q125 0 216 85t126 259l199 997h149z" />
    <glyph glyph-name="uni01C8" unicode="&#x1c8;" horiz-adv-x="1611" 
d="M963 0h-863l293 1458h148l-267 -1329h713zM1602 1296h-162l28 150h164zM993 -328q72 0 110 37t54 117l238 1184h143l-238 -1198q-53 -262 -296 -263h-105l25 123h69z" />
    <glyph glyph-name="uni01C9" unicode="&#x1c9;" horiz-adv-x="1001" 
d="M260 198q0 -30 23 -53t88 -22h84l-25 -123h-106q-137 0 -188 99q-19 37 -19 89t8 86l237 1184h144l-238 -1184q-8 -46 -8 -76zM991 1296h-162l29 150h164zM383 -328q72 0 110 37t54 117l237 1184h144l-238 -1198q-53 -262 -297 -263h-104l24 123h70z" />
    <glyph glyph-name="uni01CA" unicode="&#x1ca;" horiz-adv-x="2398" 
d="M1124 0h-137l-502 1182l-237 -1182h-148l293 1458h137l502 -1182l236 1182h149zM2206 436q-45 -223 -176 -336q-131 -112 -327 -112t-304 135l108 92q41 -47 89 -73t124 -25q125 0 216 85t126 259l199 997h149z" />
    <glyph glyph-name="uni01CB" unicode="&#x1cb;" horiz-adv-x="1916" 
d="M1124 0h-137l-502 1182l-237 -1182h-148l293 1458h137l502 -1182l236 1182h149zM1907 1296h-162l29 150h163zM1298 -328q72 0 110 37t54 117l238 1184h143l-237 -1198q-53 -262 -297 -263h-105l25 123h69z" />
    <glyph glyph-name="uni01CC" unicode="&#x1cc;" horiz-adv-x="1589" 
d="M692 1022q124 0 202 -76t77 -209q0 -43 -13 -100l-127 -637h-143l125 623q10 62 10 94q0 92 -52 136t-132 44q-145 0 -240 -132q-39 -54 -57 -147l-123 -618h-143l200 1010h140l-21 -113q108 125 297 125zM1579 1296h-162l29 150h164zM971 -328q71 0 109 37t55 117
l237 1184h144l-238 -1198q-53 -262 -297 -263h-104l24 123h70z" />
    <glyph glyph-name="uni01F1" unicode="&#x1f1;" horiz-adv-x="2398" 
d="M1108 1055q0 123 -69 199t-220 75h-303l-242 -1200h301q176 0 293 104q68 63 115 185t100 438q9 47 17 94q8 46 8 105zM848 1458q273 0 372 -206q35 -76 35 -186t-48 -351t-86 -337q-37 -96 -73 -148q-157 -230 -464 -230h-484l293 1458h455zM2441 1335l-925 -1204h698
l-27 -131h-866l29 137l915 1190h-663l24 131h840z" />
    <glyph glyph-name="uni01F2" unicode="&#x1f2;" horiz-adv-x="2209" 
d="M1108 1055q0 123 -69 199t-220 75h-303l-242 -1200h301q176 0 293 104q68 63 115 185t100 438q9 47 17 94q8 46 8 105zM848 1458q273 0 372 -206q35 -76 35 -186t-48 -351t-86 -337q-37 -96 -73 -148q-157 -230 -464 -230h-484l293 1458h455zM2183 889l-676 -762h537
l-25 -127h-710l24 121l674 762h-506l25 127h682z" />
    <glyph glyph-name="uni01F3" unicode="&#x1f3;" horiz-adv-x="1964" 
d="M246 324q0 -209 180 -209q204 0 281 241q31 98 45 194q14 97 14 138q0 207 -182 207q-201 0 -279 -241q-59 -182 -59 -330zM576 1022q172 0 241 -139l117 575h143l-291 -1458h-141l25 121q-70 -84 -140 -109t-141 -24q-284 0 -289 317q0 92 25 213q59 284 169 394
t282 110zM1937 889l-675 -762h536l-24 -127h-711l24 121l674 762h-506l25 127h682z" />
    <glyph glyph-name="Aringacute" unicode="&#x1fa;" horiz-adv-x="1189" 
d="M748 1243l-418 -786h526zM915 0l-45 332h-606l-178 -332h-160l797 1458h125l219 -1458h-152zM950 1766q0 58 -43 100t-101 43q-58 0 -101 -42q-43 -43 -43 -101t43 -101t101 -43t101 43t43 101zM1047 1766q0 -98 -70 -170t-169 -72q-100 0 -170 70t-72 172q-1 101 70 171
t173 70t170 -72q68 -71 68 -169zM920 2028h-142l240 309h164z" />
    <glyph glyph-name="aringacute" unicode="&#x1fb;" 
d="M453 469q-117 0 -189 -58t-71 -169q0 -135 200 -133q135 0 215 79q63 59 82 164l23 117h-260zM205 877q133 145 317 145t270 -49q115 -67 115 -213q0 -40 -10 -80l-135 -680h-141l22 100q-114 -114 -289 -112q-211 0 -278 131q-25 47 -25 112q0 150 90 238
q112 108 297 106h295l23 107q8 28 8 68q0 74 -54 112t-148 37q-94 0 -156 -30q-61 -30 -117 -91zM811 1404q0 58 -43 100t-102 42q-58 0 -102 -42t-44 -100t43 -101t103 -43t102 43q43 43 43 101zM905 1404q0 -102 -68 -170t-171 -70q-102 -1 -171 69t-69 172t69 170t170 69
q101 2 171 -68t69 -172zM762 1665h-144l242 309h164z" />
    <glyph glyph-name="AEacute" unicode="&#x1fc;" horiz-adv-x="1804" 
d="M414 479h417l170 850zM1858 1329h-709l-107 -532h607l-27 -131h-606l-107 -537h719l-26 -129h-867l70 354h-475l-246 -354h-168l1022 1458h946zM1176 1587h-142l240 309h164z" />
    <glyph glyph-name="aeacute" unicode="&#x1fd;" horiz-adv-x="1636" 
d="M1391 688q0 96 -56 155q-56 58 -154 58t-181 -79t-128 -249h508q11 68 11 115zM391 106q133 0 217 80q63 63 82 164l23 119h-262q-117 0 -188 -58t-70 -171q0 -134 198 -134zM741 164q-115 -176 -333 -176q-180 0 -268 58q-89 58 -89 192q0 135 97 236t288 99h299l21 107
q8 32 8 70q0 149 -203 149q-95 0 -157 -30t-117 -91l-82 96q69 76 153 112t211 36q233 0 305 -160q127 160 326 160q152 0 240 -96t88 -250q0 -71 -25 -207h-651q-12 -93 -12 -127q0 -100 52 -166t154 -66t166 30q63 30 129 89l86 -94q-159 -147 -380 -147q-104 0 -186 45
q-81 45 -120 131zM995 1206h-143l242 310h163z" />
    <glyph glyph-name="Oslashacute" unicode="&#x1fe;" horiz-adv-x="1265" 
d="M549 117q92 -1 161 31t111 76t73 96q31 51 61 173q102 419 102 579q0 56 -25 120l-651 -1016q76 -59 168 -59zM291 366q0 -50 24 -102l652 1016q-74 61 -167 61q-172 0 -290 -122q-54 -58 -82 -136q-28 -79 -82 -306t-55 -411zM1124 1327q82 -99 82 -243q0 -145 -94 -568
q-39 -176 -83 -249q-45 -71 -103 -133t-157 -104t-231 -42t-233 65l-94 -143h-129l143 215q-84 100 -84 241q0 140 36 313t65 302t91 233q157 256 468 256q139 0 241 -67l95 145h129zM868 1587h-141l240 309h163z" />
    <glyph glyph-name="oslashacute" unicode="&#x1ff;" horiz-adv-x="1030" 
d="M244 336q0 -62 12 -98l463 614q-53 45 -119 45t-114 -21q-162 -74 -220 -364q-22 -114 -22 -176zM424 113q301 0 355 490q5 46 5 88t-16 87l-463 -618q50 -47 119 -47zM866 899q60 -81 60 -188q0 -176 -48 -325t-91 -205q-42 -56 -90 -99q-107 -96 -269 -94
q-123 0 -205 59l-102 -137h-113l152 203q-58 80 -58 183t27 240q96 486 489 486q97 0 181 -57l102 135h115zM696 1206h-143l242 310h163z" />
    <glyph glyph-name="Scommaaccent" unicode="&#x218;" horiz-adv-x="1144" 
d="M145 287q133 -168 333 -168q181 0 293 86t112 227t-126 192q-38 15 -81 25l-137 33q-129 29 -193 82q-63 53 -93 109q-30 57 -30 135t30 160q67 181 254 259q99 43 225 43t223 -38t175 -129l-106 -91q-59 68 -106 90q-46 23 -89 32t-113 9q-70 1 -136 -27
q-68 -28 -114 -74q-97 -97 -95 -226q0 -86 58 -132t151 -69l137 -31q167 -40 241 -120t74 -212t-44 -212q-44 -82 -119 -138q-153 -116 -386 -114q-154 0 -258 47t-192 153zM377 -434h-156l193 301h135z" />
    <glyph glyph-name="scommaaccent" unicode="&#x219;" horiz-adv-x="962" 
d="M299 698q0 -52 38 -78t112 -36l135 -19q135 -19 190 -77t55 -175t-108 -222t-342 -104t-369 146l107 92q99 -115 265 -115q221 1 287 133q17 36 17 87t-38 76t-103 34l-137 21q-142 21 -197 81t-55 127q0 146 94 240q114 113 316 113t323 -113l-103 -88q-93 82 -223 82
t-197 -61q-67 -60 -67 -144zM276 -434h-155l192 301h136z" />
    <glyph glyph-name="uni021A" unicode="&#x21a;" horiz-adv-x="1067" 
d="M1171 1327h-399l-266 -1327h-148l267 1327h-402l27 131h948zM303 -434h-156l193 301h135z" />
    <glyph glyph-name="uni021B" unicode="&#x21b;" horiz-adv-x="651" 
d="M291 198q-1 -30 23 -53t89 -22h82l-26 -123h-103q-138 0 -189 99q-35 69 -11 175l125 627h-125l20 109h127l62 307h143l-62 -307h199l-22 -109h-197l-127 -627q-8 -46 -8 -76zM152 -434h-156l192 301h136z" />
    <glyph glyph-name="uni0237" unicode="&#x237;" horiz-adv-x="493" 
d="M-125 -328q72 0 110 37t54 117l237 1184h144l-238 -1198q-53 -262 -297 -263h-104l24 123h70z" />
    <glyph glyph-name="uni0259" unicode="&#x259;" horiz-adv-x="1036" 
d="M248 334q0 -119 58.5 -172t152.5 -53t177 78.5t128 248.5h-508q-8 -50 -8 -102zM590 1022q152 0 248 -89t96 -259q0 -265 -87 -411t-181.5 -210.5t-240.5 -64.5t-231 96.5t-85 249.5q0 63 24 207h651q13 101 13 127q0 98 -52.5 164.5t-154.5 66.5t-166 -29.5t-129 -89.5
l-86 94q160 148 381 148z" />
    <glyph glyph-name="uni02BB" unicode="&#x2bb;" horiz-adv-x="512" 
d="M500 1284h-172l34 174l205 164z" />
    <glyph glyph-name="afii57929" unicode="&#x2bc;" horiz-adv-x="512" 
d="M500 1284l-205 -164l67 338h173z" />
    <glyph glyph-name="circumflex" unicode="&#x2c6;" 
d="M834 1204l-134 219l-221 -219h-141l307 314h131l185 -314h-127z" />
    <glyph glyph-name="caron" unicode="&#x2c7;" 
d="M705 1204h-132l-184 314h127l133 -220l221 220h142z" />
    <glyph glyph-name="breve" unicode="&#x2d8;" horiz-adv-x="1028" 
d="M412 1399v15q0 16 2 32h112q-2 -14 -2 -16v-21q0 -53 41 -81t113 -28q156 0 192 146h113q-59 -256 -313 -256q-123 0 -190.5 53t-67.5 156z" />
    <glyph glyph-name="dotaccent" unicode="&#x2d9;" 
d="M737 1239h-147l31 152h147z" />
    <glyph glyph-name="ring" unicode="&#x2da;" 
d="M823 1404q0 58 -43 100t-102.5 42t-102.5 -42t-43 -100t43 -101t102.5 -43t102.5 43t43 101zM918 1404q0 -101 -70 -171t-170 -70t-170 70t-70 171t70 171t170 70t170 -70t70 -171z" />
    <glyph glyph-name="ogonek" unicode="&#x2db;" horiz-adv-x="1028" 
d="M317 -434h-153l192 301h133z" />
    <glyph glyph-name="tilde" unicode="&#x2dc;" 
d="M987 1329q-102 -98 -184 -98q-83 0 -136 37t-72.5 45t-59.5 8t-119 -70l-60 76q102 98 187 98t151 -49q33 -25 53.5 -33t52.5 -8t59.5 17.5t66.5 52.5z" />
    <glyph glyph-name="hungarumlaut" unicode="&#x2dd;" horiz-adv-x="1028" 
d="M555 1204h-141l239 309h166zM874 1204h-141l240 309h166z" />
    <glyph glyph-name="uni0394" unicode="&#x394;" horiz-adv-x="1171" 
d="M743 1245l-606 -1118h762zM-84 0l801 1458h123l217 -1458h-1141z" />
    <glyph glyph-name="uni03A9" unicode="&#x3a9;" horiz-adv-x="1263" 
d="M143 397q-1 62 17 161t48 267q48 269 132 402q84 134 247 200q103 43 203 43t175 -28q151 -58 213 -204q30 -74 30 -130q0 -159 -55 -409q-55 -251 -86 -335t-104 -167q-30 -35 -76 -66h166l-25 -131h-387l25 123q85 26 174 115q60 64 90 158q31 94 61 250q31 157 40 212
q26 159 26 219q0 117 -75 190q-75 72 -181 72q-172 0 -291 -122q-54 -54 -89 -149q-34 -95 -66 -258q-44 -229 -55 -303t-11 -147t44 -142t122 -95l-25 -123h-371l27 131h164q-107 99 -107 266z" />
    <glyph glyph-name="uni03BC" unicode="&#x3bc;" horiz-adv-x="1097" 
d="M272 293q0 -92 54 -135t131 -43q145 0 239 130q39 54 58 146l123 619h145l-201 -1010h-141l20 113q-110 -127 -297 -125q-119 0 -184 82l-102 -519h-144l291 1459h144l-125 -623q-11 -69 -11 -94z" />
    <glyph glyph-name="pi" unicode="&#x3c0;" horiz-adv-x="1159" 
d="M831 0h-143l180 893h-469l-180 -893h-143l203 1010h755z" />
    <glyph glyph-name="uni0400" unicode="&#x400;" horiz-adv-x="1171" 
d="M758 1587l-146 309h158l117 -309h-129zM1225 1329h-709l-106 -528h608l-25 -129h-608l-111 -543h723l-24 -129h-873l293 1458h858z" />
    <glyph glyph-name="afii10023" unicode="&#x401;" horiz-adv-x="1171" 
d="M1225 1329h-709l-106 -528h608l-25 -129h-608l-111 -543h723l-24 -129h-873l293 1458h858zM692 1604h-139l35 178h139zM1102 1604h-139l34 178h140z" />
    <glyph glyph-name="afii10051" unicode="&#x402;" horiz-adv-x="1378" 
d="M1272 502q0 -94 -35 -187.5t-139 -204t-344 -110.5h-84l26 131h62q161 0 262.5 107t101.5 272q0 242 -260 242h-266l-152 -752h-147l266 1327h-340l27 131h946l-25 -131h-460l-88 -444h262q196 0 291.5 -99t95.5 -282z" />
    <glyph glyph-name="afii10052" unicode="&#x403;" horiz-adv-x="1079" 
d="M823 1587h-141l240 309h163zM1206 1329h-690l-268 -1329h-148l293 1458h838z" />
    <glyph glyph-name="afii10053" unicode="&#x404;" horiz-adv-x="1243" 
d="M291 401q0 -137 81 -210.5t210 -73.5t228.5 85t143.5 214h152q-63 -205 -208.5 -316.5t-331.5 -111.5t-305.5 104t-119.5 289q0 125 37 299q70 328 125.5 489.5t214 231t268.5 69.5q212 0 319 -118.5t107 -309.5h-149q-2 135 -71.5 217t-217.5 82t-262 -122
q-58 -58 -91.5 -154.5t-68.5 -263.5h520l-24 -127h-520q-37 -194 -37 -273z" />
    <glyph glyph-name="afii10054" unicode="&#x405;" horiz-adv-x="1144" 
d="M145 287q133 -168 333 -168q181 0 293 86t112 227t-126 192q-38 15 -81 25l-137 33q-129 29 -193 82q-63 53 -93 109q-30 57 -30 135t30 160q67 181 254 259q99 43 225 43t223 -38t175 -129l-106 -91q-59 68 -106 90q-46 23 -89 32t-113 9q-70 1 -136 -27
q-68 -28 -114 -74q-97 -97 -95 -226q0 -86 58 -132t151 -69l137 -31q167 -40 241 -120t74 -212t-44 -212q-44 -82 -119 -138q-153 -116 -386 -114q-154 0 -258 47t-192 153z" />
    <glyph glyph-name="afii10055" unicode="&#x406;" horiz-adv-x="550" 
d="M248 0h-148l293 1458h148z" />
    <glyph glyph-name="afii10056" unicode="&#x407;" horiz-adv-x="550" 
d="M248 0h-148l293 1458h148zM346 1604h-139l35 178h139zM756 1604h-140l35 178h140z" />
    <glyph glyph-name="afii10057" unicode="&#x408;" horiz-adv-x="974" 
d="M782 436q-45 -223 -176 -336q-131 -112 -327 -112t-304 135l109 92q41 -47 89 -73t124 -25q125 0 216 85t126 259l199 997h149z" />
    <glyph glyph-name="afii10058" unicode="&#x409;" horiz-adv-x="2004" 
d="M1765 472q0 246 -241 247h-353l-116 -588h350q161 0 234 74t99.5 139.5t26.5 127.5zM1915 480q0 -86 -35 -177.5t-140.5 -197t-340.5 -105.5h-518l266 1327h-481l-101 -500q-94 -470 -198.5 -610.5t-190.5 -178.5t-190 -38h-74l25 129h38q70 0 200 62.5t251 670.5
l121 596h774l-121 -610h344q187 0 279 -100t92 -268z" />
    <glyph glyph-name="afii10059" unicode="&#x40a;" horiz-adv-x="2027" 
d="M1790 472q0 246 -242 247h-352l-117 -588h351q159 0 233 74t100.5 139.5t26.5 127.5zM1939 480q0 -86 -34.5 -177.5t-140 -197t-341.5 -105.5h-520l146 719h-656l-145 -719h-148l293 1458h148l-121 -610h655l121 610h150l-121 -610h342q187 0 279.5 -99.5t92.5 -268.5z
" />
    <glyph glyph-name="afii10060" unicode="&#x40b;" horiz-adv-x="1419" 
d="M1270 542q0 -68 -13 -124l-86 -418h-149l90 436q10 50 10 92q0 98 -59.5 161t-183.5 63h-283l-152 -752h-147l266 1327h-340l27 131h946l-25 -131h-460l-88 -444h270q186 0 281.5 -95.5t95.5 -245.5z" />
    <glyph glyph-name="afii10061" unicode="&#x40c;" horiz-adv-x="1153" 
d="M248 0h-148l293 1458h148zM1090 1458h194l-711 -700l471 -758h-192l-451 760zM860 1587h-141l239 309h164z" />
    <glyph glyph-name="uni040D" unicode="&#x40d;" horiz-adv-x="1425" 
d="M1124 0h-147l235 1167l-974 -1167h-138l293 1458h148l-234 -1169l973 1169h137zM870 1587l-145 309h158l116 -309h-129z" />
    <glyph glyph-name="afii10062" unicode="&#x40e;" horiz-adv-x="1136" 
d="M186 0h-114l26 129h80q78 0 127 37t103 117l88 137l-291 1038h153l240 -891l555 891h166l-789 -1227q-118 -185 -239 -218q-47 -13 -105 -13zM518 1759v21q0 10 2 26h123q-2 -16 -2 -25v-14q0 -53 37 -86t104 -32q151 0 191 157h123q-31 -139 -114 -197q-83 -59 -207 -59
q-125 0 -191 56t-66 153z" />
    <glyph glyph-name="afii10145" unicode="&#x40f;" horiz-adv-x="1320" 
d="M1020 0h-387l-64 -338h-147l63 338h-385l293 1458h148l-267 -1327h623l266 1327h150z" />
    <glyph glyph-name="afii10017" unicode="&#x410;" horiz-adv-x="1189" 
d="M748 1243l-418 -786h526zM915 0l-45 332h-606l-178 -332h-160l797 1458h125l219 -1458h-152z" />
    <glyph glyph-name="afii10018" unicode="&#x411;" horiz-adv-x="1261" 
d="M987 472q0 246 -242 247h-354l-117 -588h353q159 0 234 74t100.5 139.5t25.5 127.5zM766 848q187 0 279 -100t92 -250q0 -217 -140.5 -357.5t-375.5 -140.5h-521l293 1458h832l-25 -129h-684l-96 -481h346z" />
    <glyph glyph-name="afii10019" unicode="&#x412;" horiz-adv-x="1302" 
d="M1098 1120q0 207 -234 207h-348l-104 -516h364q143 0 237 92q85 87 85 217zM997 478q0 88 -62 144t-169 56h-381l-111 -547h398q72 0 131 25q194 82 194 322zM977 743q170 -81 170 -283t-133 -331t-338 -129h-576l293 1458h490q208 0 301 -117q65 -82 65 -211
q0 -187 -139 -310q-53 -46 -133 -77z" />
    <glyph glyph-name="afii10020" unicode="&#x413;" horiz-adv-x="1079" 
d="M1206 1329h-690l-268 -1329h-148l293 1458h838z" />
    <glyph glyph-name="afii10021" unicode="&#x414;" horiz-adv-x="1341" 
d="M657 1329l-88 -442q-97 -475 -311 -756h639l240 1198h-480zM1044 131h166l-94 -469h-147l67 338h-948l-68 -338h-147l94 469h131q189 247 257.5 489t97.5 390l90 448h768z" />
    <glyph glyph-name="afii10022" unicode="&#x415;" horiz-adv-x="1171" 
d="M1225 1329h-709l-106 -528h608l-25 -129h-608l-111 -543h723l-24 -129h-873l293 1458h858z" />
    <glyph glyph-name="afii10024" unicode="&#x416;" horiz-adv-x="1746" 
d="M848 0h-148l293 1458h148zM1677 1458h197l-700 -700l458 -758h-192l-439 758zM111 0h-209l780 770l-424 688h182l412 -698z" />
    <glyph glyph-name="afii10025" unicode="&#x417;" horiz-adv-x="1185" 
d="M854 743q180 -84 180 -289q0 -206 -136 -336t-368 -130q-329 0 -387.5 168t-58.5 260h149q0 -137 77 -218t231 -81t248 95.5t94 250.5q0 111 -66.5 165t-177.5 54h-176l24 127h164q150 0 241 84.5t91 226.5t-91 181.5t-168 39.5q-142 0 -240.5 -84t-139.5 -215h-151
q63 205 200 316.5t341 111.5t301.5 -100.5t97.5 -251.5q0 -180 -98.5 -262t-180.5 -113z" />
    <glyph glyph-name="afii10026" unicode="&#x418;" horiz-adv-x="1425" 
d="M1124 0h-147l235 1167l-974 -1167h-138l293 1458h148l-234 -1169l973 1169h137z" />
    <glyph glyph-name="afii10027" unicode="&#x419;" horiz-adv-x="1425" 
d="M1124 0h-147l235 1167l-974 -1167h-138l293 1458h148l-234 -1169l973 1169h137zM674 1780q0 10 2 26h123q-2 -16 -2 -25v-14q0 -53 37 -86t104 -32q152 0 190 157h123q-31 -139 -113 -197q-82 -59 -207 -59q-124 0 -191 56t-66 153v21z" />
    <glyph glyph-name="afii10028" unicode="&#x41a;" horiz-adv-x="1153" 
d="M248 0h-148l293 1458h148zM1090 1458h194l-711 -700l471 -758h-192l-451 760z" />
    <glyph glyph-name="afii10029" unicode="&#x41b;" horiz-adv-x="1329" 
d="M-14 0h-74l25 129h38q70 0 200 62.5t251 670.5l121 596h774l-293 -1458h-147l266 1327h-481l-101 -500q-94 -470 -198.5 -610.5t-190.5 -178.5t-190 -38z" />
    <glyph glyph-name="afii10030" unicode="&#x41c;" horiz-adv-x="1587" 
d="M1288 0h-147l225 1110l-551 -848h-127l-213 860l-227 -1122h-148l293 1458h144l243 -1014l656 1014h145z" />
    <glyph glyph-name="afii10031" unicode="&#x41d;" horiz-adv-x="1351" 
d="M1053 0h-148l135 672h-655l-137 -672h-148l293 1458h148l-129 -657h655l131 657h148z" />
    <glyph glyph-name="afii10032" unicode="&#x41e;" horiz-adv-x="1263" 
d="M1057 1088q0 46 -22 99q-65 154 -259 154q-148 0 -266 -122q-95 -102 -156 -411q-46 -233 -55 -300q-8 -67 -8 -126q0 -123 77 -194t175 -71q176 0 293 123q59 63 84 139q26 75 46 156q91 383 91 553zM1206 1110q0 -170 -57 -427t-81 -324q-85 -238 -299 -329
q-99 -42 -205 -42q-198 0 -310 108q-113 108 -113 285q0 125 36 298t65 302t91 233q157 256 468 256q88 0 163 -27q150 -56 212 -203q30 -72 30 -130z" />
    <glyph glyph-name="afii10033" unicode="&#x41f;" horiz-adv-x="1320" 
d="M1020 0h-148l267 1327h-625l-266 -1327h-148l293 1458h920z" />
    <glyph glyph-name="afii10034" unicode="&#x420;" horiz-adv-x="1224" 
d="M1110 1084q0 243 -242 243h-354l-117 -588h353q80 0 146 27q134 54 188 190q26 66 26 128zM1260 1088q0 -86 -35 -176q-71 -183 -263 -263q-95 -39 -219 -39h-372l-123 -610h-148l293 1458h496q186 0 287 -108q84 -91 84 -262z" />
    <glyph glyph-name="afii10035" unicode="&#x421;" horiz-adv-x="1243" 
d="M291 366q1 -44 23 -94t60 -84q77 -71 207 -71t229 85q100 85 144 214h152q-62 -205 -208 -317q-146 -111 -332 -111t-306 104q-119 104 -119 289q0 125 53 376t90 356q36 105 115 188q161 169 380 169q218 0 327 -119q108 -119 106 -309h-149q-2 136 -72 218t-203 81
q-162 0 -276 -122q-59 -59 -87 -140q-49 -145 -84 -337q-36 -191 -41 -232t-7 -71q-2 -29 -2 -73z" />
    <glyph glyph-name="afii10036" unicode="&#x422;" horiz-adv-x="1067" 
d="M1171 1327h-399l-266 -1327h-148l267 1327h-402l27 131h948z" />
    <glyph glyph-name="afii10037" unicode="&#x423;" horiz-adv-x="1136" 
d="M186 0h-114l26 129h80q78 0 127 37t103 117l88 137l-291 1038h153l240 -891l555 891h166l-789 -1227q-79 -123 -154.5 -177t-189.5 -54z" />
    <glyph glyph-name="afii10038" unicode="&#x424;" horiz-adv-x="1554" 
d="M307 618q0 -145 94.5 -225t264.5 -80l188 930q-229 0 -346 -90q-71 -54 -123.5 -153.5t-65 -221t-12.5 -160.5zM1356 938q0 145 -94.5 225t-264.5 80l-188 -930q229 0 346 90q71 54 123.5 153.5t65 221t12.5 160.5zM1505 982q0 -204 -49.5 -361t-102.5 -216t-113 -107
t-177 -82t-277 -34l-36 -190h-150l37 190q-223 4 -351 111t-128 297t50.5 347.5t101 214t112.5 105.5t178.5 83t276.5 34l26 135h150l-27 -135q221 -4 316.5 -83t129 -158t33.5 -151z" />
    <glyph glyph-name="afii10039" unicode="&#x425;" horiz-adv-x="1077" 
d="M666 739l288 -739h-166l-229 618l-457 -618h-174l572 760l-267 698h166l207 -581l420 581h176z" />
    <glyph glyph-name="afii10040" unicode="&#x426;" horiz-adv-x="1343" 
d="M1044 131h166l-94 -469h-145l65 338h-936l293 1458h148l-267 -1327h623l266 1327h150z" />
    <glyph glyph-name="afii10041" unicode="&#x427;" horiz-adv-x="1265" 
d="M587 541q-170 0 -265 73.5t-95 219.5q0 49 11 104l102 520h149l-100 -497q-10 -58 -10 -95q0 -194 233 -194q181 0 351 49l147 737h150l-293 -1458h-150l119 594q-179 -53 -349 -53z" />
    <glyph glyph-name="afii10042" unicode="&#x428;" horiz-adv-x="1886" 
d="M1583 0h-1483l293 1458h148l-267 -1327h521l266 1327h147l-266 -1327h520l267 1327h147z" />
    <glyph glyph-name="afii10043" unicode="&#x429;" horiz-adv-x="1908" 
d="M1610 131h166l-95 -469h-145l66 338h-1502l293 1458h148l-267 -1327h521l266 1327h147l-266 -1327h520l267 1327h147z" />
    <glyph glyph-name="afii10044" unicode="&#x42a;" horiz-adv-x="1421" 
d="M1182 472q0 246 -242 247h-352l-117 -588h350q161 0 234 74t100 139.5t27 127.5zM1331 480q0 -86 -34.5 -177.5t-141 -197t-340.5 -105.5h-518l266 1327h-340l27 131h487l-121 -610h345q186 0 278 -100t92 -268z" />
    <glyph glyph-name="afii10045" unicode="&#x42b;" horiz-adv-x="1687" 
d="M985 472q0 243 -242 247h-352l-117 -588h351q80 0 146 27q135 54 187 186q26 66 27 128zM1135 480q0 -86 -35 -178q-71 -186 -263 -263q-95 -39 -219 -39h-518l293 1458h148l-121 -610h344q187 0 287 -109q84 -91 84 -259zM1389 0h-148l293 1458h147z" />
    <glyph glyph-name="afii10046" unicode="&#x42c;" horiz-adv-x="1224" 
d="M985 472q0 246 -242 247h-352l-117 -588h351q161 0 234 74t99.5 139.5t26.5 127.5zM1135 480q0 -86 -35 -177.5t-140.5 -197t-341.5 -105.5h-518l293 1458h148l-121 -610h344q187 0 279 -100t92 -268z" />
    <glyph glyph-name="afii10047" unicode="&#x42d;" horiz-adv-x="1243" 
d="M1038 1061q0 134 -81.5 207t-207.5 73t-226 -85.5t-140 -213.5h-152q56 194 199 311t331 117t307.5 -104.5t119.5 -288.5q0 -89 -17 -181t-37 -192q-46 -239 -88 -354t-118 -195q-159 -167 -396 -167q-199 0 -306 111.5t-111 316.5h151q2 -135 72 -217t201 -82
q165 0 278 123q58 62 90.5 155.5t69.5 278.5h-520l26 127h518q37 185 37 260z" />
    <glyph glyph-name="afii10048" unicode="&#x42e;" horiz-adv-x="1759" 
d="M1552 1088q0 46 -21.5 98.5t-76.5 103.5t-153 51q-177 0 -295 -122q-98 -106 -157 -413q-46 -239 -54.5 -306t-8.5 -122q0 -120 78 -190.5t175 -70.5q175 0 292 123q58 63 94 167t64 249t37.5 197t15.5 92t8 68.5t2 74.5zM637 389q0 98 35 283h-291l-133 -672h-148
l293 1458h148l-133 -657h290q40 208 73.5 291.5t61 129.5t68.5 87q149 161 395 161q181 0 293.5 -108.5t112.5 -284.5q0 -89 -17 -180t-37 -191q-48 -243 -108.5 -414t-217 -237.5t-262.5 -66.5t-180.5 27.5t-128 78.5t-84 124t-30.5 171z" />
    <glyph glyph-name="afii10049" unicode="&#x42f;" horiz-adv-x="1280" 
d="M735 1327q-164 0 -250 -103.5t-86 -214.5q0 -227 230 -227h358l111 545h-363zM250 987q0 184 127 327.5t379 143.5h516l-293 -1458h-150l132 653h-338l-461 -653h-174l483 678q-221 58 -221 309z" />
    <glyph glyph-name="afii10065" unicode="&#x430;" 
d="M453 469q-117 0 -189 -58t-71 -169q0 -135 200 -133q135 0 215 79q63 59 82 164l23 117h-260zM205 877q133 145 317 145t270 -49q115 -67 115 -213q0 -40 -10 -80l-135 -680h-141l22 100q-114 -114 -289 -112q-211 0 -278 131q-25 47 -25 112q0 150 90 238
q112 108 297 106h295l23 107q8 28 8 68q0 74 -54 112t-148 37q-94 0 -156 -30q-61 -30 -117 -91z" />
    <glyph glyph-name="afii10066" unicode="&#x431;" horiz-adv-x="1019" 
d="M778 666q0 120 -57 170.5t-122 50.5q-185 0 -269 -176.5t-84 -386.5q0 -107 55 -158t121 -51q121 0 206 83q86 84 128 290q22 108 22 178zM601 1010q130 0 224.5 -74t94.5 -254q0 -69 -26 -209q-48 -255 -183 -379q-121 -106 -285 -106q-203 0 -263.5 114.5t-60.5 219.5
t40 299t70 306.5t61.5 189.5t67.5 125t99 99.5t203.5 85t380.5 37.5l-27 -127q-349 -8 -477 -100q-76 -55 -115.5 -142t-72.5 -225q55 78 133 109t136 31z" />
    <glyph glyph-name="afii10067" unicode="&#x432;" horiz-adv-x="1052" 
d="M815 756q0 137 -180 137h-238l-65 -320h264q115 0 167 51t52 132zM500 117q243 0 243 197q0 91 -61 118t-121 27h-252l-69 -342h260zM889 313q0 -226 -147.5 -269.5t-233.5 -43.5h-432l203 1010h385q131 0 212.5 -56.5t81.5 -183.5q0 -186 -188 -258q119 -59 119 -199z
" />
    <glyph glyph-name="afii10068" unicode="&#x433;" horiz-adv-x="794" 
d="M850 885h-455l-176 -885h-143l203 1010h593z" />
    <glyph glyph-name="afii10069" unicode="&#x434;" horiz-adv-x="1099" 
d="M494 885l-39 -201q-73 -369 -222 -559h439l151 760h-329zM815 125h143l-79 -401h-138l56 276h-713l-57 -276h-138l80 401h113q78 99 136.5 237.5t113.5 403.5l49 244h612z" />
    <glyph glyph-name="afii10070" unicode="&#x435;" horiz-adv-x="1036" 
d="M788 676q0 119 -58 172t-152 53t-179 -79q-84 -79 -127 -249h508q8 50 8 103zM102 336q0 260 115 457q59 101 153 165t238 64q143 0 232 -96q88 -96 88 -250q0 -71 -25 -207h-651q-12 -93 -12 -127q0 -100 51 -166t153 -66t168 30q64 30 129 89l86 -94
q-159 -147 -381 -147q-154 0 -249 89t-95 259z" />
    <glyph glyph-name="afii10072" unicode="&#x436;" horiz-adv-x="1341" 
d="M637 0h-143l200 1010h144zM1217 1010h178l-498 -490l324 -520h-172l-308 520zM92 0h-186l538 537l-303 473h160l295 -492z" />
    <glyph glyph-name="afii10073" unicode="&#x437;" horiz-adv-x="980" 
d="M608 167.5q64 56.5 64 130.5t-44.5 118.5t-150.5 44.5h-129l21 110h145q125 0 177 53.5t52 122.5t-51 111.5t-153 42.5t-168 -37t-123 -90l-78 90q78 72 166 115t236 43t230.5 -72.5t82.5 -185.5q0 -181 -197 -250q129 -63 129 -210t-111.5 -231.5t-310.5 -84.5
q-245 0 -372 157l100 91q101 -125 280 -125q141 0 205 56.5z" />
    <glyph glyph-name="afii10074" unicode="&#x438;" horiz-adv-x="1110" 
d="M836 0h-144l152 764l-625 -764h-143l200 1010h144l-154 -764l627 764h143z" />
    <glyph glyph-name="afii10075" unicode="&#x439;" horiz-adv-x="1110" 
d="M836 0h-144l152 764l-625 -764h-143l200 1010h144l-154 -764l627 764h143zM690 1180q-122 0 -190 55t-68 154v20t2 27h123q-2 -16 -2 -26v-15q0 -53 37 -85t106 -32q152 0 189 158h123q-31 -140 -114 -198t-206 -58z" />
    <glyph glyph-name="afii10076" unicode="&#x43a;" horiz-adv-x="935" 
d="M219 0h-143l200 1010h144zM479 520l340 -520h-168l-327 520l497 490h176z" />
    <glyph glyph-name="afii10077" unicode="&#x43b;" horiz-adv-x="1052" 
d="M-2 0h-64l25 121h31q85 0 160.5 88t130.5 362l88 439h610l-201 -1010h-143l176 885h-330l-71 -355q-88 -432 -216 -481t-196 -49z" />
    <glyph glyph-name="afii10078" unicode="&#x43c;" horiz-adv-x="1271" 
d="M1001 0h-143l141 729l-370 -551h-109l-158 559l-143 -737h-143l194 1010h142l190 -676l453 676h143z" />
    <glyph glyph-name="afii10079" unicode="&#x43d;" horiz-adv-x="1095" 
d="M821 0h-143l90 455h-459l-92 -455h-143l202 1010h144l-88 -430h461l86 430h143z" />
    <glyph glyph-name="afii10080" unicode="&#x43e;" horiz-adv-x="1028" 
d="M784 676q0 62 -16 103q-45 118 -180 118q-178 0 -266 -197q-53 -116 -73 -294q-5 -45 -5 -90q0 -98 55 -151q55 -52 124 -52q125 0 204 77q95 96 135 308q22 116 22 178zM600 1022q215 0 297 -178q29 -64 29 -150t-27 -220q-50 -250 -184 -378q-122 -110 -287 -108
q-220 0 -298 178q-28 63 -28 139t26 221q48 266 185 385q123 111 287 111z" />
    <glyph glyph-name="afii10081" unicode="&#x43f;" horiz-adv-x="1148" 
d="M823 0h-143l176 885h-459l-178 -885h-143l203 1010h745z" />
    <glyph glyph-name="afii10082" unicode="&#x440;" horiz-adv-x="1062" 
d="M297 324q0 -209 182 -209q202 0 279 241q59 185 59 333t-92 190q-35 16 -101 16q-235 0 -305 -389q-22 -103 -22 -182zM679 1022q145 0 214 -87q70 -87 70 -228q0 -80 -25 -207q-57 -290 -168 -402t-284 -111q-172 1 -240 140l-117 -576h-143l290 1459h142l-25 -119
q69 83 139 107t147 24z" />
    <glyph glyph-name="afii10083" unicode="&#x441;" horiz-adv-x="954" 
d="M793 129q-141 -141 -324 -141t-275 100t-92 262q0 88 15 156q47 254 182 385t332 131q106 0 174 -40t117 -110l-107 -90q-41 59 -86 86t-109 27q-130 0 -227 -98q-115 -124 -143 -367q-4 -35 -4 -87q0 -107 62 -168q62 -60 146 -60q83 -1 139 27t116 89z" />
    <glyph glyph-name="afii10084" unicode="&#x442;" horiz-adv-x="827" 
d="M885 885h-324l-178 -885h-143l178 885h-324l25 125h788z" />
    <glyph glyph-name="afii10085" unicode="&#x443;" horiz-adv-x="868" 
d="M-20 -430h-64l27 127h43q71 1 99 23q27 22 45 48q17 26 38 62l100 193l-145 987h143l105 -813l417 813h158l-672 -1252q-52 -91 -89 -123q-74 -65 -205 -65z" />
    <glyph glyph-name="afii10086" unicode="&#x444;" horiz-adv-x="1325" 
d="M1085 625q0 254 -274 270l-156 -782q158 4 254 77q125 100 154 256q22 118 22 179zM1167 861q62 -137 62 -217q1 -80 -15 -160q-29 -150 -80 -233t-141 -155q-143 -106 -364 -106l-86 -439h-144l86 441q-268 20 -329.5 156.5t-61.5 225.5t17 152q43 216 112 286t121 110
t147 69t201 29l88 438h144l-88 -440q269 -20 331 -157zM240 385q0 -254 274 -270l156 782q-157 -4 -256 -78q-121 -97 -153 -255q-21 -105 -21 -179z" />
    <glyph glyph-name="afii10087" unicode="&#x445;" horiz-adv-x="937" 
d="M553 510l233 -510h-168l-165 401l-312 -401h-176l422 524l-221 486h166l160 -379l288 379h176z" />
    <glyph glyph-name="afii10088" unicode="&#x446;" horiz-adv-x="1130" 
d="M844 125h143l-80 -401h-137l55 276h-749l200 1010h144l-176 -885h456l179 885h143z" />
    <glyph glyph-name="afii10089" unicode="&#x447;" horiz-adv-x="1044" 
d="M437 354q-128 0 -197.5 57.5t-69.5 170.5q0 28 10 90l66 338h143l-61 -318q-10 -57 -11 -82q0 -127 162 -127q127 0 250 37l98 490h144l-201 -1010h-143l78 397q-140 -43 -268 -43z" />
    <glyph glyph-name="afii10090" unicode="&#x448;" horiz-adv-x="1566" 
d="M1292 0h-1216l200 1010h144l-176 -885h393l176 885h143l-176 -885h394l176 885h143z" />
    <glyph glyph-name="afii10091" unicode="&#x449;" horiz-adv-x="1601" 
d="M1317 125h141l-80 -401h-137l55 276h-1220l200 1010h144l-176 -885h393l176 885h143l-176 -885h394l176 885h143z" />
    <glyph glyph-name="afii10092" unicode="&#x44a;" horiz-adv-x="1056" 
d="M799 374q0 115 -170 115h-221l-76 -370h225q127 0 184.5 70t57.5 185zM940 342q0 -64 -25.5 -129.5t-102 -139t-255.5 -73.5h-391l176 885h-248l27 125h389l-80 -400h236q139 0 206.5 -73.5t67.5 -194.5z" />
    <glyph glyph-name="afii10093" unicode="&#x44b;" horiz-adv-x="1351" 
d="M707 340q0 149 -170 149h-222l-73 -370h223q129 0 193 81q49 60 49 140zM850 342q0 -64 -26 -130q-53 -134 -195 -185q-72 -27 -164 -27h-391l202 1010h144l-82 -400h235q74 0 126 -21q151 -63 151 -247zM1077 0h-143l201 1010h143z" />
    <glyph glyph-name="afii10094" unicode="&#x44c;" horiz-adv-x="964" 
d="M707 374q0 115 -170 115h-222l-73 -370h223q127 0 184.5 70t57.5 185zM850 342q0 -64 -25.5 -129.5t-103 -139t-256.5 -73.5h-391l202 1010h144l-82 -400h235q138 0 207.5 -73t69.5 -195z" />
    <glyph glyph-name="afii10095" unicode="&#x44d;" horiz-adv-x="954" 
d="M852 657q0 -73 -12 -155q-39 -242 -164 -378t-337 -136t-316 143l100 98q82 -116 223 -116q212 0 273 144t73 210h-407l20 106h404q4 29 4 35v54q0 113 -66.5 174t-145.5 61t-133.5 -27.5t-113.5 -89.5l-80 92q142 150 319 150t268 -104.5t91 -260.5z" />
    <glyph glyph-name="afii10096" unicode="&#x44e;" horiz-adv-x="1419" 
d="M1176 676q0 113 -56 167t-125 54q-301 0 -330.5 -268.5t-29.5 -312.5q0 -96 55.5 -149.5t124.5 -53.5t175 47t163 338q23 117 23 178zM494 306q0 77 10 149h-195l-90 -455h-143l200 1010h144l-88 -430h196q55 229 177 331q124 111 286 111q221 0 273.5 -121t52.5 -211
t-27 -222q-52 -251 -179 -365q-127 -115 -292 -115q-217 0 -271 120.5t-54 197.5z" />
    <glyph glyph-name="afii10097" unicode="&#x44f;" horiz-adv-x="1005" 
d="M295 632.5q0 -116.5 172 -116.5h223l74 375h-223q-132 0 -189 -71t-57 -187.5zM152 654q0 157 103.5 256.5t283.5 99.5h391l-201 -1010h-143l80 397h-224l-270 -397h-162l297 420q-86 29 -120.5 94.5t-34.5 139.5z" />
    <glyph glyph-name="uni0450" unicode="&#x450;" horiz-adv-x="1036" 
d="M788 676q0 119 -58 172t-152 53t-179 -79q-84 -79 -127 -249h508q8 50 8 103zM102 336q0 260 115 457q59 101 153 165t238 64q143 0 232 -96q88 -96 88 -250q0 -71 -25 -207h-651q-12 -93 -12 -127q0 -100 51 -166t153 -66t168 30q64 30 129 89l86 -94
q-159 -147 -381 -147q-154 0 -249 89t-95 259zM590 1206l-148 310h158l119 -310h-129z" />
    <glyph glyph-name="afii10071" unicode="&#x451;" horiz-adv-x="1036" 
d="M788 676q0 119 -58 172t-152 53t-179 -79q-84 -79 -127 -249h508q8 50 8 103zM102 336q0 260 115 457q59 101 153 165t238 64q143 0 232 -96q88 -96 88 -250q0 -71 -25 -207h-651q-12 -93 -12 -127q0 -100 51 -166t153 -66t168 30q64 30 129 89l86 -94
q-159 -147 -381 -147q-154 0 -249 89t-95 259zM528 1221h-139l35 178h139zM938 1221h-139l35 178h139z" />
    <glyph glyph-name="afii10099" unicode="&#x452;" horiz-adv-x="1093" 
d="M686 1018q123 0 203 -76t80 -209q0 -49 -11 -100l-141 -703q-59 -299 -336 -299h-102l24 123h66q88 0 138 46t71 145l135 673q10 47 10 95q0 92 -52 136t-130 44q-149 0 -216 -93t-85 -186l-121 -614h-143l229 1157h-123l23 100h121l41 201h143l-41 -201h446l-20 -100
h-446l-52 -260q108 121 289 121z" />
    <glyph glyph-name="afii10100" unicode="&#x453;" horiz-adv-x="794" 
d="M627 1206h-144l242 310h164zM850 885h-455l-176 -885h-143l203 1010h593z" />
    <glyph glyph-name="afii10101" unicode="&#x454;" horiz-adv-x="954" 
d="M815 782q-80 115 -204 115t-220 -100q-78 -85 -117 -224h408l-20 -106h-410q-10 -82 -10 -131q0 -104 62.5 -163.5t147.5 -59.5t142 27.5t117 90.5l82 -102q-141 -141 -323 -141t-275 100.5t-93 261.5q0 81 15 154q47 254 182 386t332 132q104 0 172.5 -41t118.5 -111z
" />
    <glyph glyph-name="afii10102" unicode="&#x455;" horiz-adv-x="962" 
d="M299 698q0 -52 38 -78t112 -36l135 -19q135 -19 190 -77t55 -175t-108 -222t-342 -104t-369 146l107 92q99 -115 265 -115q221 1 287 133q17 36 17 87t-38 76t-103 34l-137 21q-142 21 -197 81t-55 127q0 146 94 240q114 113 316 113t323 -113l-103 -88q-93 82 -223 82
t-197 -61q-67 -60 -67 -144z" />
    <glyph glyph-name="afii10103" unicode="&#x456;" horiz-adv-x="491" 
d="M483 1296h-161l28 150h164zM219 0h-143l200 1010h144z" />
    <glyph glyph-name="afii10104" unicode="&#x457;" horiz-adv-x="491" 
d="M219 0h-143l200 1010h144zM236 1221h-140l35 178h139zM645 1221h-139l35 178h139z" />
    <glyph glyph-name="afii10105" unicode="&#x458;" horiz-adv-x="493" 
d="M483 1296h-161l28 150h164zM-125 -328q72 0 110 37t54 117l237 1184h144l-238 -1198q-53 -262 -297 -263h-104l24 123h70z" />
    <glyph glyph-name="afii10106" unicode="&#x459;" horiz-adv-x="1540" 
d="M1284 373q0 116 -170 116h-223l-74 -370h223q129 0 186.5 69t57.5 185zM1425 342q0 -64 -25.5 -129.5t-102 -139t-255.5 -73.5h-391l176 885h-346l-71 -355q-88 -432 -216 -481t-196 -49h-64l25 121h31q85 0 160.5 88t130.5 362l88 439h626l-80 -400h236
q135 0 204.5 -72.5t69.5 -195.5z" />
    <glyph glyph-name="afii10107" unicode="&#x45a;" horiz-adv-x="1566" 
d="M1311 374q0 115 -170 115h-223l-74 -370h225q127 0 184.5 70t57.5 185zM1452 342q0 -64 -25.5 -129.5t-102 -139t-255.5 -73.5h-391l96 483h-461l-96 -483h-143l202 1010h144l-82 -400h461l80 400h143l-80 -400h236q139 0 206.5 -73.5t67.5 -194.5z" />
    <glyph glyph-name="afii10108" unicode="&#x45b;" horiz-adv-x="1093" 
d="M686 1018q123 0 203 -76t80 -209q0 -49 -11 -100l-127 -633h-143l125 618q10 47 10 95q0 92 -52 136t-130 44q-149 0 -216 -93t-85 -186l-121 -614h-143l229 1157h-123l23 100h121l41 201h143l-41 -201h446l-20 -100h-446l-52 -260q108 121 289 121z" />
    <glyph glyph-name="afii10109" unicode="&#x45c;" horiz-adv-x="935" 
d="M219 0h-143l200 1010h144zM479 520l340 -520h-168l-327 520l497 490h176zM696 1206h-143l242 310h163z" />
    <glyph glyph-name="uni045D" unicode="&#x45d;" horiz-adv-x="1110" 
d="M836 0h-144l152 764l-625 -764h-143l200 1010h144l-154 -764l627 764h143zM633 1206l-148 310h158l119 -310h-129z" />
    <glyph glyph-name="afii10110" unicode="&#x45e;" horiz-adv-x="868" 
d="M-20 -430h-64l27 127h43q71 1 99 23q27 22 45 48q17 26 38 62l100 193l-145 987h143l105 -813l417 813h158l-672 -1252q-52 -91 -89 -123q-74 -65 -205 -65zM557 1180q-123 0 -191 55t-67 154v20t2 27h123q-2 -16 -2 -26v-15q0 -53 37 -85t106 -32q152 0 189 158h123
q-31 -140 -114 -198t-206 -58z" />
    <glyph glyph-name="afii10193" unicode="&#x45f;" horiz-adv-x="1095" 
d="M819 0h-303l-55 -276h-137l55 276h-305l202 1010h144l-178 -885h458l177 885h143z" />
    <glyph glyph-name="afii10146" unicode="&#x462;" horiz-adv-x="1236" 
d="M997 472q0 247 -241 247h-353l-116 -588h350q161 0 234 74t99.5 139.5t26.5 127.5zM1147 480q0 -86 -35 -177.5t-140.5 -197t-340.5 -105.5h-518l225 1128h-148l23 115h149l44 215h147l-43 -215h317l-22 -115h-318l-55 -280h344q187 0 279 -100t92 -268z" />
    <glyph glyph-name="afii10194" unicode="&#x463;" horiz-adv-x="983" 
d="M725 373q0 116 -170 116h-221l-74 -370h223q127 0 184.5 69t57.5 185zM592 610q137 0 206.5 -72.5t69.5 -166.5q0 -175 -102 -273t-283 -98h-391l160 799h-119l19 96h120l23 115h143l-22 -115h250l-19 -96h-252l-39 -189h236z" />
    <glyph glyph-name="afii10147" unicode="&#x472;" horiz-adv-x="1263" 
d="M1057 1061q0 137 -77 208q-77 72 -175 72q-177 0 -295 -122q-72 -78 -120 -256q-17 -68 -38 -162h670q35 186 35 260zM291 399q0 -140 77 -211t175 -71q174 0 293 123q50 54 82 141q33 88 77 293h-669q-35 -199 -35 -275zM1206 1110q0 -170 -57 -427t-81 -324
q-85 -238 -299 -329q-99 -42 -205 -42q-198 0 -310 108q-113 108 -113 285q0 125 36 298t65 302t91 233q157 256 468 256q88 0 163 -27q150 -56 212 -203q30 -72 30 -130z" />
    <glyph glyph-name="afii10195" unicode="&#x473;" horiz-adv-x="1028" 
d="M784 688q0 103 -56 156t-125 53q-178 0 -240 -115.5t-84 -208.5h497q8 66 8 115zM244 332q0 -114 55.5 -166.5t124.5 -52.5q255 0 332 356h-498q-14 -76 -14 -137zM926 712q0 -177 -49 -328.5t-90.5 -205t-89.5 -96.5q-105 -94 -269 -94q-220 0 -273 120.5t-53 205.5
t27 222q73 371 232 428.5t229 57.5t128 -17.5t104 -57.5t75 -103.5t29 -131.5z" />
    <glyph glyph-name="afii10148" unicode="&#x474;" horiz-adv-x="1062" 
d="M1305 1456h114l-26 -129h-70q-152 0 -229 -153l-596 -1174h-123l-170 1458h149l131 -1192l476 959q115 231 344 231z" />
    <glyph glyph-name="afii10196" unicode="&#x475;" horiz-adv-x="870" 
d="M989 1010h64l-27 -127h-35q-65 0 -101.5 -25t-80.5 -108l-408 -750h-129l-149 1010h145l103 -813l323 626q42 80 84 117q78 70 211 70z" />
    <glyph glyph-name="afii10050" unicode="&#x490;" horiz-adv-x="1079" 
d="M1206 1329h-690l-268 -1329h-148l293 1458h692l68 338h145z" />
    <glyph glyph-name="afii10098" unicode="&#x491;" horiz-adv-x="798" 
d="M850 885h-455l-176 -885h-143l203 1010h456l60 293h139z" />
    <glyph glyph-name="uni0492" unicode="&#x492;" horiz-adv-x="1105" 
d="M1233 1329h-690l-109 -536h316l-23 -115h-315l-138 -678h-147l135 678h-149l22 115h150l135 665h837z" />
    <glyph glyph-name="uni0493" unicode="&#x493;" horiz-adv-x="835" 
d="M891 885h-455l-57 -285h252l-19 -96h-252l-100 -504h-143l100 504h-119l19 96h121l81 410h594z" />
    <glyph glyph-name="uni0496" unicode="&#x496;" horiz-adv-x="1736" 
d="M846 0h-148l293 1458h148zM109 0h-209l780 770l-424 688h182l412 -698zM1675 1458h197l-701 -700l379 -627h107l-94 -469h-146l64 338h-43l-439 758z" />
    <glyph glyph-name="uni0497" unicode="&#x497;" horiz-adv-x="1339" 
d="M637 0h-143l200 1010h144zM92 0h-186l538 537l-303 473h160l295 -492zM1217 1010h178l-498 -490l246 -395h102l-80 -401h-137l55 276h-34l-308 520z" />
    <glyph glyph-name="uni049A" unicode="&#x49a;" horiz-adv-x="1150" 
d="M248 0h-148l293 1458h148zM1090 1458h194l-711 -700l390 -627h108l-94 -469h-146l66 338h-45l-451 760z" />
    <glyph glyph-name="uni049B" unicode="&#x49b;" horiz-adv-x="933" 
d="M219 0h-143l200 1010h144zM479 520l258 -395h107l-80 -401h-137l55 276h-31l-327 520l497 490h176z" />
    <glyph glyph-name="uni049C" unicode="&#x49c;" horiz-adv-x="1292" 
d="M991 0l-364 696h-58l-61 -305h-117l62 305h-66l-139 -696h-148l293 1458h148l-129 -637h67l64 305h119l-66 -305h53l580 637h194l-657 -700l418 -758h-193z" />
    <glyph glyph-name="uni049D" unicode="&#x49d;" horiz-adv-x="1069" 
d="M786 0l-243 459h-58l-49 -260h-112l51 260h-66l-92 -459h-141l200 1010h142l-86 -437h65l52 261h110l-49 -261h49l397 437h174l-464 -490l288 -520h-168z" />
    <glyph glyph-name="uni04A2" unicode="&#x4a2;" horiz-adv-x="1351" 
d="M1079 131h74l-94 -469h-146l66 338h-74l135 672h-655l-137 -672h-148l293 1458h148l-129 -657h655l131 657h148z" />
    <glyph glyph-name="uni04A3" unicode="&#x4a3;" horiz-adv-x="1095" 
d="M846 125h65l-80 -401h-137l56 276h-72l90 455h-459l-92 -455h-143l202 1010h144l-88 -430h461l86 430h143z" />
    <glyph glyph-name="uni04AE" unicode="&#x4ae;" horiz-adv-x="1003" 
d="M600 596l-121 -596h-149l123 606l-248 852h155l193 -704l459 704h166z" />
    <glyph glyph-name="uni04AF" unicode="&#x4af;" horiz-adv-x="868" 
d="M416 23l-92 -453h-146l90 453l-145 987h143l105 -813l417 813h158z" />
    <glyph glyph-name="uni04B0" unicode="&#x4b0;" horiz-adv-x="1003" 
d="M606 606h225l-22 -114h-231l-99 -492h-149l98 492h-233l22 114h236l-248 852h155l193 -704l459 704h166z" />
    <glyph glyph-name="uni04B1" unicode="&#x4b1;" horiz-adv-x="868" 
d="M416 23h180l-18 -97h-183l-71 -356h-146l70 356h-185l19 97h186l-145 987h143l105 -813l417 813h158z" />
    <glyph glyph-name="uni04B2" unicode="&#x4b2;" horiz-adv-x="1077" 
d="M666 739l237 -608h78l-94 -469h-146l66 338h-19l-229 618l-457 -618h-174l572 760l-267 698h166l207 -581l420 581h176z" />
    <glyph glyph-name="uni04B3" unicode="&#x4b3;" horiz-adv-x="937" 
d="M553 510l176 -385h82l-80 -401h-137l55 276h-31l-165 401l-312 -401h-176l422 524l-221 486h166l160 -379l288 379h176z" />
    <glyph glyph-name="uni04B6" unicode="&#x4b6;" horiz-adv-x="1267" 
d="M587 541q-170 0 -265 73.5t-95 219.5q0 49 11 104l102 520h149l-100 -497q-10 -58 -10 -95q0 -194 233 -194q181 0 351 49l147 737h150l-267 -1327h72l-94 -469h-146l66 338h-74l119 594q-179 -53 -349 -53z" />
    <glyph glyph-name="uni04B7" unicode="&#x4b7;" horiz-adv-x="1046" 
d="M437 354q-128 0 -197.5 57.5t-69.5 170.5q0 28 10 90l66 338h143l-61 -318q-10 -57 -11 -82q0 -127 162 -127q127 0 250 37l98 490h144l-176 -885h65l-80 -401h-137l55 276h-71l78 397q-140 -43 -268 -43z" />
    <glyph glyph-name="uni04B8" unicode="&#x4b8;" horiz-adv-x="1271" 
d="M227 834q0 47 11 104l102 520h149l-100 -497q-10 -58 -10 -103q0 -172 203 -182l63 297h127l-63 -299q127 12 260 47l147 737h148l-293 -1458h-148l119 594q-128 -39 -262 -47l-64 -309h-122l61 303q-150 4 -239 77.5t-89 215.5z" />
    <glyph glyph-name="uni04B9" unicode="&#x4b9;" horiz-adv-x="1060" 
d="M170 582q0 28 10 90l66 338h143l-63 -318q-9 -61 -9 -82q0 -117 138 -125l49 248h112l-49 -248q75 6 176 33l99 492h143l-203 -1010h-141l78 397q-76 -26 -178 -37l-52 -260h-110l49 254q-119 2 -188.5 58.5t-69.5 169.5z" />
    <glyph glyph-name="uni04BA" unicode="&#x4ba;" horiz-adv-x="1267" 
d="M775 918q167 0 262.5 -74t95.5 -219q0 -36 -11 -105l-102 -520h-150l101 498q10 58 10 94q0 194 -233 194q-181 0 -351 -49l-147 -737h-150l293 1458h150l-119 -594q184 54 351 54z" />
    <glyph glyph-name="uni04BB" unicode="&#x4bb;" horiz-adv-x="1044" 
d="M608 655q127 0 196.5 -57t69.5 -170q0 -30 -10 -90l-65 -338h-144l62 317q10 57 10 82q0 127 -162 127q-132 0 -250 -37l-98 -489h-143l200 1010h144l-78 -398q141 43 268 43z" />
    <glyph glyph-name="uni04C0" unicode="&#x4c0;" horiz-adv-x="550" 
d="M248 0h-148l293 1458h148z" />
    <glyph glyph-name="uni04CF" unicode="&#x4cf;" horiz-adv-x="497" 
d="M219 0h-143l293 1458h143z" />
    <glyph glyph-name="uni04D8" unicode="&#x4d8;" horiz-adv-x="1263" 
d="M291 402q1 -141 81 -213t178 -72q177 0 294 123q48 51 81 138q34 86 70 257h-676q-28 -154 -28 -233zM1065 1055q0 141 -78 213q-78 73 -188 73q-172 0 -289 -122q-56 -60 -96 -179h-154q49 162 146 269q153 161 401 161q183 0 295 -108t112 -273q0 -166 -95 -573
q-45 -184 -87 -253q-167 -275 -477 -275q-183 0 -298 107q-116 107 -116 286q0 111 45 336l9 45h825q45 213 45 293z" />
    <glyph glyph-name="afii10846" unicode="&#x4d9;" horiz-adv-x="1036" 
d="M248 334q0 -119 58 -172t152 -53q94 1 178 79q83 78 128 248h-508q-8 -50 -8 -102zM590 1022q149 0 246 -89q98 -89 98 -259q0 -262 -115 -457q-59 -100 -153 -165q-94 -64 -239 -64t-231 96q-87 96 -87 250q0 63 24 207h651q13 101 13 127q-1 98 -53 165t-154 67
t-166 -31q-64 -30 -129 -89l-86 94q160 148 381 148z" />
    <glyph glyph-name="uni04E2" unicode="&#x4e2;" horiz-adv-x="1425" 
d="M1124 0h-147l235 1167l-974 -1167h-138l293 1458h148l-234 -1169l973 1169h137zM1257 1743l-22 -109h-588l23 109h587z" />
    <glyph glyph-name="uni04E3" unicode="&#x4e3;" horiz-adv-x="1110" 
d="M836 0h-144l152 764l-625 -764h-143l200 1010h144l-154 -764l627 764h143zM999 1253h-585l22 109h586z" />
    <glyph glyph-name="uni04E8" unicode="&#x4e8;" horiz-adv-x="1263" 
d="M1057 1061q0 139 -77 209.5t-175 70.5q-177 0 -295 -122q-51 -55 -82.5 -137t-75.5 -281h670q35 186 35 260zM291 399q0 -141 78 -211.5t175 -70.5q173 0 292 123q50 54 85.5 149.5t73.5 284.5h-669q-35 -199 -35 -275zM1206 1110q0 -58 -2 -86.5t-7 -68.5t-15 -94.5
t-30 -154.5q-49 -251 -109.5 -418.5t-216.5 -233.5t-262 -66q-198 0 -310.5 108.5t-112.5 284.5q0 125 36 298q69 331 109 439.5t120 190.5q149 161 395 161q179 0 261.5 -78.5t113 -151t30.5 -130.5z" />
    <glyph glyph-name="uni04E9" unicode="&#x4e9;" horiz-adv-x="1028" 
d="M784 688q0 49 -16 91q-45 118 -180 118q-164 0 -257 -176q-30 -55 -52 -148h497q8 66 8 115zM244 332q0 -167 122 -207q36 -12 82 -12q100 0 183 84q84 84 125 272h-498q-14 -76 -14 -137zM600 1022q215 0 297 -178q29 -64 29 -152q0 -157 -48 -306t-91 -205
q-42 -56 -90 -99q-107 -96 -269 -94q-220 0 -298 178q-28 63 -28 148t27 222q74 371 320 460q72 26 151 26z" />
    <glyph glyph-name="uni04EE" unicode="&#x4ee;" horiz-adv-x="1136" 
d="M186 0h-114l26 129h80q78 0 127 37t103 117l88 137l-291 1038h153l240 -891l555 891h166l-789 -1227q-118 -185 -239 -218q-47 -13 -105 -13zM1110 1743l-23 -109h-587l22 109h588z" />
    <glyph glyph-name="uni04EF" unicode="&#x4ef;" horiz-adv-x="868" 
d="M-20 -430h-64l27 127h43q71 1 99 23q27 22 45 48q17 26 38 62l100 193l-145 987h143l105 -813l417 813h158l-672 -1252q-52 -91 -89 -123q-74 -65 -205 -65zM866 1253h-585l22 109h586z" />
    <glyph glyph-name="Wgrave" unicode="&#x1e80;" horiz-adv-x="1669" 
d="M1190 0h-139l-78 1174l-547 -1174h-137l-68 1458h154l41 -1182l540 1182h134l75 -1182l498 1182h160zM961 1587l-146 309h158l117 -309h-129z" />
    <glyph glyph-name="wgrave" unicode="&#x1e81;" horiz-adv-x="1409" 
d="M993 0h-131l-98 782l-404 -782h-131l-104 1010h145l64 -807l409 807h117l96 -807l375 807h152zM776 1206l-147 310h157l119 -310h-129z" />
    <glyph glyph-name="Wacute" unicode="&#x1e82;" horiz-adv-x="1669" 
d="M1190 0h-139l-78 1174l-547 -1174h-137l-68 1458h154l41 -1182l540 1182h134l75 -1182l498 1182h160zM1120 1587h-141l240 309h163z" />
    <glyph glyph-name="wacute" unicode="&#x1e83;" horiz-adv-x="1409" 
d="M993 0h-131l-98 782l-404 -782h-131l-104 1010h145l64 -807l409 807h117l96 -807l375 807h152zM909 1206h-143l242 310h163z" />
    <glyph glyph-name="Wdieresis" unicode="&#x1e84;" horiz-adv-x="1669" 
d="M1190 0h-139l-78 1174l-547 -1174h-137l-68 1458h154l41 -1182l540 1182h134l75 -1182l498 1182h160zM924 1604h-140l35 178h139zM1333 1604h-139l35 178h139z" />
    <glyph glyph-name="wdieresis" unicode="&#x1e85;" horiz-adv-x="1409" 
d="M993 0h-131l-98 782l-404 -782h-131l-104 1010h145l64 -807l409 807h117l96 -807l375 807h152zM717 1221h-139l34 178h140zM1126 1221h-139l35 178h139z" />
    <glyph glyph-name="uni1E8A" unicode="&#x1e8a;" horiz-adv-x="1077" 
d="M666 739l288 -739h-166l-229 618l-457 -618h-174l572 760l-267 698h166l207 -581l420 581h176zM829 1622h-147l31 152h147z" />
    <glyph glyph-name="uni1E8B" unicode="&#x1e8b;" horiz-adv-x="937" 
d="M553 510l233 -510h-168l-165 401l-312 -401h-176l422 524l-221 486h166l160 -379l288 379h176zM688 1239h-147l30 152h148z" />
    <glyph glyph-name="Ygrave" unicode="&#x1ef2;" horiz-adv-x="1013" 
d="M600 596l-121 -596h-149l123 606l-248 852h155l193 -704l459 704h166zM641 1587l-145 309h157l117 -309h-129z" />
    <glyph glyph-name="ygrave" unicode="&#x1ef3;" horiz-adv-x="868" 
d="M-20 -430h-64l27 127h43q71 1 99 23q27 22 45 48q17 26 38 62l100 193l-145 987h143l105 -813l417 813h158l-672 -1252q-52 -91 -89 -123q-74 -65 -205 -65zM494 1206l-148 310h158l119 -310h-129z" />
    <glyph glyph-name="uni2007" unicode="&#x2007;" horiz-adv-x="1015" 
 />
    <glyph glyph-name="uni2008" unicode="&#x2008;" horiz-adv-x="526" 
 />
    <glyph glyph-name="uni200B" unicode="&#x200b;" horiz-adv-x="0" 
 />
    <glyph glyph-name="endash" unicode="&#x2013;" horiz-adv-x="1015" 
d="M911 487h-813l27 131h813z" />
    <glyph glyph-name="emdash" unicode="&#x2014;" horiz-adv-x="1781" 
d="M1634 487h-1491l27 131h1489z" />
    <glyph glyph-name="afii00208" unicode="&#x2015;" horiz-adv-x="1781" 
d="M1634 487h-1491l27 131h1489z" />
    <glyph glyph-name="quoteleft" unicode="&#x2018;" horiz-adv-x="512" 
d="M500 1284h-172l34 174l205 164z" />
    <glyph glyph-name="quoteright" unicode="&#x2019;" horiz-adv-x="512" 
d="M500 1284l-205 -164l67 338h173z" />
    <glyph glyph-name="quotesinglbase" unicode="&#x201a;" horiz-adv-x="512" 
d="M244 0l-207 -164l67 338h175z" />
    <glyph glyph-name="quotedblleft" unicode="&#x201c;" horiz-adv-x="845" 
d="M831 1284h-169l34 174l205 164zM500 1284h-172l34 174l205 164z" />
    <glyph glyph-name="quotedblright" unicode="&#x201d;" horiz-adv-x="845" 
d="M831 1284l-202 -164l67 338h172zM500 1284l-205 -164l67 338h173z" />
    <glyph glyph-name="quotedblbase" unicode="&#x201e;" horiz-adv-x="845" 
d="M575 0l-204 -164l67 338h174zM244 0l-207 -164l67 338h175z" />
    <glyph glyph-name="dagger" unicode="&#x2020;" horiz-adv-x="1175" 
d="M1114 911h-375l-182 -911h-143l182 911h-373l27 127h371l84 420h143l-84 -420h375z" />
    <glyph glyph-name="daggerdbl" unicode="&#x2021;" horiz-adv-x="1175" 
d="M1114 911h-375l-164 -809h379l-24 -127h-379l-84 -424h-143l86 424h-369l25 127h368l162 809h-373l27 127h371l84 420h143l-84 -420h375z" />
    <glyph glyph-name="bullet" unicode="&#x2022;" horiz-adv-x="1034" 
d="M870 684q0 -70 -23.5 -128t-65.5 -100t-100 -65.5t-128 -23.5t-128 23.5t-100 65.5t-65.5 100t-23.5 128t23.5 128t65.5 100t100 65.5t128 23.5t128 -23.5t100 -65.5t65.5 -100t23.5 -128z" />
    <glyph glyph-name="ellipsis" unicode="&#x2026;" horiz-adv-x="1476" 
d="M729 0h-180l37 188h180zM252 0h-182l39 188h180zM1208 0h-184l39 188h180z" />
    <glyph glyph-name="perthousand" unicode="&#x2030;" horiz-adv-x="2312" 
d="M1714 211q0 -123 125 -123q147 0 184 176l39 195q9 36 9 71q0 123 -125 123q-84 0 -127 -50t-58 -126l-39 -194q-8 -32 -8 -72zM2145 678q38 -76 38 -132t-8 -87l-39 -195q-58 -276 -307 -276q-153 0 -190 75.5t-37 130.5t8 89l39 194q58 277 307 277q151 0 189 -76z
M330 930q0 -123 125 -123q147 0 184 176l39 195q8 32 8 71q0 123 -125 123q-84 0 -127 -50t-57 -126l-39 -195q-8 -32 -8 -71zM761 1397.5q38 -75.5 38 -131.5t-8 -88l-39 -195q-27 -129 -99.5 -202.5t-216.5 -73.5t-181.5 75.5t-37.5 131.5t8 87l39 195q58 277 307 277
q152 0 190 -75.5zM457 0h-123l938 1458h123zM1040 211q0 -123 125 -123q146 0 185 176l39 195q8 32 8 71q0 123 -125 123q-84 0 -127 -50t-58 -126l-38 -194q-9 -36 -9 -72zM1471 678q38 -76 38 -132t-8 -87l-39 -195q-58 -276 -307 -276q-152 0 -189.5 75.5t-37.5 130.5
t8 89l39 194q58 277 307 277q151 0 189 -76z" />
    <glyph glyph-name="guilsinglleft" unicode="&#x2039;" horiz-adv-x="638" 
d="M545 784l-283 -247l187 -248l-33 -172l-330 432l498 430z" />
    <glyph glyph-name="guilsinglright" unicode="&#x203a;" horiz-adv-x="638" 
d="M76 117l39 194l282 248l-188 248l35 172l327 -432z" />
    <glyph glyph-name="fraction" unicode="&#x2044;" horiz-adv-x="366" 
d="M-180 0h-123l940 1458h123z" />
    <glyph glyph-name="uni2070" unicode="&#x2070;" horiz-adv-x="622" 
d="M582 1273q0 41 -31 64t-74 23t-90 -32t-63 -118l-74 -374q-6 -25 -6 -67t29.5 -64.5t73.5 -22.5t91 31.5t64 117.5l73 377q7 24 7 65zM696 1266q0 -38 -6 -58l-76 -379q-25 -135 -104 -194.5t-171 -59.5q-91 0 -149.5 51.5t-58.5 149.5q0 29 6 58l74 378
q25 133 104 193.5t171 60.5t151 -51t59 -149z" />
    <glyph glyph-name="uni2074" unicode="&#x2074;" horiz-adv-x="622" 
d="M629 719h-94l-27 -135h-111l29 135h-340l20 102l416 637h127l-420 -637h215l43 215h111l-43 -215h92z" />
    <glyph glyph-name="uni2075" unicode="&#x2075;" horiz-adv-x="622" 
d="M460 1163q93 0 137 -55.5t44 -119.5t-11 -122q-29 -155 -97 -223q-69 -68 -183 -68t-165.5 56.5t-51.5 136.5v14q0 13 2 25h109v-27q0 -43 23.5 -72.5t70.5 -29.5q82 0 121.5 51t54.5 124q14 73 14 113t-20.5 70.5t-79.5 30.5q-99 0 -145 -82h-99l95 473h444l-21 -102
h-342l-45 -242q52 49 145 49z" />
    <glyph glyph-name="uni2076" unicode="&#x2076;" horiz-adv-x="622" 
d="M512 874q0 47 -31 84t-79 37q-82 0 -121 -57t-39 -122q0 -64 29.5 -101t76.5 -37t76 15.5t48.5 42t29.5 59t10 79.5zM428 1087q92 0 144.5 -61.5t52.5 -141.5q0 -145 -78.5 -227t-190.5 -82t-169.5 67t-57.5 158t35 149.5t59 97.5l275 411h129l-258 -381q40 10 59 10z
" />
    <glyph glyph-name="uni2077" unicode="&#x2077;" horiz-adv-x="622" 
d="M737 1354l-426 -770h-125l426 770h-268l-27 -144h-110l49 248h500z" />
    <glyph glyph-name="uni2078" unicode="&#x2078;" horiz-adv-x="622" 
d="M586 1260q0 40 -29 72t-74 32q-78 0 -121 -52t-43 -109q0 -58 28 -90t73 -32t74.5 14.5t49 39t31 55t11.5 70.5zM229 814q1 -136 131 -136q66 0 113 52t47 118q0 138 -132 139q-67 0 -113 -53.5t-46 -119.5zM276 1042q-69 59 -69 162.5t77 182.5t184 79t168.5 -56.5
t61.5 -144.5t-40 -148t-103 -91q80 -57 80 -171t-78 -197t-215 -83q-95 0 -161 55.5t-66 164.5q0 174 161 247z" />
    <glyph glyph-name="uni2079" unicode="&#x2079;" horiz-adv-x="622" 
d="M313 1188q1 -137 129 -137q68 0 105 56.5t37 118.5t-30 99t-79 37q-84 0 -123 -54.5t-39 -119.5zM395 954q-92 0 -143 61.5t-51 142.5q0 142 74.5 225t189.5 83t173 -67t58 -164t-96 -240l-272 -411h-129l258 383q-16 -4 -28.5 -8.5t-33.5 -4.5z" />
    <glyph glyph-name="uni2080" unicode="&#x2080;" horiz-adv-x="622" 
d="M403 383q0 41 -30.5 63.5t-73.5 22.5t-90 -31.5t-64 -118.5l-73 -374q-6 -25 -6 -67t29.5 -64.5t73.5 -22.5t91 32t64 118l73 376q6 25 6 66zM518 375q0 -38 -6 -58l-76 -378q-25 -132 -103 -193t-171 -61q-92 0 -150.5 51t-58.5 149q0 29 6 58l74 379q25 133 103.5 193
t170.5 60t151.5 -51t59.5 -149z" />
    <glyph glyph-name="uni2081" unicode="&#x2081;" horiz-adv-x="622" 
d="M246 -307h-111l148 739l-195 -145l27 139l194 141h113z" />
    <glyph glyph-name="uni2082" unicode="&#x2082;" horiz-adv-x="622" 
d="M299 473q-125 0 -154 -137h-112q24 156 113.5 197.5t180.5 41.5t143 -59t52 -141t-42 -145.5t-87 -108.5l-321 -326h344l-21 -102h-483l20 102l385 395q89 89 89 175q0 108 -107 108z" />
    <glyph glyph-name="uni2083" unicode="&#x2083;" horiz-adv-x="622" 
d="M297 575q96 0 153.5 -56t57.5 -142q0 -181 -146 -238q43 -27 63.5 -65t20.5 -100q0 -129 -76.5 -209t-204.5 -80t-182.5 59.5t-54.5 132.5v19q0 20 2 30h115q-17 -139 123 -139q63 0 114.5 45t51.5 119q0 73 -25.5 107t-95.5 34h-18l20 98h14q85 0 125.5 48.5t40.5 117.5
t-31.5 94t-72.5 25q-125 0 -160 -133h-113q53 233 279 233z" />
    <glyph glyph-name="uni2084" unicode="&#x2084;" horiz-adv-x="622" 
d="M451 -172h-95l-26 -135h-111l29 135h-340l20 102l416 637h127l-420 -637h215l43 215h111l-43 -215h92z" />
    <glyph glyph-name="uni2085" unicode="&#x2085;" horiz-adv-x="622" 
d="M284 272q93 0 137 -56t44 -120t-11 -121q-30 -155 -97 -222q-69 -68 -183 -68t-165.5 56t-51.5 136v13q0 14 2 26h109v-27q0 -43 23.5 -72.5t70.5 -29.5q82 0 122 51.5t54 123.5q14 73 14 113q0 101 -99 101t-147 -82h-98l94 473h445l-21 -102h-342l-45 -242
q52 49 145 49z" />
    <glyph glyph-name="uni2086" unicode="&#x2086;" horiz-adv-x="622" 
d="M334 -17q0 47 -31 84t-79 37q-82 0 -121.5 -58t-39.5 -121q0 -64 30 -101t77 -37t75.5 15.5t48 42t30 59t10.5 79.5zM250 197q92 0 144 -62.5t52 -142.5q0 -146 -77.5 -226.5t-189.5 -80.5t-170 65.5t-58 156.5t34.5 150.5t59.5 98.5l274 411h130l-259 -381q44 11 60 11z
" />
    <glyph glyph-name="uni2087" unicode="&#x2087;" horiz-adv-x="622" 
d="M561 463l-426 -770h-125l426 770h-268l-27 -144h-110l49 248h500z" />
    <glyph glyph-name="uni2088" unicode="&#x2088;" horiz-adv-x="622" 
d="M408 369q0 40 -29 72t-74 32q-78 0 -121 -52t-43 -109q0 -58 28 -90t73 -32t74.5 14.5t49 39t31 55t11.5 70.5zM51 -76q1 -136 131 -137q66 0 113 52.5t47 118.5q0 138 -132 138q-66 0 -112.5 -53t-46.5 -119zM98 152q-69 59 -69 162t77 182t184 79t168.5 -56.5
t61.5 -144.5t-40 -148t-103 -91q80 -57 80 -170t-77 -196.5t-216 -83.5q-96 0 -161.5 54.5t-65.5 164.5q0 174 161 248z" />
    <glyph glyph-name="uni2089" unicode="&#x2089;" horiz-adv-x="622" 
d="M135 297q1 -137 129 -137q68 0 105 56t37 118t-30 99.5t-79 37.5q-85 0 -123.5 -54.5t-38.5 -119.5zM217 63q-92 0 -143 61.5t-51 142.5q0 144 74.5 226t190.5 82t173 -67.5t57 -163.5q0 -97 -96 -240l-272 -411h-130l259 383q-16 -4 -28.5 -8.5t-33.5 -4.5z" />
    <glyph glyph-name="Euro" unicode="&#x20ac;" horiz-adv-x="1316" 
d="M207 365q0 78 16 174h-129l19 96h127l39 201h-127l18 96h129q58 261 176 379q159 159 374 159t323 -118t108 -310h-150q-2 135 -71.5 217t-217.5 82t-261 -122q-45 -47 -75 -111t-56 -176h425l-18 -96h-428l-41 -201h430l-18 -96h-426q-15 -86 -15 -151q0 -124 81 -197.5
t210 -73.5t227 83.5t146 215.5h152q-63 -205 -209 -316.5t-333 -111.5t-272.5 75.5t-119 149.5t-33.5 152z" />
    <glyph glyph-name="uni20B4" unicode="&#x20b4;" horiz-adv-x="1292" 
d="M614 -12q-198 0 -322 107.5t-124 264.5q0 102 37 181h-111l19 94h159q95 88 301 147l197 54h-618l18 94h834q86 62 86 170t-73 175.5t-197 67.5t-207 -34.5t-169 -110.5l-88 100q108 91 207.5 131.5t224.5 40.5q222 0 335.5 -96t113.5 -231q0 -136 -45 -213h92l-18 -94
h-156q-85 -67 -260 -113l-225 -61q-25 -6 -46.5 -13.5t-41.5 -13.5h690l-19 -94h-833q-57 -59 -57 -167t85 -182.5t263 -74.5q100 0 191 39t190 131l92 -101q-171 -160 -301 -179t-224 -19z" />
    <glyph glyph-name="afii61352" unicode="&#x2116;" horiz-adv-x="1787" 
d="M958 0h-131l-393 1182l-237 -1182h-140l293 1458h133l391 -1182l238 1182h141zM1724 553h-512l23 104h512zM1743 1234q0 66 -39 97t-100 31t-104 -50t-66 -162t-23 -176t39 -96t84 -32q81 0 119 51q46 54 68 162q22 109 22 175zM1855 1252q0 -150 -40.5 -269t-88.5 -164
q-82 -76 -213 -76t-173 80t-42 137t16 149q16 91 41 164t73 117q84 76 215 76q130 0 171 -81t41 -133z" />
    <glyph glyph-name="trademark" unicode="&#x2122;" horiz-adv-x="1638" 
d="M813 1354h-227l-156 -770h-113l154 770h-233l22 104h574zM1542 584h-115l127 635l-276 -412h-111l-114 420l-131 -643h-113l172 874h113l147 -530l358 530h117z" />
    <glyph glyph-name="Omega" unicode="&#x2126;" horiz-adv-x="1263" 
d="M143 397q0 62 17.5 160.5t35.5 196.5q41 228 83.5 349.5t123.5 201.5q167 165 400 165q174 0 289.5 -108t115.5 -285q0 -71 -37 -268q-62 -328 -97 -427t-111 -185q-32 -36 -76 -66h166l-25 -131h-387l25 123q85 26 174 115q58 62 90 157t62 252q30 156 39 211t17.5 106
t8.5 112q0 120 -75.5 191.5t-180.5 71.5q-172 0 -291 -122q-83 -83 -152 -384.5t-69 -423.5q0 -229 166 -286l-25 -123h-371l27 131h164q-107 99 -107 266z" />
    <glyph glyph-name="uni2150" unicode="&#x2150;" horiz-adv-x="1611" 
d="M1612 770l-426 -770h-125l426 770h-268l-27 -143h-111l49 247h500zM442 0h-123l941 1458h122zM426 584h-111l148 739l-195 -145l27 139l194 141h113z" />
    <glyph glyph-name="uni2151" unicode="&#x2151;" horiz-adv-x="1611" 
d="M1456 642q0 62 -29 99t-79 37q-85 0 -123.5 -53.5t-38.5 -119.5q0 -138 117 -138q80 0 116.5 56.5t36.5 118.5zM1268 371q-92 0 -143.5 61.5t-51.5 141.5q0 142 75 225.5t189 83.5q170 0 201 -92.5t31 -144.5q0 -93 -96 -234l-273 -412h-129l258 383q-48 -12 -61 -12z
M442 0h-123l941 1458h122zM426 584h-111l148 739l-195 -145l27 139l194 141h113z" />
    <glyph glyph-name="uni2152" unicode="&#x2152;" horiz-adv-x="2234" 
d="M2077 690q0 41 -31 63.5t-74 22.5t-90 -31.5t-63 -117.5l-74 -375q-6 -24 -6 -66t29.5 -65t73.5 -23t91 32t64 118l74 377q6 24 6 65zM2191 682q0 -39 -6 -57l-76 -379q-25 -134 -103.5 -194t-170.5 -60t-150.5 51t-58.5 150q0 29 6 57l74 379q25 134 104.5 194t171.5 60
q91 0 150 -51.5t59 -149.5zM1298 0h-110l147 739l-194 -145l26 139l195 141h113zM442 0h-123l941 1458h122zM426 584h-111l148 739l-195 -145l27 139l194 141h113z" />
    <glyph glyph-name="onethird" unicode="&#x2153;" horiz-adv-x="1611" 
d="M1559 684q0 -181 -146 -238q43 -27 63.5 -64.5t20.5 -99.5q0 -127 -76 -208.5t-203 -81.5t-183 58.5t-56 133.5v20q0 19 2 29h115q-17 -139 123 -139q62 0 113.5 45t51.5 119q0 73 -25.5 107t-94.5 34h-19l21 99h14q86 0 126 48t40 118q0 69 -32 93.5t-73 24.5
q-126 0 -159 -133h-113q53 234 279 234q96 0 153.5 -56.5t57.5 -142.5zM442 0h-123l941 1458h122zM426 584h-111l148 739l-195 -145l27 139l194 141h113z" />
    <glyph glyph-name="twothirds" unicode="&#x2154;" horiz-adv-x="1611" 
d="M1559 684q0 -181 -146 -238q43 -27 63.5 -64.5t20.5 -99.5q0 -127 -76 -208.5t-203 -81.5t-183 58.5t-56 133.5v20q0 19 2 29h115q-17 -139 123 -139q62 0 113.5 45t51.5 119q0 73 -25.5 107t-94.5 34h-19l21 99h14q86 0 126 48t40 118q0 69 -32 93.5t-73 24.5
q-126 0 -159 -133h-113q53 234 279 234q96 0 153.5 -56.5t57.5 -142.5zM442 0h-123l941 1458h122zM584 1255q0 109 -105 109q-132 0 -155 -137h-113q24 156 113.5 197.5t180.5 41.5t143 -59t52 -141t-42 -145.5t-87 -108.5l-321 -326h344l-21 -102h-483l21 102l385 395
q88 88 88 174z" />
    <glyph glyph-name="uni2155" unicode="&#x2155;" horiz-adv-x="1611" 
d="M1471.5 523.5q44.5 -56.5 44.5 -117.5t-12 -121q-31 -160 -98 -226q-68 -67 -182 -67t-165 56t-51 136v14q0 13 2 25h108v-26q0 -43 23 -73t71 -30q83 0 121 49.5t54 123.5q16 75 16 115q0 101 -99 101t-147 -82h-98l94 473h444l-20 -102h-342l-45 -242q53 50 145 50
t136.5 -56.5zM442 0h-123l941 1458h122zM426 584h-111l148 739l-195 -145l27 139l194 141h113z" />
    <glyph glyph-name="uni2156" unicode="&#x2156;" horiz-adv-x="1611" 
d="M1471.5 523.5q44.5 -56.5 44.5 -117.5t-12 -121q-31 -160 -98 -226q-68 -67 -182 -67t-165 56t-51 136v14q0 13 2 25h108v-26q0 -43 23 -73t71 -30q83 0 121 49.5t54 123.5q16 75 16 115q0 101 -99 101t-147 -82h-98l94 473h444l-20 -102h-342l-45 -242q53 50 145 50
t136.5 -56.5zM442 0h-123l941 1458h122zM584 1255q0 109 -105 109q-132 0 -155 -137h-113q24 156 113.5 197.5t180.5 41.5t143 -59t52 -141t-42 -145.5t-87 -108.5l-321 -326h344l-21 -102h-483l21 102l385 395q88 88 88 174z" />
    <glyph glyph-name="uni2157" unicode="&#x2157;" horiz-adv-x="1611" 
d="M1471.5 523.5q44.5 -56.5 44.5 -117.5t-12 -121q-31 -160 -98 -226q-68 -67 -182 -67t-165 56t-51 136v14q0 13 2 25h108v-26q0 -43 23 -73t71 -30q83 0 121 49.5t54 123.5q16 75 16 115q0 101 -99 101t-147 -82h-98l94 473h444l-20 -102h-342l-45 -242q53 50 145 50
t136.5 -56.5zM442 0h-123l941 1458h122zM473 1466q96 0 153.5 -56t57.5 -142q0 -180 -145 -238q43 -27 63.5 -64.5t20.5 -99.5q0 -129 -77.5 -210t-204.5 -81t-182 60t-55 133v20q0 19 2 29h115q-17 -139 123 -139q63 0 114.5 45t51.5 119q0 73 -25.5 107t-95.5 34h-18
l20 98h15q84 0 124.5 48.5t40.5 117.5t-31.5 94t-72.5 25q-125 0 -160 -133h-112q53 233 278 233z" />
    <glyph glyph-name="uni2158" unicode="&#x2158;" horiz-adv-x="1611" 
d="M1471.5 523.5q44.5 -56.5 44.5 -117.5t-12 -121q-31 -160 -98 -226q-68 -67 -182 -67t-165 56t-51 136v14q0 13 2 25h108v-26q0 -43 23 -73t71 -30q83 0 121 49.5t54 123.5q16 75 16 115q0 101 -99 101t-147 -82h-98l94 473h444l-20 -102h-342l-45 -242q53 50 145 50
t136.5 -56.5zM442 0h-123l941 1458h122zM629 719h-94l-27 -135h-111l29 135h-340l20 102l416 637h127l-420 -637h215l43 215h111l-43 -215h92z" />
    <glyph glyph-name="uni2159" unicode="&#x2159;" horiz-adv-x="1611" 
d="M1384 291q0 47 -30.5 84t-78.5 37q-82 0 -121.5 -58t-39.5 -122t30 -101t77 -37t75.5 15.5t48 42t29.5 59.5t10 80zM1300 504q92 0 144.5 -62t52.5 -142q0 -144 -78 -226t-190 -82t-170 66.5t-58 157.5t35 149.5t60 97.5l274 411h129l-258 -380q40 10 59 10zM442 0h-123
l941 1458h122zM426 584h-111l148 739l-195 -145l27 139l194 141h113z" />
    <glyph glyph-name="uni215A" unicode="&#x215a;" horiz-adv-x="1611" 
d="M1384 291q0 47 -30.5 84t-78.5 37q-82 0 -121.5 -58t-39.5 -122t30 -101t77 -37t75.5 15.5t48 42t29.5 59.5t10 80zM1300 504q92 0 144.5 -62t52.5 -142q0 -144 -78 -226t-190 -82t-170 66.5t-58 157.5t35 149.5t60 97.5l274 411h129l-258 -380q40 10 59 10zM442 0h-123
l941 1458h122zM460 1163q93 0 137 -55.5t44 -119.5t-11 -122q-29 -155 -97 -223q-69 -68 -183 -68t-165.5 56.5t-51.5 136.5v14q0 13 2 25h109v-27q0 -43 23.5 -72.5t70.5 -29.5q82 0 121.5 51t54.5 124q14 73 14 113t-20.5 70.5t-79.5 30.5q-99 0 -145 -82h-99l95 473h444
l-21 -102h-342l-45 -242q52 49 145 49z" />
    <glyph glyph-name="oneeighth" unicode="&#x215b;" horiz-adv-x="1611" 
d="M1458 677q0 40 -28.5 71.5t-73.5 31.5q-80 0 -122 -51t-42 -109q0 -122 108 -122t133 69.5t25 109.5zM1102 230q0 -136 130 -136q67 0 114 52t47 118q-1 138 -133 139q-66 0 -112 -53.5t-46 -119.5zM1149 459q-70 60 -70 162.5t77.5 182t184.5 79.5t168.5 -56.5
t61.5 -144.5t-40 -148.5t-104 -91.5q80 -57 80 -170t-76.5 -196.5t-223.5 -83.5t-183.5 82t-36.5 137q0 173 162 248zM442 0h-123l941 1458h122zM426 584h-111l148 739l-195 -145l27 139l194 141h113z" />
    <glyph glyph-name="threeeighths" unicode="&#x215c;" horiz-adv-x="1611" 
d="M1458 677q0 40 -28.5 71.5t-73.5 31.5q-80 0 -122 -51t-42 -109q0 -122 108 -122t133 69.5t25 109.5zM1102 230q0 -136 130 -136q67 0 114 52t47 118q-1 138 -133 139q-66 0 -112 -53.5t-46 -119.5zM1149 459q-70 60 -70 162.5t77.5 182t184.5 79.5t168.5 -56.5
t61.5 -144.5t-40 -148.5t-104 -91.5q80 -57 80 -170t-76.5 -196.5t-223.5 -83.5t-183.5 82t-36.5 137q0 173 162 248zM442 0h-123l941 1458h122zM473 1466q96 0 153.5 -56t57.5 -142q0 -180 -145 -238q43 -27 63.5 -64.5t20.5 -99.5q0 -129 -77.5 -210t-204.5 -81t-182 60
t-55 133v20q0 19 2 29h115q-17 -139 123 -139q63 0 114.5 45t51.5 119q0 73 -25.5 107t-95.5 34h-18l20 98h15q84 0 124.5 48.5t40.5 117.5t-31.5 94t-72.5 25q-125 0 -160 -133h-112q53 233 278 233z" />
    <glyph glyph-name="fiveeighths" unicode="&#x215d;" horiz-adv-x="1611" 
d="M1458 677q0 40 -28.5 71.5t-73.5 31.5q-80 0 -122 -51t-42 -109q0 -122 108 -122t133 69.5t25 109.5zM1102 230q0 -136 130 -136q67 0 114 52t47 118q-1 138 -133 139q-66 0 -112 -53.5t-46 -119.5zM1149 459q-70 60 -70 162.5t77.5 182t184.5 79.5t168.5 -56.5
t61.5 -144.5t-40 -148.5t-104 -91.5q80 -57 80 -170t-76.5 -196.5t-223.5 -83.5t-183.5 82t-36.5 137q0 173 162 248zM442 0h-123l941 1458h122zM460 1163q93 0 137 -55.5t44 -119.5t-11 -122q-29 -155 -97 -223q-69 -68 -183 -68t-165.5 56.5t-51.5 136.5v14q0 13 2 25h109
v-27q0 -43 23.5 -72.5t70.5 -29.5q82 0 121.5 51t54.5 124q14 73 14 113t-20.5 70.5t-79.5 30.5q-99 0 -145 -82h-99l95 473h444l-21 -102h-342l-45 -242q52 49 145 49z" />
    <glyph glyph-name="seveneighths" unicode="&#x215e;" horiz-adv-x="1611" 
d="M1458 677q0 40 -28.5 71.5t-73.5 31.5q-80 0 -122 -51t-42 -109q0 -122 108 -122t133 69.5t25 109.5zM1102 230q0 -136 130 -136q67 0 114 52t47 118q-1 138 -133 139q-66 0 -112 -53.5t-46 -119.5zM1149 459q-70 60 -70 162.5t77.5 182t184.5 79.5t168.5 -56.5
t61.5 -144.5t-40 -148.5t-104 -91.5q80 -57 80 -170t-76.5 -196.5t-223.5 -83.5t-183.5 82t-36.5 137q0 173 162 248zM442 0h-123l941 1458h122zM737 1354l-426 -770h-125l426 770h-268l-27 -144h-110l49 248h500z" />
    <glyph glyph-name="uni215F" unicode="&#x215f;" horiz-adv-x="989" 
d="M442 0h-123l941 1458h122zM426 584h-111l148 739l-195 -145l27 139l194 141h113z" />
    <glyph glyph-name="uni2189" unicode="&#x2189;" horiz-adv-x="1611" 
d="M1559 684q0 -181 -146 -238q43 -27 63.5 -64.5t20.5 -99.5q0 -127 -76 -208.5t-203 -81.5t-183 58.5t-56 133.5v20q0 19 2 29h115q-17 -139 123 -139q62 0 113.5 45t51.5 119q0 73 -25.5 107t-94.5 34h-19l21 99h14q86 0 126 48t40 118q0 69 -32 93.5t-73 24.5
q-126 0 -159 -133h-113q53 234 279 234q96 0 153.5 -56.5t57.5 -142.5zM442 0h-123l941 1458h122zM582 1273q0 41 -31 64t-74 23t-90 -32t-63 -118l-74 -374q-6 -25 -6 -67t29.5 -64.5t73.5 -22.5t91 31.5t64 117.5l73 377q7 24 7 65zM696 1266q0 -38 -6 -58l-76 -379
q-25 -135 -104 -194.5t-171 -59.5q-91 0 -149.5 51.5t-58.5 149.5q0 29 6 58l74 378q25 133 104 193.5t171 60.5t151 -51t59 -149z" />
    <glyph glyph-name="arrowleft" unicode="&#x2190;" horiz-adv-x="2103" 
d="M1972 426h-1614l746 -745h-195l-819 819l817 817h197l-744 -746h1610z" />
    <glyph glyph-name="arrowup" unicode="&#x2191;" horiz-adv-x="2103" 
d="M958 -444v1613l-745 -745v194l819 820l817 -817v-197l-745 743v-1609z" />
    <glyph glyph-name="arrowright" unicode="&#x2192;" horiz-adv-x="2103" 
d="M90 567h1614l-746 746h195l819 -819l-817 -818h-197l744 746h-1610z" />
    <glyph glyph-name="arrowdown" unicode="&#x2193;" horiz-adv-x="2103" 
d="M1102 1436v-1614l745 745v-194l-819 -819l-817 817v196l745 -743v1610z" />
    <glyph glyph-name="uni2196" unicode="&#x2196;" horiz-adv-x="2103" 
d="M377 1190h1155l139 -139h-1053l1139 -1139l-100 -102l-1143 1138l2 -1052l-139 137v1157z" />
    <glyph glyph-name="uni2197" unicode="&#x2197;" horiz-adv-x="2103" 
d="M1724 1190v-1155l-137 -141v1052l-1141 -1134l-102 100l1139 1139h-1053l139 139h1155z" />
    <glyph glyph-name="uni2198" unicode="&#x2198;" horiz-adv-x="2103" 
d="M434 -2l1053 -6l-1131 1147l101 102l1134 -1145l4 1053l138 -139l-2 -1153l-1158 2z" />
    <glyph glyph-name="uni2199" unicode="&#x2199;" horiz-adv-x="2103" 
d="M1516 -141l-1158 -2l-2 1153l138 139l4 -1053l1134 1145l101 -102l-1131 -1147l1053 6z" />
    <glyph glyph-name="partialdiff" unicode="&#x2202;" horiz-adv-x="1058" 
d="M704.5 838q-57.5 49 -141.5 49q-85 1 -153 -63t-97 -151t-47 -182t-18 -162q0 -114 56 -164t142 -50t162 70t115 240t39 267t-57.5 146zM307 1343q153 127 321 127q159 0 262 -78.5t103 -261.5q0 -46 -10 -104l-100 -524q-51 -293 -178 -408q-110 -106 -277 -106
q-218 0 -270 122.5t-52 207.5t22 197t60.5 217.5t137.5 193.5t258 88q72 0 134 -31t97 -90l27 147q8 41 8 84q0 106 -52.5 165t-147.5 59t-151.5 -26t-115.5 -77z" />
    <glyph glyph-name="Delta" unicode="&#x2206;" horiz-adv-x="1171" 
d="M743 1245l-606 -1118h762zM-84 0l801 1458h123l217 -1458h-1141z" />
    <glyph glyph-name="product" unicode="&#x220f;" horiz-adv-x="1353" 
d="M965 -451h-150l375 1878h-655l-375 -1878h-148l400 2007h952z" />
    <glyph glyph-name="summation" unicode="&#x2211;" horiz-adv-x="1071" 
d="M1151 1427h-696l211 -798l-29 -137l-512 -811h690l-27 -132h-860l25 123l569 912l-229 852l24 120h859z" />
    <glyph glyph-name="minus" unicode="&#x2212;" horiz-adv-x="1015" 
d="M911 489h-813l27 132h813z" />
    <glyph glyph-name="uni2219" unicode="&#x2219;" horiz-adv-x="1015" 
d="M827 684q0 -139 -90 -229t-228 -89t-228 91t-89 228t91 228t228 89t227 -90t89 -228z" />
    <glyph glyph-name="radical" unicode="&#x221a;" horiz-adv-x="1091" 
d="M1204 1329h-170l-674 -1329h-120l-123 1008h147l84 -744l596 1194h285z" />
    <glyph glyph-name="infinity" unicode="&#x221e;" horiz-adv-x="1572" 
d="M1319 545q0 82 -51 131t-126 49t-131.5 -49t-123.5 -131q68 -82 124 -130t131 -48t126 48t51 130zM456 729q-74 0 -125.5 -51t-51.5 -133t51 -130t126 -48t130 48t123 130q-68 82 -123.5 133t-129.5 51zM1456 546.5q0 -132.5 -85 -221.5t-226 -89q-102 0 -181 49
t-165 153q-86 -104 -165 -154.5t-165 -50.5t-143.5 25t-97.5 67t-62.5 99t-22.5 156t85.5 190.5t226.5 91.5q98 0 178 -51t166 -156q86 104 164.5 155.5t164.5 51.5t144.5 -24.5t121 -91.5t62.5 -199.5z" />
    <glyph glyph-name="integral" unicode="&#x222b;" horiz-adv-x="757" 
d="M750 1339q-70 0 -115 -35.5t-62 -121.5l-266 -1338q-39 -213 -140 -250.5t-181 -37.5h-99l25 120h72q70 0 114.5 36t61.5 122l266 1337q27 141 100 216t222 75h98l-25 -123h-71z" />
    <glyph glyph-name="approxequal" unicode="&#x2248;" horiz-adv-x="1050" 
d="M577 265q-39 13 -121 57q-82 43 -129 43t-85.5 -16.5t-108.5 -74.5l-74 97q149 131 254 131q69 0 115.5 -17t117.5 -55q71 -39 121 -39t89 16.5t108 73.5l74 -96q-131 -115 -187.5 -124t-95.5 -9t-78 13zM742 610q-85 0 -184 56q-100 56 -151 55q-51 0 -89.5 -16.5
t-108.5 -73.5l-74 98q149 131 254 131q69 0 107.5 -13t119.5 -56t129 -43t85.5 16t107.5 74l76 -97q-129 -113 -187.5 -122t-84.5 -9z" />
    <glyph glyph-name="notequal" unicode="&#x2260;" horiz-adv-x="1048" 
d="M870 788h136l-27 -131h-246l-231 -211h436l-27 -131h-542l-254 -237l-76 86l162 151h-135l24 131h246l231 211h-438l29 131h544l252 236l78 -86z" />
    <glyph glyph-name="lessequal" unicode="&#x2264;" horiz-adv-x="1015" 
d="M721 -33l-574 348l29 142l574 -351zM905 907l-534 -254l436 -258l-29 -143l-573 348l24 127l707 338z" />
    <glyph glyph-name="greaterequal" unicode="&#x2265;" horiz-adv-x="1015" 
d="M801 295l-705 -340l29 156l706 340zM856 598l-706 -340l30 160l533 254l-434 258l28 143l574 -350z" />
    <glyph glyph-name="dotmath" unicode="&#x22c5;" horiz-adv-x="1015" 
d="M582 461h-185l37 184h184z" />
    <glyph glyph-name="lozenge" unicode="&#x25ca;" horiz-adv-x="1265" 
d="M780 1245l-450 -524l243 -528l451 528zM539 -25l-361 762l635 729l365 -761z" />
    <glyph glyph-name="fi" unicode="&#xfb01;" horiz-adv-x="1095" 
d="M647 1339q-129 0 -160 -143l-36 -186h208l-22 -109h-209l-180 -901h-144l181 901h-121l20 109h121l39 194q25 136 118 206q69 52 175 52h108l-24 -123h-74zM1087 1296h-161l28 150h164zM823 0h-143l201 1010h143z" />
    <glyph glyph-name="fl" unicode="&#xfb02;" horiz-adv-x="1110" 
d="M647 1339q-129 0 -160 -143l-36 -186h208l-22 -109h-209l-180 -901h-144l181 901h-121l20 109h121l39 194q25 136 118 206q69 52 175 52h108l-24 -123h-74zM862 198q0 -30 23 -53t88 -22h84l-25 -123h-106q-137 0 -188 99q-19 37 -19 89t8 86l238 1184h143l-238 -1184
q-8 -46 -8 -76z" />
    <glyph glyph-name="uniFEFF" unicode="&#xfeff;" horiz-adv-x="0" 
 />
    <glyph glyph-name="caroncomma.ss01" horiz-adv-x="512" 
d="M1313 1217l-164 -130l80 390h137z" />
    <glyph glyph-name="caroncomma" horiz-adv-x="989" 
d="M1253 1159h-120l141 314h143z" />
    <glyph glyph-name="commaaccent" horiz-adv-x="516" 
d="M317 -434h-155l192 301h135z" />
    <glyph glyph-name="commaturn" horiz-adv-x="931" 
d="M692 1206h-141l240 310h163z" />
    <glyph glyph-name="breveCyrLc.comp" horiz-adv-x="1019" 
d="M663.5 1180q-122.5 0 -190 55t-67.5 154v20t2 27h122q-2 -16 -2 -18v-23q0 -53 37 -85t107 -32q152 0 188 158h123q-31 -139 -114 -197.5t-205.5 -58.5z" />
    <glyph glyph-name="breveCyrUc.comp" horiz-adv-x="1019" 
d="M850 1649q152 0 190 157h123q-31 -139 -113.5 -197.5t-206.5 -58.5t-190.5 55.5t-66.5 153.5v15q0 16 2 32h123q-2 -16 -2 -18v-21q0 -53 36.5 -85.5t104.5 -32.5z" />
    <glyph glyph-name="grave.lc" horiz-adv-x="1028" 
d="M590 1206l-148 310h158l119 -310h-129z" />
    <glyph glyph-name="dieresis.lc" 
d="M524 1221h-139l35 178h139zM934 1221h-139l34 178h140z" />
    <glyph glyph-name="macron.lc" 
d="M961 1253h-586l22 109h586z" />
    <glyph glyph-name="acute.lc" horiz-adv-x="1028" 
d="M696 1206h-143l242 310h163z" />
    <glyph glyph-name="circumflex.lc" 
d="M834 1204l-134 219l-221 -219h-141l307 314h131l185 -314h-127z" />
    <glyph glyph-name="caron.lc" 
d="M705 1204h-132l-184 314h127l133 -220l221 220h142z" />
    <glyph glyph-name="breve.lc" horiz-adv-x="1028" 
d="M412 1399v15q0 16 2 32h112q-2 -14 -2 -16v-21q0 -53 41 -81t113 -28q156 0 192 146h113q-59 -256 -313 -256q-123 0 -190.5 53t-67.5 156z" />
    <glyph glyph-name="dotaccent.lc" 
d="M737 1239h-147l31 152h147z" />
    <glyph glyph-name="ring.lc" 
d="M823 1404q0 58 -43 100t-102.5 42t-102.5 -42t-43 -100t43 -101t102.5 -43t102.5 43t43 101zM918 1404q0 -101 -70 -171t-170 -70t-170 70t-70 171t70 171t170 70t170 -70t70 -171z" />
    <glyph glyph-name="tilde.lc" 
d="M987 1329q-102 -98 -184 -98q-83 0 -136 37t-72.5 45t-59.5 8t-119 -70l-60 76q102 98 187 98t151 -49q33 -25 53.5 -33t52.5 -8t59.5 17.5t66.5 52.5z" />
    <glyph glyph-name="hungarumlaut.lc" horiz-adv-x="1028" 
d="M555 1204h-141l239 309h166zM874 1204h-141l240 309h166z" />
    <glyph glyph-name="diedot.lc" 
d="M524 1221h-139l35 178h139z" />
    <glyph glyph-name="grave.uc" horiz-adv-x="1062" 
d="M762 1587l-146 309h158l117 -309h-129z" />
    <glyph glyph-name="dieresis.uc" horiz-adv-x="1058" 
d="M696 1604h-139l35 178h139zM1106 1604h-139l34 178h140z" />
    <glyph glyph-name="macron.uc" horiz-adv-x="1009" 
d="M1153 1743l-23 -109h-587l22 109h588z" />
    <glyph glyph-name="acute.uc" horiz-adv-x="1062" 
d="M868 1587h-141l240 309h163z" />
    <glyph glyph-name="circumflex.uc" horiz-adv-x="1058" 
d="M1008 1587l-134 219l-223 -219h-139l305 314h133l183 -314h-125z" />
    <glyph glyph-name="caron.uc" 
d="M879 1587h-131l-185 314h125l133 -220l223 220h140z" />
    <glyph glyph-name="breve.uc" horiz-adv-x="1019" 
d="M848 1581q-123 0 -191.5 53.5t-68.5 155.5v16q0 17 2 33h112q-2 -16 -2 -19v-18q0 -53 41 -81.5t113 -28.5q158 0 193 147h114q-33 -137 -111.5 -197.5t-201.5 -60.5z" />
    <glyph glyph-name="dotaccent.uc" horiz-adv-x="1009" 
d="M911 1622h-147l31 152h147z" />
    <glyph glyph-name="ring.uc" horiz-adv-x="972" 
d="M991 1766q0 58 -43 100.5t-101 42.5t-101.5 -42.5t-43.5 -100.5t43 -101t101 -43t101.5 43t43.5 101zM678.5 1595q-72.5 71 -72.5 171t71.5 170.5t171.5 70.5t169 -70.5t69 -170.5t-70 -171t-168 -71t-170.5 71z" />
    <glyph glyph-name="tilde.uc" horiz-adv-x="1058" 
d="M1161 1714q-102 -98 -184 -98q-83 0 -136 37t-72 45t-61 8t-116 -70l-62 76q102 98 187 98t151 -49q35 -25 54.5 -33t61.5 -8t116 70z" />
    <glyph glyph-name="hungarumlaut.uc" horiz-adv-x="1028" 
d="M729 1587h-141l239 309h164zM1047 1587h-140l240 309h164z" />
    <glyph glyph-name="diedot.uc" horiz-adv-x="1263" 
d="M698 1604h-139l35 178h139z" />
    </font>
</defs>
</svg>
