<?xml version="1.0" standalone="no"?>
<!DOCTYPE svg PUBLIC "-//W3C//DTD SVG 1.1//EN" "http://www.w3.org/Graphics/SVG/1.1/DTD/svg11.dtd" >
<svg xmlns="http://www.w3.org/2000/svg">
<metadata>
Created by FontPrep 20130207 at Mon Jun 13 12:49:33 2016
 By Fera, Francesco
2009 Albert-Jan Pool published by FSI FontShop International GmbH
</metadata>
<defs>
<font id="3e2276c4467a07dec27b0e70300fa857" horiz-adv-x='1024' >
  <font-face 
    font-family="AdihausDIN-Medium"
    font-weight="500"
    font-stretch="normal"
    units-per-em="2048"
    panose-1="2 11 6 4 2 1 1 2 1 2"
    ascent="1565"
    descent="-483"
    x-height="1038"
    cap-height="1458"
    bbox="-242 -432 2396 2400"
    underline-thickness="143"
    underline-position="-137"
    unicode-range="U+0020-FEFF"
  />
<missing-glyph 
d="M854 143v1172h-545v-1172h545zM166 1458h831v-1458h-831v1458z" />
    <glyph glyph-name=".notdef" 
d="M854 143v1172h-545v-1172h545zM166 1458h831v-1458h-831v1458z" />
    <glyph glyph-name=".null" horiz-adv-x="0" 
 />
    <glyph glyph-name="nonmarkingreturn" horiz-adv-x="491" 
 />
    <glyph glyph-name="space" unicode=" " horiz-adv-x="491" 
 />
    <glyph glyph-name="exclam" unicode="!" horiz-adv-x="679" 
d="M260 0v223h229v-223h-229zM457 434h-164l-45 1024h254z" />
    <glyph glyph-name="quotedbl" unicode="&#x22;" horiz-adv-x="909" 
d="M160 1067v391h207v-391h-207zM543 1067v391h207v-391h-207z" />
    <glyph glyph-name="numbersign" unicode="#" horiz-adv-x="1376" 
d="M590 872l-41 -254h280l39 254h-278zM1208 618v-192h-192l-68 -426h-217l68 426h-281l-65 -426h-220l68 426h-162v192h193l41 254h-166v193h194l64 401h219l-63 -401h278l64 401h217l-64 -401h160v-193h-189l-40 -254h161z" />
    <glyph glyph-name="dollar" unicode="$" horiz-adv-x="1245" 
d="M326 1054q0 -87 58 -140q58 -52 163 -66v426q-109 -10 -165 -71.5t-56 -148.5zM920 412q0 98 -58 149q-37 35 -81.5 45.5t-102.5 18.5v-435q115 10 178.5 67t63.5 155zM994.5 747q144.5 -60 144.5 -331t-172 -342.5t-271 -79.5v-227h-168v221q-147 6 -257.5 50
t-209.5 142l148 146q132 -132 338 -140v455l-53 6q-167 19 -276 119q-108 100 -107.5 276.5t110 291t307.5 132.5v185h168v-183q123 -8 215.5 -47t175.5 -116l-141 -140q-102 98 -268 111v-442l70 -11q102 -16 246.5 -76z" />
    <glyph glyph-name="percent" unicode="%" horiz-adv-x="1724" 
d="M276 991q0 -145 130 -145t129 145v195q0 147 -129.5 147t-129.5 -147v-195zM1190 272q0 -147 129 -147t129 147v195q0 147 -129 147t-129 -147v-195zM602 0h-168l688 1458h166zM692 985q0 -128 -81 -203t-205.5 -75t-205.5 75t-81 203v207q0 128 82.5 204.5t204 76.5
t204 -76.5t82.5 -204.5v-207zM1606 266q0 -129 -83 -204.5t-204 -75.5t-204 75.5t-83 204.5v207q0 128 82.5 204.5t204.5 76.5t204.5 -76.5t82.5 -204.5v-207z" />
    <glyph glyph-name="ampersand" unicode="&#x26;" horiz-adv-x="1495" 
d="M778 1148q0 56 -40 98t-106 42t-104.5 -41t-38.5 -94t29 -98t84 -111l70 47q43 29 74.5 65t31.5 92zM610 178q74 0 140.5 23.5t138.5 89.5l-346 411q-98 -70 -147.5 -126.5t-49.5 -158.5t75 -170.5t189 -68.5zM260 105.5q-121 117.5 -121 313.5t118 288t171 127
q-106 123 -129 192.5t-23 129.5q0 130 98 222t256 92q157 0 253 -92t96 -239t-156 -252l-106 -74l307 -367q74 103 78 293h201q-8 -288 -146 -448l244 -291h-268l-119 143q-87 -69 -171.5 -112t-232.5 -43q-229 0 -350 117.5z" />
    <glyph glyph-name="quotesingle" unicode="'" horiz-adv-x="526" 
d="M160 1067v391h207v-391h-207z" />
    <glyph glyph-name="parenleft" unicode="(" horiz-adv-x="649" 
d="M176 240v979q0 177 53.5 252t62.5 84l97 96l143 -144l-46 -46q-46 -46 -72 -97t-27 -158v-954q0 -109 27 -159t54.5 -77.5t63.5 -64.5l-143 -144q-59 59 -98 101.5t-70 96.5t-38 112.5t-7 122.5z" />
    <glyph glyph-name="parenright" unicode=")" horiz-adv-x="649" 
d="M475 240q0 -153 -39 -222t-80 -113t-94 -98l-143 144q37 37 64 64.5t53 77.5t26 159v954q0 113 -27 161t-53 75.5t-63 64.5l143 144q122 -122 168 -200q45 -78 45 -232v-979z" />
    <glyph glyph-name="asterisk" unicode="*" horiz-adv-x="993" 
d="M793 821l-228 142l8 -269h-153l8 269l-227 -142l-76 133l235 125l-235 127l76 133l227 -141l-8 266h153l-8 -266l228 141l75 -133l-235 -127l235 -125z" />
    <glyph glyph-name="plus" unicode="+" horiz-adv-x="1091" 
d="M643 461v-344h-194v344h-345v194h345v342h194v-342h344v-194h-344z" />
    <glyph glyph-name="comma" unicode="," horiz-adv-x="557" 
d="M160 238h237v-361l-237 -194v555z" />
    <glyph glyph-name="hyphen" unicode="-" horiz-adv-x="872" 
d="M137 471v195h598v-195h-598z" />
    <glyph glyph-name="period" unicode="." horiz-adv-x="569" 
d="M160 0v250h250v-250h-250z" />
    <glyph glyph-name="slash" unicode="/" horiz-adv-x="778" 
d="M201 -152h-201l584 1762h200z" />
    <glyph glyph-name="zero" unicode="0" horiz-adv-x="1091" 
d="M758 1047q0 104 -56.5 170.5t-155.5 66.5t-155.5 -66.5t-56.5 -170.5v-635q0 -104 56 -171t156 -67t156 66.5t56 171.5v635zM967 406q0 -189 -120.5 -303.5t-300.5 -114.5t-300.5 114t-120.5 304v647q0 191 120.5 304t300.5 113t300.5 -113.5t120.5 -303.5v-647z" />
    <glyph glyph-name="one" unicode="1" horiz-adv-x="1091" 
d="M518 0v1231l-285 -250v231l285 246h209v-1458h-209z" />
    <glyph glyph-name="two" unicode="2" horiz-adv-x="1091" 
d="M129 0v186l561 682q78 97 78 195t-55.5 159.5t-157.5 61.5q-144 0 -179.5 -82t-35.5 -143h-209q0 185 119 298t308 113q188 0 303.5 -111.5t115.5 -297.5q0 -96 -35 -165t-102 -151l-457 -559h594v-186h-848z" />
    <glyph glyph-name="three" unicode="3" horiz-adv-x="1091" 
d="M526 838q222 0 222 226q0 106 -62 163t-156 57t-151 -55t-66 -154h-209q8 181 130 289.5t303 108.5t300 -114t119 -294q0 -224 -182 -311q205 -89 205 -344q0 -202 -126.5 -313t-317.5 -111q-190 0 -317.5 103.5t-131.5 305.5h209q4 -105 70.5 -163t167.5 -58t169 62.5
t68 176.5t-60.5 178t-183.5 64h-34v183h34z" />
    <glyph glyph-name="four" unicode="4" horiz-adv-x="1091" 
d="M864 219v-219h-202v219h-590v195l514 1044h225l-512 -1044h363v340h202v-340h156v-195h-156z" />
    <glyph glyph-name="five" unicode="5" horiz-adv-x="1091" 
d="M772 484q0 309 -200 309q-103 0 -153 -39t-67 -92h-190v796h786v-186h-598v-385q80 84 242 84q231 0 304 -136t79 -216.5t6 -164.5t-21.5 -179t-101.5 -175q-114 -114 -307 -114q-199 0 -317 118q-91 91 -105 273h209q25 -203 213 -203q94 0 146 52t63.5 120t11.5 138z
" />
    <glyph glyph-name="six" unicode="6" horiz-adv-x="1091" 
d="M768 424q0 113 -59.5 184.5t-160.5 71.5t-162.5 -66.5t-61.5 -184.5t61 -186.5t159.5 -68.5t161 68.5t62.5 181.5zM597 854q160 0 270 -116t110 -310t-119.5 -317t-312.5 -123t-311.5 118.5t-118.5 317.5q0 90 30.5 176t77.5 182l332 676h223l-313 -627q55 23 132 23z
" />
    <glyph glyph-name="seven" unicode="7" horiz-adv-x="1091" 
d="M330 1272v-230h-201v416h868v-186l-487 -1272h-225l489 1272h-444z" />
    <glyph glyph-name="eight" unicode="8" horiz-adv-x="1091" 
d="M762 1060q0 97 -60.5 160.5t-156.5 63.5t-155.5 -63.5t-59.5 -160.5t59.5 -158.5t155.5 -61.5t156.5 61.5t60.5 158.5zM784 416q0 51 -18 95t-51 77t-76 52t-94 19t-95 -19t-76 -52t-50.5 -77t-18.5 -95t18.5 -95.5t50.5 -77t76 -51t95 -18.5t94 18.5t76 51t51 77
t18 95.5zM995 412q0 -194 -127.5 -309t-323 -115t-322 116t-126.5 308q0 223 201 342q-72 43 -124 119.5t-52 180.5q0 193 121 304.5t302 111.5t304 -111.5t123 -291.5q0 -117 -52.5 -193.5t-123.5 -119.5q200 -118 200 -342z" />
    <glyph glyph-name="nine" unicode="9" horiz-adv-x="1091" 
d="M768 1029q0 118 -62.5 186.5t-161 68.5t-159.5 -68.5t-61 -181.5t58 -184.5t160 -71.5t164 66.5t62 184.5zM494 604q-157 0 -268 116t-111 311t120 317t313 122t311 -119.5t118 -316.5q0 -90 -31 -176t-78 -182l-331 -676h-224l314 627q-55 -23 -133 -23z" />
    <glyph glyph-name="colon" unicode=":" horiz-adv-x="620" 
d="M213 0v250h248v-250h-248zM213 584v250h248v-250h-248z" />
    <glyph glyph-name="semicolon" unicode=";" horiz-adv-x="620" 
d="M213 584v250h248v-250h-248zM217 238h238v-361l-238 -194v555z" />
    <glyph glyph-name="less" unicode="&#x3c;" horiz-adv-x="1091" 
d="M168 475v187l756 362v-221l-502 -236l502 -233v-221z" />
    <glyph glyph-name="equal" unicode="=" horiz-adv-x="1091" 
d="M104 272v195h883v-195h-883zM104 670v194h883v-194h-883z" />
    <glyph glyph-name="greater" unicode="&#x3e;" horiz-adv-x="1091" 
d="M168 113v221l502 233l-502 236v221l756 -362v-187z" />
    <glyph glyph-name="question" unicode="?" horiz-adv-x="1046" 
d="M449 0v223h231v-223h-231zM963 1087q0 -82 -29 -142t-70 -118l-157 -221q-37 -53 -37 -110v-62h-209v72q0 63 16.5 108t52.5 95l160 215q64 82 64 161q0 80 -55.5 139.5t-148.5 59.5t-144.5 -61.5t-51.5 -145.5h-209q0 173 116 283t290 110t260 -77.5t119 -150.5t33 -155
z" />
    <glyph glyph-name="at" unicode="@" horiz-adv-x="1966" 
d="M762 381q0 -158 154 -158q70 -1 116 45q84 81 109 212q24 130 24 198q0 67 -43.5 103t-111.5 36q-191 0 -219.5 -202.5t-28.5 -233.5zM1686 676q0 260 -172.5 423t-452.5 163q-158 0 -295 -58.5t-238.5 -160t-160 -238.5t-58.5 -301t53.5 -303.5t207.5 -292t503 -152.5
h129l-28 -141h-130q-403 0 -655 252t-252 643q0 190 72 356t195.5 288t292.5 191.5t355 69.5q363 0 580 -206.5t217 -532.5q0 -249 -173.5 -428.5t-434.5 -179.5h-172l23 106q-107 -119 -241 -119t-211 75t-77 206q0 82 24 196q24 115 59.5 206.5t101.5 149.5q110 96 260 97
q151 0 215 -121l20 109h189l-154 -776q187 8 297.5 149.5t110.5 329.5z" />
    <glyph glyph-name="A" unicode="A" horiz-adv-x="1280" 
d="M645 1128l-227 -647h448zM1028 0l-100 293h-576l-100 -293h-236l535 1458h178l535 -1458h-236z" />
    <glyph glyph-name="B" unicode="B" horiz-adv-x="1357" 
d="M977 1050.5q0 102.5 -65.5 156t-172.5 53.5h-327v-418h327q106 0 172 53t66 155.5zM999 422q0 98 -61 159.5t-178 61.5h-348v-444h348q117 0 178 62.5t61 160.5zM1221 397q0 -85 -33 -162t-121 -156t-287 -79h-590v1458h568q205 0 322.5 -106.5t117.5 -292.5
q0 -109 -58 -194t-139 -115q88 -33 154 -120t66 -233z" />
    <glyph glyph-name="C" unicode="C" horiz-adv-x="1286" 
d="M137 656q0 188 3 275t25 191.5t120 200.5q147 147 363 147t355.5 -115.5t178.5 -332.5h-226q-25 113 -98.5 182.5t-199.5 69.5t-212 -90q-52 -52 -66.5 -125.5t-18 -147t-3.5 -238.5t18 -255t70 -144q84 -90 212 -90t202 70t101 182h221q-39 -217 -179.5 -332.5
t-356.5 -115.5t-361 147q-98 98 -123 215.5t-25 305.5z" />
    <glyph glyph-name="D" unicode="D" horiz-adv-x="1363" 
d="M1006 729q0 164 -12.5 268.5t-62.5 160.5q-93 104 -253 104h-266v-1065h266q161 0 250 100q53 59 65.5 163.5t12.5 268.5zM1207 390.5q-20 -117.5 -95 -209.5q-145 -181 -410 -181h-512v1458h512q137 0 236.5 -44t177.5 -140q103 -129 107 -293t4 -318.5t-20 -272z" />
    <glyph glyph-name="E" unicode="E" horiz-adv-x="1234" 
d="M190 0v1458h932v-198h-710v-426h606v-197h-606v-438h710v-199h-932z" />
    <glyph glyph-name="F" unicode="F" horiz-adv-x="1198" 
d="M412 1260v-445h606v-199h-606v-616h-222v1458h932v-198h-710z" />
    <glyph glyph-name="G" unicode="G" horiz-adv-x="1329" 
d="M1194 565q0 -143 -29.5 -238t-106.5 -177q-153 -162 -390 -162q-238 0 -383 147q-98 98 -123 215.5t-25 305.5t3 275t25 191.5t120 200.5q147 147 373 147t364 -127.5t168 -322.5h-221q-29 121 -107 187.5t-204 66.5t-214 -90q-54 -57 -66.5 -128t-16 -144.5t-3.5 -236.5
t16 -252t70 -149q86 -90 227 -90t230 105q72 83 72 229v82h-311v188h532v-223z" />
    <glyph glyph-name="H" unicode="H" horiz-adv-x="1415" 
d="M1004 0v637h-592v-637h-222v1458h222v-622h592v622h221v-1458h-221z" />
    <glyph glyph-name="I" unicode="I" horiz-adv-x="602" 
d="M190 0v1458h222v-1458h-222z" />
    <glyph glyph-name="J" unicode="J" horiz-adv-x="1036" 
d="M866 461q0 -224 -140 -348.5t-345 -124.5q-113 0 -196 32.5t-158 108.5l147 145q39 -39 83 -63.5t124 -24.5q123 0 193.5 74t70.5 217v981h221v-997z" />
    <glyph glyph-name="K" unicode="K" horiz-adv-x="1347" 
d="M412 0h-222v1458h222v-733l596 733h270l-473 -571l522 -887h-260l-410 719l-245 -295v-424z" />
    <glyph glyph-name="L" unicode="L" horiz-adv-x="1175" 
d="M190 0v1458h222v-1259h702v-199h-924z" />
    <glyph glyph-name="M" unicode="M" horiz-adv-x="1665" 
d="M1255 0v975l-335 -711h-164l-344 711v-975h-222v1458h222l426 -907l417 907h222v-1458h-222z" />
    <glyph glyph-name="N" unicode="N" horiz-adv-x="1478" 
d="M412 0h-222v1458h203l674 -1024v1024h221v-1458h-203l-673 1026v-1026z" />
    <glyph glyph-name="O" unicode="O" horiz-adv-x="1323" 
d="M949.5 1034q-15.5 89 -70.5 150q-86 90 -217.5 90t-217.5 -90q-54 -57 -66.5 -128t-16 -144.5t-3.5 -235t15.5 -250.5t63.5 -141q93 -101 223.5 -101t218.5 92q54 58 70 147t16 305.5t-15.5 305.5zM1038 135q-147 -147 -377.5 -147t-375.5 147q-98 98 -123 215.5
t-25 305.5t3 275t25 191.5t120 200.5q147 147 377.5 147t375.5 -147q98 -98 123 -215.5t25 -305.5t-3 -275t-25 -191.5t-120 -200.5z" />
    <glyph glyph-name="P" unicode="P" horiz-adv-x="1288" 
d="M989 1016q0 117 -70.5 180.5t-187.5 63.5h-319v-488h319q117 0 187.5 63.5t70.5 180.5zM1082 699q-128 -124 -339 -124h-331v-575h-222v1458h553q209 0 338 -123t129 -317q0 -195 -128 -319z" />
    <glyph glyph-name="Q" unicode="Q" horiz-adv-x="1323" 
d="M949 1035q-16 89 -70 149q-86 90 -217.5 90t-217.5 -90q-53 -53 -66 -126t-16.5 -146.5t-3.5 -235t21.5 -284t119 -165.5t174.5 -43t140 49l-156 154l123 123l142 -143q29 57 36 139t7 261t-16 268zM662 -12q-232 0 -377 147q-98 98 -123 215.5t-25 305.5t3 275t25 191.5
t120 200.5q147 147 377.5 147t375.5 -147q98 -98 123 -215.5t25 -297.5q0 -309 -16 -415.5t-78 -197.5l143 -142l-123 -121l-145 144q-123 -90 -305 -90z" />
    <glyph glyph-name="R" unicode="R" horiz-adv-x="1341" 
d="M987 1030.5q0 108.5 -68.5 169t-179.5 60.5h-327v-457h327q111 0 179.5 59.5t68.5 168zM412 614v-614h-222v1458h566q204 0 328 -118t124 -292t-84 -271t-206 -132l335 -645h-258l-307 614h-276z" />
    <glyph glyph-name="S" unicode="S" horiz-adv-x="1208" 
d="M599 184q128 0 206 58t78 164q1 106 -55 154t-162 63l-172 24q-182 29 -275 117q-109 98 -109 285t130 304t358 117q147 0 252.5 -38.5t200.5 -126.5l-140 -140q-68 66 -147.5 89.5t-191.5 23.5t-179 -63.5t-67 -158.5t55 -142t158 -64l174 -27q184 -29 270 -108
q119 -109 119 -303t-144 -309t-380 -115q-166 0 -288 43t-229 149l146 146q80 -80 172 -111t220 -31z" />
    <glyph glyph-name="T" unicode="T" horiz-adv-x="1146" 
d="M684 1260v-1260h-221v1260h-402v198h1024v-198h-401z" />
    <glyph glyph-name="U" unicode="U" horiz-adv-x="1382" 
d="M1214 492q0 -226 -150 -365t-375 -139t-373 140.5t-148 363.5v966h221v-956q0 -147 82 -231.5t219 -84.5t220 84t83 232v956h221v-966z" />
    <glyph glyph-name="V" unicode="V" horiz-adv-x="1155" 
d="M662 0h-173l-479 1458h230l335 -1061l336 1061h234z" />
    <glyph glyph-name="W" unicode="W" horiz-adv-x="1783" 
d="M1380 0h-192l-297 1022l-295 -1022h-193l-380 1458h233l254 -1042l293 1042h178l293 -1042l254 1042h233z" />
    <glyph glyph-name="X" unicode="X" horiz-adv-x="1183" 
d="M907 0l-317 559l-316 -559h-254l451 748l-422 710h254l287 -522l289 522h254l-422 -710l452 -748h-256z" />
    <glyph glyph-name="Y" unicode="Y" horiz-adv-x="1114" 
d="M668 0h-222v600l-436 858h242l305 -641l305 641h242l-436 -858v-600z" />
    <glyph glyph-name="Z" unicode="Z" horiz-adv-x="1130" 
d="M98 0v190l674 1070h-645v198h905v-180l-678 -1079h678v-199h-934z" />
    <glyph glyph-name="bracketleft" unicode="[" horiz-adv-x="710" 
d="M176 -152v1762h447v-187h-238v-1388h238v-187h-447z" />
    <glyph glyph-name="backslash" unicode="\" horiz-adv-x="778" 
d="M578 -152l-578 1745h201l577 -1745h-200z" />
    <glyph glyph-name="bracketright" unicode="]" horiz-adv-x="710" 
d="M88 -152v185h242v1392h-242v185h447v-1762h-447z" />
    <glyph glyph-name="asciicircum" unicode="^" horiz-adv-x="1169" 
d="M813 821l-229 424l-230 -424h-217l352 652h191l350 -652h-217z" />
    <glyph glyph-name="underscore" unicode="_" horiz-adv-x="1169" 
d="M0 -352v143h1169v-143h-1169z" />
    <glyph glyph-name="grave" unicode="`" horiz-adv-x="1024" 
d="M461 1227l-228 332h232l153 -332h-157z" />
    <glyph glyph-name="a" unicode="a" horiz-adv-x="1085" 
d="M481 459q-190 -1 -190 -149t196 -148q55 0 101.5 10t89.5 51t43 152v84h-240zM721 678q0 194 -208 194q-103 0 -152.5 -23.5t-94.5 -78.5l-135 129q106 123 205.5 137.5t165.5 14.5q428 0 428 -357v-694h-205v94q-57 -57 -118.5 -81.5t-158.5 -24.5q-184 0 -278 94
q-82 86 -82 220t90 218t271 84h272v74z" />
    <glyph glyph-name="b" unicode="b" horiz-adv-x="1132" 
d="M807 568.5q0 117.5 -42.5 206.5t-172.5 89q-186 0 -201.5 -137t-15.5 -254t42.5 -208t174.5 -91q184 0 199.5 138.5t15.5 256zM1016 487q0 -96 -28 -254t-146.5 -201.5t-199.5 -43.5t-146.5 25.5t-124.5 97.5v-111h-205v1458h209v-524q57 68 122.5 92.5t146.5 24.5
q162 0 255 -93q100 -105 108.5 -240t8.5 -231z" />
    <glyph glyph-name="c" unicode="c" horiz-adv-x="993" 
d="M113 582.5q0 207.5 134.5 338t327.5 130.5q109 0 189 -34t154 -112l-144 -139q-49 53 -93 75.5t-106 22.5q-123 0 -192 -92q-35 -43 -48 -101.5t-13 -194t61 -210.5q70 -92 192 -92q61 0 105.5 22.5t93.5 75.5l144 -137q-138 -147 -332 -147q-320 0 -396.5 193.5
t-76.5 401z" />
    <glyph glyph-name="d" unicode="d" horiz-adv-x="1132" 
d="M758 567.5q0 116.5 -43 206.5t-172 90q-186 0 -201.5 -137t-15.5 -254t42.5 -208t174.5 -91q182 0 198.5 138.5t16.5 255zM762 0v111q-59 -72 -124 -97.5t-147 -25.5q-166 0 -250 85t-104 201.5t-20 212.5q0 186 23.5 292.5t92.5 178.5q93 93 252 93q84 0 149.5 -25
t123.5 -92v524h209v-1458h-205z" />
    <glyph glyph-name="e" unicode="e" horiz-adv-x="1103" 
d="M552 877q-147 0 -206 -132q-21 -46 -27 -141h467q-8 99 -32 150q-23 50 -75 86.5t-127 36.5zM319 459q0 -135 68 -213t197 -78q88 0 142 25.5t110 80.5l133 -124q-85 -85 -171.5 -123.5t-200.5 -38.5q-231 0 -357.5 126t-126.5 394t119.5 405.5t323.5 137.5t320.5 -137
t116.5 -367v-88h-674z" />
    <glyph glyph-name="f" unicode="f" horiz-adv-x="671" 
d="M522 1290q-114 0 -114 -121v-131h206v-159h-206v-879h-209v879h-119v159h119v142q0 120 73.5 204t210.5 84h131v-178h-92z" />
    <glyph glyph-name="g" unicode="g" horiz-adv-x="1124" 
d="M750 583.5q0 106.5 -42.5 193.5t-168.5 87q-181 0 -197 -132t-16 -237t41.5 -193.5t171.5 -88.5q182 0 196.5 132t14.5 238.5zM958 6q0 -194 -120 -316t-324 -122q-119 0 -202 30.5t-165 106.5l134 133q49 -47 98 -69.5t121 -22.5q130 0 190 75.5t60 188.5v133
q-57 -68 -123 -93t-145 -25q-157 0 -241 84t-104 190.5t-20 239.5t20.5 239.5t102.5 189.5t243 83q84 0 148.5 -26t124.5 -97v110h202v-1032z" />
    <glyph glyph-name="h" unicode="h" 
d="M375 934q105 117 267 117t261 -95q105 -105 105 -292v-664h-209v633q0 121 -60.5 176t-148.5 55t-151.5 -56t-63.5 -175v-633h-209v1458h209v-524z" />
    <glyph glyph-name="i" unicode="i" horiz-adv-x="540" 
d="M160 1243v221h221v-221h-221zM166 0v1038h209v-1038h-209z" />
    <glyph glyph-name="j" unicode="j" horiz-adv-x="540" 
d="M160 1243v221h221v-221h-221zM375 -137q0 -195 -105.5 -241t-179.5 -46h-129v178h92q63 0 88 31t25 90v1163h209v-1175z" />
    <glyph glyph-name="k" unicode="k" horiz-adv-x="1122" 
d="M375 0h-209v1458h209v-899l403 479h254l-360 -407l405 -631h-258l-291 479l-153 -174v-305z" />
    <glyph glyph-name="l" unicode="l" horiz-adv-x="636" 
d="M444 0q-140 0 -212 81t-72 206v1171h209v-1159q0 -59 24.5 -90t87.5 -31h92v-178h-129z" />
    <glyph glyph-name="m" unicode="m" horiz-adv-x="1796" 
d="M647 1051q197 0 295 -152q125 152 326 152q163 0 262 -95q110 -110 110 -292v-664h-208v633q0 121 -60.5 176t-148.5 55q-148 0 -181.5 -83t-33.5 -138v-643h-209v633q0 121 -60.5 176t-148.5 55t-151.5 -56t-63.5 -175v-633h-209v1038h205v-104q109 117 276 117z" />
    <glyph glyph-name="n" unicode="n" 
d="M371 934q105 117 269 117t263 -95q105 -105 105 -292v-664h-209v633q0 121 -60.5 176t-148.5 55t-151.5 -56t-63.5 -175v-633h-209v1038h205v-104z" />
    <glyph glyph-name="o" unicode="o" horiz-adv-x="1099" 
d="M774 520q0 86 -12 162t-66 129t-146 53t-146 -53t-66 -129t-12 -162t12 -161.5t66 -129.5q54 -55 146 -55t145 54q54 54 66.5 130t12.5 162zM983 519q0 -132 -24.5 -231.5t-86.5 -164.5q-130 -135 -323 -135t-309 123q-74 78 -98.5 177t-24.5 231t24.5 231.5t86.5 165.5
q129 136 321.5 135.5t310.5 -123.5q74 -78 98.5 -177.5t24.5 -231.5z" />
    <glyph glyph-name="p" unicode="p" horiz-adv-x="1132" 
d="M807 568.5q0 117.5 -42.5 206.5t-172.5 89q-186 0 -201.5 -137t-15.5 -254t42.5 -208t174.5 -91q184 0 199.5 138.5t15.5 256zM899 80q-92 -92 -252 -92q-84 0 -149.5 24.5t-122.5 93.5v-526h-209v1458h205v-110q59 72 124.5 97.5t147.5 25.5q163 0 256 -93
q100 -105 108.5 -239.5t8.5 -325t-117 -313.5z" />
    <glyph glyph-name="q" unicode="q" horiz-adv-x="1132" 
d="M326 520.5q0 -69.5 7 -132t29.5 -111t64.5 -76t113.5 -27.5t114.5 27.5t65.5 76t30 111t7.5 132t-7.5 132t-30 109.5t-65.5 74.5t-114.5 27.5t-113.5 -27.5t-64.5 -74.5t-29.5 -109.5t-7 -132zM233 958q93 93 254 93q84 0 149.5 -26t125.5 -97v110h205v-1458h-209v526
q-57 -70 -123 -94t-148 -24q-162 0 -254 92q-99 104 -107.5 240.5t-8.5 326t116 311.5z" />
    <glyph glyph-name="r" unicode="r" horiz-adv-x="899" 
d="M582 864q-86 0 -146.5 -62.5t-60.5 -170.5v-631h-209v1038h205v-112q41 55 114.5 90t155.5 35t141.5 -22.5t112.5 -76.5l-158 -157q-35 35 -68.5 52t-86.5 17z" />
    <glyph glyph-name="s" unicode="s" horiz-adv-x="1021" 
d="M506 877q-96 0 -142.5 -37.5t-46.5 -93.5t33 -84.5t111 -36.5l145 -13q328 -28 328 -295q0 -155 -118 -242t-314 -87q-127 0 -235.5 29.5t-200.5 119.5l137 137q103 -108 299 -108q98 0 162.5 35t64.5 98t-31.5 94t-107.5 39l-166 14q-147 14 -227 82t-80 211t111 227.5
t280 84.5q251 0 385 -117l-131 -133q-91 76 -256 76z" />
    <glyph glyph-name="t" unicode="t" horiz-adv-x="700" 
d="M399 299q0 -121 115 -121h86v-178h-125q-137 0 -211 84.5t-74 204.5v590h-118v159h118v297h209v-297h201v-159h-201v-580z" />
    <glyph glyph-name="u" unicode="u" 
d="M156 375v663h209v-632q0 -121 60 -176.5t148 -55.5q149 0 182 86t33 146v632h209v-1038h-204v104q-104 -116 -270 -116q-165 0 -263 94q-104 104 -104 293z" />
    <glyph glyph-name="v" unicode="v" horiz-adv-x="964" 
d="M567 0h-170l-381 1038h222l245 -731l244 731h221z" />
    <glyph glyph-name="w" unicode="w" horiz-adv-x="1521" 
d="M1182 0h-178l-244 725l-242 -725h-180l-322 1038h222l200 -731l242 731h162l239 -731l201 731h223z" />
    <glyph glyph-name="x" unicode="x" horiz-adv-x="1030" 
d="M733 0l-217 354l-219 -354h-252l356 530l-342 508h252l205 -338l203 338h252l-340 -508l354 -530h-252z" />
    <glyph glyph-name="y" unicode="y" horiz-adv-x="958" 
d="M203 -412h-84v189h53q66 0 96.5 23.5t53.5 86.5l57 162l-363 989h222l247 -731l242 731h223l-458 -1245q-54 -153 -142 -179t-147 -26z" />
    <glyph glyph-name="z" unicode="z" horiz-adv-x="960" 
d="M88 0v166l516 686h-487v186h745v-166l-520 -686h520v-186h-774z" />
    <glyph glyph-name="braceleft" unicode="{" horiz-adv-x="833" 
d="M596 -152q-293 0 -293 285v342q0 86 -38 124t-97 38h-76v184h76q59 0 97 38t38 124v342q0 285 293 285h145v-187h-79q-91 0 -113.5 -22.5t-29.5 -53t-7 -83.5v-330q0 -126 -55.5 -160.5t-79.5 -44.5q135 -54 135 -205v-329q0 -101 29.5 -130.5t120.5 -29.5h79v-187h-145z
" />
    <glyph glyph-name="bar" unicode="|" horiz-adv-x="692" 
d="M242 -152v1762h209v-1762h-209z" />
    <glyph glyph-name="braceright" unicode="}" horiz-adv-x="833" 
d="M668 637q-60 0 -99 -38t-39 -124v-342q0 -285 -292 -285h-146v187h80q90 0 120 30t30 130v329q0 150 137 205q-137 55 -137 205v330q0 99 -30 129t-120 30h-80v187h146q149 0 219 -70q41 -41 57 -91t16 -124v-342q0 -86 38 -124t100 -38h73v-184h-73z" />
    <glyph glyph-name="asciitilde" unicode="~" horiz-adv-x="1175" 
d="M406.5 530q-56.5 0 -93.5 -16t-94 -74l-131 131q91 91 156 125.5t135 34.5q69 0 121.5 -18.5t132.5 -58.5t147 -40t106.5 31t67.5 60l133 -132q-91 -91 -157 -125t-150 -34t-225 67q-92 49 -148.5 49z" />
    <glyph glyph-name="uni00A0" unicode="&#xa0;" horiz-adv-x="491" 
 />
    <glyph glyph-name="exclamdown" unicode="&#xa1;" horiz-adv-x="679" 
d="M190 815v223h230v-223h-230zM178 -420l45 1024h164l45 -1024h-254z" />
    <glyph glyph-name="cent" unicode="&#xa2;" horiz-adv-x="1019" 
d="M379 990q-57 -77 -57 -242q0 -164 56 -240t128 -90v663q-70 -14 -127 -91zM651 0h-164v227q-169 29 -271.5 165t-102.5 357t100.5 356t273.5 167v186h164v-184q88 -10 155.5 -46t133.5 -106l-139 -135q-76 84 -168 98v-671q92 14 168 98l139 -135q-66 -70 -133.5 -105.5
t-155.5 -46.5v-225z" />
    <glyph glyph-name="sterling" unicode="&#xa3;" horiz-adv-x="1155" 
d="M215 0v641h-127v160h127v196q0 220 139 346.5t348 126.5q113 0 196 -32.5t159 -108.5l-148 -145q-39 39 -83 63.5t-124 24.5q-123 0 -193.5 -74t-70.5 -217v-180h264v-160h-264v-442h619v-199h-842z" />
    <glyph glyph-name="currency" unicode="&#xa4;" horiz-adv-x="1361" 
d="M958 571.5q0 57.5 -21.5 107.5t-59 88t-89 59.5t-108.5 21.5t-108.5 -21.5t-89.5 -59.5t-59.5 -88t-21.5 -107.5t21.5 -108.5t59.5 -89t89.5 -59.5t108.5 -21.5t108.5 21.5t89 59.5t59 89t21.5 108.5zM211 571q0 142 78 254l-150 150l137 137l150 -149q111 76 254 75.5
t254 -75.5l151 149l138 -137l-152 -150q78 -112 78 -253t-78 -255l152 -151l-138 -137l-151 151q-112 -78 -254 -78t-254 78l-150 -151l-137 137l150 151q-78 112 -78 254z" />
    <glyph glyph-name="yen" unicode="&#xa5;" horiz-adv-x="1114" 
d="M981 864v-159h-260l-53 -105v-106h313v-160h-313v-334h-222v334h-313v160h313v106l-53 105h-260v159h178l-301 594h242l307 -643l303 643h240l-299 -594h178z" />
    <glyph glyph-name="brokenbar" unicode="&#xa6;" horiz-adv-x="704" 
d="M242 -152v717h209v-717h-209zM242 893v717h209v-717h-209z" />
    <glyph glyph-name="section" unicode="&#xa7;" horiz-adv-x="1112" 
d="M762 535q0 149 -78 185t-125 36q-92 0 -145 -58q-58 -58 -58 -161.5t56 -161.5q56 -59 146 -59q129 -1 166.5 78.5t37.5 140.5zM350 850q-172 84 -172 254q0 252 145.5 309t278 57t235.5 -92.5t107 -244.5h-201q-11 155 -184 155q-86 0 -133 -41t-47 -111
q0 -124 153 -171l144 -43q291 -89 291 -381q0 -161 -82 -231t-117 -89q180 -81 180 -289q0 -170 -115 -267t-277 -97t-277 89.5t-119 258.5h205q6 -76 56 -119t137 -43t136 46t49 114q0 144 -159 192l-144 44q-288 88 -288 380q0 166 81.5 233.5t116.5 86.5z" />
    <glyph glyph-name="dieresis" unicode="&#xa8;" horiz-adv-x="1024" 
d="M197 1237v221h188v-221h-188zM639 1237v221h188v-221h-188z" />
    <glyph glyph-name="copyright" unicode="&#xa9;" horiz-adv-x="1765" 
d="M896 319q-85 0 -152.5 29t-114.5 82t-74 129t-27 215.5t99.5 252t267.5 112.5q86 0 147.5 -27t120.5 -80l-94 -96q-47 41 -84 56.5t-90 15.5q-117 0 -169 -79t-52 -200t52 -199.5t169 -78.5q53 0 90 15t84 56l94 -96q-59 -53 -120.5 -80t-146.5 -27zM1475 729
q0 127 -46.5 236.5t-126 191.5t-188 128t-231.5 46t-231.5 -46t-188.5 -128t-126 -191.5t-46 -236.5t46 -236.5t126 -191.5t188.5 -128t231.5 -46t231.5 46t188 128t126 191.5t46.5 236.5zM1624 729q0 -154 -58.5 -289t-158.5 -235.5t-235.5 -158.5t-289 -58t-288.5 58
t-235.5 158.5t-159 235.5t-58.5 289t58.5 289t159 235.5t235.5 158.5t288.5 58t289 -58t235.5 -158.5t158.5 -235.5t58.5 -289z" />
    <glyph glyph-name="ordfeminine" unicode="&#xaa;" horiz-adv-x="925" 
d="M416 993q-144 0 -144 -114.5t146 -114.5q47 0 85.5 7t70.5 39t32 118v65h-190zM606 1169q0 152 -164 152q-82 0 -119.5 -17.5t-72.5 -62.5l-113 107q59 70 127 94t172 24q340 0 340 -284v-553h-166v73q-45 -45 -93 -63t-125 -18q-215 0 -250.5 99t-35.5 152q0 104 72 172
t213 68h215v57z" />
    <glyph glyph-name="guillemotleft" unicode="&#xab;" horiz-adv-x="1212" 
d="M594 557l471 469v-252l-221 -217l221 -219v-252zM76 557l471 469v-252l-219 -217l219 -219v-252z" />
    <glyph glyph-name="logicalnot" unicode="&#xac;" horiz-adv-x="1091" 
d="M797 201v288h-699v195h893v-483h-194z" />
    <glyph glyph-name="uni00AD" unicode="&#xad;" horiz-adv-x="872" 
d="M137 471v195h598v-195h-598z" />
    <glyph glyph-name="registered" unicode="&#xae;" horiz-adv-x="1765" 
d="M1038 885q0 51 -35.5 86t-95.5 35h-135v-242h135q59 0 95 35t36 86zM772 647v-317h-147v800h301q113 0 185.5 -72.5t72.5 -165.5t-46 -147.5t-112 -76.5l178 -338h-166l-164 317h-102zM1475 729q0 127 -46.5 237.5t-126 191.5t-187 128t-232.5 47t-233.5 -47t-188.5 -128
t-126 -191.5t-46 -237.5t46 -237.5t126 -191.5t188.5 -128t233.5 -47t232.5 47t187 128t126 191.5t46.5 237.5zM1624 729q0 -154 -58.5 -289t-158.5 -235.5t-235.5 -158.5t-289 -58t-288.5 58t-235.5 158.5t-159 235.5t-58.5 289t58.5 289t159 235.5t235.5 158.5t288.5 58
t289 -58t235.5 -158.5t158.5 -235.5t58.5 -289z" />
    <glyph glyph-name="macron" unicode="&#xaf;" horiz-adv-x="1024" 
d="M195 1415h632v-149h-632v149z" />
    <glyph glyph-name="degree" unicode="&#xb0;" horiz-adv-x="964" 
d="M482 1315q-79 0 -132 -55.5t-53 -135.5t53 -134t131 -54t132.5 54t54.5 133t-53.5 135.5t-132.5 56.5zM840 1124.5q0 -73.5 -29 -138t-77 -114t-113.5 -77t-139 -27.5t-138 27.5t-114 77t-77 114t-27.5 138t27.5 139t77 113.5t114 77t138 29t139 -29t113.5 -77t77 -113.5
t29 -139z" />
    <glyph glyph-name="plusminus" unicode="&#xb1;" horiz-adv-x="1091" 
d="M104 0v195h883v-195h-883zM643 647v-346h-194v346h-345v195h345v344h194v-344h344v-195h-344z" />
    <glyph glyph-name="twosuperior" unicode="&#xb2;" horiz-adv-x="665" 
d="M76 584v141l330 381q45 52 45 105q0 52 -28 83t-75 31t-81 -23.5t-34 -89.5h-157q0 119 75.5 186.5t191.5 67.5t190.5 -67.5t74.5 -186.5q0 -63 -24.5 -105t-69.5 -95l-248 -287h342v-141h-532z" />
    <glyph glyph-name="threesuperior" unicode="&#xb3;" horiz-adv-x="665" 
d="M504 1034q114 -61 114 -192t-79 -200t-197 -69q-184 0 -232.5 95.5t-48.5 162.5h158q2 -59 39 -87.5t87 -28.5t83 32.5t33 90.5t-32 91.5t-93 33.5h-23v135h23q59 0 87 32.5t28 84.5t-33 81t-79 29t-76 -27.5t-34 -78.5h-155q4 117 79.5 182t186.5 65q180 0 223 -97
t43 -152q0 -131 -102 -183z" />
    <glyph glyph-name="acute" unicode="&#xb4;" horiz-adv-x="1024" 
d="M563 1227h-157l153 332h232z" />
    <glyph glyph-name="mu" unicode="&#xb5;" horiz-adv-x="1165" 
d="M365 -420h-209v1458h209v-632q0 -121 61 -176.5t149.5 -55.5t150.5 55.5t62 176.5v632h209v-1038h-204v104q-104 -116 -275 -116q-92 0 -153 51v-459z" />
    <glyph glyph-name="paragraph" unicode="&#xb6;" horiz-adv-x="1304" 
d="M905 -420v1680h-221v-1680h-209v1069q-165 0 -281 119.5t-116 292.5t125 285t336 112h575v-1878h-209z" />
    <glyph glyph-name="periodcentered" unicode="&#xb7;" horiz-adv-x="569" 
d="M160 444v250h250v-250h-250z" />
    <glyph glyph-name="cedilla" unicode="&#xb8;" horiz-adv-x="1024" 
d="M549 -432h-207l143 301h168z" />
    <glyph glyph-name="onesuperior" unicode="&#xb9;" horiz-adv-x="665" 
d="M301 584v698l-178 -156v179l178 153h158v-874h-158z" />
    <glyph glyph-name="ordmasculine" unicode="&#xba;" horiz-adv-x="937" 
d="M643 1044.5q0 65.5 -7 125t-50 102.5t-116 43t-116 -43t-51 -102.5t-8 -125t8 -126t51 -103.5t116 -43t116 43t50 103.5t7 126zM815 1043q0 -105 -19.5 -184t-69.5 -130q-106 -108 -255.5 -108t-247.5 98q-59 61 -78.5 140t-19.5 184t19.5 184.5t69.5 130.5
q106 108 255.5 108t247.5 -98q59 -61 78.5 -140.5t19.5 -184.5z" />
    <glyph glyph-name="guillemotright" unicode="&#xbb;" horiz-adv-x="1212" 
d="M147 86v252l222 219l-222 217v252l474 -469zM666 86v252l219 219l-219 217v252l473 -469z" />
    <glyph glyph-name="onequarter" unicode="&#xbc;" horiz-adv-x="1734" 
d="M1614 125v-125h-150v125h-356v145l299 604h172l-301 -604h186v170h150v-170h82v-145h-82zM608 0h-168l686 1458h168zM301 584v698l-178 -156v179l178 153h158v-874h-158z" />
    <glyph glyph-name="onehalf" unicode="&#xbd;" horiz-adv-x="1734" 
d="M1145 0v141l330 381q45 52 45 105t-28 83.5t-75 30.5t-80.5 -23.5t-33.5 -88.5h-158q0 119 75.5 186.5t191.5 67.5t190.5 -67.5t74.5 -186.5q0 -63 -24.5 -105.5t-69.5 -95.5l-248 -287h342v-141h-532zM608 0h-168l686 1458h168zM301 584v698l-178 -156v179l178 153h158
v-874h-158z" />
    <glyph glyph-name="threequarters" unicode="&#xbe;" horiz-adv-x="1734" 
d="M1614 125v-125h-150v125h-356v145l299 604h172l-301 -604h186v170h150v-170h82v-145h-82zM608 0h-168l686 1458h168zM504 1036q114 -61 114 -192t-79 -200t-197 -69q-184 0 -232.5 95.5t-48.5 163.5h158q2 -59 39 -88t87 -29t83 32.5t33 90.5t-32 91.5t-93 33.5h-23v135
h23q59 0 87 32.5t28 84.5t-33 81t-79 29t-76 -27.5t-34 -78.5h-155q4 117 79.5 182t186.5 65q180 0 223 -97t43 -152q0 -131 -102 -183z" />
    <glyph glyph-name="questiondown" unicode="&#xbf;" horiz-adv-x="1046" 
d="M367 815v223h229v-223h-229zM901 -39q0 -171 -117 -282t-291 -111t-291.5 110t-117.5 283q0 119 96 252l160 221q37 53 37 111v61h209v-74q0 -63 -17.5 -108t-54.5 -94l-158 -215q-63 -80 -63 -161t53.5 -139.5t147.5 -58.5t146 60.5t52 144.5h209z" />
    <glyph glyph-name="Agrave" unicode="&#xc0;" horiz-adv-x="1280" 
d="M645 1128l-227 -647h448zM1028 0l-100 293h-576l-100 -293h-236l535 1458h178l535 -1458h-236zM584 1599l-228 332h232l153 -332h-157z" />
    <glyph glyph-name="Aacute" unicode="&#xc1;" horiz-adv-x="1280" 
d="M645 1128l-227 -647h448zM1028 0l-100 293h-576l-100 -293h-236l535 1458h178l535 -1458h-236zM688 1599h-158l154 332h231z" />
    <glyph glyph-name="Acircumflex" unicode="&#xc2;" horiz-adv-x="1280" 
d="M645 1128l-227 -647h448zM1028 0l-100 293h-576l-100 -293h-236l535 1458h178l535 -1458h-236zM815 1599l-178 199l-178 -199h-174l264 330h176l264 -330h-174z" />
    <glyph glyph-name="Atilde" unicode="&#xc3;" horiz-adv-x="1280" 
d="M645 1128l-227 -647h448zM1028 0l-100 293h-576l-100 -293h-236l535 1458h178l535 -1458h-236zM508 1706q-36 0 -60 -9t-67 -52l-98 96q71 69 117 91q115 53 249 -28q64 -37 117 -38t117 63l98 -96q-70 -70 -118 -92q-112 -51 -249 26q-71 39 -106 39z" />
    <glyph glyph-name="Adieresis" unicode="&#xc4;" horiz-adv-x="1280" 
d="M645 1128l-227 -647h448zM1028 0l-100 293h-576l-100 -293h-236l535 1458h178l535 -1458h-236zM326 1610v221h188v-221h-188zM768 1610v221h188v-221h-188z" />
    <glyph glyph-name="Aring" unicode="&#xc5;" horiz-adv-x="1280" 
d="M645 1128l-227 -647h448zM1028 0l-100 293h-576l-100 -293h-236l535 1458h178l535 -1458h-236zM766 1792q0 53 -39 91t-92 38t-92 -38t-39 -91t39 -91t92 -38t92 38t39 91zM891 1792q-1 -53 -21 -99q-42 -94 -136 -137q-46 -20 -99 -20q-106 0 -181 76t-75 181t76 180
t181 75t180 -76t75 -180z" />
    <glyph glyph-name="AE" unicode="&#xc6;" horiz-adv-x="1949" 
d="M905 520v740l-385 -740h385zM905 0v332h-481l-172 -332h-242l766 1458h1061v-198h-711v-429h607v-198h-607v-434h711v-199h-932z" />
    <glyph glyph-name="Ccedilla" unicode="&#xc7;" horiz-adv-x="1286" 
d="M658 1274q-126 0 -212 -90q-52 -52 -70 -143t-18 -316t19 -312q19 -88 69 -139q84 -90 212 -90t202 70t101 182h221q-40 -217 -180 -333q-140 -115 -354 -115t-363 147q-99 99 -123 220t-25 378q-1 258 17 340q32 150 118 236q85 86 177 124t213 37q203 0 342 -116
t178 -332h-226q-24 112 -98 182t-200 70zM662 -432h-207l143 301h168z" />
    <glyph glyph-name="Egrave" unicode="&#xc8;" horiz-adv-x="1234" 
d="M190 0v1458h932v-198h-710v-426h606v-197h-606v-438h710v-199h-932zM588 1599l-228 332h232l153 -332h-157z" />
    <glyph glyph-name="Eacute" unicode="&#xc9;" horiz-adv-x="1234" 
d="M190 0v1458h932v-198h-710v-426h606v-197h-606v-438h710v-199h-932zM690 1599h-158l154 332h232z" />
    <glyph glyph-name="Ecircumflex" unicode="&#xca;" horiz-adv-x="1234" 
d="M190 0v1458h932v-198h-710v-426h606v-197h-606v-438h710v-199h-932zM817 1599l-178 199l-178 -199h-174l264 330h176l264 -330h-174z" />
    <glyph glyph-name="Edieresis" unicode="&#xcb;" horiz-adv-x="1234" 
d="M190 0v1458h932v-198h-710v-426h606v-197h-606v-438h710v-199h-932zM324 1610v221h188v-221h-188zM766 1610v221h188v-221h-188z" />
    <glyph glyph-name="Igrave" unicode="&#xcc;" horiz-adv-x="602" 
d="M190 0v1458h222v-1458h-222zM258 1599l-227 332h231l154 -332h-158z" />
    <glyph glyph-name="Iacute" unicode="&#xcd;" horiz-adv-x="602" 
d="M190 0v1458h222v-1458h-222zM360 1599h-157l153 332h232z" />
    <glyph glyph-name="Icircumflex" unicode="&#xce;" horiz-adv-x="602" 
d="M190 0v1458h222v-1458h-222zM483 1599l-178 199l-178 -199h-174l264 330h176l264 -330h-174z" />
    <glyph glyph-name="Idieresis" unicode="&#xcf;" horiz-adv-x="602" 
d="M190 0v1458h222v-1458h-222zM-10 1610v221h188v-221h-188zM432 1610v221h189v-221h-189z" />
    <glyph glyph-name="Eth" unicode="&#xd0;" horiz-adv-x="1400" 
d="M1044 729q0 164 -12 268.5t-62 160.5q-93 104 -253 104h-266v-441h282v-170h-282v-454h266q161 0 250 100q53 59 65 163.5t12 268.5zM1246 390.5q-20 -117.5 -95 -209.5q-145 -181 -410 -181h-512v651h-151v170h151v637h512q137 0 236.5 -44t177.5 -140
q103 -129 107 -293t4 -318.5t-20 -272z" />
    <glyph glyph-name="Ntilde" unicode="&#xd1;" horiz-adv-x="1478" 
d="M412 0h-222v1458h203l674 -1024v1024h221v-1458h-203l-673 1026v-1026zM987 1829l98 -96q-69 -70 -117 -92q-87 -40 -174 -9q-34 12 -90 43t-91 31q-37 0 -61 -9t-67 -52l-98 96q70 69 117 91q116 53 250 -28q64 -37 117 -38q54 -1 116 63z" />
    <glyph glyph-name="Ograve" unicode="&#xd2;" horiz-adv-x="1323" 
d="M662 1274q-131 0 -218 -90q-54 -57 -70 -148q-16 -90 -16 -310t16 -306t64 -137q93 -99 221 -99t220 92q54 58 70 147t16 310t-16 307t-70 144q-86 90 -217 90zM662 -12q-227 0 -377 147q-99 99 -123 220t-25 305q0 184 3 271q9 253 132 378q85 86 177 124q92 37 213 37
q229 -1 376 -147q100 -99 124 -220t24 -378q0 -258 -18 -340q-32 -150 -117 -236q-85 -85 -177 -123t-212 -38zM610 1599l-227 332h231l154 -332h-158z" />
    <glyph glyph-name="Oacute" unicode="&#xd3;" horiz-adv-x="1323" 
d="M662 1274q-131 0 -218 -90q-54 -57 -70 -148q-16 -90 -16 -310t16 -306t64 -137q93 -99 221 -99t220 92q54 58 70 147t16 310t-16 307t-70 144q-86 90 -217 90zM662 -12q-227 0 -377 147q-99 99 -123 220t-25 305q0 184 3 271q9 253 132 378q85 86 177 124q92 37 213 37
q229 -1 376 -147q100 -99 124 -220t24 -378q0 -258 -18 -340q-32 -150 -117 -236q-85 -85 -177 -123t-212 -38zM713 1599h-158l154 332h231z" />
    <glyph glyph-name="Ocircumflex" unicode="&#xd4;" horiz-adv-x="1323" 
d="M662 1274q-131 0 -218 -90q-54 -57 -70 -148q-16 -90 -16 -310t16 -306t64 -137q93 -99 221 -99t220 92q54 58 70 147t16 310t-16 307t-70 144q-86 90 -217 90zM662 -12q-227 0 -377 147q-99 99 -123 220t-25 305q0 184 3 271q9 253 132 378q85 86 177 124q92 37 213 37
q229 -1 376 -147q100 -99 124 -220t24 -378q0 -258 -18 -340q-32 -150 -117 -236q-85 -85 -177 -123t-212 -38zM840 1599l-178 199l-179 -199h-174l264 330h177l264 -330h-174z" />
    <glyph glyph-name="Otilde" unicode="&#xd5;" horiz-adv-x="1323" 
d="M662 1274q-131 0 -218 -90q-54 -57 -70 -148q-16 -90 -16 -310t16 -306t64 -137q93 -99 221 -99t220 92q54 58 70 147t16 310t-16 307t-70 144q-86 90 -217 90zM662 -12q-227 0 -377 147q-99 99 -123 220t-25 305q0 184 3 271q9 253 132 378q85 86 177 124q92 37 213 37
q229 -1 376 -147q100 -99 124 -220t24 -378q0 -258 -18 -340q-32 -150 -117 -236q-85 -85 -177 -123t-212 -38zM535 1706q-37 0 -61 -9t-66 -52l-99 96q70 69 117 91q116 53 250 -28q64 -37 117 -38t116 63l99 -96q-70 -70 -118 -92q-112 -51 -249 26q-70 39 -106 39z" />
    <glyph glyph-name="Odieresis" unicode="&#xd6;" horiz-adv-x="1323" 
d="M662 1274q-131 0 -218 -90q-54 -57 -70 -148q-16 -90 -16 -310t16 -306t64 -137q93 -99 221 -99t220 92q54 58 70 147t16 310t-16 307t-70 144q-86 90 -217 90zM662 -12q-227 0 -377 147q-99 99 -123 220t-25 305q0 184 3 271q9 253 132 378q85 86 177 124q92 37 213 37
q229 -1 376 -147q100 -99 124 -220t24 -378q0 -258 -18 -340q-32 -150 -117 -236q-85 -85 -177 -123t-212 -38zM346 1610v221h189v-221h-189zM788 1610v221h189v-221h-189z" />
    <glyph glyph-name="multiply" unicode="&#xd7;" horiz-adv-x="1091" 
d="M844 141l-299 297l-297 -297l-131 129l299 299l-299 299l131 131l297 -299l299 299l131 -131l-299 -299l299 -299z" />
    <glyph glyph-name="Oslash" unicode="&#xd8;" horiz-adv-x="1323" 
d="M956.5 978.5q-8.5 87.5 -32.5 139.5l-424 -887q70 -47 149 -47q142 0 230 92q54 58 70 148.5t16 278.5t-8.5 275.5zM366 483q8 -83 35 -143l424 887q-70 47 -163 47q-131 0 -218 -90q-54 -57 -70 -147.5t-16 -280.5t8 -273zM662 -12q-139 0 -246 53l-62 -131h-168
l105 219q-105 105 -129.5 222.5t-24.5 305t3 274.5t25 191.5t120 200.5q147 147 377 147q139 0 245 -53l62 131h170l-107 -219q105 -101 129.5 -220.5t24.5 -307t-3 -274.5t-25 -191.5t-120 -200.5q-147 -147 -376 -147z" />
    <glyph glyph-name="Ugrave" unicode="&#xd9;" horiz-adv-x="1382" 
d="M1214 492q0 -226 -150 -365t-373 -139q-224 0 -374 139q-149 140 -149 365v966h221v-956q0 -148 82 -232t219 -84t220 84t83 232v956h221v-966zM641 1599l-227 332h231l154 -332h-158z" />
    <glyph glyph-name="Uacute" unicode="&#xda;" horiz-adv-x="1382" 
d="M1214 492q0 -226 -150 -365t-373 -139q-224 0 -374 139q-149 140 -149 365v966h221v-956q0 -148 82 -232t219 -84t220 84t83 232v956h221v-966zM743 1599h-157l153 332h232z" />
    <glyph glyph-name="Ucircumflex" unicode="&#xdb;" horiz-adv-x="1382" 
d="M1214 492q0 -226 -150 -365t-373 -139q-224 0 -374 139q-149 140 -149 365v966h221v-956q0 -148 82 -232t219 -84t220 84t83 232v956h221v-966zM870 1599l-178 199l-178 -199h-174l264 330h176l264 -330h-174z" />
    <glyph glyph-name="Udieresis" unicode="&#xdc;" horiz-adv-x="1382" 
d="M1214 492q0 -226 -150 -365t-373 -139q-224 0 -374 139q-149 140 -149 365v966h221v-956q0 -148 82 -232t219 -84t220 84t83 232v956h221v-966zM375 1610v221h188v-221h-188zM817 1610v221h189v-221h-189z" />
    <glyph glyph-name="Yacute" unicode="&#xdd;" horiz-adv-x="1114" 
d="M668 0h-222v600l-436 858h242l305 -641l305 641h242l-436 -858v-600zM610 1599h-157l153 332h232z" />
    <glyph glyph-name="Thorn" unicode="&#xde;" horiz-adv-x="1304" 
d="M987 735q0 117 -70.5 180.5t-187.5 63.5h-317v-485h317q117 0 187.5 62t70.5 179zM1082.5 418.5q-127.5 -123.5 -339.5 -123.5h-331v-295h-222v1458h222v-280h331q208 0 337.5 -123.5t129.5 -317.5q0 -195 -127.5 -318.5z" />
    <glyph glyph-name="germandbls" unicode="&#xdf;" horiz-adv-x="1157" 
d="M1024 1090.5q0 -121.5 -127 -205.5q66 -33 97.5 -85t31.5 -151v-338q0 -147 -84 -229t-233 -82h-109v178h66q63 0 106 36t43 116v319q0 64 -27.5 97.5t-54 42t-61.5 8.5h-72v166h64q66 0 108.5 38.5t42.5 115.5t-52 124t-170 47t-167 -62.5t-49 -168.5v-1057h-211v1069
q0 200 119 302t319 102q297 0 358.5 -130.5t61.5 -252z" />
    <glyph glyph-name="agrave" unicode="&#xe0;" horiz-adv-x="1085" 
d="M481 459q-190 -1 -190 -149t196 -148q55 0 101 10t90 51q43 41 43 152v84h-240zM721 678q1 194 -207 194q-104 0 -154 -24t-94 -78l-135 129q107 124 253 144q52 7 118 8q426 0 428 -357v-694h-205v94q-57 -57 -119 -82q-62 -24 -158 -24q-184 1 -278 94q-82 86 -82 220
t90 218t271 84h272v74zM477 1227l-227 332h231l154 -332h-158z" />
    <glyph glyph-name="aacute" unicode="&#xe1;" horiz-adv-x="1085" 
d="M481 459q-190 -1 -190 -149t196 -148q55 0 101 10t90 51q43 41 43 152v84h-240zM721 678q1 194 -207 194q-104 0 -154 -24t-94 -78l-135 129q107 124 253 144q52 7 118 8q426 0 428 -357v-694h-205v94q-57 -57 -119 -82q-62 -24 -158 -24q-184 1 -278 94q-82 86 -82 220
t90 218t271 84h272v74zM580 1227h-158l153 332h232z" />
    <glyph glyph-name="acircumflex" unicode="&#xe2;" horiz-adv-x="1085" 
d="M481 459q-190 -1 -190 -149t196 -148q55 0 101 10t90 51q43 41 43 152v84h-240zM721 678q1 194 -207 194q-104 0 -154 -24t-94 -78l-135 129q107 124 253 144q52 7 118 8q426 0 428 -357v-694h-205v94q-57 -57 -119 -82q-62 -24 -158 -24q-184 1 -278 94q-82 86 -82 220
t90 218t271 84h272v74zM707 1227l-179 198l-178 -198h-174l264 329h176l265 -329h-174z" />
    <glyph glyph-name="atilde" unicode="&#xe3;" horiz-adv-x="1085" 
d="M481 459q-190 -1 -190 -149t196 -148q55 0 101 10t90 51q43 41 43 152v84h-240zM721 678q1 194 -207 194q-104 0 -154 -24t-94 -78l-135 129q107 124 253 144q52 7 118 8q426 0 428 -357v-694h-205v94q-57 -57 -119 -82q-62 -24 -158 -24q-184 1 -278 94q-82 86 -82 220
t90 218t271 84h272v74zM754 1268q-48 -22 -104 -21q-57 0 -136 43t-114 43q-36 0 -60 -9t-68 -52l-98 96q70 70 117 92t107 21q60 0 135 -44t127 -44t114 63l98 -96q-70 -70 -118 -92z" />
    <glyph glyph-name="adieresis" unicode="&#xe4;" horiz-adv-x="1085" 
d="M481 459q-190 -1 -190 -149t196 -148q55 0 101 10t90 51q43 41 43 152v84h-240zM721 678q1 194 -207 194q-104 0 -154 -24t-94 -78l-135 129q107 124 253 144q52 7 118 8q426 0 428 -357v-694h-205v94q-57 -57 -119 -82q-62 -24 -158 -24q-184 1 -278 94q-82 86 -82 220
t90 218t271 84h272v74zM213 1237v221h188v-221h-188zM655 1237v221h189v-221h-189z" />
    <glyph glyph-name="aring" unicode="&#xe5;" horiz-adv-x="1085" 
d="M481 459q-190 -1 -190 -149t196 -148q55 0 101 10t90 51q43 41 43 152v84h-240zM721 678q1 194 -207 194q-104 0 -154 -24t-94 -78l-135 129q107 124 253 144q52 7 118 8q426 0 428 -357v-694h-205v94q-57 -57 -119 -82q-62 -24 -158 -24q-184 1 -278 94q-82 86 -82 220
t90 218t271 84h272v74zM657 1436q0 53 -39 91t-92 38t-92 -38t-39 -91t39 -91t92 -38t92 38t39 91zM707 1255q-75 -75 -181 -75t-180 75q-75 75 -75 180q-1 105 74 180t181 76t180 -75q76 -76 76 -180q0 -106 -75 -181z" />
    <glyph glyph-name="ae" unicode="&#xe6;" horiz-adv-x="1714" 
d="M481 459q-190 -1 -190 -149t196 -148q55 0 101.5 10t89.5 51t43 152v84h-240zM1162 877q-147 0 -206 -132q-22 -48 -26 -141h467q-8 97 -32 148q-24 52 -76 88.5t-127 36.5zM721 678q0 194 -208 194q-103 0 -152.5 -23.5t-94.5 -78.5l-135 129q106 123 205.5 137.5
t165.5 14.5q254 0 352 -138q104 138 310 138q205 0 321.5 -138t116.5 -366v-88h-674q0 -135 67.5 -213t196.5 -78q88 0 143.5 25.5t108.5 80.5l133 -124q-79 -83 -167.5 -122.5t-221.5 -39.5q-248 0 -367 162q-80 -96 -166 -129t-195 -33q-196 0 -290 94q-82 86 -82 220
t90 218t271 84h272v74z" />
    <glyph glyph-name="ccedilla" unicode="&#xe7;" horiz-adv-x="993" 
d="M257 109q-144 140 -144 410t144 412q126 120 318 120q109 0 189 -34t154 -112l-144 -139q-49 53 -93 76t-106 22q-123 0 -192 -92q-35 -43 -48 -101q-13 -59 -13 -151t13 -151t48 -103q70 -92 192 -92q61 0 105 23t94 75l144 -137q-139 -147 -340 -147q-200 0 -321 121z
M549 -432h-207l143 301h168z" />
    <glyph glyph-name="egrave" unicode="&#xe8;" horiz-adv-x="1103" 
d="M552 877q-147 0 -206 -132q-21 -46 -27 -141h467q-4 47 -8 77q-4 31 -26 77t-73 82q-52 36 -127 37zM319 459q0 -135 68 -213t197 -78q88 0 142 26t110 80l133 -124q-86 -86 -149 -113q-112 -49 -225 -49t-199 28q-175 56 -246 254q-37 102 -37 250q0 256 119 393
q120 137 324 137t322 -138q117 -140 115 -365v-88h-674zM508 1227l-227 332h231l154 -332h-158z" />
    <glyph glyph-name="eacute" unicode="&#xe9;" horiz-adv-x="1103" 
d="M552 877q-147 0 -206 -132q-21 -46 -27 -141h467q-4 47 -8 77q-4 31 -26 77t-73 82q-52 36 -127 37zM319 459q0 -135 68 -213t197 -78q88 0 142 26t110 80l133 -124q-86 -86 -149 -113q-112 -49 -225 -49t-199 28q-175 56 -246 254q-37 102 -37 250q0 256 119 393
q120 137 324 137t322 -138q117 -140 115 -365v-88h-674zM610 1227h-157l153 332h232z" />
    <glyph glyph-name="ecircumflex" unicode="&#xea;" horiz-adv-x="1103" 
d="M552 877q-147 0 -206 -132q-21 -46 -27 -141h467q-4 47 -8 77q-4 31 -26 77t-73 82q-52 36 -127 37zM319 459q0 -135 68 -213t197 -78q88 0 142 26t110 80l133 -124q-86 -86 -149 -113q-112 -49 -225 -49t-199 28q-175 56 -246 254q-37 102 -37 250q0 256 119 393
q120 137 324 137t322 -138q117 -140 115 -365v-88h-674zM735 1227l-178 198l-178 -198h-174l264 329h176l264 -329h-174z" />
    <glyph glyph-name="edieresis" unicode="&#xeb;" horiz-adv-x="1103" 
d="M552 877q-147 0 -206 -132q-21 -46 -27 -141h467q-4 47 -8 77q-4 31 -26 77t-73 82q-52 36 -127 37zM319 459q0 -135 68 -213t197 -78q88 0 142 26t110 80l133 -124q-86 -86 -149 -113q-112 -49 -225 -49t-199 28q-175 56 -246 254q-37 102 -37 250q0 256 119 393
q120 137 324 137t322 -138q117 -140 115 -365v-88h-674zM242 1237v221h188v-221h-188zM684 1237v221h188v-221h-188z" />
    <glyph glyph-name="igrave" unicode="&#xec;" horiz-adv-x="540" 
d="M166 0v1038h209v-1038h-209zM203 1227l-228 332h232l153 -332h-157z" />
    <glyph glyph-name="iacute" unicode="&#xed;" horiz-adv-x="540" 
d="M166 0v1038h209v-1038h-209zM342 1227h-158l154 332h231z" />
    <glyph glyph-name="icircumflex" unicode="&#xee;" horiz-adv-x="540" 
d="M166 0v1038h209v-1038h-209zM457 1227l-178 198l-179 -198h-174l264 329h177l264 -329h-174z" />
    <glyph glyph-name="idieresis" unicode="&#xef;" horiz-adv-x="540" 
d="M166 0v1038h209v-1038h-209zM-41 1237v221h188v-221h-188zM401 1237v221h189v-221h-189z" />
    <glyph glyph-name="eth" unicode="&#xf0;" horiz-adv-x="1099" 
d="M766 510q0 82 -10.5 155.5t-48.5 111.5q-69 69 -157 69t-142 -54t-64 -127t-10 -155t10 -155t63 -127t143 -54t142 53q53 53 63.5 127t10.5 156zM975 482q0 -100 -23.5 -199t-97.5 -174q-112 -121 -305 -121t-303 121q-74 76 -97.5 174t-23.5 227t23.5 227.5t100.5 176.5
t210 102q33 6 71 6t84 -10l-92 166h-237v147h159l-79 143h221l80 -143h178v-147h-103l105 -193q80 -148 99.5 -219.5t24.5 -127.5t5 -156z" />
    <glyph glyph-name="ntilde" unicode="&#xf1;" 
d="M371 934q105 117 270 117t266 -100t101 -287v-664h-209v633q-1 121 -61 176t-148 55t-152 -56t-63 -175v-633h-209v1038h205v-104zM814 1268q-48 -22 -105 -21q-57 0 -136 43t-114 43t-60 -9t-67 -52l-99 96q70 70 117 92t107 21q60 0 135 -44t127 -44t115 63l98 -96
q-70 -70 -118 -92z" />
    <glyph glyph-name="ograve" unicode="&#xf2;" horiz-adv-x="1099" 
d="M774 520q0 86 -12 162t-66 129t-146 53t-146 -53t-66 -129t-12 -162t12 -162t66 -130t146 -54t145 54q55 54 67 130t12 162zM983 519q0 -132 -25 -231q-25 -98 -87 -164q-128 -135 -320 -136q-192 0 -311 123q-74 78 -99 177t-25 231q0 131 26 231q24 100 86 166t139 100
q76 35 182 35t183 -35q78 -34 140 -100t86 -166t25 -231zM483 1227l-227 332h231l154 -332h-158z" />
    <glyph glyph-name="oacute" unicode="&#xf3;" horiz-adv-x="1099" 
d="M774 520q0 86 -12 162t-66 129t-146 53t-146 -53t-66 -129t-12 -162t12 -162t66 -130t146 -54t145 54q55 54 67 130t12 162zM983 519q0 -132 -25 -231q-25 -98 -87 -164q-128 -135 -320 -136q-192 0 -311 123q-74 78 -99 177t-25 231q0 131 26 231q24 100 86 166t139 100
q76 35 182 35t183 -35q78 -34 140 -100t86 -166t25 -231zM600 1227h-158l154 332h231z" />
    <glyph glyph-name="ocircumflex" unicode="&#xf4;" horiz-adv-x="1099" 
d="M774 520q0 86 -12 162t-66 129t-146 53t-146 -53t-66 -129t-12 -162t12 -162t66 -130t146 -54t145 54q55 54 67 130t12 162zM983 519q0 -132 -25 -231q-25 -98 -87 -164q-128 -135 -320 -136q-192 0 -311 123q-74 78 -99 177t-25 231q0 131 26 231q24 100 86 166t139 100
q76 35 182 35t183 -35q78 -34 140 -100t86 -166t25 -231zM727 1227l-178 198l-178 -198h-174l264 329h176l264 -329h-174z" />
    <glyph glyph-name="otilde" unicode="&#xf5;" horiz-adv-x="1099" 
d="M774 520q0 86 -12 162t-66 129t-146 53t-146 -53t-66 -129t-12 -162t12 -162t66 -130t146 -54t145 54q55 54 67 130t12 162zM983 519q0 -132 -25 -231q-25 -98 -87 -164q-128 -135 -320 -136q-192 0 -311 123q-74 78 -99 177t-25 231q0 131 26 231q24 100 86 166t139 100
q76 35 182 35t183 -35q78 -34 140 -100t86 -166t25 -231zM775 1268q-48 -22 -105 -21q-57 0 -136 43t-114 43t-60 -9t-67 -52l-98 96q71 70 117 92t106 21q60 0 135 -44t127 -44t115 63l98 -96q-70 -70 -118 -92z" />
    <glyph glyph-name="odieresis" unicode="&#xf6;" horiz-adv-x="1099" 
d="M774 520q0 86 -12 162t-66 129t-146 53t-146 -53t-66 -129t-12 -162t12 -162t66 -130t146 -54t145 54q55 54 67 130t12 162zM983 519q0 -132 -25 -231q-25 -98 -87 -164q-128 -135 -320 -136q-192 0 -311 123q-74 78 -99 177t-25 231q0 131 26 231q24 100 86 166t139 100
q76 35 182 35t183 -35q78 -34 140 -100t86 -166t25 -231zM233 1237v221h189v-221h-189zM676 1237v221h188v-221h-188z" />
    <glyph glyph-name="divide" unicode="&#xf7;" horiz-adv-x="1091" 
d="M434 848v223h223v-223h-223zM434 68v223h223v-223h-223zM98 471v195h893v-195h-893z" />
    <glyph glyph-name="oslash" unicode="&#xf8;" horiz-adv-x="1099" 
d="M538 864q-80 0 -134 -53t-66 -129t-12 -195t30 -190l316 532q-53 35 -134 35zM761.5 358q12.5 76 12.5 196t-31 189l-315 -532q53 -37 133 -37t134 54t66.5 130zM554 1051q112 0 210 -52l76 129h141l-121 -200q74 -78 98.5 -177.5t24.5 -231.5q1 -280 -111 -396
q-130 -135 -323 -135q-118 0 -213 51l-76 -129h-141l119 203q-74 78 -97.5 177t-23.5 230t24.5 230.5t98.5 177.5q118 123 314 123z" />
    <glyph glyph-name="ugrave" unicode="&#xf9;" 
d="M156 1038h209v-632q0 -120 60 -176t148 -56q149 0 198 128q17 44 17 104v632h209v-1038h-204v104q-106 -118 -270 -117t-263 95q-106 106 -104 293v663zM524 1227l-227 332h231l154 -332h-158z" />
    <glyph glyph-name="uacute" unicode="&#xfa;" 
d="M156 1038h209v-632q0 -120 60 -176t148 -56q149 0 198 128q17 44 17 104v632h209v-1038h-204v104q-106 -118 -270 -117t-263 95q-106 106 -104 293v663zM627 1227h-158l154 332h231z" />
    <glyph glyph-name="ucircumflex" unicode="&#xfb;" 
d="M156 1038h209v-632q0 -120 60 -176t148 -56q149 0 198 128q17 44 17 104v632h209v-1038h-204v104q-106 -118 -270 -117t-263 95q-106 106 -104 293v663zM754 1227l-179 198l-178 -198h-174l264 329h177l264 -329h-174z" />
    <glyph glyph-name="udieresis" unicode="&#xfc;" 
d="M156 1038h209v-632q0 -120 60 -176t148 -56q149 0 198 128q17 44 17 104v632h209v-1038h-204v104q-106 -118 -270 -117t-263 95q-106 106 -104 293v663zM258 1237v221h188v-221h-188zM700 1237v221h189v-221h-189z" />
    <glyph glyph-name="yacute" unicode="&#xfd;" horiz-adv-x="958" 
d="M119 -412v189h53q66 -1 96 23t54 87l57 162l-363 989h222l247 -731l242 731h223l-458 -1245q-54 -154 -175 -188q-55 -16 -114 -17h-84zM537 1227h-158l153 332h232z" />
    <glyph glyph-name="thorn" unicode="&#xfe;" horiz-adv-x="1134" 
d="M807 568.5q0 117.5 -42.5 206.5t-172.5 89q-186 0 -201.5 -137t-15.5 -254t42.5 -208t174.5 -91q184 0 199.5 138.5t15.5 256zM899 80q-92 -92 -252 -92q-84 0 -149.5 24.5t-122.5 93.5v-526h-209v1878h209v-524q57 68 122.5 92.5t146.5 24.5q162 0 255 -93
q100 -105 108.5 -239.5t8.5 -325t-117 -313.5z" />
    <glyph glyph-name="ydieresis" unicode="&#xff;" horiz-adv-x="958" 
d="M119 -412v189h53q66 -1 96 23t54 87l57 162l-363 989h222l247 -731l242 731h223l-458 -1245q-54 -154 -175 -188q-55 -16 -114 -17h-84zM170 1237v221h188v-221h-188zM612 1237v221h189v-221h-189z" />
    <glyph glyph-name="Amacron" unicode="&#x100;" horiz-adv-x="1280" 
d="M645 1128l-227 -647h448zM1028 0l-100 293h-576l-100 -293h-236l535 1458h178l535 -1458h-236zM322 1778h632v-150h-632v150z" />
    <glyph glyph-name="amacron" unicode="&#x101;" horiz-adv-x="1085" 
d="M481 459q-190 -1 -190 -149t196 -148q55 0 101 10t90 51q43 41 43 152v84h-240zM721 678q1 194 -207 194q-104 0 -154 -24t-94 -78l-135 129q107 124 253 144q52 7 118 8q426 0 428 -357v-694h-205v94q-57 -57 -119 -82q-62 -24 -158 -24q-184 1 -278 94q-82 86 -82 220
t90 218t271 84h272v74zM223 1415h633v-149h-633v149z" />
    <glyph glyph-name="Abreve" unicode="&#x102;" horiz-adv-x="1280" 
d="M645 1128l-227 -647h448zM1028 0l-100 293h-576l-100 -293h-236l535 1458h178l535 -1458h-236zM646 1622q-146 0 -237 72t-102 225h148q10 -72 62 -109q52 -36 128 -36t128 36t63 109h147q-10 -153 -101 -225q-90 -72 -236 -72z" />
    <glyph glyph-name="abreve" unicode="&#x103;" horiz-adv-x="1085" 
d="M481 459q-190 -1 -190 -149t196 -148q55 0 101 10t90 51q43 41 43 152v84h-240zM721 678q1 194 -207 194q-104 0 -154 -24t-94 -78l-135 129q107 124 253 144q52 7 118 8q426 0 428 -357v-694h-205v94q-57 -57 -119 -82q-62 -24 -158 -24q-184 1 -278 94q-82 86 -82 220
t90 218t271 84h272v74zM507 1214q-146 0 -237 72q-90 72 -100 225h147q9 -71 61 -107t130 -36q110 0 165 78q19 27 23 65h148q-10 -153 -100 -225t-237 -72z" />
    <glyph glyph-name="Aogonek" unicode="&#x104;" horiz-adv-x="1280" 
d="M645 1128l-227 -647h448zM1028 0l-100 293h-576l-100 -293h-236l535 1458h178l535 -1458h-236zM1073 -432h-207l144 301h168z" />
    <glyph glyph-name="aogonek" unicode="&#x105;" horiz-adv-x="1085" 
d="M481 459q-190 -1 -190 -149t196 -148q55 0 101 10t90 51q43 41 43 152v84h-240zM721 678q1 194 -207 194q-104 0 -154 -24t-94 -78l-135 129q107 124 253 144q52 7 118 8q426 0 428 -357v-694h-205v94q-57 -57 -119 -82q-62 -24 -158 -24q-184 1 -278 94q-82 86 -82 220
t90 218t271 84h272v74zM788 -432h-206l143 301h168z" />
    <glyph glyph-name="Cacute" unicode="&#x106;" horiz-adv-x="1286" 
d="M658 1274q-126 0 -212 -90q-52 -52 -70 -143t-18 -316t19 -312q19 -88 69 -139q84 -90 212 -90t202 70t101 182h221q-40 -217 -180 -333q-140 -115 -354 -115t-363 147q-99 99 -123 220t-25 378q-1 258 17 340q32 150 118 236q85 86 177 124t213 37q203 0 342 -116
t178 -332h-226q-24 112 -98 182t-200 70zM696 1599h-157l153 332h232z" />
    <glyph glyph-name="cacute" unicode="&#x107;" horiz-adv-x="993" 
d="M257 109q-144 140 -144 410t144 412q126 120 318 120q109 0 189 -34t154 -112l-144 -139q-49 53 -93 76t-106 22q-123 0 -192 -92q-35 -43 -48 -101q-13 -59 -13 -151t13 -151t48 -103q70 -92 192 -92q61 0 105 23t94 75l144 -137q-139 -147 -340 -147q-200 0 -321 121z
M596 1227h-158l154 332h231z" />
    <glyph glyph-name="Ccircumflex" unicode="&#x108;" horiz-adv-x="1286" 
d="M658 1274q-126 0 -212 -90q-52 -52 -70 -143t-18 -316t19 -312q19 -88 69 -139q84 -90 212 -90t202 70t101 182h221q-40 -217 -180 -333q-140 -115 -354 -115t-363 147q-99 99 -123 220t-25 378q-1 258 17 340q32 150 118 236q85 86 177 124t213 37q203 0 342 -116
t178 -332h-226q-24 112 -98 182t-200 70zM840 1599l-178 199l-179 -199h-174l264 330h177l264 -330h-174z" />
    <glyph glyph-name="ccircumflex" unicode="&#x109;" horiz-adv-x="993" 
d="M257 109q-144 140 -144 410t144 412q126 120 318 120q109 0 189 -34t154 -112l-144 -139q-49 53 -93 76t-106 22q-123 0 -192 -92q-35 -43 -48 -101q-13 -59 -13 -151t13 -151t48 -103q70 -92 192 -92q61 0 105 23t94 75l144 -137q-139 -147 -340 -147q-200 0 -321 121z
M752 1227l-179 198l-178 -198h-174l264 329h177l264 -329h-174z" />
    <glyph glyph-name="Cdotaccent" unicode="&#x10a;" horiz-adv-x="1286" 
d="M658 1274q-126 0 -212 -90q-52 -52 -70 -143t-18 -316t19 -312q19 -88 69 -139q84 -90 212 -90t202 70t101 182h221q-40 -217 -180 -333q-140 -115 -354 -115t-363 147q-99 99 -123 220t-25 378q-1 258 17 340q32 150 118 236q85 86 177 124t213 37q203 0 342 -116
t178 -332h-226q-24 112 -98 182t-200 70zM557 1823h199v-199h-199v199z" />
    <glyph glyph-name="cdotaccent" unicode="&#x10b;" horiz-adv-x="993" 
d="M257 109q-144 140 -144 410t144 412q126 120 318 120q109 0 189 -34t154 -112l-144 -139q-49 53 -93 76t-106 22q-123 0 -192 -92q-35 -43 -48 -101q-13 -59 -13 -151t13 -151t48 -103q70 -92 192 -92q61 0 105 23t94 75l144 -137q-139 -147 -340 -147q-200 0 -321 121z
M473 1450h199v-199h-199v199z" />
    <glyph glyph-name="Ccaron" unicode="&#x10c;" horiz-adv-x="1286" 
d="M658 1274q-126 0 -212 -90q-52 -52 -70 -143t-18 -316t19 -312q19 -88 69 -139q84 -90 212 -90t202 70t101 182h221q-40 -217 -180 -333q-140 -115 -354 -115t-363 147q-99 99 -123 220t-25 378q-1 258 17 340q32 150 118 236q85 86 177 124t213 37q203 0 342 -116
t178 -332h-226q-24 112 -98 182t-200 70zM731 1599h-176l-264 330h174l178 -198l178 198h174z" />
    <glyph glyph-name="ccaron" unicode="&#x10d;" horiz-adv-x="993" 
d="M257 109q-144 140 -144 410t144 412q126 120 318 120q109 0 189 -34t154 -112l-144 -139q-49 53 -93 76t-106 22q-123 0 -192 -92q-35 -43 -48 -101q-13 -59 -13 -151t13 -151t48 -103q70 -92 192 -92q61 0 105 23t94 75l144 -137q-139 -147 -340 -147q-200 0 -321 121z
M664 1227h-177l-264 329h174l178 -198l179 198h174z" />
    <glyph glyph-name="Dcaron" unicode="&#x10e;" horiz-adv-x="1363" 
d="M1006 729q0 164 -13 268q-12 105 -62 161q-92 105 -253 104h-266v-1065h266q159 0 250 100q54 59 66 163t12 269zM190 0v1458h512q136 0 236 -44t178 -140q99 -124 109 -379q2 -78 2 -233q1 -155 -13 -233q-26 -153 -101 -247q-145 -182 -411 -182h-512zM770 1599h-176
l-264 330h174l178 -198l178 198h174z" />
    <glyph glyph-name="dcaron" unicode="&#x10f;" horiz-adv-x="1132" 
d="M758 520q0 165 -30 227t-73 90q-43 27 -113 27q-188 -1 -209 -212q-7 -62 -7 -179t30 -180t72 -91q43 -28 114 -28q129 0 179 104q37 77 37 242zM762 0v111q-59 -72 -124 -98q-65 -25 -147 -25q-167 1 -250 85q-84 85 -104 201t-20 256t16 216q29 135 100 212
q93 93 252 93q84 0 150 -25t123 -92v524h209v-1458h-205zM1243 1169h-153l75 326h193z" />
    <glyph glyph-name="Dcroat" unicode="&#x110;" horiz-adv-x="1400" 
d="M1044 729q0 164 -12 268q-12 105 -62 161q-92 104 -253 104h-266v-441h282v-170h-282v-454h266q159 0 250 100q53 59 65 163t12 269zM229 0v651h-151v170h151v637h512q137 0 237 -44t177 -140q99 -124 109 -379q2 -78 2 -233t-14 -233q-26 -153 -100 -247
q-145 -182 -411 -182h-512z" />
    <glyph glyph-name="dcroat" unicode="&#x111;" horiz-adv-x="1169" 
d="M758 567.5q0 116.5 -43 206.5t-172 90q-186 0 -201.5 -137t-15.5 -254t42.5 -208t174.5 -91q182 0 198.5 138.5t16.5 255zM762 0v111q-59 -72 -124 -97.5t-147 -25.5q-166 0 -250 85t-104 201.5t-20 212.5q0 186 23.5 292.5t92.5 178.5q93 93 252 93q84 0 149.5 -25
t123.5 -92v231h-142v150h142v143h209v-143h120v-150h-120v-1165h-205z" />
    <glyph glyph-name="Emacron" unicode="&#x112;" horiz-adv-x="1234" 
d="M190 0v1458h932v-198h-710v-426h606v-197h-606v-438h710v-199h-932zM315 1778h633v-150h-633v150z" />
    <glyph glyph-name="emacron" unicode="&#x113;" horiz-adv-x="1103" 
d="M552 877q-147 0 -206 -132q-21 -46 -27 -141h467q-4 47 -8 77q-4 31 -26 77t-73 82q-52 36 -127 37zM319 459q0 -135 68 -213t197 -78q88 0 142 26t110 80l133 -124q-86 -86 -149 -113q-112 -49 -225 -49t-199 28q-175 56 -246 254q-37 102 -37 250q0 256 119 393
q120 137 324 137t322 -138q117 -140 115 -365v-88h-674zM233 1415h633v-149h-633v149z" />
    <glyph glyph-name="Ebreve" unicode="&#x114;" horiz-adv-x="1234" 
d="M190 0v1458h932v-198h-710v-426h606v-197h-606v-438h710v-199h-932zM635 1622q-145 0 -237 72q-91 72 -101 225h147q10 -72 62 -109q52 -36 129 -36q76 0 128 36t62 109h148q-9 -153 -101 -225t-237 -72z" />
    <glyph glyph-name="ebreve" unicode="&#x115;" horiz-adv-x="1103" 
d="M552 877q-147 0 -206 -132q-21 -46 -27 -141h467q-4 47 -8 77q-4 31 -26 77t-73 82q-52 36 -127 37zM319 459q0 -135 68 -213t197 -78q88 0 142 26t110 80l133 -124q-86 -86 -149 -113q-112 -49 -225 -49t-199 28q-175 56 -246 254q-37 102 -37 250q0 256 119 393
q120 137 324 137t322 -138q117 -140 115 -365v-88h-674zM558 1214q-146 0 -236 72t-101 225h148q10 -71 61 -107t125 -36t112 26q72 48 81 117h147q-10 -153 -100 -225q-91 -72 -237 -72z" />
    <glyph glyph-name="Edotaccent" unicode="&#x116;" horiz-adv-x="1234" 
d="M190 0v1458h932v-198h-710v-426h606v-197h-606v-438h710v-199h-932zM532 1823h199v-199h-199v199z" />
    <glyph glyph-name="edotaccent" unicode="&#x117;" horiz-adv-x="1103" 
d="M552 877q-147 0 -206 -132q-21 -46 -27 -141h467q-4 47 -8 77q-4 31 -26 77t-73 82q-52 36 -127 37zM319 459q0 -135 68 -213t197 -78q88 0 142 26t110 80l133 -124q-86 -86 -149 -113q-112 -49 -225 -49t-199 28q-175 56 -246 254q-37 102 -37 250q0 256 119 393
q120 137 324 137t322 -138q117 -140 115 -365v-88h-674zM451 1450h198v-199h-198v199z" />
    <glyph glyph-name="Eogonek" unicode="&#x118;" horiz-adv-x="1234" 
d="M190 0v1458h932v-198h-710v-426h606v-197h-606v-438h710v-199h-932zM1018 -432h-207l143 301h168z" />
    <glyph glyph-name="eogonek" unicode="&#x119;" horiz-adv-x="1103" 
d="M552 877q-147 0 -206 -132q-21 -46 -27 -141h467q-4 47 -8 77q-4 31 -26 77t-73 82q-52 36 -127 37zM319 459q0 -135 68 -213t197 -78q88 0 142 26t110 80l133 -124q-86 -86 -149 -113q-112 -49 -225 -49t-199 28q-175 56 -246 254q-37 102 -37 250q0 256 119 393
q120 137 324 137t322 -138q117 -140 115 -365v-88h-674zM692 -432h-207l144 301h168z" />
    <glyph glyph-name="Ecaron" unicode="&#x11a;" horiz-adv-x="1234" 
d="M190 0v1458h932v-198h-710v-426h606v-197h-606v-438h710v-199h-932zM721 1599h-176l-264 330h174l178 -198l178 198h174z" />
    <glyph glyph-name="ecaron" unicode="&#x11b;" horiz-adv-x="1103" 
d="M552 877q-147 0 -206 -132q-21 -46 -27 -141h467q-4 47 -8 77q-4 31 -26 77t-73 82q-52 36 -127 37zM319 459q0 -135 68 -213t197 -78q88 0 142 26t110 80l133 -124q-86 -86 -149 -113q-112 -49 -225 -49t-199 28q-175 56 -246 254q-37 102 -37 250q0 256 119 393
q120 137 324 137t322 -138q117 -140 115 -365v-88h-674zM639 1227h-176l-264 329h174l178 -198l178 198h174z" />
    <glyph glyph-name="Gcircumflex" unicode="&#x11c;" horiz-adv-x="1329" 
d="M1194 565q0 -143 -30 -238t-106 -177q-151 -162 -388 -162q-236 0 -385 147q-99 99 -123 220t-25 305q0 184 3 271q9 253 132 378q85 86 177 124q92 37 210 37q225 -1 363 -127q138 -127 168 -323h-221q-29 122 -107 188t-204 66t-214 -90q-54 -57 -70 -148
q-16 -90 -16 -311q0 -222 17 -308t69 -143q86 -90 227 -90t230 105q70 80 72 229v82h-311v188h532v-223zM840 1599l-178 199l-179 -199h-174l264 330h177l264 -330h-174z" />
    <glyph glyph-name="gcircumflex" unicode="&#x11d;" horiz-adv-x="1124" 
d="M333 658q-7 -58 -7 -162t28 -166t71 -90q42 -28 113 -27q125 0 177 101q35 70 35 222t-29 213q-29 60 -71 88q-42 27 -112 27q-184 -2 -205 -206zM117 538q0 134 20 240t103 190t243 83q84 0 149 -26t124 -97v110h202v-1032q0 -194 -120 -316t-324 -122q-119 0 -202 31
t-165 106l134 133q49 -48 98 -70t121 -22q126 0 187 74t63 190v133q-101 -120 -262 -119t-246 85t-105 190q-20 105 -20 239zM719 1227l-178 198l-179 -198h-174l265 329h176l264 -329h-174z" />
    <glyph glyph-name="Gbreve" unicode="&#x11e;" horiz-adv-x="1329" 
d="M1194 565q0 -143 -30 -238t-106 -177q-151 -162 -388 -162q-236 0 -385 147q-99 99 -123 220t-25 305q0 184 3 271q9 253 132 378q85 86 177 124q92 37 210 37q225 -1 363 -127q138 -127 168 -323h-221q-29 122 -107 188t-204 66t-214 -90q-54 -57 -70 -148
q-16 -90 -16 -311q0 -222 17 -308t69 -143q86 -90 227 -90t230 105q70 80 72 229v82h-311v188h532v-223zM662 1622q-145 0 -237 72q-91 72 -101 225h147q11 -72 63 -109q52 -36 128 -36t128 36t62 109h147q-10 -153 -101 -225t-236 -72z" />
    <glyph glyph-name="gbreve" unicode="&#x11f;" horiz-adv-x="1124" 
d="M333 658q-7 -58 -7 -162t28 -166t71 -90q42 -28 113 -27q125 0 177 101q35 70 35 222t-29 213q-29 60 -71 88q-42 27 -112 27q-184 -2 -205 -206zM117 538q0 134 20 240t103 190t243 83q84 0 149 -26t124 -97v110h202v-1032q0 -194 -120 -316t-324 -122q-119 0 -202 31
t-165 106l134 133q49 -48 98 -70t121 -22q126 0 187 74t63 190v133q-101 -120 -262 -119t-246 85t-105 190q-20 105 -20 239zM538 1214q-146 0 -237 72q-90 72 -100 225h147q10 -71 62 -107t124 -36q73 0 112 26q72 48 81 117h147q-10 -153 -100 -225t-236 -72z" />
    <glyph glyph-name="Gdotaccent" unicode="&#x120;" horiz-adv-x="1329" 
d="M1194 565q0 -143 -30 -238t-106 -177q-151 -162 -388 -162q-236 0 -385 147q-99 99 -123 220t-25 305q0 184 3 271q9 253 132 378q85 86 177 124q92 37 210 37q225 -1 363 -127q138 -127 168 -323h-221q-29 122 -107 188t-204 66t-214 -90q-54 -57 -70 -148
q-16 -90 -16 -311q0 -222 17 -308t69 -143q86 -90 227 -90t230 105q70 80 72 229v82h-311v188h532v-223zM559 1823h199v-199h-199v199z" />
    <glyph glyph-name="gdotaccent" unicode="&#x121;" horiz-adv-x="1124" 
d="M333 658q-7 -58 -7 -162t28 -166t71 -90q42 -28 113 -27q125 0 177 101q35 70 35 222t-29 213q-29 60 -71 88q-42 27 -112 27q-184 -2 -205 -206zM117 538q0 134 20 240t103 190t243 83q84 0 149 -26t124 -97v110h202v-1032q0 -194 -120 -316t-324 -122q-119 0 -202 31
t-165 106l134 133q49 -48 98 -70t121 -22q126 0 187 74t63 190v133q-101 -120 -262 -119t-246 85t-105 190q-20 105 -20 239zM436 1450h199v-199h-199v199z" />
    <glyph glyph-name="Gcommaaccent" unicode="&#x122;" horiz-adv-x="1329" 
d="M1194 565q0 -143 -30 -238t-106 -177q-151 -162 -388 -162q-236 0 -385 147q-99 99 -123 220t-25 305q0 184 3 271q9 253 132 378q85 86 177 124q92 37 210 37q225 -1 363 -127q138 -127 168 -323h-221q-29 122 -107 188t-204 66t-214 -90q-54 -57 -70 -148
q-16 -90 -16 -311q0 -222 17 -308t69 -143q86 -90 227 -90t230 105q70 80 72 229v82h-311v188h532v-223zM700 -432h-206l143 301h168z" />
    <glyph glyph-name="gcommaaccent" unicode="&#x123;" horiz-adv-x="1124" 
d="M333 658q-7 -58 -7 -162t28 -166t71 -90q42 -28 113 -27q125 0 177 101q35 70 35 222t-29 213q-29 60 -71 88q-42 27 -112 27q-184 -2 -205 -206zM117 538q0 134 20 240t103 190t243 83q84 0 149 -26t124 -97v110h202v-1032q0 -194 -120 -316t-324 -122q-119 0 -202 31
t-165 106l134 133q49 -48 98 -70t121 -22q126 0 187 74t63 190v133q-101 -120 -262 -119t-246 85t-105 190q-20 105 -20 239zM610 1227h-157l153 332h232z" />
    <glyph glyph-name="Hcircumflex" unicode="&#x124;" horiz-adv-x="1415" 
d="M1004 0v637h-592v-637h-222v1458h222v-622h592v622h221v-1458h-221zM885 1599l-178 199l-179 -199h-174l264 330h177l264 -330h-174z" />
    <glyph glyph-name="hcircumflex" unicode="&#x125;" 
d="M375 934q105 117 268 117t264 -100t101 -287v-664h-209v633q-1 121 -61 176t-148 55t-152 -56t-63 -175v-633h-209v1458h209v-524zM453 1597l-179 199l-178 -199h-174l264 330h176l265 -330h-174z" />
    <glyph glyph-name="Hbar" unicode="&#x126;" horiz-adv-x="1480" 
d="M1036 1047h-592v-211h592v211zM1257 1047v-1047h-221v637h-592v-637h-221v1047h-145v172h145v239h221v-239h592v239h221v-239h146v-172h-146z" />
    <glyph glyph-name="hbar" unicode="&#x127;" horiz-adv-x="1191" 
d="M403 934q105 117 267.5 117t261.5 -95q104 -104 104 -292v-664h-209v633q0 121 -60 176t-148.5 55t-152 -56t-63.5 -175v-633h-208v1165h-113v135h113v158h208v-158h211v-135h-211v-231z" />
    <glyph glyph-name="Itilde" unicode="&#x128;" horiz-adv-x="602" 
d="M190 0v1458h222v-1458h-222zM181 1706q-37 0 -61 -9t-67 -52l-98 96q70 69 117 91q116 53 250 -28q64 -37 117 -38q52 -1 116 63l98 -96q-69 -70 -117 -92q-113 -52 -249 26q-70 39 -106 39z" />
    <glyph glyph-name="itilde" unicode="&#x129;" horiz-adv-x="540" 
d="M166 0v1038h209v-1038h-209zM507 1268q-48 -22 -105 -21q-57 0 -136 43t-114 43q-36 0 -60 -9t-67 -52l-99 96q70 70 117 92t107 21q60 0 135 -44t127 -44t114 63l99 -96q-70 -70 -118 -92z" />
    <glyph glyph-name="Imacron" unicode="&#x12a;" horiz-adv-x="602" 
d="M190 0v1458h222v-1458h-222zM-12 1778h633v-150h-633v150z" />
    <glyph glyph-name="imacron" unicode="&#x12b;" horiz-adv-x="540" 
d="M166 0v1038h209v-1038h-209zM-43 1415h633v-149h-633v149z" />
    <glyph glyph-name="Ibreve" unicode="&#x12c;" horiz-adv-x="602" 
d="M190 0v1458h222v-1458h-222zM306 1622q-146 0 -237 72t-102 225h148q10 -72 62 -109q52 -36 128 -36t128 36t63 109h147q-10 -153 -101 -225q-90 -72 -236 -72z" />
    <glyph glyph-name="ibreve" unicode="&#x12d;" horiz-adv-x="540" 
d="M166 0v1038h209v-1038h-209zM276 1214q-146 0 -237 72q-90 72 -100 225h147q10 -71 61 -107t125 -36t112 26q72 48 81 117h147q-10 -153 -100 -225t-236 -72z" />
    <glyph glyph-name="Iogonek" unicode="&#x12e;" horiz-adv-x="602" 
d="M190 0v1458h222v-1458h-222zM256 -432h-207l144 301h167z" />
    <glyph glyph-name="iogonek" unicode="&#x12f;" horiz-adv-x="540" 
d="M160 1243v221h221v-221h-221zM166 0v1038h209v-1038h-209zM231 -432h-206l143 301h168z" />
    <glyph glyph-name="Idotaccent" unicode="&#x130;" horiz-adv-x="602" 
d="M190 0v1458h222v-1458h-222zM207 1823h199v-199h-199v199z" />
    <glyph glyph-name="dotlessi" unicode="&#x131;" horiz-adv-x="540" 
d="M166 0v1038h209v-1038h-209z" />
    <glyph glyph-name="IJ" unicode="&#x132;" horiz-adv-x="1638" 
d="M190 0v1458h222v-1458h-222zM1468 461q0 -225 -142 -350t-343 -123q-113 0 -196 32t-158 109l147 145q39 -40 83 -64t124 -24q123 0 194 74t70 217v981h221v-997z" />
    <glyph glyph-name="ij" unicode="&#x133;" horiz-adv-x="1081" 
d="M160 1243v221h221v-221h-221zM166 0v1038h209v-1038h-209zM700 1243v221h222v-221h-222zM915 -137q0 -197 -156 -263q-54 -24 -128 -24h-129v178h92q63 0 88 31t25 90v1163h208v-1175z" />
    <glyph glyph-name="Jcircumflex" unicode="&#x134;" horiz-adv-x="1036" 
d="M866 461q0 -223 -142 -349t-343 -124q-113 0 -196 32t-158 109l147 145q39 -40 83 -64t124 -24q123 0 193 74t71 217v981h221v-997zM932 1599l-178 199l-179 -199h-174l265 330h176l264 -330h-174z" />
    <glyph glyph-name="jcircumflex" unicode="&#x135;" horiz-adv-x="540" 
d="M375 -137q0 -196 -157 -263q-54 -24 -128 -24h-129v178h92q63 0 88 31t25 90v1163h209v-1175zM451 1227l-179 198l-178 -198h-174l264 329h176l265 -329h-174z" />
    <glyph glyph-name="Kcommaaccent" unicode="&#x136;" horiz-adv-x="1347" 
d="M412 0h-222v1458h222v-733l596 733h270l-473 -571l522 -887h-260l-410 719l-245 -295v-424zM715 -432h-207l143 301h168z" />
    <glyph glyph-name="kcommaaccent" unicode="&#x137;" horiz-adv-x="1122" 
d="M375 0h-209v1458h209v-899l403 479h254l-360 -407l405 -631h-258l-291 479l-153 -174v-305zM600 -432h-207l144 301h168z" />
    <glyph glyph-name="kgreenlandic" unicode="&#x138;" horiz-adv-x="1122" 
d="M375 0h-209v1038h209v-479l403 479h254l-360 -407l405 -631h-258l-291 479l-153 -174v-305z" />
    <glyph glyph-name="Lacute" unicode="&#x139;" horiz-adv-x="1175" 
d="M190 0v1458h222v-1259h702v-199h-924zM360 1599h-157l153 332h232z" />
    <glyph glyph-name="lacute" unicode="&#x13a;" horiz-adv-x="636" 
d="M444 0q-138 0 -211 80t-73 207v1171h209v-1159q1 -59 25 -90t87 -31h92v-178h-129zM336 1599h-158l154 332h231z" />
    <glyph glyph-name="Lcommaaccent" unicode="&#x13b;" horiz-adv-x="1175" 
d="M190 0v1458h222v-1259h702v-199h-924zM625 -432h-207l143 301h168z" />
    <glyph glyph-name="lcommaaccent" unicode="&#x13c;" horiz-adv-x="636" 
d="M444 0q-138 0 -211 80t-73 207v1171h209v-1159q1 -59 25 -90t87 -31h92v-178h-129zM358 -432h-206l143 301h168z" />
    <glyph glyph-name="Lcaron" unicode="&#x13d;" horiz-adv-x="1175" 
d="M190 0v1458h222v-1259h702v-199h-924zM782 1135h-153l76 325h192z" />
    <glyph glyph-name="lcaron" unicode="&#x13e;" horiz-adv-x="636" 
d="M444 0q-138 0 -211 80t-73 207v1171h209v-1159q1 -59 25 -90t87 -31h92v-178h-129zM647 1169h-153l75 326h193z" />
    <glyph glyph-name="Ldot" unicode="&#x13f;" horiz-adv-x="1175" 
d="M190 0v1458h222v-1259h702v-199h-924zM778 834h199v-199h-199v199z" />
    <glyph glyph-name="ldot" unicode="&#x140;" horiz-adv-x="696" 
d="M444 0q-138 0 -211 80t-73 207v1171h209v-1159q1 -59 25 -90t87 -31h92v-178h-129zM516 668h199v-199h-199v199z" />
    <glyph glyph-name="Lslash" unicode="&#x141;" horiz-adv-x="1202" 
d="M219 0v545l-141 -90v190l141 88v725h221v-586l289 183v-187l-289 -182v-487h701v-199h-922z" />
    <glyph glyph-name="lslash" unicode="&#x142;" horiz-adv-x="667" 
d="M473 0q-140 0 -212.5 81t-72.5 206v370l-120 -73v178l120 74v622h209v-495l144 88v-177l-144 -90v-485q0 -59 24.5 -90t88.5 -31h92v-178h-129z" />
    <glyph glyph-name="Nacute" unicode="&#x143;" horiz-adv-x="1478" 
d="M412 0h-222v1458h203l674 -1024v1024h221v-1458h-203l-673 1026v-1026zM791 1599h-158l153 332h232z" />
    <glyph glyph-name="nacute" unicode="&#x144;" 
d="M371 934q105 117 270 117t266 -100t101 -287v-664h-209v633q-1 121 -61 176t-148 55t-152 -56t-63 -175v-633h-209v1038h205v-104zM633 1227h-158l154 332h231z" />
    <glyph glyph-name="Ncommaaccent" unicode="&#x145;" horiz-adv-x="1478" 
d="M412 0h-222v1458h203l674 -1024v1024h221v-1458h-203l-673 1026v-1026zM758 -432h-207l143 301h168z" />
    <glyph glyph-name="ncommaaccent" unicode="&#x146;" 
d="M371 934q105 117 270 117t266 -100t101 -287v-664h-209v633q-1 121 -61 176t-148 55t-152 -56t-63 -175v-633h-209v1038h205v-104zM618 -432h-206l143 301h168z" />
    <glyph glyph-name="Ncaron" unicode="&#x147;" horiz-adv-x="1478" 
d="M412 0h-222v1458h203l674 -1024v1024h221v-1458h-203l-673 1026v-1026zM827 1599h-176l-264 330h174l178 -198l179 198h174z" />
    <glyph glyph-name="ncaron" unicode="&#x148;" 
d="M371 934q105 117 270 117t266 -100t101 -287v-664h-209v633q-1 121 -61 176t-148 55t-152 -56t-63 -175v-633h-209v1038h205v-104zM670 1227h-176l-265 329h174l179 -198l178 198h174z" />
    <glyph glyph-name="napostrophe" unicode="&#x149;" 
d="M371 934q105 117 270 117t266 -100t101 -287v-664h-209v633q-1 121 -61 176t-148 55t-152 -56t-63 -175v-633h-209v1038h205v-104zM-18 1503h186v-250l-186 -155v405z" />
    <glyph glyph-name="Eng" unicode="&#x14a;" horiz-adv-x="1478" 
d="M1288 -145q0 -196 -105.5 -241.5t-178.5 -45.5h-130v178h99q63 0 87.5 30.5t24.5 90.5v133l-673 1026v-1026h-222v1458h203l674 -1024v1024h221v-1603z" />
    <glyph glyph-name="eng" unicode="&#x14b;" 
d="M371 934q105 117 269 117t263 -95q105 -105 105 -292v-809q0 -195 -105.5 -241t-179.5 -46h-129v178h92q63 0 88 30.5t25 90.5v766q0 121 -60.5 176t-148.5 55t-151.5 -56t-63.5 -175v-633h-209v1038h205v-104z" />
    <glyph glyph-name="Omacron" unicode="&#x14c;" horiz-adv-x="1323" 
d="M662 1274q-131 0 -218 -90q-54 -57 -70 -148q-16 -90 -16 -310t16 -306t64 -137q93 -99 221 -99t220 92q54 58 70 147t16 310t-16 307t-70 144q-86 90 -217 90zM662 -12q-227 0 -377 147q-99 99 -123 220t-25 305q0 184 3 271q9 253 132 378q85 86 177 124q92 37 213 37
q229 -1 376 -147q100 -99 124 -220t24 -378q0 -258 -18 -340q-32 -150 -117 -236q-85 -85 -177 -123t-212 -38zM344 1778h633v-150h-633v150z" />
    <glyph glyph-name="omacron" unicode="&#x14d;" horiz-adv-x="1099" 
d="M774 520q0 86 -12 162t-66 129t-146 53t-146 -53t-66 -129t-12 -162t12 -162t66 -130t146 -54t145 54q55 54 67 130t12 162zM983 519q0 -132 -25 -231q-25 -98 -87 -164q-128 -135 -320 -136q-192 0 -311 123q-74 78 -99 177t-25 231q0 131 26 231q24 100 86 166t139 100
q76 35 182 35t183 -35q78 -34 140 -100t86 -166t25 -231zM231 1415h633v-149h-633v149z" />
    <glyph glyph-name="Obreve" unicode="&#x14e;" horiz-adv-x="1323" 
d="M662 1274q-131 0 -218 -90q-54 -57 -70 -148q-16 -90 -16 -310t16 -306t64 -137q93 -99 221 -99t220 92q54 58 70 147t16 310t-16 307t-70 144q-86 90 -217 90zM662 -12q-227 0 -377 147q-99 99 -123 220t-25 305q0 184 3 271q9 253 132 378q85 86 177 124q92 37 213 37
q229 -1 376 -147q100 -99 124 -220t24 -378q0 -258 -18 -340q-32 -150 -117 -236q-85 -85 -177 -123t-212 -38zM662 1622q-145 0 -237 72q-91 72 -101 225h147q11 -72 63 -109q52 -36 128 -36t128 36t62 109h147q-10 -153 -101 -225t-236 -72z" />
    <glyph glyph-name="obreve" unicode="&#x14f;" horiz-adv-x="1099" 
d="M774 520q0 86 -12 162t-66 129t-146 53t-146 -53t-66 -129t-12 -162t12 -162t66 -130t146 -54t145 54q55 54 67 130t12 162zM983 519q0 -132 -25 -231q-25 -98 -87 -164q-128 -135 -320 -136q-192 0 -311 123q-74 78 -99 177t-25 231q0 131 26 231q24 100 86 166t139 100
q76 35 182 35t183 -35q78 -34 140 -100t86 -166t25 -231zM550 1214q-146 0 -237 72q-90 72 -100 225h147q10 -71 62 -107t129 -36q110 0 165 78q19 27 23 65h148q-11 -153 -101 -225t-236 -72z" />
    <glyph glyph-name="Ohungarumlaut" unicode="&#x150;" horiz-adv-x="1323" 
d="M662 1274q-131 0 -218 -90q-54 -57 -70 -148q-16 -90 -16 -310t16 -306t64 -137q93 -99 221 -99t220 92q54 58 70 147t16 310t-16 307t-70 144q-86 90 -217 90zM662 -12q-227 0 -377 147q-99 99 -123 220t-25 305q0 184 3 271q9 253 132 378q85 86 177 124q92 37 213 37
q229 -1 376 -147q100 -99 124 -220t24 -378q0 -258 -18 -340q-32 -150 -117 -236q-85 -85 -177 -123t-212 -38zM360 1599l156 330h229l-227 -330h-158zM739 1599l156 330h229l-227 -330h-158z" />
    <glyph glyph-name="ohungarumlaut" unicode="&#x151;" horiz-adv-x="1099" 
d="M774 520q0 86 -12 162t-66 129t-146 53t-146 -53t-66 -129t-12 -162t12 -162t66 -130t146 -54t145 54q55 54 67 130t12 162zM983 519q0 -132 -25 -231q-25 -98 -87 -164q-128 -135 -320 -136q-192 0 -311 123q-74 78 -99 177t-25 231q0 131 26 231q24 100 86 166t139 100
q76 35 182 35t183 -35q78 -34 140 -100t86 -166t25 -231zM248 1227l155 329h230l-227 -329h-158zM627 1227l155 329h230l-228 -329h-157z" />
    <glyph glyph-name="OE" unicode="&#x152;" horiz-adv-x="2000" 
d="M965 729q0 217 -16 304.5t-62 138.5q-92 100 -226 100q-133 0 -217 -88q-54 -57 -66.5 -128t-16 -144.5t-3.5 -235t15.5 -250.5t63.5 -141q93 -101 222.5 -101t219.5 92q54 58 70 147t16 306zM965 119q-110 -131 -323 -131q-212 0 -357 147q-98 98 -123 215.5t-25 305.5
t3 275t25 191.5t120 200.5q147 147 357 147t323 -131v119h921v-196h-700v-431h596v-192h-596v-442h702v-197h-923v119z" />
    <glyph glyph-name="oe" unicode="&#x153;" horiz-adv-x="1765" 
d="M1213 877q-75 0 -127 -35.5t-73 -83.5t-25.5 -77.5t-6.5 -76.5h467q-4 47 -8 77.5t-26 76.5t-74 82.5t-127 36.5zM774 520q0 86 -12 162t-66 129t-146 53t-146 -53t-66 -129t-12 -162t12 -161.5t66 -129.5q54 -55 146 -55t145 54q54 54 66.5 130t12.5 162zM1653 551v-92
h-674q0 -135 67.5 -213t196.5 -78q88 0 143.5 25.5t108.5 80.5l133 -124q-79 -83 -167.5 -122.5t-219.5 -39.5q-242 0 -358 164q-49 -76 -134 -120t-195 -44q-198 0 -314 123q-74 78 -98.5 177t-24.5 231q-1 281 111 397q129 136 321 135q232 0 336 -166q107 166 321 166
t330.5 -138t116.5 -362z" />
    <glyph glyph-name="Racute" unicode="&#x154;" horiz-adv-x="1341" 
d="M987 1030q0 109 -68 169q-69 60 -180 61h-327v-457h327q111 0 180 59q68 59 68 168zM412 614v-614h-222v1458h566q203 0 328 -119q126 -119 124 -307q0 -158 -84 -255t-206 -132l335 -645h-258l-307 614h-276zM721 1599h-158l154 332h231z" />
    <glyph glyph-name="racute" unicode="&#x155;" horiz-adv-x="899" 
d="M582 864q-86 0 -146 -62t-61 -171v-631h-209v1038h205v-112q41 55 115 90t155 35q82 0 141 -23t113 -76l-158 -157q-35 35 -69 52t-86 17zM504 1227h-158l154 332h231z" />
    <glyph glyph-name="Rcommaaccent" unicode="&#x156;" horiz-adv-x="1341" 
d="M987 1030q0 109 -68 169q-69 60 -180 61h-327v-457h327q111 0 180 59q68 59 68 168zM412 614v-614h-222v1458h566q203 0 328 -119q126 -119 124 -307q0 -158 -84 -255t-206 -132l335 -645h-258l-307 614h-276zM688 -432h-207l144 301h168z" />
    <glyph glyph-name="rcommaaccent" unicode="&#x157;" horiz-adv-x="899" 
d="M582 864q-86 0 -146 -62t-61 -171v-631h-209v1038h205v-112q41 55 115 90t155 35q82 0 141 -23t113 -76l-158 -157q-35 35 -69 52t-86 17zM254 -432h-207l143 301h168z" />
    <glyph glyph-name="Rcaron" unicode="&#x158;" horiz-adv-x="1341" 
d="M987 1030q0 109 -68 169q-69 60 -180 61h-327v-457h327q111 0 180 59q68 59 68 168zM412 614v-614h-222v1458h566q203 0 328 -119q126 -119 124 -307q0 -158 -84 -255t-206 -132l335 -645h-258l-307 614h-276zM758 1599h-176l-265 330h175l178 -198l178 198h174z" />
    <glyph glyph-name="rcaron" unicode="&#x159;" horiz-adv-x="899" 
d="M582 864q-86 0 -146 -62t-61 -171v-631h-209v1038h205v-112q41 55 115 90t155 35q82 0 141 -23t113 -76l-158 -157q-35 35 -69 52t-86 17zM561 1227h-176l-264 329h174l178 -198l178 198h174z" />
    <glyph glyph-name="Sacute" unicode="&#x15a;" horiz-adv-x="1208" 
d="M599 184q128 0 206 58t78 164q1 106 -55 154t-162 63l-172 24q-182 29 -275 117q-109 98 -109 286t132 305q131 117 356 115q146 0 252 -38t201 -127l-140 -140q-67 65 -147 89t-192 24t-179 -64q-68 -64 -67 -163q0 -128 117 -175q36 -15 96 -26l174 -27
q179 -29 270 -108q119 -109 119 -303t-147 -310t-377 -114q-166 0 -288 43t-229 149l146 146q80 -80 172 -111t220 -31zM657 1599h-157l153 332h232z" />
    <glyph glyph-name="sacute" unicode="&#x15b;" horiz-adv-x="1021" 
d="M934 317q0 -155 -118 -242t-314 -87q-127 0 -236 30t-200 119l137 137q105 -110 299 -108q98 0 163 35t65 98t-33 94q-32 31 -107 39l-166 14q-147 14 -227 82t-80 209t109 227q109 85 255 86t243 -26t169 -90l-131 -133q-88 74 -256 76q-96 0 -142 -37q-46 -38 -46 -94
t32 -84q33 -28 111 -37l145 -13q328 -28 328 -295zM565 1227h-157l153 332h232z" />
    <glyph glyph-name="Scircumflex" unicode="&#x15c;" horiz-adv-x="1208" 
d="M599 184q128 0 206 58t78 164q1 106 -55 154t-162 63l-172 24q-182 29 -275 117q-109 98 -109 286t132 305q131 117 356 115q146 0 252 -38t201 -127l-140 -140q-67 65 -147 89t-192 24t-179 -64q-68 -64 -67 -163q0 -128 117 -175q36 -15 96 -26l174 -27
q179 -29 270 -108q119 -109 119 -303t-147 -310t-377 -114q-166 0 -288 43t-229 149l146 146q80 -80 172 -111t220 -31zM782 1599l-178 199l-178 -199h-174l264 330h176l264 -330h-174z" />
    <glyph glyph-name="scircumflex" unicode="&#x15d;" horiz-adv-x="1021" 
d="M934 317q0 -155 -118 -242t-314 -87q-127 0 -236 30t-200 119l137 137q105 -110 299 -108q98 0 163 35t65 98t-33 94q-32 31 -107 39l-166 14q-147 14 -227 82t-80 209t109 227q109 85 255 86t243 -26t169 -90l-131 -133q-88 74 -256 76q-96 0 -142 -37q-46 -38 -46 -94
t32 -84q33 -28 111 -37l145 -13q328 -28 328 -295zM707 1227l-179 198l-178 -198h-174l264 329h176l265 -329h-174z" />
    <glyph glyph-name="Scedilla" unicode="&#x15e;" horiz-adv-x="1208" 
d="M599 184q128 0 206 58t78 164q1 106 -55 154t-162 63l-172 24q-182 29 -275 117q-109 98 -109 286t132 305q131 117 356 115q146 0 252 -38t201 -127l-140 -140q-67 65 -147 89t-192 24t-179 -64q-68 -64 -67 -163q0 -128 117 -175q36 -15 96 -26l174 -27
q179 -29 270 -108q119 -109 119 -303t-147 -310t-377 -114q-166 0 -288 43t-229 149l146 146q80 -80 172 -111t220 -31zM641 -432h-207l144 301h167z" />
    <glyph glyph-name="scedilla" unicode="&#x15f;" horiz-adv-x="1021" 
d="M934 317q0 -155 -118 -242t-314 -87q-127 0 -236 30t-200 119l137 137q105 -110 299 -108q98 0 163 35t65 98t-33 94q-32 31 -107 39l-166 14q-147 14 -227 82t-80 209t109 227q109 85 255 86t243 -26t169 -90l-131 -133q-88 74 -256 76q-96 0 -142 -37q-46 -38 -46 -94
t32 -84q33 -28 111 -37l145 -13q328 -28 328 -295zM549 -432h-207l143 301h168z" />
    <glyph glyph-name="Scaron" unicode="&#x160;" horiz-adv-x="1208" 
d="M599 184q128 0 206 58t78 164q1 106 -55 154t-162 63l-172 24q-182 29 -275 117q-109 98 -109 286t132 305q131 117 356 115q146 0 252 -38t201 -127l-140 -140q-67 65 -147 89t-192 24t-179 -64q-68 -64 -67 -163q0 -128 117 -175q36 -15 96 -26l174 -27
q179 -29 270 -108q119 -109 119 -303t-147 -310t-377 -114q-166 0 -288 43t-229 149l146 146q80 -80 172 -111t220 -31zM686 1599h-176l-264 330h174l178 -198l178 198h174z" />
    <glyph glyph-name="scaron" unicode="&#x161;" horiz-adv-x="1021" 
d="M934 317q0 -155 -118 -242t-314 -87q-127 0 -236 30t-200 119l137 137q105 -110 299 -108q98 0 163 35t65 98t-33 94q-32 31 -107 39l-166 14q-147 14 -227 82t-80 209t109 227q109 85 255 86t243 -26t169 -90l-131 -133q-88 74 -256 76q-96 0 -142 -37q-46 -38 -46 -94
t32 -84q33 -28 111 -37l145 -13q328 -28 328 -295zM596 1227h-176l-264 329h174l178 -198l178 198h174z" />
    <glyph glyph-name="Tcommaaccent" unicode="&#x162;" horiz-adv-x="1146" 
d="M684 1260v-1260h-221v1260h-402v198h1024v-198h-401zM553 -432h-207l143 301h168z" />
    <glyph glyph-name="tcommaaccent" unicode="&#x163;" horiz-adv-x="700" 
d="M399 299q0 -121 115 -121h86v-178h-125q-135 0 -209 83t-76 206v590h-118v159h118v297h209v-297h201v-159h-201v-580zM389 -432h-207l144 301h168z" />
    <glyph glyph-name="Tcaron" unicode="&#x164;" horiz-adv-x="1146" 
d="M684 1260v-1260h-221v1260h-402v198h1024v-198h-401zM664 1599h-177l-264 330h174l178 -198l179 198h174z" />
    <glyph glyph-name="tcaron" unicode="&#x165;" horiz-adv-x="700" 
d="M399 299q0 -121 115 -121h86v-178h-125q-135 0 -209 83t-76 206v590h-118v159h118v297h209v-297h201v-159h-201v-580zM678 1169h-154l76 326h193z" />
    <glyph glyph-name="Tbar" unicode="&#x166;" horiz-adv-x="1146" 
d="M684 1260v-439h217v-170h-217v-651h-221v651h-217v170h217v439h-402v198h1024v-198h-401z" />
    <glyph glyph-name="tbar" unicode="&#x167;" horiz-adv-x="700" 
d="M399 299q0 -121 115 -121h86v-178h-125q-137 0 -211 84.5t-74 204.5v200h-118v160h118v230h-118v159h118v297h209v-297h201v-159h-201v-230h201v-160h-201v-190z" />
    <glyph glyph-name="Utilde" unicode="&#x168;" horiz-adv-x="1382" 
d="M1214 492q0 -226 -150 -365t-373 -139q-224 0 -374 139q-149 140 -149 365v966h221v-956q0 -148 82 -232t219 -84t220 84t83 232v956h221v-966zM568 1706q-36 0 -60 -9t-68 -52l-98 96q70 69 117 91q116 53 250 -28q64 -37 117 -38q52 -1 116 63l98 -96q-70 -70 -118 -92
q-87 -40 -173 -9q-34 12 -90 43q-55 31 -91 31z" />
    <glyph glyph-name="utilde" unicode="&#x169;" 
d="M156 1038h209v-632q0 -120 60 -176t148 -56q149 0 198 128q17 44 17 104v632h209v-1038h-204v104q-106 -118 -270 -117t-263 95q-106 106 -104 293v663zM806 1268q-48 -22 -105 -21q-57 0 -136 43t-114 43q-37 0 -61 -9t-66 -52l-99 96q70 70 117 92t107 21q60 0 135 -44
t127 -44t114 63l99 -96q-70 -70 -118 -92z" />
    <glyph glyph-name="Umacron" unicode="&#x16a;" horiz-adv-x="1382" 
d="M1214 492q0 -226 -150 -365t-373 -139q-224 0 -374 139q-149 140 -149 365v966h221v-956q0 -148 82 -232t219 -84t220 84t83 232v956h221v-966zM373 1778h633v-150h-633v150z" />
    <glyph glyph-name="umacron" unicode="&#x16b;" 
d="M156 1038h209v-632q0 -120 60 -176t148 -56q149 0 198 128q17 44 17 104v632h209v-1038h-204v104q-106 -118 -270 -117t-263 95q-106 106 -104 293v663zM262 1415h633v-149h-633v149z" />
    <glyph glyph-name="Ubreve" unicode="&#x16c;" horiz-adv-x="1382" 
d="M1214 492q0 -226 -150 -365t-373 -139q-224 0 -374 139q-149 140 -149 365v966h221v-956q0 -148 82 -232t219 -84t220 84t83 232v956h221v-966zM690 1622q-146 0 -236 72q-91 72 -102 225h148q10 -72 62 -109q52 -36 128 -36t128 36t63 109h147q-10 -153 -101 -225
t-237 -72z" />
    <glyph glyph-name="ubreve" unicode="&#x16d;" 
d="M156 1038h209v-632q0 -120 60 -176t148 -56q149 0 198 128q17 44 17 104v632h209v-1038h-204v104q-106 -118 -270 -117t-263 95q-106 106 -104 293v663zM572 1214q-146 0 -236 72t-100 225h147q10 -71 61 -107t125 -36t112 26q72 48 81 117h147q-10 -153 -100 -225
q-91 -72 -237 -72z" />
    <glyph glyph-name="Uring" unicode="&#x16e;" horiz-adv-x="1382" 
d="M1214 492q0 -226 -150 -365t-373 -139q-224 0 -374 139q-149 140 -149 365v966h221v-956q0 -148 82 -232t219 -84t220 84t83 232v956h221v-966zM821 1808q0 54 -39 92t-92 38t-92 -38t-39 -92t39 -91q39 -38 92 -38t92 38t39 91zM946 1807q0 -106 -75 -179
q-75 -74 -180 -75t-180 74t-76 181t75 180q76 76 181 76q106 0 181 -76q74 -76 74 -181z" />
    <glyph glyph-name="uring" unicode="&#x16f;" 
d="M156 1038h209v-632q0 -120 60 -176t148 -56q149 0 198 128q17 44 17 104v632h209v-1038h-204v104q-106 -118 -270 -117t-263 95q-106 106 -104 293v663zM713 1436q0 53 -39 91t-92 38q-52 0 -92 -38t-40 -91t40 -91q38 -38 92 -38t92 38q39 38 39 91zM401 1255
q-75 75 -75 181t75 180q75 75 180 75q105 1 181 -75t76 -180t-76 -180t-180 -76q-106 0 -181 75z" />
    <glyph glyph-name="Uhungarumlaut" unicode="&#x170;" horiz-adv-x="1382" 
d="M1214 492q0 -226 -150 -365t-373 -139q-224 0 -374 139q-149 140 -149 365v966h221v-956q0 -148 82 -232t219 -84t220 84t83 232v956h221v-966zM389 1599l156 330h229l-227 -330h-158zM768 1599l156 330h229l-227 -330h-158z" />
    <glyph glyph-name="uhungarumlaut" unicode="&#x171;" 
d="M156 1038h209v-632q0 -120 60 -176t148 -56q149 0 198 128q17 44 17 104v632h209v-1038h-204v104q-106 -118 -270 -117t-263 95q-106 106 -104 293v663zM281 1227l155 329h230l-228 -329h-157zM659 1227l156 329h229l-227 -329h-158z" />
    <glyph glyph-name="Uogonek" unicode="&#x172;" horiz-adv-x="1382" 
d="M1214 492q0 -226 -150 -365t-373 -139q-224 0 -374 139q-149 140 -149 365v966h221v-956q0 -148 82 -232t219 -84t220 84t83 232v956h221v-966zM909 -432h-207l144 301h168z" />
    <glyph glyph-name="uogonek" unicode="&#x173;" 
d="M156 1038h209v-632q0 -120 60 -176t148 -56q149 0 198 128q17 44 17 104v632h209v-1038h-204v104q-106 -118 -270 -117t-263 95q-106 106 -104 293v663zM856 -432h-207l144 301h168z" />
    <glyph glyph-name="Wcircumflex" unicode="&#x174;" horiz-adv-x="1783" 
d="M1380 0h-192l-297 1022l-295 -1022h-193l-380 1458h233l254 -1042l293 1042h178l293 -1042l254 1042h233zM1069 1599l-178 199l-178 -199h-174l264 330h176l264 -330h-174z" />
    <glyph glyph-name="wcircumflex" unicode="&#x175;" horiz-adv-x="1521" 
d="M1182 0h-178l-244 725l-242 -725h-180l-322 1038h222l200 -731l242 731h162l239 -731l201 731h223zM938 1227l-178 198l-178 -198h-174l264 329h176l264 -329h-174z" />
    <glyph glyph-name="Ycircumflex" unicode="&#x176;" horiz-adv-x="1114" 
d="M668 0h-222v600l-436 858h242l305 -641l305 641h242l-436 -858v-600zM737 1599l-178 199l-178 -199h-174l264 330h176l264 -330h-174z" />
    <glyph glyph-name="ycircumflex" unicode="&#x177;" horiz-adv-x="958" 
d="M119 -412v189h53q66 -1 96 23t54 87l57 162l-363 989h222l247 -731l242 731h223l-458 -1245q-54 -154 -175 -188q-55 -16 -114 -17h-84zM664 1227l-179 198l-178 -198h-174l264 329h176l265 -329h-174z" />
    <glyph glyph-name="Ydieresis" unicode="&#x178;" horiz-adv-x="1114" 
d="M668 0h-222v600l-436 858h242l305 -641l305 641h242l-436 -858v-600zM244 1610v221h188v-221h-188zM684 1610v221h188v-221h-188z" />
    <glyph glyph-name="Zacute" unicode="&#x179;" horiz-adv-x="1130" 
d="M98 0v190l674 1070h-645v198h905v-180l-678 -1079h678v-199h-934zM618 1599h-157l153 332h232z" />
    <glyph glyph-name="zacute" unicode="&#x17a;" horiz-adv-x="960" 
d="M88 0v166l516 686h-487v186h745v-166l-520 -686h520v-186h-774zM535 1227h-158l153 332h232z" />
    <glyph glyph-name="Zdotaccent" unicode="&#x17b;" horiz-adv-x="1130" 
d="M98 0v190l674 1070h-645v198h905v-180l-678 -1079h678v-199h-934zM463 1823h199v-199h-199v199z" />
    <glyph glyph-name="zdotaccent" unicode="&#x17c;" horiz-adv-x="960" 
d="M88 0v166l516 686h-487v186h745v-166l-520 -686h520v-186h-774zM383 1450h199v-199h-199v199z" />
    <glyph glyph-name="Zcaron" unicode="&#x17d;" horiz-adv-x="1130" 
d="M98 0v190l674 1070h-645v198h905v-180l-678 -1079h678v-199h-934zM664 1599h-177l-264 330h174l178 -198l179 198h174z" />
    <glyph glyph-name="zcaron" unicode="&#x17e;" horiz-adv-x="960" 
d="M88 0v166l516 686h-487v186h745v-166l-520 -686h520v-186h-774zM578 1227h-177l-264 329h174l178 -198l179 198h174z" />
    <glyph glyph-name="longs" unicode="&#x17f;" horiz-adv-x="540" 
d="M489 1290q-114 0 -114 -121v-1169h-209v1180q0 118 73 203t212 85h131v-178h-93z" />
    <glyph glyph-name="uni018F" unicode="&#x18f;" horiz-adv-x="1329" 
d="M356 518q0 -146 72 -229q89 -105 230 -105t227 90q46 51 63 122t21 204h-613v-82zM135 788h836q0 251 -31 310t-55 86q-86 90 -213 90t-205 -66.5t-107 -187.5h-221q29 194 168 322t365 128q227 0 372 -147q98 -98 123 -215.5t25 -305.5t-3 -275t-25 -191.5t-120 -200.5
q-147 -147 -383 -147t-395 166q-72 78 -101.5 173t-29.5 238v223z" />
    <glyph glyph-name="florin" unicode="&#x192;" horiz-adv-x="849" 
d="M668 1290q-113 0 -136 -121l-65 -368h207v-160h-236l-186 -1061h-209l186 1061h-168v160h197l68 379q35 192 147.5 240t185.5 48h129v-178h-120z" />
    <glyph glyph-name="uni01B5" unicode="&#x1b5;" horiz-adv-x="1130" 
d="M98 0v190l291 461h-149v170h256l276 439h-645v198h905v-180l-287 -457h150v-170h-256l-285 -452h678v-199h-934z" />
    <glyph glyph-name="uni01B6" unicode="&#x1b6;" horiz-adv-x="960" 
d="M88 0v166l209 278h-57v150h170l194 258h-487v186h745v-166l-211 -278h60v-150h-174l-195 -258h520v-186h-774z" />
    <glyph glyph-name="uni01C4" unicode="&#x1c4;" horiz-adv-x="2494" 
d="M1006 729q0 164 -13 268q-12 105 -62 161q-92 105 -253 104h-266v-1065h266q159 0 250 100q54 59 66 163t12 269zM190 0v1458h512q136 0 236 -44t178 -140q99 -124 109 -379q2 -78 2 -233q1 -155 -13 -233q-26 -153 -101 -247q-145 -182 -411 -182h-512zM1462 0v190
l674 1070h-645v198h905v-180l-678 -1079h678v-199h-934zM2028 1599h-177l-264 330h174l178 -198l179 198h174z" />
    <glyph glyph-name="uni01C5" unicode="&#x1c5;" horiz-adv-x="2324" 
d="M1006 729q0 164 -13 268q-12 105 -62 161q-92 105 -253 104h-266v-1065h266q159 0 250 100q54 59 66 163t12 269zM190 0v1458h512q136 0 236 -44t178 -140q99 -124 109 -379q2 -78 2 -233q1 -155 -13 -233q-26 -153 -101 -247q-145 -182 -411 -182h-512zM1452 0v166
l516 686h-487v186h745v-166l-520 -686h520v-186h-774zM1942 1227h-177l-264 329h174l178 -198l179 198h174z" />
    <glyph glyph-name="uni01C6" unicode="&#x1c6;" horiz-adv-x="2093" 
d="M758 520q0 165 -30 227t-73 90q-43 27 -113 27q-188 -1 -209 -212q-7 -62 -7 -179t30 -180t72 -91q43 -28 114 -28q129 0 179 104q37 77 37 242zM762 0v111q-59 -72 -124 -98q-65 -25 -147 -25q-167 1 -250 85q-84 85 -104 201t-20 256t16 216q29 135 100 212
q93 93 252 93q84 0 150 -25t123 -92v524h209v-1458h-205zM1221 0v166l516 686h-488v186h746v-166l-520 -686h520v-186h-774zM1710 1227h-176l-264 329h174l178 -198l178 198h174z" />
    <glyph glyph-name="uni01C7" unicode="&#x1c7;" horiz-adv-x="2211" 
d="M190 0v1458h222v-1259h702v-199h-924zM2042 461q0 -223 -142 -349t-344 -124q-114 0 -196 32t-158 109l148 145q39 -40 83 -64t123 -24q123 0 194 74t71 217v981h221v-997z" />
    <glyph glyph-name="uni01C8" unicode="&#x1c8;" horiz-adv-x="1716" 
d="M190 0v1458h222v-1259h702v-199h-924zM1335 1243v221h221v-221h-221zM1550 -137q0 -197 -156 -263q-54 -24 -128 -24h-129v178h92q63 0 88 31t24 90v1163h209v-1175z" />
    <glyph glyph-name="uni01C9" unicode="&#x1c9;" horiz-adv-x="1177" 
d="M444 0q-138 0 -211 80t-73 207v1171h209v-1159q1 -59 25 -90t87 -31h92v-178h-129zM797 1243v221h221v-221h-221zM1012 -137q0 -196 -157 -263q-54 -24 -128 -24h-129v178h92q63 0 88 31t25 90v1163h209v-1175z" />
    <glyph glyph-name="uni01CA" unicode="&#x1ca;" horiz-adv-x="2514" 
d="M412 0h-222v1458h203l674 -1024v1024h221v-1458h-203l-673 1026v-1026zM2345 461q0 -223 -142 -349t-343 -124q-113 0 -196 32t-159 109l148 145q39 -40 83 -64t124 -24q124 0 194 74t70 217v981h221v-997z" />
    <glyph glyph-name="uni01CB" unicode="&#x1cb;" horiz-adv-x="2019" 
d="M412 0h-222v1458h203l674 -1024v1024h221v-1458h-203l-673 1026v-1026zM1638 1243v221h222v-221h-222zM1853 -137q0 -197 -156 -263q-54 -24 -128 -24h-129v178h92q63 0 88 31t25 90v1163h208v-1175z" />
    <glyph glyph-name="uni01CC" unicode="&#x1cc;" horiz-adv-x="1703" 
d="M371 934q105 117 270 117t266 -100t101 -287v-664h-209v633q-1 121 -61 176t-148 55t-152 -56t-63 -175v-633h-209v1038h205v-104zM1323 1243v221h221v-221h-221zM1538 -137q0 -196 -157 -263q-54 -24 -128 -24h-129v178h93q63 0 88 31t24 90v1163h209v-1175z" />
    <glyph glyph-name="uni01F1" unicode="&#x1f1;" horiz-adv-x="2494" 
d="M1006 729q0 164 -13 268q-12 105 -62 161q-92 105 -253 104h-266v-1065h266q159 0 250 100q54 59 66 163t12 269zM190 0v1458h512q136 0 236 -44t178 -140q99 -124 109 -379q2 -78 2 -233q1 -155 -13 -233q-26 -153 -101 -247q-145 -182 -411 -182h-512zM1462 0v190
l674 1070h-645v198h905v-180l-678 -1079h678v-199h-934z" />
    <glyph glyph-name="uni01F2" unicode="&#x1f2;" horiz-adv-x="2324" 
d="M1006 729q0 164 -13 268q-12 105 -62 161q-92 105 -253 104h-266v-1065h266q159 0 250 100q54 59 66 163t12 269zM190 0v1458h512q136 0 236 -44t178 -140q99 -124 109 -379q2 -78 2 -233q1 -155 -13 -233q-26 -153 -101 -247q-145 -182 -411 -182h-512zM1452 0v166
l516 686h-487v186h745v-166l-520 -686h520v-186h-774z" />
    <glyph glyph-name="uni01F3" unicode="&#x1f3;" horiz-adv-x="2093" 
d="M758 520q0 165 -30 227t-73 90q-43 27 -113 27q-188 -1 -209 -212q-7 -62 -7 -179t30 -180t72 -91q43 -28 114 -28q129 0 179 104q37 77 37 242zM762 0v111q-59 -72 -124 -98q-65 -25 -147 -25q-167 1 -250 85q-84 85 -104 201t-20 256t16 216q29 135 100 212
q93 93 252 93q84 0 150 -25t123 -92v524h209v-1458h-205zM1221 0v166l516 686h-488v186h746v-166l-520 -686h520v-186h-774z" />
    <glyph glyph-name="Aringacute" unicode="&#x1fa;" horiz-adv-x="1280" 
d="M645 1128l-227 -647h448zM1028 0l-100 293h-576l-100 -293h-236l535 1458h178l535 -1458h-236zM766 1792q0 53 -39 91t-92 38t-92 -38t-39 -91t39 -91t92 -38t92 38t39 91zM891 1792q-1 -53 -21 -99q-42 -94 -136 -137q-46 -20 -99 -20q-106 0 -181 76t-75 181t76 180
t181 75t180 -76t75 -180zM688 2068h-158l154 332h231z" />
    <glyph glyph-name="aringacute" unicode="&#x1fb;" horiz-adv-x="1085" 
d="M481 459q-190 -1 -190 -149t196 -148q55 0 101 10t90 51q43 41 43 152v84h-240zM721 678q1 194 -207 194q-104 0 -154 -24t-94 -78l-135 129q107 124 253 144q52 7 118 8q426 0 428 -357v-694h-205v94q-57 -57 -119 -82q-62 -24 -158 -24q-184 1 -278 94q-82 86 -82 220
t90 218t271 84h272v74zM657 1436q0 53 -39 91t-92 38t-92 -38t-39 -91t39 -91t92 -38t92 38t39 91zM707 1255q-75 -75 -181 -75t-180 75q-75 75 -75 180q-1 105 74 180t181 76t180 -75q76 -76 76 -180q0 -106 -75 -181zM580 1712h-158l153 332h232z" />
    <glyph glyph-name="AEacute" unicode="&#x1fc;" horiz-adv-x="1949" 
d="M905 520v740l-385 -740h385zM905 0v332h-481l-172 -332h-242l766 1458h1061v-198h-711v-429h607v-198h-607v-434h711v-199h-932zM1075 1599h-157l153 332h232z" />
    <glyph glyph-name="aeacute" unicode="&#x1fd;" horiz-adv-x="1714" 
d="M481 459q-190 -1 -190 -149t196 -148q55 0 101 10t90 51q43 41 43 152v84h-240zM1162 877q-147 0 -206 -132q-22 -48 -26 -141h467q-4 47 -8 77q-4 31 -26 77t-74 82t-127 37zM721 678q1 194 -207 194q-104 0 -154 -24t-94 -78l-135 129q107 124 253 144q52 7 118 8
q254 0 352 -138q104 138 310 138t322 -139t116 -365v-88h-674q0 -135 68 -213t196 -78q88 0 143 26t109 80l133 -124q-80 -84 -145 -113q-114 -49 -244 -49q-246 0 -367 162q-80 -96 -166 -130t-195 -32q-196 1 -290 94q-82 86 -82 220t90 218t271 84h272v74zM895 1227h-158
l154 332h231z" />
    <glyph glyph-name="Oslashacute" unicode="&#x1fe;" horiz-adv-x="1323" 
d="M649 184q138 0 230 92q54 58 70 148t16 318q-1 227 -15 288q-14 62 -26 88l-424 -887q70 -47 149 -47zM662 1274q-131 0 -218 -90q-54 -57 -70 -148q-16 -90 -16 -321q0 -232 16 -290q16 -59 27 -85l424 887q-70 47 -163 47zM652 -12q-130 0 -236 53l-62 -131h-168
l105 219q-106 106 -130 226q-24 121 -24 305t3 271q9 253 132 378q85 86 177 124q92 37 222 37t236 -53l62 131h170l-107 -219q106 -102 130 -224t24 -380t-18 -340q-32 -150 -117 -236q-85 -85 -177 -123t-222 -38zM713 1599h-158l154 332h231z" />
    <glyph glyph-name="oslashacute" unicode="&#x1ff;" horiz-adv-x="1099" 
d="M538 864q-80 0 -134 -53t-66 -129t-12 -195t30 -190l316 532q-53 35 -134 35zM561 174q80 0 134 54q55 54 67 130t12 196t-31 189l-315 -532q53 -37 133 -37zM555 1051q112 0 209 -52l76 129h141l-121 -200q74 -78 98 -178t25 -231q0 -277 -120 -404t-314 -127
q-118 0 -213 51l-76 -129h-141l119 203q-74 78 -98 177t-23 230q1 130 25 230t98 178q118 123 315 123zM600 1227h-158l154 332h231z" />
    <glyph glyph-name="Scommaaccent" unicode="&#x218;" horiz-adv-x="1208" 
d="M599 184q128 0 206 58t78 164q1 106 -55 154t-162 63l-172 24q-182 29 -275 117q-109 98 -109 286t132 305q131 117 356 115q146 0 252 -38t201 -127l-140 -140q-67 65 -147 89t-192 24t-179 -64q-68 -64 -67 -163q0 -128 117 -175q36 -15 96 -26l174 -27
q179 -29 270 -108q119 -109 119 -303t-147 -310t-377 -114q-166 0 -288 43t-229 149l146 146q80 -80 172 -111t220 -31zM641 -432h-207l144 301h167z" />
    <glyph glyph-name="scommaaccent" unicode="&#x219;" horiz-adv-x="1021" 
d="M934 317q0 -155 -118 -242t-314 -87q-127 0 -236 30t-200 119l137 137q105 -110 299 -108q98 0 163 35t65 98t-33 94q-32 31 -107 39l-166 14q-147 14 -227 82t-80 209t109 227q109 85 255 86t243 -26t169 -90l-131 -133q-88 74 -256 76q-96 0 -142 -37q-46 -38 -46 -94
t32 -84q33 -28 111 -37l145 -13q328 -28 328 -295zM551 -432h-207l143 301h168z" />
    <glyph glyph-name="uni021A" unicode="&#x21a;" horiz-adv-x="1146" 
d="M684 1260v-1260h-221v1260h-402v198h1024v-198h-401zM553 -432h-207l143 301h168z" />
    <glyph glyph-name="uni021B" unicode="&#x21b;" horiz-adv-x="700" 
d="M399 299q0 -121 115 -121h86v-178h-125q-135 0 -209 83t-76 206v590h-118v159h118v297h209v-297h201v-159h-201v-580zM389 -432h-207l144 301h168z" />
    <glyph glyph-name="uni0237" unicode="&#x237;" horiz-adv-x="540" 
d="M375 -137q0 -195 -105.5 -241t-179.5 -46h-129v178h92q63 0 88 31t25 90v1163h209v-1175z" />
    <glyph glyph-name="uni0259" unicode="&#x259;" horiz-adv-x="1103" 
d="M346 293q60 -131 206 -131q147 0 206 131q22 48 26 141h-467q8 -95 29 -141zM784 580q0 135 -67.5 212.5t-196.5 77.5q-88 0 -142 -25.5t-110 -80.5l-133 125q83 83 171.5 122.5t202.5 39.5q228 0 355 -126.5t127 -394.5t-119.5 -405t-324.5 -137t-320.5 137.5
t-115.5 366.5v88h673z" />
    <glyph glyph-name="uni02BB" unicode="&#x2bb;" horiz-adv-x="548" 
d="M160 1245v213l229 191v-404h-229z" />
    <glyph glyph-name="afii57929" unicode="&#x2bc;" horiz-adv-x="548" 
d="M160 1458h229v-215l-229 -186v401z" />
    <glyph glyph-name="circumflex" unicode="&#x2c6;" horiz-adv-x="1024" 
d="M692 1227l-178 198l-178 -198h-174l264 329h176l264 -329h-174z" />
    <glyph glyph-name="caron" unicode="&#x2c7;" horiz-adv-x="1024" 
d="M600 1227h-176l-264 329h174l178 -198l178 198h174z" />
    <glyph glyph-name="breve" unicode="&#x2d8;" horiz-adv-x="1024" 
d="M511 1214q-146 0 -236.5 72t-100.5 225h148q10 -72 61 -107.5t144 -35.5t131 52.5t42 90.5h148q-10 -154 -100.5 -225.5t-236.5 -71.5z" />
    <glyph glyph-name="dotaccent" unicode="&#x2d9;" horiz-adv-x="1024" 
d="M412 1450h198v-199h-198v199z" />
    <glyph glyph-name="ring" unicode="&#x2da;" horiz-adv-x="1024" 
d="M643 1435.5q0 53.5 -39 91.5t-92 38t-92 -38t-39 -91.5t39 -91t92 -37.5t92 37.5t39 91zM768 1435.5q0 -53.5 -20.5 -99.5t-55.5 -80.5t-81 -55t-99 -20.5t-99 20.5t-81 55t-55.5 80.5t-20.5 99.5t20.5 99.5t55.5 81t81 55.5t99 20.5t99 -20.5t81 -55.5t55.5 -81
t20.5 -99.5z" />
    <glyph glyph-name="ogonek" unicode="&#x2db;" horiz-adv-x="1024" 
d="M692 -432h-207l144 301h168z" />
    <glyph glyph-name="tilde" unicode="&#x2dc;" horiz-adv-x="1099" 
d="M775 1268.5q-48 -21.5 -105 -21.5t-136 43t-114 43t-59.5 -9t-67.5 -52l-98 96q70 70 116.5 91.5t106.5 21.5t135 -44t127 -44t115 63l98 -96q-70 -70 -118 -91.5z" />
    <glyph glyph-name="hungarumlaut" unicode="&#x2dd;" horiz-adv-x="1024" 
d="M170 1227l156 329h229l-227 -329h-158zM549 1227l156 329h229l-227 -329h-158z" />
    <glyph glyph-name="uni037E" unicode="&#x37e;" horiz-adv-x="620" 
d="M213 584v250h248v-250h-248zM217 238h238v-361l-238 -194v555z" />
    <glyph glyph-name="tonos" unicode="&#x384;" horiz-adv-x="491" 
d="M147 1458h209v-209l-209 -90v299z" />
    <glyph glyph-name="dieresistonos" unicode="&#x385;" horiz-adv-x="962" 
d="M102 1176v221h189v-221h-189zM377 1458h209v-209l-209 -90v299zM672 1176v221h188v-221h-188z" />
    <glyph glyph-name="Alphatonos" unicode="&#x386;" horiz-adv-x="1280" 
d="M645 1128l-227 -647h448zM1028 0l-100 293h-576l-100 -293h-236l535 1458h178l535 -1458h-236zM-16 1458h209v-209l-209 -90v299z" />
    <glyph glyph-name="anoteleia" unicode="&#x387;" horiz-adv-x="569" 
d="M160 444v250h250v-250h-250z" />
    <glyph glyph-name="Epsilontonos" unicode="&#x388;" horiz-adv-x="1234" 
d="M-180 1458h209v-209l-209 -90v299zM190 0v1458h932v-198h-710v-426h606v-197h-606v-438h710v-199h-932z" />
    <glyph glyph-name="Etatonos" unicode="&#x389;" horiz-adv-x="1415" 
d="M1004 0v637h-592v-637h-222v1458h222v-622h592v622h221v-1458h-221zM-180 1458h209v-209l-209 -90v299z" />
    <glyph glyph-name="Iotatonos" unicode="&#x38a;" horiz-adv-x="602" 
d="M190 0v1458h222v-1458h-222zM-180 1458h209v-209l-209 -90v299z" />
    <glyph glyph-name="Omicrontonos" unicode="&#x38c;" horiz-adv-x="1323" 
d="M662 1274q-131 0 -218 -90q-54 -57 -70 -148q-16 -90 -16 -310t16 -306t64 -137q93 -99 221 -99t220 92q54 58 70 147t16 310t-16 307t-70 144q-86 90 -217 90zM662 -12q-227 0 -377 147q-99 99 -123 220t-25 305q0 184 3 271q9 253 132 378q85 86 177 124q92 37 213 37
q229 -1 376 -147q100 -99 124 -220t24 -378q0 -258 -18 -340q-32 -150 -117 -236q-85 -85 -177 -123t-212 -38zM-137 1458h209v-209l-209 -90v299z" />
    <glyph glyph-name="Upsilontonos" unicode="&#x38e;" horiz-adv-x="1114" 
d="M668 0h-222v600l-436 858h242l305 -641l305 641h242l-436 -858v-600zM-242 1458h209v-209l-209 -90v299z" />
    <glyph glyph-name="Omegatonos" unicode="&#x38f;" horiz-adv-x="1325" 
d="M-139 1458h209v-209l-209 -90v299zM1186 719q0 -125 -10 -246t-78 -216q-20 -30 -56 -60h144v-197h-424v178q138 65 176 182q27 94 27 341t-16 335t-64 139q-93 99 -221 99t-220 -92q-54 -58 -70 -151t-16 -293t13 -297t42 -140q57 -82 148 -123v-178h-424v197h146
q-123 109 -138 297q-8 100 -8 298q-1 198 17 281q32 150 118 236q85 86 177 124q92 37 213 37q229 -1 376 -147q53 -53 83 -111q53 -104 61 -282q4 -86 4 -211z" />
    <glyph glyph-name="iotadieresistonos" unicode="&#x390;" horiz-adv-x="636" 
d="M444 0q-138 0 -211 80t-73 207v751h209v-739q1 -59 25 -90t87 -31h92v-178h-129zM-100 1176v221h188v-221h-188zM174 1458h209v-209l-209 -90v299zM469 1176v221h188v-221h-188z" />
    <glyph glyph-name="Alpha" unicode="&#x391;" horiz-adv-x="1280" 
d="M645 1128l-227 -647h448zM1028 0l-100 293h-576l-100 -293h-236l535 1458h178l535 -1458h-236z" />
    <glyph glyph-name="Beta" unicode="&#x392;" horiz-adv-x="1357" 
d="M977 1051q0 102 -66 155t-172 54h-327v-418h327q106 0 172 54t66 155zM999 422q0 98 -61 160t-178 61h-348v-444h348q117 1 178 63t61 160zM1221 397q0 -85 -33 -163q-66 -155 -231 -207q-81 -27 -177 -27h-590v1458h568q204 0 322 -106t118 -293q0 -111 -59 -195
t-138 -114q43 -16 82 -47q138 -106 138 -306z" />
    <glyph glyph-name="Gamma" unicode="&#x393;" horiz-adv-x="1159" 
d="M412 1260v-1260h-222v1458h912v-198h-690z" />
    <glyph glyph-name="uni0394" unicode="&#x394;" horiz-adv-x="1267" 
d="M637 1128l-332 -940h662zM10 0l535 1458h178l532 -1458h-1245z" />
    <glyph glyph-name="Epsilon" unicode="&#x395;" horiz-adv-x="1234" 
d="M190 0v1458h932v-198h-710v-426h606v-197h-606v-438h710v-199h-932z" />
    <glyph glyph-name="Zeta" unicode="&#x396;" horiz-adv-x="1130" 
d="M98 0v190l674 1070h-645v198h905v-180l-678 -1079h678v-199h-934z" />
    <glyph glyph-name="Eta" unicode="&#x397;" horiz-adv-x="1415" 
d="M1004 0v637h-592v-637h-222v1458h222v-622h592v622h221v-1458h-221z" />
    <glyph glyph-name="Theta" unicode="&#x398;" horiz-adv-x="1323" 
d="M693.5 184q97.5 0 185.5 92q46 46 64 118t22 235h-607q4 -163 29 -263.5t117 -141t189.5 -40.5zM662 1274q-132 0 -218 -90q-47 -51 -64.5 -122.5t-21.5 -236.5h607q-4 165 -21 235t-65 124q-85 90 -217 90zM1038 135q-147 -147 -377.5 -147t-375.5 147
q-98 98 -123 215.5t-25 305.5t3 275t25 191.5t120 200.5q147 147 377.5 147t375.5 -147q98 -98 123 -215.5t25 -305.5t-3 -275t-25 -191.5t-120 -200.5z" />
    <glyph glyph-name="Iota" unicode="&#x399;" horiz-adv-x="602" 
d="M190 0v1458h222v-1458h-222z" />
    <glyph glyph-name="Kappa" unicode="&#x39a;" horiz-adv-x="1347" 
d="M412 0h-222v1458h222v-733l596 733h270l-473 -571l522 -887h-260l-410 719l-245 -295v-424z" />
    <glyph glyph-name="Lambda" unicode="&#x39b;" horiz-adv-x="1210" 
d="M950 0l-340 1128l-348 -1128h-233l477 1458h199l477 -1458h-232z" />
    <glyph glyph-name="Mu" unicode="&#x39c;" horiz-adv-x="1665" 
d="M1255 0v975l-335 -711h-164l-344 711v-975h-222v1458h222l426 -907l417 907h222v-1458h-222z" />
    <glyph glyph-name="Nu" unicode="&#x39d;" horiz-adv-x="1478" 
d="M412 0h-222v1458h203l674 -1024v1024h221v-1458h-203l-673 1026v-1026z" />
    <glyph glyph-name="Xi" unicode="&#x39e;" horiz-adv-x="1208" 
d="M113 0v199h381v438h-277v197h277v426h-381v198h983v-198h-381v-426h276v-197h-276v-438h381v-199h-983z" />
    <glyph glyph-name="Omicron" unicode="&#x39f;" horiz-adv-x="1323" 
d="M662 1274q-131 0 -218 -90q-54 -57 -70 -148q-16 -90 -16 -310t16 -306t64 -137q93 -99 221 -99t220 92q54 58 70 147t16 310t-16 307t-70 144q-86 90 -217 90zM662 -12q-227 0 -377 147q-99 99 -123 220t-25 305q0 184 3 271q9 253 132 378q85 86 177 124q92 37 213 37
q229 -1 376 -147q100 -99 124 -220t24 -378q0 -258 -18 -340q-32 -150 -117 -236q-85 -85 -177 -123t-212 -38z" />
    <glyph glyph-name="Pi" unicode="&#x3a0;" horiz-adv-x="1400" 
d="M989 0v1262h-577v-1262h-222v1458h1020v-1458h-221z" />
    <glyph glyph-name="Rho" unicode="&#x3a1;" horiz-adv-x="1288" 
d="M989 1016q0 117 -70 180q-71 63 -188 64h-319v-488h319q117 0 187 64t71 180zM1210 1015q0 -192 -128 -316t-339 -124h-331v-575h-222v1458h553q106 0 193 -34q176 -69 241 -232q33 -82 33 -177z" />
    <glyph glyph-name="Sigma" unicode="&#x3a3;" horiz-adv-x="1134" 
d="M1030 199v-199h-932v184l346 596l-313 512v166h905v-198h-635l293 -474l-342 -587h678z" />
    <glyph glyph-name="Tau" unicode="&#x3a4;" horiz-adv-x="1146" 
d="M684 1260v-1260h-221v1260h-402v198h1024v-198h-401z" />
    <glyph glyph-name="Upsilon" unicode="&#x3a5;" horiz-adv-x="1114" 
d="M668 0h-222v600l-436 858h242l305 -641l305 641h242l-436 -858v-600z" />
    <glyph glyph-name="Phi" unicode="&#x3a6;" horiz-adv-x="1548" 
d="M664 1159q-161 0 -243 -88t-84.5 -187.5t-2.5 -183.5t14.5 -157.5t67.5 -129.5t114.5 -75t133.5 -19v840zM1199.5 935q-14.5 73 -67.5 130t-114.5 75.5t-132.5 18.5v-840q160 0 242 89t84.5 187.5t2.5 182.5t-14.5 157zM885 121v-121h-221v121q-123 0 -221.5 32.5
t-189.5 123.5t-115.5 200.5t-24.5 262t24.5 261.5t115.5 200t189.5 124t221.5 33v100h221v-100q123 0 221 -33t189 -124t116 -202t25 -259t-24.5 -258.5t-116.5 -203.5q-91 -92 -189 -124.5t-221 -32.5z" />
    <glyph glyph-name="Chi" unicode="&#x3a7;" horiz-adv-x="1183" 
d="M907 0l-317 559l-316 -559h-254l451 748l-422 710h254l287 -522l289 522h254l-422 -710l452 -748h-256z" />
    <glyph glyph-name="Psi" unicode="&#x3a8;" horiz-adv-x="1445" 
d="M1343 739q0 -109 -24.5 -188.5t-98.5 -153.5q-152 -153 -380 -153h-6v-244h-222v244h-6q-226 0 -383 155q-72 72 -96.5 152t-24.5 188v719h222v-719q0 -82 15 -126t52 -83q83 -88 215 -88h6v1016h222v-1016h6q129 0 217 90q35 37 50 81t15 126v719h221v-719z" />
    <glyph glyph-name="uni03A9" unicode="&#x3a9;" horiz-adv-x="1325" 
d="M1186 719q0 -125 -10 -246t-78 -216q-20 -30 -56 -60h144v-197h-424v178q138 65 176 182q27 94 27 341t-16 335t-64 139q-93 99 -221 99t-220 -92q-54 -58 -70 -151t-16 -293t13 -297t42 -140q57 -82 148 -123v-178h-424v197h146q-123 109 -138 297q-8 100 -8 298
q-1 198 17 281q32 150 118 236q85 86 177 124q92 37 213 37q229 -1 376 -147q53 -53 83 -111q53 -104 61 -282q4 -86 4 -211z" />
    <glyph glyph-name="Iotadieresis" unicode="&#x3aa;" horiz-adv-x="602" 
d="M190 0v1458h222v-1458h-222zM-6 1610v221h188v-221h-188zM436 1610v221h189v-221h-189z" />
    <glyph glyph-name="Upsilondieresis" unicode="&#x3ab;" horiz-adv-x="1114" 
d="M668 0h-222v600l-436 858h242l305 -641l305 641h242l-436 -858v-600zM244 1610v221h188v-221h-188zM686 1610v221h188v-221h-188z" />
    <glyph glyph-name="alphatonos" unicode="&#x3ac;" horiz-adv-x="1132" 
d="M758 520q0 165 -30 227t-73 90q-43 27 -113 27q-188 -1 -209 -212q-7 -62 -7 -179t30 -180t72 -91q43 -28 114 -28q129 0 179 104q37 77 37 242zM762 0v111q-59 -72 -124 -98q-65 -25 -148 -25q-165 1 -257 92q-99 104 -112 313q-4 61 -4 125q0 237 56 352
q89 181 314 181q86 0 151 -26t124 -97v110h205v-1038h-205zM451 1458h208v-209l-208 -90v299z" />
    <glyph glyph-name="epsilontonos" unicode="&#x3ad;" horiz-adv-x="1015" 
d="M125 748q0 145 112 223t254 79q143 2 207 -20t107 -49t96 -68l-123 -143q-79 61 -135 82q-56 20 -129 20q-74 0 -128 -38t-54 -92q0 -56 48 -96t126 -40h190v-160h-180q-106 0 -150 -44t-44 -94q0 -52 50 -95t139 -43t160 35t142 88l145 -127q-204 -176 -430 -176
q-282 0 -383 168q-35 57 -35 146q0 90 50 148q49 58 108 83q-53 23 -98 77q-45 56 -45 136zM418 1458h209v-209l-209 -90v299z" />
    <glyph glyph-name="etatonos" unicode="&#x3ae;" 
d="M371 934q105 117 270 117t266 -100t101 -287v-664h-209v633q-1 121 -61 176t-148 55t-152 -56t-63 -175v-633h-209v1038h205v-104zM500 1458h209v-209l-209 -90v299z" />
    <glyph glyph-name="iotatonos" unicode="&#x3af;" horiz-adv-x="636" 
d="M444 0q-138 0 -211 80t-73 207v751h209v-739q1 -59 25 -90t87 -31h92v-178h-129zM162 1458h209v-209l-209 -90v299z" />
    <glyph glyph-name="upsilondieresistonos" unicode="&#x3b0;" horiz-adv-x="1107" 
d="M975 444q0 -227 -113 -342q-113 -116 -309 -115q-197 1 -311 115q-59 60 -84 140t-25 202v594h209v-628q0 -180 129 -223q39 -13 83 -13q96 0 154 58t58 178v628h209v-594zM178 1176v221h189v-221h-189zM453 1458h209v-209l-209 -90v299zM748 1176v221h188v-221h-188z
" />
    <glyph glyph-name="alpha" unicode="&#x3b1;" horiz-adv-x="1132" 
d="M758 567.5q0 116.5 -43 206.5t-172 90q-186 0 -201.5 -137t-15.5 -254t42.5 -208t174.5 -91q182 0 198.5 138.5t16.5 255zM762 0v111q-59 -72 -124 -97.5t-148 -25.5q-165 0 -257 92q-98 104 -107 239.5t-9 199.5q0 154 23.5 260.5t92.5 178.5q93 93 254 93
q86 0 150.5 -26t124.5 -97v110h205v-1038h-205z" />
    <glyph glyph-name="beta" unicode="&#x3b2;" horiz-adv-x="1171" 
d="M794.5 633q-77.5 51 -229.5 51h-116v174h120q136 0 183 63.5t47 165.5q0 101 -60.5 149t-160.5 48t-152.5 -67.5t-52.5 -178.5v-606q0 -177 89.5 -218.5t155.5 -41.5t115 22.5t94 76t45 182.5t-77.5 180zM1075 426q0 -177 -119.5 -307.5t-296.5 -130.5t-288 123v-111
h-205v1075q0 167 118.5 275t301.5 108q184 0 298.5 -91t114.5 -273q0 -207 -176 -287q252 -62 252 -381z" />
    <glyph glyph-name="gamma" unicode="&#x3b3;" horiz-adv-x="964" 
d="M584 -420h-205v445l-363 1013h222l245 -747l244 747h221l-364 -1013v-445z" />
    <glyph glyph-name="delta" unicode="&#x3b4;" horiz-adv-x="1101" 
d="M727 762q-45 92 -172 92t-178 -89t-51 -243t29.5 -218t74.5 -96t119 -32t118 28.5t74.5 91.5t30.5 218.5t-45 247.5zM985 572q0 -281 -99 -432.5t-330 -151.5t-335 148t-104 368t94.5 357.5t280.5 137.5h26q25 0 43 -4l-336 279v184h693v-184h-412l260 -221
q111 -94 165 -219.5t54 -261.5z" />
    <glyph glyph-name="epsilon" unicode="&#x3b5;" horiz-adv-x="1015" 
d="M111 304q0 89 49 147.5t108 83.5q-53 23 -98 78t-45 135t34 136t87 93t120.5 55.5t167 18.5t178 -26t189.5 -112l-123 -143q-85 66 -138.5 84t-126.5 18t-127 -37t-54 -93t48 -96t126 -40h190v-160h-180q-107 0 -150.5 -43t-43.5 -95t50 -95t139 -43t159.5 35t142.5 88
l145 -127q-204 -176 -430 -176q-282 0 -349.5 112.5t-67.5 201.5z" />
    <glyph glyph-name="zeta" unicode="&#x3b6;" horiz-adv-x="1001" 
d="M635 -184q119 0 119 98q0 53 -33 69.5t-92 16.5h-135q-184 0 -290 73.5t-106 239.5t127 311.5t287 227.5h-348v186h745v-178h-45q-276 -129 -409 -262t-133 -260q0 -86 56 -113.5t175 -27.5h98q147 0 224 -71t77 -200q0 -174 -110.5 -225t-206.5 -51v166z" />
    <glyph glyph-name="eta" unicode="&#x3b7;" 
d="M371 934q105 117 270 117t266 -100t101 -287v-664h-209v633q-1 121 -61 176t-148 55t-152 -56t-63 -175v-633h-209v1038h205v-104z" />
    <glyph glyph-name="theta" unicode="&#x3b8;" horiz-adv-x="1132" 
d="M797 844q0 285 -64 356q-39 43 -77 63.5t-110.5 20.5t-137.5 -76q-47 -51 -59.5 -151.5t-12.5 -212.5h461zM336 668q0 -152 12 -259.5t60 -158.5q67 -76 158.5 -76t158.5 76q47 51 59.5 158.5t12.5 259.5h-461zM977.5 302q-30.5 -195 -170 -254.5t-241.5 -59.5
q-191 0 -311 130q-121 130 -125.5 327.5t-4.5 356.5t30.5 354t170 254.5t240.5 59.5q190 0 311 -130q122 -130 126.5 -327.5t4.5 -356.5t-30.5 -354z" />
    <glyph glyph-name="iota" unicode="&#x3b9;" horiz-adv-x="636" 
d="M444 0q-140 0 -212 81t-72 206v751h209v-739q0 -59 24.5 -90t87.5 -31h92v-178h-129z" />
    <glyph glyph-name="kappa" unicode="&#x3ba;" horiz-adv-x="1122" 
d="M375 0h-209v1038h209v-479l403 479h254l-360 -407l405 -631h-258l-291 479l-153 -174v-305z" />
    <glyph glyph-name="lambda" unicode="&#x3bb;" horiz-adv-x="1021" 
d="M969 0q-106 0 -182 48t-109 157l-168 526l-260 -731h-221l389 997l-56 203q-12 47 -46.5 68.5t-75.5 21.5h-62v178h72q106 0 180.5 -46t110.5 -158l315 -992q32 -94 123 -94h59v-178h-69z" />
    <glyph glyph-name="uni03BC" unicode="&#x3bc;" horiz-adv-x="1165" 
d="M365 -420h-209v1458h209v-632q0 -120 61 -176t149 -56t151 55q62 55 62 177v632h209v-1038h-204v104q-106 -118 -275 -116q-92 0 -153 51v-459z" />
    <glyph glyph-name="nu" unicode="&#x3bd;" horiz-adv-x="964" 
d="M567 0h-170l-381 1038h222l245 -731l244 731h221z" />
    <glyph glyph-name="xi" unicode="&#x3be;" horiz-adv-x="1056" 
d="M655 -184q119 0 119 98q0 53 -32.5 69.5t-92.5 16.5h-135q-188 0 -302 108.5t-114 280.5q0 125 64.5 228.5t189.5 144.5q-86 31 -138 105.5t-52 176.5q0 191 123 307.5t313 116.5q109 0 210 -44t208 -160l-129 -129q-74 78 -141.5 116.5t-159.5 38.5t-153.5 -66.5
t-61.5 -169.5t57 -156.5t166 -53.5h244v-180h-240q-74 0 -137.5 -36t-101 -87.5t-37.5 -137.5t56 -146t175 -60h119q147 0 224 -71t77 -200q0 -173 -110.5 -224.5t-207.5 -51.5v166z" />
    <glyph glyph-name="omicron" unicode="&#x3bf;" horiz-adv-x="1099" 
d="M774 520q0 86 -12 162t-66 129t-146 53t-146 -53t-66 -129t-12 -162t12 -162t66 -130t146 -54t145 54q55 54 67 130t12 162zM983 519q0 -132 -25 -231q-25 -98 -87 -164q-128 -135 -320 -136q-192 0 -311 123q-74 78 -99 177t-25 231q0 131 26 231q24 100 86 166t139 100
q76 35 182 35t183 -35q78 -34 140 -100t86 -166t25 -231z" />
    <glyph glyph-name="pi" unicode="&#x3c0;" horiz-adv-x="1171" 
d="M811 0v844h-438v-844h-207v1038h850v-1038h-205z" />
    <glyph glyph-name="rho" unicode="&#x3c1;" horiz-adv-x="1073" 
d="M535 180q213 0 213 334q0 205 -50 272q-23 33 -68.5 54.5t-134.5 21.5t-126 -83t-40 -146t-3 -131t4 -128.5t32 -104.5t65.5 -66.5t107.5 -22.5zM861 140q-95 -152 -308 -152q-59 0 -110.5 26.5t-116.5 83.5v-518h-209v940q0 168 26.5 251t85.5 147q69 87 154.5 110
t168.5 23t159.5 -36t120.5 -83q45 -47 65.5 -83t39.5 -103t19 -261q0 -193 -95 -345z" />
    <glyph glyph-name="sigma1" unicode="&#x3c2;" horiz-adv-x="993" 
d="M592 -184q119 0 119 98q0 53 -33.5 69.5t-105.5 18.5t-157 28.5t-152.5 87t-108.5 159t-41 306t134.5 338t327.5 130.5q109 0 189 -34t154 -112l-144 -139q-49 53 -93 75.5t-106 22.5q-123 0 -192 -92q-61 -75 -61 -240q0 -329 276 -338q141 -5 226 -72t85 -196
q0 -174 -110.5 -225t-206.5 -51v166z" />
    <glyph glyph-name="sigma" unicode="&#x3c3;" horiz-adv-x="1148" 
d="M774 547q0 246 -88 280.5t-169.5 34.5t-130.5 -70t-54.5 -143.5t-5.5 -129.5q0 -106 16.5 -190t83 -118.5t119.5 -34.5t100 22t65 48q37 53 50.5 111.5t13.5 189.5zM943.5 237.5q-37.5 -119.5 -156.5 -184.5t-211 -65q-234 0 -347 135q-57 61 -77.5 125.5t-27.5 126
t-7 187.5t38.5 245.5t152.5 175t237 55.5h491v-186h-178q55 -31 89 -120t34 -232t-37.5 -262.5z" />
    <glyph glyph-name="tau" unicode="&#x3c4;" horiz-adv-x="802" 
d="M506 852v-852h-209v852h-248v186h705v-186h-248z" />
    <glyph glyph-name="upsilon" unicode="&#x3c5;" horiz-adv-x="1107" 
d="M975 444q1 -228 -105 -336q-118 -120 -316 -120t-312 114q-59 61 -84 140.5t-25 201.5v594h209v-628q0 -178 84 -207t128 -29q95 0 153.5 58.5t58.5 177.5v628h209v-594z" />
    <glyph glyph-name="phi" unicode="&#x3c6;" horiz-adv-x="1386" 
d="M1007 772.5q-52 75.5 -208 75.5v-674q162 4 211 93.5t49 259.5t-52 245.5zM1270 531q0 -259 -110 -401t-361 -142v-408h-209v408q-240 4 -356.5 153t-116.5 357t71.5 335.5t237.5 200.5l66 -178q-138 -70 -151 -178t-13 -170q0 -320 262 -334v864h213q367 0 417 -192.5
t50 -314.5z" />
    <glyph glyph-name="chi" unicode="&#x3c7;" horiz-adv-x="1030" 
d="M733 0l-217 354l-219 -354h-252l356 530l-342 508h252l205 -338l203 338h252l-340 -508l354 -530h-252z" />
    <glyph glyph-name="psi" unicode="&#x3c8;" horiz-adv-x="1390" 
d="M1257 520q0 -252 -103.5 -392t-352.5 -140v-408h-213v408q-359 0 -407 206.5t-48 325.5v518h211v-518q0 -162 32 -221t80 -86t132 -27v850h213v-850q154 0 200 85t46 249v518h210v-518z" />
    <glyph glyph-name="omega" unicode="&#x3c9;" horiz-adv-x="1536" 
d="M1419 500q0 -512 -381 -512q-140 0 -193.5 65.5t-76.5 100.5q-53 -81 -110.5 -123.5t-167.5 -42.5q-213 0 -306 170q-67 127 -67 333t63.5 352t183 177t181.5 31v-197q-53 0 -99.5 -22t-64.5 -48q-36 -53 -45.5 -96.5t-9.5 -118.5q0 -118 6 -190t30 -115q49 -90 125 -90
q177 0 177 289v307h208v-313q0 -163 49.5 -223t107.5 -60q99 0 140 84q30 62 35.5 127.5t5.5 130.5q0 128 -10 174.5t-37 83.5q-58 80 -172 80v197q161 0 250 -73.5t113 -130t44.5 -132t20.5 -215.5z" />
    <glyph glyph-name="iotadieresis" unicode="&#x3ca;" horiz-adv-x="636" 
d="M444 0q-138 0 -211 80t-73 207v751h209v-739q1 -59 25 -90t87 -31h92v-178h-129zM-41 1237v221h188v-221h-188zM401 1237v221h189v-221h-189z" />
    <glyph glyph-name="upsilondieresis" unicode="&#x3cb;" horiz-adv-x="1107" 
d="M975 444q0 -227 -113 -342q-113 -116 -309 -115q-197 1 -311 115q-59 60 -84 140t-25 202v594h209v-628q0 -180 129 -223q39 -13 83 -13q96 0 154 58t58 178v628h209v-594zM250 1237v221h188v-221h-188zM692 1237v221h189v-221h-189z" />
    <glyph glyph-name="omicrontonos" unicode="&#x3cc;" horiz-adv-x="1099" 
d="M774 520q0 86 -12 162t-66 129t-146 53t-146 -53t-66 -129t-12 -162t12 -162t66 -130t146 -54t145 54q55 54 67 130t12 162zM983 519q0 -132 -25 -231q-25 -98 -87 -164q-128 -135 -320 -136q-192 0 -311 123q-74 78 -99 177t-25 231q0 131 26 231q24 100 86 166t139 100
q76 35 182 35t183 -35q78 -34 140 -100t86 -166t25 -231zM449 1458h208v-209l-208 -90v299z" />
    <glyph glyph-name="upsilontonos" unicode="&#x3cd;" horiz-adv-x="1107" 
d="M975 444q0 -227 -113 -342q-113 -116 -309 -115q-197 1 -311 115q-59 60 -84 140t-25 202v594h209v-628q0 -180 129 -223q39 -13 83 -13q96 0 154 58t58 178v628h209v-594zM459 1458h209v-209l-209 -90v299z" />
    <glyph glyph-name="omegatonos" unicode="&#x3ce;" horiz-adv-x="1536" 
d="M498 174q166 0 166 289v307h208v-313q0 -80 12 -136q12 -57 50 -102q37 -45 95 -45q98 0 140 84q29 61 35 127t6 162q0 97 -8 133q-24 110 -111 153q-46 22 -100 21v197q104 0 197 -43q150 -69 201 -257q30 -112 30 -218q0 -248 -67 -375q-94 -170 -314 -170
q-139 0 -223 101q-25 30 -47 65q-54 -81 -93 -111q-75 -55 -185 -55q-213 0 -306 170q-67 127 -67 334q0 353 163 474q103 82 265 85v-197q-53 0 -99 -22t-65 -48q-18 -26 -34 -56t-18 -88q-3 -58 -3 -102q0 -211 41 -280q41 -84 131 -84zM664 1458h208v-209l-208 -90v299z
" />
    <glyph glyph-name="uni03D0" unicode="&#x3d0;" horiz-adv-x="1171" 
d="M794.5 633q-77.5 51 -229.5 51h-116v174h120q136 0 183 63.5t47 165.5q0 101 -60.5 149t-160.5 48t-151.5 -67.5t-51.5 -178.5v-606q0 -178 88.5 -219t154.5 -41t115 22.5t94 76t45 182.5t-77.5 180zM1075 426q0 -177 -119.5 -307.5t-293.5 -130.5q-106 0 -172 32.5
t-115 85.5v-526h-209v1495q0 167 118.5 275t301.5 108q184 0 298.5 -91t114.5 -273q0 -207 -176 -287q252 -62 252 -381z" />
    <glyph glyph-name="uni0400" unicode="&#x400;" horiz-adv-x="1234" 
d="M190 0v1458h932v-198h-710v-426h606v-197h-606v-438h710v-199h-932zM651 1599l-227 332h231l154 -332h-158z" />
    <glyph glyph-name="afii10023" unicode="&#x401;" horiz-adv-x="1234" 
d="M190 0v1458h932v-198h-710v-426h606v-197h-606v-438h710v-199h-932zM324 1610v221h188v-221h-188zM766 1610v221h188v-221h-188z" />
    <glyph glyph-name="afii10051" unicode="&#x402;" horiz-adv-x="1527" 
d="M1372 454q0 -213 -124.5 -333.5t-336.5 -120.5h-84v193h66q121 0 189.5 65.5t68.5 194.5t-68.5 194.5t-189.5 65.5h-277v-713h-221v1262h-340v196h1024v-196h-463v-357h295q214 0 337.5 -119t123.5 -332z" />
    <glyph glyph-name="afii10052" unicode="&#x403;" horiz-adv-x="1157" 
d="M422 1260v-1260h-221v1458h897v-198h-676zM670 1599h-158l154 332h231z" />
    <glyph glyph-name="afii10053" unicode="&#x404;" horiz-adv-x="1286" 
d="M137 656q0 188 3 275t25 191.5t120 200.5q147 147 363 147t355.5 -114.5t178.5 -329.5h-221q-27 113 -102 182.5t-202 69.5t-215 -92q-50 -54 -66 -127t-20 -230h498v-192h-498q4 -163 19.5 -235.5t61.5 -122.5q91 -99 219 -99q129 0 204.5 69.5t102.5 182.5h219
q-39 -215 -178.5 -329.5t-356.5 -114.5t-362 147q-98 98 -123 215.5t-25 305.5z" />
    <glyph glyph-name="afii10054" unicode="&#x405;" horiz-adv-x="1208" 
d="M599 184q128 0 206 58t78 164q1 106 -55 154t-162 63l-172 24q-182 29 -275 117q-109 98 -109 286t132 305q131 117 356 115q146 0 252 -38t201 -127l-140 -140q-67 65 -147 89t-192 24t-179 -64q-68 -64 -67 -163q0 -128 117 -175q36 -15 96 -26l174 -27
q179 -29 270 -108q119 -109 119 -303t-147 -310t-377 -114q-166 0 -288 43t-229 149l146 146q80 -80 172 -111t220 -31z" />
    <glyph glyph-name="afii10055" unicode="&#x406;" horiz-adv-x="602" 
d="M190 0v1458h222v-1458h-222z" />
    <glyph glyph-name="afii10056" unicode="&#x407;" horiz-adv-x="602" 
d="M190 0v1458h222v-1458h-222zM-16 1620v221h188v-221h-188zM426 1620v221h188v-221h-188z" />
    <glyph glyph-name="afii10057" unicode="&#x408;" horiz-adv-x="1036" 
d="M866 461q0 -223 -142 -349t-343 -124q-113 0 -196 32t-158 109l147 145q39 -40 83 -64t124 -24q123 0 193 74t71 217v981h221v-997z" />
    <glyph glyph-name="afii10058" unicode="&#x409;" horiz-adv-x="2078" 
d="M1202 1458v-573h340q207 0 334 -123.5t127 -320.5t-125.5 -319t-335.5 -122h-561v1260h-420v-461q0 -446 -106.5 -622.5t-333.5 -176.5h-92v199h39q61 0 169.5 52t108.5 578v629h856zM1782 441q0 114 -68.5 179.5t-191.5 65.5h-320v-487h320q123 0 191.5 64t68.5 178z
" />
    <glyph glyph-name="afii10059" unicode="&#x40a;" horiz-adv-x="2099" 
d="M1802 441q0 114 -68.5 179.5t-191.5 65.5h-319v-487h319q123 0 191.5 64t68.5 178zM1897.5 121.5q-125.5 -121.5 -334.5 -121.5h-562v686h-589v-686h-222v1458h222v-573h589v573h222v-573h340q206 0 333 -123t127 -321t-125.5 -319.5z" />
    <glyph glyph-name="afii10060" unicode="&#x40b;" horiz-adv-x="1527" 
d="M1151 0v469q0 113 -68.5 177.5t-189.5 64.5h-277v-711h-221v1260h-338v198h1022v-198h-463v-355h295q208 0 335.5 -119.5t127.5 -316.5v-469h-223z" />
    <glyph glyph-name="afii10061" unicode="&#x40c;" horiz-adv-x="1280" 
d="M1008 0l-588 764l545 694h272l-561 -688l612 -770h-280zM197 0v1458h221v-1458h-221zM729 1599h-158l154 332h231z" />
    <glyph glyph-name="uni040D" unicode="&#x40d;" horiz-adv-x="1456" 
d="M1044 0v1059l-653 -1059h-201v1458h222v-1057l651 1057h203v-1458h-222zM762 1599l-227 332h231l154 -332h-158z" />
    <glyph glyph-name="afii10062" unicode="&#x40e;" horiz-adv-x="1155" 
d="M446 1819q12 -140 150 -140t149 140h166q-14 -270 -315 -275q-209 0 -285 147q-27 52 -30 128h165zM162 0v199h104q123 0 170 116l51 119l-473 1024h234l348 -780l313 780h234l-522 -1220q-102 -238 -308 -238h-151z" />
    <glyph glyph-name="afii10145" unicode="&#x40f;" horiz-adv-x="1415" 
d="M815 0v-328h-215v328h-410v1458h222v-1259h589v1259h222v-1458h-408z" />
    <glyph glyph-name="afii10017" unicode="&#x410;" horiz-adv-x="1280" 
d="M645 1128l-227 -647h448zM1028 0l-100 293h-576l-100 -293h-236l535 1458h178l535 -1458h-236z" />
    <glyph glyph-name="afii10018" unicode="&#x411;" horiz-adv-x="1341" 
d="M997 441q0 114 -66.5 179.5t-187.5 65.5h-331v-487h331q121 0 187.5 64t66.5 178zM1094 121q-125 -121 -336 -121h-568v1458h938v-198h-716v-375h346q209 0 335 -124t126 -321.5t-125 -318.5z" />
    <glyph glyph-name="afii10019" unicode="&#x412;" horiz-adv-x="1357" 
d="M977 1051q0 102 -66 155t-172 54h-327v-418h327q106 0 172 54t66 155zM999 422q0 98 -61 160t-178 61h-348v-444h348q117 1 178 63t61 160zM1221 397q0 -85 -33 -163q-66 -155 -231 -207q-81 -27 -177 -27h-590v1458h568q204 0 322 -106t118 -293q0 -111 -59 -195
t-138 -114q43 -16 82 -47q138 -106 138 -306z" />
    <glyph glyph-name="afii10020" unicode="&#x413;" horiz-adv-x="1157" 
d="M422 1260v-1260h-221v1458h897v-198h-676z" />
    <glyph glyph-name="afii10021" unicode="&#x414;" horiz-adv-x="1433" 
d="M352 1028v430h840v-1259h172v-527h-217v328h-885v-328h-215v527h127q178 273 178 829zM565 934q0 -468 -143 -735h549v1061h-406v-326z" />
    <glyph glyph-name="afii10022" unicode="&#x415;" horiz-adv-x="1234" 
d="M190 0v1458h932v-198h-710v-426h606v-197h-606v-438h710v-199h-932z" />
    <glyph glyph-name="afii10024" unicode="&#x416;" horiz-adv-x="1888" 
d="M834 0v1458h223v-1458h-223zM-8 0l596 770l-545 688h270l518 -694l-561 -764h-278zM1620 0l-561 764l516 694h268l-540 -688l593 -770h-276z" />
    <glyph glyph-name="afii10025" unicode="&#x417;" horiz-adv-x="1251" 
d="M1114 412q0 -192 -141.5 -308t-362.5 -116q-307 0 -401 168t-113 276h221q27 -111 102 -180.5t197 -69.5t198.5 63.5t76.5 174.5q0 233 -258 233h-187v185h191q111 0 171 58t60 164t-67.5 162t-186.5 56t-192.5 -70.5t-99.5 -181.5h-224q35 207 174 325.5t347 118.5
t340.5 -108t132.5 -287q0 -223 -201 -321q223 -90 223 -342z" />
    <glyph glyph-name="afii10026" unicode="&#x418;" horiz-adv-x="1456" 
d="M1044 0v1059l-653 -1059h-201v1458h222v-1057l651 1057h203v-1458h-222z" />
    <glyph glyph-name="afii10027" unicode="&#x419;" horiz-adv-x="1456" 
d="M580 1819q12 -140 150 -140t149 140h165q-14 -270 -315 -275q-209 0 -285 147q-27 52 -30 128h166zM1044 0v1059l-653 -1059h-201v1458h222v-1057l651 1057h203v-1458h-222z" />
    <glyph glyph-name="afii10028" unicode="&#x41a;" horiz-adv-x="1280" 
d="M1008 0l-588 764l545 694h272l-561 -688l612 -770h-280zM197 0v1458h221v-1458h-221z" />
    <glyph glyph-name="afii10029" unicode="&#x41b;" horiz-adv-x="1394" 
d="M981 0v1260h-420v-461q0 -446 -106.5 -622.5t-333.5 -176.5h-92v199h39q61 0 169.5 52t108.5 578v629h856v-1458h-221z" />
    <glyph glyph-name="afii10030" unicode="&#x41c;" horiz-adv-x="1665" 
d="M1255 0v975l-335 -711h-164l-344 711v-975h-222v1458h222l426 -907l417 907h222v-1458h-222z" />
    <glyph glyph-name="afii10031" unicode="&#x41d;" horiz-adv-x="1413" 
d="M1004 0v637h-592v-637h-222v1458h222v-622h592v622h221v-1458h-221z" />
    <glyph glyph-name="afii10032" unicode="&#x41e;" horiz-adv-x="1323" 
d="M662 1274q-131 0 -218 -90q-54 -57 -70 -148q-16 -90 -16 -310t16 -306t64 -137q93 -99 221 -99t220 92q54 58 70 147t16 310t-16 307t-70 144q-86 90 -217 90zM662 -12q-227 0 -377 147q-99 99 -123 220t-25 305q0 184 3 271q9 253 132 378q85 86 177 124q92 37 213 37
q229 -1 376 -147q100 -99 124 -220t24 -378q0 -258 -18 -340q-32 -150 -117 -236q-85 -85 -177 -123t-212 -38z" />
    <glyph glyph-name="afii10033" unicode="&#x41f;" horiz-adv-x="1413" 
d="M1001 0v1260h-589v-1260h-222v1458h1033v-1458h-222z" />
    <glyph glyph-name="afii10034" unicode="&#x420;" horiz-adv-x="1288" 
d="M989 1016q0 117 -70 180q-71 63 -188 64h-319v-488h319q117 0 187 64t71 180zM1210 1015q0 -192 -128 -316t-339 -124h-331v-575h-222v1458h553q106 0 193 -34q176 -69 241 -232q33 -82 33 -177z" />
    <glyph glyph-name="afii10035" unicode="&#x421;" horiz-adv-x="1286" 
d="M658 1274q-126 0 -212 -90q-52 -52 -70 -143t-18 -316t19 -312q19 -88 69 -139q84 -90 212 -90t202 70t101 182h221q-40 -217 -180 -333q-140 -115 -354 -115t-363 147q-99 99 -123 220t-25 378q-1 258 17 340q32 150 118 236q85 86 177 124t213 37q203 0 342 -116
t178 -332h-226q-24 112 -98 182t-200 70z" />
    <glyph glyph-name="afii10036" unicode="&#x422;" horiz-adv-x="1146" 
d="M684 1260v-1260h-221v1260h-402v198h1024v-198h-401z" />
    <glyph glyph-name="afii10037" unicode="&#x423;" horiz-adv-x="1155" 
d="M162 0v199h104q123 0 170 116l51 119l-473 1024h234l348 -780l313 780h234l-522 -1220q-102 -238 -308 -238h-151z" />
    <glyph glyph-name="afii10038" unicode="&#x424;" horiz-adv-x="1630" 
d="M705 -10v182q-464 17 -533.5 243t-69.5 369q0 283 146.5 430.5t456.5 163.5v142h221v-142q309 -16 455.5 -163.5t146.5 -430.5q0 -440 -221.5 -523t-380.5 -89v-182h-221zM324 775q0 -206 89 -307.5t292 -109.5v830q-309 -11 -345 -163.5t-36 -249.5zM1307 775
q0 205 -84.5 305t-296.5 108v-830q302 11 341.5 165.5t39.5 251.5z" />
    <glyph glyph-name="afii10039" unicode="&#x425;" horiz-adv-x="1183" 
d="M907 0l-317 559l-316 -559h-254l451 748l-422 710h254l287 -522l289 522h254l-422 -710l452 -748h-256z" />
    <glyph glyph-name="afii10040" unicode="&#x426;" horiz-adv-x="1464" 
d="M1180 -328v328h-990v1458h222v-1259h589v1259h222v-1259h172v-527h-215z" />
    <glyph glyph-name="afii10041" unicode="&#x427;" horiz-adv-x="1325" 
d="M590 723q132 0 323 41v694h222v-1458h-222v571q-243 -47 -353 -47t-178.5 19.5t-153.5 88.5t-85 251v575h224v-522q0 -213 223 -213z" />
    <glyph glyph-name="afii10042" unicode="&#x428;" horiz-adv-x="2031" 
d="M190 0v1458h222v-1259h493v1259h223v-1259h492v1259h223v-1458h-1653z" />
    <glyph glyph-name="afii10043" unicode="&#x429;" horiz-adv-x="2080" 
d="M1796 -328v328h-1606v1458h222v-1259h493v1259h223v-1259h492v1259h223v-1259h170v-527h-217z" />
    <glyph glyph-name="afii10044" unicode="&#x42a;" horiz-adv-x="1488" 
d="M1192 441q0 114 -69.5 179.5t-188.5 65.5h-320v-487h320q119 0 188.5 64t69.5 178zM1286.5 122.5q-126.5 -122.5 -334.5 -122.5h-561v1260h-330v198h553v-573h338q207 0 334 -123t127 -320t-126.5 -319.5z" />
    <glyph glyph-name="afii10045" unicode="&#x42b;" horiz-adv-x="1800" 
d="M989 441q0 114 -67 180q-68 66 -191 65h-319v-487h319q123 0 191 64q67 64 67 178zM1212 442q0 -198 -127 -320t-335 -122h-560v1458h222v-573h338q205 0 333 -122q129 -123 129 -321zM1389 0v1458h221v-1458h-221z" />
    <glyph glyph-name="afii10046" unicode="&#x42c;" horiz-adv-x="1288" 
d="M989 441q0 114 -67.5 179.5t-190.5 65.5h-319v-487h319q123 0 190.5 64t67.5 178zM1212 442.5q0 -197.5 -126.5 -320t-335.5 -122.5h-560v1458h222v-573h338q205 0 333.5 -122.5t128.5 -320z" />
    <glyph glyph-name="afii10047" unicode="&#x42d;" horiz-adv-x="1286" 
d="M430 637v192h498q-4 164 -20 232.5t-61 117.5q-90 99 -219 99q-128 0 -203 -69.5t-101 -182.5h-222q39 215 178.5 329.5t356.5 114.5t362 -147q98 -98 123 -215.5t25 -305.5t-3 -275t-25 -191.5t-120 -200.5q-147 -147 -362 -147t-355.5 114.5t-179.5 329.5h220
q27 -113 102.5 -182.5t202.5 -69.5t215 92q50 54 66 124.5t20 240.5h-498z" />
    <glyph glyph-name="afii10048" unicode="&#x42e;" horiz-adv-x="1861" 
d="M1487.5 1038q-15.5 87 -70.5 146q-86 90 -217 90t-217 -90q-53 -57 -66.5 -128t-16.5 -144.5t-3 -239t22 -284t119 -161.5t194 -43t185 92q55 59 70.5 144.5t15.5 308t-15.5 309.5zM1145.5 -12q-175.5 0 -322.5 147q-127 122 -137 266t-10 236h-264v-637h-222v1458h222
v-622h264q0 180 21.5 261t50 130t88.5 109q134 134 364 134t377 -147q99 -99 123 -216.5t24 -305t-6 -359.5t-128 -294q-85 -85 -177 -122.5t-267.5 -37.5z" />
    <glyph glyph-name="afii10049" unicode="&#x42f;" horiz-adv-x="1335" 
d="M924 1262h-318q-121 0 -189.5 -64.5t-68.5 -178.5t68.5 -180.5t189.5 -66.5h318v490zM127 1016q0 199 127 320.5t338 121.5h555v-1458h-223v573h-289l-283 -573h-262l318 614q-129 45 -205 149.5t-76 252.5z" />
    <glyph glyph-name="afii10065" unicode="&#x430;" horiz-adv-x="1085" 
d="M481 459q-190 -1 -190 -149t196 -148q55 0 101 10t90 51q43 41 43 152v84h-240zM721 678q1 194 -207 194q-104 0 -154 -24t-94 -78l-135 129q107 124 253 144q52 7 118 8q426 0 428 -357v-694h-205v94q-57 -57 -119 -82q-62 -24 -158 -24q-184 1 -278 94q-82 86 -82 220
t90 218t271 84h272v74z" />
    <glyph glyph-name="afii10066" unicode="&#x431;" horiz-adv-x="1107" 
d="M597 1036q398 0 398 -514q0 -156 -29.5 -252t-97.5 -166q-112 -116 -318 -116q-110 0 -242.5 73.5t-153.5 266t-21 347.5t6 266.5t22.5 186t47.5 121.5t102 109.5t195.5 81.5t404.5 30v-184q-51 -4 -113.5 -6t-228.5 -18t-206.5 -133t-40.5 -228q35 61 112.5 98t162.5 37
zM567 176q163 0 191 117t28 273.5t-60 223.5q-60 68 -160 68q-226 0 -226 -341t227 -341z" />
    <glyph glyph-name="afii10067" unicode="&#x432;" horiz-adv-x="1116" 
d="M788 308q0 67 -41.5 105t-115.5 38h-258v-287h258q74 0 115.5 38.5t41.5 105.5zM772 745q0 61 -40 95t-114 34h-245v-262h245q154 0 154 133zM993 293q0 -135 -83 -214t-230 -79h-514v1038h498q143 0 228 -75.5t85 -202.5q0 -156 -146 -223q162 -73 162 -244z" />
    <glyph glyph-name="afii10068" unicode="&#x433;" horiz-adv-x="872" 
d="M383 856v-856h-209v1038h674v-182h-465z" />
    <glyph glyph-name="afii10069" unicode="&#x434;" 
d="M961 1038v-856h143v-448h-201v266h-674v-266h-198v448h110q58 114 88.5 242.5t30.5 349.5v264h701zM459 690q0 -306 -99 -508h392v674h-293v-166z" />
    <glyph glyph-name="afii10070" unicode="&#x435;" horiz-adv-x="1103" 
d="M552 877q-147 0 -206 -132q-21 -46 -27 -141h467q-4 47 -8 77q-4 31 -26 77t-73 82q-52 36 -127 37zM319 459q0 -135 68 -213t197 -78q88 0 142 26t110 80l133 -124q-86 -86 -149 -113q-112 -49 -225 -49t-199 28q-175 56 -246 254q-37 102 -37 250q0 256 119 393
q120 137 324 137t322 -138q117 -140 115 -365v-88h-674z" />
    <glyph glyph-name="afii10072" unicode="&#x436;" horiz-adv-x="1517" 
d="M0 0l422 551l-389 487h243l375 -497l-399 -541h-252zM653 0v1038h211v-1038h-211zM1266 0l-400 541l377 497h244l-389 -487l420 -551h-252z" />
    <glyph glyph-name="afii10073" unicode="&#x437;" horiz-adv-x="1001" 
d="M489 1051q159 0 267 -73.5t108 -207.5q0 -76 -40 -137.5t-111 -89.5q76 -29 122 -92.5t46 -142.5q0 -148 -115 -233t-260 -85q-144 0 -254.5 30.5t-202.5 116.5l125 131q113 -102 269 -102q155 0 194 55t39 92q0 140 -180 140h-154v155h152q76 0 120.5 37t44.5 102.5
t-55 98.5t-147 33q-145 0 -250 -78l-117 133q152 117 399 117z" />
    <glyph glyph-name="afii10074" unicode="&#x438;" horiz-adv-x="1193" 
d="M819 0v715l-444 -715h-209v1038h209v-704l444 704h209v-1038h-209z" />
    <glyph glyph-name="afii10075" unicode="&#x439;" horiz-adv-x="1193" 
d="M913 1460q-15 -276 -315 -276q-210 0 -285 147q-27 53 -30 129h166q12 -139 148 -139q137 0 151 139h165zM819 0v715l-444 -715h-209v1038h209v-704l444 704h209v-1038h-209z" />
    <glyph glyph-name="afii10076" unicode="&#x43a;" horiz-adv-x="1058" 
d="M803 0l-420 541l395 497h250l-414 -487l445 -551h-256zM170 0v1038h211v-1038h-211z" />
    <glyph glyph-name="afii10077" unicode="&#x43b;" horiz-adv-x="1138" 
d="M762 0v856h-301v-301q0 -453 -128 -504t-204 -51h-98v184h32q33 0 115 21.5t82 400.5v432h711v-1038h-209z" />
    <glyph glyph-name="afii10078" unicode="&#x43c;" horiz-adv-x="1366" 
d="M989 0v666l-239 -476h-132l-243 476v-666h-209v1038h207l311 -618l309 618h205v-1038h-209z" />
    <glyph glyph-name="afii10079" unicode="&#x43d;" 
d="M788 0v442h-413v-442h-209v1038h209v-413h413v413h209v-1038h-209z" />
    <glyph glyph-name="afii10080" unicode="&#x43e;" horiz-adv-x="1099" 
d="M774 520q0 86 -12 162t-66 129t-146 53t-146 -53t-66 -129t-12 -162t12 -162t66 -130t146 -54t145 54q55 54 67 130t12 162zM983 519q0 -132 -25 -231q-25 -98 -87 -164q-128 -135 -320 -136q-192 0 -311 123q-74 78 -99 177t-25 231q0 131 26 231q24 100 86 166t139 100
q76 35 182 35t183 -35q78 -34 140 -100t86 -166t25 -231z" />
    <glyph glyph-name="afii10081" unicode="&#x43f;" horiz-adv-x="1153" 
d="M788 0v856h-413v-856h-209v1038h831v-1038h-209z" />
    <glyph glyph-name="afii10082" unicode="&#x440;" horiz-adv-x="1132" 
d="M375 520q0 -70 7 -132q15 -133 95 -186q43 -28 114 -28q185 0 209 214q7 62 7 179q0 202 -102 270q-43 27 -114 27q-186 -1 -209 -212q-7 -62 -7 -132zM1016 520q0 -236 -57 -352q-90 -183 -312 -180q-83 0 -149 24t-123 94v-526h-209v1458h205v-110q59 72 125 98t148 25
q231 0 315 -181q42 -86 50 -186q7 -101 7 -164z" />
    <glyph glyph-name="afii10083" unicode="&#x441;" horiz-adv-x="993" 
d="M257 109q-144 140 -144 410t144 412q126 120 318 120q109 0 189 -34t154 -112l-144 -139q-49 53 -93 76t-106 22q-123 0 -192 -92q-35 -43 -48 -101q-13 -59 -13 -151t13 -151t48 -103q70 -92 192 -92q61 0 105 23t94 75l144 -137q-139 -147 -340 -147q-200 0 -321 121z
" />
    <glyph glyph-name="afii10084" unicode="&#x442;" horiz-adv-x="901" 
d="M561 856v-856h-209v856h-329v182h856v-182h-318z" />
    <glyph glyph-name="afii10085" unicode="&#x443;" horiz-adv-x="964" 
d="M119 -412v189h53q66 -1 96 23t54 87l57 162l-363 989h222l247 -731l242 731h223l-458 -1245q-54 -154 -175 -188q-55 -16 -114 -17h-84z" />
    <glyph glyph-name="afii10086" unicode="&#x444;" horiz-adv-x="1445" 
d="M311 520q0 -162 77 -251t230 -93v688q-162 -4 -234.5 -93t-72.5 -251zM618 -420v410q-241 12 -378.5 145.5t-137.5 389.5q0 257 138.5 384t377.5 142v407h209v-407q240 -14 378 -141.5t138 -385.5q0 -378 -198.5 -453t-317.5 -81v-410h-209zM1135 520q0 162 -73 251
t-235 93v-688q154 4 231 93t77 251z" />
    <glyph glyph-name="afii10087" unicode="&#x445;" horiz-adv-x="1030" 
d="M733 0l-217 354l-219 -354h-252l356 530l-342 508h252l205 -338l203 338h252l-340 -508l354 -530h-252z" />
    <glyph glyph-name="afii10088" unicode="&#x446;" horiz-adv-x="1202" 
d="M944 -266v266h-778v1038h209v-856h413v856h209v-856h148v-448h-201z" />
    <glyph glyph-name="afii10089" unicode="&#x447;" horiz-adv-x="1097" 
d="M507 537q87 0 216 24v477h209v-1038h-209v383q-175 -33 -300 -33q-126 0 -209 73t-83 216v399h209v-348q0 -84 40 -118.5t127 -34.5z" />
    <glyph glyph-name="afii10090" unicode="&#x448;" horiz-adv-x="1662" 
d="M166 0v1038h209v-856h352v856h209v-856h350v856h209v-1038h-1329z" />
    <glyph glyph-name="afii10091" unicode="&#x449;" horiz-adv-x="1699" 
d="M1444 -266v266h-1278v1038h209v-856h352v856h209v-856h350v856h209v-856h147v-448h-198z" />
    <glyph glyph-name="afii10092" unicode="&#x44a;" horiz-adv-x="1183" 
d="M901 323.5q0 71.5 -43 111.5t-121 40h-239v-305h239q78 0 121 41t43 112.5zM1108 323.5q0 -145.5 -92 -234.5t-246 -89h-481v856h-264v182h473v-391h272q154 0 246 -89t92 -234.5z" />
    <glyph glyph-name="afii10093" unicode="&#x44b;" horiz-adv-x="1517" 
d="M778 324q0 72 -43 112t-121 39h-239v-305h239q78 0 121 41t43 113zM985 324q0 -144 -92 -234t-244 -90h-483v1038h209v-391h274q152 0 244 -89t92 -234zM1128 0v1038h209v-1038h-209z" />
    <glyph glyph-name="afii10094" unicode="&#x44c;" horiz-adv-x="1060" 
d="M778 323.5q0 71.5 -43 111.5t-121 40h-239v-305h239q78 0 121 41t43 112.5zM985 323.5q0 -145.5 -92 -234.5t-244 -89h-483v1038h209v-391h274q152 0 244 -89t92 -234.5z" />
    <glyph glyph-name="afii10095" unicode="&#x44d;" horiz-adv-x="993" 
d="M881 520q0 -252 -122 -392t-345 -140q-111 0 -185.5 33.5t-152.5 111.5l139 137q51 -51 94 -75.5t107 -24.5q122 0 184.5 76.5t71.5 210.5h-363v147h363q-12 117 -73.5 190.5t-182.5 73.5q-63 0 -107.5 -25.5t-93.5 -74.5l-139 135q78 78 152.5 113t185.5 35
q223 0 345 -139.5t122 -391.5z" />
    <glyph glyph-name="afii10096" unicode="&#x44e;" horiz-adv-x="1540" 
d="M1214 520q0 86 -12 162t-65 129t-147 53t-146 -53q-53 -53 -65.5 -129t-12.5 -162t12.5 -161.5t66.5 -129.5q54 -55 145 -55q92 0 146 54t66 130t12 162zM1423 519q0 -132 -24.5 -231.5t-86.5 -164.5q-130 -135 -323 -135t-307 121t-123 333h-184v-442h-209v1038h209
v-417h184q25 292 174.5 361t299 69t267.5 -123q74 -78 98.5 -177.5t24.5 -231.5z" />
    <glyph glyph-name="afii10097" unicode="&#x44f;" horiz-adv-x="1087" 
d="M96 700q0 161 93 249.5t243 88.5h490v-1038h-209v387h-191l-196 -387h-240l225 426q-98 29 -156.5 105.5t-58.5 168.5zM715 870h-244q-82 0 -126 -43t-44 -115t44 -114.5t126 -42.5h244v315z" />
    <glyph glyph-name="uni0450" unicode="&#x450;" horiz-adv-x="1103" 
d="M552 877q-147 0 -206 -132q-21 -46 -27 -141h467q-4 47 -8 77q-4 31 -26 77t-73 82q-52 36 -127 37zM319 459q0 -135 68 -213t197 -78q88 0 142 26t110 80l133 -124q-86 -86 -149 -113q-112 -49 -225 -49t-199 28q-175 56 -246 254q-37 102 -37 250q0 256 119 393
q120 137 324 137t322 -138q117 -140 115 -365v-88h-674zM508 1227l-227 332h231l154 -332h-158z" />
    <glyph glyph-name="afii10071" unicode="&#x451;" horiz-adv-x="1103" 
d="M552 877q-147 0 -206 -132q-21 -46 -27 -141h467q-4 47 -8 77q-4 31 -26 77t-73 82q-52 36 -127 37zM319 459q0 -135 68 -213t197 -78q88 0 142 26t110 80l133 -124q-86 -86 -149 -113q-112 -49 -225 -49t-199 28q-175 56 -246 254q-37 102 -37 250q0 256 119 393
q120 137 324 137t322 -138q117 -140 115 -365v-88h-674zM242 1237v221h188v-221h-188zM684 1237v221h188v-221h-188z" />
    <glyph glyph-name="afii10099" unicode="&#x452;" 
d="M375 866q105 117 267.5 117t260.5 -94q105 -105 105 -293v-692q0 -229 -119 -279.5t-209 -50.5h-111v178h74q78 0 117 49t39 115v649q0 121 -60.5 176.5t-148.5 55.5t-151.5 -56.5t-63.5 -175.5v-565h-209v1102h-107v160h107v196h209v-196h487v-160h-487v-236z" />
    <glyph glyph-name="afii10100" unicode="&#x453;" horiz-adv-x="872" 
d="M383 856v-856h-209v1038h674v-182h-465zM506 1227h-158l154 332h231z" />
    <glyph glyph-name="afii10101" unicode="&#x454;" horiz-adv-x="993" 
d="M578 -12q-223 0 -344 140t-121 392t122.5 391.5t342.5 139.5q108 0 182 -34.5t158 -113.5l-140 -135q-49 49 -93 74.5t-110 25.5q-119 0 -180 -73.5t-71 -190.5h370v-147h-372q13 -200 101.5 -243.5t152.5 -43.5t108.5 24.5t93.5 75.5l140 -137q-79 -79 -154.5 -112
t-185.5 -33z" />
    <glyph glyph-name="afii10102" unicode="&#x455;" horiz-adv-x="1021" 
d="M934 317q0 -155 -118 -242t-314 -87q-127 0 -236 30t-200 119l137 137q105 -110 299 -108q98 0 163 35t65 98t-33 94q-32 31 -107 39l-166 14q-147 14 -227 82t-80 209t109 227q109 85 255 86t243 -26t169 -90l-131 -133q-88 74 -256 76q-96 0 -142 -37q-46 -38 -46 -94
t32 -84q33 -28 111 -37l145 -13q328 -28 328 -295z" />
    <glyph glyph-name="afii10103" unicode="&#x456;" horiz-adv-x="540" 
d="M160 1243v221h221v-221h-221zM166 0v1038h209v-1038h-209z" />
    <glyph glyph-name="afii10104" unicode="&#x457;" horiz-adv-x="540" 
d="M166 0v1038h209v-1038h-209zM-43 1237v221h188v-221h-188zM399 1237v221h189v-221h-189z" />
    <glyph glyph-name="afii10105" unicode="&#x458;" horiz-adv-x="540" 
d="M160 1243v221h221v-221h-221zM375 -137q0 -196 -157 -263q-54 -24 -128 -24h-129v178h92q63 0 88 31t25 90v1163h209v-1175z" />
    <glyph glyph-name="afii10106" unicode="&#x459;" horiz-adv-x="1662" 
d="M975 1038v-391h276q150 0 244 -90t94 -233.5t-94 -233.5t-244 -90h-483v856h-307v-301q0 -453 -128 -504t-204 -51h-98v184h32q33 0 115 21.5t82 400.5v432h715zM1382 323.5q0 71.5 -44 111.5t-121 40h-242v-305h242q78 0 121.5 41t43.5 112.5z" />
    <glyph glyph-name="afii10107" unicode="&#x45a;" horiz-adv-x="1683" 
d="M1401 323.5q0 71.5 -42 111.5t-122 40h-242v-305h242q80 0 122 41t42 112.5zM788 0v463h-413v-463h-209v1038h209v-391h413v391h209v-391h275q154 0 246 -89t92 -234t-95 -234.5t-243 -89.5h-484z" />
    <glyph glyph-name="afii10108" unicode="&#x45b;" 
d="M375 866q105 117 267.5 117t260.5 -94q105 -105 105 -293v-596h-209v565q0 121 -60.5 176.5t-148.5 55.5t-151.5 -56.5t-63.5 -175.5v-565h-209v1102h-107v160h107v196h209v-196h487v-160h-487v-236z" />
    <glyph glyph-name="afii10109" unicode="&#x45c;" horiz-adv-x="1058" 
d="M803 0l-420 541l395 497h250l-414 -487l445 -551h-256zM170 0v1038h211v-1038h-211zM598 1227h-158l154 332h231z" />
    <glyph glyph-name="uni045D" unicode="&#x45d;" horiz-adv-x="1193" 
d="M819 0v715l-444 -715h-209v1038h209v-704l444 704h209v-1038h-209zM631 1227l-228 332h232l153 -332h-157z" />
    <glyph glyph-name="afii10110" unicode="&#x45e;" horiz-adv-x="964" 
d="M119 -412v189h53q66 -1 96 23t54 87l57 162l-363 989h222l247 -731l242 731h223l-458 -1245q-54 -154 -175 -188q-55 -16 -114 -17h-84zM827 1460q-15 -276 -315 -276q-210 0 -285 147q-27 53 -30 129h165q12 -139 149 -139t151 139h165z" />
    <glyph glyph-name="afii10193" unicode="&#x45f;" 
d="M680 0v-266h-199v266h-315v1038h209v-856h413v856h209v-1038h-317z" />
    <glyph glyph-name="afii10146" unicode="&#x462;" horiz-adv-x="1327" 
d="M1028 441q0 114 -67.5 179.5t-190.5 65.5h-319v-487h319q123 0 190.5 64t67.5 178zM1251 442.5q0 -197.5 -126.5 -320t-336.5 -122.5h-559v1110h-151v170h151v178h222v-178h282v-170h-282v-225h337q206 0 334.5 -122.5t128.5 -320z" />
    <glyph glyph-name="afii10194" unicode="&#x463;" horiz-adv-x="1097" 
d="M815 323.5q0 71.5 -43 111.5t-121 40h-239v-305h239q78 0 121 41t43 112.5zM1022 323.5q0 -145.5 -92 -234.5t-244 -89h-483v819h-121v150h121v69h209v-69h141v-150h-141v-172h274q152 0 244 -89t92 -234.5z" />
    <glyph glyph-name="afii10147" unicode="&#x472;" horiz-adv-x="1323" 
d="M662 184q129 0 217 92q45 45 62 113q17 67 24 240h-607q4 -161 22 -234t61 -117q92 -94 221 -94zM662 1274q-132 0 -218 -90q-46 -50 -63 -117t-23 -242h607q-4 165 -22 237t-64 122q-85 90 -217 90zM662 -12q-227 0 -377 147q-99 99 -123 220t-25 305q0 184 3 271
q9 253 132 378q85 86 177 124q92 37 213 37q229 -1 376 -147q100 -99 124 -220t24 -378q0 -258 -18 -340q-32 -150 -117 -236q-85 -85 -177 -123t-212 -38z" />
    <glyph glyph-name="afii10195" unicode="&#x473;" horiz-adv-x="1099" 
d="M772 604q-18 260 -222 260t-222 -260h444zM550 175q92 0 152 61q39 39 53 97q13 58 17 126h-446q4 -68 17 -126t54 -97q61 -61 153 -61zM983 519q0 -132 -25 -231q-25 -98 -87 -164q-128 -135 -320 -136q-192 0 -311 123q-74 78 -99 177t-25 231q0 131 26 231
q24 100 86 166t139 100q76 35 182 35t183 -35q78 -34 140 -100t86 -166t25 -231z" />
    <glyph glyph-name="afii10148" unicode="&#x474;" horiz-adv-x="1155" 
d="M1143 1458h151v-198h-84q-131 0 -170 -117l-378 -1143h-173l-479 1458h230l335 -1061l261 824q33 104 110.5 170.5t196.5 66.5z" />
    <glyph glyph-name="afii10196" unicode="&#x475;" horiz-adv-x="964" 
d="M948 1038h84v-188h-43q-67 0 -96 -21t-53 -88l-273 -741h-170l-381 1038h222l245 -731l176 527q35 109 106 156.5t183 47.5z" />
    <glyph glyph-name="afii10050" unicode="&#x490;" horiz-adv-x="1157" 
d="M422 1260v-1260h-221v1458h682v348h215v-546h-676z" />
    <glyph glyph-name="afii10098" unicode="&#x491;" horiz-adv-x="872" 
d="M383 856v-856h-209v1038h473v287h201v-469h-465z" />
    <glyph glyph-name="uni0492" unicode="&#x492;" horiz-adv-x="1185" 
d="M451 1260v-439h282v-170h-282v-651h-222v651h-151v170h151v637h897v-198h-675z" />
    <glyph glyph-name="uni0493" unicode="&#x493;" horiz-adv-x="872" 
d="M383 856v-211h141v-149h-141v-496h-209v496h-121v149h121v393h674v-182h-465z" />
    <glyph glyph-name="uni0496" unicode="&#x496;" horiz-adv-x="1884" 
d="M831 0v1458h224v-1458h-224zM-10 0l596 770l-545 688h270l518 -694l-561 -764h-278zM1894 199v-527h-217v328h-59l-561 764l516 694h268l-541 -688l441 -571h153z" />
    <glyph glyph-name="uni0497" unicode="&#x497;" horiz-adv-x="1513" 
d="M651 0v1038h211v-1038h-211zM-2 0l422 551l-389 487h243l375 -497l-399 -541h-252zM1516 182v-448h-199v266h-53l-400 541l377 497h244l-389 -487l280 -369h140z" />
    <glyph glyph-name="uni049A" unicode="&#x49a;" horiz-adv-x="1277" 
d="M197 0v1458h221v-1458h-221zM1288 199v-527h-217v328h-63l-588 764l545 694h272l-561 -688l454 -571h158z" />
    <glyph glyph-name="uni049B" unicode="&#x49b;" horiz-adv-x="1056" 
d="M170 0v1038h211v-1038h-211zM1059 182v-448h-199v266h-57l-420 541l395 497h250l-414 -487l297 -369h148z" />
    <glyph glyph-name="uni049C" unicode="&#x49c;" horiz-adv-x="1415" 
d="M666 649v-299h-160v299h-88v-649h-221v1458h221v-612h88v299h160v-299h55l385 612h264l-465 -704l518 -754h-274l-426 649h-57z" />
    <glyph glyph-name="uni049D" unicode="&#x49d;" horiz-adv-x="1191" 
d="M612 444v-251h-155v251h-78v-444h-209v1038h209v-420h78v252h155v-252h52l247 420h248l-309 -487l342 -551h-256l-266 444h-58z" />
    <glyph glyph-name="uni04A2" unicode="&#x4a2;" horiz-adv-x="1413" 
d="M1225 199h104v-527h-217v328h-111v637h-589v-637h-222v1458h222v-624h589v624h224v-1259z" />
    <glyph glyph-name="uni04A3" unicode="&#x4a3;" 
d="M997 182h95v-448h-199v266h-105v442h-413v-442h-209v1038h209v-413h413v413h209v-856z" />
    <glyph glyph-name="uni04AE" unicode="&#x4ae;" horiz-adv-x="1114" 
d="M668 0h-222v600l-436 858h242l305 -641l305 641h242l-436 -858v-600z" />
    <glyph glyph-name="uni04AF" unicode="&#x4af;" horiz-adv-x="964" 
d="M584 -420h-205v445l-363 1013h222l245 -747l244 747h221l-364 -1013v-445z" />
    <glyph glyph-name="uni04B0" unicode="&#x4b0;" horiz-adv-x="1114" 
d="M885 600v-170h-217v-430h-222v430h-217v170h217l-436 858h242l305 -641l305 641h242l-436 -858h217z" />
    <glyph glyph-name="uni04B1" unicode="&#x4b1;" horiz-adv-x="964" 
d="M717 25v-150h-133v-295h-205v295h-133v150h133l-363 1013h222l245 -747l244 747h221l-364 -1013h133z" />
    <glyph glyph-name="uni04B2" unicode="&#x4b2;" horiz-adv-x="1183" 
d="M1163 199v-527h-217v328h-39l-317 559l-318 -559h-252l449 748l-420 710h254l287 -522l289 522h254l-422 -710l331 -549h121z" />
    <glyph glyph-name="uni04B3" unicode="&#x4b3;" horiz-adv-x="1030" 
d="M985 182v-448h-199v266h-51l-219 354l-219 -354h-252l356 530l-342 508h252l205 -338l205 338h250l-342 -508l233 -348h123z" />
    <glyph glyph-name="uni04B6" unicode="&#x4b6;" horiz-adv-x="1325" 
d="M590 723q132 0 323 41v694h222v-1259h106v-527h-217v328h-111v571q-243 -47 -353 -47t-178.5 19.5t-153.5 88.5t-85 251v575h224v-522q0 -213 223 -213z" />
    <glyph glyph-name="uni04B7" unicode="&#x4b7;" horiz-adv-x="1099" 
d="M507 537q87 0 216 24v477h209v-856h94v-448h-199v266h-104v383q-175 -33 -300 -33q-126 0 -209 73t-83 216v399h209v-348q0 -84 40 -118.5t127 -34.5z" />
    <glyph glyph-name="uni04B8" unicode="&#x4b8;" horiz-adv-x="1343" 
d="M733 223h-170v301h-31q-161 0 -275 89.5t-114 269.5v575h222v-522q0 -152 78.5 -179.5t119.5 -29.5v295h170v-293q105 11 199 33v696h221v-1458h-221v571q-78 -18 -199 -34v-314z" />
    <glyph glyph-name="uni04B9" unicode="&#x4b9;" horiz-adv-x="1130" 
d="M621 104h-142v246h-26q-143 0 -231.5 74t-88.5 215v399h209v-348q0 -72 36 -104.5t101 -40.5v237h142v-239q77 4 135 20v475h209v-1038h-209v383q-14 -3 -135 -21v-258z" />
    <glyph glyph-name="uni04BA" unicode="&#x4ba;" horiz-adv-x="1325" 
d="M735 735q-132 0 -323 -41v-694h-222v1458h222v-571q243 47 353 47t178.5 -19.5t153.5 -88.5t85 -251v-575h-224v522q0 213 -223 213z" />
    <glyph glyph-name="uni04BB" unicode="&#x4bb;" horiz-adv-x="1097" 
d="M606 502q-97 0 -231 -25v-477h-209v1038h209v-383q175 33 300 33q126 0 209 -72.5t83 -216.5v-399h-209v348q0 154 -152 154z" />
    <glyph glyph-name="uni04C0" unicode="&#x4c0;" horiz-adv-x="602" 
d="M190 0v1458h222v-1458h-222z" />
    <glyph glyph-name="uni04CF" unicode="&#x4cf;" horiz-adv-x="528" 
d="M160 0v1458h209v-1458h-209z" />
    <glyph glyph-name="uni04D8" unicode="&#x4d8;" horiz-adv-x="1329" 
d="M356 518q0 -146 72 -229q89 -105 230 -105t227 90q46 50 63 121t21 205h-613v-82zM135 788h836q0 250 -45 337q-16 32 -41 59q-86 90 -213 90t-205 -67t-107 -187h-221q29 194 170 323t366 128q224 -1 369 -148q100 -99 124 -220t24 -305t-3 -271q-9 -253 -132 -378
q-85 -85 -177 -123t-210 -38q-244 0 -404 166q-72 78 -101 173q-30 95 -30 238v223z" />
    <glyph glyph-name="afii10846" unicode="&#x4d9;" horiz-adv-x="1103" 
d="M552 162q75 0 128.5 35t73.5 83t24 77.5t6 76.5h-467q7 -87 31 -144q23 -56 76 -92t128 -36zM784 580q0 135 -67.5 212.5t-196.5 77.5q-88 0 -142 -25.5t-110 -80.5l-133 125q83 83 171.5 122.5t202.5 39.5q228 0 355 -126.5t127 -394.5t-119.5 -405t-324.5 -137
t-320.5 137.5t-115.5 366.5v88h673z" />
    <glyph glyph-name="uni04E2" unicode="&#x4e2;" horiz-adv-x="1456" 
d="M1044 0v1059l-653 -1059h-201v1458h222v-1057l651 1057h203v-1458h-222zM412 1778h632v-150h-632v150z" />
    <glyph glyph-name="uni04E3" unicode="&#x4e3;" horiz-adv-x="1193" 
d="M819 0v715l-444 -715h-209v1038h209v-704l444 704h209v-1038h-209zM281 1415h632v-149h-632v149z" />
    <glyph glyph-name="uni04E8" unicode="&#x4e8;" horiz-adv-x="1323" 
d="M662 184q129 0 217 92q45 45 62 113q17 67 24 240h-607q4 -161 22 -234t61 -117q92 -94 221 -94zM662 1274q-132 0 -218 -90q-46 -50 -63 -117t-23 -242h607q-4 165 -22 237t-64 122q-85 90 -217 90zM662 -12q-227 0 -377 147q-99 99 -123 220t-25 305q0 184 3 271
q9 253 132 378q85 86 177 124q92 37 213 37q229 -1 376 -147q100 -99 124 -220t24 -378q0 -258 -18 -340q-32 -150 -117 -236q-85 -85 -177 -123t-212 -38z" />
    <glyph glyph-name="uni04E9" unicode="&#x4e9;" horiz-adv-x="1099" 
d="M772 604q-18 260 -223 260q-204 0 -221 -260h444zM550 175q92 0 152 61q39 39 52.5 97t17.5 126h-446q4 -68 17 -126.5t54 -96.5q61 -61 153 -61zM983 519q0 -132 -24.5 -231.5t-86.5 -164.5q-130 -135 -323 -135t-309 123q-74 78 -98.5 177t-24.5 231t24.5 231.5
t86.5 165.5q129 136 321.5 135.5t310.5 -123.5q74 -78 98.5 -177.5t24.5 -231.5z" />
    <glyph glyph-name="uni04EE" unicode="&#x4ee;" horiz-adv-x="1155" 
d="M162 0v199h104q123 0 170 116l51 119l-473 1024h234l348 -780l313 780h234l-522 -1220q-102 -238 -308 -238h-151zM281 1778h632v-150h-632v150z" />
    <glyph glyph-name="uni04EF" unicode="&#x4ef;" horiz-adv-x="964" 
d="M119 -412v189h53q66 -1 96 23t54 87l57 162l-363 989h222l247 -731l242 731h223l-458 -1245q-54 -154 -175 -188q-55 -16 -114 -17h-84zM172 1415h633v-149h-633v149z" />
    <glyph glyph-name="Wgrave" unicode="&#x1e80;" horiz-adv-x="1783" 
d="M1380 0h-192l-297 1022l-295 -1022h-193l-380 1458h233l254 -1042l293 1042h178l293 -1042l254 1042h233zM807 1599l-227 332h231l154 -332h-158z" />
    <glyph glyph-name="wgrave" unicode="&#x1e81;" horiz-adv-x="1521" 
d="M1182 0h-178l-244 725l-242 -725h-180l-322 1038h222l200 -731l242 731h162l239 -731l201 731h223zM682 1227l-227 332h231l154 -332h-158z" />
    <glyph glyph-name="Wacute" unicode="&#x1e82;" horiz-adv-x="1783" 
d="M1380 0h-192l-297 1022l-295 -1022h-193l-380 1458h233l254 -1042l293 1042h178l293 -1042l254 1042h233zM977 1599h-158l154 332h231z" />
    <glyph glyph-name="wacute" unicode="&#x1e83;" horiz-adv-x="1521" 
d="M1182 0h-178l-244 725l-242 -725h-180l-322 1038h222l200 -731l242 731h162l239 -731l201 731h223zM840 1227h-158l154 332h231z" />
    <glyph glyph-name="Wdieresis" unicode="&#x1e84;" horiz-adv-x="1783" 
d="M1380 0h-192l-297 1022l-295 -1022h-193l-380 1458h233l254 -1042l293 1042h178l293 -1042l254 1042h233zM575 1610v221h189v-221h-189zM1018 1610v221h188v-221h-188z" />
    <glyph glyph-name="wdieresis" unicode="&#x1e85;" horiz-adv-x="1521" 
d="M1182 0h-178l-244 725l-242 -725h-180l-322 1038h222l200 -731l242 731h162l239 -731l201 731h223zM444 1237v221h189v-221h-189zM887 1237v221h188v-221h-188z" />
    <glyph glyph-name="uni1E8A" unicode="&#x1e8a;" horiz-adv-x="1183" 
d="M907 0l-317 559l-316 -559h-254l451 748l-422 710h254l287 -522l289 522h254l-422 -710l452 -748h-256zM492 1823h198v-199h-198v199z" />
    <glyph glyph-name="uni1E8B" unicode="&#x1e8b;" horiz-adv-x="1030" 
d="M733 0l-217 354l-219 -354h-252l356 530l-342 508h252l205 -338l203 338h252l-340 -508l354 -530h-252zM418 1450h198v-199h-198v199z" />
    <glyph glyph-name="Ygrave" unicode="&#x1ef2;" horiz-adv-x="1114" 
d="M668 0h-222v600l-436 858h242l305 -641l305 641h242l-436 -858v-600zM485 1599l-227 332h231l154 -332h-158z" />
    <glyph glyph-name="ygrave" unicode="&#x1ef3;" horiz-adv-x="958" 
d="M119 -412v189h53q66 -1 96 23t54 87l57 162l-363 989h222l247 -731l242 731h223l-458 -1245q-54 -154 -175 -188q-55 -16 -114 -17h-84zM406 1227l-228 332h232l153 -332h-157z" />
    <glyph glyph-name="uni2007" unicode="&#x2007;" horiz-adv-x="1091" 
 />
    <glyph glyph-name="uni2008" unicode="&#x2008;" horiz-adv-x="569" 
 />
    <glyph glyph-name="uni200B" unicode="&#x200b;" horiz-adv-x="0" 
 />
    <glyph glyph-name="endash" unicode="&#x2013;" horiz-adv-x="1091" 
d="M104 471v195h883v-195h-883z" />
    <glyph glyph-name="emdash" unicode="&#x2014;" horiz-adv-x="1990" 
d="M137 473v199h1716v-199h-1716z" />
    <glyph glyph-name="afii00208" unicode="&#x2015;" horiz-adv-x="1990" 
d="M137 473v199h1716v-199h-1716z" />
    <glyph glyph-name="quoteleft" unicode="&#x2018;" horiz-adv-x="548" 
d="M160 1245v213l229 191v-404h-229z" />
    <glyph glyph-name="quoteright" unicode="&#x2019;" horiz-adv-x="548" 
d="M160 1458h229v-215l-229 -186v401z" />
    <glyph glyph-name="quotesinglbase" unicode="&#x201a;" horiz-adv-x="546" 
d="M160 215h229v-215l-229 -188v403z" />
    <glyph glyph-name="quotedblleft" unicode="&#x201c;" horiz-adv-x="940" 
d="M160 1245v213l229 191v-404h-229zM551 1245v213l229 191v-404h-229z" />
    <glyph glyph-name="quotedblright" unicode="&#x201d;" horiz-adv-x="940" 
d="M160 1458h229v-215l-229 -186v401zM551 1458h229v-215l-229 -186v401z" />
    <glyph glyph-name="quotedblbase" unicode="&#x201e;" horiz-adv-x="942" 
d="M160 215h229v-215l-229 -188v403zM551 215h229v-215l-229 -188v403z" />
    <glyph glyph-name="dagger" unicode="&#x2020;" horiz-adv-x="1210" 
d="M709 874v-874h-209v874h-367v187h367v397h209v-397h368v-187h-368z" />
    <glyph glyph-name="daggerdbl" unicode="&#x2021;" horiz-adv-x="1210" 
d="M709 -23v-397h-209v397h-367v189h367v708h-367v187h367v397h209v-397h368v-187h-368v-708h368v-189h-368z" />
    <glyph glyph-name="bullet" unicode="&#x2022;" horiz-adv-x="1048" 
d="M858 684q0 -70 -26.5 -130t-71.5 -105.5t-105.5 -72t-130 -26.5t-130 26.5t-105.5 72t-72 105.5t-27 130t27 130t72 105.5t105.5 72t130 26.5t130 -26.5t105.5 -72t71.5 -105.5t26.5 -130z" />
    <glyph glyph-name="ellipsis" unicode="&#x2026;" horiz-adv-x="1644" 
d="M702 0v240h240v-240h-240zM160 0v240h239v-240h-239zM1245 0v240h240v-240h-240z" />
    <glyph glyph-name="perthousand" unicode="&#x2030;" horiz-adv-x="2449" 
d="M276 991q0 -145 130 -145t129 145v195q0 147 -129.5 147t-129.5 -147v-195zM1915 272q0 -147 129 -147t129 147v195q0 147 -129 147t-129 -147v-195zM1190 272q0 -147 129 -147t129 147v195q0 147 -129 147t-129 -147v-195zM602 0h-168l688 1458h166zM692 985
q0 -128 -81 -203t-205.5 -75t-205.5 75t-81 203v207q0 128 82.5 204.5t204 76.5t204 -76.5t82.5 -204.5v-207zM2331 266q0 -129 -83 -204.5t-204 -75.5t-204 75.5t-83 204.5v207q0 128 82.5 204.5t204.5 76.5t204.5 -76.5t82.5 -204.5v-207zM1606 266q0 -129 -83 -204.5
t-204 -75.5t-204 75.5t-83 204.5v207q0 128 82.5 204.5t204.5 76.5t204.5 -76.5t82.5 -204.5v-207z" />
    <glyph glyph-name="guilsinglleft" unicode="&#x2039;" horiz-adv-x="694" 
d="M76 557l471 469v-252l-219 -217l219 -219v-252z" />
    <glyph glyph-name="guilsinglright" unicode="&#x203a;" horiz-adv-x="694" 
d="M147 86v252l222 219l-222 217v252l474 -469z" />
    <glyph glyph-name="fraction" unicode="&#x2044;" horiz-adv-x="403" 
d="M-57 0h-168l686 1458h168z" />
    <glyph glyph-name="uni2070" unicode="&#x2070;" horiz-adv-x="665" 
d="M442 1204q0 55 -29.5 89t-78.5 34t-79 -32.5t-30 -90.5v-368q0 -55 30 -87t79 -32t78.5 31.5t29.5 87.5v368zM598 836q0 -121 -76.5 -191t-188 -70t-187.5 70.5t-76 190.5v370q0 120 75.5 190t188 70t188.5 -69.5t76 -190.5v-370z" />
    <glyph glyph-name="uni2074" unicode="&#x2074;" horiz-adv-x="665" 
d="M545 709v-125h-150v125h-356v145l299 604h172l-301 -604h186v170h150v-170h82v-145h-82z" />
    <glyph glyph-name="uni2075" unicode="&#x2075;" horiz-adv-x="665" 
d="M340 1036q-86 0 -107 -71h-145v493h498v-141h-355v-193q49 43 118 43q122 0 176 -55t67.5 -113.5t13.5 -126.5t-15.5 -123t-53.5 -93q-81 -81 -203.5 -81t-192.5 70q-39 41 -52 84t-17 96h155q12 -109 109 -108q47 0 80 28q33 33 33 119t-24 129t-85 43z" />
    <glyph glyph-name="uni2076" unicode="&#x2076;" horiz-adv-x="665" 
d="M446 846q0 61 -30.5 97t-82.5 36t-84 -34t-32 -97.5t32 -98t82 -34.5t82.5 35t32.5 96zM376 1106q90 0 159 -71t69 -191t-76.5 -194.5t-194 -74.5t-195 71.5t-77.5 199.5q0 89 66 221l192 391h170l-182 -362q27 10 69 10z" />
    <glyph glyph-name="uni2077" unicode="&#x2077;" horiz-adv-x="665" 
d="M207 1317v-143h-146v284h555v-139l-284 -735h-158l285 733h-252z" />
    <glyph glyph-name="uni2078" unicode="&#x2078;" horiz-adv-x="665" 
d="M444 1213q0 48 -30.5 80t-79.5 32t-80 -31.5t-31 -79.5t32 -81t79 -33t78.5 32.5t31.5 80.5zM457 839.5q0 53.5 -35 89.5t-88 36t-88 -36t-35 -89.5t35 -88t88 -34.5t88 34.5t35 88zM502 1036q110 -74 110 -198t-79 -193.5t-198 -69.5t-200.5 68.5t-81.5 193.5t113 199
q-100 69 -100 180t77 180.5t190.5 69.5t191 -69t77.5 -182t-100 -179z" />
    <glyph glyph-name="uni2079" unicode="&#x2079;" horiz-adv-x="665" 
d="M451 1195q0 60 -32 95t-83 35t-84 -35t-33 -93t32 -96t83 -38t84 36t33 96zM292 936q-92 0 -160.5 71.5t-68.5 193.5t78 193.5t195 71.5t193.5 -71t76.5 -180q0 -108 -67 -240l-191 -391h-170l182 362q-26 -10 -68 -10z" />
    <glyph glyph-name="uni2080" unicode="&#x2080;" horiz-adv-x="665" 
d="M442 313q0 55 -29.5 89t-78.5 34t-79 -32.5t-30 -90.5v-368q0 -55 30 -87t79 -32t78.5 31.5t29.5 87.5v368zM598 -55q0 -121 -76 -190.5t-220.5 -69.5t-188 99t-43.5 161v370q0 120 75.5 190t188 70t188.5 -69.5t76 -190.5v-370z" />
    <glyph glyph-name="uni2081" unicode="&#x2081;" horiz-adv-x="665" 
d="M301 -307v698l-178 -155v178l178 153h158v-874h-158z" />
    <glyph glyph-name="uni2082" unicode="&#x2082;" horiz-adv-x="665" 
d="M76 -307v141l330 381q45 52 45 105t-28 83.5t-75 30.5q-115 0 -115 -112h-157q0 119 75.5 186t191.5 67t190.5 -67.5t74.5 -185.5q0 -63 -24.5 -105.5t-69.5 -95.5l-248 -287h342v-141h-532z" />
    <glyph glyph-name="uni2083" unicode="&#x2083;" horiz-adv-x="665" 
d="M504 145q114 -61 114 -192t-78 -199.5t-198 -68.5q-184 0 -232.5 95t-48.5 163h158q2 -59 39 -88t87 -29t83 32t33 90t-32 92t-93 34h-23v135h23q59 0 87 32.5t28 84.5t-33 81t-79 29t-76 -27.5t-34 -78.5h-155q4 117 79.5 182.5t189.5 65.5t188.5 -71t74.5 -191
q0 -119 -102 -171z" />
    <glyph glyph-name="uni2084" unicode="&#x2084;" horiz-adv-x="665" 
d="M545 -182v-125h-150v125h-356v145l299 604h172l-301 -604h186v170h150v-170h82v-145h-82z" />
    <glyph glyph-name="uni2085" unicode="&#x2085;" horiz-adv-x="665" 
d="M340 145q-86 0 -107 -71h-145v493h498v-141h-355v-193q49 43 118 43q122 0 176 -55t67.5 -114t13.5 -127t-15.5 -122.5t-53.5 -92.5q-80 -80 -202.5 -80t-193.5 69q-39 41 -52 84t-17 96h155q12 -109 109 -108q47 0 75 26t33 60t5 90t-24 99.5t-85 43.5z" />
    <glyph glyph-name="uni2086" unicode="&#x2086;" horiz-adv-x="665" 
d="M446 -45q0 61 -30.5 97t-82.5 36t-84 -34t-32 -97t32 -98t82 -35t82.5 35t32.5 96zM376 215q90 0 159 -71t69 -191t-76 -194t-194.5 -74t-195.5 71t-77 199q0 89 66 221l192 391h170l-182 -362q27 10 69 10z" />
    <glyph glyph-name="uni2087" unicode="&#x2087;" horiz-adv-x="665" 
d="M207 426v-143h-146v284h555v-139l-284 -735h-158l285 733h-252z" />
    <glyph glyph-name="uni2088" unicode="&#x2088;" horiz-adv-x="665" 
d="M444 323q0 48 -30.5 79.5t-79.5 31.5t-80 -31.5t-31 -79.5t32 -81t79 -33t78.5 33t31.5 81zM457 -51q0 53 -35 89t-88 36t-88 -36t-35 -89t35 -88t88 -35t88 35t35 88zM502 145q110 -74 110 -198t-78.5 -193t-198.5 -69q-121 0 -201.5 68t-80.5 193t113 199
q-100 69 -100 180t77 180.5t190.5 69.5t191 -69t77.5 -182t-100 -179z" />
    <glyph glyph-name="uni2089" unicode="&#x2089;" horiz-adv-x="665" 
d="M451 304q0 60 -32 95t-83 35t-84 -35t-33 -93t32 -96t83 -38t84 36t33 96zM606 310q0 -58 -16.5 -108t-50.5 -118l-191 -391h-170l182 362q-26 -10 -68 -10q-92 0 -160.5 71.5t-68.5 193.5t78 193.5t195 71.5t193.5 -71t76.5 -194z" />
    <glyph glyph-name="Euro" unicode="&#x20ac;" horiz-adv-x="1394" 
d="M88 508v137h137v176h-137v137h143q9 132 39.5 211.5t102.5 151.5q149 149 365 149t355.5 -115.5t178.5 -332.5h-225q-27 113 -101 182.5t-199 69.5t-212 -90q-71 -71 -78 -226h374v-137h-385v-176h385v-137h-374q4 -92 20.5 -142.5t81 -116t189.5 -65.5t199.5 70
t101.5 182h223q-39 -217 -180.5 -332.5t-355.5 -115.5t-363 149q-74 74 -103.5 158t-38.5 213h-143z" />
    <glyph glyph-name="uni20B4" unicode="&#x20b4;" horiz-adv-x="1372" 
d="M242 1305q176 165 436 165q245 0 374.5 -119.5t129.5 -308.5q0 -45 -6 -84h108v-137h-162q-86 -142 -338 -176h500v-137h-856q-18 -43 -18 -98q0 -106 79 -165t207 -59t218 30t169 110l148 -146q-189 -192 -491 -192q-261 0 -405.5 115t-144.5 313q0 49 7 92h-109v137
h162q62 94 141.5 127t175.5 49h-479v137h856q23 41 23 93q0 98 -69.5 162.5t-179.5 64.5t-188.5 -23.5t-146.5 -89.5z" />
    <glyph glyph-name="afii61352" unicode="&#x2116;" horiz-adv-x="1957" 
d="M1774 815q-84 -84 -210 -84t-210 84t-84 285q0 200 76 276q92 92 218 92t210 -86t84 -284q0 -199 -84 -283zM1690 1103.5q0 59.5 -7 111t-37 81.5t-84 30.5t-84 -30.5t-36 -82t-6 -110.5t6 -109.5t38 -82t83 -31t83 32t38 81t6 109.5zM1274 504v155h573v-155h-573zM360 0
h-206v1458h188l598 -1048v1048h209v-1458h-188l-601 1051v-1051z" />
    <glyph glyph-name="trademark" unicode="&#x2122;" horiz-adv-x="1808" 
d="M473 1317v-733h-156v733h-233v141h625v-141h-236zM1526 584v571l-185 -367h-145l-184 367v-571h-158v874h158l256 -497l258 497h157v-874h-157z" />
    <glyph glyph-name="Omega" unicode="&#x2126;" horiz-adv-x="1325" 
d="M1186 197v-197h-424v178q140 66 168.5 159.5t31.5 193t3 199.5q0 208 -16 299.5t-63 143.5q-93 101 -223.5 101t-218.5 -92q-54 -58 -70 -150.5t-16 -246.5q0 -230 12.5 -334t42.5 -148q55 -81 148 -125v-178h-424v197h146q-57 50 -95 122q-35 76 -43 175.5t-8 224.5
q0 271 25 389.5t123 214.5q147 147 377.5 147t375.5 -147q98 -98 123 -215.5t25 -315.5t-8.5 -298t-33.5 -154t-46 -83.5t-56 -59.5h144z" />
    <glyph glyph-name="uni2150" unicode="&#x2150;" horiz-adv-x="1734" 
d="M1276 733v-143h-146v284h556v-139l-285 -735h-158l285 733h-252zM608 0h-168l686 1458h168zM301 584v698l-178 -156v179l178 153h158v-874h-158z" />
    <glyph glyph-name="uni2151" unicode="&#x2151;" horiz-adv-x="1734" 
d="M1520 611q0 60 -32 95t-83 35t-84 -34.5t-33 -92.5t32 -96.5t83 -38.5t84 36t33 96zM1675 617q0 -58 -16.5 -108t-50.5 -118l-191 -391h-170l183 362q-27 -10 -69 -10q-93 0 -160.5 71.5t-67.5 193.5t77.5 194t194.5 72t193.5 -71.5t76.5 -194.5zM608 0h-168l686 1458
h168zM301 584v698l-178 -156v179l178 153h158v-874h-158z" />
    <glyph glyph-name="uni2152" unicode="&#x2152;" horiz-adv-x="2400" 
d="M2177 621q0 55 -29.5 88.5t-79 33.5t-79 -32.5t-29.5 -89.5v-369q0 -55 29.5 -87t79 -32t79 32t29.5 87v369zM2333 252q0 -121 -77 -190.5t-187.5 -69.5t-187.5 69.5t-77 190.5v371q0 120 76.5 190t188 70t188 -70t76.5 -190v-371zM1370 0v698l-178 -155v178l178 153h158
v-874h-158zM608 0h-168l686 1458h168zM301 584v698l-178 -156v179l178 153h158v-874h-158z" />
    <glyph glyph-name="onethird" unicode="&#x2153;" horiz-adv-x="1734" 
d="M1573 453q115 -61 115 -192t-79.5 -200t-197.5 -69q-184 0 -232.5 95t-48.5 163h158q2 -59 39 -88t87 -29t83 33t33 90t-32 91t-93 34h-23v135h23q59 0 87 33t28 85t-33 80.5t-79 28.5t-75.5 -27.5t-34.5 -78.5h-155q4 117 79.5 182.5t189.5 65.5t188.5 -71t74.5 -191
t-102 -170zM608 0h-168l686 1458h168zM301 584v698l-178 -156v179l178 153h158v-874h-158z" />
    <glyph glyph-name="twothirds" unicode="&#x2154;" horiz-adv-x="1734" 
d="M1573 453q115 -61 115 -192t-79.5 -200t-197.5 -69q-184 0 -232.5 95t-48.5 163h158q2 -59 39 -88t87 -29t83 33t33 90t-32 91t-93 34h-23v135h23q59 0 87 33t28 85t-33 80.5t-79 28.5t-75.5 -27.5t-34.5 -78.5h-155q4 117 79.5 182.5t189.5 65.5t188.5 -71t74.5 -191
t-102 -170zM608 0h-168l686 1458h168zM76 584v141l330 381q45 52 45 105q0 52 -28 83t-75 31t-81 -23.5t-34 -89.5h-157q0 119 75.5 186.5t191.5 67.5t190.5 -67.5t74.5 -186.5q0 -63 -24.5 -105t-69.5 -95l-248 -287h342v-141h-532z" />
    <glyph glyph-name="uni2155" unicode="&#x2155;" horiz-adv-x="1734" 
d="M1409 453q-87 0 -106 -72h-146v493h498v-141h-355v-192q49 43 118 43q121 0 176 -56q54 -56 67.5 -114t13.5 -126t-15.5 -123t-53.5 -93q-80 -80 -202.5 -80t-193.5 69q-39 41 -52 84t-17 97h155q12 -109 109 -109q47 0 75 26t33 60.5t5 90.5t-24 99.5t-85 43.5zM608 0
h-168l686 1458h168zM301 584v698l-178 -156v179l178 153h158v-874h-158z" />
    <glyph glyph-name="uni2156" unicode="&#x2156;" horiz-adv-x="1734" 
d="M1409 453q-87 0 -106 -72h-146v493h498v-141h-355v-192q49 43 118 43q121 0 176 -56q54 -56 67.5 -114t13.5 -126t-15.5 -123t-53.5 -93q-80 -80 -202.5 -80t-193.5 69q-39 41 -52 84t-17 97h155q12 -109 109 -109q47 0 75 26t33 60.5t5 90.5t-24 99.5t-85 43.5zM608 0
h-168l686 1458h168zM76 584v141l330 381q45 52 45 105q0 52 -28 83t-75 31t-81 -23.5t-34 -89.5h-157q0 119 75.5 186.5t191.5 67.5t190.5 -67.5t74.5 -186.5q0 -63 -24.5 -105t-69.5 -95l-248 -287h342v-141h-532z" />
    <glyph glyph-name="uni2157" unicode="&#x2157;" horiz-adv-x="1734" 
d="M1409 453q-87 0 -106 -72h-146v493h498v-141h-355v-192q49 43 118 43q121 0 176 -56q54 -56 67.5 -114t13.5 -126t-15.5 -123t-53.5 -93q-80 -80 -202.5 -80t-193.5 69q-39 41 -52 84t-17 97h155q12 -109 109 -109q47 0 75 26t33 60.5t5 90.5t-24 99.5t-85 43.5zM608 0
h-168l686 1458h168zM504 1036q114 -61 114 -192t-79 -200t-197 -69q-184 0 -232.5 95.5t-48.5 163.5h158q2 -59 39 -88t87 -29t83 32.5t33 90.5t-32 91.5t-93 33.5h-23v135h23q59 0 87 32.5t28 84.5t-33 81t-79 29t-76 -27.5t-34 -78.5h-155q4 117 79.5 182t186.5 65
q180 0 223 -97t43 -152q0 -131 -102 -183z" />
    <glyph glyph-name="uni2158" unicode="&#x2158;" horiz-adv-x="1734" 
d="M1409 453q-87 0 -106 -72h-146v493h498v-141h-355v-192q49 43 118 43q121 0 176 -56q54 -56 67.5 -114t13.5 -126t-15.5 -123t-53.5 -93q-80 -80 -202.5 -80t-193.5 69q-39 41 -52 84t-17 97h155q12 -109 109 -109q47 0 75 26t33 60.5t5 90.5t-24 99.5t-85 43.5zM608 0
h-168l686 1458h168zM545 709v-125h-150v125h-356v145l299 604h172l-301 -604h186v170h150v-170h82v-145h-82z" />
    <glyph glyph-name="uni2159" unicode="&#x2159;" horiz-adv-x="1734" 
d="M1516 262q0 61 -31 97t-83 36t-84 -33.5t-32 -97t32 -98.5t82 -35t83 35t33 96zM1445 522q90 0 159 -71t69 -191t-76 -194t-193.5 -74t-195.5 70.5t-78 199.5q0 91 66 221l193 391h170l-183 -362q27 10 69 10zM608 0h-168l686 1458h168zM301 584v698l-178 -156v179
l178 153h158v-874h-158z" />
    <glyph glyph-name="uni215A" unicode="&#x215a;" horiz-adv-x="1734" 
d="M1516 262q0 61 -31 97t-83 36t-84 -33.5t-32 -97t32 -98.5t82 -35t83 35t33 96zM1445 522q90 0 159 -71t69 -191t-76 -194t-193.5 -74t-195.5 70.5t-78 199.5q0 91 66 221l193 391h170l-183 -362q27 10 69 10zM608 0h-168l686 1458h168zM340 1036q-86 0 -107 -71h-145
v493h498v-141h-355v-193q49 43 118 43q122 0 176 -55t67.5 -113.5t13.5 -126.5t-15.5 -123t-53.5 -93q-81 -81 -203.5 -81t-192.5 70q-39 41 -52 84t-17 96h155q12 -109 109 -108q47 0 80 28q33 33 33 119t-24 129t-85 43z" />
    <glyph glyph-name="oneeighth" unicode="&#x215b;" horiz-adv-x="1734" 
d="M1513 630q0 48 -30.5 79.5t-79.5 31.5t-80 -31.5t-31 -79.5t32 -81t79 -33t78.5 33t31.5 81zM1526 256q0 53 -35 89t-88 36t-88 -36t-35 -89t35 -88t88 -35t88 35t35 88zM1681 254q0 -125 -79 -193.5t-198 -68.5t-200.5 68t-81.5 192t113 201q-100 69 -100 180
q0 110 77.5 180t190 70t190.5 -69.5t78 -183.5t-100 -177q110 -74 110 -199zM608 0h-168l686 1458h168zM301 584v698l-178 -156v179l178 153h158v-874h-158z" />
    <glyph glyph-name="threeeighths" unicode="&#x215c;" horiz-adv-x="1734" 
d="M1513 630q0 48 -30.5 79.5t-79.5 31.5t-80 -31.5t-31 -79.5t32 -81t79 -33t78.5 33t31.5 81zM1526 256q0 53 -35 89t-88 36t-88 -36t-35 -89t35 -88t88 -35t88 35t35 88zM1681 254q0 -125 -79 -193.5t-198 -68.5t-200.5 68t-81.5 192t113 201q-100 69 -100 180
q0 110 77.5 180t190 70t190.5 -69.5t78 -183.5t-100 -177q110 -74 110 -199zM608 0h-168l686 1458h168zM504 1036q114 -61 114 -192t-79 -200t-197 -69q-184 0 -232.5 95.5t-48.5 163.5h158q2 -59 39 -88t87 -29t83 32.5t33 90.5t-32 91.5t-93 33.5h-23v135h23q59 0 87 32.5
t28 84.5t-33 81t-79 29t-76 -27.5t-34 -78.5h-155q4 117 79.5 182t186.5 65q180 0 223 -97t43 -152q0 -131 -102 -183z" />
    <glyph glyph-name="fiveeighths" unicode="&#x215d;" horiz-adv-x="1734" 
d="M1513 630q0 48 -30.5 79.5t-79.5 31.5t-80 -31.5t-31 -79.5t32 -81t79 -33t78.5 33t31.5 81zM1526 256q0 53 -35 89t-88 36t-88 -36t-35 -89t35 -88t88 -35t88 35t35 88zM1681 254q0 -125 -79 -193.5t-198 -68.5t-200.5 68t-81.5 192t113 201q-100 69 -100 180
q0 110 77.5 180t190 70t190.5 -69.5t78 -183.5t-100 -177q110 -74 110 -199zM608 0h-168l686 1458h168zM340 1036q-86 0 -107 -71h-145v493h498v-141h-355v-193q49 43 118 43q122 0 176 -55t67.5 -113.5t13.5 -126.5t-15.5 -123t-53.5 -93q-81 -81 -203.5 -81t-192.5 70
q-39 41 -52 84t-17 96h155q12 -109 109 -108q47 0 80 28q33 33 33 119t-24 129t-85 43z" />
    <glyph glyph-name="seveneighths" unicode="&#x215e;" horiz-adv-x="1734" 
d="M1513 630q0 48 -30.5 79.5t-79.5 31.5t-80 -31.5t-31 -79.5t32 -81t79 -33t78.5 33t31.5 81zM1526 256q0 53 -35 89t-88 36t-88 -36t-35 -89t35 -88t88 -35t88 35t35 88zM1681 254q0 -125 -79 -193.5t-198 -68.5t-200.5 68t-81.5 192t113 201q-100 69 -100 180
q0 110 77.5 180t190 70t190.5 -69.5t78 -183.5t-100 -177q110 -74 110 -199zM608 0h-168l686 1458h168zM207 1317v-143h-146v284h555v-139l-284 -735h-158l285 733h-252z" />
    <glyph glyph-name="uni215F" unicode="&#x215f;" horiz-adv-x="1069" 
d="M608 0h-168l686 1458h168zM301 584v698l-178 -156v179l178 153h158v-874h-158z" />
    <glyph glyph-name="uni2189" unicode="&#x2189;" horiz-adv-x="1734" 
d="M1573 453q115 -61 115 -192t-79.5 -200t-197.5 -69q-184 0 -232.5 95t-48.5 163h158q2 -59 39 -88t87 -29t83 33t33 90t-32 91t-93 34h-23v135h23q59 0 87 33t28 85t-33 80.5t-79 28.5t-75.5 -27.5t-34.5 -78.5h-155q4 117 79.5 182.5t189.5 65.5t188.5 -71t74.5 -191
t-102 -170zM608 0h-168l686 1458h168zM442 1204q0 55 -29.5 89t-78.5 34t-79 -32.5t-30 -90.5v-368q0 -55 30 -87t79 -32t78.5 31.5t29.5 87.5v368zM598 836q0 -121 -76.5 -191t-188 -70t-187.5 70.5t-76 190.5v370q0 120 75.5 190t188 70t188.5 -69.5t76 -190.5v-370z" />
    <glyph glyph-name="arrowleft" unicode="&#x2190;" horiz-adv-x="2103" 
d="M1995 668v-199h-1526l707 -702h-267l-803 800l803 803h267l-707 -702h1526z" />
    <glyph glyph-name="arrowup" unicode="&#x2191;" horiz-adv-x="2103" 
d="M1149 -375h-199v1526l-702 -707v267l801 802l802 -802v-267l-702 707v-1526z" />
    <glyph glyph-name="arrowright" unicode="&#x2192;" horiz-adv-x="2103" 
d="M109 471v197h1525l-706 704h266l803 -803l-803 -802h-266l706 704h-1525z" />
    <glyph glyph-name="arrowdown" unicode="&#x2193;" horiz-adv-x="2103" 
d="M952 1513h199v-1525l702 706v-266l-800 -803l-803 803v266l702 -706v1525z" />
    <glyph glyph-name="uni2196" unicode="&#x2196;" horiz-adv-x="2103" 
d="M383 1235h1137l188 -188l-997 2l1077 -1078l-139 -139l-1080 1077l2 -997l-188 188v1135z" />
    <glyph glyph-name="uni2197" unicode="&#x2197;" horiz-adv-x="2103" 
d="M1718 1235v-1135l-186 -188l2 999l-1081 -1079l-140 139l1080 1080l-998 -4l189 188h1134z" />
    <glyph glyph-name="uni2198" unicode="&#x2198;" horiz-adv-x="2103" 
d="M1733 -133h-1135l-188 186l997 -2l-1079 1079l141 142l1079 -1079l-4 997l189 -191v-1132z" />
    <glyph glyph-name="uni2199" unicode="&#x2199;" horiz-adv-x="2103" 
d="M367 -133v1134l188 189v-997l1077 1079l140 -144l-1078 -1077l998 2l-189 -186h-1136z" />
    <glyph glyph-name="partialdiff" unicode="&#x2202;" horiz-adv-x="1124" 
d="M750 572.5q0 144.5 -63 209.5q-63 64 -145 64q-84 0 -136 -54t-62 -127t-10 -155t10 -155t62 -127t134 -54t144 59q45 47 55.5 121t10.5 218.5zM530 1032q142 0 220 -86v96q0 164 -89 207t-161 43t-121 -21.5t-98 -68.5l-131 131q82 76 163.5 106.5t196.5 30.5
q218 0 333 -126t115 -338v-496q0 -278 -105 -390q-124 -132 -312.5 -132t-298.5 121q-72 76 -94.5 174t-22.5 230t30.5 265.5t151.5 193.5t223 60z" />
    <glyph glyph-name="Delta" unicode="&#x2206;" horiz-adv-x="1267" 
d="M637 1128l-332 -940h662zM10 0l535 1458h178l532 -1458h-1245z" />
    <glyph glyph-name="product" unicode="&#x220f;" horiz-adv-x="1413" 
d="M1001 -420v1780h-589v-1780h-222v1976h1035v-1976h-224z" />
    <glyph glyph-name="summation" unicode="&#x2211;" horiz-adv-x="1130" 
d="M98 -420v180l400 832l-396 784v180h932v-198h-674l330 -666v-205l-336 -708h686v-199h-942z" />
    <glyph glyph-name="minus" unicode="&#x2212;" horiz-adv-x="1091" 
d="M104 471v195h883v-195h-883z" />
    <glyph glyph-name="uni2219" unicode="&#x2219;" horiz-adv-x="1091" 
d="M780 449q-99 -99 -234 -99t-235 98t-100 234q0 135 98 238q98 98 234 98t237 -98q99 -100 99 -236t-99 -235z" />
    <glyph glyph-name="radical" unicode="&#x221a;" horiz-adv-x="1187" 
d="M1126 1458v-198h-186l-414 -1260h-172l-344 1038h228l202 -641l334 1061h352z" />
    <glyph glyph-name="infinity" unicode="&#x221e;" horiz-adv-x="1699" 
d="M1374 561q0 74 -47 117t-114 43t-115.5 -45t-108.5 -115q59 -70 109 -116t116 -46t113 44t47 118zM484 723q-67 0 -112.5 -44t-45.5 -118t46 -118t112 -44t117 46t110 116q-59 70 -109.5 116t-117.5 46zM850 412q-176 -205 -356 -205q-177 0 -273 100t-96 258t96.5 258.5
t261.5 100.5q191 0 367 -205q86 100 171 152.5t183 52.5t165 -28t113 -76t69.5 -113.5t23.5 -181.5t-96 -216t-262 -100q-109 0 -195 51t-172 152z" />
    <glyph glyph-name="integral" unicode="&#x222b;" horiz-adv-x="886" 
d="M698 1296q-147 0 -147 -151v-1227q0 -156 -91 -244t-245 -88h-117v178h90q145 0 146 152v1227q0 156 92 244t246 88h116v-179h-90z" />
    <glyph glyph-name="approxequal" unicode="&#x2248;" horiz-adv-x="1175" 
d="M395 322q-43 0 -81 -16.5t-95 -74.5l-131 131q91 91 156 125.5t136 34.5q70 0 122.5 -18t131.5 -58t148 -40t107.5 30.5t66.5 59.5l131 -131q-92 -92 -196 -147t-284 32q-93 45 -131 58.5t-81 13.5zM860 628q-35 -7 -104 -7t-201 65q-92 49 -148.5 49t-93.5 -15t-94 -73
l-131 131q91 91 154 124.5t135 33.5q108 0 220 -58q113 -58 172 -57q59 0 96 18t89 70l133 -131q-91 -91 -141.5 -117t-85.5 -33z" />
    <glyph glyph-name="notequal" unicode="&#x2260;" horiz-adv-x="1169" 
d="M104 272v195h283l180 203h-463v194h619l213 246l129 -104l-125 -142h125v-194h-283l-180 -203h463v-195h-621l-211 -245l-129 104l125 141h-125z" />
    <glyph glyph-name="lessequal" unicode="&#x2264;" horiz-adv-x="1091" 
d="M168 303v221l756 -362v-221zM168 682v184l756 365v-221l-502 -236l502 -235v-222z" />
    <glyph glyph-name="greaterequal" unicode="&#x2265;" horiz-adv-x="1091" 
d="M168 -59v221l756 362v-221zM168 317v222l502 235l-502 236v221l756 -365v-184z" />
    <glyph glyph-name="dotmath" unicode="&#x22c5;" horiz-adv-x="1091" 
d="M420 444v250h250v-250h-250z" />
    <glyph glyph-name="lozenge" unicode="&#x25ca;" horiz-adv-x="1314" 
d="M657 1133l-299 -424l299 -426l299 426zM657 -39l-532 748l532 747l535 -747z" />
    <glyph glyph-name="fi" unicode="&#xfb01;" horiz-adv-x="1200" 
d="M522 1290q-116 0 -114 -121v-131h206v-159h-206v-879h-209v879h-119v159h119v142q0 190 157 264q53 25 127 24h131v-178h-92zM819 1243v221h221v-221h-221zM825 0v1038h209v-1038h-209z" />
    <glyph glyph-name="fl" unicode="&#xfb02;" horiz-adv-x="1296" 
d="M522 1290q-116 0 -114 -121v-131h206v-159h-206v-879h-209v879h-119v159h119v142q0 190 157 264q53 25 127 24h131v-178h-92zM1104 0q-138 0 -210 80q-73 80 -75 207v1171h209v-1159q0 -59 25 -90t88 -31h92v-178h-129z" />
    <glyph glyph-name="uniFEFF" unicode="&#xfeff;" horiz-adv-x="0" 
 />
    <glyph glyph-name="caroncomma.ss01" horiz-adv-x="1099" 
d="M1157 1503h186v-250l-186 -155v405z" />
    <glyph glyph-name="caroncomma" horiz-adv-x="1099" 
d="M1243 1169h-153l75 326h193z" />
    <glyph glyph-name="commaaccent" horiz-adv-x="557" 
d="M270 -432h-207l144 301h168z" />
    <glyph glyph-name="commaturn" horiz-adv-x="557" 
d="M326 1227h-158l154 332h231z" />
    <glyph glyph-name="breveCyrLc.comp" horiz-adv-x="1024" 
d="M362 1460q12 -139 149 -139t151 139h165q-15 -276 -270.5 -276t-305.5 100t-54 176h165z" />
    <glyph glyph-name="breveCyrUc.comp" horiz-adv-x="1024" 
d="M475 1544q-174 0 -224 99.5t-54 175.5h165q12 -140 149 -140t151 140h165q-8 -143 -93 -209t-259 -66z" />
    <glyph glyph-name="grave.lc" horiz-adv-x="1099" 
d="M483 1227l-227 332h231l154 -332h-158z" />
    <glyph glyph-name="dieresis.lc" horiz-adv-x="1099" 
d="M233 1237v221h189v-221h-189zM676 1237v221h188v-221h-188z" />
    <glyph glyph-name="macron.lc" horiz-adv-x="1024" 
d="M195 1415h632v-149h-632v149z" />
    <glyph glyph-name="acute.lc" horiz-adv-x="1099" 
d="M600 1227h-158l154 332h231z" />
    <glyph glyph-name="circumflex.lc" horiz-adv-x="1099" 
d="M727 1227l-178 198l-178 -198h-174l264 329h176l264 -329h-174z" />
    <glyph glyph-name="caron.lc" horiz-adv-x="960" 
d="M578 1227h-177l-264 329h174l178 -198l179 198h174z" />
    <glyph glyph-name="breve.lc" horiz-adv-x="1024" 
d="M511 1214q-146 0 -236.5 72t-100.5 225h148q10 -72 61 -107.5t144 -35.5t131 52.5t42 90.5h148q-10 -154 -100.5 -225.5t-236.5 -71.5z" />
    <glyph glyph-name="dotaccent.lc" horiz-adv-x="1024" 
d="M412 1450h198v-199h-198v199z" />
    <glyph glyph-name="ring.lc" horiz-adv-x="1085" 
d="M657 1435.5q0 53.5 -38.5 91.5t-92 38t-92.5 -38t-39 -91.5t39 -91t92.5 -37.5t92 37.5t38.5 91zM782 1435.5q0 -53.5 -20.5 -99.5t-55 -80.5t-80.5 -55t-99.5 -20.5t-99.5 20.5t-81 55t-55.5 80.5t-20.5 99.5t20.5 99.5t55.5 81t81 55.5t99.5 20.5t99.5 -20.5
t80.5 -55.5t55 -81t20.5 -99.5z" />
    <glyph glyph-name="tilde.lc" horiz-adv-x="1099" 
d="M775 1268.5q-48 -21.5 -105 -21.5t-136 43t-114 43t-59.5 -9t-67.5 -52l-98 96q70 70 116.5 91.5t106.5 21.5t135 -44t127 -44t115 63l98 -96q-70 -70 -118 -91.5z" />
    <glyph glyph-name="hungarumlaut.lc" horiz-adv-x="1024" 
d="M170 1227l156 329h229l-227 -329h-158zM549 1227l156 329h229l-227 -329h-158z" />
    <glyph glyph-name="grave.uc" horiz-adv-x="1323" 
d="M610 1599l-227 332h231l154 -332h-158z" />
    <glyph glyph-name="dieresis.uc" horiz-adv-x="1323" 
d="M346 1610v221h189v-221h-189zM788 1610v221h189v-221h-189z" />
    <glyph glyph-name="macron.uc" horiz-adv-x="1024" 
d="M195 1778h632v-150h-632v150z" />
    <glyph glyph-name="acute.uc" horiz-adv-x="1323" 
d="M713 1599h-158l154 332h231z" />
    <glyph glyph-name="circumflex.uc" horiz-adv-x="1323" 
d="M840 1599l-178 199l-179 -199h-174l264 330h177l264 -330h-174z" />
    <glyph glyph-name="caron.uc" horiz-adv-x="1130" 
d="M664 1599h-177l-264 330h174l178 -198l179 198h174z" />
    <glyph glyph-name="breve.uc" horiz-adv-x="1024" 
d="M512 1622q-145 0 -236.5 71.5t-101.5 225.5h148q10 -72 62 -108.5t128 -36.5t128 36.5t62 108.5h148q-10 -154 -101.5 -225.5t-236.5 -71.5z" />
    <glyph glyph-name="dotaccent.uc" horiz-adv-x="1024" 
d="M412 1823h198v-199h-198v199z" />
    <glyph glyph-name="ring.uc" horiz-adv-x="1024" 
d="M643 1792q0 53 -39 91t-92 38t-92 -38t-39 -91t39 -91t92 -38t92 38t39 91zM768 1792q0 -53 -20.5 -99t-55.5 -81t-81 -55.5t-99 -20.5t-99 20.5t-81 55.5t-55.5 81t-20.5 99t20.5 99t55.5 81t81 55.5t99 20.5t99 -20.5t81 -55.5t55.5 -81t20.5 -99z" />
    <glyph glyph-name="tilde.uc" horiz-adv-x="1323" 
d="M890 1641.5q-48 -21.5 -105 -21.5t-136 43t-114 43q-36 0 -60 -9t-67 -52l-99 96q70 70 117 91t108 21t135 -44t125 -44t115 64l99 -96q-70 -70 -118 -91.5z" />
    <glyph glyph-name="hungarumlaut.uc" horiz-adv-x="1024" 
d="M170 1599l156 330h229l-227 -330h-158zM549 1599l156 330h229l-227 -330h-158z" />
    <glyph glyph-name="diedot.uc" horiz-adv-x="1323" 
d="M346 1610v221h189v-221h-189z" />
    </font>
</defs>
</svg>
