<?xml version="1.0" standalone="no"?>
<!DOCTYPE svg PUBLIC "-//W3C//DTD SVG 1.1//EN" "http://www.w3.org/Graphics/SVG/1.1/DTD/svg11.dtd" >
<svg>
<metadata>
Created by FontForge 20090914 at Mon Jun 13 13:47:29 2016
 By www-data
2009 Albert-Jan Pool published by FSI FontShop International GmbH
</metadata>
<defs>
<font id="Lceeiczeexohdxtzlzvdnpvulfr" horiz-adv-x="375" >
  <font-face 
    font-family="Lceeiczeexohdxtzlzvdnpvulfr"
    font-weight="500"
    font-stretch="condensed"
    units-per-em="1000"
    panose-1="2 11 6 6 2 1 1 1 1 2"
    ascent="764"
    descent="-236"
    x-height="518"
    cap-height="712"
    bbox="-70 -206 1030 1093"
    underline-thickness="61"
    underline-position="-113"
    unicode-range="U+0020-U+FEFF"
  />
<missing-glyph horiz-adv-x="395" 
d="M57 712h281v-712h-281v712zM277 61v590h-159v-590h159z" />
    <glyph glyph-name=".notdef" horiz-adv-x="395" 
d="M57 712h281v-712h-281v712zM277 61v590h-159v-590h159z" />
    <glyph glyph-name="space" unicode=" " horiz-adv-x="187" 
 />
    <glyph glyph-name="exclam" unicode="!" horiz-adv-x="242" 
d="M93 193v519h81v-519h-81zM84 0v99h99v-99h-99z" />
    <glyph glyph-name="quotedbl" unicode="&#x22;" horiz-adv-x="395" 
d="M244 520v192h83v-192h-83zM67 520v192h83v-192h-83z" />
    <glyph glyph-name="numbersign" unicode="#" horiz-adv-x="554" 
d="M421 436l-19 -145h72v-76h-84l-29 -215h-82l29 215h-105l-29 -215h-82l29 215h-70v76h82l19 145h-72v76h83l27 200h83l-27 -200h104l27 200h83l-28 -200h71v-76h-82zM234 436l-19 -145h104l20 145h-105z" />
    <glyph glyph-name="dollar" unicode="$" horiz-adv-x="434" 
d="M391 191c0 -37.333 -3.16797 -68.167 -9.50098 -92.5s-18.166 -45.166 -35.499 -62.499c-10.667 -10.667 -23.5 -19.5 -38.5 -26.5s-32.5 -11.833 -52.5 -14.5v-109h-77v108c-41.333 4.66699 -73.333 18.667 -96 42c-16.667 16.667 -28.167 36.334 -34.5 59.001
s-9.5 53 -9.5 91h86c0 -23.333 1.66699 -42.166 5 -56.499s9.66602 -26.5 18.999 -36.5c6.66699 -8 16.667 -14 30 -18v262l-38 16c-18 7.33301 -33.333 15.666 -46 24.999s-22.667 20.833 -30 34.5s-12.666 30 -15.999 49s-5 42.167 -5 69.5c0 31.333 4.5 59.333 13.5 84
s22.5 45.334 40.5 62.001c22 20 49 33 81 39v90h77v-90c36.667 -5.33301 65.667 -18.333 87 -39c18 -17.333 30.333 -37.833 37 -61.5s10 -51.834 10 -84.501h-86c0 19.333 -1.33301 35.666 -4 48.999s-8.66699 25.666 -18 36.999c-6.66699 8 -15.334 14.333 -26.001 19
v-235l36 -15c20 -8 36.5 -17.5 49.5 -28.5s23.333 -24.167 31 -39.5s12.834 -33.333 15.501 -54s4 -45 4 -73zM304.999 188.999c0 18 -0.666992 33.332 -2 45.999s-4 23.667 -8 33s-9.16699 17.333 -15.5 24s-14.5 12.667 -24.5 18v-234c10.667 4 19.667 10 27 18
c9.33301 10.667 15.5 23.334 18.5 38.001s4.5 33.667 4.5 57zM177.999 635.998c-9.33301 -4 -17.332 -9.66699 -23.999 -17c-16.667 -18.667 -25 -47 -25 -85c0 -15.333 0.666992 -28.5 2 -39.5s3.66602 -20.5 6.99902 -28.5s8.33301 -15 15 -21s15 -11.667 25 -17v208z" />
    <glyph glyph-name="percent" unicode="%" horiz-adv-x="675" 
d="M624 102c0 -35.333 -10.833 -62.5 -32.5 -81.5s-48.5 -28.5 -80.5 -28.5s-58.833 9.5 -80.5 28.5s-32.5 46.167 -32.5 81.5v154c0 35.333 10.833 62.5 32.5 81.5s48.5 28.5 80.5 28.5s58.833 -9.5 80.5 -28.5s32.5 -46.167 32.5 -81.5v-154zM276 456
c0 -35.333 -10.833 -62.5 -32.5 -81.5s-48.5 -28.5 -80.5 -28.5s-58.667 9.5 -80 28.5s-32 46.167 -32 81.5v154c0 35.333 10.667 62.5 32 81.5s48 28.5 80 28.5s58.833 -9.5 80.5 -28.5s32.5 -46.167 32.5 -81.5v-154zM246 0h-65l248 712h65zM556 254
c0 16.667 -4 29.334 -12 38.001s-19 13 -33 13s-25 -4.33301 -33 -13s-12 -21.334 -12 -38.001v-151c0 -16.667 4 -29.334 12 -38.001s19 -13 33 -13s25 4.33301 33 13s12 21.334 12 38.001v151zM208 609c0 16.667 -4 29.332 -12 37.999s-19 13 -33 13
c-29.333 0 -44 -17 -44 -51v-151c0 -34 14.667 -51 44 -51c14 0 25 4.33301 33 13s12 21.334 12 38.001v151z" />
    <glyph glyph-name="ampersand" unicode="&#x26;" horiz-adv-x="492" 
d="M402 0l-47.9971 73.001c-21.333 -24.667 -43.5 -44.334 -66.5 -59.001s-52.5 -22 -88.5 -22c-23.333 0 -44.833 4 -64.5 12s-36.834 19.667 -51.501 35s-26.167 33.833 -34.5 55.5s-12.5 46.5 -12.5 74.5c0 42 9.5 80 28.5 114s47.833 69.333 86.5 106l-36.5 53
c-10.333 15.333 -18.833 30 -25.5 44s-11.667 27.5 -15 40.5s-5 26.833 -5 41.5c0 46 12.333 82.667 37 110s58 41 100 41c46.667 0 81.5 -13.5 104.5 -40.5s34.5 -60.833 34.5 -101.5c0 -21.333 -2 -40.666 -6 -57.999s-10.167 -33.833 -18.5 -49.5s-18.833 -31 -31.5 -46
s-27.334 -30.5 -44.001 -46.5l109 -165c10 19.333 18.333 42.666 25 69.999s11 54 13 80h72c-2.66699 -40.667 -9.83398 -80.5 -21.501 -119.5s-26.167 -72.833 -43.5 -101.5l90 -141h-87zM191.003 324.001c-26.667 -26.667 -46.167 -51.668 -58.5 -75.001
s-18.5 -47.666 -18.5 -72.999c0 -31.333 8.16699 -57.5 24.5 -78.5s38.833 -31.5 67.5 -31.5c21.333 0 40.5 6.5 57.5 19.5s33.5 30.167 49.5 51.5zM270.003 575c0 21.333 -5.83301 38.499 -17.5 51.499s-26.834 19.5 -45.501 19.5
c-21.333 0 -37.166 -7.83301 -47.499 -23.5s-15.5 -33.167 -15.5 -52.5c0 -17.333 4.5 -35.333 13.5 -54s24.5 -43.334 46.5 -74.001c10.667 10.667 20 20.834 28 30.501s14.833 19.667 20.5 30s10 21.333 13 33s4.5 24.834 4.5 39.501z" />
    <glyph glyph-name="quotesingle" unicode="'" horiz-adv-x="218" 
d="M67 520v192h84v-192h-84z" />
    <glyph glyph-name="parenleft" unicode="(" horiz-adv-x="244" 
d="M148 -94c-14.667 14.667 -28.3311 29.168 -40.998 43.501s-23.334 29.166 -32.001 44.499c-9.33301 17.333 -15.333 35 -18 53s-4 36.333 -4 55v508c0 18.667 1.33301 37 4 55s8.66699 35.667 18 53c9.33301 16.667 20.166 31.834 32.499 45.501
s25.833 27.834 40.5 42.501l55 -55l-30 -30.5c-9.33301 -9.66699 -17.333 -20.834 -24 -33.501c-10 -20 -15 -47.667 -15 -83v-496c0 -35.333 5 -63 15 -83c6.66699 -12.667 14.667 -23.834 24 -33.501l30 -30.5z" />
    <glyph glyph-name="parenright" unicode=")" horiz-adv-x="244" 
d="M191 102c0 -18.667 -1.33008 -37.001 -3.99707 -55.001s-8.66699 -35.667 -18 -53c-8.66699 -15.333 -19.334 -30.166 -32.001 -44.499s-26.334 -28.833 -41.001 -43.5l-55 55l30 30.5c9.33301 9.66699 17.333 20.834 24 33.501c10 20 15 47.667 15 83v496
c0 35.333 -5 63 -15 83c-6.66699 12.667 -14.667 23.834 -24 33.501l-30 30.5l55 55c14.667 -14.667 28.167 -28.834 40.5 -42.501s23.166 -28.834 32.499 -45.501c9.33301 -17.333 15.333 -35 18 -53s4 -36.333 4 -55v-508z" />
    <glyph glyph-name="asterisk" unicode="*" horiz-adv-x="393" 
d="M316 440l-92 56l3 -126h-61l4 126l-93 -56l-30 52l95 51l-95 50l30 53l93 -57l-4 126h61l-3 -126l92 57l30 -53l-96 -50l96 -51z" />
    <glyph glyph-name="plus" unicode="+" horiz-adv-x="444" 
d="M261 244v-137h-77v137h-138v77h138v138h77v-138h137v-77h-137z" />
    <glyph glyph-name="comma" unicode="," horiz-adv-x="207" 
d="M57 -124v224h92v-156z" />
    <glyph glyph-name="hyphen" unicode="-" horiz-adv-x="298" 
d="M51 244v77h196v-77h-196z" />
    <glyph glyph-name="period" unicode="." horiz-adv-x="216" 
d="M59 0v99h99v-99h-99z" />
    <glyph glyph-name="slash" unicode="/" horiz-adv-x="272" 
d="M83 -74h-79l185 860h79z" />
    <glyph glyph-name="zero" unicode="0" horiz-adv-x="381" 
d="M333 140c0 -26.667 -3.5 -48.5 -10.5 -65.5s-16.833 -31.833 -29.5 -44.5c-12.667 -12 -28.167 -21.333 -46.5 -28s-37.166 -10 -56.499 -10s-38 3.33301 -56 10s-33.333 16 -46 28c-12.667 12.667 -22.5 27.5 -29.5 44.5s-10.5 38.833 -10.5 65.5v432
c0 26.667 3.5 48.5 10.5 65.5s16.833 31.833 29.5 44.5c12.667 12 28 21.333 46 28s36.667 10 56 10s38.166 -3.33301 56.499 -10s33.833 -16 46.5 -28c12.667 -12.667 22.5 -27.5 29.5 -44.5s10.5 -38.833 10.5 -65.5v-432zM252 575c0 24 -6 42 -18 54s-26.667 18 -44 18
s-31.833 -6 -43.5 -18s-17.5 -30 -17.5 -54v-438c0 -24 5.83301 -42 17.5 -54s26.167 -18 43.5 -18s32 6 44 18s18 30 18 54v438z" />
    <glyph glyph-name="one" unicode="1" horiz-adv-x="381" 
d="M171 0v617l-104 -85v94l104 86h81v-712h-81z" />
    <glyph glyph-name="two" unicode="2" horiz-adv-x="381" 
d="M49 0l0.000976562 68.001l174 369c8 17.333 15.333 37.5 22 60.5s10 48.833 10 77.5c0 24 -5.83301 42 -17.5 54s-26.167 18 -43.5 18s-32 -6 -44 -18s-18 -30 -18 -54v-48h-81v46c0 26 3.5 47.5 10.5 64.5s16.833 31.833 29.5 44.5c12.667 12 28.167 21.333 46.5 28
s37.166 10 56.499 10s37.666 -3 54.999 -9s32.333 -15 45 -27s22.834 -27 30.501 -45s11.5 -40.333 11.5 -67s-4 -54.334 -12 -83.001s-17.667 -54.667 -29 -78l-159 -338h200v-73h-287z" />
    <glyph glyph-name="three" unicode="3" horiz-adv-x="381" 
d="M334 200c0 -23.333 -0.499023 -43.667 -1.49902 -61s-3.16699 -32.666 -6.5 -45.999s-7.83301 -25 -13.5 -35s-12.834 -19.333 -21.501 -28c-12.667 -12 -28 -21.333 -46 -28s-37 -10 -57 -10c-19.333 0 -38.166 3.16699 -56.499 9.5s-33.5 15.833 -45.5 28.5
c-13.333 12 -23.5 26.5 -30.5 43.5s-10.5 39.167 -10.5 66.5v45h81v-48c0 -24 6 -42 18 -54s26.667 -18 44 -18c18.667 0 33 6.33301 43 19c7.33301 8.66699 12.833 21 16.5 37s5.5 42.333 5.5 79c0 22 -0.333008 39.833 -1 53.5s-1.83398 25 -3.50098 34
s-3.83398 16.333 -6.50098 22s-6 10.834 -10 15.501c-10.667 12.667 -25.334 19 -44.001 19h-38v70h38c18 0 31 5 39 15c8 9.33301 13.333 21.166 16 35.499s4 36.5 4 66.5s-1.33301 52 -4 66s-7.33398 25 -14.001 33c-10 11.333 -23.667 17 -41 17
c-16.667 0 -30.334 -5.83301 -41.001 -17.5s-16 -29.167 -16 -52.5v-50h-81v46c0 26 3.33301 47.667 10 65s16.334 32.333 29.001 45c26 24.667 59 37 99 37c42 0 75 -12 99 -36c14.667 -14.667 25.167 -33.334 31.5 -56.001s9.5 -53.334 9.5 -92.001
c0 -29.333 -1.16699 -52.666 -3.5 -69.999s-7.16602 -33 -14.499 -47c-9.33301 -16.667 -22.666 -30 -39.999 -40c17.333 -11.333 31 -24.333 41 -39c4.66699 -8 8.5 -16 11.5 -24s5.33301 -17.333 7 -28s2.83398 -23 3.50098 -37s1 -31 1 -51z" />
    <glyph glyph-name="four" unicode="4" horiz-adv-x="381" 
d="M303 117v-117h-81v117h-193v73l182 522h78l-177 -522h110v163h81v-163h50v-73h-50z" />
    <glyph glyph-name="five" unicode="5" horiz-adv-x="381" 
d="M337 228c0 -25.333 -0.50293 -47.502 -1.50293 -66.502s-3 -36.167 -6 -51.5s-7.33301 -29 -13 -41s-13.5 -23.667 -23.5 -35c-12 -13.333 -27.167 -23.666 -45.5 -30.999s-37.166 -11 -56.499 -11c-20 0 -39 3.16699 -57 9.5s-33.333 15.5 -46 27.5
c-12.667 12.667 -22.667 27.5 -30 44.5s-11 39.167 -11 66.5v40h81v-40c0 -26 6.16699 -45 18.5 -57s27.166 -18 44.499 -18c18 0 32.667 7 44 21c4 4.66699 7.16699 10.334 9.5 17.001s4.33301 15.334 6 26.001s2.83398 23.834 3.50098 39.501s1 35.5 1 59.5
c0 22 -0.333008 40.667 -1 56s-1.66699 28.333 -3 39s-3.16602 19.667 -5.49902 27s-5.5 13.666 -9.5 18.999c-11.333 16 -26.333 24 -45 24c-17.333 0 -32.166 -6.33301 -44.499 -19s-18.5 -30.334 -18.5 -53.001v-24h-77v415h277v-73h-202v-221
c8 12.667 19.667 23.667 35 33c8 5.33301 16.333 9 25 11s17.667 3 27 3c20.667 0 38 -3.5 52 -10.5s26.333 -17.167 37 -30.5c6.66699 -8 12.167 -16.833 16.5 -26.5s7.83301 -22 10.5 -37s4.66699 -33.167 6 -54.5s2 -47.333 2 -78z" />
    <glyph glyph-name="six" unicode="6" horiz-adv-x="381" 
d="M336 213c0 -25.333 -0.665039 -46.9951 -1.99805 -64.9951s-3.33301 -33.667 -6 -47s-6.16699 -24.833 -10.5 -34.5s-9.83301 -18.5 -16.5 -26.5c-12.667 -16.667 -28.834 -28.834 -48.501 -36.501s-40.5 -11.5 -62.5 -11.5c-24 0 -45.333 4.16699 -64 12.5
s-33.667 20.166 -45 35.499c-7.33301 9.33301 -13.333 19.166 -18 29.499s-8.33398 22.166 -11.001 35.499s-4.5 28.666 -5.5 45.999s-1.5 38 -1.5 62c0 36 2.5 68.5 7.5 97.5s12.167 56.167 21.5 81.5l120 320h83l-115 -297c14.667 11.333 31.667 17 51 17
c36.667 0 65.667 -13.667 87 -41c6.66699 -8 12.167 -16.333 16.5 -25s8 -19.667 11 -33s5.16699 -29.5 6.5 -48.5s2 -42.833 2 -71.5zM255.002 214.005c0 36 -1.16699 64 -3.5 84s-7.83301 35.667 -16.5 47c-10 12.667 -24.667 19 -44 19s-34 -6.33301 -44 -19
c-9.33301 -10.667 -15.166 -26.167 -17.499 -46.5s-3.5 -48.5 -3.5 -84.5s1.16699 -64 3.5 -84s8.16602 -35.333 17.499 -46c10 -12.667 24.667 -19 44 -19c18 0 32.667 6.33301 44 19c9.33301 10.667 15 26 17 46s3 48 3 84z" />
    <glyph glyph-name="seven" unicode="7" horiz-adv-x="381" 
d="M151 0h-82l188 639h-138v-105h-79v178h299v-67z" />
    <glyph glyph-name="eight" unicode="8" horiz-adv-x="381" 
d="M336 199c0 -22 -0.50293 -41.333 -1.50293 -58s-3 -31.5 -6 -44.5s-7.33301 -24.833 -13 -35.5s-13.167 -20.667 -22.5 -30c-12 -12.667 -27.167 -22.334 -45.5 -29.001s-37.166 -10 -56.499 -10c-20 0 -39 3.33301 -57 10s-33.333 16.334 -46 29.001
c-9.33301 9.33301 -16.833 19.333 -22.5 30s-10 22.5 -13 35.5s-5 27.833 -6 44.5s-1.5 36 -1.5 58c0 20 0.333008 37 1 51s1.83398 26.167 3.50098 36.5s4 19.333 7 27s6.83301 15.167 11.5 22.5c9.33301 15.333 23 28.666 41 39.999c-17.333 12 -30.333 25.667 -39 41
c-7.33301 14 -12.5 29.5 -15.5 46.5s-4.5 40.167 -4.5 69.5c0 38.667 3 69.334 9 92.001s17 42 33 58c24.667 24.667 57.334 37 98.001 37c19.333 0 37.666 -3 54.999 -9s32 -15.333 44 -28c16 -16 27 -35.333 33 -58s9 -53.334 9 -92.001c0 -29.333 -1.5 -52.5 -4.5 -69.5
s-8.16699 -32.5 -15.5 -46.5c-8.66699 -15.333 -21.667 -29 -39 -41c18 -11.333 31.667 -24.666 41 -39.999c4.66699 -7.33301 8.5 -14.833 11.5 -22.5s5.33301 -16.667 7 -27s2.83398 -22.5 3.50098 -36.5s1 -31 1 -51zM254.997 202c0 19.333 -0.335938 35.5 -1.00293 48.5
s-1.66699 24 -3 33s-3.5 16.5 -6.5 22.5s-6.5 11.667 -10.5 17c-10.667 12.667 -25 19 -43 19c-18.667 0 -33.334 -6.33301 -44.001 -19c-4 -5.33301 -7.5 -11 -10.5 -17s-5.16699 -13.5 -6.5 -22.5s-2.33301 -20 -3 -33s-1 -29.167 -1 -48.5
c0 -17.333 0.333008 -32.333 1 -45s1.83398 -23.667 3.50098 -33s3.83398 -17.166 6.50098 -23.499s6 -11.833 10 -16.5c10 -12.667 24.667 -19 44 -19c18 0 32.333 6.33301 43 19c4 4.66699 7.33301 10.167 10 16.5s4.83398 14.166 6.50098 23.499
s2.83398 20.333 3.50098 33s1 27.667 1 45zM249.994 529c0 33.333 -1.66699 56.833 -5 70.5s-8.66602 24.5 -15.999 32.5c-10 10 -22.667 15 -38 15c-16 0 -29 -5 -39 -15c-7.33301 -8 -12.666 -18.833 -15.999 -32.5s-5 -37.167 -5 -70.5s1.66699 -57 5 -71
s8.66602 -25 15.999 -33c9.33301 -9.33301 22.333 -14 39 -14c16 0 28.667 4.66699 38 14c7.33301 8 12.666 19 15.999 33s5 37.667 5 71z" />
    <glyph glyph-name="nine" unicode="9" horiz-adv-x="381" 
d="M336 499c0 -36 -2.50293 -68.5049 -7.50293 -97.5049s-12.167 -56.167 -21.5 -81.5l-120 -320h-83l116 297c-15.333 -11.333 -32.333 -17 -51 -17c-36.667 0 -66 13.667 -88 41c-6.66699 8 -12.167 16.333 -16.5 25s-8 19.667 -11 33s-5.16699 29.5 -6.5 48.5
s-2 42.833 -2 71.5c0 25.333 0.666992 47 2 65s3.33301 33.667 6 47s6.33398 24.833 11.001 34.5s10.334 18.5 17.001 26.5c12 16.667 27.833 28.834 47.5 36.501s40.5 11.5 62.5 11.5c24 0 45.333 -4.16699 64 -12.5s33.667 -20.166 45 -35.499
c7.33301 -9.33301 13.333 -19.166 18 -29.499s8.33398 -22.166 11.001 -35.499s4.5 -28.666 5.5 -45.999s1.5 -38 1.5 -62zM254.997 497.995c0 35.333 -1 63.167 -3 83.5s-7.66699 35.833 -17 46.5c-11.333 12.667 -26 19 -44 19c-19.333 0 -34 -6.33301 -44 -19
c-9.33301 -10.667 -15.166 -26.167 -17.499 -46.5s-3.5 -48.166 -3.5 -83.499s1.16699 -63.333 3.5 -84s8.16602 -36.334 17.499 -47.001c10 -12.667 24.667 -19 44 -19c18 0 32.667 6.33301 44 19c9.33301 10.667 15 26.167 17 46.5s3 48.5 3 84.5z" />
    <glyph glyph-name="colon" unicode=":" horiz-adv-x="242" 
d="M84 326v99h99v-99h-99zM84 0v99h99v-99h-99z" />
    <glyph glyph-name="semicolon" unicode=";" horiz-adv-x="242" 
d="M88 -124v224h92v-156zM84 326v99h99v-99h-99z" />
    <glyph glyph-name="less" unicode="&#x3c;" horiz-adv-x="381" 
d="M34 257v61l313 183v-90l-216 -123l216 -123v-90z" />
    <glyph glyph-name="equal" unicode="=" horiz-adv-x="444" 
d="M46 320v77h352v-77h-352zM46 158v77h352v-77h-352z" />
    <glyph glyph-name="greater" unicode="&#x3e;" horiz-adv-x="381" 
d="M34 75v90l216 123l-216 123v90l313 -183v-61z" />
    <glyph glyph-name="question" unicode="?" horiz-adv-x="400" 
d="M362 535c0 -25.333 -2.16699 -47.166 -6.5 -65.499s-12.5 -36.166 -24.5 -53.499l-59 -85c-14.667 -21.333 -22 -44.666 -22 -69.999v-68h-81v78c0 15.333 2.66699 30.166 8 44.499s12 27.5 20 39.5l58 85c11.333 16 18.5 31.167 21.5 45.5s4.5 31.5 4.5 51.5
c0 22 -1.66699 39.833 -5 53.5s-9.33301 25.167 -18 34.5c-12 13.333 -28.667 20 -50 20c-19.333 0 -35.333 -6.33301 -48 -19c-10 -10.667 -16.167 -23.334 -18.5 -38.001s-3.5 -29.334 -3.5 -44.001h-81c0 28 3.16699 53.167 9.5 75.5s17.5 41.166 33.5 56.499
c13.333 12.667 28.833 22.834 46.5 30.501s38.167 11.5 61.5 11.5c46 0 82.667 -13.667 110 -41c15.333 -15.333 26.5 -33.833 33.5 -55.5s10.5 -50.5 10.5 -86.5zM160 0v99h99v-99h-99z" />
    <glyph glyph-name="at" unicode="@" horiz-adv-x="775" 
d="M352 105c14.667 0 27.001 5.32617 37.001 15.9932s18.5 23.834 25.5 39.501s12.5 32 16.5 49l10 43.5c2 8.66699 3.66699 17.667 5 27s2.66602 18.166 3.99902 26.499s2.33301 16 3 23s1 12.5 1 16.5c0 6.66699 -0.5 13.834 -1.5 21.501s-3 14.834 -6 21.501
s-7 12.334 -12 17.001s-11.833 7 -20.5 7c-10.667 0 -19.5 -2.5 -26.5 -7.5s-13.5 -11.5 -19.5 -19.5c-7.33301 -10 -14.333 -24.667 -21 -44s-12.5 -39.666 -17.5 -60.999s-9 -42.166 -12 -62.499s-4.5 -36.833 -4.5 -49.5c0 -6.66699 0.5 -13.667 1.5 -21
s2.83301 -14.166 5.5 -20.499s6.66699 -11.666 12 -15.999s12 -6.5 20 -6.5zM721.001 363.993c0 -42 -5.83789 -82.499 -17.5049 -121.499s-28.5 -73.667 -50.5 -104s-49 -54.666 -81 -72.999s-68.333 -27.5 -109 -27.5h-60l10 48
c-13.333 -16.667 -27.166 -29.834 -41.499 -39.501s-29.833 -14.5 -46.5 -14.5c-17.333 0 -32 3.33301 -44 10s-21.667 15.5 -29 26.5s-12.666 24 -15.999 39s-5 31.167 -5 48.5c0 13.333 1.16699 29.666 3.5 48.999s5.16602 37.666 8.49902 54.999
c10 48.667 20.667 87.5 32 116.5s24.333 51.5 39 67.5c14 16 28.333 27 43 33s29.334 9 44.001 9c20 0 36.5 -5.16699 49.5 -15.5s22.167 -23.166 27.5 -38.499l10 49h80l-77 -383c24 1.33301 46 9.16602 66 23.499s37.333 33.5 52 57.5s26.167 51.833 34.5 83.5
s12.5 65.167 12.5 100.5c0 40.667 -5.16699 77.834 -15.5 111.501s-25 62.5 -44 86.5s-42 42.5 -69 55.5s-56.833 19.5 -89.5 19.5c-43.333 0 -83.666 -11.833 -120.999 -35.5s-69.666 -55 -96.999 -94s-48.666 -83.833 -63.999 -134.5s-23 -103 -23 -157
c0 -52 6.33301 -99 19 -141s30.5 -77.667 53.5 -107s51 -51.833 84 -67.5s70.167 -23.5 111.5 -23.5h50l-12 -59h-50c-49.333 0 -94 9.66699 -134 29s-74 46.5 -102 81.5s-49.667 77 -65 126s-23 103.167 -23 162.5c0 66 9.83301 128 29.5 186s46.5 108.833 80.5 152.5
s73.833 78.167 119.5 103.5s94.167 38 145.5 38c42 0 80.333 -8 115 -24s64.167 -38.667 88.5 -68s43.333 -64.333 57 -105s20.5 -85.667 20.5 -135z" />
    <glyph glyph-name="A" unicode="A" horiz-adv-x="424" 
d="M328 0l-34 168h-165l-34 -168h-90l166 712h83l165 -712h-91zM212 573l-67 -328h133z" />
    <glyph glyph-name="B" unicode="B" horiz-adv-x="444" 
d="M394 200c0 -21.333 -0.833008 -40.002 -2.5 -56.002s-4.5 -30.167 -8.5 -42.5s-8.83301 -23.166 -14.5 -32.499s-12.5 -18 -20.5 -26c-14.667 -15.333 -32.167 -26.333 -52.5 -33s-46.5 -10 -78.5 -10h-153v712h153c32 0 58 -3.33301 78 -10s37.333 -17.667 52 -33
c8 -8 14.667 -16.333 20 -25s9.66602 -18.667 12.999 -30s5.66602 -24.166 6.99902 -38.499s2 -31.166 2 -50.499c0 -25.333 -2.66699 -48.5 -8 -69.5s-16.666 -40.167 -33.999 -57.5c-11.333 -11.333 -24.666 -20.333 -39.999 -27c8 -2.66699 15.833 -6.33398 23.5 -11.001
s14.5 -9.66699 20.5 -15c18.667 -18 30.5 -39 35.5 -63s7.5 -51.333 7.5 -82zM308 204.998c0 46 -8 78.833 -24 98.5s-40 29.5 -72 29.5h-62v-256h62c16 0 30 2 42 6s22 11 30 21s14 23.167 18 39.5s6 36.833 6 61.5zM303 520.998c0 43.333 -7.16895 73.166 -21.502 89.499
s-37.166 24.5 -68.499 24.5h-63v-228h63c30.667 0 53.334 8.83301 68.001 26.5s22 46.834 22 87.501z" />
    <glyph glyph-name="C" unicode="C" horiz-adv-x="423" 
d="M385 176c-0.666992 -30 -5.5 -57.667 -14.5 -83s-22.167 -46 -39.5 -62c-14 -12.667 -30 -22.334 -48 -29.001s-38.667 -10 -62 -10c-28 0 -52 4.83301 -72 14.5s-36.667 22.167 -50 37.5c-12 13.333 -21.333 27.833 -28 43.5s-11.834 35.167 -15.501 58.5
s-6 51.833 -7 85.5s-1.5 75.167 -1.5 124.5s0.5 90.833 1.5 124.5s3.33301 62.167 7 85.5s8.83398 42.833 15.501 58.5s16 30.167 28 43.5c13.333 15.333 30 27.833 50 37.5s44 14.5 72 14.5c25.333 0 47 -3.66699 65 -11s34 -17.666 48 -30.999
c16.667 -16 29.167 -36.167 37.5 -60.5s12.833 -51.166 13.5 -80.499h-85c-0.666992 15.333 -2.5 30 -5.5 44s-8.83301 26.333 -17.5 37c-5.33301 7.33301 -12.666 13.333 -21.999 18s-20.666 7 -33.999 7c-14 0 -25.833 -2.5 -35.5 -7.5s-17.5 -11.5 -23.5 -19.5
c-6 -8.66699 -11 -19.167 -15 -31.5s-7 -28.333 -9 -48s-3.33301 -44.167 -4 -73.5s-1 -65 -1 -107s0.333008 -77.667 1 -107s2 -53.833 4 -73.5s5 -35.667 9 -48s9 -22.833 15 -31.5c6 -8 13.833 -14.5 23.5 -19.5s21.5 -7.5 35.5 -7.5c13.333 0 24.666 2.33301 33.999 7
s16.666 10.667 21.999 18c8 10.667 13.667 23.167 17 37.5s5.33301 29.166 6 44.499h85z" />
    <glyph glyph-name="D" unicode="D" horiz-adv-x="448" 
d="M401 356c0 -48 -0.5 -88.6709 -1.5 -122.004s-3.33301 -61.666 -7 -84.999s-8.83398 -42.666 -15.501 -57.999s-15.667 -29 -27 -41c-13.333 -14.667 -29.666 -26.667 -48.999 -36s-43.666 -14 -72.999 -14h-164v712h164c29.333 0 53.666 -4.66699 72.999 -14
s35.666 -21.333 48.999 -36c11.333 -12 20.333 -25.667 27 -41s11.834 -34.666 15.501 -57.999s6 -51.666 7 -84.999s1.5 -74 1.5 -122zM315 355.996c0 40.667 -0.166992 75.168 -0.5 103.501s-1.5 52.166 -3.5 71.499s-5 35 -9 47s-9.33301 22 -16 30s-15 14.5 -25 19.5
s-22 7.5 -36 7.5h-75v-558h75c14 0 26 2.5 36 7.5s18.333 11.5 25 19.5s12 18 16 30s7 27.667 9 47s3.16699 43 3.5 71s0.5 62.667 0.5 104z" />
    <glyph glyph-name="E" unicode="E" horiz-adv-x="380" 
d="M64 0v712h275v-77h-189v-239h163v-77h-163v-242h189v-77h-275z" />
    <glyph glyph-name="F" unicode="F" 
d="M150 635v-239h163v-77h-163v-319h-86v712h275v-77h-189z" />
    <glyph glyph-name="G" unicode="G" horiz-adv-x="434" 
d="M386 171c-0.666992 -59.333 -16.6689 -104.003 -48.002 -134.003s-70.333 -45 -117 -45c-28 0 -52 4.83301 -72 14.5s-36.667 22.167 -50 37.5c-11.333 12.667 -20.5 26.834 -27.5 42.501s-12.333 35.167 -16 58.5s-6 52 -7 86s-1.5 75.667 -1.5 125
s0.5 90.833 1.5 124.5s3.33301 62.334 7 86.001s9 43.334 16 59.001s16.167 29.834 27.5 42.501c13.333 15.333 30 27.833 50 37.5s44 14.5 72 14.5c25.333 0 47.5 -4 66.5 -12s35.167 -18.667 48.5 -32c16.667 -16.667 28.834 -37 36.501 -61s11.834 -50.333 12.501 -79
h-85c0 12 -1.16699 24.333 -3.5 37s-6.33301 24.167 -12 34.5s-13.5 18.833 -23.5 25.5s-23.333 10 -40 10c-14 0 -25.833 -2.5 -35.5 -7.5s-17.5 -11.5 -23.5 -19.5c-6 -8.66699 -11 -19.167 -15 -31.5s-7 -28.333 -9 -48s-3.33301 -44.167 -4 -73.5s-1 -65 -1 -107
s0.333008 -77.667 1 -107s2 -53.833 4 -73.5s5 -35.667 9 -48s9 -22.833 15 -31.5c6 -8 13.833 -14.5 23.5 -19.5s21.5 -7.5 35.5 -7.5c25.333 0 44.833 9.16699 58.5 27.5s20.5 42.166 20.5 71.499v143h-79v71h165v-211z" />
    <glyph glyph-name="H" unicode="H" horiz-adv-x="458" 
d="M308 0v324h-158v-324h-86v712h86v-311h158v311h86v-712h-86z" />
    <glyph glyph-name="I" unicode="I" horiz-adv-x="215" 
d="M64 0v712h86v-712h-86z" />
    <glyph glyph-name="J" unicode="J" horiz-adv-x="361" 
d="M303 170c0 -27.333 -3.66895 -51.999 -11.002 -73.999s-18.666 -40.667 -33.999 -56c-31.333 -32 -73.333 -48 -126 -48c-26.667 0 -50.667 4.66699 -72 14s-39.666 22.666 -54.999 39.999l61 57c7.33301 -9.33301 16.833 -17.333 28.5 -24s24.167 -10 37.5 -10
c24 0 44.167 8.5 60.5 25.5s24.5 42.167 24.5 75.5v542h86v-542z" />
    <glyph glyph-name="K" unicode="K" horiz-adv-x="439" 
d="M338 0l-126 322l-62 -123v-199h-86v712h86v-361l172 361h88l-144 -294l165 -418h-93z" />
    <glyph glyph-name="L" unicode="L" horiz-adv-x="361" 
d="M64 0v712h86v-635h189v-77h-275z" />
    <glyph glyph-name="M" unicode="M" horiz-adv-x="578" 
d="M427 0v507l-113 -333h-53l-111 325v-499h-86v712h81l144 -396l143 396h81v-712h-86z" />
    <glyph glyph-name="N" unicode="N" horiz-adv-x="477" 
d="M334 0l-184 487v-487h-86v712h80l182 -487v487h86v-712h-78z" />
    <glyph glyph-name="O" unicode="O" horiz-adv-x="442" 
d="M395 356c0 -49.333 -0.5 -91 -1.5 -125s-3.33301 -62.667 -7 -86s-9 -42.833 -16 -58.5s-16.167 -29.834 -27.5 -42.501c-14 -15.333 -30.833 -27.833 -50.5 -37.5s-43.5 -14.5 -71.5 -14.5s-51.833 4.83301 -71.5 14.5s-36.5 22.167 -50.5 37.5
c-11.333 12.667 -20.5 26.834 -27.5 42.501s-12.333 35.167 -16 58.5s-6 52 -7 86s-1.5 75.667 -1.5 125s0.5 90.833 1.5 124.5s3.33301 62.334 7 86.001s9 43.334 16 59.001s16.167 29.834 27.5 42.501c14 15.333 30.833 27.833 50.5 37.5s43.5 14.5 71.5 14.5
s51.833 -4.83301 71.5 -14.5s36.5 -22.167 50.5 -37.5c11.333 -12.667 20.5 -26.834 27.5 -42.501s12.333 -35.334 16 -59.001s6 -52.334 7 -86.001s1.5 -75.167 1.5 -124.5zM309 356c0 42 -0.333008 77.667 -1 107s-2.16699 53.833 -4.5 73.5s-5.5 35.667 -9.5 48
s-9 22.833 -15 31.5c-6 8 -13.667 14.5 -23 19.5s-21 7.5 -35 7.5s-25.833 -2.5 -35.5 -7.5s-17.5 -11.5 -23.5 -19.5c-6 -8.66699 -11 -19.167 -15 -31.5s-7 -28.333 -9 -48s-3.33301 -44.167 -4 -73.5s-1 -65 -1 -107s0.333008 -77.667 1 -107s2 -53.833 4 -73.5
s5 -35.667 9 -48s9 -22.833 15 -31.5c6 -8 13.833 -14.5 23.5 -19.5s21.5 -7.5 35.5 -7.5s25.667 2.5 35 7.5s17 11.5 23 19.5c6 8.66699 11 19.167 15 31.5s7.16699 28.333 9.5 48s3.83301 44.167 4.5 73.5s1 65 1 107z" />
    <glyph glyph-name="P" unicode="P" horiz-adv-x="435" 
d="M393 504c0 -39.333 -3.83008 -72.167 -11.4971 -98.5s-18.834 -47.5 -33.501 -63.5s-32.334 -27.5 -53.001 -34.5s-44.334 -10.5 -71.001 -10.5h-74v-297h-86v712h160c26.667 0 50.5 -3.5 71.5 -10.5s38.833 -18.5 53.5 -34.5s25.667 -37.333 33 -64s11 -59.667 11 -99z
M307.003 503.999c0 48 -7 81.833 -21 101.5s-35.667 29.5 -65 29.5h-71v-261h71c29.333 0 51 9.66699 65 29s21 53 21 101z" />
    <glyph glyph-name="Q" unicode="Q" horiz-adv-x="442" 
d="M380 -24l-57 48.002c-12.667 -10 -27.5 -17.833 -44.5 -23.5s-36.167 -8.5 -57.5 -8.5c-28 0 -52 4.83301 -72 14.5s-36.667 22.167 -50 37.5c-11.333 13.333 -20.333 27.833 -27 43.5s-11.834 35.167 -15.501 58.5s-6.16699 51.833 -7.5 85.5s-2 75.167 -2 124.5
s0.666992 90.833 2 124.5s3.83301 62.167 7.5 85.5s8.83398 42.833 15.501 58.5s15.667 30.167 27 43.5c13.333 15.333 30 27.833 50 37.5s44 14.5 72 14.5s52 -4.83301 72 -14.5s36.667 -22.167 50 -37.5c10.667 -13.333 19.5 -27.833 26.5 -43.5s12.333 -35.167 16 -58.5
s6.16699 -51.833 7.5 -85.5s2 -75.167 2 -124.5c0 -44.667 -0.5 -82.334 -1.5 -113.001s-2.66699 -56.834 -5 -78.501s-5.5 -39.5 -9.5 -53.5s-9 -26.667 -15 -38l57 -48zM309 356.002c0 42.667 -0.332031 78.502 -0.999023 107.502s-2.16699 53.5 -4.5 73.5
s-5.5 36.167 -9.5 48.5s-9 22.833 -15 31.5c-12 17.333 -31.333 26 -58 26s-46.334 -8.66699 -59.001 -26c-6 -8.66699 -11 -19.167 -15 -31.5s-7 -28.5 -9 -48.5s-3.33301 -44.5 -4 -73.5s-1 -64.833 -1 -107.5s0.333008 -78.5 1 -107.5s2 -53.5 4 -73.5s5 -36.167 9 -48.5
s9 -22.833 15 -31.5c12.667 -17.333 32.334 -26 59.001 -26c14.667 0 27 3 37 9l-47 40l41 48l41 -35c3.33301 9.33301 6.16602 20.166 8.49902 32.499s4 27.166 5 44.499s1.66699 38 2 62s0.5 52.667 0.5 86z" />
    <glyph glyph-name="R" unicode="R" horiz-adv-x="455" 
d="M325 0l-97.999 306h-77v-306h-86v712h161c26.667 0 50.5 -3.33301 71.5 -10s38.667 -17.667 53 -33s25.166 -36.166 32.499 -62.499s11 -58.833 11 -97.5c0 -50 -6.5 -89.833 -19.5 -119.5s-35.167 -51.834 -66.5 -66.501l109 -323h-91zM307.001 509
c0 18.667 -1.16699 35.835 -3.5 51.502s-6.5 29 -12.5 40s-14.167 19.5 -24.5 25.5s-23.833 9 -40.5 9h-76v-253h76c16.667 0 30.167 3 40.5 9s18.5 14.667 24.5 26s10.167 24.666 12.5 39.999s3.5 32.666 3.5 51.999z" />
    <glyph glyph-name="S" unicode="S" horiz-adv-x="420" 
d="M377 191c0 -37.333 -3.00195 -68.1689 -9.00195 -92.502s-17.667 -45.166 -35 -62.499c-13.333 -13.333 -30.5 -23.833 -51.5 -31.5s-45.833 -11.5 -74.5 -11.5c-54.667 0 -96.334 14.333 -125.001 43c-16.667 16.667 -28.167 36.334 -34.5 59.001s-9.5 53 -9.5 91h86
c0 -23.333 1.66699 -42.166 5 -56.499s9.66602 -26.5 18.999 -36.5c6 -6.66699 14 -12 24 -16s21.667 -6 35 -6c14.667 0 26.834 2 36.501 6s17.834 9.66699 24.501 17c9.33301 10.667 15.5 23.334 18.5 38.001s4.5 33.667 4.5 57c0 20.667 -1 38 -3 52
s-5.5 25.833 -10.5 35.5s-12 17.834 -21 24.501s-20.833 13 -35.5 19l-81 33c-18 7.33301 -33.333 15.666 -46 24.999s-22.667 20.833 -30 34.5s-12.666 30 -15.999 49s-5 42.167 -5 69.5c0 31.333 4.5 59.333 13.5 84s22.5 45.334 40.5 62.001c29.333 27.333 67 41 113 41
c26 0 48.833 -3.5 68.5 -10.5s36.167 -17.167 49.5 -30.5c18 -17.333 30.333 -37.833 37 -61.5s10 -51.834 10 -84.501h-86c0 19.333 -1.33301 35.666 -4 48.999s-8.66699 25.666 -18 36.999c-12.667 16 -32 24 -58 24c-12.667 0 -23.5 -2 -32.5 -6
s-16.5 -9.33301 -22.5 -16c-16.667 -18.667 -25 -47 -25 -85c0 -17.333 0.833008 -32 2.5 -44s5 -22.333 10 -31s12 -16 21 -22s20.5 -12 34.5 -18l80 -33c20 -8 36.5 -17.5 49.5 -28.5s23.333 -24.167 31 -39.5s12.834 -33.333 15.501 -54s4 -45 4 -73z" />
    <glyph glyph-name="T" unicode="T" horiz-adv-x="367" 
d="M227 635v-635h-86v635h-120v77h325v-77h-119z" />
    <glyph glyph-name="U" unicode="U" horiz-adv-x="445" 
d="M387 162c0 -26 -4.00195 -49.333 -12.002 -70s-19.333 -38.334 -34 -53.001c-15.333 -15.333 -33.166 -27 -53.499 -35s-42.166 -12 -65.499 -12c-47.333 0 -86.666 15.667 -117.999 47c-14.667 14.667 -26 32.334 -34 53.001s-12 44 -12 70v550h86v-555
c0 -28 7.66699 -49.667 23 -65s33.666 -23 54.999 -23s39.833 7.66699 55.5 23s23.5 37 23.5 65v555h86v-550z" />
    <glyph glyph-name="V" unicode="V" horiz-adv-x="404" 
d="M246 0h-88l-154 712h95l103 -573l104 573h94z" />
    <glyph glyph-name="W" unicode="W" horiz-adv-x="652" 
d="M526 0h-89l-111 573l-110 -573h-89l-123 712h95l73 -573l106 573h96l108 -573l72 573h94z" />
    <glyph glyph-name="X" unicode="X" horiz-adv-x="403" 
d="M294 0l-93 282l-92 -282h-94l136 370l-125 342h94l81 -260l82 260h94l-129 -342l140 -370h-94z" />
    <glyph glyph-name="Y" unicode="Y" horiz-adv-x="353" 
d="M219 288v-288h-86v288l-131 424h94l80 -304l80 304h95z" />
    <glyph glyph-name="Z" unicode="Z" horiz-adv-x="349" 
d="M31 0v65l198 570h-185v77h274v-65l-197 -570h197v-77h-287z" />
    <glyph glyph-name="bracketleft" unicode="[" horiz-adv-x="259" 
d="M58 -74v860h172v-71h-91v-718h91v-71h-172z" />
    <glyph glyph-name="backslash" unicode="\" horiz-adv-x="272" 
d="M189 -74l-185 860h79l185 -860h-79z" />
    <glyph glyph-name="bracketright" unicode="]" horiz-adv-x="259" 
d="M29 -74v71h91v718h-91v71h172v-860h-172z" />
    <glyph glyph-name="asciicircum" unicode="^" horiz-adv-x="455" 
d="M318 436l-90 199l-90 -199h-81l134 281h73l134 -281h-80z" />
    <glyph glyph-name="underscore" unicode="_" horiz-adv-x="444" 
d="M0 -144v61h444v-61h-444z" />
    <glyph glyph-name="grave" unicode="`" horiz-adv-x="377" 
d="M163 586l-81 135h74l69 -135h-62z" />
    <glyph glyph-name="a" unicode="a" 
d="M245 0l0.000976562 46.0029c-4 -7.33301 -8.66699 -14 -14 -20s-10.666 -11 -15.999 -15c-8 -6 -16.667 -10.667 -26 -14s-21 -5 -35 -5c-19.333 0 -36 3.16699 -50 9.5s-27 16.166 -39 29.499c-10 11.333 -18 26.666 -24 45.999s-9 42.666 -9 69.999
c0 24 3.83301 46.167 11.5 66.5s19.167 37.166 34.5 50.499c13.333 11.333 28.166 20 44.499 26s38.166 9 65.499 9h53v82c0 49.333 -20.333 74 -61 74c-9.33301 0 -17 -1.5 -23 -4.5s-11.667 -7.16699 -17 -12.5c-7.33301 -7.33301 -12.333 -15.666 -15 -24.999
s-4 -21 -4 -35h-81c0 20 2.83301 39.5 8.5 58.5s16.167 36.167 31.5 51.5c11.333 11.333 25.833 20.5 43.5 27.5s36.5 10.5 56.5 10.5c43.333 0 77 -12 101 -36c12.667 -13.333 22.667 -29 30 -47s11 -40.333 11 -67v-376h-77zM241.001 240.003l-46 -0.000976562
c-12.667 0 -23.5 -1.33301 -32.5 -4s-17.5 -7.66699 -25.5 -15c-7.33301 -7.33301 -13.166 -17.5 -17.499 -30.5s-6.5 -26.5 -6.5 -40.5c0 -27.333 5.16699 -48.666 15.5 -63.999s26.166 -23 47.499 -23c19.333 0 35 7.5 47 22.5s18 34.5 18 58.5v96z" />
    <glyph glyph-name="b" unicode="b" horiz-adv-x="387" 
d="M347 259c0 -30.667 -0.332031 -57.8301 -0.999023 -81.4971s-2.33398 -44.834 -5.00098 -63.501s-6.5 -34.667 -11.5 -48s-11.833 -25 -20.5 -35c-22 -26 -50.667 -39 -86 -39c-11.333 0 -21.5 1.33301 -30.5 4s-17.5 6.66699 -25.5 12
c-5.33301 3.33301 -11 8.16602 -17 14.499s-10.667 12.166 -14 17.499v-40h-79v712h81v-230c4 5.33301 8.5 10.5 13.5 15.5s10.167 9.16699 15.5 12.5c15.333 10.667 34 16 56 16c18 0 34 -3 48 -9s26.667 -15.667 38 -29c17.333 -19.333 28 -47 32 -83s6 -84.667 6 -146z
M265.001 259.004c0 26.667 -0.333008 49.665 -1 68.998s-1.66699 35.833 -3 49.5s-3.33301 24.834 -6 33.501s-6.33398 15.667 -11.001 21c-10.667 14 -25.334 21 -44.001 21c-17.333 0 -31.333 -5.33301 -42 -16c-6.66699 -6.66699 -11.667 -14.667 -15 -24s-5 -21 -5 -35
v-237c0 -26.667 6.66699 -46.667 20 -60c10.667 -10.667 24.667 -16 42 -16c18.667 0 33.334 7 44.001 21c8.66699 10.667 14.334 28.834 17.001 54.501s4 65.167 4 118.5z" />
    <glyph glyph-name="c" unicode="c" horiz-adv-x="362" 
d="M330 145c-1.33301 -24.667 -5.16602 -46.834 -11.499 -66.501s-16.166 -36.5 -29.499 -50.5c-12.667 -12.667 -27.5 -21.834 -44.5 -27.501s-36.167 -8.5 -57.5 -8.5c-22 0 -42.333 3.66699 -61 11s-34.667 19.666 -48 36.999c-16 20.667 -26.333 49.334 -31 86.001
s-7 81 -7 133c0 52.667 2.33301 97.167 7 133.5s15 64.833 31 85.5c13.333 17.333 29.333 29.666 48 36.999s39 11 61 11c21.333 0 40.166 -2.5 56.499 -7.5s31.166 -14.167 44.499 -27.5c16 -15.333 26.667 -33.166 32 -53.499s8.66602 -41.5 9.99902 -63.5h-81
c0 10.667 -0.833008 21.167 -2.5 31.5s-6.16699 19.833 -13.5 28.5c-10.667 12.667 -25.667 19 -45 19c-20 0 -35.333 -7.33301 -46 -22c-9.33301 -12.667 -15 -32.667 -17 -60s-3 -64.666 -3 -111.999c0 -46.667 1 -83.667 3 -111s7.66699 -47.666 17 -60.999
c10.667 -14.667 26 -22 46 -22c18.667 0 33.334 6.33301 44.001 19c7.33301 8 12 17.167 14 27.5s3 21.5 3 33.5h81z" />
    <glyph glyph-name="d" unicode="d" horiz-adv-x="387" 
d="M251 0l0.000976562 39.999c-2.66699 -5.33301 -7.33398 -11.333 -14.001 -18s-12.334 -11.334 -17.001 -14.001c-18 -10.667 -36.667 -16 -56 -16c-35.333 0 -64 13 -86 39c-16.667 19.333 -27.167 47 -31.5 83s-6.5 84.333 -6.5 145c0 60 2.16699 108.333 6.5 145
s14.833 64.667 31.5 84c10.667 12.667 22.834 22.167 36.501 28.5s30.167 9.5 49.5 9.5c20 0 38.667 -5 56 -15c5.33301 -3.33301 10.5 -7.66602 15.5 -12.999s9.5 -10.666 13.5 -15.999v230h81v-712h-79zM249.001 377.999c0 14 -1.66406 25.6689 -4.99707 35.002
s-8.33301 17.333 -15 24c-10.667 10.667 -24.667 16 -42 16c-18.667 0 -33.334 -7 -44.001 -21c-4.66699 -5.33301 -8.33398 -12.333 -11.001 -21s-4.83398 -19.834 -6.50098 -33.501s-2.66699 -30.167 -3 -49.5s-0.5 -42.333 -0.5 -69
c0 -53.333 1.16699 -92.833 3.5 -118.5s8.16602 -43.834 17.499 -54.501c10.667 -14 25.334 -21 44.001 -21c17.333 0 31.333 5.33301 42 16c13.333 13.333 20 33.333 20 60v237z" />
    <glyph glyph-name="e" unicode="e" horiz-adv-x="372" 
d="M122 240c0 -41.333 1.16797 -74.332 3.50098 -98.999s8.16602 -42.667 17.499 -54c4.66699 -6.66699 10.834 -12 18.501 -16s16.834 -6 27.501 -6c9.33301 0 17.666 1.5 24.999 4.5s14.333 8.16699 21 15.5s11.167 16 13.5 26s3.5 21.333 3.5 34h81
c-0.666992 -24 -4.16699 -45.333 -10.5 -64s-16.833 -35.667 -31.5 -51c-24.667 -25.333 -58.667 -38 -102 -38c-22 0 -41.333 3 -58 9s-31.667 16.333 -45 31c-19.333 20.667 -31.833 50.167 -37.5 88.5s-8.5 84.5 -8.5 138.5c0 54.667 2.66699 101 8 139
s17.666 67.333 36.999 88c13.333 14.667 28.333 25 45 31s35.667 9 57 9s40.333 -3 57 -9s31.667 -16.333 45 -31c19.333 -20.667 31.833 -50.834 37.5 -90.501s8.5 -91.5 8.5 -155.5h-213zM253.001 301.001c0 38 -1.33301 67 -4 87s-8 34.667 -16 44
c-5.33301 6.66699 -11.5 11.834 -18.5 15.501s-16.167 5.5 -27.5 5.5s-20.333 -1.83301 -27 -5.5s-12.667 -8.83398 -18 -15.501c-8 -9.33301 -13.333 -24 -16 -44s-4 -49 -4 -87h131z" />
    <glyph glyph-name="f" unicode="f" horiz-adv-x="254" 
d="M157 455l-0.000976562 -454.999h-81v455h-59v63h59v50c0 27.333 3.83301 50.333 11.5 69s18.834 34 33.501 46c16 13.333 33.833 22.166 53.5 26.499s40.5 6.5 62.5 6.5v-73c-53.333 0 -80 -26 -80 -78v-47h80v-63h-80z" />
    <glyph glyph-name="g" unicode="g" horiz-adv-x="387" 
d="M330 -12c0 -38.667 -3.33008 -68.6709 -9.99707 -90.0039s-17.334 -39.666 -32.001 -54.999c-12 -12.667 -27 -22.5 -45 -29.5s-37 -10.5 -57 -10.5s-39 3 -57 9s-33.667 15.333 -47 28c-14.667 14.667 -24.834 31.334 -30.501 50.001s-8.5 39.334 -8.5 62.001h81
c0 -12.667 1 -24.167 3 -34.5s6.66699 -19.5 14 -27.5c11.333 -11.333 26 -17 44 -17c9.33301 0 17.666 1.83301 24.999 5.5s13.666 8.16699 18.999 13.5c7.33301 8 12.5 19.167 15.5 33.5s4.5 33.5 4.5 57.5v79c-4 -5.33301 -8.5 -10.666 -13.5 -15.999
s-10.167 -9.66602 -15.5 -12.999c-14.667 -10.667 -32.667 -16 -54 -16c-35.333 0 -63.666 12.667 -84.999 38c-8 9.33301 -14.667 20.166 -20 32.499s-9.5 27 -12.5 44s-5.16699 37 -6.5 60s-2 49.833 -2 80.5s0.666992 57.334 2 80.001s3.5 42.667 6.5 60
s7.16699 32.166 12.5 44.499s12 23.166 20 32.499c22 24.667 50.333 37 85 37c22 0 40.667 -5.33301 56 -16c11.333 -7.33301 21 -16.666 29 -27.999v36h79v-530zM249.003 377.996c0 14 -1.66113 25.665 -4.99414 34.998s-8.33301 17.333 -15 24
c-10.667 10.667 -24.667 16 -42 16c-18.667 0 -33.334 -7 -44.001 -21c-4.66699 -5.33301 -8.33398 -12.166 -11.001 -20.499s-4.83398 -18.666 -6.50098 -30.999s-2.66699 -27.5 -3 -45.5s-0.5 -39.333 -0.5 -64c0 -49.333 1.16699 -85.833 3.5 -109.5
s8.16602 -41.167 17.499 -52.5c5.33301 -6 11.666 -11 18.999 -15s15.666 -6 24.999 -6c16.667 0 30.667 5.66699 42 17c6.66699 6.66699 11.667 14.667 15 24s5 21 5 35v214z" />
    <glyph glyph-name="h" unicode="h" horiz-adv-x="395" 
d="M261 0l0.00195312 381.002c0 24 -6 42 -18 54s-26.667 18 -44 18s-31.833 -6 -43.5 -18s-17.5 -30 -17.5 -54v-381h-81v712h81v-231c3.33301 5.33301 7.66602 10.666 12.999 15.999s10.666 9.66602 15.999 12.999c17.333 10.667 36 16 56 16
c19.333 0 36 -3.16699 50 -9.5s26.667 -15.833 38 -28.5c10.667 -11.333 18.5 -25 23.5 -41s7.5 -38 7.5 -66v-381h-81z" />
    <glyph glyph-name="i" unicode="i" horiz-adv-x="195" 
d="M57 0v518h81v-518h-81zM50 610v94h95v-94h-95z" />
    <glyph glyph-name="j" unicode="j" horiz-adv-x="195" 
d="M138 -46c0 -28.667 -4.16602 -52.332 -12.499 -70.999s-19.5 -33.667 -33.5 -45c-15.333 -13.333 -32.5 -22 -51.5 -26s-39.5 -6 -61.5 -6v73c25.333 0 44.666 5.66699 57.999 17s20 31.666 20 60.999v561h81v-564zM50.001 610.002v94h95v-94h-95z" />
    <glyph glyph-name="k" unicode="k" horiz-adv-x="395" 
d="M293 0l-99 244l-56 -89v-155h-81v712h81v-440l147 246h86l-126 -202l138 -316h-90z" />
    <glyph glyph-name="l" unicode="l" horiz-adv-x="228" 
d="M211 0c-22 0 -42.333 1.99902 -61 5.99902s-35.667 12.667 -51 26c-14 11.333 -25.167 26.333 -33.5 45s-12.5 42.334 -12.5 71.001v564h81v-561c0 -52 25.667 -78 77 -78v-73z" />
    <glyph glyph-name="m" unicode="m" horiz-adv-x="599" 
d="M464 0l0.00195312 380.999c0 23.333 -5.83301 41 -17.5 53s-26.167 18 -43.5 18s-31.833 -6 -43.5 -18s-17.5 -29.667 -17.5 -53v-381h-81v381c0 23.333 -6 41 -18 53s-26.667 18 -44 18s-31.833 -6 -43.5 -18s-17.5 -29.667 -17.5 -53v-381h-81v518h78v-40
c3.33301 6 8.16602 12 14.499 18s12.166 10.667 17.499 14c17.333 10.667 36 16 56 16s38.833 -5 56.5 -15s31.834 -23 42.501 -39c5.33301 7.33301 11.666 14.333 18.999 21s14.666 12.334 21.999 17.001c8 5.33301 17.5 9.33301 28.5 12s21.167 4 30.5 4
c22.667 0 41 -3.16699 55 -9.5s26.667 -15.833 38 -28.5c10.667 -11.333 18.334 -25 23.001 -41s7 -38 7 -66v-381h-81z" />
    <glyph glyph-name="n" unicode="n" horiz-adv-x="395" 
d="M261 0l0.00195312 381c0 23.333 -6 41 -18 53s-26.667 18 -44 18s-31.833 -6 -43.5 -18s-17.5 -29.667 -17.5 -53v-381h-81v518h78v-40c3.33301 6 8.16602 12 14.499 18s12.166 10.667 17.499 14c17.333 10.667 36 16 56 16c19.333 0 36 -3.16699 50 -9.5
s26.667 -15.833 38 -28.5c10.667 -11.333 18.5 -25 23.5 -41s7.5 -38 7.5 -66v-381h-81z" />
    <glyph glyph-name="o" unicode="o" horiz-adv-x="376" 
d="M335 259c0 -52.667 -2.16699 -97.167 -6.5 -133.5s-14.5 -64.833 -30.5 -85.5c-13.333 -17.333 -29.166 -29.666 -47.499 -36.999s-39.166 -11 -62.499 -11s-44 3.66699 -62 11s-33.667 19.666 -47 36.999c-16 20.667 -26.333 49.167 -31 85.5s-7 80.833 -7 133.5
s2.33301 97.167 7 133.5s15 64.833 31 85.5c13.333 17.333 29 29.666 47 36.999s38.667 11 62 11s44.166 -3.66699 62.499 -11s34.166 -19.666 47.499 -36.999c16 -20.667 26.167 -49.167 30.5 -85.5s6.5 -80.833 6.5 -133.5zM254 259c0 46.667 -1 83.667 -3 111
s-7.66699 47.666 -17 60.999c-10.667 14.667 -26 22 -46 22c-19.333 0 -34.333 -7.33301 -45 -22c-9.33301 -13.333 -15.166 -33.666 -17.499 -60.999s-3.5 -64.333 -3.5 -111s1.16699 -83.667 3.5 -111s8.16602 -47.666 17.499 -60.999c10.667 -14.667 25.667 -22 45 -22
c20 0 35.333 7.33301 46 22c9.33301 13.333 15 33.666 17 60.999s3 64.333 3 111z" />
    <glyph glyph-name="p" unicode="p" horiz-adv-x="387" 
d="M347 259c0 -60 -2.16992 -108.167 -6.50293 -144.5s-14.833 -64.166 -31.5 -83.499c-11.333 -13.333 -23.666 -23.166 -36.999 -29.499s-29.666 -9.5 -48.999 -9.5c-20.667 0 -39.334 5 -56.001 15c-10.667 7.33301 -20.334 17 -29.001 29v-230h-81v712h79v-40
c2.66699 5.33301 7.33398 11.166 14.001 17.499s12.334 11.166 17.001 14.499c16.667 10.667 35.334 16 56.001 16c18 0 34 -3 48 -9s26.667 -15.667 38 -29c16.667 -19.333 27.167 -47.333 31.5 -84s6.5 -85 6.5 -145zM264.997 259c0 26.667 -0.333008 49.665 -1 68.998
s-1.66699 35.833 -3 49.5s-3.33301 24.834 -6 33.501s-6.33398 15.667 -11.001 21c-10.667 14 -25.334 21 -44.001 21c-17.333 0 -31.333 -5.33301 -42 -16c-6.66699 -6.66699 -11.667 -14.667 -15 -24s-5 -21 -5 -35v-237c0 -26.667 6.66699 -46.667 20 -60
c10.667 -10.667 24.667 -16 42 -16c18.667 0 33.334 7 44.001 21c8.66699 10.667 14.334 28.834 17.001 54.501s4 65.167 4 118.5z" />
    <glyph glyph-name="q" unicode="q" horiz-adv-x="387" 
d="M249 -194l-0.00390625 230c-8.66699 -12 -18.334 -21.667 -29.001 -29c-17.333 -10 -36 -15 -56 -15c-19.333 0 -35.666 3.16699 -48.999 9.5s-25.666 16.166 -36.999 29.499c-16.667 19.333 -27.167 47.166 -31.5 83.499s-6.5 84.5 -6.5 144.5s2.16699 108.333 6.5 145
s14.833 64.667 31.5 84c11.333 13.333 24 23 38 29s30 9 48 9c20.667 0 39.334 -5.33301 56.001 -16c4.66699 -3.33301 10.334 -8.16602 17.001 -14.499s11.334 -12.166 14.001 -17.499v40h79v-712h-81zM248.996 378c0 14 -1.66406 25.6689 -4.99707 35.002
s-8.33301 17.333 -15 24c-10.667 10.667 -24.667 16 -42 16c-18.667 0 -33.334 -7 -44.001 -21c-4.66699 -5.33301 -8.33398 -12.333 -11.001 -21s-4.83398 -19.834 -6.50098 -33.501s-2.66699 -30.167 -3 -49.5s-0.5 -42.333 -0.5 -69
c0 -53.333 1.16699 -92.833 3.5 -118.5s8.16602 -43.834 17.499 -54.501c10.667 -14 25.334 -21 44.001 -21c17.333 0 31.333 5.33301 42 16c13.333 13.333 20 33.333 20 60v237z" />
    <glyph glyph-name="r" unicode="r" horiz-adv-x="272" 
d="M232 448c-28 0 -50.668 -8.33203 -68.001 -24.999s-26 -40 -26 -70v-353h-81v518h78v-55c4 7.33301 9.33301 14.166 16 20.499s13.334 11.833 20.001 16.5c24.667 17.333 53 26 85 26v-78h-24z" />
    <glyph glyph-name="s" unicode="s" horiz-adv-x="359" 
d="M328 141c0 -23.333 -3.99902 -43.8281 -11.999 -61.4951s-18.667 -33.167 -32 -46.5c-14 -14.667 -29.833 -25.167 -47.5 -31.5s-37.167 -9.5 -58.5 -9.5s-40.833 3.33301 -58.5 10s-32.834 16.667 -45.501 30c-29.333 30 -44 68 -44 114h80
c0 -26.667 7.33301 -47.667 22 -63c6 -6 13.167 -10.5 21.5 -13.5s16.5 -4.5 24.5 -4.5c20 0 36.333 6.33301 49 19c13.333 13.333 20 30.666 20 51.999c0 18 -4.33301 33.667 -13 47c-5.33301 7.33301 -11.666 14 -18.999 20s-16.333 11.667 -27 17l-67 34
c-33.333 16.667 -57 36.667 -71 60c-10.667 18.667 -16 41.334 -16 68.001c0 22.667 3.83301 42.5 11.5 59.5s18.167 32.167 31.5 45.5s28.666 23.166 45.999 29.499s36 9.5 56 9.5c42.667 0 76.334 -12.333 101.001 -37c28 -26.667 42 -64.667 42 -114h-80
c0 15.333 -1.5 27.666 -4.5 36.999s-7.83301 17.666 -14.5 24.999c-6 6.66699 -12.833 11.334 -20.5 14.001s-15.5 4 -23.5 4c-18.667 0 -33.667 -5.66699 -45 -17c-12.667 -12.667 -19 -29.334 -19 -50.001c0 -14.667 3 -27.334 9 -38.001
c7.33301 -12.667 21.666 -24 42.999 -34l66 -33c34.667 -16.667 59 -36.334 73 -59.001c14.667 -22 22 -49.667 22 -83z" />
    <glyph glyph-name="t" unicode="t" horiz-adv-x="260" 
d="M240 0c-23.333 0 -44.832 1.83203 -64.499 5.49902s-37.834 12.5 -54.501 26.5c-30 24.667 -45 63.334 -45 116.001v307h-59v63h59v142h81v-142h80v-63h-80v-304c0 -28 7 -48 21 -60s34.667 -18 62 -18v-73z" />
    <glyph glyph-name="u" unicode="u" horiz-adv-x="395" 
d="M260 0l-0.00195312 40c-3.33301 -6 -8.16602 -12 -14.499 -18s-12.166 -10.667 -17.499 -14c-17.333 -10.667 -36 -16 -56 -16c-19.333 0 -36 3.16699 -50 9.5s-26.667 15.833 -38 28.5c-10.667 11.333 -18.5 25 -23.5 41s-7.5 38 -7.5 66v381h81v-381
c0 -24 6 -42 18 -54s26.667 -18 44 -18s31.833 6 43.5 18s17.5 30 17.5 54v381h81v-518h-78z" />
    <glyph glyph-name="v" unicode="v" horiz-adv-x="343" 
d="M215 0h-86l-125 518h89l79 -390l78 390h89z" />
    <glyph glyph-name="w" unicode="w" horiz-adv-x="526" 
d="M413 0h-82l-70 379l-68 -379h-82l-107 518h92l59 -390l69 390h73l73 -390l60 390h92z" />
    <glyph glyph-name="x" unicode="x" horiz-adv-x="356" 
d="M253 0l-75 187l-75 -187h-90l118 264l-112 254h90l69 -181l69 181h90l-114 -254l120 -264h-90z" />
    <glyph glyph-name="y" unicode="y" horiz-adv-x="345" 
d="M193 -83c-5.33301 -23.333 -13.3301 -42.166 -23.9971 -56.499s-23.334 -25.5 -38.001 -33.5s-31.334 -13.5 -50.001 -16.5s-38.667 -4.5 -60 -4.5v72c25.333 0 45.666 4.16699 60.999 12.5s26 24.166 32 47.499l16 63l-126 517h89l79 -389l78 389h89z" />
    <glyph glyph-name="z" unicode="z" horiz-adv-x="301" 
d="M24 0v62l163 384h-152v72h242v-62l-163 -383h163v-73h-253z" />
    <glyph glyph-name="braceleft" unicode="{" horiz-adv-x="311" 
d="M240 -74c-17.333 0 -33.833 2.99707 -49.5 8.99707s-29.167 14.667 -40.5 26c-10.667 10.667 -19.167 24 -25.5 40s-9.5 36 -9.5 60v192c0 21.333 -5.33301 37.833 -16 49.5s-24.334 17.5 -41.001 17.5h-29v72h29c16.667 0 30.334 5.83301 41.001 17.5s16 28.167 16 49.5
v192c0 24 3.16699 44 9.5 60s14.833 29.333 25.5 40c11.333 11.333 24.833 20 40.5 26s32.167 9 49.5 9h42v-73h-28c-16.667 0 -30.5 -5.66699 -41.5 -17s-16.5 -27.666 -16.5 -48.999v-186c0 -21.333 -2.66699 -38.666 -8 -51.999s-12.333 -24.333 -21 -33
c-9.33301 -9.33301 -20.333 -16 -33 -20c12.667 -4 23.667 -10.667 33 -20c8.66699 -8 15.667 -18.833 21 -32.5s8 -31.167 8 -52.5v-186c0 -21.333 5.5 -37.666 16.5 -48.999s24.833 -17 41.5 -17h28v-73h-42z" />
    <glyph glyph-name="bar" unicode="|" horiz-adv-x="290" 
d="M105 -74v860h81v-860h-81z" />
    <glyph glyph-name="braceright" unicode="}" horiz-adv-x="311" 
d="M254 320c-16.667 0 -30.333 -5.83105 -41 -17.498s-16 -28.167 -16 -49.5v-192c0 -24 -3.16699 -44 -9.5 -60s-15.166 -29.333 -26.499 -40c-11.333 -11.333 -24.833 -20 -40.5 -26s-32.167 -9 -49.5 -9h-42v73h29c16.667 0 30.5 5.66699 41.5 17
s16.5 27.666 16.5 48.999v186c0 21.333 2.66699 38.833 8 52.5s12 24.5 20 32.5c9.33301 9.33301 20.666 16 33.999 20c-14.667 4.66699 -26 11.334 -34 20.001c-8.66699 8.66699 -15.5 19.667 -20.5 33s-7.5 30.666 -7.5 51.999v186c0 21.333 -5.5 37.666 -16.5 48.999
s-24.833 17 -41.5 17h-29v73h42c17.333 0 33.833 -3 49.5 -9s29.167 -14.667 40.5 -26c11.333 -10.667 20.166 -24 26.499 -40s9.5 -36 9.5 -60v-192c0 -21.333 5.33301 -37.833 16 -49.5s24.334 -17.5 41.001 -17.5h28v-72h-28z" />
    <glyph glyph-name="asciitilde" unicode="~" horiz-adv-x="444" 
d="M410 285c-16.667 -16.667 -33.6699 -30.833 -51.0029 -42.5s-38 -17.5 -62 -17.5c-15.333 0 -29.166 2.33301 -41.499 7s-24.166 9.66699 -35.499 15s-22.666 10.333 -33.999 15s-23.333 7 -36 7c-14.667 0 -26.834 -3 -36.501 -9s-19.5 -14 -29.5 -24l-49 48
c16 16 32.667 30 50 42s38 18 62 18c15.333 0 29.333 -2.33301 42 -7s24.834 -9.66699 36.501 -15l34 -15c11 -4.66699 22.833 -7 35.5 -7c14.667 0 26.667 3.16699 36 9.5s19 14.5 29 24.5z" />
    <glyph glyph-name="uni00A0" unicode="&#xa0;" horiz-adv-x="187" 
 />
    <glyph glyph-name="exclamdown" unicode="&#xa1;" horiz-adv-x="242" 
d="M68 -194v519h81v-519h-81zM59 419v99h99v-99h-99z" />
    <glyph glyph-name="cent" unicode="&#xa2;" horiz-adv-x="367" 
d="M332 250c-0.666992 -23.333 -4.16699 -44.168 -10.5 -62.501s-16.166 -34.166 -29.499 -47.499c-17.333 -16 -40.333 -26.667 -69 -32v-108h-64v107c-32.667 5.33301 -58.667 20 -78 44c-16 19.333 -26.167 46.5 -30.5 81.5s-6.5 77.5 -6.5 127.5s2.16699 92.5 6.5 127.5
s14.5 62.167 30.5 81.5c19.333 24 45.333 38.667 78 44v99h64v-99c13.333 -2 25.666 -5.33301 36.999 -10s21.666 -11.667 30.999 -21c15.333 -14.667 25.833 -32 31.5 -52s8.83398 -40.333 9.50098 -61h-80c0 10 -0.833008 20.167 -2.5 30.5s-6.16699 19.5 -13.5 27.5l-6 6
c-2 2 -4.33301 3.66699 -7 5v-355c5.33301 4 9.33301 7.33301 12 10c7.33301 7.33301 12 15.833 14 25.5s3 20.167 3 31.5h80zM159 536.998c-3.33301 -1.33301 -6 -3.16797 -8 -5.50098s-4 -4.83301 -6 -7.5c-9.33301 -12.667 -15 -32 -17 -58s-3 -61.333 -3 -106
s1 -80 3 -106s7.66699 -45.333 17 -58c2 -2.66699 4 -5.16699 6 -7.5s4.66699 -4.16602 8 -5.49902v354z" />
    <glyph glyph-name="sterling" unicode="&#xa3;" horiz-adv-x="427" 
d="M97 0l0.000976562 338.001h-64v62h64v144c0 28 4.5 52.833 13.5 74.5s21.167 40 36.5 55s33.5 26.5 54.5 34.5s43.167 12 66.5 12c51.333 0 93.666 -17.667 126.999 -53l-60 -57c-7.33301 9.33301 -16.5 17.166 -27.5 23.499s-24.167 9.5 -39.5 9.5
c-23.333 0 -43.333 -8.5 -60 -25.5s-25 -40.833 -25 -71.5v-146h85v-62h-85v-261h212v-77h-298z" />
    <glyph glyph-name="currency" unicode="&#xa4;" horiz-adv-x="493" 
d="M398 76l-56.0029 57c-13.333 -9.33301 -28.166 -16.666 -44.499 -21.999s-33.166 -8 -50.499 -8c-18 0 -35.167 2.66699 -51.5 8s-31.166 12.666 -44.499 21.999l-56 -57l-51 51l57 56c-9.33301 13.333 -16.5 28.166 -21.5 44.499s-7.5 33.166 -7.5 50.499
c0 18 2.5 35.167 7.5 51.5s12.167 31.166 21.5 44.499l-57 56l51 51l56 -56c28 18.667 60 28 96 28c35.333 0 67 -9.33301 95 -28l56 56l51 -51l-57 -56c9.33301 -13.333 16.666 -28.166 21.999 -44.499s8 -33.5 8 -51.5c0 -17.333 -2.66699 -34.166 -8 -50.499
s-12.666 -31.166 -21.999 -44.499l57 -56zM349.997 278c0 14.667 -2.66699 28.334 -8 41.001s-12.666 23.667 -21.999 33s-20.333 16.666 -33 21.999s-26 8 -40 8c-29.333 0 -54 -10 -74 -30s-30 -44.667 -30 -74c0 -14 2.66699 -27.333 8 -40s12.666 -23.667 21.999 -33
s20.333 -16.666 33 -21.999s26.334 -8 41.001 -8c14 0 27.333 2.66699 40 8s23.667 12.666 33 21.999s16.666 20.333 21.999 33s8 26 8 40z" />
    <glyph glyph-name="yen" unicode="&#xa5;" horiz-adv-x="353" 
d="M253 405h55v-62h-74l-17 -55v-40h91v-62h-91v-186h-82v186h-91v62h91v40l-16 55h-75v62h55l-92 307h91l78 -304l79 304h90z" />
    <glyph glyph-name="brokenbar" unicode="&#xa6;" horiz-adv-x="290" 
d="M105 437v348h81v-348h-81zM105 -73v348h81v-348h-81z" />
    <glyph glyph-name="section" unicode="&#xa7;" horiz-adv-x="409" 
d="M357 271c0 -20.667 -0.501953 -38.6699 -1.50195 -54.0029s-3 -29 -6 -41s-7.5 -22.833 -13.5 -32.5s-13.667 -18.5 -23 -26.5c-4.66699 -4 -10.667 -8 -18 -12s-14.666 -6.66699 -21.999 -8c12 -8 22.667 -15.833 32 -23.5s17.666 -17.5 24.999 -29.5
c6.66699 -10.667 11.5 -22.834 14.5 -36.501s4.5 -27.167 4.5 -40.5c0 -23.333 -3.5 -43.666 -10.5 -60.999s-17.167 -32.666 -30.5 -45.999c-13.333 -14 -29.166 -24.167 -47.499 -30.5s-37.833 -9.5 -58.5 -9.5s-40 3.5 -58 10.5s-33.333 16.833 -46 29.5
c-26.667 28 -40.667 63 -42 105h83c0 -21.333 6.33301 -39.333 19 -54c5.33301 -6 12 -10.5 20 -13.5s16 -4.5 24 -4.5c20 0 35.667 6 47 18c11.333 12.667 17 29.667 17 51c0 18.667 -4 33.667 -12 45c-5.33301 8 -11.833 14.833 -19.5 20.5s-16.167 10.834 -25.5 15.501
l-69 34c-8 4 -15.833 8.5 -23.5 13.5s-14.5 10.167 -20.5 15.5c-10 10 -18 20.5 -24 31.5s-10.5 23 -13.5 36s-4.83301 27.5 -5.5 43.5s-1 34 -1 54s0.5 37.667 1.5 53s3.16699 28.833 6.5 40.5s8 22 14 31s13.667 17.833 23 26.5c4 4 9.83301 8 17.5 12
s15.167 6.66699 22.5 8c-12 7.33301 -23.167 15.5 -33.5 24.5s-18.833 19.167 -25.5 30.5c-11.333 19.333 -17 43.666 -17 72.999c0 21.333 3.66699 40.5 11 57.5s17.666 32.167 30.999 45.5c12.667 13.333 28 23.166 46 29.499s37 9.5 57 9.5c38 0 70 -11 96 -33
c14.667 -12.667 25.834 -28.5 33.501 -47.5s11.834 -39.5 12.501 -61.5h-82c0 21.333 -6 39 -18 53c-11.333 11.333 -25.333 17 -42 17c-18 0 -32.333 -5.33301 -43 -16c-6.66699 -6 -11.5 -13.167 -14.5 -21.5s-4.5 -17.166 -4.5 -26.499
c0 -17.333 3.33301 -31.666 10 -42.999c3.33301 -6 8.66602 -12 15.999 -18s15.666 -11.333 24.999 -16l69 -34c9.33301 -4 18.833 -9 28.5 -15s17.5 -12 23.5 -18c8.66699 -9.33301 15.834 -18.666 21.501 -27.999s9.83398 -20 12.501 -32s4.5 -26.167 5.5 -42.5
s1.5 -35.833 1.5 -58.5zM275.998 270.997c0 35.333 -1.66797 60.6689 -5.00098 76.002s-10 27.666 -20 36.999c-12 12 -27.333 18 -46 18c-18 0 -33.667 -5.66699 -47 -17c-4.66699 -4 -8.5 -8.83301 -11.5 -14.5s-5.5 -12.667 -7.5 -21s-3.5 -18.833 -4.5 -31.5
s-1.5 -28.334 -1.5 -47.001c0 -18 0.5 -33.167 1.5 -45.5s2.5 -22.833 4.5 -31.5s4.5 -16 7.5 -22s6.83301 -11 11.5 -15c12.667 -12 28.334 -18 47.001 -18s34 6 46 18c9.33301 8.66699 15.833 21 19.5 37s5.5 41.667 5.5 77z" />
    <glyph glyph-name="dieresis" unicode="&#xa8;" horiz-adv-x="377" 
d="M226 601v82h81v-82h-81zM69 601v82h82v-82h-82z" />
    <glyph glyph-name="copyright" unicode="&#xa9;" horiz-adv-x="853" 
d="M788 356c0 -50 -9.5 -97 -28.5 -141s-44.833 -82.333 -77.5 -115s-71 -58.5 -115 -77.5s-91 -28.5 -141 -28.5s-97 9.5 -141 28.5s-82.333 44.833 -115 77.5s-58.5 71 -77.5 115s-28.5 91 -28.5 141s9.5 97 28.5 141s44.833 82.333 77.5 115s71 58.5 115 77.5
s91 28.5 141 28.5s97 -9.5 141 -28.5s82.333 -44.833 115 -77.5s58.5 -71 77.5 -115s28.5 -91 28.5 -141zM730 356c0 43.333 -7.83301 83.833 -23.5 121.5s-37.167 70.334 -64.5 98.001s-59.5 49.5 -96.5 65.5s-76.833 24 -119.5 24c-42 0 -81.5 -8 -118.5 -24
s-69.167 -37.833 -96.5 -65.5s-48.833 -60.334 -64.5 -98.001s-23.5 -78.167 -23.5 -121.5s7.83301 -83.833 23.5 -121.5s37.167 -70.334 64.5 -98.001s59.5 -49.5 96.5 -65.5s76.5 -24 118.5 -24c42.667 0 82.5 8 119.5 24s69.167 37.833 96.5 65.5
s48.833 60.334 64.5 98.001s23.5 78.167 23.5 121.5zM526 265c-0.666992 -38 -10.667 -66.668 -30 -86.001c-18 -18 -40.667 -27 -68 -27c-30.667 0 -55.334 11 -74.001 33c-12 14 -19.833 34.333 -23.5 61s-5.5 63.334 -5.5 110.001s1.83301 83.167 5.5 109.5
s11.5 46.5 23.5 60.5c18.667 22 43.334 33 74.001 33c27.333 0 50 -9 68 -27c19.333 -19.333 29.333 -48 30 -86h-54c0 10 -0.833008 19.333 -2.5 28s-5.16699 16 -10.5 22c-6.66699 8.66699 -17 13 -31 13c-8 0 -14.667 -1.5 -20 -4.5s-9.66602 -6.83301 -12.999 -11.5
c-7.33301 -10 -11.833 -26.333 -13.5 -49s-2.5 -52 -2.5 -88s0.833008 -65.5 2.5 -88.5s6.16699 -39.5 13.5 -49.5c3.33301 -4.66699 7.66602 -8.5 12.999 -11.5s12 -4.5 20 -4.5c14 0 24.333 4.33301 31 13c5.33301 6 8.83301 13.333 10.5 22s2.5 18 2.5 28h54z" />
    <glyph glyph-name="ordfeminine" unicode="&#xaa;" horiz-adv-x="314" 
d="M204 307l0.00292969 33.0029c-4 -6 -8.5 -11.167 -13.5 -15.5s-9.16699 -7.5 -12.5 -9.5c-13.333 -8.66699 -29.333 -13 -48 -13c-30.667 0 -55.334 10.333 -74.001 31c-8.66699 9.33301 -15.334 21.166 -20.001 35.499s-7 32.166 -7 53.499
c0 38.667 13.333 69.334 40 92.001c10 9.33301 22 16.166 36 20.499s31.667 6.5 53 6.5h42v60c0 16.667 -4 30.167 -12 40.5s-20.333 15.5 -37 15.5c-14 0 -25.333 -5 -34 -15c-6 -6 -9.83301 -12.833 -11.5 -20.5s-2.5 -16.167 -2.5 -25.5h-68
c0 16.667 2.33301 32.5 7 47.5s13.667 28.833 27 41.5c9.33301 9.33301 21.166 16.833 35.499 22.5s29.833 8.5 46.5 8.5c16 0 31.167 -2.33301 45.5 -7s26.833 -12.334 37.5 -23.001c10.667 -10 19 -22.333 25 -37s9 -32.667 9 -54v-288h-64zM200.003 491.003
l-37 0.000976562c-9.33301 0 -17.833 -1 -25.5 -3s-14.167 -5.66699 -19.5 -11c-14 -12 -21 -29.333 -21 -52c0 -18 4 -33.333 12 -46s21 -19 39 -19c15.333 0 27.833 6.16699 37.5 18.5s14.5 28.166 14.5 47.499v65z" />
    <glyph glyph-name="guillemotleft" unicode="&#xab;" horiz-adv-x="392" 
d="M26 272l148 229v-127l-68 -102l68 -103v-127zM193 272l148 229v-127l-69 -102l69 -103v-127z" />
    <glyph glyph-name="logicalnot" unicode="&#xac;" horiz-adv-x="444" 
d="M317 146v107h-267v77h344v-184h-77z" />
    <glyph glyph-name="uni00AD" unicode="&#xad;" horiz-adv-x="298" 
d="M51 244v77h196v-77h-196z" />
    <glyph glyph-name="registered" unicode="&#xae;" horiz-adv-x="853" 
d="M788 356c0 -50 -9.5 -97 -28.5 -141s-44.833 -82.333 -77.5 -115s-71 -58.5 -115 -77.5s-91 -28.5 -141 -28.5s-97 9.5 -141 28.5s-82.333 44.833 -115 77.5s-58.5 71 -77.5 115s-28.5 91 -28.5 141s9.5 97 28.5 141s44.833 82.333 77.5 115s71 58.5 115 77.5
s91 28.5 141 28.5s97 -9.5 141 -28.5s82.333 -44.833 115 -77.5s58.5 -71 77.5 -115s28.5 -91 28.5 -141zM730 356c0 43.333 -7.83301 83.833 -23.5 121.5s-37.167 70.334 -64.5 98.001s-59.5 49.5 -96.5 65.5s-76.833 24 -119.5 24s-82.334 -8 -119.001 -24
s-68.667 -37.833 -96 -65.5s-48.833 -60.334 -64.5 -98.001s-23.5 -78.167 -23.5 -121.5s7.83301 -83.833 23.5 -121.5s37.167 -70.334 64.5 -98.001s59.333 -49.5 96 -65.5s76.334 -24 119.001 -24s82.5 8 119.5 24s69.167 37.833 96.5 65.5s48.833 60.334 64.5 98.001
s23.5 78.167 23.5 121.5zM488 157l-52.001 167.998h-47v-168h-54v397h102c29.333 0 52 -8 68 -24c10.667 -10.667 17.834 -23.167 21.501 -37.5s5.5 -32.166 5.5 -53.499s-1.66699 -38.666 -5 -51.999s-10.333 -25.333 -21 -36c-5.33301 -5.33301 -12 -10.333 -20 -15
l58 -179h-56zM477.999 438.998c0 13.333 -0.666992 24.168 -2 32.501s-4.66602 15.5 -9.99902 21.5c-7.33301 7.33301 -17 11 -29 11h-48v-130h48c11.333 0 20.666 3.66699 27.999 11c5.33301 6 8.83301 13.167 10.5 21.5s2.5 19.166 2.5 32.499z" />
    <glyph glyph-name="macron" unicode="&#xaf;" horiz-adv-x="377" 
d="M74 612v57h229v-57h-229z" />
    <glyph glyph-name="degree" unicode="&#xb0;" horiz-adv-x="396" 
d="M347 575c0 -20.667 -4 -40 -12 -58s-18.667 -33.833 -32 -47.5s-29 -24.334 -47 -32.001s-37.333 -11.5 -58 -11.5s-40 3.83301 -58 11.5s-33.833 18.334 -47.5 32.001s-24.334 29.5 -32.001 47.5s-11.5 37.333 -11.5 58s3.83301 40 11.5 58s18.334 33.667 32.001 47
s29.5 23.833 47.5 31.5s37.333 11.5 58 11.5s40 -3.83301 58 -11.5s33.667 -18.167 47 -31.5s24 -29 32 -47s12 -37.333 12 -58zM275 575c0 22 -7.33301 40.501 -22 55.501s-33 22.5 -55 22.5s-40.333 -7.33301 -55 -22s-22 -33.334 -22 -56.001s7.33301 -41.5 22 -56.5
s33 -22.5 55 -22.5s40.333 7.5 55 22.5s22 33.833 22 56.5z" />
    <glyph glyph-name="plusminus" unicode="&#xb1;" horiz-adv-x="444" 
d="M261 301v-137h-77v137h-138v77h138v137h77v-137h137v-77h-137zM46 24v77h352v-77h-352z" />
    <glyph glyph-name="twosuperior" unicode="&#xb2;" horiz-adv-x="299" 
d="M43 285l-0.00195312 47.002l135 210c7.33301 11.333 13 22.833 17 34.5s6 25.5 6 41.5c0 15.333 -4.66699 27.5 -14 36.5s-21.666 13.5 -36.999 13.5c-32.667 0 -49 -18.667 -49 -56v-24h-61v22c0 19.333 2.33301 35.166 7 47.499s12.334 23.166 23.001 32.499
c21.333 18 48 27 80 27c31.333 0 57.333 -8 78 -24c10 -8 18 -18.5 24 -31.5s9 -28.167 9 -45.5c0 -32 -10 -63.667 -30 -95l-121 -187h151v-49h-218z" />
    <glyph glyph-name="threesuperior" unicode="&#xb3;" horiz-adv-x="299" 
d="M263 402c0 -23.333 -1.83203 -42.165 -5.49902 -56.498s-12.167 -27.5 -25.5 -39.5c-9.33301 -8 -21.166 -14.333 -35.499 -19s-29.166 -7 -44.499 -7c-34.667 0 -62 9 -82 27c-9.33301 8.66699 -16.333 19 -21 31s-7 29.333 -7 52v15h61v-16
c0 -13.333 0.833008 -23.333 2.5 -30s5.16699 -12.334 10.5 -17.001c10 -8.66699 22 -13 36 -13c16 0 27.667 4.33301 35 13c5.33301 5.33301 9.33301 12.5 12 21.5s4 22.833 4 41.5c0 19.333 -1 33.166 -3 41.499s-5.33301 15.5 -10 21.5c-10 10.667 -23 16 -39 16h-26v47
h26c13.333 0 24.666 4 33.999 12c7.33301 7.33301 11.666 16 12.999 26s2 21.667 2 35c0 12.667 -1 23.167 -3 31.5s-6 15.166 -12 20.499c-8 8 -19 12 -33 12c-15.333 0 -27 -4.33301 -35 -13c-4.66699 -4.66699 -7.83398 -10.5 -9.50098 -17.5s-2.5 -15.167 -2.5 -24.5
v-19h-61v17c0 20 2.33301 36 7 48s11.667 22.333 21 31c10 8.66699 21.5 15.334 34.5 20.001s28.167 7 45.5 7c18 0 33.333 -2.33301 46 -7s23.334 -11 32.001 -19c20.667 -20 31 -48.667 31 -86c0 -15.333 -1.16699 -28.5 -3.5 -39.5s-6.83301 -21.167 -13.5 -30.5
c-8.66699 -12 -20.334 -21.333 -35.001 -28c15.333 -6 28 -16 38 -30c5.33301 -8.66699 9.33301 -18.5 12 -29.5s4 -26.167 4 -45.5z" />
    <glyph glyph-name="acute" unicode="&#xb4;" horiz-adv-x="377" 
d="M213 586h-61l68 135h74z" />
    <glyph glyph-name="mu" unicode="&#xb5;" horiz-adv-x="399" 
d="M262 0l-0.000976562 40c-3.33301 -6 -8 -12 -14 -18s-11.667 -10.667 -17 -14c-17.333 -10.667 -36.666 -16 -57.999 -16c-8.66699 0 -16.667 1.5 -24 4.5s-12.333 6.16699 -15 9.5v-200h-78v712h81v-381c0 -24 5.83301 -42 17.5 -54s26.167 -18 43.5 -18s32 6 44 18
s18 30 18 54v381h81v-518h-79z" />
    <glyph glyph-name="paragraph" unicode="&#xb6;" horiz-adv-x="570" 
d="M431 -194v830h-111v-830h-81v490h-54c-45.333 0 -80.666 16 -105.999 48s-38 85.333 -38 160s12.667 128 38 160s60.666 48 105.999 48h327v-906h-81z" />
    <glyph glyph-name="periodcentered" unicode="&#xb7;" horiz-adv-x="266" 
d="M62 233v141h141v-141h-141z" />
    <glyph glyph-name="cedilla" unicode="&#xb8;" horiz-adv-x="377" 
d="M176 -182h-64l57 144h57z" />
    <glyph glyph-name="onesuperior" unicode="&#xb9;" horiz-adv-x="300" 
d="M139 285v364l-72 -47v61l72 49h60v-427h-60z" />
    <glyph glyph-name="ordmasculine" unicode="&#xba;" horiz-adv-x="313" 
d="M276 508c0 -40 -2 -74.333 -6 -103s-12.333 -51 -25 -67c-11.333 -14 -24.166 -23.667 -38.499 -29s-31.166 -8 -50.499 -8c-18.667 0 -35.334 2.66699 -50.001 8s-27.667 15 -39 29c-12.667 16 -20.834 38.333 -24.501 67s-5.5 63 -5.5 103s1.83301 74.333 5.5 103
s11.834 51 24.501 67c11.333 14 24.333 23.833 39 29.5s31.334 8.5 50.001 8.5c19.333 0 36.166 -2.83301 50.499 -8.5s27.166 -15.5 38.499 -29.5c12.667 -16 21 -38.333 25 -67s6 -63 6 -103zM208 508c0 36.667 -1 65.334 -3 86.001s-6.66699 35.667 -14 45
c-8 11.333 -19.667 17 -35 17s-27 -5.66699 -35 -17c-7.33301 -9.33301 -11.833 -24.333 -13.5 -45s-2.5 -49.334 -2.5 -86.001s0.833008 -65.334 2.5 -86.001s6.16699 -35.667 13.5 -45c8 -10.667 19.667 -16 35 -16s27 5.33301 35 16c7.33301 9.33301 12 24.333 14 45
s3 49.334 3 86.001z" />
    <glyph glyph-name="guillemotright" unicode="&#xbb;" horiz-adv-x="392" 
d="M218 42v127l68 103l-68 102v127l148 -229zM51 42v127l69 103l-69 102v127l148 -229z" />
    <glyph glyph-name="onequarter" unicode="&#xbc;" horiz-adv-x="771" 
d="M139 285v364l-72 -47v61l72 49h60v-427h-60zM294 0h-64l246 712h65zM707 63v-63h-60v63h-148v49l117 315h59l-115 -315h87v87h60v-87h32v-49h-32z" />
    <glyph glyph-name="onehalf" unicode="&#xbd;" horiz-adv-x="770" 
d="M139 285v364l-72 -47v61l72 49h60v-427h-60zM294 0h-64l246 712h65zM514 0l-0.00195312 47.002l135 210c7.33301 11.333 13 22.833 17 34.5s6 25.5 6 41.5c0 15.333 -4.66699 27.5 -14 36.5s-21.666 13.5 -36.999 13.5c-32.667 0 -49 -18.667 -49 -56v-24h-61v22
c0 19.333 2.33301 35.166 7 47.499s12.334 23.166 23.001 32.499c21.333 18 48 27 80 27c31.333 0 57.333 -8 78 -24c10 -8 18 -18.5 24 -31.5s9 -28.167 9 -45.5c0 -32 -10 -63.667 -30 -95l-121 -187h151v-49h-218z" />
    <glyph glyph-name="threequarters" unicode="&#xbe;" horiz-adv-x="770" 
d="M263 402c0 -23.333 -1.83203 -42.165 -5.49902 -56.498s-12.167 -27.5 -25.5 -39.5c-9.33301 -8 -21.166 -14.333 -35.499 -19s-29.166 -7 -44.499 -7c-34.667 0 -62 9 -82 27c-9.33301 8.66699 -16.333 19 -21 31s-7 29.333 -7 52v15h61v-16
c0 -13.333 0.833008 -23.333 2.5 -30s5.16699 -12.334 10.5 -17.001c10 -8.66699 22 -13 36 -13c16 0 27.667 4.33301 35 13c5.33301 5.33301 9.33301 12.5 12 21.5s4 22.833 4 41.5c0 19.333 -1 33.166 -3 41.499s-5.33301 15.5 -10 21.5c-10 10.667 -23 16 -39 16h-26v47
h26c13.333 0 24.666 4 33.999 12c7.33301 7.33301 11.666 16 12.999 26s2 21.667 2 35c0 12.667 -1 23.167 -3 31.5s-6 15.166 -12 20.499c-8 8 -19 12 -33 12c-15.333 0 -27 -4.33301 -35 -13c-4.66699 -4.66699 -7.83398 -10.5 -9.50098 -17.5s-2.5 -15.167 -2.5 -24.5
v-19h-61v17c0 20 2.33301 36 7 48s11.667 22.333 21 31c10 8.66699 21.5 15.334 34.5 20.001s28.167 7 45.5 7c18 0 33.333 -2.33301 46 -7s23.334 -11 32.001 -19c20.667 -20 31 -48.667 31 -86c0 -15.333 -1.16699 -28.5 -3.5 -39.5s-6.83301 -21.167 -13.5 -30.5
c-8.66699 -12 -20.334 -21.333 -35.001 -28c15.333 -6 28 -16 38 -30c5.33301 -8.66699 9.33301 -18.5 12 -29.5s4 -26.167 4 -45.5zM293.001 0.000976562h-64l246 712h65zM706.001 63.001v-63h-60v63h-148v49l117 315h59l-115 -315h87v87h60v-87h32v-49h-32z" />
    <glyph glyph-name="questiondown" unicode="&#xbf;" horiz-adv-x="400" 
d="M344 -26c0 -28 -3.16797 -53.167 -9.50098 -75.5s-17.5 -41.166 -33.5 -56.499c-13.333 -12.667 -29 -22.834 -47 -30.501s-38.667 -11.5 -62 -11.5c-46 0 -82.667 13.667 -110 41c-15.333 15.333 -26.5 33.833 -33.5 55.5s-10.5 50.5 -10.5 86.5
c0 25.333 2.16699 47.166 6.5 65.499s12.5 36.166 24.5 53.499l59 85c14.667 21.333 22 44.666 22 69.999v68h81v-78c0 -15.333 -2.66699 -30.166 -8 -44.499s-12 -27.5 -20 -39.5l-58 -85c-11.333 -16 -18.5 -31.167 -21.5 -45.5s-4.5 -31.5 -4.5 -51.5
c0 -22 1.83301 -39.833 5.5 -53.5s9.83398 -25.167 18.501 -34.5c12 -13.333 28.333 -20 49 -20c19.333 0 35.333 6.33301 48 19c10 10.667 16.333 23.334 19 38.001s4 29.334 4 44.001h81zM140.999 419v99h99v-99h-99z" />
    <glyph glyph-name="Agrave" unicode="&#xc0;" horiz-adv-x="424" 
d="M328 0l-34 168h-165l-34 -168h-90l166 712h83l165 -712h-91zM212 573l-67 -328h133zM190 762l-81 135h74l69 -135h-62z" />
    <glyph glyph-name="Aacute" unicode="&#xc1;" horiz-adv-x="424" 
d="M328 0l-34 168h-165l-34 -168h-90l166 712h83l165 -712h-91zM212 573l-67 -328h133zM240 762h-62l69 135h74z" />
    <glyph glyph-name="Acircumflex" unicode="&#xc2;" horiz-adv-x="424" 
d="M328 0l-34 168h-165l-34 -168h-90l166 712h83l165 -712h-91zM212 573l-67 -328h133zM275 762l-60 87l-60 -87h-66l93 135h66l93 -135h-66z" />
    <glyph glyph-name="Atilde" unicode="&#xc3;" horiz-adv-x="424" 
d="M328 0l-34 168h-165l-34 -168h-90l166 712h83l165 -712h-91zM212 573l-67 -328h133zM348 814c-11.333 -11.333 -23.3301 -21.1689 -35.9971 -29.502s-27.334 -12.5 -44.001 -12.5c-13.333 0 -24.333 1.66699 -33 5s-16.667 7 -24 11l-21 11
c-6.66699 3.33301 -14.334 5 -23.001 5c-9.33301 0 -17.5 -2.33301 -24.5 -7s-13.833 -10 -20.5 -16l-36 37c14 14.667 27 25.5 39 32.5s25.333 10.5 40 10.5c13.333 0 24.166 -1.66699 32.499 -5s16 -7.16602 23 -11.499s13.833 -8.16602 20.5 -11.499s15 -5 25 -5
s18.333 2.33301 25 7s13 10 19 16l38 -37v0z" />
    <glyph glyph-name="Adieresis" unicode="&#xc4;" horiz-adv-x="424" 
d="M328 0l-34 168h-165l-34 -168h-90l166 712h83l165 -712h-91zM212 573l-67 -328h133zM252 777v81h82v-81h-82zM96 777v81h82v-81h-82z" />
    <glyph glyph-name="Aring" unicode="&#xc5;" horiz-adv-x="424" 
d="M328 0l-34 168h-165l-34 -168h-90l166 712h83l165 -712h-91zM212 573l-67 -328h133zM313 850c0 -27.333 -9.5 -50.5 -28.5 -69.5s-42.167 -28.5 -69.5 -28.5s-50.5 9.5 -69.5 28.5s-28.5 42.167 -28.5 69.5s9.5 50.5 28.5 69.5s42.167 28.5 69.5 28.5
s50.5 -9.5 69.5 -28.5s28.5 -42.167 28.5 -69.5zM264 850c0 13.333 -4.83301 24.833 -14.5 34.5s-21.167 14.5 -34.5 14.5s-24.833 -4.83301 -34.5 -14.5s-14.5 -21.167 -14.5 -34.5s4.83301 -24.833 14.5 -34.5s21.167 -14.5 34.5 -14.5s24.833 4.83301 34.5 14.5
s14.5 21.167 14.5 34.5z" />
    <glyph glyph-name="AE" unicode="&#xc6;" horiz-adv-x="640" 
d="M324 0v172h-163l-61 -172h-95l263 712h330v-77h-188v-239h162v-77h-162v-242h188v-77h-274zM324 635l-136 -385h136v385z" />
    <glyph glyph-name="Ccedilla" unicode="&#xc7;" horiz-adv-x="423" 
d="M385 176c-0.666992 -30 -5.5 -57.667 -14.5 -83s-22.167 -46 -39.5 -62c-14 -12.667 -30 -22.334 -48 -29.001s-38.667 -10 -62 -10c-28 0 -52 4.83301 -72 14.5s-36.667 22.167 -50 37.5c-12 13.333 -21.333 27.833 -28 43.5s-11.834 35.167 -15.501 58.5
s-6 51.833 -7 85.5s-1.5 75.167 -1.5 124.5s0.5 90.833 1.5 124.5s3.33301 62.167 7 85.5s8.83398 42.833 15.501 58.5s16 30.167 28 43.5c13.333 15.333 30 27.833 50 37.5s44 14.5 72 14.5c25.333 0 47 -3.66699 65 -11s34 -17.666 48 -30.999
c16.667 -16 29.167 -36.167 37.5 -60.5s12.833 -51.166 13.5 -80.499h-85c-0.666992 15.333 -2.5 30 -5.5 44s-8.83301 26.333 -17.5 37c-5.33301 7.33301 -12.666 13.333 -21.999 18s-20.666 7 -33.999 7c-14 0 -25.833 -2.5 -35.5 -7.5s-17.5 -11.5 -23.5 -19.5
c-6 -8.66699 -11 -19.167 -15 -31.5s-7 -28.333 -9 -48s-3.33301 -44.167 -4 -73.5s-1 -65 -1 -107s0.333008 -77.667 1 -107s2 -53.833 4 -73.5s5 -35.667 9 -48s9 -22.833 15 -31.5c6 -8 13.833 -14.5 23.5 -19.5s21.5 -7.5 35.5 -7.5c13.333 0 24.666 2.33301 33.999 7
s16.666 10.667 21.999 18c8 10.667 13.667 23.167 17 37.5s5.33301 29.166 6 44.499h85zM201 -182h-64l57 144h57z" />
    <glyph glyph-name="Egrave" unicode="&#xc8;" horiz-adv-x="380" 
d="M64 0v712h275v-77h-189v-239h163v-77h-163v-242h189v-77h-275zM181 762l-81 135h74l69 -135h-62z" />
    <glyph glyph-name="Eacute" unicode="&#xc9;" horiz-adv-x="380" 
d="M64 0v712h275v-77h-189v-239h163v-77h-163v-242h189v-77h-275zM231 762h-62l69 135h74z" />
    <glyph glyph-name="Ecircumflex" unicode="&#xca;" horiz-adv-x="380" 
d="M64 0v712h275v-77h-189v-239h163v-77h-163v-242h189v-77h-275zM266 762l-60 87l-60 -87h-66l93 135h66l93 -135h-66z" />
    <glyph glyph-name="Edieresis" unicode="&#xcb;" horiz-adv-x="380" 
d="M64 0v712h275v-77h-189v-239h163v-77h-163v-242h189v-77h-275zM243 777v81h82v-81h-82zM87 777v81h82v-81h-82z" />
    <glyph glyph-name="Igrave" unicode="&#xcc;" horiz-adv-x="215" 
d="M64 0v712h86v-712h-86zM84 762l-81 135h74l69 -135h-62z" />
    <glyph glyph-name="Iacute" unicode="&#xcd;" horiz-adv-x="215" 
d="M64 0v712h86v-712h-86zM134 762h-62l69 135h74z" />
    <glyph glyph-name="Icircumflex" unicode="&#xce;" horiz-adv-x="215" 
d="M64 0v712h86v-712h-86zM169 762l-60 87l-60 -87h-66l93 135h66l93 -135h-66z" />
    <glyph glyph-name="Idieresis" unicode="&#xcf;" horiz-adv-x="215" 
d="M64 0v712h86v-712h-86zM146 777v81h82v-81h-82zM-10 777v81h82v-81h-82z" />
    <glyph glyph-name="Eth" unicode="&#xd0;" horiz-adv-x="459" 
d="M412 356c0 -44 -0.333008 -82.167 -1 -114.5s-2.66699 -60.5 -6 -84.5s-8.5 -44.5 -15.5 -61.5s-16.5 -32.167 -28.5 -45.5c-13.333 -14.667 -29.833 -26.667 -49.5 -36s-43.834 -14 -72.501 -14h-164v323h-52v69h52v320h164c28.667 0 52.834 -4.66699 72.501 -14
s36.167 -21.333 49.5 -36c12 -13.333 21.5 -28.5 28.5 -45.5s12.167 -37.5 15.5 -61.5s5.33301 -52.167 6 -84.5s1 -70.5 1 -114.5zM326 356c0 40.667 -0.333008 75.167 -1 103.5s-2 52 -4 71s-4.83301 34.5 -8.5 46.5s-8.83398 22.333 -15.501 31
c-6 8 -14.167 14.5 -24.5 19.5s-22.5 7.5 -36.5 7.5h-75v-243h81v-69h-81v-246h75c14 0 26.167 2.5 36.5 7.5s18.5 11.5 24.5 19.5c6.66699 8.66699 11.834 19 15.501 31s6.5 27.5 8.5 46.5s3.33301 42.667 4 71s1 62.833 1 103.5z" />
    <glyph glyph-name="Ntilde" unicode="&#xd1;" horiz-adv-x="477" 
d="M334 0l-184 487v-487h-86v712h80l182 -487v487h86v-712h-78zM371 814c-11.333 -11.333 -23.3301 -21.1689 -35.9971 -29.502s-27.334 -12.5 -44.001 -12.5c-13.333 0 -24.333 1.66699 -33 5s-16.667 7 -24 11l-21 11c-6.66699 3.33301 -14.334 5 -23.001 5
c-9.33301 0 -17.5 -2.33301 -24.5 -7s-13.833 -10 -20.5 -16l-36 37c14 14.667 27 25.5 39 32.5s25.333 10.5 40 10.5c13.333 0 24.166 -1.66699 32.499 -5s16 -7.16602 23 -11.499s13.833 -8.16602 20.5 -11.499s15 -5 25 -5s18.333 2.33301 25 7s13 10 19 16l38 -37v0z
" />
    <glyph glyph-name="Ograve" unicode="&#xd2;" horiz-adv-x="442" 
d="M395 356c0 -49.333 -0.5 -91 -1.5 -125s-3.33301 -62.667 -7 -86s-9 -42.833 -16 -58.5s-16.167 -29.834 -27.5 -42.501c-14 -15.333 -30.833 -27.833 -50.5 -37.5s-43.5 -14.5 -71.5 -14.5s-51.833 4.83301 -71.5 14.5s-36.5 22.167 -50.5 37.5
c-11.333 12.667 -20.5 26.834 -27.5 42.501s-12.333 35.167 -16 58.5s-6 52 -7 86s-1.5 75.667 -1.5 125s0.5 90.833 1.5 124.5s3.33301 62.334 7 86.001s9 43.334 16 59.001s16.167 29.834 27.5 42.501c14 15.333 30.833 27.833 50.5 37.5s43.5 14.5 71.5 14.5
s51.833 -4.83301 71.5 -14.5s36.5 -22.167 50.5 -37.5c11.333 -12.667 20.5 -26.834 27.5 -42.501s12.333 -35.334 16 -59.001s6 -52.334 7 -86.001s1.5 -75.167 1.5 -124.5zM309 356c0 42 -0.333008 77.667 -1 107s-2.16699 53.833 -4.5 73.5s-5.5 35.667 -9.5 48
s-9 22.833 -15 31.5c-6 8 -13.667 14.5 -23 19.5s-21 7.5 -35 7.5s-25.833 -2.5 -35.5 -7.5s-17.5 -11.5 -23.5 -19.5c-6 -8.66699 -11 -19.167 -15 -31.5s-7 -28.333 -9 -48s-3.33301 -44.167 -4 -73.5s-1 -65 -1 -107s0.333008 -77.667 1 -107s2 -53.833 4 -73.5
s5 -35.667 9 -48s9 -22.833 15 -31.5c6 -8 13.833 -14.5 23.5 -19.5s21.5 -7.5 35.5 -7.5s25.667 2.5 35 7.5s17 11.5 23 19.5c6 8.66699 11 19.167 15 31.5s7.16699 28.333 9.5 48s3.83301 44.167 4.5 73.5s1 65 1 107zM196 762l-81 135h74l69 -135h-62z" />
    <glyph glyph-name="Oacute" unicode="&#xd3;" horiz-adv-x="442" 
d="M395 356c0 -49.333 -0.5 -91 -1.5 -125s-3.33301 -62.667 -7 -86s-9 -42.833 -16 -58.5s-16.167 -29.834 -27.5 -42.501c-14 -15.333 -30.833 -27.833 -50.5 -37.5s-43.5 -14.5 -71.5 -14.5s-51.833 4.83301 -71.5 14.5s-36.5 22.167 -50.5 37.5
c-11.333 12.667 -20.5 26.834 -27.5 42.501s-12.333 35.167 -16 58.5s-6 52 -7 86s-1.5 75.667 -1.5 125s0.5 90.833 1.5 124.5s3.33301 62.334 7 86.001s9 43.334 16 59.001s16.167 29.834 27.5 42.501c14 15.333 30.833 27.833 50.5 37.5s43.5 14.5 71.5 14.5
s51.833 -4.83301 71.5 -14.5s36.5 -22.167 50.5 -37.5c11.333 -12.667 20.5 -26.834 27.5 -42.501s12.333 -35.334 16 -59.001s6 -52.334 7 -86.001s1.5 -75.167 1.5 -124.5zM309 356c0 42 -0.333008 77.667 -1 107s-2.16699 53.833 -4.5 73.5s-5.5 35.667 -9.5 48
s-9 22.833 -15 31.5c-6 8 -13.667 14.5 -23 19.5s-21 7.5 -35 7.5s-25.833 -2.5 -35.5 -7.5s-17.5 -11.5 -23.5 -19.5c-6 -8.66699 -11 -19.167 -15 -31.5s-7 -28.333 -9 -48s-3.33301 -44.167 -4 -73.5s-1 -65 -1 -107s0.333008 -77.667 1 -107s2 -53.833 4 -73.5
s5 -35.667 9 -48s9 -22.833 15 -31.5c6 -8 13.833 -14.5 23.5 -19.5s21.5 -7.5 35.5 -7.5s25.667 2.5 35 7.5s17 11.5 23 19.5c6 8.66699 11 19.167 15 31.5s7.16699 28.333 9.5 48s3.83301 44.167 4.5 73.5s1 65 1 107zM246 762h-62l69 135h74z" />
    <glyph glyph-name="Ocircumflex" unicode="&#xd4;" horiz-adv-x="442" 
d="M395 356c0 -49.333 -0.5 -91 -1.5 -125s-3.33301 -62.667 -7 -86s-9 -42.833 -16 -58.5s-16.167 -29.834 -27.5 -42.501c-14 -15.333 -30.833 -27.833 -50.5 -37.5s-43.5 -14.5 -71.5 -14.5s-51.833 4.83301 -71.5 14.5s-36.5 22.167 -50.5 37.5
c-11.333 12.667 -20.5 26.834 -27.5 42.501s-12.333 35.167 -16 58.5s-6 52 -7 86s-1.5 75.667 -1.5 125s0.5 90.833 1.5 124.5s3.33301 62.334 7 86.001s9 43.334 16 59.001s16.167 29.834 27.5 42.501c14 15.333 30.833 27.833 50.5 37.5s43.5 14.5 71.5 14.5
s51.833 -4.83301 71.5 -14.5s36.5 -22.167 50.5 -37.5c11.333 -12.667 20.5 -26.834 27.5 -42.501s12.333 -35.334 16 -59.001s6 -52.334 7 -86.001s1.5 -75.167 1.5 -124.5zM309 356c0 42 -0.333008 77.667 -1 107s-2.16699 53.833 -4.5 73.5s-5.5 35.667 -9.5 48
s-9 22.833 -15 31.5c-6 8 -13.667 14.5 -23 19.5s-21 7.5 -35 7.5s-25.833 -2.5 -35.5 -7.5s-17.5 -11.5 -23.5 -19.5c-6 -8.66699 -11 -19.167 -15 -31.5s-7 -28.333 -9 -48s-3.33301 -44.167 -4 -73.5s-1 -65 -1 -107s0.333008 -77.667 1 -107s2 -53.833 4 -73.5
s5 -35.667 9 -48s9 -22.833 15 -31.5c6 -8 13.833 -14.5 23.5 -19.5s21.5 -7.5 35.5 -7.5s25.667 2.5 35 7.5s17 11.5 23 19.5c6 8.66699 11 19.167 15 31.5s7.16699 28.333 9.5 48s3.83301 44.167 4.5 73.5s1 65 1 107zM281 762l-60 87l-60 -87h-66l93 135h66l93 -135h-66z
" />
    <glyph glyph-name="Otilde" unicode="&#xd5;" horiz-adv-x="442" 
d="M395 356c0 -49.333 -0.5 -91 -1.5 -125s-3.33301 -62.667 -7 -86s-9 -42.833 -16 -58.5s-16.167 -29.834 -27.5 -42.501c-14 -15.333 -30.833 -27.833 -50.5 -37.5s-43.5 -14.5 -71.5 -14.5s-51.833 4.83301 -71.5 14.5s-36.5 22.167 -50.5 37.5
c-11.333 12.667 -20.5 26.834 -27.5 42.501s-12.333 35.167 -16 58.5s-6 52 -7 86s-1.5 75.667 -1.5 125s0.5 90.833 1.5 124.5s3.33301 62.334 7 86.001s9 43.334 16 59.001s16.167 29.834 27.5 42.501c14 15.333 30.833 27.833 50.5 37.5s43.5 14.5 71.5 14.5
s51.833 -4.83301 71.5 -14.5s36.5 -22.167 50.5 -37.5c11.333 -12.667 20.5 -26.834 27.5 -42.501s12.333 -35.334 16 -59.001s6 -52.334 7 -86.001s1.5 -75.167 1.5 -124.5zM309 356c0 42 -0.333008 77.667 -1 107s-2.16699 53.833 -4.5 73.5s-5.5 35.667 -9.5 48
s-9 22.833 -15 31.5c-6 8 -13.667 14.5 -23 19.5s-21 7.5 -35 7.5s-25.833 -2.5 -35.5 -7.5s-17.5 -11.5 -23.5 -19.5c-6 -8.66699 -11 -19.167 -15 -31.5s-7 -28.333 -9 -48s-3.33301 -44.167 -4 -73.5s-1 -65 -1 -107s0.333008 -77.667 1 -107s2 -53.833 4 -73.5
s5 -35.667 9 -48s9 -22.833 15 -31.5c6 -8 13.833 -14.5 23.5 -19.5s21.5 -7.5 35.5 -7.5s25.667 2.5 35 7.5s17 11.5 23 19.5c6 8.66699 11 19.167 15 31.5s7.16699 28.333 9.5 48s3.83301 44.167 4.5 73.5s1 65 1 107zM354 814
c-11.333 -11.333 -23.3301 -21.1689 -35.9971 -29.502s-27.334 -12.5 -44.001 -12.5c-13.333 0 -24.333 1.66699 -33 5s-16.667 7 -24 11l-21 11c-6.66699 3.33301 -14.334 5 -23.001 5c-9.33301 0 -17.5 -2.33301 -24.5 -7s-13.833 -10 -20.5 -16l-36 37
c14 14.667 27 25.5 39 32.5s25.333 10.5 40 10.5c13.333 0 24.166 -1.66699 32.499 -5s16 -7.16602 23 -11.499s13.833 -8.16602 20.5 -11.499s15 -5 25 -5s18.333 2.33301 25 7s13 10 19 16l38 -37v0z" />
    <glyph glyph-name="Odieresis" unicode="&#xd6;" horiz-adv-x="442" 
d="M395 356c0 -49.333 -0.5 -91 -1.5 -125s-3.33301 -62.667 -7 -86s-9 -42.833 -16 -58.5s-16.167 -29.834 -27.5 -42.501c-14 -15.333 -30.833 -27.833 -50.5 -37.5s-43.5 -14.5 -71.5 -14.5s-51.833 4.83301 -71.5 14.5s-36.5 22.167 -50.5 37.5
c-11.333 12.667 -20.5 26.834 -27.5 42.501s-12.333 35.167 -16 58.5s-6 52 -7 86s-1.5 75.667 -1.5 125s0.5 90.833 1.5 124.5s3.33301 62.334 7 86.001s9 43.334 16 59.001s16.167 29.834 27.5 42.501c14 15.333 30.833 27.833 50.5 37.5s43.5 14.5 71.5 14.5
s51.833 -4.83301 71.5 -14.5s36.5 -22.167 50.5 -37.5c11.333 -12.667 20.5 -26.834 27.5 -42.501s12.333 -35.334 16 -59.001s6 -52.334 7 -86.001s1.5 -75.167 1.5 -124.5zM309 356c0 42 -0.333008 77.667 -1 107s-2.16699 53.833 -4.5 73.5s-5.5 35.667 -9.5 48
s-9 22.833 -15 31.5c-6 8 -13.667 14.5 -23 19.5s-21 7.5 -35 7.5s-25.833 -2.5 -35.5 -7.5s-17.5 -11.5 -23.5 -19.5c-6 -8.66699 -11 -19.167 -15 -31.5s-7 -28.333 -9 -48s-3.33301 -44.167 -4 -73.5s-1 -65 -1 -107s0.333008 -77.667 1 -107s2 -53.833 4 -73.5
s5 -35.667 9 -48s9 -22.833 15 -31.5c6 -8 13.833 -14.5 23.5 -19.5s21.5 -7.5 35.5 -7.5s25.667 2.5 35 7.5s17 11.5 23 19.5c6 8.66699 11 19.167 15 31.5s7.16699 28.333 9.5 48s3.83301 44.167 4.5 73.5s1 65 1 107zM258 777v81h82v-81h-82zM102 777v81h82v-81h-82z" />
    <glyph glyph-name="multiply" unicode="&#xd7;" horiz-adv-x="444" 
d="M339 109l-117 116l-116 -116l-53 52l117 117l-117 116l53 53l116 -117l117 117l52 -53l-116 -116l116 -117z" />
    <glyph glyph-name="Oslash" unicode="&#xd8;" horiz-adv-x="431" 
d="M395 356c0 -49.333 -0.499023 -91.001 -1.49902 -125.001s-3.33301 -62.667 -7 -86s-9 -42.833 -16 -58.5s-16.167 -29.834 -27.5 -42.501c-14 -15.333 -30.833 -27.833 -50.5 -37.5s-43.5 -14.5 -71.5 -14.5c-32.667 0 -60.334 6.66699 -83.001 20l-19 -56h-62l34 96
c-10 12.667 -17.833 27.167 -23.5 43.5s-10 36.166 -13 59.499s-5 51.333 -6 84s-1.5 71.667 -1.5 117c0 49.333 0.5 90.833 1.5 124.5s3.33301 62.334 7 86.001s9 43.334 16 59.001s16.167 29.834 27.5 42.501c14 15.333 30.833 27.833 50.5 37.5s43.5 14.5 71.5 14.5
c32 0 59.667 -6.66699 83 -20l18 56h62l-32 -97c9.33301 -12.667 16.833 -27.167 22.5 -43.5s10 -36.166 13 -59.499s5 -51.333 6 -84s1.5 -71.334 1.5 -116.001zM277.001 620.999c-13.333 14.667 -32 21.998 -56 21.998c-14 0 -25.833 -2.5 -35.5 -7.5
s-17.5 -11.5 -23.5 -19.5c-6 -8.66699 -11 -19.167 -15 -31.5s-7 -28.333 -9 -48s-3.33301 -44.167 -4 -73.5s-1 -65 -1 -107c0 -49.333 0.5 -87.166 1.5 -113.499s3.16699 -47.166 6.5 -62.499zM309.001 355.997c0 48 -0.500977 85.333 -1.50098 112
s-3.16699 47.667 -6.5 63l-136 -440c12.667 -14.667 31.334 -22 56.001 -22c14 0 25.667 2.5 35 7.5s17 11.5 23 19.5c6.66699 8.66699 12 19.167 16 31.5s7 28.333 9 48s3.33301 44.167 4 73.5s1 65 1 107z" />
    <glyph glyph-name="Ugrave" unicode="&#xd9;" horiz-adv-x="445" 
d="M387 162c0 -26 -4.00195 -49.333 -12.002 -70s-19.333 -38.334 -34 -53.001c-15.333 -15.333 -33.166 -27 -53.499 -35s-42.166 -12 -65.499 -12c-47.333 0 -86.666 15.667 -117.999 47c-14.667 14.667 -26 32.334 -34 53.001s-12 44 -12 70v550h86v-555
c0 -28 7.66699 -49.667 23 -65s33.666 -23 54.999 -23s39.833 7.66699 55.5 23s23.5 37 23.5 65v555h86v-550zM196.998 762l-81 135h74l69 -135h-62z" />
    <glyph glyph-name="Uacute" unicode="&#xda;" horiz-adv-x="445" 
d="M387 162c0 -26 -4.00195 -49.333 -12.002 -70s-19.333 -38.334 -34 -53.001c-15.333 -15.333 -33.166 -27 -53.499 -35s-42.166 -12 -65.499 -12c-47.333 0 -86.666 15.667 -117.999 47c-14.667 14.667 -26 32.334 -34 53.001s-12 44 -12 70v550h86v-555
c0 -28 7.66699 -49.667 23 -65s33.666 -23 54.999 -23s39.833 7.66699 55.5 23s23.5 37 23.5 65v555h86v-550zM246.998 762h-62l69 135h74z" />
    <glyph glyph-name="Ucircumflex" unicode="&#xdb;" horiz-adv-x="445" 
d="M387 162c0 -26 -4.00195 -49.333 -12.002 -70s-19.333 -38.334 -34 -53.001c-15.333 -15.333 -33.166 -27 -53.499 -35s-42.166 -12 -65.499 -12c-47.333 0 -86.666 15.667 -117.999 47c-14.667 14.667 -26 32.334 -34 53.001s-12 44 -12 70v550h86v-555
c0 -28 7.66699 -49.667 23 -65s33.666 -23 54.999 -23s39.833 7.66699 55.5 23s23.5 37 23.5 65v555h86v-550zM281.998 762l-60 87l-60 -87h-66l93 135h66l93 -135h-66z" />
    <glyph glyph-name="Udieresis" unicode="&#xdc;" horiz-adv-x="445" 
d="M387 162c0 -26 -4.00195 -49.333 -12.002 -70s-19.333 -38.334 -34 -53.001c-15.333 -15.333 -33.166 -27 -53.499 -35s-42.166 -12 -65.499 -12c-47.333 0 -86.666 15.667 -117.999 47c-14.667 14.667 -26 32.334 -34 53.001s-12 44 -12 70v550h86v-555
c0 -28 7.66699 -49.667 23 -65s33.666 -23 54.999 -23s39.833 7.66699 55.5 23s23.5 37 23.5 65v555h86v-550zM258.998 777v81h82v-81h-82zM102.998 777v81h82v-81h-82z" />
    <glyph glyph-name="Yacute" unicode="&#xdd;" horiz-adv-x="353" 
d="M219 288v-288h-86v288l-131 424h94l80 -304l80 304h95zM205 762h-62l69 135h74z" />
    <glyph glyph-name="Thorn" unicode="&#xde;" horiz-adv-x="435" 
d="M393 360c0 -39.333 -3.66699 -72.333 -11 -99s-18.333 -48 -33 -64s-32.5 -27.5 -53.5 -34.5s-44.833 -10.5 -71.5 -10.5h-74v-152h-86v712h86v-144h74c26.667 0 50.5 -3.5 71.5 -10.5s38.833 -18.5 53.5 -34.5s25.667 -37.333 33 -64s11 -59.667 11 -99zM307 360
c0 48 -7 81.667 -21 101s-35 29 -63 29h-73v-261h73c28 0 49 9.83301 63 29.5s21 53.5 21 101.5z" />
    <glyph glyph-name="germandbls" unicode="&#xdf;" horiz-adv-x="394" 
d="M355 219c0 -41.333 -2.16895 -76.833 -6.50195 -106.5s-16.833 -54.834 -37.5 -75.501c-15.333 -15.333 -32.5 -25.333 -51.5 -30s-38.5 -7 -58.5 -7v73c10 0 19.5 1.33301 28.5 4s16.833 7.66699 23.5 15c8.66699 10 14.334 24.5 17.001 43.5s4 48.833 4 89.5
c0 37.333 -1.5 65.5 -4.5 84.5s-8.16699 33.833 -15.5 44.5c-10 14 -25 21 -45 21h-8v69h7c15.333 0 28 5.66699 38 17c8.66699 10.667 14 22.667 16 36s3 29.333 3 48c0 24 -1.5 41.667 -4.5 53s-7.83301 21 -14.5 29c-10 13.333 -25 20 -45 20
c-17.333 0 -32.166 -6 -44.499 -18s-18.5 -30.667 -18.5 -56v-573h-81v571c0 27.333 3.5 49.333 10.5 66s17.167 31.334 30.5 44.001c12.667 12.667 28 22.334 46 29.001s36.667 10 56 10c20 0 39 -3 57 -9s33.667 -15.667 47 -29c18 -18 29.5 -37.333 34.5 -58
s7.5 -45 7.5 -73c0 -17.333 -0.833008 -34.5 -2.5 -51.5s-6.83398 -33.167 -15.501 -48.5c-8 -14.667 -20 -28 -36 -40c7.33301 -4 13.833 -8.83301 19.5 -14.5s10.834 -11.834 15.501 -18.501c11.333 -15.333 18.833 -34.5 22.5 -57.5s5.5 -56.833 5.5 -101.5z" />
    <glyph glyph-name="agrave" unicode="&#xe0;" 
d="M245 0l0.000976562 46.0029c-4 -7.33301 -8.66699 -14 -14 -20s-10.666 -11 -15.999 -15c-8 -6 -16.667 -10.667 -26 -14s-21 -5 -35 -5c-19.333 0 -36 3.16699 -50 9.5s-27 16.166 -39 29.499c-10 11.333 -18 26.666 -24 45.999s-9 42.666 -9 69.999
c0 24 3.83301 46.167 11.5 66.5s19.167 37.166 34.5 50.499c13.333 11.333 28.166 20 44.499 26s38.166 9 65.499 9h53v82c0 49.333 -20.333 74 -61 74c-9.33301 0 -17 -1.5 -23 -4.5s-11.667 -7.16699 -17 -12.5c-7.33301 -7.33301 -12.333 -15.666 -15 -24.999
s-4 -21 -4 -35h-81c0 20 2.83301 39.5 8.5 58.5s16.167 36.167 31.5 51.5c11.333 11.333 25.833 20.5 43.5 27.5s36.5 10.5 56.5 10.5c43.333 0 77 -12 101 -36c12.667 -13.333 22.667 -29 30 -47s11 -40.333 11 -67v-376h-77zM241.001 240.003l-46 -0.000976562
c-12.667 0 -23.5 -1.33301 -32.5 -4s-17.5 -7.66699 -25.5 -15c-7.33301 -7.33301 -13.166 -17.5 -17.499 -30.5s-6.5 -26.5 -6.5 -40.5c0 -27.333 5.16699 -48.666 15.5 -63.999s26.166 -23 47.499 -23c19.333 0 35 7.5 47 22.5s18 34.5 18 58.5v96zM161.001 586.002
l-81 135h74l69 -135h-62z" />
    <glyph glyph-name="aacute" unicode="&#xe1;" 
d="M245 0l0.000976562 46.0029c-4 -7.33301 -8.66699 -14 -14 -20s-10.666 -11 -15.999 -15c-8 -6 -16.667 -10.667 -26 -14s-21 -5 -35 -5c-19.333 0 -36 3.16699 -50 9.5s-27 16.166 -39 29.499c-10 11.333 -18 26.666 -24 45.999s-9 42.666 -9 69.999
c0 24 3.83301 46.167 11.5 66.5s19.167 37.166 34.5 50.499c13.333 11.333 28.166 20 44.499 26s38.166 9 65.499 9h53v82c0 49.333 -20.333 74 -61 74c-9.33301 0 -17 -1.5 -23 -4.5s-11.667 -7.16699 -17 -12.5c-7.33301 -7.33301 -12.333 -15.666 -15 -24.999
s-4 -21 -4 -35h-81c0 20 2.83301 39.5 8.5 58.5s16.167 36.167 31.5 51.5c11.333 11.333 25.833 20.5 43.5 27.5s36.5 10.5 56.5 10.5c43.333 0 77 -12 101 -36c12.667 -13.333 22.667 -29 30 -47s11 -40.333 11 -67v-376h-77zM241.001 240.003l-46 -0.000976562
c-12.667 0 -23.5 -1.33301 -32.5 -4s-17.5 -7.66699 -25.5 -15c-7.33301 -7.33301 -13.166 -17.5 -17.499 -30.5s-6.5 -26.5 -6.5 -40.5c0 -27.333 5.16699 -48.666 15.5 -63.999s26.166 -23 47.499 -23c19.333 0 35 7.5 47 22.5s18 34.5 18 58.5v96zM210.001 586.002h-61
l68 135h74z" />
    <glyph glyph-name="acircumflex" unicode="&#xe2;" 
d="M245 0l0.000976562 46.0029c-4 -7.33301 -8.66699 -14 -14 -20s-10.666 -11 -15.999 -15c-8 -6 -16.667 -10.667 -26 -14s-21 -5 -35 -5c-19.333 0 -36 3.16699 -50 9.5s-27 16.166 -39 29.499c-10 11.333 -18 26.666 -24 45.999s-9 42.666 -9 69.999
c0 24 3.83301 46.167 11.5 66.5s19.167 37.166 34.5 50.499c13.333 11.333 28.166 20 44.499 26s38.166 9 65.499 9h53v82c0 49.333 -20.333 74 -61 74c-9.33301 0 -17 -1.5 -23 -4.5s-11.667 -7.16699 -17 -12.5c-7.33301 -7.33301 -12.333 -15.666 -15 -24.999
s-4 -21 -4 -35h-81c0 20 2.83301 39.5 8.5 58.5s16.167 36.167 31.5 51.5c11.333 11.333 25.833 20.5 43.5 27.5s36.5 10.5 56.5 10.5c43.333 0 77 -12 101 -36c12.667 -13.333 22.667 -29 30 -47s11 -40.333 11 -67v-376h-77zM241.001 240.003l-46 -0.000976562
c-12.667 0 -23.5 -1.33301 -32.5 -4s-17.5 -7.66699 -25.5 -15c-7.33301 -7.33301 -13.166 -17.5 -17.499 -30.5s-6.5 -26.5 -6.5 -40.5c0 -27.333 5.16699 -48.666 15.5 -63.999s26.166 -23 47.499 -23c19.333 0 35 7.5 47 22.5s18 34.5 18 58.5v96zM244.001 586.002
l-60 87l-59 -87h-67l93 135h67l93 -135h-67z" />
    <glyph glyph-name="atilde" unicode="&#xe3;" 
d="M245 0l0.000976562 46.0029c-4 -7.33301 -8.66699 -14 -14 -20s-10.666 -11 -15.999 -15c-8 -6 -16.667 -10.667 -26 -14s-21 -5 -35 -5c-19.333 0 -36 3.16699 -50 9.5s-27 16.166 -39 29.499c-10 11.333 -18 26.666 -24 45.999s-9 42.666 -9 69.999
c0 24 3.83301 46.167 11.5 66.5s19.167 37.166 34.5 50.499c13.333 11.333 28.166 20 44.499 26s38.166 9 65.499 9h53v82c0 49.333 -20.333 74 -61 74c-9.33301 0 -17 -1.5 -23 -4.5s-11.667 -7.16699 -17 -12.5c-7.33301 -7.33301 -12.333 -15.666 -15 -24.999
s-4 -21 -4 -35h-81c0 20 2.83301 39.5 8.5 58.5s16.167 36.167 31.5 51.5c11.333 11.333 25.833 20.5 43.5 27.5s36.5 10.5 56.5 10.5c43.333 0 77 -12 101 -36c12.667 -13.333 22.667 -29 30 -47s11 -40.333 11 -67v-376h-77zM241.001 240.003l-46 -0.000976562
c-12.667 0 -23.5 -1.33301 -32.5 -4s-17.5 -7.66699 -25.5 -15c-7.33301 -7.33301 -13.166 -17.5 -17.499 -30.5s-6.5 -26.5 -6.5 -40.5c0 -27.333 5.16699 -48.666 15.5 -63.999s26.166 -23 47.499 -23c19.333 0 35 7.5 47 22.5s18 34.5 18 58.5v96zM318.001 638.002
c-17.333 -16.667 -32.002 -27.834 -44.002 -33.501s-24 -8.5 -36 -8.5c-11.333 0 -21.333 1.5 -30 4.5s-18 7.16699 -28 12.5c-7.33301 4.66699 -14.333 8.33398 -21 11.001s-14 4 -22 4c-6.66699 0 -13 -1 -19 -3s-14.667 -8.66699 -26 -20l-36 38
c16.667 16.667 30.834 27.834 42.501 33.501s23.834 8.5 36.501 8.5c11.333 0 21.333 -1.33301 30 -4s18 -7 28 -13c7.33301 -4.66699 14.333 -8.33398 21 -11.001s14 -4 22 -4c6 0 12.167 1.16699 18.5 3.5s14.833 8.83301 25.5 19.5l38 -38v0z" />
    <glyph glyph-name="adieresis" unicode="&#xe4;" 
d="M245 0l0.000976562 46.0029c-4 -7.33301 -8.66699 -14 -14 -20s-10.666 -11 -15.999 -15c-8 -6 -16.667 -10.667 -26 -14s-21 -5 -35 -5c-19.333 0 -36 3.16699 -50 9.5s-27 16.166 -39 29.499c-10 11.333 -18 26.666 -24 45.999s-9 42.666 -9 69.999
c0 24 3.83301 46.167 11.5 66.5s19.167 37.166 34.5 50.499c13.333 11.333 28.166 20 44.499 26s38.166 9 65.499 9h53v82c0 49.333 -20.333 74 -61 74c-9.33301 0 -17 -1.5 -23 -4.5s-11.667 -7.16699 -17 -12.5c-7.33301 -7.33301 -12.333 -15.666 -15 -24.999
s-4 -21 -4 -35h-81c0 20 2.83301 39.5 8.5 58.5s16.167 36.167 31.5 51.5c11.333 11.333 25.833 20.5 43.5 27.5s36.5 10.5 56.5 10.5c43.333 0 77 -12 101 -36c12.667 -13.333 22.667 -29 30 -47s11 -40.333 11 -67v-376h-77zM241.001 240.003l-46 -0.000976562
c-12.667 0 -23.5 -1.33301 -32.5 -4s-17.5 -7.66699 -25.5 -15c-7.33301 -7.33301 -13.166 -17.5 -17.499 -30.5s-6.5 -26.5 -6.5 -40.5c0 -27.333 5.16699 -48.666 15.5 -63.999s26.166 -23 47.499 -23c19.333 0 35 7.5 47 22.5s18 34.5 18 58.5v96zM222.001 601.002v82h81
v-82h-81zM65.001 601.002v82h82v-82h-82z" />
    <glyph glyph-name="aring" unicode="&#xe5;" 
d="M245 0l0.000976562 46.0029c-4 -7.33301 -8.66699 -14 -14 -20s-10.666 -11 -15.999 -15c-8 -6 -16.667 -10.667 -26 -14s-21 -5 -35 -5c-19.333 0 -36 3.16699 -50 9.5s-27 16.166 -39 29.499c-10 11.333 -18 26.666 -24 45.999s-9 42.666 -9 69.999
c0 24 3.83301 46.167 11.5 66.5s19.167 37.166 34.5 50.499c13.333 11.333 28.166 20 44.499 26s38.166 9 65.499 9h53v82c0 49.333 -20.333 74 -61 74c-9.33301 0 -17 -1.5 -23 -4.5s-11.667 -7.16699 -17 -12.5c-7.33301 -7.33301 -12.333 -15.666 -15 -24.999
s-4 -21 -4 -35h-81c0 20 2.83301 39.5 8.5 58.5s16.167 36.167 31.5 51.5c11.333 11.333 25.833 20.5 43.5 27.5s36.5 10.5 56.5 10.5c43.333 0 77 -12 101 -36c12.667 -13.333 22.667 -29 30 -47s11 -40.333 11 -67v-376h-77zM241.001 240.003l-46 -0.000976562
c-12.667 0 -23.5 -1.33301 -32.5 -4s-17.5 -7.66699 -25.5 -15c-7.33301 -7.33301 -13.166 -17.5 -17.499 -30.5s-6.5 -26.5 -6.5 -40.5c0 -27.333 5.16699 -48.666 15.5 -63.999s26.166 -23 47.499 -23c19.333 0 35 7.5 47 22.5s18 34.5 18 58.5v96zM282.001 681.002
c0 -27.333 -9.5 -50.5 -28.5 -69.5s-42.167 -28.5 -69.5 -28.5c-13.333 0 -25.833 2.5 -37.5 7.5s-22 12 -31 21s-16 19.5 -21 31.5s-7.5 24.667 -7.5 38s2.5 26 7.5 38s12 22.5 21 31.5s19.333 16 31 21s24.167 7.5 37.5 7.5c27.333 0 50.5 -9.5 69.5 -28.5
s28.5 -42.167 28.5 -69.5zM234.001 681.002c0 13.333 -5 24.833 -15 34.5s-21.667 14.5 -35 14.5s-24.833 -4.83301 -34.5 -14.5s-14.5 -21.167 -14.5 -34.5s4.83301 -24.833 14.5 -34.5s21.167 -14.5 34.5 -14.5s25 4.83301 35 14.5s15 21.167 15 34.5z" />
    <glyph glyph-name="ae" unicode="&#xe6;" horiz-adv-x="573" 
d="M322 240c0 -41.333 1.1748 -74.3311 3.50781 -98.998s8.16602 -42.667 17.499 -54c5.33301 -6.66699 11.666 -12 18.999 -16s16.333 -6 27 -6c18.667 0 34 6.66699 46 20c6 6.66699 10.5 15.334 13.5 26.001s4.5 22 4.5 34h80
c-0.666992 -23.333 -4.16699 -44.5 -10.5 -63.5s-16.5 -36.167 -30.5 -51.5c-12.667 -13.333 -27.834 -23 -45.501 -29s-36.834 -9 -57.501 -9c-33.333 0 -62 9.33301 -86 28c-7.33301 5.33301 -14 12 -20 20s-11.333 16 -16 24c-5.33301 -10 -11.333 -19.333 -18 -28
s-13.667 -15.667 -21 -21c-9.33301 -7.33301 -19.833 -13 -31.5 -17s-25.834 -6 -42.501 -6c-19.333 0 -36 3.16699 -50 9.5s-27 16.166 -39 29.499c-22 24 -33 62.667 -33 116c0 50.667 15.333 89.667 46 117c13.333 11.333 28.166 20 44.499 26s38.166 9 65.499 9h53v82
c0 24 -5.16699 42.333 -15.5 55s-25.166 19 -44.499 19c-17.333 0 -31.333 -6 -42 -18c-12 -12.667 -18 -32.334 -18 -59.001h-81c0 20 3 39.667 9 59s16.333 36.333 31 51c11.333 11.333 25.833 20.5 43.5 27.5s36.5 10.5 56.5 10.5c36 0 64.667 -8.66699 86 -26
c3.33301 -2.66699 6.5 -6 9.5 -10s6.16699 -8 9.5 -12c2 3.33301 4.33301 6.33301 7 9l8 8c24 20.667 53.333 31 88 31c21.333 0 40.166 -3 56.499 -9s31.5 -16.333 45.5 -31c19.333 -20.667 31.666 -50.834 36.999 -90.501s8 -91.5 8 -155.5h-213zM241.008 240.002h-46
c-12 0 -22.5 -1.33301 -31.5 -4s-17.833 -7.66699 -26.5 -15c-7.33301 -7.33301 -13.166 -17.5 -17.499 -30.5s-6.5 -26.5 -6.5 -40.5c0 -27.333 5.16699 -48.666 15.5 -63.999s26.166 -23 47.499 -23c19.333 0 35 7.66699 47 23s18 34.666 18 57.999v96zM453.008 301.002
c0 38 -1.33301 67 -4 87s-8 34.667 -16 44c-5.33301 6.66699 -11.5 11.834 -18.5 15.501s-16.167 5.5 -27.5 5.5s-20.333 -1.83301 -27 -5.5s-12.667 -8.83398 -18 -15.501c-8 -9.33301 -13.333 -24 -16 -44s-4 -49 -4 -87h131z" />
    <glyph glyph-name="ccedilla" unicode="&#xe7;" horiz-adv-x="362" 
d="M330 145c-1.33301 -24.667 -5.16602 -46.834 -11.499 -66.501s-16.166 -36.5 -29.499 -50.5c-12.667 -12.667 -27.5 -21.834 -44.5 -27.501s-36.167 -8.5 -57.5 -8.5c-22 0 -42.333 3.66699 -61 11s-34.667 19.666 -48 36.999c-16 20.667 -26.333 49.334 -31 86.001
s-7 81 -7 133c0 52.667 2.33301 97.167 7 133.5s15 64.833 31 85.5c13.333 17.333 29.333 29.666 48 36.999s39 11 61 11c21.333 0 40.166 -2.5 56.499 -7.5s31.166 -14.167 44.499 -27.5c16 -15.333 26.667 -33.166 32 -53.499s8.66602 -41.5 9.99902 -63.5h-81
c0 10.667 -0.833008 21.167 -2.5 31.5s-6.16699 19.833 -13.5 28.5c-10.667 12.667 -25.667 19 -45 19c-20 0 -35.333 -7.33301 -46 -22c-9.33301 -12.667 -15 -32.667 -17 -60s-3 -64.666 -3 -111.999c0 -46.667 1 -83.667 3 -111s7.66699 -47.666 17 -60.999
c10.667 -14.667 26 -22 46 -22c18.667 0 33.334 6.33301 44.001 19c7.33301 8 12 17.167 14 27.5s3 21.5 3 33.5h81zM176 -182h-64l57 144h57z" />
    <glyph glyph-name="egrave" unicode="&#xe8;" horiz-adv-x="372" 
d="M122 240c0 -41.333 1.16797 -74.332 3.50098 -98.999s8.16602 -42.667 17.499 -54c4.66699 -6.66699 10.834 -12 18.501 -16s16.834 -6 27.501 -6c9.33301 0 17.666 1.5 24.999 4.5s14.333 8.16699 21 15.5s11.167 16 13.5 26s3.5 21.333 3.5 34h81
c-0.666992 -24 -4.16699 -45.333 -10.5 -64s-16.833 -35.667 -31.5 -51c-24.667 -25.333 -58.667 -38 -102 -38c-22 0 -41.333 3 -58 9s-31.667 16.333 -45 31c-19.333 20.667 -31.833 50.167 -37.5 88.5s-8.5 84.5 -8.5 138.5c0 54.667 2.66699 101 8 139
s17.666 67.333 36.999 88c13.333 14.667 28.333 25 45 31s35.667 9 57 9s40.333 -3 57 -9s31.667 -16.333 45 -31c19.333 -20.667 31.833 -50.834 37.5 -90.501s8.5 -91.5 8.5 -155.5h-213zM253.001 301.001c0 38 -1.33301 67 -4 87s-8 34.667 -16 44
c-5.33301 6.66699 -11.5 11.834 -18.5 15.501s-16.167 5.5 -27.5 5.5s-20.333 -1.83301 -27 -5.5s-12.667 -8.83398 -18 -15.501c-8 -9.33301 -13.333 -24 -16 -44s-4 -49 -4 -87h131zM164.001 586.001l-81 135h74l69 -135h-62z" />
    <glyph glyph-name="eacute" unicode="&#xe9;" horiz-adv-x="372" 
d="M122 240c0 -41.333 1.16797 -74.332 3.50098 -98.999s8.16602 -42.667 17.499 -54c4.66699 -6.66699 10.834 -12 18.501 -16s16.834 -6 27.501 -6c9.33301 0 17.666 1.5 24.999 4.5s14.333 8.16699 21 15.5s11.167 16 13.5 26s3.5 21.333 3.5 34h81
c-0.666992 -24 -4.16699 -45.333 -10.5 -64s-16.833 -35.667 -31.5 -51c-24.667 -25.333 -58.667 -38 -102 -38c-22 0 -41.333 3 -58 9s-31.667 16.333 -45 31c-19.333 20.667 -31.833 50.167 -37.5 88.5s-8.5 84.5 -8.5 138.5c0 54.667 2.66699 101 8 139
s17.666 67.333 36.999 88c13.333 14.667 28.333 25 45 31s35.667 9 57 9s40.333 -3 57 -9s31.667 -16.333 45 -31c19.333 -20.667 31.833 -50.834 37.5 -90.501s8.5 -91.5 8.5 -155.5h-213zM253.001 301.001c0 38 -1.33301 67 -4 87s-8 34.667 -16 44
c-5.33301 6.66699 -11.5 11.834 -18.5 15.501s-16.167 5.5 -27.5 5.5s-20.333 -1.83301 -27 -5.5s-12.667 -8.83398 -18 -15.501c-8 -9.33301 -13.333 -24 -16 -44s-4 -49 -4 -87h131zM213.001 586.001h-61l68 135h74z" />
    <glyph glyph-name="ecircumflex" unicode="&#xea;" horiz-adv-x="372" 
d="M122 240c0 -41.333 1.16797 -74.332 3.50098 -98.999s8.16602 -42.667 17.499 -54c4.66699 -6.66699 10.834 -12 18.501 -16s16.834 -6 27.501 -6c9.33301 0 17.666 1.5 24.999 4.5s14.333 8.16699 21 15.5s11.167 16 13.5 26s3.5 21.333 3.5 34h81
c-0.666992 -24 -4.16699 -45.333 -10.5 -64s-16.833 -35.667 -31.5 -51c-24.667 -25.333 -58.667 -38 -102 -38c-22 0 -41.333 3 -58 9s-31.667 16.333 -45 31c-19.333 20.667 -31.833 50.167 -37.5 88.5s-8.5 84.5 -8.5 138.5c0 54.667 2.66699 101 8 139
s17.666 67.333 36.999 88c13.333 14.667 28.333 25 45 31s35.667 9 57 9s40.333 -3 57 -9s31.667 -16.333 45 -31c19.333 -20.667 31.833 -50.834 37.5 -90.501s8.5 -91.5 8.5 -155.5h-213zM253.001 301.001c0 38 -1.33301 67 -4 87s-8 34.667 -16 44
c-5.33301 6.66699 -11.5 11.834 -18.5 15.501s-16.167 5.5 -27.5 5.5s-20.333 -1.83301 -27 -5.5s-12.667 -8.83398 -18 -15.501c-8 -9.33301 -13.333 -24 -16 -44s-4 -49 -4 -87h131zM247.001 586.001l-60 87l-59 -87h-67l93 135h67l93 -135h-67z" />
    <glyph glyph-name="edieresis" unicode="&#xeb;" horiz-adv-x="372" 
d="M122 240c0 -41.333 1.16797 -74.332 3.50098 -98.999s8.16602 -42.667 17.499 -54c4.66699 -6.66699 10.834 -12 18.501 -16s16.834 -6 27.501 -6c9.33301 0 17.666 1.5 24.999 4.5s14.333 8.16699 21 15.5s11.167 16 13.5 26s3.5 21.333 3.5 34h81
c-0.666992 -24 -4.16699 -45.333 -10.5 -64s-16.833 -35.667 -31.5 -51c-24.667 -25.333 -58.667 -38 -102 -38c-22 0 -41.333 3 -58 9s-31.667 16.333 -45 31c-19.333 20.667 -31.833 50.167 -37.5 88.5s-8.5 84.5 -8.5 138.5c0 54.667 2.66699 101 8 139
s17.666 67.333 36.999 88c13.333 14.667 28.333 25 45 31s35.667 9 57 9s40.333 -3 57 -9s31.667 -16.333 45 -31c19.333 -20.667 31.833 -50.834 37.5 -90.501s8.5 -91.5 8.5 -155.5h-213zM253.001 301.001c0 38 -1.33301 67 -4 87s-8 34.667 -16 44
c-5.33301 6.66699 -11.5 11.834 -18.5 15.501s-16.167 5.5 -27.5 5.5s-20.333 -1.83301 -27 -5.5s-12.667 -8.83398 -18 -15.501c-8 -9.33301 -13.333 -24 -16 -44s-4 -49 -4 -87h131zM225.001 601.001v82h81v-82h-81zM68.001 601.001v82h82v-82h-82z" />
    <glyph glyph-name="igrave" unicode="&#xec;" horiz-adv-x="195" 
d="M57 0v518h81v-518h-81zM74 586l-81 135h74l69 -135h-62z" />
    <glyph glyph-name="iacute" unicode="&#xed;" horiz-adv-x="195" 
d="M57 0v518h81v-518h-81zM125 586h-61l68 135h74z" />
    <glyph glyph-name="icircumflex" unicode="&#xee;" horiz-adv-x="195" 
d="M57 0v518h81v-518h-81zM159 586l-60 87l-59 -87h-67l93 135h67l93 -135h-67z" />
    <glyph glyph-name="idieresis" unicode="&#xef;" horiz-adv-x="195" 
d="M57 0v518h81v-518h-81zM138 601v82h81v-82h-81zM-19 601v82h82v-82h-82z" />
    <glyph glyph-name="eth" unicode="&#xf0;" horiz-adv-x="378" 
d="M335 246c0 -50.667 -2.33301 -93.335 -7 -128.002s-15 -61.667 -31 -81c-13.333 -16 -29 -27.5 -47 -34.5s-38.667 -10.5 -62 -10.5s-43.833 3.5 -61.5 10.5s-33.167 18.5 -46.5 34.5c-16 19.333 -26.5 46.333 -31.5 81s-7.5 77.334 -7.5 128.001
c0 58 2.16699 104 6.5 138s14.833 60.333 31.5 79c21.333 24.667 51 37 89 37c9.33301 0 19.333 -1.33301 30 -4s20 -6.66699 28 -12l-31 91h-78v61h58l-27 76h82l27 -76h71v-61h-52l35 -108c4 -13.333 7.5 -27.166 10.5 -41.499s5.5 -30 7.5 -47s3.5 -36.333 4.5 -58
s1.5 -46.5 1.5 -74.5zM254 246.999c0 44.667 -1 79.834 -3 105.501s-7.66699 44.5 -17 56.5c-10.667 14 -26 21 -46 21c-19.333 0 -34.333 -7 -45 -21c-9.33301 -12 -15.166 -30.833 -17.499 -56.5s-3.5 -60.834 -3.5 -105.501s1.16699 -79.667 3.5 -105
s8.16602 -44 17.499 -56c10.667 -14 25.667 -21 45 -21c20 0 35.333 7 46 21c9.33301 12 15 30.667 17 56s3 60.333 3 105z" />
    <glyph glyph-name="ntilde" unicode="&#xf1;" horiz-adv-x="395" 
d="M261 0l0.00195312 381c0 23.333 -6 41 -18 53s-26.667 18 -44 18s-31.833 -6 -43.5 -18s-17.5 -29.667 -17.5 -53v-381h-81v518h78v-40c3.33301 6 8.16602 12 14.499 18s12.166 10.667 17.499 14c17.333 10.667 36 16 56 16c19.333 0 36 -3.16699 50 -9.5
s26.667 -15.833 38 -28.5c10.667 -11.333 18.5 -25 23.5 -41s7.5 -38 7.5 -66v-381h-81zM334.002 638c-17.333 -16.667 -32.002 -27.834 -44.002 -33.501s-24 -8.5 -36 -8.5c-11.333 0 -21.333 1.5 -30 4.5s-18 7.16699 -28 12.5
c-7.33301 4.66699 -14.333 8.33398 -21 11.001s-14 4 -22 4c-6.66699 0 -13 -1 -19 -3s-14.667 -8.66699 -26 -20l-36 38c16.667 16.667 30.834 27.834 42.501 33.501s23.834 8.5 36.501 8.5c11.333 0 21.333 -1.33301 30 -4s18 -7 28 -13
c7.33301 -4.66699 14.333 -8.33398 21 -11.001s14 -4 22 -4c6 0 12.167 1.16699 18.5 3.5s14.833 8.83301 25.5 19.5l38 -38v0z" />
    <glyph glyph-name="ograve" unicode="&#xf2;" horiz-adv-x="376" 
d="M335 259c0 -52.667 -2.16699 -97.167 -6.5 -133.5s-14.5 -64.833 -30.5 -85.5c-13.333 -17.333 -29.166 -29.666 -47.499 -36.999s-39.166 -11 -62.499 -11s-44 3.66699 -62 11s-33.667 19.666 -47 36.999c-16 20.667 -26.333 49.167 -31 85.5s-7 80.833 -7 133.5
s2.33301 97.167 7 133.5s15 64.833 31 85.5c13.333 17.333 29 29.666 47 36.999s38.667 11 62 11s44.166 -3.66699 62.499 -11s34.166 -19.666 47.499 -36.999c16 -20.667 26.167 -49.167 30.5 -85.5s6.5 -80.833 6.5 -133.5zM254 259c0 46.667 -1 83.667 -3 111
s-7.66699 47.666 -17 60.999c-10.667 14.667 -26 22 -46 22c-19.333 0 -34.333 -7.33301 -45 -22c-9.33301 -13.333 -15.166 -33.666 -17.499 -60.999s-3.5 -64.333 -3.5 -111s1.16699 -83.667 3.5 -111s8.16602 -47.666 17.499 -60.999c10.667 -14.667 25.667 -22 45 -22
c20 0 35.333 7.33301 46 22c9.33301 13.333 15 33.666 17 60.999s3 64.333 3 111zM165 586l-81 135h74l69 -135h-62z" />
    <glyph glyph-name="oacute" unicode="&#xf3;" horiz-adv-x="376" 
d="M335 259c0 -52.667 -2.16699 -97.167 -6.5 -133.5s-14.5 -64.833 -30.5 -85.5c-13.333 -17.333 -29.166 -29.666 -47.499 -36.999s-39.166 -11 -62.499 -11s-44 3.66699 -62 11s-33.667 19.666 -47 36.999c-16 20.667 -26.333 49.167 -31 85.5s-7 80.833 -7 133.5
s2.33301 97.167 7 133.5s15 64.833 31 85.5c13.333 17.333 29 29.666 47 36.999s38.667 11 62 11s44.166 -3.66699 62.499 -11s34.166 -19.666 47.499 -36.999c16 -20.667 26.167 -49.167 30.5 -85.5s6.5 -80.833 6.5 -133.5zM254 259c0 46.667 -1 83.667 -3 111
s-7.66699 47.666 -17 60.999c-10.667 14.667 -26 22 -46 22c-19.333 0 -34.333 -7.33301 -45 -22c-9.33301 -13.333 -15.166 -33.666 -17.499 -60.999s-3.5 -64.333 -3.5 -111s1.16699 -83.667 3.5 -111s8.16602 -47.666 17.499 -60.999c10.667 -14.667 25.667 -22 45 -22
c20 0 35.333 7.33301 46 22c9.33301 13.333 15 33.666 17 60.999s3 64.333 3 111zM214 586h-61l68 135h74z" />
    <glyph glyph-name="ocircumflex" unicode="&#xf4;" horiz-adv-x="376" 
d="M335 259c0 -52.667 -2.16699 -97.167 -6.5 -133.5s-14.5 -64.833 -30.5 -85.5c-13.333 -17.333 -29.166 -29.666 -47.499 -36.999s-39.166 -11 -62.499 -11s-44 3.66699 -62 11s-33.667 19.666 -47 36.999c-16 20.667 -26.333 49.167 -31 85.5s-7 80.833 -7 133.5
s2.33301 97.167 7 133.5s15 64.833 31 85.5c13.333 17.333 29 29.666 47 36.999s38.667 11 62 11s44.166 -3.66699 62.499 -11s34.166 -19.666 47.499 -36.999c16 -20.667 26.167 -49.167 30.5 -85.5s6.5 -80.833 6.5 -133.5zM254 259c0 46.667 -1 83.667 -3 111
s-7.66699 47.666 -17 60.999c-10.667 14.667 -26 22 -46 22c-19.333 0 -34.333 -7.33301 -45 -22c-9.33301 -13.333 -15.166 -33.666 -17.499 -60.999s-3.5 -64.333 -3.5 -111s1.16699 -83.667 3.5 -111s8.16602 -47.666 17.499 -60.999c10.667 -14.667 25.667 -22 45 -22
c20 0 35.333 7.33301 46 22c9.33301 13.333 15 33.666 17 60.999s3 64.333 3 111zM248 586l-60 87l-59 -87h-67l93 135h67l93 -135h-67z" />
    <glyph glyph-name="otilde" unicode="&#xf5;" horiz-adv-x="376" 
d="M335 259c0 -52.667 -2.16699 -97.167 -6.5 -133.5s-14.5 -64.833 -30.5 -85.5c-13.333 -17.333 -29.166 -29.666 -47.499 -36.999s-39.166 -11 -62.499 -11s-44 3.66699 -62 11s-33.667 19.666 -47 36.999c-16 20.667 -26.333 49.167 -31 85.5s-7 80.833 -7 133.5
s2.33301 97.167 7 133.5s15 64.833 31 85.5c13.333 17.333 29 29.666 47 36.999s38.667 11 62 11s44.166 -3.66699 62.499 -11s34.166 -19.666 47.499 -36.999c16 -20.667 26.167 -49.167 30.5 -85.5s6.5 -80.833 6.5 -133.5zM254 259c0 46.667 -1 83.667 -3 111
s-7.66699 47.666 -17 60.999c-10.667 14.667 -26 22 -46 22c-19.333 0 -34.333 -7.33301 -45 -22c-9.33301 -13.333 -15.166 -33.666 -17.499 -60.999s-3.5 -64.333 -3.5 -111s1.16699 -83.667 3.5 -111s8.16602 -47.666 17.499 -60.999c10.667 -14.667 25.667 -22 45 -22
c20 0 35.333 7.33301 46 22c9.33301 13.333 15 33.666 17 60.999s3 64.333 3 111zM322 638c-17.333 -16.667 -32.002 -27.834 -44.002 -33.501s-24 -8.5 -36 -8.5c-11.333 0 -21.333 1.5 -30 4.5s-18 7.16699 -28 12.5c-7.33301 4.66699 -14.333 8.33398 -21 11.001
s-14 4 -22 4c-6.66699 0 -13 -1 -19 -3s-14.667 -8.66699 -26 -20l-36 38c16.667 16.667 30.834 27.834 42.501 33.501s23.834 8.5 36.501 8.5c11.333 0 21.333 -1.33301 30 -4s18 -7 28 -13c7.33301 -4.66699 14.333 -8.33398 21 -11.001s14 -4 22 -4
c6 0 12.167 1.16699 18.5 3.5s14.833 8.83301 25.5 19.5l38 -38v0z" />
    <glyph glyph-name="odieresis" unicode="&#xf6;" horiz-adv-x="376" 
d="M335 259c0 -52.667 -2.16699 -97.167 -6.5 -133.5s-14.5 -64.833 -30.5 -85.5c-13.333 -17.333 -29.166 -29.666 -47.499 -36.999s-39.166 -11 -62.499 -11s-44 3.66699 -62 11s-33.667 19.666 -47 36.999c-16 20.667 -26.333 49.167 -31 85.5s-7 80.833 -7 133.5
s2.33301 97.167 7 133.5s15 64.833 31 85.5c13.333 17.333 29 29.666 47 36.999s38.667 11 62 11s44.166 -3.66699 62.499 -11s34.166 -19.666 47.499 -36.999c16 -20.667 26.167 -49.167 30.5 -85.5s6.5 -80.833 6.5 -133.5zM254 259c0 46.667 -1 83.667 -3 111
s-7.66699 47.666 -17 60.999c-10.667 14.667 -26 22 -46 22c-19.333 0 -34.333 -7.33301 -45 -22c-9.33301 -13.333 -15.166 -33.666 -17.499 -60.999s-3.5 -64.333 -3.5 -111s1.16699 -83.667 3.5 -111s8.16602 -47.666 17.499 -60.999c10.667 -14.667 25.667 -22 45 -22
c20 0 35.333 7.33301 46 22c9.33301 13.333 15 33.666 17 60.999s3 64.333 3 111zM226 601v82h81v-82h-81zM69 601v82h82v-82h-82z" />
    <glyph glyph-name="divide" unicode="&#xf7;" horiz-adv-x="444" 
d="M46 238v78h352v-78h-352zM173 394v99h100v-99h-100zM173 60v100h100v-100h-100z" />
    <glyph glyph-name="oslash" unicode="&#xf8;" horiz-adv-x="370" 
d="M302 471c14 -21.333 22.8311 -50 26.498 -86s5.5 -78 5.5 -126c0 -52.667 -2.16699 -97.167 -6.5 -133.5s-14.5 -64.833 -30.5 -85.5c-13.333 -17.333 -29.166 -29.666 -47.499 -36.999s-39.166 -11 -62.499 -11c-28 0 -52.333 5.66699 -73 17l-20 -53h-58l36 91
c-13.333 21.333 -22 50 -26 86s-6 78 -6 126c0 52.667 2.33301 97.167 7 133.5s15 64.833 31 85.5c13.333 17.333 29 29.666 47 36.999s38.667 11 62 11c28 0 52.333 -5.66699 73 -17l21 53h58zM253.998 259c0 22 -0.331055 41.5 -0.998047 58.5
s-2.33398 30.167 -5.00098 39.5l-103 -277c10.667 -12 24.667 -18 42 -18c20 0 35.333 7.33301 46 22c9.33301 13.333 15.166 33.833 17.499 61.5s3.5 65.5 3.5 113.5zM230 438c-10.667 12 -25.001 18 -43.001 18c-19.333 0 -34.333 -7.33301 -45 -22
c-9.33301 -13.333 -15.166 -33.833 -17.499 -61.5s-3.5 -65.5 -3.5 -113.5c0 -22 0.166992 -41.5 0.5 -58.5s1.83301 -30.167 4.5 -39.5z" />
    <glyph glyph-name="ugrave" unicode="&#xf9;" horiz-adv-x="395" 
d="M260 0l-0.00195312 40c-3.33301 -6 -8.16602 -12 -14.499 -18s-12.166 -10.667 -17.499 -14c-17.333 -10.667 -36 -16 -56 -16c-19.333 0 -36 3.16699 -50 9.5s-26.667 15.833 -38 28.5c-10.667 11.333 -18.5 25 -23.5 41s-7.5 38 -7.5 66v381h81v-381
c0 -24 6 -42 18 -54s26.667 -18 44 -18s31.833 6 43.5 18s17.5 30 17.5 54v381h81v-518h-78zM171.998 586l-81 135h74l69 -135h-62z" />
    <glyph glyph-name="uacute" unicode="&#xfa;" horiz-adv-x="395" 
d="M260 0l-0.00195312 40c-3.33301 -6 -8.16602 -12 -14.499 -18s-12.166 -10.667 -17.499 -14c-17.333 -10.667 -36 -16 -56 -16c-19.333 0 -36 3.16699 -50 9.5s-26.667 15.833 -38 28.5c-10.667 11.333 -18.5 25 -23.5 41s-7.5 38 -7.5 66v381h81v-381
c0 -24 6 -42 18 -54s26.667 -18 44 -18s31.833 6 43.5 18s17.5 30 17.5 54v381h81v-518h-78zM220.998 586h-61l68 135h74z" />
    <glyph glyph-name="ucircumflex" unicode="&#xfb;" horiz-adv-x="395" 
d="M260 0l-0.00195312 40c-3.33301 -6 -8.16602 -12 -14.499 -18s-12.166 -10.667 -17.499 -14c-17.333 -10.667 -36 -16 -56 -16c-19.333 0 -36 3.16699 -50 9.5s-26.667 15.833 -38 28.5c-10.667 11.333 -18.5 25 -23.5 41s-7.5 38 -7.5 66v381h81v-381
c0 -24 6 -42 18 -54s26.667 -18 44 -18s31.833 6 43.5 18s17.5 30 17.5 54v381h81v-518h-78zM254.998 586l-60 87l-59 -87h-67l93 135h67l93 -135h-67z" />
    <glyph glyph-name="udieresis" unicode="&#xfc;" horiz-adv-x="395" 
d="M260 0l-0.00195312 40c-3.33301 -6 -8.16602 -12 -14.499 -18s-12.166 -10.667 -17.499 -14c-17.333 -10.667 -36 -16 -56 -16c-19.333 0 -36 3.16699 -50 9.5s-26.667 15.833 -38 28.5c-10.667 11.333 -18.5 25 -23.5 41s-7.5 38 -7.5 66v381h81v-381
c0 -24 6 -42 18 -54s26.667 -18 44 -18s31.833 6 43.5 18s17.5 30 17.5 54v381h81v-518h-78zM232.998 601v82h81v-82h-81zM75.998 601v82h82v-82h-82z" />
    <glyph glyph-name="yacute" unicode="&#xfd;" horiz-adv-x="345" 
d="M193 -83c-5.33301 -23.333 -13.3301 -42.166 -23.9971 -56.499s-23.334 -25.5 -38.001 -33.5s-31.334 -13.5 -50.001 -16.5s-38.667 -4.5 -60 -4.5v72c25.333 0 45.666 4.16699 60.999 12.5s26 24.166 32 47.499l16 63l-126 517h89l79 -389l78 389h89zM202.003 586h-61
l68 135h74z" />
    <glyph glyph-name="thorn" unicode="&#xfe;" horiz-adv-x="389" 
d="M139 482c8.66699 12 18.334 21.665 29.001 28.998c16 10 34.667 15 56 15c17.333 0 33.166 -3 47.499 -9s27.166 -15.667 38.499 -29c16.667 -19.333 27.167 -47.333 31.5 -84s6.5 -85 6.5 -145s-2.16699 -108.167 -6.5 -144.5s-14.833 -64.166 -31.5 -83.499
c-11.333 -13.333 -23.666 -23.166 -36.999 -29.499s-29.666 -9.5 -48.999 -9.5c-21.333 0 -40 5 -56 15c-10.667 7.33301 -20.334 17 -29.001 29v-230h-81v906h81v-230zM266 258.998c0 26.667 -0.333008 49.665 -1 68.998s-1.66699 35.833 -3 49.5
s-3.33301 24.834 -6 33.501s-6.33398 15.667 -11.001 21c-10.667 14 -25.334 21 -44.001 21c-17.333 0 -31.333 -5.33301 -42 -16c-6.66699 -6.66699 -11.667 -14.667 -15 -24s-5 -21 -5 -35v-237c0 -26.667 6.66699 -46.667 20 -60c10.667 -10.667 24.667 -16 42 -16
c18.667 0 33.334 7 44.001 21c8.66699 10.667 14.334 28.834 17.001 54.501s4 65.167 4 118.5z" />
    <glyph glyph-name="ydieresis" unicode="&#xff;" horiz-adv-x="345" 
d="M193 -83c-5.33301 -23.333 -13.3301 -42.166 -23.9971 -56.499s-23.334 -25.5 -38.001 -33.5s-31.334 -13.5 -50.001 -16.5s-38.667 -4.5 -60 -4.5v72c25.333 0 45.666 4.16699 60.999 12.5s26 24.166 32 47.499l16 63l-126 517h89l79 -389l78 389h89zM214.003 601v82h81
v-82h-81zM57.0029 601v82h82v-82h-82z" />
    <glyph glyph-name="Amacron" unicode="&#x100;" horiz-adv-x="424" 
d="M328 0l-34 168h-165l-34 -168h-90l166 712h83l165 -712h-91zM212 573l-67 -328h133zM100 780v58h228v-58h-228z" />
    <glyph glyph-name="amacron" unicode="&#x101;" 
d="M245 0l0.000976562 46.0029c-4 -7.33301 -8.66699 -14 -14 -20s-10.666 -11 -15.999 -15c-8 -6 -16.667 -10.667 -26 -14s-21 -5 -35 -5c-19.333 0 -36 3.16699 -50 9.5s-27 16.166 -39 29.499c-10 11.333 -18 26.666 -24 45.999s-9 42.666 -9 69.999
c0 24 3.83301 46.167 11.5 66.5s19.167 37.166 34.5 50.499c13.333 11.333 28.166 20 44.499 26s38.166 9 65.499 9h53v82c0 49.333 -20.333 74 -61 74c-9.33301 0 -17 -1.5 -23 -4.5s-11.667 -7.16699 -17 -12.5c-7.33301 -7.33301 -12.333 -15.666 -15 -24.999
s-4 -21 -4 -35h-81c0 20 2.83301 39.5 8.5 58.5s16.167 36.167 31.5 51.5c11.333 11.333 25.833 20.5 43.5 27.5s36.5 10.5 56.5 10.5c43.333 0 77 -12 101 -36c12.667 -13.333 22.667 -29 30 -47s11 -40.333 11 -67v-376h-77zM241.001 240.003l-46 -0.000976562
c-12.667 0 -23.5 -1.33301 -32.5 -4s-17.5 -7.66699 -25.5 -15c-7.33301 -7.33301 -13.166 -17.5 -17.499 -30.5s-6.5 -26.5 -6.5 -40.5c0 -27.333 5.16699 -48.666 15.5 -63.999s26.166 -23 47.499 -23c19.333 0 35 7.5 47 22.5s18 34.5 18 58.5v96zM70.001 608.002v57h229
v-57h-229z" />
    <glyph glyph-name="Abreve" unicode="&#x102;" horiz-adv-x="424" 
d="M328 0l-34 168h-165l-34 -168h-90l166 712h83l165 -712h-91zM212 573l-67 -328h133zM332 866c-2.66699 -39.333 -14.6689 -67.666 -36.002 -84.999s-48.666 -26 -81.999 -26s-60.666 8.66699 -81.999 26s-33.333 45.666 -36 84.999h59c2 -18 8.33301 -31.167 19 -39.5
s24 -12.5 40 -12.5s29.333 4.16699 40 12.5s17 21.5 19 39.5h59v0z" />
    <glyph glyph-name="abreve" unicode="&#x103;" 
d="M245 0l0.000976562 46.0029c-4 -7.33301 -8.66699 -14 -14 -20s-10.666 -11 -15.999 -15c-8 -6 -16.667 -10.667 -26 -14s-21 -5 -35 -5c-19.333 0 -36 3.16699 -50 9.5s-27 16.166 -39 29.499c-10 11.333 -18 26.666 -24 45.999s-9 42.666 -9 69.999
c0 24 3.83301 46.167 11.5 66.5s19.167 37.166 34.5 50.499c13.333 11.333 28.166 20 44.499 26s38.166 9 65.499 9h53v82c0 49.333 -20.333 74 -61 74c-9.33301 0 -17 -1.5 -23 -4.5s-11.667 -7.16699 -17 -12.5c-7.33301 -7.33301 -12.333 -15.666 -15 -24.999
s-4 -21 -4 -35h-81c0 20 2.83301 39.5 8.5 58.5s16.167 36.167 31.5 51.5c11.333 11.333 25.833 20.5 43.5 27.5s36.5 10.5 56.5 10.5c43.333 0 77 -12 101 -36c12.667 -13.333 22.667 -29 30 -47s11 -40.333 11 -67v-376h-77zM241.001 240.003l-46 -0.000976562
c-12.667 0 -23.5 -1.33301 -32.5 -4s-17.5 -7.66699 -25.5 -15c-7.33301 -7.33301 -13.166 -17.5 -17.499 -30.5s-6.5 -26.5 -6.5 -40.5c0 -27.333 5.16699 -48.666 15.5 -63.999s26.166 -23 47.499 -23c19.333 0 35 7.5 47 22.5s18 34.5 18 58.5v96zM302.001 694.002
c-2.66699 -40 -14.5 -68.667 -35.5 -86s-48.5 -26 -82.5 -26c-33.333 0 -60.5 8.66699 -81.5 26s-32.833 46 -35.5 86h58c2.66699 -18.667 9.16699 -32.167 19.5 -40.5s23.5 -12.5 39.5 -12.5c16.667 0 30.167 4.16699 40.5 12.5s16.833 21.833 19.5 40.5h58v0z" />
    <glyph glyph-name="Aogonek" unicode="&#x104;" horiz-adv-x="424" 
d="M328 0l-34 168h-165l-34 -168h-90l166 712h83l165 -712h-91zM212 573l-67 -328h133zM357 -182h-64l57 144h57z" />
    <glyph glyph-name="aogonek" unicode="&#x105;" 
d="M245 0l0.000976562 46.0029c-4 -7.33301 -8.66699 -14 -14 -20s-10.666 -11 -15.999 -15c-8 -6 -16.667 -10.667 -26 -14s-21 -5 -35 -5c-19.333 0 -36 3.16699 -50 9.5s-27 16.166 -39 29.499c-10 11.333 -18 26.666 -24 45.999s-9 42.666 -9 69.999
c0 24 3.83301 46.167 11.5 66.5s19.167 37.166 34.5 50.499c13.333 11.333 28.166 20 44.499 26s38.166 9 65.499 9h53v82c0 49.333 -20.333 74 -61 74c-9.33301 0 -17 -1.5 -23 -4.5s-11.667 -7.16699 -17 -12.5c-7.33301 -7.33301 -12.333 -15.666 -15 -24.999
s-4 -21 -4 -35h-81c0 20 2.83301 39.5 8.5 58.5s16.167 36.167 31.5 51.5c11.333 11.333 25.833 20.5 43.5 27.5s36.5 10.5 56.5 10.5c43.333 0 77 -12 101 -36c12.667 -13.333 22.667 -29 30 -47s11 -40.333 11 -67v-376h-77zM241.001 240.003l-46 -0.000976562
c-12.667 0 -23.5 -1.33301 -32.5 -4s-17.5 -7.66699 -25.5 -15c-7.33301 -7.33301 -13.166 -17.5 -17.499 -30.5s-6.5 -26.5 -6.5 -40.5c0 -27.333 5.16699 -48.666 15.5 -63.999s26.166 -23 47.499 -23c19.333 0 35 7.5 47 22.5s18 34.5 18 58.5v96zM262.001 -181.998h-64
l57 144h57z" />
    <glyph glyph-name="Cacute" unicode="&#x106;" horiz-adv-x="423" 
d="M385 176c-0.666992 -30 -5.5 -57.667 -14.5 -83s-22.167 -46 -39.5 -62c-14 -12.667 -30 -22.334 -48 -29.001s-38.667 -10 -62 -10c-28 0 -52 4.83301 -72 14.5s-36.667 22.167 -50 37.5c-12 13.333 -21.333 27.833 -28 43.5s-11.834 35.167 -15.501 58.5
s-6 51.833 -7 85.5s-1.5 75.167 -1.5 124.5s0.5 90.833 1.5 124.5s3.33301 62.167 7 85.5s8.83398 42.833 15.501 58.5s16 30.167 28 43.5c13.333 15.333 30 27.833 50 37.5s44 14.5 72 14.5c25.333 0 47 -3.66699 65 -11s34 -17.666 48 -30.999
c16.667 -16 29.167 -36.167 37.5 -60.5s12.833 -51.166 13.5 -80.499h-85c-0.666992 15.333 -2.5 30 -5.5 44s-8.83301 26.333 -17.5 37c-5.33301 7.33301 -12.666 13.333 -21.999 18s-20.666 7 -33.999 7c-14 0 -25.833 -2.5 -35.5 -7.5s-17.5 -11.5 -23.5 -19.5
c-6 -8.66699 -11 -19.167 -15 -31.5s-7 -28.333 -9 -48s-3.33301 -44.167 -4 -73.5s-1 -65 -1 -107s0.333008 -77.667 1 -107s2 -53.833 4 -73.5s5 -35.667 9 -48s9 -22.833 15 -31.5c6 -8 13.833 -14.5 23.5 -19.5s21.5 -7.5 35.5 -7.5c13.333 0 24.666 2.33301 33.999 7
s16.666 10.667 21.999 18c8 10.667 13.667 23.167 17 37.5s5.33301 29.166 6 44.499h85zM246 762h-62l69 135h74z" />
    <glyph glyph-name="cacute" unicode="&#x107;" horiz-adv-x="362" 
d="M330 145c-1.33301 -24.667 -5.16602 -46.834 -11.499 -66.501s-16.166 -36.5 -29.499 -50.5c-12.667 -12.667 -27.5 -21.834 -44.5 -27.501s-36.167 -8.5 -57.5 -8.5c-22 0 -42.333 3.66699 -61 11s-34.667 19.666 -48 36.999c-16 20.667 -26.333 49.334 -31 86.001
s-7 81 -7 133c0 52.667 2.33301 97.167 7 133.5s15 64.833 31 85.5c13.333 17.333 29.333 29.666 48 36.999s39 11 61 11c21.333 0 40.166 -2.5 56.499 -7.5s31.166 -14.167 44.499 -27.5c16 -15.333 26.667 -33.166 32 -53.499s8.66602 -41.5 9.99902 -63.5h-81
c0 10.667 -0.833008 21.167 -2.5 31.5s-6.16699 19.833 -13.5 28.5c-10.667 12.667 -25.667 19 -45 19c-20 0 -35.333 -7.33301 -46 -22c-9.33301 -12.667 -15 -32.667 -17 -60s-3 -64.666 -3 -111.999c0 -46.667 1 -83.667 3 -111s7.66699 -47.666 17 -60.999
c10.667 -14.667 26 -22 46 -22c18.667 0 33.334 6.33301 44.001 19c7.33301 8 12 17.167 14 27.5s3 21.5 3 33.5h81zM213 586h-61l68 135h74z" />
    <glyph glyph-name="Ccircumflex" unicode="&#x108;" horiz-adv-x="423" 
d="M385 176c-0.666992 -30 -5.5 -57.667 -14.5 -83s-22.167 -46 -39.5 -62c-14 -12.667 -30 -22.334 -48 -29.001s-38.667 -10 -62 -10c-28 0 -52 4.83301 -72 14.5s-36.667 22.167 -50 37.5c-12 13.333 -21.333 27.833 -28 43.5s-11.834 35.167 -15.501 58.5
s-6 51.833 -7 85.5s-1.5 75.167 -1.5 124.5s0.5 90.833 1.5 124.5s3.33301 62.167 7 85.5s8.83398 42.833 15.501 58.5s16 30.167 28 43.5c13.333 15.333 30 27.833 50 37.5s44 14.5 72 14.5c25.333 0 47 -3.66699 65 -11s34 -17.666 48 -30.999
c16.667 -16 29.167 -36.167 37.5 -60.5s12.833 -51.166 13.5 -80.499h-85c-0.666992 15.333 -2.5 30 -5.5 44s-8.83301 26.333 -17.5 37c-5.33301 7.33301 -12.666 13.333 -21.999 18s-20.666 7 -33.999 7c-14 0 -25.833 -2.5 -35.5 -7.5s-17.5 -11.5 -23.5 -19.5
c-6 -8.66699 -11 -19.167 -15 -31.5s-7 -28.333 -9 -48s-3.33301 -44.167 -4 -73.5s-1 -65 -1 -107s0.333008 -77.667 1 -107s2 -53.833 4 -73.5s5 -35.667 9 -48s9 -22.833 15 -31.5c6 -8 13.833 -14.5 23.5 -19.5s21.5 -7.5 35.5 -7.5c13.333 0 24.666 2.33301 33.999 7
s16.666 10.667 21.999 18c8 10.667 13.667 23.167 17 37.5s5.33301 29.166 6 44.499h85zM281 762l-60 87l-60 -87h-66l93 135h66l93 -135h-66z" />
    <glyph glyph-name="ccircumflex" unicode="&#x109;" horiz-adv-x="362" 
d="M330 145c-1.33301 -24.667 -5.16602 -46.834 -11.499 -66.501s-16.166 -36.5 -29.499 -50.5c-12.667 -12.667 -27.5 -21.834 -44.5 -27.501s-36.167 -8.5 -57.5 -8.5c-22 0 -42.333 3.66699 -61 11s-34.667 19.666 -48 36.999c-16 20.667 -26.333 49.334 -31 86.001
s-7 81 -7 133c0 52.667 2.33301 97.167 7 133.5s15 64.833 31 85.5c13.333 17.333 29.333 29.666 48 36.999s39 11 61 11c21.333 0 40.166 -2.5 56.499 -7.5s31.166 -14.167 44.499 -27.5c16 -15.333 26.667 -33.166 32 -53.499s8.66602 -41.5 9.99902 -63.5h-81
c0 10.667 -0.833008 21.167 -2.5 31.5s-6.16699 19.833 -13.5 28.5c-10.667 12.667 -25.667 19 -45 19c-20 0 -35.333 -7.33301 -46 -22c-9.33301 -12.667 -15 -32.667 -17 -60s-3 -64.666 -3 -111.999c0 -46.667 1 -83.667 3 -111s7.66699 -47.666 17 -60.999
c10.667 -14.667 26 -22 46 -22c18.667 0 33.334 6.33301 44.001 19c7.33301 8 12 17.167 14 27.5s3 21.5 3 33.5h81zM247 586l-60 87l-59 -87h-67l93 135h67l93 -135h-67z" />
    <glyph glyph-name="Cdotaccent" unicode="&#x10a;" horiz-adv-x="423" 
d="M385 176c-0.666992 -30 -5.5 -57.667 -14.5 -83s-22.167 -46 -39.5 -62c-14 -12.667 -30 -22.334 -48 -29.001s-38.667 -10 -62 -10c-28 0 -52 4.83301 -72 14.5s-36.667 22.167 -50 37.5c-12 13.333 -21.333 27.833 -28 43.5s-11.834 35.167 -15.501 58.5
s-6 51.833 -7 85.5s-1.5 75.167 -1.5 124.5s0.5 90.833 1.5 124.5s3.33301 62.167 7 85.5s8.83398 42.833 15.501 58.5s16 30.167 28 43.5c13.333 15.333 30 27.833 50 37.5s44 14.5 72 14.5c25.333 0 47 -3.66699 65 -11s34 -17.666 48 -30.999
c16.667 -16 29.167 -36.167 37.5 -60.5s12.833 -51.166 13.5 -80.499h-85c-0.666992 15.333 -2.5 30 -5.5 44s-8.83301 26.333 -17.5 37c-5.33301 7.33301 -12.666 13.333 -21.999 18s-20.666 7 -33.999 7c-14 0 -25.833 -2.5 -35.5 -7.5s-17.5 -11.5 -23.5 -19.5
c-6 -8.66699 -11 -19.167 -15 -31.5s-7 -28.333 -9 -48s-3.33301 -44.167 -4 -73.5s-1 -65 -1 -107s0.333008 -77.667 1 -107s2 -53.833 4 -73.5s5 -35.667 9 -48s9 -22.833 15 -31.5c6 -8 13.833 -14.5 23.5 -19.5s21.5 -7.5 35.5 -7.5c13.333 0 24.666 2.33301 33.999 7
s16.666 10.667 21.999 18c8 10.667 13.667 23.167 17 37.5s5.33301 29.166 6 44.499h85zM180 777v81h82v-81h-82z" />
    <glyph glyph-name="cdotaccent" unicode="&#x10b;" horiz-adv-x="362" 
d="M330 145c-1.33301 -24.667 -5.16602 -46.834 -11.499 -66.501s-16.166 -36.5 -29.499 -50.5c-12.667 -12.667 -27.5 -21.834 -44.5 -27.501s-36.167 -8.5 -57.5 -8.5c-22 0 -42.333 3.66699 -61 11s-34.667 19.666 -48 36.999c-16 20.667 -26.333 49.334 -31 86.001
s-7 81 -7 133c0 52.667 2.33301 97.167 7 133.5s15 64.833 31 85.5c13.333 17.333 29.333 29.666 48 36.999s39 11 61 11c21.333 0 40.166 -2.5 56.499 -7.5s31.166 -14.167 44.499 -27.5c16 -15.333 26.667 -33.166 32 -53.499s8.66602 -41.5 9.99902 -63.5h-81
c0 10.667 -0.833008 21.167 -2.5 31.5s-6.16699 19.833 -13.5 28.5c-10.667 12.667 -25.667 19 -45 19c-20 0 -35.333 -7.33301 -46 -22c-9.33301 -12.667 -15 -32.667 -17 -60s-3 -64.666 -3 -111.999c0 -46.667 1 -83.667 3 -111s7.66699 -47.666 17 -60.999
c10.667 -14.667 26 -22 46 -22c18.667 0 33.334 6.33301 44.001 19c7.33301 8 12 17.167 14 27.5s3 21.5 3 33.5h81zM147 604v82h81v-82h-81z" />
    <glyph glyph-name="Ccaron" unicode="&#x10c;" horiz-adv-x="423" 
d="M385 176c-0.666992 -30 -5.5 -57.667 -14.5 -83s-22.167 -46 -39.5 -62c-14 -12.667 -30 -22.334 -48 -29.001s-38.667 -10 -62 -10c-28 0 -52 4.83301 -72 14.5s-36.667 22.167 -50 37.5c-12 13.333 -21.333 27.833 -28 43.5s-11.834 35.167 -15.501 58.5
s-6 51.833 -7 85.5s-1.5 75.167 -1.5 124.5s0.5 90.833 1.5 124.5s3.33301 62.167 7 85.5s8.83398 42.833 15.501 58.5s16 30.167 28 43.5c13.333 15.333 30 27.833 50 37.5s44 14.5 72 14.5c25.333 0 47 -3.66699 65 -11s34 -17.666 48 -30.999
c16.667 -16 29.167 -36.167 37.5 -60.5s12.833 -51.166 13.5 -80.499h-85c-0.666992 15.333 -2.5 30 -5.5 44s-8.83301 26.333 -17.5 37c-5.33301 7.33301 -12.666 13.333 -21.999 18s-20.666 7 -33.999 7c-14 0 -25.833 -2.5 -35.5 -7.5s-17.5 -11.5 -23.5 -19.5
c-6 -8.66699 -11 -19.167 -15 -31.5s-7 -28.333 -9 -48s-3.33301 -44.167 -4 -73.5s-1 -65 -1 -107s0.333008 -77.667 1 -107s2 -53.833 4 -73.5s5 -35.667 9 -48s9 -22.833 15 -31.5c6 -8 13.833 -14.5 23.5 -19.5s21.5 -7.5 35.5 -7.5c13.333 0 24.666 2.33301 33.999 7
s16.666 10.667 21.999 18c8 10.667 13.667 23.167 17 37.5s5.33301 29.166 6 44.499h85zM254 758h-66l-93 134h66l60 -87l60 87h66z" />
    <glyph glyph-name="ccaron" unicode="&#x10d;" horiz-adv-x="362" 
d="M330 145c-1.33301 -24.667 -5.16602 -46.834 -11.499 -66.501s-16.166 -36.5 -29.499 -50.5c-12.667 -12.667 -27.5 -21.834 -44.5 -27.501s-36.167 -8.5 -57.5 -8.5c-22 0 -42.333 3.66699 -61 11s-34.667 19.666 -48 36.999c-16 20.667 -26.333 49.334 -31 86.001
s-7 81 -7 133c0 52.667 2.33301 97.167 7 133.5s15 64.833 31 85.5c13.333 17.333 29.333 29.666 48 36.999s39 11 61 11c21.333 0 40.166 -2.5 56.499 -7.5s31.166 -14.167 44.499 -27.5c16 -15.333 26.667 -33.166 32 -53.499s8.66602 -41.5 9.99902 -63.5h-81
c0 10.667 -0.833008 21.167 -2.5 31.5s-6.16699 19.833 -13.5 28.5c-10.667 12.667 -25.667 19 -45 19c-20 0 -35.333 -7.33301 -46 -22c-9.33301 -12.667 -15 -32.667 -17 -60s-3 -64.666 -3 -111.999c0 -46.667 1 -83.667 3 -111s7.66699 -47.666 17 -60.999
c10.667 -14.667 26 -22 46 -22c18.667 0 33.334 6.33301 44.001 19c7.33301 8 12 17.167 14 27.5s3 21.5 3 33.5h81zM221 582h-67l-93 135h67l59 -87l60 87h67z" />
    <glyph glyph-name="Dcaron" unicode="&#x10e;" horiz-adv-x="448" 
d="M401 356c0 -48 -0.5 -88.6709 -1.5 -122.004s-3.33301 -61.666 -7 -84.999s-8.83398 -42.666 -15.501 -57.999s-15.667 -29 -27 -41c-13.333 -14.667 -29.666 -26.667 -48.999 -36s-43.666 -14 -72.999 -14h-164v712h164c29.333 0 53.666 -4.66699 72.999 -14
s35.666 -21.333 48.999 -36c11.333 -12 20.333 -25.667 27 -41s11.834 -34.666 15.501 -57.999s6 -51.666 7 -84.999s1.5 -74 1.5 -122zM315 355.996c0 40.667 -0.166992 75.168 -0.5 103.501s-1.5 52.166 -3.5 71.499s-5 35 -9 47s-9.33301 22 -16 30s-15 14.5 -25 19.5
s-22 7.5 -36 7.5h-75v-558h75c14 0 26 2.5 36 7.5s18.333 11.5 25 19.5s12 18 16 30s7 27.667 9 47s3.16699 43 3.5 71s0.5 62.667 0.5 104zM255 757.997h-66l-93 134h66l60 -87l60 87h66z" />
    <glyph glyph-name="dcaron" unicode="&#x10f;" horiz-adv-x="387" 
d="M251 0l0.000976562 39.999c-2.66699 -5.33301 -7.33398 -11.333 -14.001 -18s-12.334 -11.334 -17.001 -14.001c-18 -10.667 -36.667 -16 -56 -16c-35.333 0 -64 13 -86 39c-16.667 19.333 -27.167 47 -31.5 83s-6.5 84.333 -6.5 145c0 60 2.16699 108.333 6.5 145
s14.833 64.667 31.5 84c10.667 12.667 22.834 22.167 36.501 28.5s30.167 9.5 49.5 9.5c20 0 38.667 -5 56 -15c5.33301 -3.33301 10.5 -7.66602 15.5 -12.999s9.5 -10.666 13.5 -15.999v230h81v-712h-79zM249.001 377.999c0 14 -1.66406 25.6689 -4.99707 35.002
s-8.33301 17.333 -15 24c-10.667 10.667 -24.667 16 -42 16c-18.667 0 -33.334 -7 -44.001 -21c-4.66699 -5.33301 -8.33398 -12.333 -11.001 -21s-4.83398 -19.834 -6.50098 -33.501s-2.66699 -30.167 -3 -49.5s-0.5 -42.333 -0.5 -69
c0 -53.333 1.16699 -92.833 3.5 -118.5s8.16602 -43.834 17.499 -54.501c10.667 -14 25.334 -21 44.001 -21c17.333 0 31.333 5.33301 42 16c13.333 13.333 20 33.333 20 60v237zM428.004 586.001h-55l23 144h66z" />
    <glyph glyph-name="Dcroat" unicode="&#x110;" horiz-adv-x="459" 
d="M412 356c0 -44 -0.333008 -82.167 -1 -114.5s-2.66699 -60.5 -6 -84.5s-8.5 -44.5 -15.5 -61.5s-16.5 -32.167 -28.5 -45.5c-13.333 -14.667 -29.666 -26.667 -48.999 -36s-43.666 -14 -72.999 -14h-164v323h-52v69h52v320h164c29.333 0 53.666 -4.66699 72.999 -14
s35.666 -21.333 48.999 -36c12 -13.333 21.5 -28.5 28.5 -45.5s12.167 -37.5 15.5 -61.5s5.33301 -52.167 6 -84.5s1 -70.5 1 -114.5zM326 356c0 40.667 -0.333008 75.167 -1 103.5s-2 52 -4 71s-4.83301 34.5 -8.5 46.5s-8.83398 22.333 -15.501 31
c-6 8 -14.167 14.5 -24.5 19.5s-22.5 7.5 -36.5 7.5h-75v-243h81v-69h-81v-246h75c14 0 26.167 2.5 36.5 7.5s18.5 11.5 24.5 19.5c6.66699 8.66699 11.834 19 15.501 31s6.5 27.5 8.5 46.5s3.33301 42.667 4 71s1 62.833 1 103.5z" />
    <glyph glyph-name="dcroat" unicode="&#x111;" horiz-adv-x="408" 
d="M251 0l0.000976562 39.999c-2.66699 -5.33301 -7.33398 -11.333 -14.001 -18s-12.334 -11.334 -17.001 -14.001c-18 -10.667 -36.667 -16 -56 -16c-35.333 0 -64 13 -86 39c-16.667 19.333 -27.167 47 -31.5 83s-6.5 84.333 -6.5 145c0 60 2.16699 108.333 6.5 145
s14.833 64.667 31.5 84c10.667 12.667 22.834 22.167 36.501 28.5s30.167 9.5 49.5 9.5c20 0 38.667 -5 56 -15c5.33301 -3.33301 10.5 -7.66602 15.5 -12.999s9.5 -10.666 13.5 -15.999v100h-88v54h88v76h81v-76h53v-54h-53v-582h-79zM249.001 377.999
c0 14 -1.66406 25.6689 -4.99707 35.002s-8.33301 17.333 -15 24c-10.667 10.667 -24.667 16 -42 16c-18.667 0 -33.334 -7 -44.001 -21c-4.66699 -5.33301 -8.33398 -12.333 -11.001 -21s-4.83398 -19.834 -6.50098 -33.501s-2.66699 -30.167 -3 -49.5
s-0.5 -42.333 -0.5 -69c0 -53.333 1.16699 -92.833 3.5 -118.5s8.16602 -43.834 17.499 -54.501c10.667 -14 25.334 -21 44.001 -21c17.333 0 31.333 5.33301 42 16c13.333 13.333 20 33.333 20 60v237z" />
    <glyph glyph-name="Emacron" unicode="&#x112;" horiz-adv-x="380" 
d="M64 0v712h275v-77h-189v-239h163v-77h-163v-242h189v-77h-275zM92 780v58h228v-58h-228z" />
    <glyph glyph-name="emacron" unicode="&#x113;" horiz-adv-x="372" 
d="M122 240c0 -41.333 1.16797 -74.332 3.50098 -98.999s8.16602 -42.667 17.499 -54c4.66699 -6.66699 10.834 -12 18.501 -16s16.834 -6 27.501 -6c9.33301 0 17.666 1.5 24.999 4.5s14.333 8.16699 21 15.5s11.167 16 13.5 26s3.5 21.333 3.5 34h81
c-0.666992 -24 -4.16699 -45.333 -10.5 -64s-16.833 -35.667 -31.5 -51c-24.667 -25.333 -58.667 -38 -102 -38c-22 0 -41.333 3 -58 9s-31.667 16.333 -45 31c-19.333 20.667 -31.833 50.167 -37.5 88.5s-8.5 84.5 -8.5 138.5c0 54.667 2.66699 101 8 139
s17.666 67.333 36.999 88c13.333 14.667 28.333 25 45 31s35.667 9 57 9s40.333 -3 57 -9s31.667 -16.333 45 -31c19.333 -20.667 31.833 -50.834 37.5 -90.501s8.5 -91.5 8.5 -155.5h-213zM253.001 301.001c0 38 -1.33301 67 -4 87s-8 34.667 -16 44
c-5.33301 6.66699 -11.5 11.834 -18.5 15.501s-16.167 5.5 -27.5 5.5s-20.333 -1.83301 -27 -5.5s-12.667 -8.83398 -18 -15.501c-8 -9.33301 -13.333 -24 -16 -44s-4 -49 -4 -87h131zM73.001 608.001v57h229v-57h-229z" />
    <glyph glyph-name="Ebreve" unicode="&#x114;" horiz-adv-x="380" 
d="M64 0v712h275v-77h-189v-239h163v-77h-163v-242h189v-77h-275zM327 865c-2.66699 -40 -15 -68.167 -37 -84.5s-50 -24.5 -84 -24.5s-62 8.16699 -84 24.5s-34.333 44.5 -37 84.5h62c2 -18.667 8.16699 -32.167 18.5 -40.5s23.833 -12.5 40.5 -12.5
s30.167 4.16699 40.5 12.5s16.5 21.833 18.5 40.5h62v0z" />
    <glyph glyph-name="ebreve" unicode="&#x115;" horiz-adv-x="372" 
d="M122 240c0 -41.333 1.16797 -74.332 3.50098 -98.999s8.16602 -42.667 17.499 -54c4.66699 -6.66699 10.834 -12 18.501 -16s16.834 -6 27.501 -6c9.33301 0 17.666 1.5 24.999 4.5s14.333 8.16699 21 15.5s11.167 16 13.5 26s3.5 21.333 3.5 34h81
c-0.666992 -24 -4.16699 -45.333 -10.5 -64s-16.833 -35.667 -31.5 -51c-24.667 -25.333 -58.667 -38 -102 -38c-22 0 -41.333 3 -58 9s-31.667 16.333 -45 31c-19.333 20.667 -31.833 50.167 -37.5 88.5s-8.5 84.5 -8.5 138.5c0 54.667 2.66699 101 8 139
s17.666 67.333 36.999 88c13.333 14.667 28.333 25 45 31s35.667 9 57 9s40.333 -3 57 -9s31.667 -16.333 45 -31c19.333 -20.667 31.833 -50.834 37.5 -90.501s8.5 -91.5 8.5 -155.5h-213zM253.001 301.001c0 38 -1.33301 67 -4 87s-8 34.667 -16 44
c-5.33301 6.66699 -11.5 11.834 -18.5 15.501s-16.167 5.5 -27.5 5.5s-20.333 -1.83301 -27 -5.5s-12.667 -8.83398 -18 -15.501c-8 -9.33301 -13.333 -24 -16 -44s-4 -49 -4 -87h131zM305.001 694.001c-2.66699 -40 -14.5 -68.667 -35.5 -86s-48.5 -26 -82.5 -26
c-33.333 0 -60.5 8.66699 -81.5 26s-32.833 46 -35.5 86h58c2.66699 -18.667 9.16699 -32.167 19.5 -40.5s23.5 -12.5 39.5 -12.5c16.667 0 30.167 4.16699 40.5 12.5s16.833 21.833 19.5 40.5h58v0z" />
    <glyph glyph-name="Edotaccent" unicode="&#x116;" horiz-adv-x="380" 
d="M64 0v712h275v-77h-189v-239h163v-77h-163v-242h189v-77h-275zM165 777v81h82v-81h-82z" />
    <glyph glyph-name="edotaccent" unicode="&#x117;" horiz-adv-x="372" 
d="M122 240c0 -41.333 1.16797 -74.332 3.50098 -98.999s8.16602 -42.667 17.499 -54c4.66699 -6.66699 10.834 -12 18.501 -16s16.834 -6 27.501 -6c9.33301 0 17.666 1.5 24.999 4.5s14.333 8.16699 21 15.5s11.167 16 13.5 26s3.5 21.333 3.5 34h81
c-0.666992 -24 -4.16699 -45.333 -10.5 -64s-16.833 -35.667 -31.5 -51c-24.667 -25.333 -58.667 -38 -102 -38c-22 0 -41.333 3 -58 9s-31.667 16.333 -45 31c-19.333 20.667 -31.833 50.167 -37.5 88.5s-8.5 84.5 -8.5 138.5c0 54.667 2.66699 101 8 139
s17.666 67.333 36.999 88c13.333 14.667 28.333 25 45 31s35.667 9 57 9s40.333 -3 57 -9s31.667 -16.333 45 -31c19.333 -20.667 31.833 -50.834 37.5 -90.501s8.5 -91.5 8.5 -155.5h-213zM253.001 301.001c0 38 -1.33301 67 -4 87s-8 34.667 -16 44
c-5.33301 6.66699 -11.5 11.834 -18.5 15.501s-16.167 5.5 -27.5 5.5s-20.333 -1.83301 -27 -5.5s-12.667 -8.83398 -18 -15.501c-8 -9.33301 -13.333 -24 -16 -44s-4 -49 -4 -87h131zM147.001 604.001v82h81v-82h-81z" />
    <glyph glyph-name="Eogonek" unicode="&#x118;" horiz-adv-x="380" 
d="M64 0v712h275v-77h-189v-239h163v-77h-163v-242h189v-77h-275zM277 -182h-64l57 144h57z" />
    <glyph glyph-name="eogonek" unicode="&#x119;" horiz-adv-x="372" 
d="M122 240c0 -41.333 1.16797 -74.332 3.50098 -98.999s8.16602 -42.667 17.499 -54c4.66699 -6.66699 10.834 -12 18.501 -16s16.834 -6 27.501 -6c9.33301 0 17.666 1.5 24.999 4.5s14.333 8.16699 21 15.5s11.167 16 13.5 26s3.5 21.333 3.5 34h81
c-0.666992 -24 -4.16699 -45.333 -10.5 -64s-16.833 -35.667 -31.5 -51c-24.667 -25.333 -58.667 -38 -102 -38c-22 0 -41.333 3 -58 9s-31.667 16.333 -45 31c-19.333 20.667 -31.833 50.167 -37.5 88.5s-8.5 84.5 -8.5 138.5c0 54.667 2.66699 101 8 139
s17.666 67.333 36.999 88c13.333 14.667 28.333 25 45 31s35.667 9 57 9s40.333 -3 57 -9s31.667 -16.333 45 -31c19.333 -20.667 31.833 -50.834 37.5 -90.501s8.5 -91.5 8.5 -155.5h-213zM253.001 301.001c0 38 -1.33301 67 -4 87s-8 34.667 -16 44
c-5.33301 6.66699 -11.5 11.834 -18.5 15.501s-16.167 5.5 -27.5 5.5s-20.333 -1.83301 -27 -5.5s-12.667 -8.83398 -18 -15.501c-8 -9.33301 -13.333 -24 -16 -44s-4 -49 -4 -87h131zM217.001 -181.999h-64l57 144h57z" />
    <glyph glyph-name="Ecaron" unicode="&#x11a;" horiz-adv-x="380" 
d="M64 0v712h275v-77h-189v-239h163v-77h-163v-242h189v-77h-275zM239 758h-66l-93 134h66l60 -87l60 87h66z" />
    <glyph glyph-name="ecaron" unicode="&#x11b;" horiz-adv-x="372" 
d="M122 240c0 -41.333 1.16797 -74.332 3.50098 -98.999s8.16602 -42.667 17.499 -54c4.66699 -6.66699 10.834 -12 18.501 -16s16.834 -6 27.501 -6c9.33301 0 17.666 1.5 24.999 4.5s14.333 8.16699 21 15.5s11.167 16 13.5 26s3.5 21.333 3.5 34h81
c-0.666992 -24 -4.16699 -45.333 -10.5 -64s-16.833 -35.667 -31.5 -51c-24.667 -25.333 -58.667 -38 -102 -38c-22 0 -41.333 3 -58 9s-31.667 16.333 -45 31c-19.333 20.667 -31.833 50.167 -37.5 88.5s-8.5 84.5 -8.5 138.5c0 54.667 2.66699 101 8 139
s17.666 67.333 36.999 88c13.333 14.667 28.333 25 45 31s35.667 9 57 9s40.333 -3 57 -9s31.667 -16.333 45 -31c19.333 -20.667 31.833 -50.834 37.5 -90.501s8.5 -91.5 8.5 -155.5h-213zM253.001 301.001c0 38 -1.33301 67 -4 87s-8 34.667 -16 44
c-5.33301 6.66699 -11.5 11.834 -18.5 15.501s-16.167 5.5 -27.5 5.5s-20.333 -1.83301 -27 -5.5s-12.667 -8.83398 -18 -15.501c-8 -9.33301 -13.333 -24 -16 -44s-4 -49 -4 -87h131zM221.001 582.001h-67l-93 135h67l59 -87l60 87h67z" />
    <glyph glyph-name="Gcircumflex" unicode="&#x11c;" horiz-adv-x="434" 
d="M386 171c-0.666992 -59.333 -16.6689 -104.003 -48.002 -134.003s-70.333 -45 -117 -45c-28 0 -52 4.83301 -72 14.5s-36.667 22.167 -50 37.5c-11.333 12.667 -20.5 26.834 -27.5 42.501s-12.333 35.167 -16 58.5s-6 52 -7 86s-1.5 75.667 -1.5 125
s0.5 90.833 1.5 124.5s3.33301 62.334 7 86.001s9 43.334 16 59.001s16.167 29.834 27.5 42.501c13.333 15.333 30 27.833 50 37.5s44 14.5 72 14.5c25.333 0 47.5 -4 66.5 -12s35.167 -18.667 48.5 -32c16.667 -16.667 28.834 -37 36.501 -61s11.834 -50.333 12.501 -79
h-85c0 12 -1.16699 24.333 -3.5 37s-6.33301 24.167 -12 34.5s-13.5 18.833 -23.5 25.5s-23.333 10 -40 10c-14 0 -25.833 -2.5 -35.5 -7.5s-17.5 -11.5 -23.5 -19.5c-6 -8.66699 -11 -19.167 -15 -31.5s-7 -28.333 -9 -48s-3.33301 -44.167 -4 -73.5s-1 -65 -1 -107
s0.333008 -77.667 1 -107s2 -53.833 4 -73.5s5 -35.667 9 -48s9 -22.833 15 -31.5c6 -8 13.833 -14.5 23.5 -19.5s21.5 -7.5 35.5 -7.5c25.333 0 44.833 9.16699 58.5 27.5s20.5 42.166 20.5 71.499v143h-79v71h165v-211zM280.998 761.997l-60 87l-60 -87h-66l93 135h66
l93 -135h-66z" />
    <glyph glyph-name="gcircumflex" unicode="&#x11d;" horiz-adv-x="387" 
d="M330 -12c0 -38.667 -3.33008 -68.6709 -9.99707 -90.0039s-17.334 -39.666 -32.001 -54.999c-12 -12.667 -27 -22.5 -45 -29.5s-37 -10.5 -57 -10.5s-39 3 -57 9s-33.667 15.333 -47 28c-14.667 14.667 -24.834 31.334 -30.501 50.001s-8.5 39.334 -8.5 62.001h81
c0 -12.667 1 -24.167 3 -34.5s6.66699 -19.5 14 -27.5c11.333 -11.333 26 -17 44 -17c9.33301 0 17.666 1.83301 24.999 5.5s13.666 8.16699 18.999 13.5c7.33301 8 12.5 19.167 15.5 33.5s4.5 33.5 4.5 57.5v79c-4 -5.33301 -8.5 -10.666 -13.5 -15.999
s-10.167 -9.66602 -15.5 -12.999c-14.667 -10.667 -32.667 -16 -54 -16c-35.333 0 -63.666 12.667 -84.999 38c-8 9.33301 -14.667 20.166 -20 32.499s-9.5 27 -12.5 44s-5.16699 37 -6.5 60s-2 49.833 -2 80.5s0.666992 57.334 2 80.001s3.5 42.667 6.5 60
s7.16699 32.166 12.5 44.499s12 23.166 20 32.499c22 24.667 50.333 37 85 37c22 0 40.667 -5.33301 56 -16c11.333 -7.33301 21 -16.666 29 -27.999v36h79v-530zM249.003 377.996c0 14 -1.66113 25.665 -4.99414 34.998s-8.33301 17.333 -15 24
c-10.667 10.667 -24.667 16 -42 16c-18.667 0 -33.334 -7 -44.001 -21c-4.66699 -5.33301 -8.33398 -12.166 -11.001 -20.499s-4.83398 -18.666 -6.50098 -30.999s-2.66699 -27.5 -3 -45.5s-0.5 -39.333 -0.5 -64c0 -49.333 1.16699 -85.833 3.5 -109.5
s8.16602 -41.167 17.499 -52.5c5.33301 -6 11.666 -11 18.999 -15s15.666 -6 24.999 -6c16.667 0 30.667 5.66699 42 17c6.66699 6.66699 11.667 14.667 15 24s5 21 5 35v214zM247.009 585.994l-60 87l-59 -87h-67l93 135h67l93 -135h-67z" />
    <glyph glyph-name="Gbreve" unicode="&#x11e;" horiz-adv-x="434" 
d="M386 171c-0.666992 -59.333 -16.6689 -104.003 -48.002 -134.003s-70.333 -45 -117 -45c-28 0 -52 4.83301 -72 14.5s-36.667 22.167 -50 37.5c-11.333 12.667 -20.5 26.834 -27.5 42.501s-12.333 35.167 -16 58.5s-6 52 -7 86s-1.5 75.667 -1.5 125
s0.5 90.833 1.5 124.5s3.33301 62.334 7 86.001s9 43.334 16 59.001s16.167 29.834 27.5 42.501c13.333 15.333 30 27.833 50 37.5s44 14.5 72 14.5c25.333 0 47.5 -4 66.5 -12s35.167 -18.667 48.5 -32c16.667 -16.667 28.834 -37 36.501 -61s11.834 -50.333 12.501 -79
h-85c0 12 -1.16699 24.333 -3.5 37s-6.33301 24.167 -12 34.5s-13.5 18.833 -23.5 25.5s-23.333 10 -40 10c-14 0 -25.833 -2.5 -35.5 -7.5s-17.5 -11.5 -23.5 -19.5c-6 -8.66699 -11 -19.167 -15 -31.5s-7 -28.333 -9 -48s-3.33301 -44.167 -4 -73.5s-1 -65 -1 -107
s0.333008 -77.667 1 -107s2 -53.833 4 -73.5s5 -35.667 9 -48s9 -22.833 15 -31.5c6 -8 13.833 -14.5 23.5 -19.5s21.5 -7.5 35.5 -7.5c25.333 0 44.833 9.16699 58.5 27.5s20.5 42.166 20.5 71.499v143h-79v71h165v-211zM338.998 865.997
c-2.66699 -39.333 -14.6689 -67.666 -36.002 -84.999s-48.666 -26 -81.999 -26s-60.666 8.66699 -81.999 26s-33.333 45.666 -36 84.999h59c2 -18 8.33301 -31.167 19 -39.5s24 -12.5 40 -12.5s29.333 4.16699 40 12.5s17 21.5 19 39.5h59v0z" />
    <glyph glyph-name="gbreve" unicode="&#x11f;" horiz-adv-x="387" 
d="M330 -12c0 -38.667 -3.33008 -68.6709 -9.99707 -90.0039s-17.334 -39.666 -32.001 -54.999c-12 -12.667 -27 -22.5 -45 -29.5s-37 -10.5 -57 -10.5s-39 3 -57 9s-33.667 15.333 -47 28c-14.667 14.667 -24.834 31.334 -30.501 50.001s-8.5 39.334 -8.5 62.001h81
c0 -12.667 1 -24.167 3 -34.5s6.66699 -19.5 14 -27.5c11.333 -11.333 26 -17 44 -17c9.33301 0 17.666 1.83301 24.999 5.5s13.666 8.16699 18.999 13.5c7.33301 8 12.5 19.167 15.5 33.5s4.5 33.5 4.5 57.5v79c-4 -5.33301 -8.5 -10.666 -13.5 -15.999
s-10.167 -9.66602 -15.5 -12.999c-14.667 -10.667 -32.667 -16 -54 -16c-35.333 0 -63.666 12.667 -84.999 38c-8 9.33301 -14.667 20.166 -20 32.499s-9.5 27 -12.5 44s-5.16699 37 -6.5 60s-2 49.833 -2 80.5s0.666992 57.334 2 80.001s3.5 42.667 6.5 60
s7.16699 32.166 12.5 44.499s12 23.166 20 32.499c22 24.667 50.333 37 85 37c22 0 40.667 -5.33301 56 -16c11.333 -7.33301 21 -16.666 29 -27.999v36h79v-530zM249.003 377.996c0 14 -1.66113 25.665 -4.99414 34.998s-8.33301 17.333 -15 24
c-10.667 10.667 -24.667 16 -42 16c-18.667 0 -33.334 -7 -44.001 -21c-4.66699 -5.33301 -8.33398 -12.166 -11.001 -20.499s-4.83398 -18.666 -6.50098 -30.999s-2.66699 -27.5 -3 -45.5s-0.5 -39.333 -0.5 -64c0 -49.333 1.16699 -85.833 3.5 -109.5
s8.16602 -41.167 17.499 -52.5c5.33301 -6 11.666 -11 18.999 -15s15.666 -6 24.999 -6c16.667 0 30.667 5.66699 42 17c6.66699 6.66699 11.667 14.667 15 24s5 21 5 35v214zM305.009 693.994c-2.66699 -40 -14.5 -68.667 -35.5 -86s-48.5 -26 -82.5 -26
c-33.333 0 -60.5 8.66699 -81.5 26s-32.833 46 -35.5 86h58c2.66699 -18.667 9.16699 -32.167 19.5 -40.5s23.5 -12.5 39.5 -12.5c16.667 0 30.167 4.16699 40.5 12.5s16.833 21.833 19.5 40.5h58v0z" />
    <glyph glyph-name="Gdotaccent" unicode="&#x120;" horiz-adv-x="434" 
d="M386 171c-0.666992 -59.333 -16.6689 -104.003 -48.002 -134.003s-70.333 -45 -117 -45c-28 0 -52 4.83301 -72 14.5s-36.667 22.167 -50 37.5c-11.333 12.667 -20.5 26.834 -27.5 42.501s-12.333 35.167 -16 58.5s-6 52 -7 86s-1.5 75.667 -1.5 125
s0.5 90.833 1.5 124.5s3.33301 62.334 7 86.001s9 43.334 16 59.001s16.167 29.834 27.5 42.501c13.333 15.333 30 27.833 50 37.5s44 14.5 72 14.5c25.333 0 47.5 -4 66.5 -12s35.167 -18.667 48.5 -32c16.667 -16.667 28.834 -37 36.501 -61s11.834 -50.333 12.501 -79
h-85c0 12 -1.16699 24.333 -3.5 37s-6.33301 24.167 -12 34.5s-13.5 18.833 -23.5 25.5s-23.333 10 -40 10c-14 0 -25.833 -2.5 -35.5 -7.5s-17.5 -11.5 -23.5 -19.5c-6 -8.66699 -11 -19.167 -15 -31.5s-7 -28.333 -9 -48s-3.33301 -44.167 -4 -73.5s-1 -65 -1 -107
s0.333008 -77.667 1 -107s2 -53.833 4 -73.5s5 -35.667 9 -48s9 -22.833 15 -31.5c6 -8 13.833 -14.5 23.5 -19.5s21.5 -7.5 35.5 -7.5c25.333 0 44.833 9.16699 58.5 27.5s20.5 42.166 20.5 71.499v143h-79v71h165v-211zM179.998 776.997v81h82v-81h-82z" />
    <glyph glyph-name="gdotaccent" unicode="&#x121;" horiz-adv-x="387" 
d="M330 -12c0 -38.667 -3.33008 -68.6709 -9.99707 -90.0039s-17.334 -39.666 -32.001 -54.999c-12 -12.667 -27 -22.5 -45 -29.5s-37 -10.5 -57 -10.5s-39 3 -57 9s-33.667 15.333 -47 28c-14.667 14.667 -24.834 31.334 -30.501 50.001s-8.5 39.334 -8.5 62.001h81
c0 -12.667 1 -24.167 3 -34.5s6.66699 -19.5 14 -27.5c11.333 -11.333 26 -17 44 -17c9.33301 0 17.666 1.83301 24.999 5.5s13.666 8.16699 18.999 13.5c7.33301 8 12.5 19.167 15.5 33.5s4.5 33.5 4.5 57.5v79c-4 -5.33301 -8.5 -10.666 -13.5 -15.999
s-10.167 -9.66602 -15.5 -12.999c-14.667 -10.667 -32.667 -16 -54 -16c-35.333 0 -63.666 12.667 -84.999 38c-8 9.33301 -14.667 20.166 -20 32.499s-9.5 27 -12.5 44s-5.16699 37 -6.5 60s-2 49.833 -2 80.5s0.666992 57.334 2 80.001s3.5 42.667 6.5 60
s7.16699 32.166 12.5 44.499s12 23.166 20 32.499c22 24.667 50.333 37 85 37c22 0 40.667 -5.33301 56 -16c11.333 -7.33301 21 -16.666 29 -27.999v36h79v-530zM249.003 377.996c0 14 -1.66113 25.665 -4.99414 34.998s-8.33301 17.333 -15 24
c-10.667 10.667 -24.667 16 -42 16c-18.667 0 -33.334 -7 -44.001 -21c-4.66699 -5.33301 -8.33398 -12.166 -11.001 -20.499s-4.83398 -18.666 -6.50098 -30.999s-2.66699 -27.5 -3 -45.5s-0.5 -39.333 -0.5 -64c0 -49.333 1.16699 -85.833 3.5 -109.5
s8.16602 -41.167 17.499 -52.5c5.33301 -6 11.666 -11 18.999 -15s15.666 -6 24.999 -6c16.667 0 30.667 5.66699 42 17c6.66699 6.66699 11.667 14.667 15 24s5 21 5 35v214zM147.009 603.994v82h81v-82h-81z" />
    <glyph glyph-name="Gcommaaccent" unicode="&#x122;" horiz-adv-x="434" 
d="M386 171c-0.666992 -59.333 -16.6689 -104.003 -48.002 -134.003s-70.333 -45 -117 -45c-28 0 -52 4.83301 -72 14.5s-36.667 22.167 -50 37.5c-11.333 12.667 -20.5 26.834 -27.5 42.501s-12.333 35.167 -16 58.5s-6 52 -7 86s-1.5 75.667 -1.5 125
s0.5 90.833 1.5 124.5s3.33301 62.334 7 86.001s9 43.334 16 59.001s16.167 29.834 27.5 42.501c13.333 15.333 30 27.833 50 37.5s44 14.5 72 14.5c25.333 0 47.5 -4 66.5 -12s35.167 -18.667 48.5 -32c16.667 -16.667 28.834 -37 36.501 -61s11.834 -50.333 12.501 -79
h-85c0 12 -1.16699 24.333 -3.5 37s-6.33301 24.167 -12 34.5s-13.5 18.833 -23.5 25.5s-23.333 10 -40 10c-14 0 -25.833 -2.5 -35.5 -7.5s-17.5 -11.5 -23.5 -19.5c-6 -8.66699 -11 -19.167 -15 -31.5s-7 -28.333 -9 -48s-3.33301 -44.167 -4 -73.5s-1 -65 -1 -107
s0.333008 -77.667 1 -107s2 -53.833 4 -73.5s5 -35.667 9 -48s9 -22.833 15 -31.5c6 -8 13.833 -14.5 23.5 -19.5s21.5 -7.5 35.5 -7.5c25.333 0 44.833 9.16699 58.5 27.5s20.5 42.166 20.5 71.499v143h-79v71h165v-211zM200.998 -182.003h-64l57 144h57z" />
    <glyph glyph-name="gcommaaccent" unicode="&#x123;" horiz-adv-x="387" 
d="M330 -12c0 -38.667 -3.33008 -68.6709 -9.99707 -90.0039s-17.334 -39.666 -32.001 -54.999c-12 -12.667 -27 -22.5 -45 -29.5s-37 -10.5 -57 -10.5s-39 3 -57 9s-33.667 15.333 -47 28c-14.667 14.667 -24.834 31.334 -30.501 50.001s-8.5 39.334 -8.5 62.001h81
c0 -12.667 1 -24.167 3 -34.5s6.66699 -19.5 14 -27.5c11.333 -11.333 26 -17 44 -17c9.33301 0 17.666 1.83301 24.999 5.5s13.666 8.16699 18.999 13.5c7.33301 8 12.5 19.167 15.5 33.5s4.5 33.5 4.5 57.5v79c-4 -5.33301 -8.5 -10.666 -13.5 -15.999
s-10.167 -9.66602 -15.5 -12.999c-14.667 -10.667 -32.667 -16 -54 -16c-35.333 0 -63.666 12.667 -84.999 38c-8 9.33301 -14.667 20.166 -20 32.499s-9.5 27 -12.5 44s-5.16699 37 -6.5 60s-2 49.833 -2 80.5s0.666992 57.334 2 80.001s3.5 42.667 6.5 60
s7.16699 32.166 12.5 44.499s12 23.166 20 32.499c22 24.667 50.333 37 85 37c22 0 40.667 -5.33301 56 -16c11.333 -7.33301 21 -16.666 29 -27.999v36h79v-530zM249.003 377.996c0 14 -1.66113 25.665 -4.99414 34.998s-8.33301 17.333 -15 24
c-10.667 10.667 -24.667 16 -42 16c-18.667 0 -33.334 -7 -44.001 -21c-4.66699 -5.33301 -8.33398 -12.166 -11.001 -20.499s-4.83398 -18.666 -6.50098 -30.999s-2.66699 -27.5 -3 -45.5s-0.5 -39.333 -0.5 -64c0 -49.333 1.16699 -85.833 3.5 -109.5
s8.16602 -41.167 17.499 -52.5c5.33301 -6 11.666 -11 18.999 -15s15.666 -6 24.999 -6c16.667 0 30.667 5.66699 42 17c6.66699 6.66699 11.667 14.667 15 24s5 21 5 35v214zM210.009 729.994h65l-57 -144h-57z" />
    <glyph glyph-name="Hcircumflex" unicode="&#x124;" horiz-adv-x="458" 
d="M308 0v324h-158v-324h-86v712h86v-311h158v311h86v-712h-86zM289 762l-60 87l-60 -87h-66l93 135h66l93 -135h-66z" />
    <glyph glyph-name="hcircumflex" unicode="&#x125;" horiz-adv-x="395" 
d="M261 0l0.00195312 381.002c0 24 -6 42 -18 54s-26.667 18 -44 18s-31.833 -6 -43.5 -18s-17.5 -30 -17.5 -54v-381h-81v712h81v-231c3.33301 5.33301 7.66602 10.666 12.999 15.999s10.666 9.66602 15.999 12.999c17.333 10.667 36 16 56 16
c19.333 0 36 -3.16699 50 -9.5s26.667 -15.833 38 -28.5c10.667 -11.333 18.5 -25 23.5 -41s7.5 -38 7.5 -66v-381h-81zM160.002 761.002l-60 87l-59 -87h-67l93 135h67l93 -135h-67z" />
    <glyph glyph-name="Hbar" unicode="&#x126;" horiz-adv-x="480" 
d="M405 519v-519h-86v323h-158v-323h-86v519h-50v68h50v125h86v-125h158v125h86v-125h50v-68h-50zM319 519h-158v-118h158v118z" />
    <glyph glyph-name="hbar" unicode="&#x127;" horiz-adv-x="419" 
d="M284 0l0.00292969 381.002c0 24 -6 42 -18 54s-26.667 18 -44 18s-31.833 -6 -43.5 -18s-17.5 -30 -17.5 -54v-381h-81v582h-55v54h55v76h81v-76h86v-54h-86v-101c3.33301 5.33301 7.66602 10.666 12.999 15.999s10.666 9.66602 15.999 12.999
c17.333 10.667 36.666 16 57.999 16c18 0 34 -3.16699 48 -9.5s26.667 -15.833 38 -28.5c10.667 -11.333 18.5 -25 23.5 -41s7.5 -38 7.5 -66v-381h-81z" />
    <glyph glyph-name="Itilde" unicode="&#x128;" horiz-adv-x="215" 
d="M64 0v712h86v-712h-86zM240 814c-11.333 -11.333 -23.3301 -21.1689 -35.9971 -29.502s-27.334 -12.5 -44.001 -12.5c-13.333 0 -24.333 1.66699 -33 5s-16.667 7 -24 11l-21 11c-6.66699 3.33301 -14.334 5 -23.001 5c-9.33301 0 -17.5 -2.33301 -24.5 -7
s-13.833 -10 -20.5 -16l-36 37c14 14.667 27 25.5 39 32.5s25.333 10.5 40 10.5c13.333 0 24.166 -1.66699 32.499 -5s16 -7.16602 23 -11.499s13.833 -8.16602 20.5 -11.499s15 -5 25 -5s18.333 2.33301 25 7s13 10 19 16l38 -37v0z" />
    <glyph glyph-name="itilde" unicode="&#x129;" horiz-adv-x="195" 
d="M57 0v518h81v-518h-81zM232 638c-17.333 -16.667 -32.002 -27.834 -44.002 -33.501s-24 -8.5 -36 -8.5c-11.333 0 -21.333 1.5 -30 4.5s-18 7.16699 -28 12.5c-7.33301 4.66699 -14.333 8.33398 -21 11.001s-14 4 -22 4c-6.66699 0 -13 -1 -19 -3
s-14.667 -8.66699 -26 -20l-36 38c16.667 16.667 30.834 27.834 42.501 33.501s23.834 8.5 36.501 8.5c11.333 0 21.333 -1.33301 30 -4s18 -7 28 -13c7.33301 -4.66699 14.333 -8.33398 21 -11.001s14 -4 22 -4c6 0 12.167 1.16699 18.5 3.5s14.833 8.83301 25.5 19.5
l38 -38v0z" />
    <glyph glyph-name="Imacron" unicode="&#x12a;" horiz-adv-x="215" 
d="M64 0v712h86v-712h-86zM-5 780v58h228v-58h-228z" />
    <glyph glyph-name="imacron" unicode="&#x12b;" horiz-adv-x="195" 
d="M57 0v518h81v-518h-81zM-14 608v57h229v-57h-229z" />
    <glyph glyph-name="Ibreve" unicode="&#x12c;" horiz-adv-x="215" 
d="M64 0v712h86v-712h-86zM227 866c-2.66699 -39.333 -14.6689 -67.666 -36.002 -84.999s-48.666 -26 -81.999 -26s-60.666 8.66699 -81.999 26s-33.333 45.666 -36 84.999h59c2 -18 8.33301 -31.167 19 -39.5s24 -12.5 40 -12.5s29.333 4.16699 40 12.5s17 21.5 19 39.5h59
v0z" />
    <glyph glyph-name="ibreve" unicode="&#x12d;" horiz-adv-x="195" 
d="M57 0v518h81v-518h-81zM216 694c-2.66699 -40 -14.5 -68.667 -35.5 -86s-48.5 -26 -82.5 -26c-33.333 0 -60.5 8.66699 -81.5 26s-32.833 46 -35.5 86h58c2.66699 -18.667 9.16699 -32.167 19.5 -40.5s23.5 -12.5 39.5 -12.5c16.667 0 30.167 4.16699 40.5 12.5
s16.833 21.833 19.5 40.5h58v0z" />
    <glyph glyph-name="Iogonek" unicode="&#x12e;" horiz-adv-x="215" 
d="M64 0v712h86v-712h-86zM94 -182h-64l57 144h57z" />
    <glyph glyph-name="iogonek" unicode="&#x12f;" horiz-adv-x="195" 
d="M57 0v518h81v-518h-81zM50 610v94h95v-94h-95zM84 -182h-64l57 144h57z" />
    <glyph glyph-name="Idotaccent" unicode="&#x130;" horiz-adv-x="215" 
d="M64 0v712h86v-712h-86zM68 777v81h82v-81h-82z" />
    <glyph glyph-name="dotlessi" unicode="&#x131;" horiz-adv-x="195" 
d="M57 0v518h81v-518h-81z" />
    <glyph glyph-name="IJ" unicode="&#x132;" horiz-adv-x="576" 
d="M64 0v712h86v-712h-86zM518 170c0 -27.333 -3.66895 -51.999 -11.002 -73.999s-18.666 -40.667 -33.999 -56c-31.333 -32 -73.333 -48 -126 -48c-26.667 0 -50.667 4.66699 -72 14s-39.666 22.666 -54.999 39.999l61 57c7.33301 -9.33301 16.833 -17.333 28.5 -24
s24.167 -10 37.5 -10c24 0 44.167 8.5 60.5 25.5s24.5 42.167 24.5 75.5v542h86v-542z" />
    <glyph glyph-name="ij" unicode="&#x133;" horiz-adv-x="390" 
d="M57 0v518h81v-518h-81zM50 610v94h95v-94h-95zM333 -46c0 -28.667 -4.16602 -52.332 -12.499 -70.999s-19.5 -33.667 -33.5 -45c-15.333 -13.333 -32.5 -22 -51.5 -26s-39.5 -6 -61.5 -6v73c25.333 0 44.666 5.66699 57.999 17s20 31.666 20 60.999v561h81v-564z
M245.001 610.002v94h95v-94h-95z" />
    <glyph glyph-name="Jcircumflex" unicode="&#x134;" horiz-adv-x="361" 
d="M303 170c0 -27.333 -3.66895 -51.999 -11.002 -73.999s-18.666 -40.667 -33.999 -56c-31.333 -32 -73.333 -48 -126 -48c-26.667 0 -50.667 4.66699 -72 14s-39.666 22.666 -54.999 39.999l61 57c7.33301 -9.33301 16.833 -17.333 28.5 -24s24.167 -10 37.5 -10
c24 0 44.167 8.5 60.5 25.5s24.5 42.167 24.5 75.5v542h86v-542zM319.998 762.001l-60 87l-60 -87h-66l93 135h66l93 -135h-66z" />
    <glyph glyph-name="jcircumflex" unicode="&#x135;" horiz-adv-x="195" 
d="M138 -46c0 -28.667 -4.16602 -52.168 -12.499 -70.501s-19.5 -33.166 -33.5 -44.499c-15.333 -13.333 -32.5 -22.166 -51.5 -26.499s-39.5 -6.5 -61.5 -6.5v73c25.333 0 44.666 5.66699 57.999 17s20 31.666 20 60.999v561h81v-564zM159.001 585.999l-60 87l-59 -87h-67
l93 135h67l93 -135h-67z" />
    <glyph glyph-name="Kcommaaccent" unicode="&#x136;" horiz-adv-x="439" 
d="M338 0l-126 322l-62 -123v-199h-86v712h86v-361l172 361h88l-144 -294l165 -418h-93zM215 -182h-64l57 144h57z" />
    <glyph glyph-name="kcommaaccent" unicode="&#x137;" horiz-adv-x="395" 
d="M293 0l-99 244l-56 -89v-155h-81v712h81v-440l147 246h86l-126 -202l138 -316h-90zM192 -182h-64l57 144h57z" />
    <glyph glyph-name="kgreenlandic" unicode="&#x138;" horiz-adv-x="395" 
d="M293 0l-99 244l-56 -89v-155h-81v518h81v-246l147 246h86l-126 -202l138 -316h-90z" />
    <glyph glyph-name="Lacute" unicode="&#x139;" horiz-adv-x="361" 
d="M64 0v712h86v-635h189v-77h-275zM134 762h-62l69 135h74z" />
    <glyph glyph-name="lacute" unicode="&#x13a;" horiz-adv-x="228" 
d="M211 0c-22 0 -42.333 1.99902 -61 5.99902s-35.667 12.667 -51 26c-14 11.333 -25.167 26.333 -33.5 45s-12.5 42.334 -12.5 71.001v564h81v-561c0 -52 25.667 -78 77 -78v-73zM116 759.999h-61l68 135h74z" />
    <glyph glyph-name="Lcommaaccent" unicode="&#x13b;" horiz-adv-x="361" 
d="M64 0v712h86v-635h189v-77h-275zM191 -182h-64l57 144h57z" />
    <glyph glyph-name="lcommaaccent" unicode="&#x13c;" horiz-adv-x="228" 
d="M211 0c-22 0 -42.333 1.99902 -61 5.99902s-35.667 12.667 -51 26c-14 11.333 -25.167 26.333 -33.5 45s-12.5 42.334 -12.5 71.001v564h81v-561c0 -52 25.667 -78 77 -78v-73zM123 -182.001h-64l57 144h57z" />
    <glyph glyph-name="Lcaron" unicode="&#x13d;" horiz-adv-x="361" 
d="M64 0v712h86v-635h189v-77h-275zM268 569h-55l23 144h66z" />
    <glyph glyph-name="lcaron" unicode="&#x13e;" horiz-adv-x="228" 
d="M211 0c-22 0 -42.333 1.99902 -61 5.99902s-35.667 12.667 -51 26c-14 11.333 -25.167 26.333 -33.5 45s-12.5 42.334 -12.5 71.001v564h81v-561c0 -52 25.667 -78 77 -78v-73zM233 585.999h-55l23 144h66z" />
    <glyph glyph-name="Ldot" unicode="&#x13f;" horiz-adv-x="361" 
d="M64 0v712h86v-635h189v-77h-275zM247 317v82h81v-82h-81z" />
    <glyph glyph-name="ldot" unicode="&#x140;" horiz-adv-x="245" 
d="M216 0c-22 0 -42.333 1.99902 -61 5.99902s-35.667 12.667 -51 26c-14 11.333 -25.167 26.333 -33.5 45s-12.5 42.334 -12.5 71.001v564h81v-561c0 -52 25.667 -78 77 -78v-73zM178 262.999v82h81v-82h-81z" />
    <glyph glyph-name="Lslash" unicode="&#x141;" horiz-adv-x="370" 
d="M73 0v276l-48 -44v85l48 44v351h86v-280l94 84v-85l-94 -84v-270h188v-77h-274z" />
    <glyph glyph-name="lslash" unicode="&#x142;" horiz-adv-x="255" 
d="M235 0c-18.667 0 -36.5 1.66895 -53.5 5.00195s-32.5 9.66602 -46.5 18.999c-7.33301 5.33301 -14.666 12.333 -21.999 21c-7.33301 8 -13.333 17.167 -18 27.5s-8.33398 22.5 -11.001 36.5c-2.66699 12.667 -4.66699 25.667 -6 39s-2 27.666 -2 42.999v117l-57 -55v81
l57 56v322h81v-253l58 57v-82l-58 -56v-223c0 -24.667 5.5 -44.667 16.5 -60s31.5 -23 61.5 -23v-72z" />
    <glyph glyph-name="Nacute" unicode="&#x143;" horiz-adv-x="477" 
d="M334 0l-184 487v-487h-86v712h80l182 -487v487h86v-712h-78zM263 762h-62l69 135h74z" />
    <glyph glyph-name="nacute" unicode="&#x144;" horiz-adv-x="395" 
d="M261 0l0.00195312 381c0 23.333 -6 41 -18 53s-26.667 18 -44 18s-31.833 -6 -43.5 -18s-17.5 -29.667 -17.5 -53v-381h-81v518h78v-40c3.33301 6 8.16602 12 14.499 18s12.166 10.667 17.499 14c17.333 10.667 36 16 56 16c19.333 0 36 -3.16699 50 -9.5
s26.667 -15.833 38 -28.5c10.667 -11.333 18.5 -25 23.5 -41s7.5 -38 7.5 -66v-381h-81zM226.002 586h-61l68 135h74z" />
    <glyph glyph-name="Ncommaaccent" unicode="&#x145;" horiz-adv-x="477" 
d="M334 0l-184 487v-487h-86v712h80l182 -487v487h86v-712h-78zM215 -182h-64l57 144h57z" />
    <glyph glyph-name="ncommaaccent" unicode="&#x146;" horiz-adv-x="395" 
d="M261 0l0.00195312 381c0 23.333 -6 41 -18 53s-26.667 18 -44 18s-31.833 -6 -43.5 -18s-17.5 -29.667 -17.5 -53v-381h-81v518h78v-40c3.33301 6 8.16602 12 14.499 18s12.166 10.667 17.499 14c17.333 10.667 36 16 56 16c19.333 0 36 -3.16699 50 -9.5
s26.667 -15.833 38 -28.5c10.667 -11.333 18.5 -25 23.5 -41s7.5 -38 7.5 -66v-381h-81zM183.002 -182h-64l57 144h57z" />
    <glyph glyph-name="Ncaron" unicode="&#x147;" horiz-adv-x="477" 
d="M334 0l-184 487v-487h-86v712h80l182 -487v487h86v-712h-78zM271 758h-66l-93 134h66l60 -87l60 87h66z" />
    <glyph glyph-name="ncaron" unicode="&#x148;" horiz-adv-x="395" 
d="M261 0l0.00195312 381c0 23.333 -6 41 -18 53s-26.667 18 -44 18s-31.833 -6 -43.5 -18s-17.5 -29.667 -17.5 -53v-381h-81v518h78v-40c3.33301 6 8.16602 12 14.499 18s12.166 10.667 17.499 14c17.333 10.667 36 16 56 16c19.333 0 36 -3.16699 50 -9.5
s26.667 -15.833 38 -28.5c10.667 -11.333 18.5 -25 23.5 -41s7.5 -38 7.5 -66v-381h-81zM234.002 582h-67l-93 135h67l59 -87l60 87h67z" />
    <glyph glyph-name="napostrophe" unicode="&#x149;" horiz-adv-x="415" 
d="M281 0l0.00195312 381c0 23.333 -6 41 -18 53s-26.667 18 -44 18s-31.833 -6 -43.5 -18s-17.5 -29.667 -17.5 -53v-381h-81v518h78v-40c3.33301 6 8.16602 12 14.499 18s12.166 10.667 17.499 14c17.333 10.667 36 16 56 16c19.333 0 36 -3.16699 50 -9.5
s26.667 -15.833 38 -28.5c10.667 -11.333 18.5 -25 23.5 -41s7.5 -38 7.5 -66v-381h-81zM1.00195 558v173h66v-124z" />
    <glyph glyph-name="Eng" unicode="&#x14a;" horiz-adv-x="477" 
d="M412 -34c0 -28.667 -4.16602 -52.168 -12.499 -70.501s-19.5 -33.166 -33.5 -44.499c-15.333 -13.333 -32.5 -22.166 -51.5 -26.499s-39.5 -6.5 -61.5 -6.5v73c27.333 0 47.666 5.66699 60.999 17s20 31.666 20 60.999v31l-184 487v-487h-86v712h80l182 -487v487h86v-746
z" />
    <glyph glyph-name="eng" unicode="&#x14b;" horiz-adv-x="395" 
d="M342 -34c0 -28.667 -4.16406 -52.168 -12.4971 -70.501s-19.5 -33.166 -33.5 -44.499c-15.333 -13.333 -32.5 -22.166 -51.5 -26.499s-39.5 -6.5 -61.5 -6.5v73c25.333 0 44.666 5.66699 57.999 17s20 31.666 20 60.999v412c0 24 -6 42 -18 54s-26.667 18 -44 18
s-31.833 -6 -43.5 -18s-17.5 -30 -17.5 -54v-381h-81v518h78v-40c3.33301 6 8.16602 12 14.499 18s12.166 10.667 17.499 14c17.333 10.667 36 16 56 16c19.333 0 36 -3.16699 50 -9.5s26.667 -15.833 38 -28.5c10.667 -11.333 18.5 -25 23.5 -41s7.5 -38 7.5 -66v-415z" />
    <glyph glyph-name="Omacron" unicode="&#x14c;" horiz-adv-x="442" 
d="M395 356c0 -49.333 -0.5 -91 -1.5 -125s-3.33301 -62.667 -7 -86s-9 -42.833 -16 -58.5s-16.167 -29.834 -27.5 -42.501c-14 -15.333 -30.833 -27.833 -50.5 -37.5s-43.5 -14.5 -71.5 -14.5s-51.833 4.83301 -71.5 14.5s-36.5 22.167 -50.5 37.5
c-11.333 12.667 -20.5 26.834 -27.5 42.501s-12.333 35.167 -16 58.5s-6 52 -7 86s-1.5 75.667 -1.5 125s0.5 90.833 1.5 124.5s3.33301 62.334 7 86.001s9 43.334 16 59.001s16.167 29.834 27.5 42.501c14 15.333 30.833 27.833 50.5 37.5s43.5 14.5 71.5 14.5
s51.833 -4.83301 71.5 -14.5s36.5 -22.167 50.5 -37.5c11.333 -12.667 20.5 -26.834 27.5 -42.501s12.333 -35.334 16 -59.001s6 -52.334 7 -86.001s1.5 -75.167 1.5 -124.5zM309 356c0 42 -0.333008 77.667 -1 107s-2.16699 53.833 -4.5 73.5s-5.5 35.667 -9.5 48
s-9 22.833 -15 31.5c-6 8 -13.667 14.5 -23 19.5s-21 7.5 -35 7.5s-25.833 -2.5 -35.5 -7.5s-17.5 -11.5 -23.5 -19.5c-6 -8.66699 -11 -19.167 -15 -31.5s-7 -28.333 -9 -48s-3.33301 -44.167 -4 -73.5s-1 -65 -1 -107s0.333008 -77.667 1 -107s2 -53.833 4 -73.5
s5 -35.667 9 -48s9 -22.833 15 -31.5c6 -8 13.833 -14.5 23.5 -19.5s21.5 -7.5 35.5 -7.5s25.667 2.5 35 7.5s17 11.5 23 19.5c6 8.66699 11 19.167 15 31.5s7.16699 28.333 9.5 48s3.83301 44.167 4.5 73.5s1 65 1 107zM107 780v58h228v-58h-228z" />
    <glyph glyph-name="omacron" unicode="&#x14d;" horiz-adv-x="376" 
d="M335 259c0 -52.667 -2.16699 -97.167 -6.5 -133.5s-14.5 -64.833 -30.5 -85.5c-13.333 -17.333 -29.166 -29.666 -47.499 -36.999s-39.166 -11 -62.499 -11s-44 3.66699 -62 11s-33.667 19.666 -47 36.999c-16 20.667 -26.333 49.167 -31 85.5s-7 80.833 -7 133.5
s2.33301 97.167 7 133.5s15 64.833 31 85.5c13.333 17.333 29 29.666 47 36.999s38.667 11 62 11s44.166 -3.66699 62.499 -11s34.166 -19.666 47.499 -36.999c16 -20.667 26.167 -49.167 30.5 -85.5s6.5 -80.833 6.5 -133.5zM254 259c0 46.667 -1 83.667 -3 111
s-7.66699 47.666 -17 60.999c-10.667 14.667 -26 22 -46 22c-19.333 0 -34.333 -7.33301 -45 -22c-9.33301 -13.333 -15.166 -33.666 -17.499 -60.999s-3.5 -64.333 -3.5 -111s1.16699 -83.667 3.5 -111s8.16602 -47.666 17.499 -60.999c10.667 -14.667 25.667 -22 45 -22
c20 0 35.333 7.33301 46 22c9.33301 13.333 15 33.666 17 60.999s3 64.333 3 111zM74 608v57h229v-57h-229z" />
    <glyph glyph-name="Obreve" unicode="&#x14e;" horiz-adv-x="442" 
d="M395 356c0 -49.333 -0.5 -91 -1.5 -125s-3.33301 -62.667 -7 -86s-9 -42.833 -16 -58.5s-16.167 -29.834 -27.5 -42.501c-14 -15.333 -30.833 -27.833 -50.5 -37.5s-43.5 -14.5 -71.5 -14.5s-51.833 4.83301 -71.5 14.5s-36.5 22.167 -50.5 37.5
c-11.333 12.667 -20.5 26.834 -27.5 42.501s-12.333 35.167 -16 58.5s-6 52 -7 86s-1.5 75.667 -1.5 125s0.5 90.833 1.5 124.5s3.33301 62.334 7 86.001s9 43.334 16 59.001s16.167 29.834 27.5 42.501c14 15.333 30.833 27.833 50.5 37.5s43.5 14.5 71.5 14.5
s51.833 -4.83301 71.5 -14.5s36.5 -22.167 50.5 -37.5c11.333 -12.667 20.5 -26.834 27.5 -42.501s12.333 -35.334 16 -59.001s6 -52.334 7 -86.001s1.5 -75.167 1.5 -124.5zM309 356c0 42 -0.333008 77.667 -1 107s-2.16699 53.833 -4.5 73.5s-5.5 35.667 -9.5 48
s-9 22.833 -15 31.5c-6 8 -13.667 14.5 -23 19.5s-21 7.5 -35 7.5s-25.833 -2.5 -35.5 -7.5s-17.5 -11.5 -23.5 -19.5c-6 -8.66699 -11 -19.167 -15 -31.5s-7 -28.333 -9 -48s-3.33301 -44.167 -4 -73.5s-1 -65 -1 -107s0.333008 -77.667 1 -107s2 -53.833 4 -73.5
s5 -35.667 9 -48s9 -22.833 15 -31.5c6 -8 13.833 -14.5 23.5 -19.5s21.5 -7.5 35.5 -7.5s25.667 2.5 35 7.5s17 11.5 23 19.5c6 8.66699 11 19.167 15 31.5s7.16699 28.333 9.5 48s3.83301 44.167 4.5 73.5s1 65 1 107zM339 870
c-2.66699 -39.333 -14.6689 -67.666 -36.002 -84.999s-48.666 -26 -81.999 -26s-60.666 8.66699 -81.999 26s-33.333 45.666 -36 84.999h59c2 -18 8.33301 -31.167 19 -39.5s24 -12.5 40 -12.5s29.333 4.16699 40 12.5s17 21.5 19 39.5h59v0z" />
    <glyph glyph-name="obreve" unicode="&#x14f;" horiz-adv-x="376" 
d="M335 259c0 -52.667 -2.16699 -97.167 -6.5 -133.5s-14.5 -64.833 -30.5 -85.5c-13.333 -17.333 -29.166 -29.666 -47.499 -36.999s-39.166 -11 -62.499 -11s-44 3.66699 -62 11s-33.667 19.666 -47 36.999c-16 20.667 -26.333 49.167 -31 85.5s-7 80.833 -7 133.5
s2.33301 97.167 7 133.5s15 64.833 31 85.5c13.333 17.333 29 29.666 47 36.999s38.667 11 62 11s44.166 -3.66699 62.499 -11s34.166 -19.666 47.499 -36.999c16 -20.667 26.167 -49.167 30.5 -85.5s6.5 -80.833 6.5 -133.5zM254 259c0 46.667 -1 83.667 -3 111
s-7.66699 47.666 -17 60.999c-10.667 14.667 -26 22 -46 22c-19.333 0 -34.333 -7.33301 -45 -22c-9.33301 -13.333 -15.166 -33.666 -17.499 -60.999s-3.5 -64.333 -3.5 -111s1.16699 -83.667 3.5 -111s8.16602 -47.666 17.499 -60.999c10.667 -14.667 25.667 -22 45 -22
c20 0 35.333 7.33301 46 22c9.33301 13.333 15 33.666 17 60.999s3 64.333 3 111zM306 694c-2.66699 -40 -14.5 -68.667 -35.5 -86s-48.5 -26 -82.5 -26c-33.333 0 -60.5 8.66699 -81.5 26s-32.833 46 -35.5 86h58c2.66699 -18.667 9.16699 -32.167 19.5 -40.5
s23.5 -12.5 39.5 -12.5c16.667 0 30.167 4.16699 40.5 12.5s16.833 21.833 19.5 40.5h58v0z" />
    <glyph glyph-name="Ohungarumlaut" unicode="&#x150;" horiz-adv-x="442" 
d="M395 356c0 -49.333 -0.5 -91 -1.5 -125s-3.33301 -62.667 -7 -86s-9 -42.833 -16 -58.5s-16.167 -29.834 -27.5 -42.501c-14 -15.333 -30.833 -27.833 -50.5 -37.5s-43.5 -14.5 -71.5 -14.5s-51.833 4.83301 -71.5 14.5s-36.5 22.167 -50.5 37.5
c-11.333 12.667 -20.5 26.834 -27.5 42.501s-12.333 35.167 -16 58.5s-6 52 -7 86s-1.5 75.667 -1.5 125s0.5 90.833 1.5 124.5s3.33301 62.334 7 86.001s9 43.334 16 59.001s16.167 29.834 27.5 42.501c14 15.333 30.833 27.833 50.5 37.5s43.5 14.5 71.5 14.5
s51.833 -4.83301 71.5 -14.5s36.5 -22.167 50.5 -37.5c11.333 -12.667 20.5 -26.834 27.5 -42.501s12.333 -35.334 16 -59.001s6 -52.334 7 -86.001s1.5 -75.167 1.5 -124.5zM309 356c0 42 -0.333008 77.667 -1 107s-2.16699 53.833 -4.5 73.5s-5.5 35.667 -9.5 48
s-9 22.833 -15 31.5c-6 8 -13.667 14.5 -23 19.5s-21 7.5 -35 7.5s-25.833 -2.5 -35.5 -7.5s-17.5 -11.5 -23.5 -19.5c-6 -8.66699 -11 -19.167 -15 -31.5s-7 -28.333 -9 -48s-3.33301 -44.167 -4 -73.5s-1 -65 -1 -107s0.333008 -77.667 1 -107s2 -53.833 4 -73.5
s5 -35.667 9 -48s9 -22.833 15 -31.5c6 -8 13.833 -14.5 23.5 -19.5s21.5 -7.5 35.5 -7.5s25.667 2.5 35 7.5s17 11.5 23 19.5c6 8.66699 11 19.167 15 31.5s7.16699 28.333 9.5 48s3.83301 44.167 4.5 73.5s1 65 1 107zM180 762h-59l53 135h74zM317 762h-58l52 135h74z" />
    <glyph glyph-name="ohungarumlaut" unicode="&#x151;" horiz-adv-x="376" 
d="M335 259c0 -52.667 -2.16699 -97.167 -6.5 -133.5s-14.5 -64.833 -30.5 -85.5c-13.333 -17.333 -29.166 -29.666 -47.499 -36.999s-39.166 -11 -62.499 -11s-44 3.66699 -62 11s-33.667 19.666 -47 36.999c-16 20.667 -26.333 49.167 -31 85.5s-7 80.833 -7 133.5
s2.33301 97.167 7 133.5s15 64.833 31 85.5c13.333 17.333 29 29.666 47 36.999s38.667 11 62 11s44.166 -3.66699 62.499 -11s34.166 -19.666 47.499 -36.999c16 -20.667 26.167 -49.167 30.5 -85.5s6.5 -80.833 6.5 -133.5zM254 259c0 46.667 -1 83.667 -3 111
s-7.66699 47.666 -17 60.999c-10.667 14.667 -26 22 -46 22c-19.333 0 -34.333 -7.33301 -45 -22c-9.33301 -13.333 -15.166 -33.666 -17.499 -60.999s-3.5 -64.333 -3.5 -111s1.16699 -83.667 3.5 -111s8.16602 -47.666 17.499 -60.999c10.667 -14.667 25.667 -22 45 -22
c20 0 35.333 7.33301 46 22c9.33301 13.333 15 33.666 17 60.999s3 64.333 3 111zM147 586h-59l53 135h74zM284 586h-58l52 135h74z" />
    <glyph glyph-name="OE" unicode="&#x152;" horiz-adv-x="622" 
d="M313 0l0.00585938 33.002c-10.667 -13.333 -24.334 -23.5 -41.001 -30.5s-35 -10.5 -55 -10.5c-26.667 0 -49.834 4.66699 -69.501 14s-35.834 21.666 -48.501 36.999c-11.333 13.333 -20.333 28.833 -27 46.5s-11.834 38.834 -15.501 63.501s-6.16699 53.5 -7.5 86.5
s-2 71.833 -2 116.5s0.5 83.667 1.5 117s3.33301 62.333 7 87s9 45.667 16 63s16.167 32.666 27.5 45.999c13.333 15.333 29.666 27.666 48.999 36.999s42.333 14 69 14c20 0 38.667 -3.66699 56 -11s30.666 -17.333 39.999 -30v33h267v-77h-188v-239h162v-77h-162v-242h188
v-77h-267zM309.006 356.002c0 42 -0.333008 77.667 -1 107s-2 53.833 -4 73.5s-5 35.667 -9 48s-9.33301 22.833 -16 31.5c-5.33301 8 -13 14.5 -23 19.5s-21.667 7.5 -35 7.5c-14 0 -25.833 -2.5 -35.5 -7.5s-17.167 -11.5 -22.5 -19.5
c-6.66699 -8.66699 -12 -19.167 -16 -31.5s-7 -28.333 -9 -48s-3.33301 -44.167 -4 -73.5s-1 -65 -1 -107s0.333008 -77.667 1 -107s2 -53.833 4 -73.5s5 -35.667 9 -48s9.33301 -22.833 16 -31.5c5.33301 -8 12.833 -14.5 22.5 -19.5s21.5 -7.5 35.5 -7.5
c13.333 0 25 2.5 35 7.5s17.667 11.5 23 19.5c6.66699 8.66699 12 19.167 16 31.5s7 28.333 9 48s3.33301 44.167 4 73.5s1 65 1 107z" />
    <glyph glyph-name="oe" unicode="&#x153;" horiz-adv-x="586" 
d="M335 240c0 -41.333 1.16699 -74.3291 3.5 -98.9961s8.16602 -42.667 17.499 -54c4.66699 -6.66699 10.834 -12 18.501 -16s16.834 -6 27.501 -6c19.333 0 34.666 6.66699 45.999 20c6.66699 7.33301 11.167 16 13.5 26s3.5 21.333 3.5 34h81
c-0.666992 -24 -4.16699 -45.333 -10.5 -64s-16.833 -35.667 -31.5 -51c-24.667 -25.333 -58.667 -38 -102 -38c-18.667 0 -35.5 3 -50.5 9s-27.833 13.667 -38.5 23c-7.33301 7.33301 -13.333 15.666 -18 24.999c-4.66699 -10 -10.667 -18.333 -18 -25
c-11.333 -9.33301 -24.5 -17 -39.5 -23s-31.833 -9 -50.5 -9c-23.333 0 -44 3.66699 -62 11s-33.667 19.666 -47 36.999c-16 20.667 -26.333 49.334 -31 86.001s-7 81 -7 133c0 52.667 2.33301 97.167 7 133.5s15 64.833 31 85.5c13.333 17.333 29 29.666 47 36.999
s38.667 11 62 11c37.333 0 67.666 -11 90.999 -33c3.33301 -3.33301 6.33301 -6.83301 9 -10.5s5.33398 -7.83398 8.00098 -12.501c4 9.33301 10 17.333 18 24c25.333 21.333 54.666 32 87.999 32c20.667 0 39.334 -3 56.001 -9s31.667 -16.333 45 -31
c19.333 -20.667 31.833 -50.834 37.5 -90.501s8.5 -91.5 8.5 -155.5h-213zM466 301.004c0 38 -1.33301 67 -4 87s-8 34.667 -16 44c-5.33301 6.66699 -11.5 11.834 -18.5 15.501s-16.167 5.5 -27.5 5.5s-20.333 -1.83301 -27 -5.5s-12.667 -8.83398 -18 -15.501
c-8 -9.33301 -13.333 -24 -16 -44s-4 -49 -4 -87h131zM254 259.004c0 46.667 -1 83.667 -3 111s-7.66699 47.666 -17 60.999c-10.667 14.667 -26 22 -46 22c-19.333 0 -34.333 -7.33301 -45 -22c-9.33301 -13.333 -15.166 -33.666 -17.499 -60.999s-3.5 -64.333 -3.5 -111
s1.16699 -83.667 3.5 -111s8.16602 -47.666 17.499 -60.999c10.667 -14.667 25.667 -22 45 -22c20 0 35.333 7.33301 46 22c9.33301 13.333 15 33.666 17 60.999s3 64.333 3 111z" />
    <glyph glyph-name="Racute" unicode="&#x154;" horiz-adv-x="455" 
d="M325 0l-97.999 306h-77v-306h-86v712h161c26.667 0 50.5 -3.33301 71.5 -10s38.667 -17.667 53 -33s25.166 -36.166 32.499 -62.499s11 -58.833 11 -97.5c0 -50 -6.5 -89.833 -19.5 -119.5s-35.167 -51.834 -66.5 -66.501l109 -323h-91zM307.001 509
c0 18.667 -1.16699 35.835 -3.5 51.502s-6.5 29 -12.5 40s-14.167 19.5 -24.5 25.5s-23.833 9 -40.5 9h-76v-253h76c16.667 0 30.167 3 40.5 9s18.5 14.667 24.5 26s10.167 24.666 12.5 39.999s3.5 32.666 3.5 51.999zM242.001 762.001h-62l69 135h74z" />
    <glyph glyph-name="racute" unicode="&#x155;" horiz-adv-x="272" 
d="M232 448c-28 0 -50.668 -8.33203 -68.001 -24.999s-26 -40 -26 -70v-353h-81v518h78v-55c4 7.33301 9.33301 14.166 16 20.499s13.334 11.833 20.001 16.5c24.667 17.333 53 26 85 26v-78h-24zM167.999 586.001h-61l68 135h74z" />
    <glyph glyph-name="Rcommaaccent" unicode="&#x156;" horiz-adv-x="455" 
d="M325 0l-97.999 306h-77v-306h-86v712h161c26.667 0 50.5 -3.33301 71.5 -10s38.667 -17.667 53 -33s25.166 -36.166 32.499 -62.499s11 -58.833 11 -97.5c0 -50 -6.5 -89.833 -19.5 -119.5s-35.167 -51.834 -66.5 -66.501l109 -323h-91zM307.001 509
c0 18.667 -1.16699 35.835 -3.5 51.502s-6.5 29 -12.5 40s-14.167 19.5 -24.5 25.5s-23.833 9 -40.5 9h-76v-253h76c16.667 0 30.167 3 40.5 9s18.5 14.667 24.5 26s10.167 24.666 12.5 39.999s3.5 32.666 3.5 51.999zM213.001 -181.999h-64l57 144h57z" />
    <glyph glyph-name="rcommaaccent" unicode="&#x157;" horiz-adv-x="272" 
d="M232 448c-28 0 -50.668 -8.33203 -68.001 -24.999s-26 -40 -26 -70v-353h-81v518h78v-55c4 7.33301 9.33301 14.166 16 20.499s13.334 11.833 20.001 16.5c24.667 17.333 53 26 85 26v-78h-24zM83.999 -181.999h-64l57 144h57z" />
    <glyph glyph-name="Rcaron" unicode="&#x158;" horiz-adv-x="455" 
d="M325 0l-97.999 306h-77v-306h-86v712h161c26.667 0 50.5 -3.33301 71.5 -10s38.667 -17.667 53 -33s25.166 -36.166 32.499 -62.499s11 -58.833 11 -97.5c0 -50 -6.5 -89.833 -19.5 -119.5s-35.167 -51.834 -66.5 -66.501l109 -323h-91zM307.001 509
c0 18.667 -1.16699 35.835 -3.5 51.502s-6.5 29 -12.5 40s-14.167 19.5 -24.5 25.5s-23.833 9 -40.5 9h-76v-253h76c16.667 0 30.167 3 40.5 9s18.5 14.667 24.5 26s10.167 24.666 12.5 39.999s3.5 32.666 3.5 51.999zM250.001 758.001h-66l-93 134h66l60 -87l60 87h66z" />
    <glyph glyph-name="rcaron" unicode="&#x159;" horiz-adv-x="272" 
d="M232 448c-28 0 -50.668 -8.33203 -68.001 -24.999s-26 -40 -26 -70v-353h-81v518h78v-55c4 7.33301 9.33301 14.166 16 20.499s13.334 11.833 20.001 16.5c24.667 17.333 53 26 85 26v-78h-24zM176.999 582.001h-67l-93 135h67l59 -87l60 87h67z" />
    <glyph glyph-name="Sacute" unicode="&#x15a;" horiz-adv-x="420" 
d="M377 191c0 -37.333 -3.00195 -68.1689 -9.00195 -92.502s-17.667 -45.166 -35 -62.499c-13.333 -13.333 -30.5 -23.833 -51.5 -31.5s-45.833 -11.5 -74.5 -11.5c-54.667 0 -96.334 14.333 -125.001 43c-16.667 16.667 -28.167 36.334 -34.5 59.001s-9.5 53 -9.5 91h86
c0 -23.333 1.66699 -42.166 5 -56.499s9.66602 -26.5 18.999 -36.5c6 -6.66699 14 -12 24 -16s21.667 -6 35 -6c14.667 0 26.834 2 36.501 6s17.834 9.66699 24.501 17c9.33301 10.667 15.5 23.334 18.5 38.001s4.5 33.667 4.5 57c0 20.667 -1 38 -3 52
s-5.5 25.833 -10.5 35.5s-12 17.834 -21 24.501s-20.833 13 -35.5 19l-81 33c-18 7.33301 -33.333 15.666 -46 24.999s-22.667 20.833 -30 34.5s-12.666 30 -15.999 49s-5 42.167 -5 69.5c0 31.333 4.5 59.333 13.5 84s22.5 45.334 40.5 62.001c29.333 27.333 67 41 113 41
c26 0 48.833 -3.5 68.5 -10.5s36.167 -17.167 49.5 -30.5c18 -17.333 30.333 -37.833 37 -61.5s10 -51.834 10 -84.501h-86c0 19.333 -1.33301 35.666 -4 48.999s-8.66699 25.666 -18 36.999c-12.667 16 -32 24 -58 24c-12.667 0 -23.5 -2 -32.5 -6
s-16.5 -9.33301 -22.5 -16c-16.667 -18.667 -25 -47 -25 -85c0 -17.333 0.833008 -32 2.5 -44s5 -22.333 10 -31s12 -16 21 -22s20.5 -12 34.5 -18l80 -33c20 -8 36.5 -17.5 49.5 -28.5s23.333 -24.167 31 -39.5s12.834 -33.333 15.501 -54s4 -45 4 -73zM239.998 761.997
h-62l69 135h74z" />
    <glyph glyph-name="sacute" unicode="&#x15b;" horiz-adv-x="359" 
d="M328 141c0 -23.333 -3.99902 -43.8281 -11.999 -61.4951s-18.667 -33.167 -32 -46.5c-14 -14.667 -29.833 -25.167 -47.5 -31.5s-37.167 -9.5 -58.5 -9.5s-40.833 3.33301 -58.5 10s-32.834 16.667 -45.501 30c-29.333 30 -44 68 -44 114h80
c0 -26.667 7.33301 -47.667 22 -63c6 -6 13.167 -10.5 21.5 -13.5s16.5 -4.5 24.5 -4.5c20 0 36.333 6.33301 49 19c13.333 13.333 20 30.666 20 51.999c0 18 -4.33301 33.667 -13 47c-5.33301 7.33301 -11.666 14 -18.999 20s-16.333 11.667 -27 17l-67 34
c-33.333 16.667 -57 36.667 -71 60c-10.667 18.667 -16 41.334 -16 68.001c0 22.667 3.83301 42.5 11.5 59.5s18.167 32.167 31.5 45.5s28.666 23.166 45.999 29.499s36 9.5 56 9.5c42.667 0 76.334 -12.333 101.001 -37c28 -26.667 42 -64.667 42 -114h-80
c0 15.333 -1.5 27.666 -4.5 36.999s-7.83301 17.666 -14.5 24.999c-6 6.66699 -12.833 11.334 -20.5 14.001s-15.5 4 -23.5 4c-18.667 0 -33.667 -5.66699 -45 -17c-12.667 -12.667 -19 -29.334 -19 -50.001c0 -14.667 3 -27.334 9 -38.001
c7.33301 -12.667 21.666 -24 42.999 -34l66 -33c34.667 -16.667 59 -36.334 73 -59.001c14.667 -22 22 -49.667 22 -83zM209.001 586.005h-61l68 135h74z" />
    <glyph glyph-name="Scircumflex" unicode="&#x15c;" horiz-adv-x="420" 
d="M377 191c0 -37.333 -3.00195 -68.1689 -9.00195 -92.502s-17.667 -45.166 -35 -62.499c-13.333 -13.333 -30.5 -23.833 -51.5 -31.5s-45.833 -11.5 -74.5 -11.5c-54.667 0 -96.334 14.333 -125.001 43c-16.667 16.667 -28.167 36.334 -34.5 59.001s-9.5 53 -9.5 91h86
c0 -23.333 1.66699 -42.166 5 -56.499s9.66602 -26.5 18.999 -36.5c6 -6.66699 14 -12 24 -16s21.667 -6 35 -6c14.667 0 26.834 2 36.501 6s17.834 9.66699 24.501 17c9.33301 10.667 15.5 23.334 18.5 38.001s4.5 33.667 4.5 57c0 20.667 -1 38 -3 52
s-5.5 25.833 -10.5 35.5s-12 17.834 -21 24.501s-20.833 13 -35.5 19l-81 33c-18 7.33301 -33.333 15.666 -46 24.999s-22.667 20.833 -30 34.5s-12.666 30 -15.999 49s-5 42.167 -5 69.5c0 31.333 4.5 59.333 13.5 84s22.5 45.334 40.5 62.001c29.333 27.333 67 41 113 41
c26 0 48.833 -3.5 68.5 -10.5s36.167 -17.167 49.5 -30.5c18 -17.333 30.333 -37.833 37 -61.5s10 -51.834 10 -84.501h-86c0 19.333 -1.33301 35.666 -4 48.999s-8.66699 25.666 -18 36.999c-12.667 16 -32 24 -58 24c-12.667 0 -23.5 -2 -32.5 -6
s-16.5 -9.33301 -22.5 -16c-16.667 -18.667 -25 -47 -25 -85c0 -17.333 0.833008 -32 2.5 -44s5 -22.333 10 -31s12 -16 21 -22s20.5 -12 34.5 -18l80 -33c20 -8 36.5 -17.5 49.5 -28.5s23.333 -24.167 31 -39.5s12.834 -33.333 15.501 -54s4 -45 4 -73zM275.998 761.997
l-60 87l-60 -87h-66l93 135h66l93 -135h-66z" />
    <glyph glyph-name="scircumflex" unicode="&#x15d;" horiz-adv-x="359" 
d="M328 141c0 -23.333 -3.99902 -43.8281 -11.999 -61.4951s-18.667 -33.167 -32 -46.5c-14 -14.667 -29.833 -25.167 -47.5 -31.5s-37.167 -9.5 -58.5 -9.5s-40.833 3.33301 -58.5 10s-32.834 16.667 -45.501 30c-29.333 30 -44 68 -44 114h80
c0 -26.667 7.33301 -47.667 22 -63c6 -6 13.167 -10.5 21.5 -13.5s16.5 -4.5 24.5 -4.5c20 0 36.333 6.33301 49 19c13.333 13.333 20 30.666 20 51.999c0 18 -4.33301 33.667 -13 47c-5.33301 7.33301 -11.666 14 -18.999 20s-16.333 11.667 -27 17l-67 34
c-33.333 16.667 -57 36.667 -71 60c-10.667 18.667 -16 41.334 -16 68.001c0 22.667 3.83301 42.5 11.5 59.5s18.167 32.167 31.5 45.5s28.666 23.166 45.999 29.499s36 9.5 56 9.5c42.667 0 76.334 -12.333 101.001 -37c28 -26.667 42 -64.667 42 -114h-80
c0 15.333 -1.5 27.666 -4.5 36.999s-7.83301 17.666 -14.5 24.999c-6 6.66699 -12.833 11.334 -20.5 14.001s-15.5 4 -23.5 4c-18.667 0 -33.667 -5.66699 -45 -17c-12.667 -12.667 -19 -29.334 -19 -50.001c0 -14.667 3 -27.334 9 -38.001
c7.33301 -12.667 21.666 -24 42.999 -34l66 -33c34.667 -16.667 59 -36.334 73 -59.001c14.667 -22 22 -49.667 22 -83zM244.001 586.005l-60 87l-59 -87h-67l93 135h67l93 -135h-67z" />
    <glyph glyph-name="Scedilla" unicode="&#x15e;" horiz-adv-x="420" 
d="M377 191c0 -37.333 -3.00195 -68.1689 -9.00195 -92.502s-17.667 -45.166 -35 -62.499c-13.333 -13.333 -30.5 -23.833 -51.5 -31.5s-45.833 -11.5 -74.5 -11.5c-54.667 0 -96.334 14.333 -125.001 43c-16.667 16.667 -28.167 36.334 -34.5 59.001s-9.5 53 -9.5 91h86
c0 -23.333 1.66699 -42.166 5 -56.499s9.66602 -26.5 18.999 -36.5c6 -6.66699 14 -12 24 -16s21.667 -6 35 -6c14.667 0 26.834 2 36.501 6s17.834 9.66699 24.501 17c9.33301 10.667 15.5 23.334 18.5 38.001s4.5 33.667 4.5 57c0 20.667 -1 38 -3 52
s-5.5 25.833 -10.5 35.5s-12 17.834 -21 24.501s-20.833 13 -35.5 19l-81 33c-18 7.33301 -33.333 15.666 -46 24.999s-22.667 20.833 -30 34.5s-12.666 30 -15.999 49s-5 42.167 -5 69.5c0 31.333 4.5 59.333 13.5 84s22.5 45.334 40.5 62.001c29.333 27.333 67 41 113 41
c26 0 48.833 -3.5 68.5 -10.5s36.167 -17.167 49.5 -30.5c18 -17.333 30.333 -37.833 37 -61.5s10 -51.834 10 -84.501h-86c0 19.333 -1.33301 35.666 -4 48.999s-8.66699 25.666 -18 36.999c-12.667 16 -32 24 -58 24c-12.667 0 -23.5 -2 -32.5 -6
s-16.5 -9.33301 -22.5 -16c-16.667 -18.667 -25 -47 -25 -85c0 -17.333 0.833008 -32 2.5 -44s5 -22.333 10 -31s12 -16 21 -22s20.5 -12 34.5 -18l80 -33c20 -8 36.5 -17.5 49.5 -28.5s23.333 -24.167 31 -39.5s12.834 -33.333 15.501 -54s4 -45 4 -73zM184.998 -182.003
h-64l57 144h57z" />
    <glyph glyph-name="scedilla" unicode="&#x15f;" horiz-adv-x="359" 
d="M328 141c0 -23.333 -3.99902 -43.8281 -11.999 -61.4951s-18.667 -33.167 -32 -46.5c-14 -14.667 -29.833 -25.167 -47.5 -31.5s-37.167 -9.5 -58.5 -9.5s-40.833 3.33301 -58.5 10s-32.834 16.667 -45.501 30c-29.333 30 -44 68 -44 114h80
c0 -26.667 7.33301 -47.667 22 -63c6 -6 13.167 -10.5 21.5 -13.5s16.5 -4.5 24.5 -4.5c20 0 36.333 6.33301 49 19c13.333 13.333 20 30.666 20 51.999c0 18 -4.33301 33.667 -13 47c-5.33301 7.33301 -11.666 14 -18.999 20s-16.333 11.667 -27 17l-67 34
c-33.333 16.667 -57 36.667 -71 60c-10.667 18.667 -16 41.334 -16 68.001c0 22.667 3.83301 42.5 11.5 59.5s18.167 32.167 31.5 45.5s28.666 23.166 45.999 29.499s36 9.5 56 9.5c42.667 0 76.334 -12.333 101.001 -37c28 -26.667 42 -64.667 42 -114h-80
c0 15.333 -1.5 27.666 -4.5 36.999s-7.83301 17.666 -14.5 24.999c-6 6.66699 -12.833 11.334 -20.5 14.001s-15.5 4 -23.5 4c-18.667 0 -33.667 -5.66699 -45 -17c-12.667 -12.667 -19 -29.334 -19 -50.001c0 -14.667 3 -27.334 9 -38.001
c7.33301 -12.667 21.666 -24 42.999 -34l66 -33c34.667 -16.667 59 -36.334 73 -59.001c14.667 -22 22 -49.667 22 -83zM158.001 -181.995h-64l57 144h57z" />
    <glyph glyph-name="Scaron" unicode="&#x160;" horiz-adv-x="420" 
d="M377 191c0 -37.333 -3.00195 -68.1689 -9.00195 -92.502s-17.667 -45.166 -35 -62.499c-13.333 -13.333 -30.5 -23.833 -51.5 -31.5s-45.833 -11.5 -74.5 -11.5c-54.667 0 -96.334 14.333 -125.001 43c-16.667 16.667 -28.167 36.334 -34.5 59.001s-9.5 53 -9.5 91h86
c0 -23.333 1.66699 -42.166 5 -56.499s9.66602 -26.5 18.999 -36.5c6 -6.66699 14 -12 24 -16s21.667 -6 35 -6c14.667 0 26.834 2 36.501 6s17.834 9.66699 24.501 17c9.33301 10.667 15.5 23.334 18.5 38.001s4.5 33.667 4.5 57c0 20.667 -1 38 -3 52
s-5.5 25.833 -10.5 35.5s-12 17.834 -21 24.501s-20.833 13 -35.5 19l-81 33c-18 7.33301 -33.333 15.666 -46 24.999s-22.667 20.833 -30 34.5s-12.666 30 -15.999 49s-5 42.167 -5 69.5c0 31.333 4.5 59.333 13.5 84s22.5 45.334 40.5 62.001c29.333 27.333 67 41 113 41
c26 0 48.833 -3.5 68.5 -10.5s36.167 -17.167 49.5 -30.5c18 -17.333 30.333 -37.833 37 -61.5s10 -51.834 10 -84.501h-86c0 19.333 -1.33301 35.666 -4 48.999s-8.66699 25.666 -18 36.999c-12.667 16 -32 24 -58 24c-12.667 0 -23.5 -2 -32.5 -6
s-16.5 -9.33301 -22.5 -16c-16.667 -18.667 -25 -47 -25 -85c0 -17.333 0.833008 -32 2.5 -44s5 -22.333 10 -31s12 -16 21 -22s20.5 -12 34.5 -18l80 -33c20 -8 36.5 -17.5 49.5 -28.5s23.333 -24.167 31 -39.5s12.834 -33.333 15.501 -54s4 -45 4 -73zM251.998 757.997
h-66l-93 134h66l60 -87l60 87h66z" />
    <glyph glyph-name="scaron" unicode="&#x161;" horiz-adv-x="359" 
d="M328 141c0 -23.333 -3.99902 -43.8281 -11.999 -61.4951s-18.667 -33.167 -32 -46.5c-14 -14.667 -29.833 -25.167 -47.5 -31.5s-37.167 -9.5 -58.5 -9.5s-40.833 3.33301 -58.5 10s-32.834 16.667 -45.501 30c-29.333 30 -44 68 -44 114h80
c0 -26.667 7.33301 -47.667 22 -63c6 -6 13.167 -10.5 21.5 -13.5s16.5 -4.5 24.5 -4.5c20 0 36.333 6.33301 49 19c13.333 13.333 20 30.666 20 51.999c0 18 -4.33301 33.667 -13 47c-5.33301 7.33301 -11.666 14 -18.999 20s-16.333 11.667 -27 17l-67 34
c-33.333 16.667 -57 36.667 -71 60c-10.667 18.667 -16 41.334 -16 68.001c0 22.667 3.83301 42.5 11.5 59.5s18.167 32.167 31.5 45.5s28.666 23.166 45.999 29.499s36 9.5 56 9.5c42.667 0 76.334 -12.333 101.001 -37c28 -26.667 42 -64.667 42 -114h-80
c0 15.333 -1.5 27.666 -4.5 36.999s-7.83301 17.666 -14.5 24.999c-6 6.66699 -12.833 11.334 -20.5 14.001s-15.5 4 -23.5 4c-18.667 0 -33.667 -5.66699 -45 -17c-12.667 -12.667 -19 -29.334 -19 -50.001c0 -14.667 3 -27.334 9 -38.001
c7.33301 -12.667 21.666 -24 42.999 -34l66 -33c34.667 -16.667 59 -36.334 73 -59.001c14.667 -22 22 -49.667 22 -83zM218.001 582.005h-67l-93 135h67l59 -87l60 87h67z" />
    <glyph glyph-name="Tcommaaccent" unicode="&#x162;" horiz-adv-x="367" 
d="M227 635v-635h-86v635h-120v77h325v-77h-119zM163 -182h-64l57 144h57z" />
    <glyph glyph-name="tcommaaccent" unicode="&#x163;" horiz-adv-x="260" 
d="M240 0c-23.333 0 -44.832 1.83203 -64.499 5.49902s-37.834 12.5 -54.501 26.5c-30 24.667 -45 63.334 -45 116.001v307h-59v63h59v142h81v-142h80v-63h-80v-304c0 -28 7 -48 21 -60s34.667 -18 62 -18v-73zM145.001 -182.001h-64l57 144h57z" />
    <glyph glyph-name="Tcaron" unicode="&#x164;" horiz-adv-x="367" 
d="M227 635v-635h-86v635h-120v77h325v-77h-119zM216 758h-66l-93 134h66l60 -87l60 87h66z" />
    <glyph glyph-name="tcaron" unicode="&#x165;" horiz-adv-x="260" 
d="M240 0c-23.333 0 -44.832 1.83203 -64.499 5.49902s-37.834 12.5 -54.501 26.5c-30 24.667 -45 63.334 -45 116.001v307h-59v63h59v142h81v-142h80v-63h-80v-304c0 -28 7 -48 21 -60s34.667 -18 62 -18v-73zM253.001 585.999h-55l23 144h66z" />
    <glyph glyph-name="Tbar" unicode="&#x166;" horiz-adv-x="367" 
d="M227 323v-323h-86v323h-67v69h67v243h-120v77h325v-77h-119v-243h66v-69h-66z" />
    <glyph glyph-name="tbar" unicode="&#x167;" horiz-adv-x="260" 
d="M240 0c-23.333 0 -44.832 1.83203 -64.499 5.49902s-37.834 12.5 -54.501 26.5c-30 24.667 -45 63.334 -45 116.001v124h-59v63h59v120h-59v63h59v142h81v-142h80v-63h-80v-120h80v-63h-80v-121c0 -28 7 -48 21 -60s34.667 -18 62 -18v-73z" />
    <glyph glyph-name="Utilde" unicode="&#x168;" horiz-adv-x="445" 
d="M387 162c0 -26 -4.00195 -49.333 -12.002 -70s-19.333 -38.334 -34 -53.001c-15.333 -15.333 -33.166 -27 -53.499 -35s-42.166 -12 -65.499 -12c-47.333 0 -86.666 15.667 -117.999 47c-14.667 14.667 -26 32.334 -34 53.001s-12 44 -12 70v550h86v-555
c0 -28 7.66699 -49.667 23 -65s33.666 -23 54.999 -23s39.833 7.66699 55.5 23s23.5 37 23.5 65v555h86v-550zM353.998 814c-11.333 -11.333 -23.3301 -21.1689 -35.9971 -29.502s-27.334 -12.5 -44.001 -12.5c-13.333 0 -24.333 1.66699 -33 5s-16.667 7 -24 11l-21 11
c-6.66699 3.33301 -14.334 5 -23.001 5c-9.33301 0 -17.5 -2.33301 -24.5 -7s-13.833 -10 -20.5 -16l-36 37c14 14.667 27 25.5 39 32.5s25.333 10.5 40 10.5c13.333 0 24.166 -1.66699 32.499 -5s16 -7.16602 23 -11.499s13.833 -8.16602 20.5 -11.499s15 -5 25 -5
s18.333 2.33301 25 7s13 10 19 16l38 -37v0z" />
    <glyph glyph-name="utilde" unicode="&#x169;" horiz-adv-x="395" 
d="M260 0l-0.00195312 40c-3.33301 -6 -8.16602 -12 -14.499 -18s-12.166 -10.667 -17.499 -14c-17.333 -10.667 -36 -16 -56 -16c-19.333 0 -36 3.16699 -50 9.5s-26.667 15.833 -38 28.5c-10.667 11.333 -18.5 25 -23.5 41s-7.5 38 -7.5 66v381h81v-381
c0 -24 6 -42 18 -54s26.667 -18 44 -18s31.833 6 43.5 18s17.5 30 17.5 54v381h81v-518h-78zM328.998 638c-17.333 -16.667 -32.002 -27.834 -44.002 -33.501s-24 -8.5 -36 -8.5c-11.333 0 -21.333 1.5 -30 4.5s-18 7.16699 -28 12.5
c-7.33301 4.66699 -14.333 8.33398 -21 11.001s-14 4 -22 4c-6.66699 0 -13 -1 -19 -3s-14.667 -8.66699 -26 -20l-36 38c16.667 16.667 30.834 27.834 42.501 33.501s23.834 8.5 36.501 8.5c11.333 0 21.333 -1.33301 30 -4s18 -7 28 -13
c7.33301 -4.66699 14.333 -8.33398 21 -11.001s14 -4 22 -4c6 0 12.167 1.16699 18.5 3.5s14.833 8.83301 25.5 19.5l38 -38v0z" />
    <glyph glyph-name="Umacron" unicode="&#x16a;" horiz-adv-x="445" 
d="M387 162c0 -26 -4.00195 -49.333 -12.002 -70s-19.333 -38.334 -34 -53.001c-15.333 -15.333 -33.166 -27 -53.499 -35s-42.166 -12 -65.499 -12c-47.333 0 -86.666 15.667 -117.999 47c-14.667 14.667 -26 32.334 -34 53.001s-12 44 -12 70v550h86v-555
c0 -28 7.66699 -49.667 23 -65s33.666 -23 54.999 -23s39.833 7.66699 55.5 23s23.5 37 23.5 65v555h86v-550zM107.998 780v58h228v-58h-228z" />
    <glyph glyph-name="umacron" unicode="&#x16b;" horiz-adv-x="395" 
d="M260 0l-0.00195312 40c-3.33301 -6 -8.16602 -12 -14.499 -18s-12.166 -10.667 -17.499 -14c-17.333 -10.667 -36 -16 -56 -16c-19.333 0 -36 3.16699 -50 9.5s-26.667 15.833 -38 28.5c-10.667 11.333 -18.5 25 -23.5 41s-7.5 38 -7.5 66v381h81v-381
c0 -24 6 -42 18 -54s26.667 -18 44 -18s31.833 6 43.5 18s17.5 30 17.5 54v381h81v-518h-78zM80.998 608v57h229v-57h-229z" />
    <glyph glyph-name="Ubreve" unicode="&#x16c;" horiz-adv-x="445" 
d="M387 162c0 -26 -4.00195 -49.333 -12.002 -70s-19.333 -38.334 -34 -53.001c-15.333 -15.333 -33.166 -27 -53.499 -35s-42.166 -12 -65.499 -12c-47.333 0 -86.666 15.667 -117.999 47c-14.667 14.667 -26 32.334 -34 53.001s-12 44 -12 70v550h86v-555
c0 -28 7.66699 -49.667 23 -65s33.666 -23 54.999 -23s39.833 7.66699 55.5 23s23.5 37 23.5 65v555h86v-550zM339.998 866c-2.66699 -39.333 -14.6689 -67.666 -36.002 -84.999s-48.666 -26 -81.999 -26s-60.666 8.66699 -81.999 26s-33.333 45.666 -36 84.999h59
c2 -18 8.33301 -31.167 19 -39.5s24 -12.5 40 -12.5s29.333 4.16699 40 12.5s17 21.5 19 39.5h59v0z" />
    <glyph glyph-name="ubreve" unicode="&#x16d;" horiz-adv-x="395" 
d="M260 0l-0.00195312 40c-3.33301 -6 -8.16602 -12 -14.499 -18s-12.166 -10.667 -17.499 -14c-17.333 -10.667 -36 -16 -56 -16c-19.333 0 -36 3.16699 -50 9.5s-26.667 15.833 -38 28.5c-10.667 11.333 -18.5 25 -23.5 41s-7.5 38 -7.5 66v381h81v-381
c0 -24 6 -42 18 -54s26.667 -18 44 -18s31.833 6 43.5 18s17.5 30 17.5 54v381h81v-518h-78zM312.998 694c-2.66699 -40 -14.5 -68.667 -35.5 -86s-48.5 -26 -82.5 -26c-33.333 0 -60.5 8.66699 -81.5 26s-32.833 46 -35.5 86h58
c2.66699 -18.667 9.16699 -32.167 19.5 -40.5s23.5 -12.5 39.5 -12.5c16.667 0 30.167 4.16699 40.5 12.5s16.833 21.833 19.5 40.5h58v0z" />
    <glyph glyph-name="Uring" unicode="&#x16e;" horiz-adv-x="445" 
d="M387 162c0 -26 -4.00195 -49.333 -12.002 -70s-19.333 -38.334 -34 -53.001c-15.333 -15.333 -33.166 -27 -53.499 -35s-42.166 -12 -65.499 -12c-47.333 0 -86.666 15.667 -117.999 47c-14.667 14.667 -26 32.334 -34 53.001s-12 44 -12 70v550h86v-555
c0 -28 7.66699 -49.667 23 -65s33.666 -23 54.999 -23s39.833 7.66699 55.5 23s23.5 37 23.5 65v555h86v-550zM319.998 850c0 -27.333 -9.5 -50.5 -28.5 -69.5s-42.167 -28.5 -69.5 -28.5s-50.5 9.5 -69.5 28.5s-28.5 42.167 -28.5 69.5s9.5 50.5 28.5 69.5
s42.167 28.5 69.5 28.5s50.5 -9.5 69.5 -28.5s28.5 -42.167 28.5 -69.5zM270.998 850c0 13.333 -4.83301 24.833 -14.5 34.5s-21.167 14.5 -34.5 14.5s-24.833 -4.83301 -34.5 -14.5s-14.5 -21.167 -14.5 -34.5s4.83301 -24.833 14.5 -34.5s21.167 -14.5 34.5 -14.5
s24.833 4.83301 34.5 14.5s14.5 21.167 14.5 34.5z" />
    <glyph glyph-name="uring" unicode="&#x16f;" horiz-adv-x="395" 
d="M260 0l-0.00195312 40c-3.33301 -6 -8.16602 -12 -14.499 -18s-12.166 -10.667 -17.499 -14c-17.333 -10.667 -36 -16 -56 -16c-19.333 0 -36 3.16699 -50 9.5s-26.667 15.833 -38 28.5c-10.667 11.333 -18.5 25 -23.5 41s-7.5 38 -7.5 66v381h81v-381
c0 -24 6 -42 18 -54s26.667 -18 44 -18s31.833 6 43.5 18s17.5 30 17.5 54v381h81v-518h-78zM292.998 681c0 -27.333 -9.5 -50.5 -28.5 -69.5s-42.167 -28.5 -69.5 -28.5c-13.333 0 -25.833 2.5 -37.5 7.5s-22 12 -31 21s-16 19.5 -21 31.5s-7.5 24.667 -7.5 38
s2.5 26 7.5 38s12 22.5 21 31.5s19.333 16 31 21s24.167 7.5 37.5 7.5c27.333 0 50.5 -9.5 69.5 -28.5s28.5 -42.167 28.5 -69.5zM244.998 681c0 13.333 -5 24.833 -15 34.5s-21.667 14.5 -35 14.5s-24.833 -4.83301 -34.5 -14.5s-14.5 -21.167 -14.5 -34.5
s4.83301 -24.833 14.5 -34.5s21.167 -14.5 34.5 -14.5s25 4.83301 35 14.5s15 21.167 15 34.5z" />
    <glyph glyph-name="Uhungarumlaut" unicode="&#x170;" horiz-adv-x="445" 
d="M387 162c0 -26 -4.00195 -49.333 -12.002 -70s-19.333 -38.334 -34 -53.001c-15.333 -15.333 -33.166 -27 -53.499 -35s-42.166 -12 -65.499 -12c-47.333 0 -86.666 15.667 -117.999 47c-14.667 14.667 -26 32.334 -34 53.001s-12 44 -12 70v550h86v-555
c0 -28 7.66699 -49.667 23 -65s33.666 -23 54.999 -23s39.833 7.66699 55.5 23s23.5 37 23.5 65v555h86v-550zM180.998 762h-59l53 135h74zM317.998 762h-58l52 135h74z" />
    <glyph glyph-name="uhungarumlaut" unicode="&#x171;" horiz-adv-x="395" 
d="M260 0l-0.00195312 40c-3.33301 -6 -8.16602 -12 -14.499 -18s-12.166 -10.667 -17.499 -14c-17.333 -10.667 -36 -16 -56 -16c-19.333 0 -36 3.16699 -50 9.5s-26.667 15.833 -38 28.5c-10.667 11.333 -18.5 25 -23.5 41s-7.5 38 -7.5 66v381h81v-381
c0 -24 6 -42 18 -54s26.667 -18 44 -18s31.833 6 43.5 18s17.5 30 17.5 54v381h81v-518h-78zM153.998 586h-59l53 135h74zM290.998 586h-58l52 135h74z" />
    <glyph glyph-name="Uogonek" unicode="&#x172;" horiz-adv-x="445" 
d="M387 162c0 -26 -4.00195 -49.333 -12.002 -70s-19.333 -38.334 -34 -53.001c-15.333 -15.333 -33.166 -27 -53.499 -35s-42.166 -12 -65.499 -12c-47.333 0 -86.666 15.667 -117.999 47c-14.667 14.667 -26 32.334 -34 53.001s-12 44 -12 70v550h86v-555
c0 -28 7.66699 -49.667 23 -65s33.666 -23 54.999 -23s39.833 7.66699 55.5 23s23.5 37 23.5 65v555h86v-550zM275.998 -182h-64l57 144h57z" />
    <glyph glyph-name="uogonek" unicode="&#x173;" horiz-adv-x="395" 
d="M260 0l-0.00195312 40c-3.33301 -6 -8.16602 -12 -14.499 -18s-12.166 -10.667 -17.499 -14c-17.333 -10.667 -36 -16 -56 -16c-19.333 0 -36 3.16699 -50 9.5s-26.667 15.833 -38 28.5c-10.667 11.333 -18.5 25 -23.5 41s-7.5 38 -7.5 66v381h81v-381
c0 -24 6 -42 18 -54s26.667 -18 44 -18s31.833 6 43.5 18s17.5 30 17.5 54v381h81v-518h-78zM281.998 -182h-64l57 144h57z" />
    <glyph glyph-name="Wcircumflex" unicode="&#x174;" horiz-adv-x="652" 
d="M526 0h-89l-111 573l-110 -573h-89l-123 712h95l73 -573l106 573h96l108 -573l72 573h94zM386 762l-60 87l-60 -87h-66l93 135h66l93 -135h-66z" />
    <glyph glyph-name="wcircumflex" unicode="&#x175;" horiz-adv-x="526" 
d="M413 0h-82l-70 379l-68 -379h-82l-107 518h92l59 -390l69 390h73l73 -390l60 390h92zM323 586l-60 87l-59 -87h-67l93 135h67l93 -135h-67z" />
    <glyph glyph-name="Ycircumflex" unicode="&#x176;" horiz-adv-x="353" 
d="M219 288v-288h-86v288l-131 424h94l80 -304l80 304h95zM237 762l-60 87l-60 -87h-66l93 135h66l93 -135h-66z" />
    <glyph glyph-name="ycircumflex" unicode="&#x177;" horiz-adv-x="345" 
d="M193 -83c-5.33301 -23.333 -13.3301 -42.166 -23.9971 -56.499s-23.334 -25.5 -38.001 -33.5s-31.334 -13.5 -50.001 -16.5s-38.667 -4.5 -60 -4.5v72c25.333 0 45.666 4.16699 60.999 12.5s26 24.166 32 47.499l16 63l-126 517h89l79 -389l78 389h89zM232.003 586
l-60 87l-59 -87h-67l93 135h67l93 -135h-67z" />
    <glyph glyph-name="Ydieresis" unicode="&#x178;" horiz-adv-x="353" 
d="M219 288v-288h-86v288l-131 424h94l80 -304l80 304h95zM215 777v81h82v-81h-82zM59 777v81h82v-81h-82z" />
    <glyph glyph-name="Zacute" unicode="&#x179;" horiz-adv-x="349" 
d="M31 0v65l198 570h-185v77h274v-65l-197 -570h197v-77h-287zM207 762h-62l69 135h74z" />
    <glyph glyph-name="zacute" unicode="&#x17a;" horiz-adv-x="301" 
d="M24 0v62l163 384h-152v72h242v-62l-163 -383h163v-73h-253zM184 586h-61l68 135h74z" />
    <glyph glyph-name="Zdotaccent" unicode="&#x17b;" horiz-adv-x="349" 
d="M31 0v65l198 570h-185v77h274v-65l-197 -570h197v-77h-287zM141 777v81h82v-81h-82z" />
    <glyph glyph-name="zdotaccent" unicode="&#x17c;" horiz-adv-x="301" 
d="M24 0v62l163 384h-152v72h242v-62l-163 -383h163v-73h-253zM118 604v82h81v-82h-81z" />
    <glyph glyph-name="Zcaron" unicode="&#x17d;" horiz-adv-x="349" 
d="M31 0v65l198 570h-185v77h274v-65l-197 -570h197v-77h-287zM215 758h-66l-93 134h66l60 -87l60 87h66z" />
    <glyph glyph-name="zcaron" unicode="&#x17e;" horiz-adv-x="301" 
d="M24 0v62l163 384h-152v72h242v-62l-163 -383h163v-73h-253zM192 582h-67l-93 135h67l59 -87l60 87h67z" />
    <glyph glyph-name="longs" unicode="&#x17f;" horiz-adv-x="195" 
d="M138 0l-81.001 0.000976562v568c0 27.333 3.83301 50.333 11.5 69s18.834 34 33.501 46c16 13.333 33.833 22.166 53.5 26.499s40.5 6.5 62.5 6.5v-73c-53.333 0 -80 -26 -80 -78v-565z" />
    <glyph glyph-name="uni018F" unicode="&#x18f;" horiz-adv-x="434" 
d="M47 382l252.999 0.00488281c0 36.667 -0.5 68 -1.5 94s-2.66699 48 -5 66s-5.33301 32.833 -9 44.5s-8.5 21.5 -14.5 29.5s-13.667 14.5 -23 19.5s-21 7.5 -35 7.5c-16.667 0 -30 -3.33301 -40 -10s-17.833 -15.167 -23.5 -25.5s-9.66699 -22 -12 -35
s-3.5 -25.5 -3.5 -37.5h-86c1.33301 29.333 5.83301 56 13.5 80s19.834 44.333 36.501 61c13.333 13.333 29.5 24 48.5 32s41.167 12 66.5 12c28 0 52 -4.83301 72 -14.5s36.667 -22.167 50 -37.5c11.333 -12.667 20.5 -26.834 27.5 -42.501s12.333 -35.334 16 -59.001
s6 -52.334 7 -86.001s1.5 -75.167 1.5 -124.5s-0.5 -91 -1.5 -125s-3.33301 -62.667 -7 -86s-9 -42.833 -16 -58.5s-16.167 -29.834 -27.5 -42.501c-13.333 -15.333 -30 -27.833 -50 -37.5s-44 -14.5 -72 -14.5c-23.333 0 -45 3.83301 -65 11.5s-37.5 19 -52.5 34
s-26.667 33.667 -35 56s-12.5 48.166 -12.5 77.499v211zM132.999 168.005c0 -29.333 6.83301 -53.167 20.5 -71.5s33.167 -27.5 58.5 -27.5c14 0 25.667 2.5 35 7.5s17 11.5 23 19.5c6 7.33301 10.833 16.5 14.5 27.5s6.66699 24.667 9 41s4 36.5 5 60.5s1.5 52.667 1.5 86
h-167v-143z" />
    <glyph glyph-name="florin" unicode="&#x192;" horiz-adv-x="351" 
d="M299 644c-19.333 0 -35.833 -5.66797 -49.5 -17.001s-22.5 -27.666 -26.5 -48.999l-35 -193h79v-62h-90l-97 -517h-80l96 517h-54v62h66l35 197c8 46 26.5 79.833 55.5 101.5s62.5 32.5 100.5 32.5h30v-72h-30z" />
    <glyph glyph-name="uni01B5" unicode="&#x1b5;" horiz-adv-x="349" 
d="M31 0v65l90 258h-55v69h79l84 243h-185v77h274v-65l-88 -255h55v-69h-79l-85 -246h197v-77h-287z" />
    <glyph glyph-name="uni01B6" unicode="&#x1b6;" horiz-adv-x="301" 
d="M24 0v62l72 169h-51v57h75l67 158h-152v72h242v-62l-72 -168h52v-57h-76l-67 -158h163v-73h-253z" />
    <glyph glyph-name="uni01C4" unicode="&#x1c4;" horiz-adv-x="797" 
d="M401 356c0 -48 -0.5 -88.6709 -1.5 -122.004s-3.33301 -61.666 -7 -84.999s-8.83398 -42.666 -15.501 -57.999s-15.667 -29 -27 -41c-13.333 -14.667 -29.666 -26.667 -48.999 -36s-43.666 -14 -72.999 -14h-164v712h164c29.333 0 53.666 -4.66699 72.999 -14
s35.666 -21.333 48.999 -36c11.333 -12 20.333 -25.667 27 -41s11.834 -34.666 15.501 -57.999s6 -51.666 7 -84.999s1.5 -74 1.5 -122zM315 355.996c0 40.667 -0.166992 75.168 -0.5 103.501s-1.5 52.166 -3.5 71.499s-5 35 -9 47s-9.33301 22 -16 30s-15 14.5 -25 19.5
s-22 7.5 -36 7.5h-75v-558h75c14 0 26 2.5 36 7.5s18.333 11.5 25 19.5s12 18 16 30s7 27.667 9 47s3.16699 43 3.5 71s0.5 62.667 0.5 104zM479 -0.00292969v65l198 570h-185v77h274v-65l-197 -570h197v-77h-287zM662 757.997h-66l-93 134h66l60 -87l60 87h66z" />
    <glyph glyph-name="uni01C5" unicode="&#x1c5;" horiz-adv-x="749" 
d="M401 356c0 -48 -0.5 -88.6709 -1.5 -122.004s-3.33301 -61.666 -7 -84.999s-8.83398 -42.666 -15.501 -57.999s-15.667 -29 -27 -41c-13.333 -14.667 -29.666 -26.667 -48.999 -36s-43.666 -14 -72.999 -14h-164v712h164c29.333 0 53.666 -4.66699 72.999 -14
s35.666 -21.333 48.999 -36c11.333 -12 20.333 -25.667 27 -41s11.834 -34.666 15.501 -57.999s6 -51.666 7 -84.999s1.5 -74 1.5 -122zM315 355.996c0 40.667 -0.166992 75.168 -0.5 103.501s-1.5 52.166 -3.5 71.499s-5 35 -9 47s-9.33301 22 -16 30s-15 14.5 -25 19.5
s-22 7.5 -36 7.5h-75v-558h75c14 0 26 2.5 36 7.5s18.333 11.5 25 19.5s12 18 16 30s7 27.667 9 47s3.16699 43 3.5 71s0.5 62.667 0.5 104zM472 -0.00292969v62l163 384h-152v72h242v-62l-163 -383h163v-73h-253zM639 581.997h-67l-93 135h67l59 -87l60 87h67z" />
    <glyph glyph-name="uni01C6" unicode="&#x1c6;" horiz-adv-x="688" 
d="M251 0l0.000976562 39.999c-2.66699 -5.33301 -7.33398 -11.333 -14.001 -18s-12.334 -11.334 -17.001 -14.001c-18 -10.667 -36.667 -16 -56 -16c-35.333 0 -64 13 -86 39c-16.667 19.333 -27.167 47 -31.5 83s-6.5 84.333 -6.5 145c0 60 2.16699 108.333 6.5 145
s14.833 64.667 31.5 84c10.667 12.667 22.834 22.167 36.501 28.5s30.167 9.5 49.5 9.5c20 0 38.667 -5 56 -15c5.33301 -3.33301 10.5 -7.66602 15.5 -12.999s9.5 -10.666 13.5 -15.999v230h81v-712h-79zM249.001 377.999c0 14 -1.66406 25.6689 -4.99707 35.002
s-8.33301 17.333 -15 24c-10.667 10.667 -24.667 16 -42 16c-18.667 0 -33.334 -7 -44.001 -21c-4.66699 -5.33301 -8.33398 -12.333 -11.001 -21s-4.83398 -19.834 -6.50098 -33.501s-2.66699 -30.167 -3 -49.5s-0.5 -42.333 -0.5 -69
c0 -53.333 1.16699 -92.833 3.5 -118.5s8.16602 -43.834 17.499 -54.501c10.667 -14 25.334 -21 44.001 -21c17.333 0 31.333 5.33301 42 16c13.333 13.333 20 33.333 20 60v237zM411.004 0.000976562v62l163 384h-152v72h242v-62l-163 -383h163v-73h-253zM578.004 582.001
h-67l-93 135h67l59 -87l60 87h67z" />
    <glyph glyph-name="uni01C7" unicode="&#x1c7;" horiz-adv-x="722" 
d="M64 0v712h86v-635h189v-77h-275zM664 170c0 -27.333 -3.66895 -51.999 -11.002 -73.999s-18.666 -40.667 -33.999 -56c-31.333 -32 -73.333 -48 -126 -48c-26.667 0 -50.667 4.66699 -72 14s-39.666 22.666 -54.999 39.999l61 57
c7.33301 -9.33301 16.833 -17.333 28.5 -24s24.167 -10 37.5 -10c24 0 44.167 8.5 60.5 25.5s24.5 42.167 24.5 75.5v542h86v-542z" />
    <glyph glyph-name="uni01C8" unicode="&#x1c8;" horiz-adv-x="556" 
d="M64 0v712h86v-635h189v-77h-275zM499 -46c0 -28.667 -4.16602 -52.332 -12.499 -70.999s-19.5 -33.667 -33.5 -45c-15.333 -13.333 -32.5 -22 -51.5 -26s-39.5 -6 -61.5 -6v73c25.333 0 44.666 5.66699 57.999 17s20 31.666 20 60.999v561h81v-564zM411.001 610.002v94
h95v-94h-95z" />
    <glyph glyph-name="uni01C9" unicode="&#x1c9;" horiz-adv-x="423" 
d="M216 0c-22 0 -42.333 1.99902 -61 5.99902s-35.667 12.667 -51 26c-14 11.333 -25.167 26.333 -33.5 45s-12.5 42.334 -12.5 71.001v564h81v-561c0 -52 25.667 -78 77 -78v-73zM366 -46.001c0 -28.667 -4.16602 -52.332 -12.499 -70.999s-19.5 -33.667 -33.5 -45
c-15.333 -13.333 -32.5 -22 -51.5 -26s-39.5 -6 -61.5 -6v73c25.333 0 44.666 5.66699 57.999 17s20 31.666 20 60.999v561h81v-564zM278.001 610.001v94h95v-94h-95z" />
    <glyph glyph-name="uni01CA" unicode="&#x1ca;" horiz-adv-x="838" 
d="M334 0l-184 487v-487h-86v712h80l182 -487v487h86v-712h-78zM780 170c0 -27.333 -3.66895 -51.999 -11.002 -73.999s-18.666 -40.667 -33.999 -56c-31.333 -32 -73.333 -48 -126 -48c-26.667 0 -50.667 4.66699 -72 14s-39.666 22.666 -54.999 39.999l61 57
c7.33301 -9.33301 16.833 -17.333 28.5 -24s24.167 -10 37.5 -10c24 0 44.167 8.5 60.5 25.5s24.5 42.167 24.5 75.5v542h86v-542z" />
    <glyph glyph-name="uni01CB" unicode="&#x1cb;" horiz-adv-x="672" 
d="M334 0l-184 487v-487h-86v712h80l182 -487v487h86v-712h-78zM615 -46c0 -28.667 -4.16602 -52.332 -12.499 -70.999s-19.5 -33.667 -33.5 -45c-15.333 -13.333 -32.5 -22 -51.5 -26s-39.5 -6 -61.5 -6v73c25.333 0 44.666 5.66699 57.999 17s20 31.666 20 60.999v561h81
v-564zM527.001 610.002v94h95v-94h-95z" />
    <glyph glyph-name="uni01CC" unicode="&#x1cc;" horiz-adv-x="590" 
d="M261 0l0.00195312 381c0 23.333 -6 41 -18 53s-26.667 18 -44 18s-31.833 -6 -43.5 -18s-17.5 -29.667 -17.5 -53v-381h-81v518h78v-40c3.33301 6 8.16602 12 14.499 18s12.166 10.667 17.499 14c17.333 10.667 36 16 56 16c19.333 0 36 -3.16699 50 -9.5
s26.667 -15.833 38 -28.5c10.667 -11.333 18.5 -25 23.5 -41s7.5 -38 7.5 -66v-381h-81zM533.002 -46c0 -28.667 -4.16602 -52.332 -12.499 -70.999s-19.5 -33.667 -33.5 -45c-15.333 -13.333 -32.5 -22 -51.5 -26s-39.5 -6 -61.5 -6v73c25.333 0 44.666 5.66699 57.999 17
s20 31.666 20 60.999v561h81v-564zM445.003 610.002v94h95v-94h-95z" />
    <glyph glyph-name="uni01F1" unicode="&#x1f1;" horiz-adv-x="797" 
d="M401 356c0 -48 -0.5 -88.6709 -1.5 -122.004s-3.33301 -61.666 -7 -84.999s-8.83398 -42.666 -15.501 -57.999s-15.667 -29 -27 -41c-13.333 -14.667 -29.666 -26.667 -48.999 -36s-43.666 -14 -72.999 -14h-164v712h164c29.333 0 53.666 -4.66699 72.999 -14
s35.666 -21.333 48.999 -36c11.333 -12 20.333 -25.667 27 -41s11.834 -34.666 15.501 -57.999s6 -51.666 7 -84.999s1.5 -74 1.5 -122zM315 355.996c0 40.667 -0.166992 75.168 -0.5 103.501s-1.5 52.166 -3.5 71.499s-5 35 -9 47s-9.33301 22 -16 30s-15 14.5 -25 19.5
s-22 7.5 -36 7.5h-75v-558h75c14 0 26 2.5 36 7.5s18.333 11.5 25 19.5s12 18 16 30s7 27.667 9 47s3.16699 43 3.5 71s0.5 62.667 0.5 104zM479 -0.00292969v65l198 570h-185v77h274v-65l-197 -570h197v-77h-287z" />
    <glyph glyph-name="uni01F2" unicode="&#x1f2;" horiz-adv-x="749" 
d="M401 356c0 -48 -0.5 -88.6709 -1.5 -122.004s-3.33301 -61.666 -7 -84.999s-8.83398 -42.666 -15.501 -57.999s-15.667 -29 -27 -41c-13.333 -14.667 -29.666 -26.667 -48.999 -36s-43.666 -14 -72.999 -14h-164v712h164c29.333 0 53.666 -4.66699 72.999 -14
s35.666 -21.333 48.999 -36c11.333 -12 20.333 -25.667 27 -41s11.834 -34.666 15.501 -57.999s6 -51.666 7 -84.999s1.5 -74 1.5 -122zM315 355.996c0 40.667 -0.166992 75.168 -0.5 103.501s-1.5 52.166 -3.5 71.499s-5 35 -9 47s-9.33301 22 -16 30s-15 14.5 -25 19.5
s-22 7.5 -36 7.5h-75v-558h75c14 0 26 2.5 36 7.5s18.333 11.5 25 19.5s12 18 16 30s7 27.667 9 47s3.16699 43 3.5 71s0.5 62.667 0.5 104zM472 -0.00292969v62l163 384h-152v72h242v-62l-163 -383h163v-73h-253z" />
    <glyph glyph-name="uni01F3" unicode="&#x1f3;" horiz-adv-x="688" 
d="M251 0l0.000976562 39.999c-2.66699 -5.33301 -7.33398 -11.333 -14.001 -18s-12.334 -11.334 -17.001 -14.001c-18 -10.667 -36.667 -16 -56 -16c-35.333 0 -64 13 -86 39c-16.667 19.333 -27.167 47 -31.5 83s-6.5 84.333 -6.5 145c0 60 2.16699 108.333 6.5 145
s14.833 64.667 31.5 84c10.667 12.667 22.834 22.167 36.501 28.5s30.167 9.5 49.5 9.5c20 0 38.667 -5 56 -15c5.33301 -3.33301 10.5 -7.66602 15.5 -12.999s9.5 -10.666 13.5 -15.999v230h81v-712h-79zM249.001 377.999c0 14 -1.66406 25.6689 -4.99707 35.002
s-8.33301 17.333 -15 24c-10.667 10.667 -24.667 16 -42 16c-18.667 0 -33.334 -7 -44.001 -21c-4.66699 -5.33301 -8.33398 -12.333 -11.001 -21s-4.83398 -19.834 -6.50098 -33.501s-2.66699 -30.167 -3 -49.5s-0.5 -42.333 -0.5 -69
c0 -53.333 1.16699 -92.833 3.5 -118.5s8.16602 -43.834 17.499 -54.501c10.667 -14 25.334 -21 44.001 -21c17.333 0 31.333 5.33301 42 16c13.333 13.333 20 33.333 20 60v237zM411.004 0.000976562v62l163 384h-152v72h242v-62l-163 -383h163v-73h-253z" />
    <glyph glyph-name="Aringacute" unicode="&#x1fa;" horiz-adv-x="424" 
d="M328 0l-34 168h-165l-34 -168h-90l166 712h83l165 -712h-91zM212 573l-67 -328h133zM313 850c0 -27.333 -9.5 -50.5 -28.5 -69.5s-42.167 -28.5 -69.5 -28.5s-50.5 9.5 -69.5 28.5s-28.5 42.167 -28.5 69.5s9.5 50.5 28.5 69.5s42.167 28.5 69.5 28.5
s50.5 -9.5 69.5 -28.5s28.5 -42.167 28.5 -69.5zM264 850c0 13.333 -4.83301 24.833 -14.5 34.5s-21.167 14.5 -34.5 14.5s-24.833 -4.83301 -34.5 -14.5s-14.5 -21.167 -14.5 -34.5s4.83301 -24.833 14.5 -34.5s21.167 -14.5 34.5 -14.5s24.833 4.83301 34.5 14.5
s14.5 21.167 14.5 34.5zM240 958h-62l69 135h74z" />
    <glyph glyph-name="aringacute" unicode="&#x1fb;" 
d="M245 0l0.000976562 46.0029c-4 -7.33301 -8.66699 -14 -14 -20s-10.666 -11 -15.999 -15c-8 -6 -16.667 -10.667 -26 -14s-21 -5 -35 -5c-19.333 0 -36 3.16699 -50 9.5s-27 16.166 -39 29.499c-10 11.333 -18 26.666 -24 45.999s-9 42.666 -9 69.999
c0 24 3.83301 46.167 11.5 66.5s19.167 37.166 34.5 50.499c13.333 11.333 28.166 20 44.499 26s38.166 9 65.499 9h53v82c0 49.333 -20.333 74 -61 74c-9.33301 0 -17 -1.5 -23 -4.5s-11.667 -7.16699 -17 -12.5c-7.33301 -7.33301 -12.333 -15.666 -15 -24.999
s-4 -21 -4 -35h-81c0 20 2.83301 39.5 8.5 58.5s16.167 36.167 31.5 51.5c11.333 11.333 25.833 20.5 43.5 27.5s36.5 10.5 56.5 10.5c43.333 0 77 -12 101 -36c12.667 -13.333 22.667 -29 30 -47s11 -40.333 11 -67v-376h-77zM241.001 240.003l-46 -0.000976562
c-12.667 0 -23.5 -1.33301 -32.5 -4s-17.5 -7.66699 -25.5 -15c-7.33301 -7.33301 -13.166 -17.5 -17.499 -30.5s-6.5 -26.5 -6.5 -40.5c0 -27.333 5.16699 -48.666 15.5 -63.999s26.166 -23 47.499 -23c19.333 0 35 7.5 47 22.5s18 34.5 18 58.5v96zM282.001 681.002
c0 -27.333 -9.5 -50.5 -28.5 -69.5s-42.167 -28.5 -69.5 -28.5c-13.333 0 -25.833 2.5 -37.5 7.5s-22 12 -31 21s-16 19.5 -21 31.5s-7.5 24.667 -7.5 38s2.5 26 7.5 38s12 22.5 21 31.5s19.333 16 31 21s24.167 7.5 37.5 7.5c27.333 0 50.5 -9.5 69.5 -28.5
s28.5 -42.167 28.5 -69.5zM234.001 681.002c0 13.333 -5 24.833 -15 34.5s-21.667 14.5 -35 14.5s-24.833 -4.83301 -34.5 -14.5s-14.5 -21.167 -14.5 -34.5s4.83301 -24.833 14.5 -34.5s21.167 -14.5 34.5 -14.5s25 4.83301 35 14.5s15 21.167 15 34.5zM210.001 789.002
h-61l68 135h74z" />
    <glyph glyph-name="AEacute" unicode="&#x1fc;" horiz-adv-x="640" 
d="M324 0v172h-163l-61 -172h-95l263 712h330v-77h-188v-239h162v-77h-162v-242h188v-77h-274zM324 635l-136 -385h136v385zM393 762h-62l69 135h74z" />
    <glyph glyph-name="aeacute" unicode="&#x1fd;" horiz-adv-x="573" 
d="M322 240c0 -41.333 1.1748 -74.3311 3.50781 -98.998s8.16602 -42.667 17.499 -54c5.33301 -6.66699 11.666 -12 18.999 -16s16.333 -6 27 -6c18.667 0 34 6.66699 46 20c6 6.66699 10.5 15.334 13.5 26.001s4.5 22 4.5 34h80
c-0.666992 -23.333 -4.16699 -44.5 -10.5 -63.5s-16.5 -36.167 -30.5 -51.5c-12.667 -13.333 -27.834 -23 -45.501 -29s-36.834 -9 -57.501 -9c-33.333 0 -62 9.33301 -86 28c-7.33301 5.33301 -14 12 -20 20s-11.333 16 -16 24c-5.33301 -10 -11.333 -19.333 -18 -28
s-13.667 -15.667 -21 -21c-9.33301 -7.33301 -19.833 -13 -31.5 -17s-25.834 -6 -42.501 -6c-19.333 0 -36 3.16699 -50 9.5s-27 16.166 -39 29.499c-22 24 -33 62.667 -33 116c0 50.667 15.333 89.667 46 117c13.333 11.333 28.166 20 44.499 26s38.166 9 65.499 9h53v82
c0 24 -5.16699 42.333 -15.5 55s-25.166 19 -44.499 19c-17.333 0 -31.333 -6 -42 -18c-12 -12.667 -18 -32.334 -18 -59.001h-81c0 20 3 39.667 9 59s16.333 36.333 31 51c11.333 11.333 25.833 20.5 43.5 27.5s36.5 10.5 56.5 10.5c36 0 64.667 -8.66699 86 -26
c3.33301 -2.66699 6.5 -6 9.5 -10s6.16699 -8 9.5 -12c2 3.33301 4.33301 6.33301 7 9l8 8c24 20.667 53.333 31 88 31c21.333 0 40.166 -3 56.499 -9s31.5 -16.333 45.5 -31c19.333 -20.667 31.666 -50.834 36.999 -90.501s8 -91.5 8 -155.5h-213zM241.008 240.002h-46
c-12 0 -22.5 -1.33301 -31.5 -4s-17.833 -7.66699 -26.5 -15c-7.33301 -7.33301 -13.166 -17.5 -17.499 -30.5s-6.5 -26.5 -6.5 -40.5c0 -27.333 5.16699 -48.666 15.5 -63.999s26.166 -23 47.499 -23c19.333 0 35 7.66699 47 23s18 34.666 18 57.999v96zM453.008 301.002
c0 38 -1.33301 67 -4 87s-8 34.667 -16 44c-5.33301 6.66699 -11.5 11.834 -18.5 15.501s-16.167 5.5 -27.5 5.5s-20.333 -1.83301 -27 -5.5s-12.667 -8.83398 -18 -15.501c-8 -9.33301 -13.333 -24 -16 -44s-4 -49 -4 -87h131zM308.008 586.002h-61l68 135h74z" />
    <glyph glyph-name="Oslashacute" unicode="&#x1fe;" horiz-adv-x="431" 
d="M395 356c0 -49.333 -0.499023 -91.001 -1.49902 -125.001s-3.33301 -62.667 -7 -86s-9 -42.833 -16 -58.5s-16.167 -29.834 -27.5 -42.501c-14 -15.333 -30.833 -27.833 -50.5 -37.5s-43.5 -14.5 -71.5 -14.5c-32.667 0 -60.334 6.66699 -83.001 20l-19 -56h-62l34 96
c-10 12.667 -17.833 27.167 -23.5 43.5s-10 36.166 -13 59.499s-5 51.333 -6 84s-1.5 71.667 -1.5 117c0 49.333 0.5 90.833 1.5 124.5s3.33301 62.334 7 86.001s9 43.334 16 59.001s16.167 29.834 27.5 42.501c14 15.333 30.833 27.833 50.5 37.5s43.5 14.5 71.5 14.5
c32 0 59.667 -6.66699 83 -20l18 56h62l-32 -97c9.33301 -12.667 16.833 -27.167 22.5 -43.5s10 -36.166 13 -59.499s5 -51.333 6 -84s1.5 -71.334 1.5 -116.001zM277.001 620.999c-13.333 14.667 -32 21.998 -56 21.998c-14 0 -25.833 -2.5 -35.5 -7.5
s-17.5 -11.5 -23.5 -19.5c-6 -8.66699 -11 -19.167 -15 -31.5s-7 -28.333 -9 -48s-3.33301 -44.167 -4 -73.5s-1 -65 -1 -107c0 -49.333 0.5 -87.166 1.5 -113.499s3.16699 -47.166 6.5 -62.499zM309.001 355.997c0 48 -0.500977 85.333 -1.50098 112
s-3.16699 47.667 -6.5 63l-136 -440c12.667 -14.667 31.334 -22 56.001 -22c14 0 25.667 2.5 35 7.5s17 11.5 23 19.5c6.66699 8.66699 12 19.167 16 31.5s7 28.333 9 48s3.33301 44.167 4 73.5s1 65 1 107zM246 761.997h-62l69 135h74z" />
    <glyph glyph-name="oslashacute" unicode="&#x1ff;" horiz-adv-x="370" 
d="M302 471c14 -21.333 22.8311 -50 26.498 -86s5.5 -78 5.5 -126c0 -52.667 -2.16699 -97.167 -6.5 -133.5s-14.5 -64.833 -30.5 -85.5c-13.333 -17.333 -29.166 -29.666 -47.499 -36.999s-39.166 -11 -62.499 -11c-28 0 -52.333 5.66699 -73 17l-20 -53h-58l36 91
c-13.333 21.333 -22 50 -26 86s-6 78 -6 126c0 52.667 2.33301 97.167 7 133.5s15 64.833 31 85.5c13.333 17.333 29 29.666 47 36.999s38.667 11 62 11c28 0 52.333 -5.66699 73 -17l21 53h58zM253.998 259c0 22 -0.331055 41.5 -0.998047 58.5
s-2.33398 30.167 -5.00098 39.5l-103 -277c10.667 -12 24.667 -18 42 -18c20 0 35.333 7.33301 46 22c9.33301 13.333 15.166 33.833 17.499 61.5s3.5 65.5 3.5 113.5zM230 438c-10.667 12 -25.001 18 -43.001 18c-19.333 0 -34.333 -7.33301 -45 -22
c-9.33301 -13.333 -15.166 -33.833 -17.499 -61.5s-3.5 -65.5 -3.5 -113.5c0 -22 0.166992 -41.5 0.5 -58.5s1.83301 -30.167 4.5 -39.5zM213.999 586h-61l68 135h74z" />
    <glyph glyph-name="Scommaaccent" unicode="&#x218;" horiz-adv-x="420" 
d="M377 191c0 -37.333 -3.00195 -68.1689 -9.00195 -92.502s-17.667 -45.166 -35 -62.499c-13.333 -13.333 -30.5 -23.833 -51.5 -31.5s-45.833 -11.5 -74.5 -11.5c-54.667 0 -96.334 14.333 -125.001 43c-16.667 16.667 -28.167 36.334 -34.5 59.001s-9.5 53 -9.5 91h86
c0 -23.333 1.66699 -42.166 5 -56.499s9.66602 -26.5 18.999 -36.5c6 -6.66699 14 -12 24 -16s21.667 -6 35 -6c14.667 0 26.834 2 36.501 6s17.834 9.66699 24.501 17c9.33301 10.667 15.5 23.334 18.5 38.001s4.5 33.667 4.5 57c0 20.667 -1 38 -3 52
s-5.5 25.833 -10.5 35.5s-12 17.834 -21 24.501s-20.833 13 -35.5 19l-81 33c-18 7.33301 -33.333 15.666 -46 24.999s-22.667 20.833 -30 34.5s-12.666 30 -15.999 49s-5 42.167 -5 69.5c0 31.333 4.5 59.333 13.5 84s22.5 45.334 40.5 62.001c29.333 27.333 67 41 113 41
c26 0 48.833 -3.5 68.5 -10.5s36.167 -17.167 49.5 -30.5c18 -17.333 30.333 -37.833 37 -61.5s10 -51.834 10 -84.501h-86c0 19.333 -1.33301 35.666 -4 48.999s-8.66699 25.666 -18 36.999c-12.667 16 -32 24 -58 24c-12.667 0 -23.5 -2 -32.5 -6
s-16.5 -9.33301 -22.5 -16c-16.667 -18.667 -25 -47 -25 -85c0 -17.333 0.833008 -32 2.5 -44s5 -22.333 10 -31s12 -16 21 -22s20.5 -12 34.5 -18l80 -33c20 -8 36.5 -17.5 49.5 -28.5s23.333 -24.167 31 -39.5s12.834 -33.333 15.501 -54s4 -45 4 -73zM184.998 -182.003
h-64l57 144h57z" />
    </font>
</defs>
</svg>
