<?xml version="1.0" standalone="no"?>
<!DOCTYPE svg PUBLIC "-//W3C//DTD SVG 1.1//EN" "http://www.w3.org/Graphics/SVG/1.1/DTD/svg11.dtd" >
<svg>
<metadata>
Created by FontForge 20090914 at Mon Feb  6 11:54:54 2017
 By www-data
&#194;&#169; 2014 adidas. All rights reserved.
</metadata>
<defs>
<font id="adineuePROTT-Black" horiz-adv-x="561" >
  <font-face 
    font-family="adineue PRO TT Black"
    font-weight="800"
    font-stretch="normal"
    units-per-em="1000"
    panose-1="2 11 10 3 2 2 1 6 0 4"
    ascent="750"
    descent="-250"
    x-height="518"
    cap-height="685"
    bbox="-203 -231.005 1085 947"
    underline-thickness="50"
    underline-position="-50"
    unicode-range="U+0020-U+F8FF"
  />
<missing-glyph horiz-adv-x="387" 
 />
    <glyph glyph-name=".notdef" horiz-adv-x="387" 
 />
    <glyph glyph-name="space" unicode=" " horiz-adv-x="190" 
 />
    <glyph glyph-name="exclam" unicode="!" horiz-adv-x="251" 
d="M203 204h-176v481h176v-481zM27 0v175h176v-175h-176z" />
    <glyph glyph-name="quotedbl" unicode="&#x22;" horiz-adv-x="442" 
d="M41 399l-18 286h187l-24 -286h-145zM251 399l-19 286h186l-23 -286h-144z" />
    <glyph glyph-name="numbersign" unicode="#" horiz-adv-x="596" 
d="M268 302h53l5 80h-53zM564 557v-175h-73l-5 -80h78v-176h-90l-9 -126h-164l8 126h-54l-9 -126h-163l9 126h-60v176h72l5 80h-77v175h89l8 124h164l-8 -124h53l9 124h163l-8 -124h62z" />
    <glyph glyph-name="dollar" unicode="$" horiz-adv-x="612" 
d="M253 528c-13.333 -5.33301 -23 -11.833 -29 -19.5s-9 -15.834 -9 -24.501c0 -21.333 12.667 -37.666 38 -48.999v93zM372 136c26.667 8 40 22.333 40 43c0 18.667 -13.333 32.667 -40 42v-85zM372 408c26 -5.33301 52.334 -11.8271 79.001 -19.4941
s50.667 -18.834 72 -33.501s38.666 -33.834 51.999 -57.501s20 -53.834 20 -90.501c0 -28.667 -4.83301 -55.5 -14.5 -80.5s-24 -47 -43 -66s-42.333 -34.667 -70 -47s-59.5 -20.5 -95.5 -24.5v-80h-119v81c-70 9.33301 -123.5 31.666 -160.5 66.999
s-57.5 82.666 -61.5 141.999h181c0.666992 -11.333 4 -22.333 10 -33s16.333 -19.334 31 -26.001v109c-28 6 -55 14.167 -81 24.5s-49.333 23.833 -70 40.5s-37.167 36.834 -49.5 60.501s-18.5 52.167 -18.5 85.5c0 29.333 5 56.5 15 81.5s24.5 47 43.5 66s42 34.667 69 47
s57.5 20.5 91.5 24.5v94h119v-95c64 -10 113.5 -33.833 148.5 -71.5s54.833 -85.834 59.5 -144.501h-173c-0.666992 11.333 -3.16699 22.5 -7.5 33.5s-13.5 20.167 -27.5 27.5v-115z" />
    <glyph glyph-name="percent" unicode="%" horiz-adv-x="846" 
d="M520 250c0 46 14 81.833 42 107.5s66 38.5 114 38.5s85.833 -12.833 113.5 -38.5s41.5 -61.5 41.5 -107.5v-112c0 -47.333 -13.833 -83.166 -41.5 -107.499s-65.5 -36.5 -113.5 -36.5s-86 12.167 -114 36.5s-42 60.166 -42 107.499v112zM717 246
c0 13.333 -3.66699 24 -11 32s-17.333 12 -30 12c-13.333 0 -23.666 -4 -30.999 -12s-11 -18.667 -11 -32v-104c0 -13.333 3.66699 -23.833 11 -31.5s17.666 -11.5 30.999 -11.5c12.667 0 22.667 3.83301 30 11.5s11 18.167 11 31.5v104zM15 544c0 46 14 81.833 42 107.5
s66 38.5 114 38.5s85.833 -12.833 113.5 -38.5s41.5 -61.5 41.5 -107.5v-112c0 -47.333 -13.833 -83.166 -41.5 -107.499s-65.5 -36.5 -113.5 -36.5s-86 12.167 -114 36.5s-42 60.166 -42 107.499v112zM212 540c0 13.333 -3.66699 24 -11 32s-17.333 12 -30 12
c-13.333 0 -23.666 -4 -30.999 -12s-11 -18.667 -11 -32v-104c0 -13.333 3.66699 -23.833 11 -31.5s17.666 -11.5 30.999 -11.5c12.667 0 22.667 3.83301 30 11.5s11 18.167 11 31.5v104zM197 0l304 685h146l-304 -685h-146z" />
    <glyph glyph-name="ampersand" unicode="&#x26;" horiz-adv-x="767" 
d="M285 506c0 -10.667 2.33105 -21.833 6.99805 -33.5s14 -24.167 28 -37.5c50.667 22.667 76 48 76 76c0 14 -5.66699 25.5 -17 34.5s-24.666 13.5 -39.999 13.5s-28.166 -4.83301 -38.499 -14.5s-15.5 -22.5 -15.5 -38.5zM259.998 262.001
c-24 -18 -36.001 -40.668 -36.001 -68.001c0 -21.333 8.33301 -37.166 25 -47.499s38.334 -15.5 65.001 -15.5c10.667 0 22 1.5 34 4.5s20.667 6.16699 26 9.5zM484.997 28c-58 -28 -120.333 -41.998 -187 -41.998c-82.667 0 -146.167 17.833 -190.5 53.5
s-66.5 83.167 -66.5 142.5c0 44.667 11.167 82.5 33.5 113.5s53.833 57.167 94.5 78.5c-16 19.333 -27.833 39.833 -35.5 61.5s-11.5 43.5 -11.5 65.5c0 28.667 5.16699 55 15.5 79s25.333 44.833 45 62.5s43.167 31.5 70.5 41.5s58 15 92 15c32 0 61 -4.5 87 -13.5
s48.167 -21.333 66.5 -37s32.5 -34.334 42.5 -56.001s15 -45.167 15 -70.5c0 -77.333 -47 -140.333 -141 -189l84 -83c16 25.333 29 53.166 39 83.499s16.333 62.5 19 96.5h175c-5.33301 -63.333 -17.833 -120 -37.5 -170s-45.167 -94 -76.5 -132l128 -128h-235z" />
    <glyph glyph-name="quotesingle" unicode="'" horiz-adv-x="240" 
d="M43 399l-19 286h192l-24 -286h-149z" />
    <glyph glyph-name="parenleft" unicode="(" horiz-adv-x="374" 
d="M325 619c-16 -21.333 -31.165 -44.8301 -45.498 -70.4971s-26.833 -53.5 -37.5 -83.5s-19.167 -61.667 -25.5 -95s-9.5 -68.333 -9.5 -105c0 -74.667 10.667 -141 32 -199s51 -111 89 -159l-144 -81c-50.667 58.667 -89.834 125.667 -117.501 201
s-41.5 154.666 -41.5 237.999c0 41.333 3.83301 82.166 11.5 122.499s18.5 79.166 32.5 116.499s30.667 72.5 50 105.5s40.666 62.5 63.999 88.5z" />
    <glyph glyph-name="parenright" unicode=")" horiz-adv-x="374" 
d="M49 -95c16 20.667 31.166 43.9971 45.499 69.9971s26.833 54 37.5 84s19.167 61.667 25.5 95s9.5 68.333 9.5 105c0 74.667 -10.667 141 -32 199s-51 111 -89 159l144 81c50.667 -58.667 89.834 -125.667 117.501 -201s41.5 -154.666 41.5 -237.999
c0 -41.333 -4 -82.166 -12 -122.499s-19 -79.166 -33 -116.499s-30.667 -72.5 -50 -105.5s-40.333 -62.5 -63 -88.5z" />
    <glyph glyph-name="asterisk" unicode="*" horiz-adv-x="346" 
d="M286 654l52 -94l-60 -29l60 -31l-52 -92l-58 30v-69h-110v71l-58 -32l-52 92l59 31l-59 29l52 94l58 -32v68h110v-68z" />
    <glyph glyph-name="plus" unicode="+" horiz-adv-x="440" 
d="M427 367v-166h-122v-130h-168v130h-124v166h124v133h168v-133h122z" />
    <glyph glyph-name="comma" unicode="," horiz-adv-x="230" 
d="M144 -106h-121l49 106h-49v181h183v-150z" />
    <glyph glyph-name="hyphen" unicode="-" horiz-adv-x="360" 
d="M27 200v166h306v-166h-306z" />
    <glyph glyph-name="period" unicode="." horiz-adv-x="230" 
d="M23 0v181h183v-181h-183z" />
    <glyph glyph-name="slash" unicode="/" horiz-adv-x="372" 
d="M5 0l180 685h183l-180 -685h-183z" />
    <glyph glyph-name="zero" unicode="0" horiz-adv-x="591" 
d="M28 444c0 38.667 6.33301 73.5 19 104.5s30.667 57.5 54 79.5s51.5 38.833 84.5 50.5s69.833 17.5 110.5 17.5s77.334 -5.83301 110.001 -17.5s60.667 -28.5 84 -50.5s41.333 -48.5 54 -79.5s19 -65.833 19 -104.5v-205c0 -39.333 -6.33301 -74.5 -19 -105.5
s-30.667 -57.167 -54 -78.5s-51.333 -37.666 -84 -48.999s-69.334 -17 -110.001 -17s-77.5 5.66699 -110.5 17s-61.167 27.666 -84.5 48.999s-41.333 47.5 -54 78.5s-19 66.167 -19 105.5v205zM382 439c0 27.333 -8 49 -24 65s-36.667 24 -62 24c-26 0 -47 -8 -63 -24
s-24 -37.667 -24 -65v-195c0 -26.667 8 -47.834 24 -63.501s37 -23.5 63 -23.5c25.333 0 46 7.83301 62 23.5s24 36.834 24 63.501v195z" />
    <glyph glyph-name="one" unicode="1" horiz-adv-x="324" 
d="M102 0v508h-79v177h271v-685h-192z" />
    <glyph glyph-name="two" unicode="2" horiz-adv-x="567" 
d="M49 0l-0.00488281 145l214 193c30 28 52.667 51.667 68 71s23 38.333 23 57s-6.16699 33.667 -18.5 45s-29.833 17 -52.5 17c-25.333 0 -47.666 -7 -66.999 -21s-36.666 -33 -51.999 -57l-150 90c14 22 29.833 42.5 47.5 61.5s37.834 35.333 60.501 49
s47.667 24.5 75 32.5s57.333 12 90 12c40.667 0 76.834 -5.5 108.501 -16.5s58.334 -26 80.001 -45s38.167 -41.167 49.5 -66.5s17 -52.666 17 -81.999c0 -23.333 -2.66699 -45.333 -8 -66s-15.333 -42 -30 -64s-34.5 -45.833 -59.5 -71.5s-56.833 -55.834 -95.5 -90.501
l-39 -34h234v-159h-495z" />
    <glyph glyph-name="three" unicode="3" horiz-adv-x="588" 
d="M288 -14c-64.667 0 -118.001 13.999 -160.001 41.999s-74.667 65.333 -98 112l150 87c23.333 -51.333 60.333 -77 111 -77c27.333 0 48.5 8.16699 63.5 24.5s22.5 36.166 22.5 59.499s-7.83301 42 -23.5 56s-36.167 21 -61.5 21c-13.333 0 -26.166 -1.66699 -38.499 -5
s-24.166 -9.33301 -35.499 -18l-78 124l172 110h-239v163h446v-179l-102 -67c45.333 -13.333 81.166 -37.666 107.499 -72.999s39.5 -78 39.5 -128c0 -35.333 -6.33301 -68.166 -19 -98.499s-31 -57 -55 -80s-53 -41 -87 -54s-72.333 -19.5 -115 -19.5z" />
    <glyph glyph-name="four" unicode="4" horiz-adv-x="617" 
d="M589 288v-161h-64v-127h-186v127h-311v161l289 399h208v-399h64zM339 288v160l-117 -160h117z" />
    <glyph glyph-name="five" unicode="5" horiz-adv-x="588" 
d="M292 -14c-64.667 0 -118.169 13.5029 -160.502 40.5029s-75.166 64.833 -98.499 113.5l151 88c10 -20.667 23.333 -38.834 40 -54.501s38 -23.5 64 -23.5c24.667 0 45.667 8 63 24s26 38 26 66c0 25.333 -8 45.833 -24 61.5s-37.333 23.5 -64 23.5
c-22.667 0 -41.667 -5 -57 -15s-27.666 -22.667 -36.999 -38l-153 41l66 372h392v-163h-263l-11 -69c13.333 5.33301 28.333 10 45 14s35.667 6 57 6c32 0 62.167 -5.33301 90.5 -16s53.333 -25.834 75 -45.501s38.667 -43.667 51 -72s18.5 -59.833 18.5 -94.5
c0 -36.667 -6.5 -70.834 -19.5 -102.501s-31.5 -59 -55.5 -82s-52.667 -41.167 -86 -54.5s-70 -20 -110 -20z" />
    <glyph glyph-name="six" unicode="6" horiz-adv-x="564" 
d="M286 -12c-40 0 -76.1641 6.50195 -108.497 19.502s-60 31.167 -83 54.5s-40.667 50.666 -53 81.999s-18.5 65.666 -18.5 102.999c0 55.333 16.667 114.333 50 177l142 261h196l-117 -206c4.66699 0.666992 9.16699 1.16699 13.5 1.5s9.16602 0.5 14.499 0.5
c33.333 0 63.833 -6.16699 91.5 -18.5s51.5 -29.166 71.5 -50.499s35.667 -46.333 47 -75s17 -59.334 17 -92.001c0 -33.333 -6 -65.5 -18 -96.5s-29.333 -58.333 -52 -82s-50.334 -42.667 -83.001 -57s-69.334 -21.5 -110.001 -21.5zM286.003 148.002
c12.667 0 24.499 2.5 35.499 7.5s20.5 11.667 28.5 20s14.333 18.166 19 29.499s7 23.333 7 36c0 25.333 -8.5 47 -25.5 65s-38.5 27 -64.5 27c-25.333 0 -46.666 -9 -63.999 -27s-26 -39.667 -26 -65c0 -12.667 2.33301 -24.667 7 -36s11 -21.166 19 -29.499
s17.5 -15 28.5 -20s22.833 -7.5 35.5 -7.5z" />
    <glyph glyph-name="seven" unicode="7" horiz-adv-x="553" 
d="M281 0h-216l265 511h-300v174h492v-171z" />
    <glyph glyph-name="eight" unicode="8" horiz-adv-x="583" 
d="M287 -10c-38.667 0 -73.668 5.49902 -105.001 16.499s-58 26.5 -80 46.5s-38.833 43.833 -50.5 71.5s-17.5 58.167 -17.5 91.5c0 36 8.83301 68.333 26.5 97s39.167 49.667 64.5 63c-35.333 34 -53 75.333 -53 124c0 26 4.83301 50.667 14.5 74s23.667 43.833 42 61.5
s40.833 31.5 67.5 41.5s57 15 91 15s64.167 -5 90.5 -15s48.833 -23.833 67.5 -41.5s32.834 -38.167 42.501 -61.5s14.5 -48 14.5 -74c0 -47.333 -17.667 -88.666 -53 -123.999c12 -6.66699 23.5 -15.5 34.5 -26.5s20.667 -23.333 29 -37s15 -28.667 20 -45
s7.5 -33.5 7.5 -51.5c0 -33.333 -5.83301 -63.833 -17.5 -91.5s-28.5 -51.5 -50.5 -71.5s-48.667 -35.5 -80 -46.5s-66.333 -16.5 -105 -16.5zM286.999 436.999c16 0 29.667 5.33301 41 16s17 24.334 17 41.001c0 17.333 -5.66699 31.5 -17 42.5s-25 16.5 -41 16.5
s-29.667 -5.5 -41 -16.5s-17 -25.167 -17 -42.5c0 -16.667 5.66699 -30.334 17 -41.001s25 -16 41 -16zM286.999 132.999c22 0 40.667 7.66699 56 23s23 35 23 59s-7.66699 43.333 -23 58s-34 22 -56 22s-40.833 -7.33301 -56.5 -22s-23.5 -34 -23.5 -58
s7.83301 -43.667 23.5 -59s34.5 -23 56.5 -23z" />
    <glyph glyph-name="nine" unicode="9" horiz-adv-x="564" 
d="M164 0l114.001 201.001c-4.66699 -0.666992 -9.33398 -1.16699 -14.001 -1.5s-9.33398 -0.5 -14.001 -0.5c-33.333 0 -64 6.16699 -92 18.5s-52 29.166 -72 50.499s-35.5 46.333 -46.5 75s-16.5 59.334 -16.5 92.001c0 33.333 6 65.5 18 96.5s29.333 58.333 52 82
s50.167 42.667 82.5 57s68.833 21.5 109.5 21.5c40 0 76.167 -6.5 108.5 -19.5s60 -31.167 83 -54.5s40.833 -50.833 53.5 -82.5s19 -65.834 19 -102.501c0 -28 -4.16699 -56.5 -12.5 -85.5s-21.166 -59.5 -38.499 -91.5l-139 -256h-195zM285.001 348.001
c26 0 47.667 8.83301 65 26.5s26 39.167 26 64.5c0 12.667 -2.33301 24.667 -7 36s-11 21.166 -19 29.499s-17.667 15 -29 20s-23.333 7.5 -36 7.5c-26 0 -47.333 -9.16699 -64 -27.5s-25 -40.166 -25 -65.499s8.33301 -46.833 25 -64.5s38 -26.5 64 -26.5z" />
    <glyph glyph-name="colon" unicode=":" horiz-adv-x="230" 
d="M23 0v181h183v-181h-183zM23 337v181h183v-181h-183z" />
    <glyph glyph-name="semicolon" unicode=";" horiz-adv-x="230" 
d="M23 337v181h183v-181h-183zM144 -106h-121l49 106h-49v181h183v-150z" />
    <glyph glyph-name="less" unicode="&#x3c;" horiz-adv-x="440" 
d="M250 280l177 -51v-179l-414 161v142l414 160v-176z" />
    <glyph glyph-name="equal" unicode="=" horiz-adv-x="440" 
d="M13 301v176h414v-176h-414zM13 91v176h414v-176h-414z" />
    <glyph glyph-name="greater" unicode="&#x3e;" horiz-adv-x="440" 
d="M427 211l-414 -161v179l176 51l-176 57v176l414 -160v-142z" />
    <glyph glyph-name="question" unicode="?" horiz-adv-x="492" 
d="M4 470c4 72 27.501 127.17 70.501 165.503s99.5 57.5 169.5 57.5c39.333 0 73.666 -6 102.999 -18s53.833 -28.333 73.5 -49s34.334 -44.667 44.001 -72s14.5 -56 14.5 -86c0 -50.667 -13.833 -95.334 -41.5 -134.001s-67.834 -65.667 -120.501 -81v-49h-176v173
c23.333 0 45 1.16699 65 3.5s37.5 6.66602 52.5 12.999s26.667 15.166 35 26.499s12.5 26 12.5 44c0 19.333 -6.33301 36 -19 50s-28.667 21 -48 21c-21.333 0 -37.833 -5.66699 -49.5 -17s-19.167 -27.333 -22.5 -48h-163zM141.001 0.00292969v175h176v-175h-176z" />
    <glyph glyph-name="at" unicode="@" horiz-adv-x="775" 
d="M404 -78c-54 0 -104.166 8.66797 -150.499 26.001s-86.333 41.5 -120 72.5s-60.167 68.167 -79.5 111.5s-29 91 -29 143c0 48 9 94.167 27 138.5s43.333 83.166 76 116.499s72.167 60 118.5 80s98.166 30 155.499 30c49.333 0 95.166 -8.33301 137.499 -25
s79.166 -39.834 110.499 -69.501s55.833 -64.834 73.5 -105.501s26.5 -85.334 26.5 -134.001c0 -70.667 -16.5 -123.5 -49.5 -158.5s-76.833 -52.5 -131.5 -52.5c-21.333 0 -41.5 3.5 -60.5 10.5s-33.833 17.5 -44.5 31.5c-13.333 -14 -28.333 -25.167 -45 -33.5
s-35.667 -12.5 -57 -12.5c-24 0 -46.667 4.5 -68 13.5s-40 21.5 -56 37.5s-28.667 34.833 -38 56.5s-14 45.167 -14 70.5c0 26 4.66699 50.167 14 72.5s22 41.5 38 57.5s34.667 28.667 56 38s44 14 68 14c18.667 0 35.334 -3.16699 50.001 -9.5s27 -14.166 37 -23.499v30
h127v-236c0 -8.66699 2.33301 -14.667 7 -18s9.33398 -5 14.001 -5c7.33301 0.666992 14.5 2.83398 21.5 6.50098s13.333 10 19 19s10.167 20.667 13.5 35s5 32.5 5 54.5c0 36.667 -6.5 70 -19.5 100s-30.833 55.833 -53.5 77.5s-49.5 38.5 -80.5 50.5s-64.833 18 -101.5 18
c-44 0 -82.833 -7.66699 -116.5 -23s-62 -35.666 -85 -60.999s-40.333 -54.5 -52 -87.5s-17.5 -67.167 -17.5 -102.5c0 -42 7.16699 -79.5 21.5 -112.5s34 -60.667 59 -83s54.667 -39.333 89 -51s71.833 -17.5 112.5 -17.5c63.333 0 126 16 188 48l41 -78
c-16 -10 -33.5 -18.833 -52.5 -26.5s-38.833 -14 -59.5 -19s-41.667 -8.66699 -63 -11s-42 -3.5 -62 -3.5zM449.001 270.001c0 19.333 -6.66699 35.5 -20 48.5s-29.666 19.5 -48.999 19.5s-35.666 -6.5 -48.999 -19.5s-20 -29.167 -20 -48.5s6.66699 -35.666 20 -48.999
s29.666 -20 48.999 -20s35.666 6.66699 48.999 20s20 29.666 20 48.999z" />
    <glyph glyph-name="A" unicode="A" horiz-adv-x="721" 
d="M355 492l-72 -233h143zM475 100h-240l-31 -100h-199l230 685h252l229 -685h-210z" />
    <glyph glyph-name="B" unicode="B" horiz-adv-x="628" 
d="M36 685l308 0.000976562c40 0 74 -5 102 -15s50.833 -23.333 68.5 -40s30.667 -35.834 39 -57.501s12.5 -44.167 12.5 -67.5c0 -29.333 -7.5 -56.333 -22.5 -81s-39.167 -44.334 -72.5 -59.001c46 -12.667 80.167 -33.667 102.5 -63s33.5 -65 33.5 -107
c0 -59.333 -19.667 -106.666 -59 -141.999s-96.333 -53 -171 -53h-341v685zM233 527.001l-0.000976562 -105h85c18 0 31.667 5.16699 41 15.5s14 22.166 14 35.499c0 14.667 -4.16699 27.334 -12.5 38.001s-22.166 16 -41.499 16h-86zM232.999 269.001v-111h116
c20 0 35.167 5.33301 45.5 16s15.5 23.667 15.5 39c0 16 -5.33301 29.333 -16 40s-26.667 16 -48 16h-113z" />
    <glyph glyph-name="C" unicode="C" horiz-adv-x="712" 
d="M387 515c-23.333 0 -44.999 -4.33496 -64.999 -13.002s-37.5 -20.667 -52.5 -36s-26.833 -33.5 -35.5 -54.5s-13 -43.833 -13 -68.5c0 -25.333 4.33301 -48.666 13 -69.999s20.667 -39.666 36 -54.999s33.5 -27.166 54.5 -35.499s43.5 -12.5 67.5 -12.5
c38 0 70.167 9.16699 96.5 27.5s47.166 40.833 62.499 67.5l149 -108c-15.333 -24.667 -33.166 -47.334 -53.499 -68.001s-43.5 -38.667 -69.5 -54s-55 -27.333 -87 -36s-67.333 -13 -106 -13c-50 0 -97.167 9 -141.5 27s-83 42.833 -116 74.5s-59 69.334 -78 113.001
s-28.5 91.167 -28.5 142.5c0 52.667 9.66699 101 29 145s45.833 81.667 79.5 113s72.667 55.666 117 72.999s91.5 26 141.5 26c72 0 133.667 -15 185 -45s93.666 -72 126.999 -126l-154 -109c-17.333 30.667 -39 54.167 -65 70.5s-57 24.5 -93 24.5z" />
    <glyph glyph-name="D" unicode="D" horiz-adv-x="710" 
d="M35 685l291 -0.00195312c56 0 106.5 -8.83301 151.5 -26.5s83.333 -41.667 115 -72s55.834 -66.166 72.501 -107.499s25 -85.666 25 -132.999c0 -48 -8.33301 -93 -25 -135s-40.834 -78.667 -72.501 -110s-70 -56 -115 -74s-95.5 -27 -151.5 -27h-291v685zM232 510.998
v-337h94c24.667 0 47.167 4.16699 67.5 12.5s37.5 20 51.5 35s24.833 32.667 32.5 53s11.5 42.5 11.5 66.5s-3.83301 46.333 -11.5 67s-18.5 38.667 -32.5 54s-31.167 27.333 -51.5 36s-42.833 13 -67.5 13h-94z" />
    <glyph glyph-name="E" unicode="E" horiz-adv-x="585" 
d="M35 685h523v-168h-326v-90h296v-166h-296v-93h328v-168h-525v685z" />
    <glyph glyph-name="F" unicode="F" horiz-adv-x="568" 
d="M232 219v-219h-197v685h513v-174h-316v-124h286v-168h-286z" />
    <glyph glyph-name="G" unicode="G" horiz-adv-x="759" 
d="M743 343c0 -54 -9.33301 -103.166 -28 -147.499s-44 -82 -76 -113s-69.333 -55 -112 -72s-88.334 -25.5 -137.001 -25.5c-53.333 0 -102.666 9.33301 -147.999 28s-84.5 44 -117.5 76s-58.667 69.667 -77 113s-27.5 89.666 -27.5 138.999
c0 46.667 8.83301 91.667 26.5 135s42.834 81.5 75.501 114.5s72.167 59.5 118.5 79.5s98.166 30 155.499 30c39.333 0 75 -4.5 107 -13.5s60.5 -20.5 85.5 -34.5s46.5 -30 64.5 -48s32.667 -36 44 -54l-155 -111c-20 25.333 -42.167 44.833 -66.5 58.5
s-52.5 20.5 -84.5 20.5c-24 0 -46.333 -4.33301 -67 -13s-38.5 -21 -53.5 -37s-26.833 -35 -35.5 -57s-13 -46.333 -13 -73c0 -26 4.5 -49.833 13.5 -71.5s21.167 -40.167 36.5 -55.5s33.333 -27.333 54 -36s42.667 -13 66 -13c29.333 0 55.333 6 78 18s41.667 30.667 57 56
h-157v158h373v-51z" />
    <glyph glyph-name="H" unicode="H" horiz-adv-x="693" 
d="M461 250h-229v-250h-197v685h197v-261h229v261h197v-685h-197v250z" />
    <glyph glyph-name="I" unicode="I" horiz-adv-x="267" 
d="M35 0v685h197v-685h-197z" />
    <glyph glyph-name="J" unicode="J" horiz-adv-x="590" 
d="M221 256c0 -34.667 6.33105 -58.6641 18.998 -71.9971s30 -20 52 -20c23.333 0 41 7.16699 53 21.5s18 33.166 18 56.499v443h197v-430c0 -38.667 -5.66699 -74.334 -17 -107.001s-28.333 -60.834 -51 -84.501s-51 -42.167 -85 -55.5s-73.333 -20 -118 -20
c-87.333 0 -153.666 23.5 -198.999 70.5s-67.666 112.833 -66.999 197.5h198z" />
    <glyph glyph-name="K" unicode="K" horiz-adv-x="665" 
d="M444 685h229l-253 -338l251 -347h-243l-196 280v-280h-197v685h197v-305z" />
    <glyph glyph-name="L" unicode="L" horiz-adv-x="542" 
d="M35 685h197v-511h290v-174h-487v685z" />
    <glyph glyph-name="M" unicode="M" horiz-adv-x="875" 
d="M220 386v-386h-185v685h254l149 -353l148 353h254v-685h-187v386l-165 -386h-103z" />
    <glyph glyph-name="N" unicode="N" horiz-adv-x="700" 
d="M226 359v-359h-191v685h223l216 -366v366h191v-685h-223z" />
    <glyph glyph-name="O" unicode="O" horiz-adv-x="771" 
d="M385 -14c-50 0 -97 9 -141 27s-82.667 42.833 -116 74.5s-59.666 69.334 -78.999 113.001s-29 91.167 -29 142.5c0 50.667 9.66699 97.834 29 141.501s45.666 81.5 78.999 113.5s72 57 116 75s91 27 141 27c50.667 0 98.167 -9 142.5 -27s83 -43 116 -75
s59.167 -69.833 78.5 -113.5s29 -90.834 29 -141.501c0 -51.333 -9.66699 -98.833 -29 -142.5s-45.5 -81.334 -78.5 -113.001s-71.667 -56.5 -116 -74.5s-91.833 -27 -142.5 -27zM385 171c22.667 0 44 4.5 64 13.5s37.5 21.333 52.5 37s26.833 33.834 35.5 54.501
s13 43 13 67c0 23.333 -4.33301 45.333 -13 66s-20.5 38.834 -35.5 54.501s-32.5 28.167 -52.5 37.5s-41.333 14 -64 14s-43.834 -4.66699 -63.501 -14s-37 -21.833 -52 -37.5s-26.833 -33.834 -35.5 -54.501s-13 -42.667 -13 -66c0 -24 4.33301 -46.333 13 -67
s20.5 -38.834 35.5 -54.501s32.333 -28 52 -37s40.834 -13.5 63.501 -13.5z" />
    <glyph glyph-name="P" unicode="P" horiz-adv-x="611" 
d="M232 173v-173.001h-197v685h321c40.667 0 76.167 -6.66699 106.5 -20s55.833 -31.166 76.5 -53.499s36.167 -48.5 46.5 -78.5s15.5 -62 15.5 -96c0 -36.667 -5.83301 -71 -17.5 -103s-28.834 -60 -51.501 -84s-50.667 -42.833 -84 -56.5s-71.666 -20.5 -114.999 -20.5
h-101zM232 510.999v-164h80c27.333 0 48.833 7.16699 64.5 21.5s23.5 34.5 23.5 60.5c0 25.333 -7.16699 45.333 -21.5 60s-36.5 22 -66.5 22h-80z" />
    <glyph glyph-name="Q" unicode="Q" horiz-adv-x="777" 
d="M530 14c-45.333 -18.667 -93.667 -28.001 -145 -28.001c-50 0 -97 9 -141 27s-82.667 42.833 -116 74.5s-59.666 69.334 -78.999 113.001s-29 91.167 -29 142.5c0 50.667 9.66699 97.834 29 141.501s45.666 81.5 78.999 113.5s72 57 116 75s91 27 141 27
c50.667 0 98.167 -9 142.5 -27s83 -43 116 -75s59.167 -69.833 78.5 -113.5s29 -90.834 29 -141.501c0 -46.667 -7.83301 -90 -23.5 -130s-37.5 -75.667 -65.5 -107l86 -98l-161 -59zM391.999 170.999l-69.001 79.002l161 59l45 -51
c6.66699 12.667 11.834 26.167 15.501 40.5s5.5 29.166 5.5 44.499c0 23.333 -4.33301 45.333 -13 66s-20.5 38.834 -35.5 54.501s-32.5 28.167 -52.5 37.5s-41.333 14 -64 14s-43.834 -4.66699 -63.501 -14s-37 -21.833 -52 -37.5s-26.833 -33.834 -35.5 -54.501
s-13 -42.667 -13 -66c0 -24 4.33301 -46.333 13 -67s20.5 -38.834 35.5 -54.501s32.333 -28 52 -37s40.834 -13.5 63.501 -13.5h7z" />
    <glyph glyph-name="R" unicode="R" horiz-adv-x="624" 
d="M232 511v-141h66c31.333 0 54 6.33301 68 19s21 29.334 21 50.001c0 21.333 -6.33301 38.666 -19 51.999s-36 20 -70 20h-66zM232 0l-197.001 0.000976562v685h310c35.333 0 67.833 -5 97.5 -15s55.334 -25 77.001 -45s38.5 -44.833 50.5 -74.5s18 -63.834 18 -102.501
c0 -48 -12.833 -90.667 -38.5 -128s-61.5 -65 -107.5 -83l194 -237h-250l-154 211v-211z" />
    <glyph glyph-name="S" unicode="S" horiz-adv-x="604" 
d="M302 -13c-89.333 0 -158.333 19.8281 -207 59.4951s-75.667 96.834 -81 171.501h195c0.666992 -10 2.83398 -19.5 6.50098 -28.5s9.16699 -17.167 16.5 -24.5s17.166 -13.166 29.499 -17.499s27.5 -6.5 45.5 -6.5c24 0 43.167 3.83301 57.5 11.5s21.5 19.167 21.5 34.5
s-9.5 27 -28.5 35s-43.167 15.667 -72.5 23c-27.333 6.66699 -56.333 14.334 -87 23.001s-59 21.167 -85 37.5s-47.667 37.833 -65 64.5s-26 61.667 -26 105c0 34 6.33301 64.667 19 92s30.5 50.666 53.5 69.999s51 34.333 84 45s69.5 16 109.5 16
c85.333 0 152 -21.167 200 -63.5s74.667 -100.166 80 -173.499h-192c-0.666992 8.66699 -2.16699 17.667 -4.5 27s-6.66602 17.833 -12.999 25.5s-15.333 14 -27 19s-27.167 7.5 -46.5 7.5c-24 0 -41.5 -4.5 -52.5 -13.5s-16.5 -19.5 -16.5 -31.5
c0 -10.667 3.16699 -19.667 9.5 -27s15.166 -13.666 26.499 -18.999s24.333 -9.83301 39 -13.5l48 -11.5c26.667 -6 54.5 -13 83.5 -21s55.5 -19.667 79.5 -35s43.667 -35.666 59 -60.999s23 -58.333 23 -99c0 -31.333 -6 -60.5 -18 -87.5s-30 -50.333 -54 -70
s-53.5 -35.167 -88.5 -46.5s-75.5 -17 -121.5 -17z" />
    <glyph glyph-name="T" unicode="T" horiz-adv-x="607" 
d="M205 0v511h-190v174h577v-174h-190v-511h-197z" />
    <glyph glyph-name="U" unicode="U" horiz-adv-x="667" 
d="M334 -12c-50 0 -93.832 7.16699 -131.499 21.5s-69.334 34.5 -95.001 60.5s-45 56.833 -58 92.5s-19.5 75.167 -19.5 118.5v404h197v-381c0 -46 8.5 -80.333 25.5 -103s44.167 -34 81.5 -34c36.667 0 63.5 11.333 80.5 34s25.5 57 25.5 103v381h197v-404
c0 -43.333 -6.5 -82.833 -19.5 -118.5s-32.167 -66.5 -57.5 -92.5s-56.833 -46.167 -94.5 -60.5s-81.5 -21.5 -131.5 -21.5z" />
    <glyph glyph-name="V" unicode="V" horiz-adv-x="691" 
d="M219 0l-214 685h209l135 -469l135 469h202l-215 -685h-252z" />
    <glyph glyph-name="W" unicode="W" horiz-adv-x="976" 
d="M487 353l-99 -353h-227l-156 685h209l79 -422l120 422h158l120 -423l82 423h198l-154 -685h-228z" />
    <glyph glyph-name="X" unicode="X" horiz-adv-x="704" 
d="M350 194l-124 -194h-221l232 350l-222 335h225l114 -179l113 179h222l-222 -331l232 -354h-224z" />
    <glyph glyph-name="Y" unicode="Y" horiz-adv-x="678" 
d="M239 0v249l-237 436h214l123 -258l126 258h208l-237 -439v-246h-197z" />
    <glyph glyph-name="Z" unicode="Z" horiz-adv-x="550" 
d="M258 169h281v-169h-524v154l278 362h-283v169h530v-158z" />
    <glyph glyph-name="bracketleft" unicode="[" horiz-adv-x="360" 
d="M206 527v-525h118v-162h-296v845h296v-158h-118z" />
    <glyph glyph-name="backslash" unicode="\" horiz-adv-x="372" 
d="M185 0l-180 685h183l180 -685h-183z" />
    <glyph glyph-name="bracketright" unicode="]" horiz-adv-x="360" 
d="M35 527v158h296v-845h-296v162h118v525h-118z" />
    <glyph glyph-name="asciicircum" unicode="^" horiz-adv-x="440" 
d="M276 74l-56 173l-56 -173h-167l146 413h158l146 -413h-171z" />
    <glyph glyph-name="underscore" unicode="_" horiz-adv-x="500" 
d="M-1 -196v166h502v-166h-502z" />
    <glyph glyph-name="grave" unicode="`" horiz-adv-x="400" 
d="M319 543l-252 52v157l252 -54v-155z" />
    <glyph glyph-name="a" unicode="a" horiz-adv-x="600" 
d="M296 365c-14.667 0 -28.5 -2.83301 -41.5 -8.5s-24.333 -13.334 -34 -23.001s-17.334 -21 -23.001 -34s-8.5 -27.167 -8.5 -42.5s2.83301 -29.5 8.5 -42.5s13.334 -24.333 23.001 -34s21 -17.334 34 -23.001s26.833 -8.5 41.5 -8.5s28.5 2.83301 41.5 8.5
s24.167 13.334 33.5 23.001s16.833 21 22.5 34s8.5 27.167 8.5 42.5s-2.83301 29.5 -8.5 42.5s-13.167 24.333 -22.5 34s-20.5 17.334 -33.5 23.001s-26.833 8.5 -41.5 8.5zM400 35c-21.333 -13.333 -42.666 -22.9971 -63.999 -28.9971s-42.666 -9 -63.999 -9
c-35.333 0 -68.5 6.66699 -99.5 20s-58 31.666 -81 54.999s-41.333 51.166 -55 83.499s-20.5 67.166 -20.5 104.499c0 36.667 6.83301 71 20.5 103s32 59.833 55 83.5s50 42.167 81 55.5s64.167 20 99.5 20c21.333 0 42.666 -3 63.999 -9s42.666 -15.667 63.999 -29v34h176
v-518h-176v35z" />
    <glyph glyph-name="b" unicode="b" horiz-adv-x="610" 
d="M328 -3c-21.333 0 -42.666 2.99707 -63.999 8.99707s-42.666 15.667 -63.999 29v-35h-176v685h176v-201c21.333 13.333 42.666 23 63.999 29s42.666 9 63.999 9c34.667 0 67.667 -6.66699 99 -20s58.5 -31.833 81.5 -55.5s41.333 -51.5 55 -83.5s20.5 -66.333 20.5 -103
c0 -37.333 -6.83301 -72.166 -20.5 -104.499s-32 -60.166 -55 -83.499s-50.167 -41.666 -81.5 -54.999s-64.333 -20 -99 -20zM304 148.997c14.667 0 28.5 2.83301 41.5 8.5s24.333 13.334 34 23.001s17.334 21 23.001 34s8.5 27.167 8.5 42.5s-2.83301 29.5 -8.5 42.5
s-13.334 24.333 -23.001 34s-21 17.334 -34 23.001s-26.833 8.5 -41.5 8.5s-28.5 -2.83301 -41.5 -8.5s-24.167 -13.334 -33.5 -23.001s-16.833 -21 -22.5 -34s-8.5 -27.167 -8.5 -42.5s2.83301 -29.5 8.5 -42.5s13.167 -24.333 22.5 -34s20.5 -17.334 33.5 -23.001
s26.833 -8.5 41.5 -8.5z" />
    <glyph glyph-name="c" unicode="c" horiz-adv-x="547" 
d="M533 117c-24.667 -42 -58 -74.165 -100 -96.498s-88.333 -33.5 -139 -33.5c-38 0 -74 6.83301 -108 20.5s-63.5 32.667 -88.5 57s-44.833 53.166 -59.5 86.499s-22 69.333 -22 108s7.33301 74.5 22 107.5s34.5 61.667 59.5 86s54.5 43.333 88.5 57s70 20.5 108 20.5
c52.667 0 100.834 -12.333 144.501 -37s77.167 -59 100.5 -103l-138 -85c-9.33301 18.667 -23.166 33.5 -41.499 44.5s-38.5 16.5 -60.5 16.5c-15.333 0 -29.833 -2.66699 -43.5 -8s-25.5 -13 -35.5 -23s-18 -21.667 -24 -35s-9 -28 -9 -44s3 -30.667 9 -44
s14 -24.833 24 -34.5s21.833 -17.334 35.5 -23.001s28.167 -8.5 43.5 -8.5c21.333 0 41.166 5.5 59.499 16.5s32.166 25.833 41.499 44.5z" />
    <glyph glyph-name="d" unicode="d" horiz-adv-x="600" 
d="M296 149c14.667 0 28.5 2.83301 41.5 8.5s24.167 13.334 33.5 23.001s16.833 21 22.5 34s8.5 27.167 8.5 42.5s-2.83301 29.5 -8.5 42.5s-13.167 24.333 -22.5 34s-20.5 17.334 -33.5 23.001s-26.833 8.5 -41.5 8.5s-28.5 -2.83301 -41.5 -8.5
s-24.333 -13.334 -34 -23.001s-17.334 -21 -23.001 -34s-8.5 -27.167 -8.5 -42.5s2.83301 -29.5 8.5 -42.5s13.334 -24.333 23.001 -34s21 -17.334 34 -23.001s26.833 -8.5 41.5 -8.5zM400 35c-21.333 -13.333 -42.666 -22.9971 -63.999 -28.9971s-42.666 -9 -63.999 -9
c-35.333 0 -68.5 6.66699 -99.5 20s-58 31.666 -81 54.999s-41.333 51.166 -55 83.499s-20.5 67.166 -20.5 104.499c0 36.667 6.83301 71 20.5 103s32 59.833 55 83.5s50 42.167 81 55.5s64.167 20 99.5 20c21.333 0 42.666 -3 63.999 -9s42.666 -15.667 63.999 -29v201h176
v-685h-176v35z" />
    <glyph glyph-name="e" unicode="e" horiz-adv-x="571" 
d="M533 103c-10.667 -15.333 -23.502 -29.9971 -38.502 -43.9971s-32.167 -26.333 -51.5 -37s-41 -19.167 -65 -25.5s-50.333 -9.5 -79 -9.5c-40 0 -77.333 6.83301 -112 20.5s-64.667 32.5 -90 56.5s-45.166 52.667 -59.499 86s-21.5 69.666 -21.5 108.999
c0 38 7.16699 73.5 21.5 106.5s34 61.667 59 86s54.5 43.5 88.5 57.5s70.333 21 109 21s74 -6.83301 106 -20.5s59.333 -32.334 82 -56.001s40.334 -51.834 53.001 -84.501s19 -68 19 -106v-8.5v-16.5c0 -6 -0.166992 -12 -0.5 -18s-0.5 -10 -0.5 -12h-365
c9.33301 -24 23.833 -43 43.5 -57s42.5 -21 68.5 -21c25.333 0 47.5 5.33301 66.5 16s34.833 23.667 47.5 39zM289.998 391.003c-24.667 0 -45.166 -5.83301 -61.499 -17.5s-28.833 -27.5 -37.5 -47.5h191c-8.66699 24.667 -21.834 41.667 -39.501 51s-35.167 14 -52.5 14z
" />
    <glyph glyph-name="f" unicode="f" horiz-adv-x="403" 
d="M102 0v361h-82v157h82v2c0 28 4.66699 53.667 14 77s22.833 43.5 40.5 60.5s39.667 30.333 66 40s56.5 14.5 90.5 14.5h71v-138h-49c-20 0 -34.5 -5.16699 -43.5 -15.5s-13.5 -23.833 -13.5 -40.5h105v-157h-105v-361h-176z" />
    <glyph glyph-name="g" unicode="g" horiz-adv-x="591" 
d="M292 367c-14.667 0 -28.334 -2.66699 -41.001 -8s-23.834 -12.833 -33.501 -22.5s-17.334 -21 -23.001 -34s-8.5 -26.833 -8.5 -41.5s2.83301 -28.5 8.5 -41.5s13.334 -24.167 23.001 -33.5s20.834 -16.833 33.501 -22.5s26.334 -8.5 41.001 -8.5
s28.334 2.83301 41.001 8.5s23.667 13.167 33 22.5s16.666 20.5 21.999 33.5s8 26.833 8 41.5s-2.66699 28.5 -8 41.5s-12.666 24.333 -21.999 34s-20.333 17.167 -33 22.5s-26.334 8 -41.001 8zM268 -196c-54.667 0 -101.834 9.33203 -141.501 27.999s-72.167 45 -97.5 79
l108 98c17.333 -18.667 36.166 -33 56.499 -43s44.5 -15 72.5 -15c36 0 65.833 7.5 89.5 22.5s36.5 37.833 38.5 68.5c-21.333 -13.333 -42.833 -22.833 -64.5 -28.5s-42.167 -8.5 -61.5 -8.5c-34.667 0 -67.167 6.66699 -97.5 20s-57 31.5 -80 54.5
s-41.167 50.333 -54.5 82s-20 65.834 -20 102.501s6.66699 70.667 20 102s31.5 58.5 54.5 81.5s49.667 41.167 80 54.5s62.833 20 97.5 20c20 0 40.833 -2.83301 62.5 -8.5s42.834 -15.167 63.501 -28.5v33h173v-460c0 -35.333 -6.33301 -68.333 -19 -99
s-31.5 -57.5 -56.5 -80.5s-56.167 -41.167 -93.5 -54.5s-80.666 -20 -129.999 -20z" />
    <glyph glyph-name="h" unicode="h" 
d="M200 470c16 19.333 36.001 33.835 60.001 43.502s50.667 14.5 80 14.5c30 0 57.333 -5 82 -15s45.667 -24.333 63 -43s30.666 -40.834 39.999 -66.501s14 -53.834 14 -84.501v-319h-176v277c0 25.333 -6.66699 46.5 -20 63.5s-33 25.5 -59 25.5
c-24 0 -44 -8.33301 -60 -25s-24 -40 -24 -70v-271h-176v685h176v-215z" />
    <glyph glyph-name="i" unicode="i" horiz-adv-x="224" 
d="M24 547v138h176v-138h-176zM24 0v518h176v-518h-176z" />
    <glyph glyph-name="j" unicode="j" horiz-adv-x="224" 
d="M24 547v138h176v-138h-176zM200 29c0 -78.667 -19.167 -135.501 -57.5 -170.501s-99.5 -52.167 -183.5 -51.5v156c26 0 43.333 5.33301 52 16s13 28.334 13 53.001v486h176v-489z" />
    <glyph glyph-name="k" unicode="k" horiz-adv-x="549" 
d="M342 518h208l-188 -259l191 -259h-217l-135 199v-199h-177v685h177v-385z" />
    <glyph glyph-name="l" unicode="l" horiz-adv-x="224" 
d="M24 0v685h176v-685h-176z" />
    <glyph glyph-name="m" unicode="m" horiz-adv-x="868" 
d="M197 472c17.333 17.333 37.5 31 60.5 41s48.5 15 76.5 15c30 0 57 -5.5 81 -16.5s44.667 -26.833 62 -47.5c19.333 19.333 42.833 34.833 70.5 46.5s59.5 17.5 95.5 17.5c32 0 60.5 -5 85.5 -15s46.333 -24.333 64 -43s31 -40.834 40 -66.501s13.5 -53.834 13.5 -84.501
v-319h-176v282c0 24.667 -5.66699 44.834 -17 60.501s-28.666 23.5 -51.999 23.5c-22.667 0 -41.334 -8.33301 -56.001 -25s-22 -40 -22 -70v-271h-176v282c0 24.667 -5.66699 44.834 -17 60.501s-28.666 23.5 -51.999 23.5c-22.667 0 -41.334 -8.33301 -56.001 -25
s-22 -40 -22 -70v-271h-176v518h173v-46z" />
    <glyph glyph-name="n" unicode="n" 
d="M197 470c16 19.333 36.501 33.835 61.501 43.502s52.167 14.5 81.5 14.5c30 0 57.333 -5 82 -15s45.667 -24.333 63 -43s30.666 -40.834 39.999 -66.501s14 -53.834 14 -84.501v-319h-176v277c0 25.333 -6.66699 46.5 -20 63.5s-33 25.5 -59 25.5
c-24 0 -44 -8.33301 -60 -25s-24 -40 -24 -70v-271h-176v518h173v-48z" />
    <glyph glyph-name="o" unicode="o" horiz-adv-x="588" 
d="M294 530c38 0 74 -7 108 -21s63.5 -33.167 88.5 -57.5s44.833 -53 59.5 -86s22 -68.5 22 -106.5c0 -38.667 -7.33301 -74.5 -22 -107.5s-34.5 -61.667 -59.5 -86s-54.5 -43.5 -88.5 -57.5s-70 -21 -108 -21s-73.833 7 -107.5 21s-63.167 33.167 -88.5 57.5
s-45.333 53 -60 86s-22 68.833 -22 107.5c0 38 7.33301 73.5 22 106.5s34.667 61.667 60 86s54.833 43.5 88.5 57.5s69.5 21 107.5 21zM294 364c-14.667 0 -28.5 -2.83301 -41.5 -8.5s-24.333 -13.334 -34 -23.001s-17.334 -21 -23.001 -34s-8.5 -27.167 -8.5 -42.5
s2.83301 -29.5 8.5 -42.5s13.334 -24.333 23.001 -34s21 -17.334 34 -23.001s26.833 -8.5 41.5 -8.5s28.5 2.83301 41.5 8.5s24.333 13.334 34 23.001s17.334 21 23.001 34s8.5 27.167 8.5 42.5s-2.83301 29.5 -8.5 42.5s-13.334 24.333 -23.001 34s-21 17.334 -34 23.001
s-26.833 8.5 -41.5 8.5z" />
    <glyph glyph-name="p" unicode="p" horiz-adv-x="600" 
d="M304 366c-14.667 0 -28.5 -2.83301 -41.5 -8.5s-24.167 -13.334 -33.5 -23.001s-16.833 -21.167 -22.5 -34.5s-8.5 -27.333 -8.5 -42c0 -15.333 2.83301 -29.5 8.5 -42.5s13.167 -24.333 22.5 -34s20.5 -17.334 33.5 -23.001s26.833 -8.5 41.5 -8.5
s28.5 2.83301 41.5 8.5s24.333 13.334 34 23.001s17.334 21 23.001 34s8.5 27.167 8.5 42.5c0 14.667 -2.83301 28.667 -8.5 42s-13.334 24.833 -23.001 34.5s-21 17.334 -34 23.001s-26.833 8.5 -41.5 8.5zM328 -4c-21.333 0 -42.666 3.00098 -63.999 9.00098
s-42.666 15.667 -63.999 29v-217h-176v701h176v-35c21.333 13.333 42.666 23 63.999 29s42.666 9 63.999 9c34.667 0 67.667 -6.66699 99 -20s58.5 -31.833 81.5 -55.5s41.333 -51.5 55 -83.5s20.5 -66.667 20.5 -104s-6.83301 -71.833 -20.5 -103.5
s-32 -59.334 -55 -83.001s-50.167 -42.167 -81.5 -55.5s-64.333 -20 -99 -20z" />
    <glyph glyph-name="q" unicode="q" horiz-adv-x="598" 
d="M398 -183v216.999c-21.333 -13.333 -42.666 -23 -63.999 -29s-42.666 -9 -63.999 -9c-35.333 0 -68.5 6.66699 -99.5 20s-58 31.833 -81 55.5s-41.333 51.334 -55 83.001s-20.5 66.167 -20.5 103.5s6.83301 72 20.5 104s32 59.833 55 83.5s50 42.167 81 55.5
s64.167 20 99.5 20c21.333 0 42.666 -3 63.999 -9s42.666 -15.667 63.999 -29v35h176v-701h-176zM294 365.999c-14.667 0 -28.5 -2.83301 -41.5 -8.5s-24.333 -13.334 -34 -23.001s-17.334 -21.167 -23.001 -34.5s-8.5 -27.333 -8.5 -42c0 -15.333 2.83301 -29.5 8.5 -42.5
s13.334 -24.333 23.001 -34s21 -17.334 34 -23.001s26.833 -8.5 41.5 -8.5s28.5 2.83301 41.5 8.5s24.167 13.334 33.5 23.001s16.833 21 22.5 34s8.5 27.167 8.5 42.5c0 14.667 -2.83301 28.667 -8.5 42s-13.167 24.833 -22.5 34.5s-20.5 17.334 -33.5 23.001
s-26.833 8.5 -41.5 8.5z" />
    <glyph glyph-name="r" unicode="r" horiz-adv-x="355" 
d="M340 349c-52 0 -88.334 -11.667 -109.001 -35s-31 -55 -31 -95v-219h-176v518h175v-61c16 21.333 36.333 38 61 50s51.334 18 80.001 18v-176z" />
    <glyph glyph-name="s" unicode="s" horiz-adv-x="484" 
d="M173 160c0.666992 -15.333 6.50098 -28 17.501 -38s29.167 -15 54.5 -15c18 0 31.167 3 39.5 9s12.5 13.667 12.5 23c0 12.667 -8.33301 21.334 -25 26.001s-36.667 9.33398 -60 14.001c-21.333 4 -43.666 8.83301 -66.999 14.5s-44.666 14.667 -63.999 27
s-35.5 29 -48.5 50s-19.5 49.167 -19.5 84.5c0 24.667 5 47.5 15 68.5s24.5 39.167 43.5 54.5s42 27.333 69 36s57.5 13 91.5 13c68 0 122 -15.333 162 -46s62 -74.334 66 -131.001h-168c-0.666992 15.333 -4.83398 27.666 -12.501 36.999s-23.167 14 -46.5 14
c-33.333 0 -50 -11 -50 -33c0 -13.333 8.16699 -22.833 24.5 -28.5s36.166 -10.834 59.499 -15.501c21.333 -4 44.166 -8.83301 68.499 -14.5s46.666 -14 66.999 -25s37.333 -26 51 -45s20.5 -44.167 20.5 -75.5c0 -30 -5.83301 -56 -17.5 -78s-27.667 -40.333 -48 -55
s-44.666 -25.667 -72.999 -33s-59.5 -11 -93.5 -11c-37.333 0 -70.5 4.33301 -99.5 13s-53.5 20.834 -73.5 36.501s-35.333 34 -46 55s-16 43.833 -16 68.5h166z" />
    <glyph glyph-name="t" unicode="t" horiz-adv-x="405" 
d="M386 518v-157.001h-117v-152c0 -21.333 4.5 -36.833 13.5 -46.5s23.167 -14.5 42.5 -14.5h61v-148h-99c-68.667 0 -118.167 14.833 -148.5 44.5s-45.5 76.834 -45.5 141.501v175h-73v157h73v127h176v-127h117z" />
    <glyph glyph-name="u" unicode="u" 
d="M364 0l-0.000976562 48.001c-16 -19.333 -36.5 -33.833 -61.5 -43.5s-52.167 -14.5 -81.5 -14.5c-30 0 -57.333 5 -82 15s-45.667 24.333 -63 43s-30.666 40.667 -39.999 66s-14 53.666 -14 84.999v319h176v-277c0 -25.333 6.66699 -46.5 20 -63.5s33 -25.5 59 -25.5
c24 0 44 8.33301 60 25s24 40 24 70v271h176v-518h-173z" />
    <glyph glyph-name="v" unicode="v" horiz-adv-x="593" 
d="M180 0l-170 518h193l96 -347l96 347h188l-170 -518h-233z" />
    <glyph glyph-name="w" unicode="w" horiz-adv-x="806" 
d="M402 260l-59 -260h-198l-140 518h180l67 -304l76 304h155l76 -304l67 304h175l-140 -518h-200z" />
    <glyph glyph-name="x" unicode="x" horiz-adv-x="572" 
d="M567 0h-212l-77 127l-76 -127h-197l170 263l-169 255h207l75 -122l71 122h197l-167 -255z" />
    <glyph glyph-name="y" unicode="y" horiz-adv-x="557" 
d="M367 -15c-12 -34.667 -25.665 -63.332 -40.998 -85.999s-32.833 -40.5 -52.5 -53.5s-41.5 -22 -65.5 -27s-50.333 -7.5 -79 -7.5h-60v157h55c17.333 0 32.166 4.16699 44.499 12.5s20.166 21.166 23.499 38.499l-187 499h196l80 -267l82 267h189z" />
    <glyph glyph-name="z" unicode="z" horiz-adv-x="479" 
d="M257 150h201v-150h-437v128l206 238h-214v152h450v-131z" />
    <glyph glyph-name="braceleft" unicode="{" horiz-adv-x="382" 
d="M35 334c31.333 1.33301 53.5 8.66602 66.5 21.999s19.5 27.666 19.5 42.999c0 14 -2.16699 25.833 -6.5 35.5s-9 19.5 -14 29.5s-9.5 21.333 -13.5 34s-6 29 -6 49s3.83301 38.5 11.5 55.5s18.5 31.667 32.5 44s30.333 22 49 29s39 10.5 61 10.5h111v-162h-41
c-11.333 0 -21.166 -2.83301 -29.499 -8.5s-12.5 -14.834 -12.5 -27.501c0 -6.66699 1.66699 -14 5 -22l11 -26c4 -9.33301 7.66699 -19.5 11 -30.5s5 -22.5 5 -34.5c0 -30 -7.16699 -54 -21.5 -72s-31.833 -31.333 -52.5 -40c20.667 -7.33301 38.167 -20.166 52.5 -38.499
s21.5 -42.833 21.5 -73.5c0 -12 -1.66699 -23.167 -5 -33.5s-7 -20.333 -11 -30l-11 -27c-3.33301 -8.33301 -5 -15.833 -5 -22.5c0 -11.333 4.16699 -19.833 12.5 -25.5s18.166 -9.16699 29.499 -10.5h41v-162h-111c-22 0.666992 -42.333 4.5 -61 11.5s-35 16.833 -49 29.5
s-24.833 27.334 -32.5 44.001s-11.5 34.667 -11.5 54c0 20.667 2 37.334 6 50.001s8.5 24 13.5 34s9.66699 19.833 14 29.5s6.5 21.167 6.5 34.5c0 16 -6.5 30.833 -19.5 44.5s-35.167 20.5 -66.5 20.5h-5v142h5z" />
    <glyph glyph-name="bar" unicode="|" horiz-adv-x="222" 
d="M22 -143v828h178v-828h-178z" />
    <glyph glyph-name="braceright" unicode="}" horiz-adv-x="382" 
d="M349 193c-31.333 -1.33301 -53.5 -8.66797 -66.5 -22.001s-19.5 -27.666 -19.5 -42.999c0 -14 2 -25.833 6 -35.5s8.5 -19.5 13.5 -29.5s9.66699 -21.333 14 -34s6.5 -29 6.5 -49s-3.83301 -38.5 -11.5 -55.5s-18.5 -31.667 -32.5 -44s-30.333 -22 -49 -29
s-39 -10.5 -61 -10.5h-111v162h41c11.333 0 21.166 2.83301 29.499 8.5s12.5 14.834 12.5 27.501c0 6.66699 -1.66699 14 -5 22l-11 26c-4 9.33301 -7.66699 19.5 -11 30.5s-5 22.5 -5 34.5c0 30 7.16699 54 21.5 72s31.833 31.333 52.5 40
c-20.667 7.33301 -38.167 20.166 -52.5 38.499s-21.5 42.833 -21.5 73.5c0 12 1.66699 23.167 5 33.5s7 20.333 11 30l11 26.5c3.33301 8 5 15.667 5 23c0 11.333 -4.16699 19.833 -12.5 25.5s-18.166 9.16699 -29.499 10.5h-41v162h111c22 -0.666992 42.333 -4.5 61 -11.5
s35 -16.833 49 -29.5s24.833 -27.334 32.5 -44.001s11.5 -34.667 11.5 -54c0 -20.667 -2.16699 -37.5 -6.5 -50.5s-9 -24.5 -14 -34.5s-9.5 -19.667 -13.5 -29s-6 -20.666 -6 -33.999c0 -16 6.5 -30.833 19.5 -44.5s35.167 -20.5 66.5 -20.5h5v-142h-5z" />
    <glyph glyph-name="asciitilde" unicode="~" horiz-adv-x="440" 
d="M427 236c-10.667 -10.667 -22.6631 -19.6689 -35.9961 -27.002c-11.333 -6.66699 -24.833 -12.667 -40.5 -18s-33.167 -8 -52.5 -8s-37.333 2.33301 -54 7s-32.5 9.66699 -47.5 15l-44 15c-14.333 4.66699 -29.5 7 -45.5 7c-11.333 0 -22.5 -1.83301 -33.5 -5.5
s-21.167 -7.5 -30.5 -11.5c-10.667 -5.33301 -20.667 -11 -30 -17v155c10.667 10 22.334 18.667 35.001 26c11.333 6.66699 24.666 12.834 39.999 18.501s32.666 8.5 51.999 8.5c20 0 38.167 -2.33301 54.5 -7s32.166 -9.66699 47.499 -15l44.5 -15
c14.333 -4.66699 29.5 -7 45.5 -7c11.333 0 22.666 1.66699 33.999 5s21.666 7.33301 30.999 12c10.667 4.66699 20.667 10.334 30 17.001v-155z" />
    <glyph glyph-name="uni00A0" unicode="&#xa0;" horiz-adv-x="190" 
 />
    <glyph glyph-name="exclamdown" unicode="&#xa1;" horiz-adv-x="251" 
d="M203 685v-175h-176v175h176zM27 481h176v-481h-176v481z" />
    <glyph glyph-name="cent" unicode="&#xa2;" horiz-adv-x="586" 
d="M384 161c11.333 6 21.5 14.002 30.5 24.002s16.833 21 23.5 33l133 -93c-20 -34.667 -46.167 -63.167 -78.5 -85.5s-68.5 -37.833 -108.5 -46.5v-85h-131v86c-34 6.66699 -65.5 18.5 -94.5 35.5s-54 38 -75 63s-37.333 53.167 -49 84.5s-17.5 64.666 -17.5 99.999
s5.83301 68.666 17.5 99.999s28 59.333 49 84s46 45.5 75 62.5s60.5 29.167 94.5 36.5v85h131v-85c42 -8 79.667 -24.5 113 -49.5s60.333 -56.167 81 -93.5l-139 -91c-14 27.333 -32.333 47.333 -55 60v-225zM253 379.002c-16 -11.333 -28.667 -25.999 -38 -43.999
s-14 -38.333 -14 -61s4.66699 -42.834 14 -60.501s22 -32.167 38 -43.5v209z" />
    <glyph glyph-name="sterling" unicode="&#xa3;" horiz-adv-x="580" 
d="M266 197c32 -8 61.502 -16.998 88.502 -26.998s54.5 -15 82.5 -15c14 0 28.333 2 43 6s28 8.66699 40 14c14 6 27.333 12.667 40 20v-164c-12.667 -8 -27 -15.333 -43 -22c-14 -5.33301 -30.667 -10.166 -50 -14.499s-41.666 -6.5 -66.999 -6.5
s-48.666 2.83301 -69.999 8.5s-42 11.667 -62 18l-58.5 18c-19 5.66699 -38.5 8.5 -58.5 8.5c-14.667 0 -29.334 -2.33301 -44.001 -7s-27.667 -9.66699 -39 -15c-14 -6.66699 -27.333 -14 -40 -22v166c4.66699 3.33301 10.334 6.66602 17.001 9.99902
c5.33301 3.33301 12 6.83301 20 10.5s17.667 7.16699 29 10.5v38h-66v166h66v68c0 33.333 5.33301 64 16 92s26 52 46 72s44.167 35.667 72.5 47s60.166 17 95.499 17c32.667 0 61.5 -3.83301 86.5 -11.5s47 -18.334 66 -32.001s35.5 -29.834 49.5 -48.501s26 -39 36 -61
l-154 -80l-10.5 24c-3.66699 8 -8.33398 15.167 -14.001 21.5s-12.834 11.5 -21.501 15.5s-19.334 6 -32.001 6c-18 0 -33.167 -5.66699 -45.5 -17s-18.5 -28 -18.5 -50v-63h176v-166h-176v-35z" />
    <glyph glyph-name="yen" unicode="&#xa5;" horiz-adv-x="620" 
d="M576 400v-134h-173v-36h173v-134h-173v-96h-187v96h-173v134h173v36h-173v134h105l-148 285h203l109 -247l113 247h195l-148 -285h104z" />
    <glyph glyph-name="brokenbar" unicode="&#xa6;" horiz-adv-x="222" 
d="M22 361v324h178v-324h-178zM22 -143v323h178v-323h-178z" />
    <glyph glyph-name="section" unicode="&#xa7;" horiz-adv-x="490" 
d="M171 296c0 -8.66699 3.33203 -15.6689 9.99902 -21.002s15.5 -9.66602 26.5 -12.999s23.833 -6.33301 38.5 -9l46 -8c17.333 4 26 14.333 26 31c0 8 -3.66699 14.5 -11 19.5s-17.166 9.33301 -29.499 13s-26.5 6.83398 -42.5 9.50098s-32.333 6 -49 10
c-10 -6 -15 -16.667 -15 -32zM301.999 472.998c0 14 -3.66797 25.333 -11.001 34s-21.666 13 -42.999 13c-15.333 0 -27.5 -3.66699 -36.5 -11s-13.5 -15.666 -13.5 -24.999c0 -11.333 7 -19.666 21 -24.999s31.5 -9.83301 52.5 -13.5l68 -12
c24.333 -4.33301 47 -11.5 68 -21.5s38.5 -24 52.5 -42s21 -42.333 21 -73c0 -24 -4.33301 -45.333 -13 -64s-20.667 -34.667 -36 -48c18.667 -20 28 -46.667 28 -80c0 -26.667 -5.33301 -50 -16 -70s-25.667 -36.833 -45 -50.5s-42.333 -23.834 -69 -30.501
s-56.334 -10 -89.001 -10c-34.667 0 -65.667 4 -93 12s-50.333 19.167 -69 33.5s-33 31.166 -43 50.499s-15 40.333 -15 63h157c0.666992 -14 5.83398 -25.667 15.501 -35s26.167 -14 49.5 -14c16.667 0 29.667 2.66699 39 8s14 12.666 14 21.999c0 11.333 -7 19.5 -21 24.5
s-31.333 9.33301 -52 13l-67.5 12.5c-24.333 4.66699 -46.833 12.334 -67.5 23.001s-38 25.334 -52 44.001s-21 44 -21 76c0 45.333 17.667 83 53 113c-8.66699 10 -15.5 21.833 -20.5 35.5s-7.5 29.167 -7.5 46.5c0 23.333 4.83301 45 14.5 65s23.5 37.167 41.5 51.5
s39.833 25.666 65.5 33.999s54.5 12.5 86.5 12.5c64 0 114.667 -14 152 -42s58 -68 62 -120h-160z" />
    <glyph glyph-name="dieresis" unicode="&#xa8;" horiz-adv-x="400" 
d="M26 562v133h158v-133h-158zM216 562v133h158v-133h-158z" />
    <glyph glyph-name="copyright" unicode="&#xa9;" horiz-adv-x="627" 
d="M314 695c42 0 80.833 -7.5 116.5 -22.5s66.5 -35.5 92.5 -61.5s46.5 -56.833 61.5 -92.5s22.5 -74.167 22.5 -115.5s-7.5 -79.833 -22.5 -115.5s-35.5 -66.5 -61.5 -92.5s-56.833 -46.5 -92.5 -61.5s-74.5 -22.5 -116.5 -22.5s-81 7.5 -117 22.5s-67 35.5 -93 61.5
s-46.5 56.833 -61.5 92.5s-22.5 74.167 -22.5 115.5s7.5 79.833 22.5 115.5s35.5 66.5 61.5 92.5s57 46.5 93 61.5s75 22.5 117 22.5zM314 614c-30 0 -57.5 -5.5 -82.5 -16.5s-46.5 -26.167 -64.5 -45.5s-32 -41.833 -42 -67.5s-15 -52.834 -15 -81.501
s5 -55.834 15 -81.501s24 -48 42 -67s39.5 -34.167 64.5 -45.5s52.5 -17 82.5 -17c29.333 0 56.5 5.66699 81.5 17s46.5 26.5 64.5 45.5s32.167 41.333 42.5 67s15.5 52.834 15.5 81.501s-5.16699 55.834 -15.5 81.501s-24.5 48.167 -42.5 67.5s-39.5 34.5 -64.5 45.5
s-52.167 16.5 -81.5 16.5zM461 334c-11.333 -25.333 -29 -45.834 -53 -61.501s-54.333 -23.5 -91 -23.5c-22 0 -42.667 4 -62 12s-36.166 19 -50.499 33s-25.666 30.333 -33.999 49s-12.5 38.667 -12.5 60s4.16699 41.333 12.5 60s19.666 35 33.999 49s31.166 25 50.499 33
s40 12 62 12c36.667 0 67 -7.83301 91 -23.5s41.667 -36.167 53 -61.5l-94 -51c-4.66699 7.33301 -10.5 15.166 -17.5 23.499s-18.833 12.5 -35.5 12.5c-16 0 -28.333 -5.66699 -37 -17s-13 -23.666 -13 -36.999s4.33301 -25.666 13 -36.999s21 -17 37 -17
c16.667 0 28.5 4.16699 35.5 12.5s12.833 16.5 17.5 24.5z" />
    <glyph glyph-name="ordfeminine" unicode="&#xaa;" horiz-adv-x="386" 
d="M191 591c-18 0 -33.667 -6.33301 -47 -19s-20 -28.667 -20 -48s6.66699 -35.5 20 -48.5s29 -19.5 47 -19.5c18.667 0 34.334 6.5 47.001 19.5s19 29.167 19 48.5s-6.33301 35.333 -19 48s-28.334 19 -47.001 19zM256 385c-11.333 -7.33301 -23.833 -13.168 -37.5 -17.501
s-27.834 -6.5 -42.501 -6.5c-22 0 -42.667 4.16699 -62 12.5s-36.333 19.833 -51 34.5s-26.167 32 -34.5 52s-12.5 41.667 -12.5 65s4.16699 45 12.5 65s19.833 37.333 34.5 52s31.667 26.167 51 34.5s40 12.5 62 12.5c14.667 0 28.834 -2.16699 42.501 -6.5
s26.167 -10.166 37.5 -17.499v21h110v-323h-110v22z" />
    <glyph glyph-name="guillemotleft" unicode="&#xab;" horiz-adv-x="589" 
d="M307 53h-166l-134 233l134 238h166l-135 -238zM539 53h-166l-140 233l140 238h166l-139 -238z" />
    <glyph glyph-name="registered" unicode="&#xae;" horiz-adv-x="627" 
d="M314 695c42 0 80.833 -7.5 116.5 -22.5s66.5 -35.5 92.5 -61.5s46.5 -56.833 61.5 -92.5s22.5 -74.167 22.5 -115.5s-7.5 -79.833 -22.5 -115.5s-35.5 -66.5 -61.5 -92.5s-56.833 -46.5 -92.5 -61.5s-74.5 -22.5 -116.5 -22.5s-81 7.5 -117 22.5s-67.167 35.5 -93.5 61.5
s-46.833 56.833 -61.5 92.5s-22 74.167 -22 115.5s7.33301 79.833 22 115.5s35.167 66.5 61.5 92.5s57.5 46.5 93.5 61.5s75 22.5 117 22.5zM314 613c-30 0 -57.5 -5.66699 -82.5 -17s-46.667 -26.5 -65 -45.5s-32.5 -41.333 -42.5 -67s-15 -52.5 -15 -80.5
s5 -54.667 15 -80s24.167 -47.666 42.5 -66.999s40 -34.666 65 -45.999s52.5 -17 82.5 -17c29.333 0 56.5 5.66699 81.5 17s46.667 26.666 65 45.999s32.666 41.666 42.999 66.999s15.5 52 15.5 80s-5.16699 54.833 -15.5 80.5s-24.666 48 -42.999 67s-40 34.167 -65 45.5
s-52.167 17 -81.5 17zM425 434c-22.667 0 -41 -0.5 -55 -1.5s-25 -3 -33 -6s-13.333 -7.66699 -16 -14s-4 -14.5 -4 -24.5v-128h-122v285h122v-34c6 6.66699 12 12.167 18 16.5s13.167 8 21.5 11s18 5.33301 29 7s24.167 2.5 39.5 2.5v-114z" />
    <glyph glyph-name="macron" unicode="&#xaf;" horiz-adv-x="400" 
d="M57 564v157h286v-157h-286z" />
    <glyph glyph-name="degree" unicode="&#xb0;" horiz-adv-x="393" 
d="M196 691c26 0 50.667 -4.83301 74 -14.5s43.666 -22.834 60.999 -39.501s31 -36.334 41 -59.001s15 -47 15 -73c0 -26.667 -5 -51.334 -15 -74.001s-23.667 -42.334 -41 -59.001s-37.666 -29.667 -60.999 -39s-48 -14 -74 -14s-50.667 4.66699 -74 14
s-43.666 22.333 -60.999 39s-31 36.334 -41 59.001s-15 47.334 -15 74.001c0 26 5 50.333 15 73s23.667 42.334 41 59.001s37.666 29.834 60.999 39.501s48 14.5 74 14.5zM196 567c-17.333 0 -32.333 -6.16699 -45 -18.5s-19 -27.5 -19 -45.5s6.33301 -33.333 19 -46
s27.667 -19 45 -19s32.333 6.33301 45 19s19 28 19 46s-6.33301 33.167 -19 45.5s-27.667 18.5 -45 18.5z" />
    <glyph glyph-name="plusminus" unicode="&#xb1;" horiz-adv-x="440" 
d="M427 448v-157h-124v-117h-165v117h-125v157h125v120h165v-120h124zM13 0v138h414v-138h-414z" />
    <glyph glyph-name="acute" unicode="&#xb4;" horiz-adv-x="400" 
d="M77 553v155l252 54v-157z" />
    <glyph glyph-name="paragraph" unicode="&#xb6;" horiz-adv-x="527" 
d="M244 0v247c-31.333 0 -60.666 5.33301 -87.999 16s-51 25.667 -71 45s-35.833 42.5 -47.5 69.5s-17.5 56.833 -17.5 89.5c0 31.333 5.83301 60.333 17.5 87s27.5 49.667 47.5 69s43.667 34.5 71 45.5s56.666 16.5 87.999 16.5h103v-685h-103zM397 0v685h104v-685h-104z
" />
    <glyph glyph-name="periodcentered" unicode="&#xb7;" horiz-adv-x="230" 
d="M23 193v181h183v-181h-183z" />
    <glyph glyph-name="cedilla" unicode="&#xb8;" horiz-adv-x="400" 
d="M216 -39c24.667 0 44.001 -8 58.001 -24s21 -37.333 21 -64c0 -12.667 -2.33301 -24.667 -7 -36s-11.5 -21.5 -20.5 -30.5s-20 -16.167 -33 -21.5s-27.833 -8 -44.5 -8c-30.667 0 -55.667 9.16699 -75 27.5s-29 40.833 -29 67.5h82c0.666992 -6 3 -11 7 -15
s9.33301 -6 16 -6c5.33301 0 10.166 2 14.499 6s6.5 9.33301 6.5 16c0 14.667 -8 22 -24 22h-71l51 114h72z" />
    <glyph glyph-name="ordmasculine" unicode="&#xba;" horiz-adv-x="372" 
d="M186 692c24 0 46.5 -4.33301 67.5 -13s39.333 -20.5 55 -35.5s28.167 -32.833 37.5 -53.5s14 -42.667 14 -66c0 -24 -4.66699 -46.333 -14 -67s-21.833 -38.5 -37.5 -53.5s-34 -26.833 -55 -35.5s-43.5 -13 -67.5 -13s-46.5 4.33301 -67.5 13s-39.333 20.5 -55 35.5
s-28.167 32.833 -37.5 53.5s-14 43 -14 67c0 23.333 4.66699 45.333 14 66s21.833 38.5 37.5 53.5s34 26.833 55 35.5s43.5 13 67.5 13zM186 590c-18.667 0 -34.667 -6.5 -48 -19.5s-20 -29.167 -20 -48.5s6.66699 -35.5 20 -48.5s29.333 -19.5 48 -19.5s34.667 6.5 48 19.5
s20 29.167 20 48.5s-6.66699 35.5 -20 48.5s-29.333 19.5 -48 19.5z" />
    <glyph glyph-name="guillemotright" unicode="&#xbb;" horiz-adv-x="546" 
d="M239 524h165l135 -238l-135 -233h-165l134 233zM7 524h165l139 -238l-139 -233h-165l139 233z" />
    <glyph glyph-name="onequarter" unicode="&#xbc;" horiz-adv-x="724" 
d="M57 294v280h-45v111h166v-391h-121zM708 172v-101h-36v-71h-117v71h-174v101l161 221h130v-221h36zM555 172v74l-54 -74h54zM97 0l304 685h146l-304 -685h-146z" />
    <glyph glyph-name="onehalf" unicode="&#xbd;" horiz-adv-x="738" 
d="M57 294v280h-45v111h166v-391h-121zM416 307c16 25.333 37.167 46.832 63.5 64.499s58.5 26.5 96.5 26.5c48 0 84.667 -11.333 110 -34s38 -50.667 38 -84c0 -12 -1.5 -23.667 -4.5 -35s-8.66699 -23.5 -17 -36.5s-20.333 -27.833 -36 -44.5s-36.5 -36.667 -62.5 -60
l-4 -4h126v-100h-286v88l114 110c34 32.667 51 55.334 51 68.001c0 8 -2.66699 14.5 -8 19.5s-13.333 7.5 -24 7.5c-24 0 -44.667 -14 -62 -42zM97 -0.000976562l304 685h146l-304 -685h-146z" />
    <glyph glyph-name="threequarters" unicode="&#xbe;" horiz-adv-x="844" 
d="M253 539c23.333 -8.66699 41.667 -22.332 55 -40.999s20 -41.334 20 -68.001c0 -20 -3.66699 -38.833 -11 -56.5s-17.833 -33 -31.5 -46s-30.5 -23.333 -50.5 -31s-42.667 -11.5 -68 -11.5c-37.333 0 -68.166 8.16699 -92.499 24.5s-43.166 38.166 -56.499 65.499l93 54
c6.66699 -15.333 15.167 -26 25.5 -32s21.166 -9 32.499 -9c13.333 0 23.5 3.83301 30.5 11.5s10.5 16.834 10.5 27.501s-3.83301 19.167 -11.5 25.5s-17.167 9.5 -28.5 9.5c-16.667 0 -30.334 -4.33301 -41.001 -13l-48 77l96 57h-134v102h259v-115zM828.001 172.002v-101
h-36v-71h-117v71h-174v101l161 221h130v-221h36zM675.001 172.002v74l-54 -74h54zM217.001 0.00195312l304 685h146l-304 -685h-146z" />
    <glyph glyph-name="questiondown" unicode="&#xbf;" horiz-adv-x="492" 
d="M352 685v-175h-176v175h176zM489 215c-4 -72 -27.501 -127.17 -70.501 -165.503s-99.5 -57.5 -169.5 -57.5c-39.333 0 -73.666 6 -102.999 18s-53.833 28.333 -73.5 49s-34.334 44.667 -44.001 72s-14.5 56 -14.5 86c0 50.667 13.833 95.334 41.5 134.001
s67.834 65.667 120.501 81v49h176v-173c-23.333 0 -45 -1.16699 -65 -3.5s-37.5 -6.66602 -52.5 -12.999s-26.667 -15.166 -35 -26.499s-12.5 -26 -12.5 -44c0 -19.333 6.33301 -36 19 -50s28.667 -21 48 -21c21.333 0 37.833 5.66699 49.5 17s19.167 27.333 22.5 48h163z
" />
    <glyph glyph-name="Agrave" unicode="&#xc0;" horiz-adv-x="721" 
d="M355 492l-72 -233h143zM475 100h-240l-31 -100h-199l230 685h252l229 -685h-210zM479 710l-252 52v157l252 -54v-155z" />
    <glyph glyph-name="Aacute" unicode="&#xc1;" horiz-adv-x="721" 
d="M355 492l-72 -233h143zM475 100h-240l-31 -100h-199l230 685h252l229 -685h-210zM237 720v155l252 54v-157z" />
    <glyph glyph-name="Acircumflex" unicode="&#xc2;" horiz-adv-x="721" 
d="M355 492l-72 -233h143zM475 100h-240l-31 -100h-199l230 685h252l229 -685h-210zM516 718l-156 23l-156 -23v108l156 44l156 -44v-108z" />
    <glyph glyph-name="Atilde" unicode="&#xc3;" horiz-adv-x="721" 
d="M355 492l-72 -233h143zM475 100h-240l-31 -100h-199l230 685h252l229 -685h-210zM420 728c-14.667 0 -28.167 1.5 -40.5 4.5s-24.166 6.33301 -35.499 10s-22.5 7 -33.5 10s-22.5 4.5 -34.5 4.5c-13.333 0 -26.333 -2.16699 -39 -6.5s-23.667 -9.5 -33 -15.5v112
c9.33301 11.333 22.5 21.833 39.5 31.5s36.167 14.5 57.5 14.5c14.667 0 28.167 -1.66699 40.5 -5s24.166 -6.83301 35.499 -10.5l33.5 -10.5c11 -3.33301 22.5 -5 34.5 -5c13.333 0 26.333 2.16699 39 6.5s23.667 9.5 33 15.5v-110
c-9.33301 -11.333 -22.5 -21.833 -39.5 -31.5s-36.167 -14.5 -57.5 -14.5z" />
    <glyph glyph-name="Adieresis" unicode="&#xc4;" horiz-adv-x="721" 
d="M355 492l-72 -233h143zM475 100h-240l-31 -100h-199l230 685h252l229 -685h-210zM186 729v133h158v-133h-158zM376 729v133h158v-133h-158z" />
    <glyph glyph-name="Aring" unicode="&#xc5;" horiz-adv-x="721" 
d="M355 492l-72 -233h143zM475 100h-240l-31 -100h-199l230 685h252l229 -685h-210zM360 936c14.667 0 28.666 -2.66699 41.999 -8s25 -13 35 -23s18 -21.667 24 -35s9 -28 9 -44s-2.83301 -30.667 -8.5 -44s-13.5 -25 -23.5 -35s-21.667 -17.667 -35 -23
s-27.666 -8 -42.999 -8c-14.667 0 -28.667 2.66699 -42 8s-25 13 -35 23s-18 21.667 -24 35s-9 28 -9 44s3 30.667 9 44s14 25 24 35s21.667 17.667 35 23s27.333 8 42 8zM359.999 861c-8.66699 0 -16.167 -3.16699 -22.5 -9.5s-9.5 -14.833 -9.5 -25.5
s3.16699 -19.167 9.5 -25.5s13.833 -9.5 22.5 -9.5c9.33301 0 17 3.16699 23 9.5s9 14.833 9 25.5s-3 19.167 -9 25.5s-13.667 9.5 -23 9.5z" />
    <glyph glyph-name="AE" unicode="&#xc6;" horiz-adv-x="995" 
d="M364 492l-76 -233h143zM477 100h-241l-32 -100h-199l240 685h723v-168h-417l28 -90h359v-166h-305l29 -93h308v-168h-464z" />
    <glyph glyph-name="Ccedilla" unicode="&#xc7;" horiz-adv-x="712" 
d="M376 -223c-30.667 0 -55.6641 9.16699 -74.9971 27.5s-29 40.833 -29 67.5h82c0.666992 -6 3 -11 7 -15s9.33301 -6 16 -6c5.33301 0 10.166 2 14.499 6s6.5 9.33301 6.5 16c0 14.667 -8 22 -24 22h-71l42 93c-45.333 4.66699 -87.833 16.667 -127.5 36
s-74.167 44.666 -103.5 75.999s-52.333 67.666 -69 108.999s-25 86 -25 134c0 52.667 9.66699 101 29 145s45.833 81.667 79.5 113s72.667 55.666 117 72.999s91.5 26 141.5 26c72 0 133.667 -15 185 -45s93.666 -72 126.999 -126l-154 -109
c-17.333 30.667 -39 54.167 -65 70.5s-57 24.5 -93 24.5c-23.333 0 -45 -4.33301 -65 -13s-37.5 -20.667 -52.5 -36s-26.833 -33.5 -35.5 -54.5s-13 -43.833 -13 -68.5c0 -25.333 4.33301 -48.666 13 -69.999s20.667 -39.666 36 -54.999s33.5 -27.166 54.5 -35.499
s43.5 -12.5 67.5 -12.5c38 0 70.167 9.16699 96.5 27.5s47.166 40.833 62.499 67.5l149 -108c-29.333 -46 -67 -84.667 -113 -116s-103.333 -49.333 -172 -54l-13 -26c24.667 0 44 -8 58 -24s21 -37.333 21 -64c0 -12.667 -2.33301 -24.667 -7 -36s-11.5 -21.5 -20.5 -30.5
s-20 -16.167 -33 -21.5s-27.833 -8 -44.5 -8z" />
    <glyph glyph-name="Egrave" unicode="&#xc8;" horiz-adv-x="585" 
d="M35 685h523v-168h-326v-90h296v-166h-296v-93h328v-168h-525v685zM411 710l-252 52v157l252 -54v-155z" />
    <glyph glyph-name="Eacute" unicode="&#xc9;" horiz-adv-x="585" 
d="M35 685h523v-168h-326v-90h296v-166h-296v-93h328v-168h-525v685zM169 720v155l252 54v-157z" />
    <glyph glyph-name="Ecircumflex" unicode="&#xca;" horiz-adv-x="585" 
d="M35 685h523v-168h-326v-90h296v-166h-296v-93h328v-168h-525v685zM448 718l-156 23l-156 -23v108l156 44l156 -44v-108z" />
    <glyph glyph-name="Edieresis" unicode="&#xcb;" horiz-adv-x="585" 
d="M35 685h523v-168h-326v-90h296v-166h-296v-93h328v-168h-525v685zM118 729v133h158v-133h-158zM308 729v133h158v-133h-158z" />
    <glyph glyph-name="Igrave" unicode="&#xcc;" horiz-adv-x="267" 
d="M35 0v685h197v-685h-197zM253 710l-252 52v157l252 -54v-155z" />
    <glyph glyph-name="Iacute" unicode="&#xcd;" horiz-adv-x="267" 
d="M35 0v685h197v-685h-197zM11 720v155l252 54v-157z" />
    <glyph glyph-name="Icircumflex" unicode="&#xce;" horiz-adv-x="267" 
d="M35 0v685h197v-685h-197zM290 718l-156 23l-156 -23v108l156 44l156 -44v-108z" />
    <glyph glyph-name="Idieresis" unicode="&#xcf;" horiz-adv-x="267" 
d="M35 0v685h197v-685h-197zM-40 729v133h158v-133h-158zM150 729v133h158v-133h-158z" />
    <glyph glyph-name="Eth" unicode="&#xd0;" horiz-adv-x="720" 
d="M45 0v263.998h-38v156h38v265h291c56 0 106.5 -8.83301 151.5 -26.5s83.333 -41.667 115 -72s55.834 -66.166 72.501 -107.499s25 -85.666 25 -132.999c0 -48 -8.33301 -93 -25 -135s-40.834 -78.667 -72.501 -110s-70 -56 -115 -74s-95.5 -27 -151.5 -27h-291z
M336 173.998c24.667 0 47.167 4.16699 67.5 12.5s37.5 20 51.5 35s24.833 32.667 32.5 53s11.5 42.5 11.5 66.5s-3.83301 46.333 -11.5 67s-18.5 38.667 -32.5 54s-31.167 27.333 -51.5 36s-42.833 13 -67.5 13h-94v-91h96v-156h-96v-90h94z" />
    <glyph glyph-name="Ntilde" unicode="&#xd1;" horiz-adv-x="700" 
d="M226 359v-359h-191v685h223l216 -366v366h191v-685h-223zM420 728c-14.667 0 -28.167 1.5 -40.5 4.5s-24.166 6.33301 -35.499 10s-22.5 7 -33.5 10s-22.5 4.5 -34.5 4.5c-13.333 0 -26.333 -2.16699 -39 -6.5s-23.667 -9.5 -33 -15.5v112
c9.33301 11.333 22.5 21.833 39.5 31.5s36.167 14.5 57.5 14.5c14.667 0 28.167 -1.66699 40.5 -5s24.166 -6.83301 35.499 -10.5l33.5 -10.5c11 -3.33301 22.5 -5 34.5 -5c13.333 0 26.333 2.16699 39 6.5s23.667 9.5 33 15.5v-110
c-9.33301 -11.333 -22.5 -21.833 -39.5 -31.5s-36.167 -14.5 -57.5 -14.5z" />
    <glyph glyph-name="Ograve" unicode="&#xd2;" horiz-adv-x="771" 
d="M385 -14c-50 0 -97 9 -141 27s-82.667 42.833 -116 74.5s-59.666 69.334 -78.999 113.001s-29 91.167 -29 142.5c0 50.667 9.66699 97.834 29 141.501s45.666 81.5 78.999 113.5s72 57 116 75s91 27 141 27c50.667 0 98.167 -9 142.5 -27s83 -43 116 -75
s59.167 -69.833 78.5 -113.5s29 -90.834 29 -141.501c0 -51.333 -9.66699 -98.833 -29 -142.5s-45.5 -81.334 -78.5 -113.001s-71.667 -56.5 -116 -74.5s-91.833 -27 -142.5 -27zM385 171c22.667 0 44 4.5 64 13.5s37.5 21.333 52.5 37s26.833 33.834 35.5 54.501
s13 43 13 67c0 23.333 -4.33301 45.333 -13 66s-20.5 38.834 -35.5 54.501s-32.5 28.167 -52.5 37.5s-41.333 14 -64 14s-43.834 -4.66699 -63.501 -14s-37 -21.833 -52 -37.5s-26.833 -33.834 -35.5 -54.501s-13 -42.667 -13 -66c0 -24 4.33301 -46.333 13 -67
s20.5 -38.834 35.5 -54.501s32.333 -28 52 -37s40.834 -13.5 63.501 -13.5zM504 710l-252 52v157l252 -54v-155z" />
    <glyph glyph-name="Oacute" unicode="&#xd3;" horiz-adv-x="771" 
d="M385 -14c-50 0 -97 9 -141 27s-82.667 42.833 -116 74.5s-59.666 69.334 -78.999 113.001s-29 91.167 -29 142.5c0 50.667 9.66699 97.834 29 141.501s45.666 81.5 78.999 113.5s72 57 116 75s91 27 141 27c50.667 0 98.167 -9 142.5 -27s83 -43 116 -75
s59.167 -69.833 78.5 -113.5s29 -90.834 29 -141.501c0 -51.333 -9.66699 -98.833 -29 -142.5s-45.5 -81.334 -78.5 -113.001s-71.667 -56.5 -116 -74.5s-91.833 -27 -142.5 -27zM385 171c22.667 0 44 4.5 64 13.5s37.5 21.333 52.5 37s26.833 33.834 35.5 54.501
s13 43 13 67c0 23.333 -4.33301 45.333 -13 66s-20.5 38.834 -35.5 54.501s-32.5 28.167 -52.5 37.5s-41.333 14 -64 14s-43.834 -4.66699 -63.501 -14s-37 -21.833 -52 -37.5s-26.833 -33.834 -35.5 -54.501s-13 -42.667 -13 -66c0 -24 4.33301 -46.333 13 -67
s20.5 -38.834 35.5 -54.501s32.333 -28 52 -37s40.834 -13.5 63.501 -13.5zM262 720v155l252 54v-157z" />
    <glyph glyph-name="Ocircumflex" unicode="&#xd4;" horiz-adv-x="771" 
d="M385 -14c-50 0 -97 9 -141 27s-82.667 42.833 -116 74.5s-59.666 69.334 -78.999 113.001s-29 91.167 -29 142.5c0 50.667 9.66699 97.834 29 141.501s45.666 81.5 78.999 113.5s72 57 116 75s91 27 141 27c50.667 0 98.167 -9 142.5 -27s83 -43 116 -75
s59.167 -69.833 78.5 -113.5s29 -90.834 29 -141.501c0 -51.333 -9.66699 -98.833 -29 -142.5s-45.5 -81.334 -78.5 -113.001s-71.667 -56.5 -116 -74.5s-91.833 -27 -142.5 -27zM385 171c22.667 0 44 4.5 64 13.5s37.5 21.333 52.5 37s26.833 33.834 35.5 54.501
s13 43 13 67c0 23.333 -4.33301 45.333 -13 66s-20.5 38.834 -35.5 54.501s-32.5 28.167 -52.5 37.5s-41.333 14 -64 14s-43.834 -4.66699 -63.501 -14s-37 -21.833 -52 -37.5s-26.833 -33.834 -35.5 -54.501s-13 -42.667 -13 -66c0 -24 4.33301 -46.333 13 -67
s20.5 -38.834 35.5 -54.501s32.333 -28 52 -37s40.834 -13.5 63.501 -13.5zM541 718l-156 23l-156 -23v108l156 44l156 -44v-108z" />
    <glyph glyph-name="Otilde" unicode="&#xd5;" horiz-adv-x="771" 
d="M385 -14c-50 0 -97 9 -141 27s-82.667 42.833 -116 74.5s-59.666 69.334 -78.999 113.001s-29 91.167 -29 142.5c0 50.667 9.66699 97.834 29 141.501s45.666 81.5 78.999 113.5s72 57 116 75s91 27 141 27c50.667 0 98.167 -9 142.5 -27s83 -43 116 -75
s59.167 -69.833 78.5 -113.5s29 -90.834 29 -141.501c0 -51.333 -9.66699 -98.833 -29 -142.5s-45.5 -81.334 -78.5 -113.001s-71.667 -56.5 -116 -74.5s-91.833 -27 -142.5 -27zM385 171c22.667 0 44 4.5 64 13.5s37.5 21.333 52.5 37s26.833 33.834 35.5 54.501
s13 43 13 67c0 23.333 -4.33301 45.333 -13 66s-20.5 38.834 -35.5 54.501s-32.5 28.167 -52.5 37.5s-41.333 14 -64 14s-43.834 -4.66699 -63.501 -14s-37 -21.833 -52 -37.5s-26.833 -33.834 -35.5 -54.501s-13 -42.667 -13 -66c0 -24 4.33301 -46.333 13 -67
s20.5 -38.834 35.5 -54.501s32.333 -28 52 -37s40.834 -13.5 63.501 -13.5zM445 728c-14.667 0 -28.167 1.5 -40.5 4.5s-24.166 6.33301 -35.499 10s-22.5 7 -33.5 10s-22.5 4.5 -34.5 4.5c-13.333 0 -26.333 -2.16699 -39 -6.5s-23.667 -9.5 -33 -15.5v112
c9.33301 11.333 22.5 21.833 39.5 31.5s36.167 14.5 57.5 14.5c14.667 0 28.167 -1.66699 40.5 -5s24.166 -6.83301 35.499 -10.5l33.5 -10.5c11 -3.33301 22.5 -5 34.5 -5c13.333 0 26.333 2.16699 39 6.5s23.667 9.5 33 15.5v-110
c-9.33301 -11.333 -22.5 -21.833 -39.5 -31.5s-36.167 -14.5 -57.5 -14.5z" />
    <glyph glyph-name="Odieresis" unicode="&#xd6;" horiz-adv-x="771" 
d="M385 -14c-50 0 -97 9 -141 27s-82.667 42.833 -116 74.5s-59.666 69.334 -78.999 113.001s-29 91.167 -29 142.5c0 50.667 9.66699 97.834 29 141.501s45.666 81.5 78.999 113.5s72 57 116 75s91 27 141 27c50.667 0 98.167 -9 142.5 -27s83 -43 116 -75
s59.167 -69.833 78.5 -113.5s29 -90.834 29 -141.501c0 -51.333 -9.66699 -98.833 -29 -142.5s-45.5 -81.334 -78.5 -113.001s-71.667 -56.5 -116 -74.5s-91.833 -27 -142.5 -27zM385 171c22.667 0 44 4.5 64 13.5s37.5 21.333 52.5 37s26.833 33.834 35.5 54.501
s13 43 13 67c0 23.333 -4.33301 45.333 -13 66s-20.5 38.834 -35.5 54.501s-32.5 28.167 -52.5 37.5s-41.333 14 -64 14s-43.834 -4.66699 -63.501 -14s-37 -21.833 -52 -37.5s-26.833 -33.834 -35.5 -54.501s-13 -42.667 -13 -66c0 -24 4.33301 -46.333 13 -67
s20.5 -38.834 35.5 -54.501s32.333 -28 52 -37s40.834 -13.5 63.501 -13.5zM211 729v133h158v-133h-158zM401 729v133h158v-133h-158z" />
    <glyph glyph-name="multiply" unicode="&#xd7;" horiz-adv-x="407" 
d="M324 284l94 -94l-127 -129l-89 90l-87 -90l-128 129l92 94l-92 95l129 126l86 -87l89 87l127 -126z" />
    <glyph glyph-name="Oslash" unicode="&#xd8;" horiz-adv-x="771" 
d="M221 343c0 -39.333 11 -73.666 33 -102.999l177 268c-13.333 4.66699 -28.666 7 -45.999 7c-22.667 0 -43.834 -4.66699 -63.501 -14s-37 -21.833 -52 -37.5s-26.833 -33.834 -35.5 -54.501s-13 -42.667 -13 -66zM385 171c22.667 0 44 4.49902 64 13.499
s37.5 21.333 52.5 37s26.833 33.834 35.5 54.501s13 43 13 67c0 18.667 -2.83301 36.667 -8.5 54s-13.5 33 -23.5 47l-177 -267c14 -4 28.667 -6 44 -6zM385 -14.001c-52.667 0 -102.666 10.333 -149.999 31l-37 -57h-129l75 113c-38 32 -68.167 71 -90.5 117
s-33.5 97 -33.5 153c0 50.667 9.66699 97.834 29 141.501s45.666 81.5 78.999 113.5s72 57 116 75s91 27 141 27c54 0 105 -10.667 153 -32l37 57h128l-75 -113c38 -32.667 68 -72 90 -118s33 -96.333 33 -151c0 -51.333 -9.66699 -98.833 -29 -142.5
s-45.5 -81.334 -78.5 -113.001s-71.667 -56.5 -116 -74.5s-91.833 -27 -142.5 -27z" />
    <glyph glyph-name="Ugrave" unicode="&#xd9;" horiz-adv-x="667" 
d="M334 -12c-50 0 -93.832 7.16699 -131.499 21.5s-69.334 34.5 -95.001 60.5s-45 56.833 -58 92.5s-19.5 75.167 -19.5 118.5v404h197v-381c0 -46 8.5 -80.333 25.5 -103s44.167 -34 81.5 -34c36.667 0 63.5 11.333 80.5 34s25.5 57 25.5 103v381h197v-404
c0 -43.333 -6.5 -82.833 -19.5 -118.5s-32.167 -66.5 -57.5 -92.5s-56.833 -46.167 -94.5 -60.5s-81.5 -21.5 -131.5 -21.5zM452.001 710l-252 52v157l252 -54v-155z" />
    <glyph glyph-name="Uacute" unicode="&#xda;" horiz-adv-x="667" 
d="M334 -12c-50 0 -93.832 7.16699 -131.499 21.5s-69.334 34.5 -95.001 60.5s-45 56.833 -58 92.5s-19.5 75.167 -19.5 118.5v404h197v-381c0 -46 8.5 -80.333 25.5 -103s44.167 -34 81.5 -34c36.667 0 63.5 11.333 80.5 34s25.5 57 25.5 103v381h197v-404
c0 -43.333 -6.5 -82.833 -19.5 -118.5s-32.167 -66.5 -57.5 -92.5s-56.833 -46.167 -94.5 -60.5s-81.5 -21.5 -131.5 -21.5zM210.001 720v155l252 54v-157z" />
    <glyph glyph-name="Ucircumflex" unicode="&#xdb;" horiz-adv-x="667" 
d="M334 -12c-50 0 -93.832 7.16699 -131.499 21.5s-69.334 34.5 -95.001 60.5s-45 56.833 -58 92.5s-19.5 75.167 -19.5 118.5v404h197v-381c0 -46 8.5 -80.333 25.5 -103s44.167 -34 81.5 -34c36.667 0 63.5 11.333 80.5 34s25.5 57 25.5 103v381h197v-404
c0 -43.333 -6.5 -82.833 -19.5 -118.5s-32.167 -66.5 -57.5 -92.5s-56.833 -46.167 -94.5 -60.5s-81.5 -21.5 -131.5 -21.5zM489.001 718l-156 23l-156 -23v108l156 44l156 -44v-108z" />
    <glyph glyph-name="Udieresis" unicode="&#xdc;" horiz-adv-x="667" 
d="M334 -12c-50 0 -93.832 7.16699 -131.499 21.5s-69.334 34.5 -95.001 60.5s-45 56.833 -58 92.5s-19.5 75.167 -19.5 118.5v404h197v-381c0 -46 8.5 -80.333 25.5 -103s44.167 -34 81.5 -34c36.667 0 63.5 11.333 80.5 34s25.5 57 25.5 103v381h197v-404
c0 -43.333 -6.5 -82.833 -19.5 -118.5s-32.167 -66.5 -57.5 -92.5s-56.833 -46.167 -94.5 -60.5s-81.5 -21.5 -131.5 -21.5zM159.001 729v133h158v-133h-158zM349.001 729v133h158v-133h-158z" />
    <glyph glyph-name="Yacute" unicode="&#xdd;" horiz-adv-x="678" 
d="M239 0v249l-237 436h214l123 -258l126 258h208l-237 -439v-246h-197zM215 720v155l252 54v-157z" />
    <glyph glyph-name="Thorn" unicode="&#xde;" horiz-adv-x="611" 
d="M232 87v-87.001h-197v685h197v-86h124c40.667 0 76.167 -6.66699 106.5 -20s55.833 -31.166 76.5 -53.499s36.167 -48.5 46.5 -78.5s15.5 -62 15.5 -96c0 -36.667 -5.83301 -71 -17.5 -103s-28.834 -60 -51.501 -84s-50.667 -42.833 -84 -56.5
s-71.666 -20.5 -114.999 -20.5h-101zM232 424.999v-164h80c27.333 0 48.833 7.16699 64.5 21.5s23.5 34.5 23.5 60.5c0 25.333 -7.16699 45.333 -21.5 60s-36.5 22 -66.5 22h-80z" />
    <glyph glyph-name="germandbls" unicode="&#xdf;" horiz-adv-x="506" 
d="M23 477c0 29.333 5.33008 57.001 15.9971 83.001s26 48.667 46 68s44.167 34.5 72.5 45.5s60.5 16.5 96.5 16.5c32 0 61.833 -4.66699 89.5 -14s51.5 -22.5 71.5 -39.5s35.833 -37.667 47.5 -62s17.5 -51.166 17.5 -80.499c0 -23.333 -4.66699 -46.333 -14 -69
s-24.666 -43.334 -45.999 -62.001c20.667 -18 37.167 -38.833 49.5 -62.5s18.5 -51.834 18.5 -84.501c0 -32 -5.83301 -61.333 -17.5 -88s-27.667 -49.5 -48 -68.5s-44.666 -33.667 -72.999 -44s-59.5 -15.5 -93.5 -15.5h-29v157h24c17.333 0 31.5 6.33301 42.5 19
s16.5 27.667 16.5 45s-4.83301 31.833 -14.5 43.5s-24.5 17.5 -44.5 17.5h-24v156h36c15.333 0 27 4.83301 35 14.5s12 20.5 12 32.5c0 13.333 -4.83301 24.833 -14.5 34.5s-23.167 14.5 -40.5 14.5s-31.166 -5.5 -41.499 -16.5s-15.5 -26.167 -15.5 -45.5v-472h-175v477z
" />
    <glyph glyph-name="agrave" unicode="&#xe0;" horiz-adv-x="600" 
d="M296 365c-14.667 0 -28.5 -2.83301 -41.5 -8.5s-24.333 -13.334 -34 -23.001s-17.334 -21 -23.001 -34s-8.5 -27.167 -8.5 -42.5s2.83301 -29.5 8.5 -42.5s13.334 -24.333 23.001 -34s21 -17.334 34 -23.001s26.833 -8.5 41.5 -8.5s28.5 2.83301 41.5 8.5
s24.167 13.334 33.5 23.001s16.833 21 22.5 34s8.5 27.167 8.5 42.5s-2.83301 29.5 -8.5 42.5s-13.167 24.333 -22.5 34s-20.5 17.334 -33.5 23.001s-26.833 8.5 -41.5 8.5zM400 35c-21.333 -13.333 -42.666 -22.9971 -63.999 -28.9971s-42.666 -9 -63.999 -9
c-35.333 0 -68.5 6.66699 -99.5 20s-58 31.666 -81 54.999s-41.333 51.166 -55 83.499s-20.5 67.166 -20.5 104.499c0 36.667 6.83301 71 20.5 103s32 59.833 55 83.5s50 42.167 81 55.5s64.167 20 99.5 20c21.333 0 42.666 -3 63.999 -9s42.666 -15.667 63.999 -29v34h176
v-518h-176v35zM416 543.003l-252 52v157l252 -54v-155z" />
    <glyph glyph-name="aacute" unicode="&#xe1;" horiz-adv-x="600" 
d="M296 365c-14.667 0 -28.5 -2.83301 -41.5 -8.5s-24.333 -13.334 -34 -23.001s-17.334 -21 -23.001 -34s-8.5 -27.167 -8.5 -42.5s2.83301 -29.5 8.5 -42.5s13.334 -24.333 23.001 -34s21 -17.334 34 -23.001s26.833 -8.5 41.5 -8.5s28.5 2.83301 41.5 8.5
s24.167 13.334 33.5 23.001s16.833 21 22.5 34s8.5 27.167 8.5 42.5s-2.83301 29.5 -8.5 42.5s-13.167 24.333 -22.5 34s-20.5 17.334 -33.5 23.001s-26.833 8.5 -41.5 8.5zM400 35c-21.333 -13.333 -42.666 -22.9971 -63.999 -28.9971s-42.666 -9 -63.999 -9
c-35.333 0 -68.5 6.66699 -99.5 20s-58 31.666 -81 54.999s-41.333 51.166 -55 83.499s-20.5 67.166 -20.5 104.499c0 36.667 6.83301 71 20.5 103s32 59.833 55 83.5s50 42.167 81 55.5s64.167 20 99.5 20c21.333 0 42.666 -3 63.999 -9s42.666 -15.667 63.999 -29v34h176
v-518h-176v35zM174 553.003v155l252 54v-157z" />
    <glyph glyph-name="acircumflex" unicode="&#xe2;" horiz-adv-x="600" 
d="M296 365c-14.667 0 -28.5 -2.83301 -41.5 -8.5s-24.333 -13.334 -34 -23.001s-17.334 -21 -23.001 -34s-8.5 -27.167 -8.5 -42.5s2.83301 -29.5 8.5 -42.5s13.334 -24.333 23.001 -34s21 -17.334 34 -23.001s26.833 -8.5 41.5 -8.5s28.5 2.83301 41.5 8.5
s24.167 13.334 33.5 23.001s16.833 21 22.5 34s8.5 27.167 8.5 42.5s-2.83301 29.5 -8.5 42.5s-13.167 24.333 -22.5 34s-20.5 17.334 -33.5 23.001s-26.833 8.5 -41.5 8.5zM400 35c-21.333 -13.333 -42.666 -22.9971 -63.999 -28.9971s-42.666 -9 -63.999 -9
c-35.333 0 -68.5 6.66699 -99.5 20s-58 31.666 -81 54.999s-41.333 51.166 -55 83.499s-20.5 67.166 -20.5 104.499c0 36.667 6.83301 71 20.5 103s32 59.833 55 83.5s50 42.167 81 55.5s64.167 20 99.5 20c21.333 0 42.666 -3 63.999 -9s42.666 -15.667 63.999 -29v34h176
v-518h-176v35zM453 551.003l-156 23l-156 -23v108l156 44l156 -44v-108z" />
    <glyph glyph-name="atilde" unicode="&#xe3;" horiz-adv-x="600" 
d="M296 365c-14.667 0 -28.5 -2.83301 -41.5 -8.5s-24.333 -13.334 -34 -23.001s-17.334 -21 -23.001 -34s-8.5 -27.167 -8.5 -42.5s2.83301 -29.5 8.5 -42.5s13.334 -24.333 23.001 -34s21 -17.334 34 -23.001s26.833 -8.5 41.5 -8.5s28.5 2.83301 41.5 8.5
s24.167 13.334 33.5 23.001s16.833 21 22.5 34s8.5 27.167 8.5 42.5s-2.83301 29.5 -8.5 42.5s-13.167 24.333 -22.5 34s-20.5 17.334 -33.5 23.001s-26.833 8.5 -41.5 8.5zM400 35c-21.333 -13.333 -42.666 -22.9971 -63.999 -28.9971s-42.666 -9 -63.999 -9
c-35.333 0 -68.5 6.66699 -99.5 20s-58 31.666 -81 54.999s-41.333 51.166 -55 83.499s-20.5 67.166 -20.5 104.499c0 36.667 6.83301 71 20.5 103s32 59.833 55 83.5s50 42.167 81 55.5s64.167 20 99.5 20c21.333 0 42.666 -3 63.999 -9s42.666 -15.667 63.999 -29v34h176
v-518h-176v35zM357 561.003c-14.667 0 -28.167 1.5 -40.5 4.5s-24.166 6.33301 -35.499 10s-22.5 7 -33.5 10s-22.5 4.5 -34.5 4.5c-13.333 0 -26.333 -2.16699 -39 -6.5s-23.667 -9.5 -33 -15.5v112c9.33301 11.333 22.5 21.833 39.5 31.5s36.167 14.5 57.5 14.5
c14.667 0 28.167 -1.66699 40.5 -5s24.166 -6.83301 35.499 -10.5l33.5 -10.5c11 -3.33301 22.5 -5 34.5 -5c13.333 0 26.333 2.16699 39 6.5s23.667 9.5 33 15.5v-110c-9.33301 -11.333 -22.5 -21.833 -39.5 -31.5s-36.167 -14.5 -57.5 -14.5z" />
    <glyph glyph-name="adieresis" unicode="&#xe4;" horiz-adv-x="600" 
d="M296 365c-14.667 0 -28.5 -2.83301 -41.5 -8.5s-24.333 -13.334 -34 -23.001s-17.334 -21 -23.001 -34s-8.5 -27.167 -8.5 -42.5s2.83301 -29.5 8.5 -42.5s13.334 -24.333 23.001 -34s21 -17.334 34 -23.001s26.833 -8.5 41.5 -8.5s28.5 2.83301 41.5 8.5
s24.167 13.334 33.5 23.001s16.833 21 22.5 34s8.5 27.167 8.5 42.5s-2.83301 29.5 -8.5 42.5s-13.167 24.333 -22.5 34s-20.5 17.334 -33.5 23.001s-26.833 8.5 -41.5 8.5zM400 35c-21.333 -13.333 -42.666 -22.9971 -63.999 -28.9971s-42.666 -9 -63.999 -9
c-35.333 0 -68.5 6.66699 -99.5 20s-58 31.666 -81 54.999s-41.333 51.166 -55 83.499s-20.5 67.166 -20.5 104.499c0 36.667 6.83301 71 20.5 103s32 59.833 55 83.5s50 42.167 81 55.5s64.167 20 99.5 20c21.333 0 42.666 -3 63.999 -9s42.666 -15.667 63.999 -29v34h176
v-518h-176v35zM123 562.003v133h158v-133h-158zM313 562.003v133h158v-133h-158z" />
    <glyph glyph-name="aring" unicode="&#xe5;" horiz-adv-x="600" 
d="M296 365c-14.667 0 -28.5 -2.83301 -41.5 -8.5s-24.333 -13.334 -34 -23.001s-17.334 -21 -23.001 -34s-8.5 -27.167 -8.5 -42.5s2.83301 -29.5 8.5 -42.5s13.334 -24.333 23.001 -34s21 -17.334 34 -23.001s26.833 -8.5 41.5 -8.5s28.5 2.83301 41.5 8.5
s24.167 13.334 33.5 23.001s16.833 21 22.5 34s8.5 27.167 8.5 42.5s-2.83301 29.5 -8.5 42.5s-13.167 24.333 -22.5 34s-20.5 17.334 -33.5 23.001s-26.833 8.5 -41.5 8.5zM400 35c-21.333 -13.333 -42.666 -22.9971 -63.999 -28.9971s-42.666 -9 -63.999 -9
c-35.333 0 -68.5 6.66699 -99.5 20s-58 31.666 -81 54.999s-41.333 51.166 -55 83.499s-20.5 67.166 -20.5 104.499c0 36.667 6.83301 71 20.5 103s32 59.833 55 83.5s50 42.167 81 55.5s64.167 20 99.5 20c21.333 0 42.666 -3 63.999 -9s42.666 -15.667 63.999 -29v34h176
v-518h-176v35zM297 769.003c14.667 0 28.666 -2.66699 41.999 -8s25 -13 35 -23s18 -21.667 24 -35s9 -28 9 -44s-2.83301 -30.667 -8.5 -44s-13.5 -25 -23.5 -35s-21.667 -17.667 -35 -23s-27.666 -8 -42.999 -8c-14.667 0 -28.667 2.66699 -42 8s-25 13 -35 23
s-18 21.667 -24 35s-9 28 -9 44s3 30.667 9 44s14 25 24 35s21.667 17.667 35 23s27.333 8 42 8zM296.999 694.003c-8.66699 0 -16.167 -3.16699 -22.5 -9.5s-9.5 -14.833 -9.5 -25.5s3.16699 -19.167 9.5 -25.5s13.833 -9.5 22.5 -9.5c9.33301 0 17 3.16699 23 9.5
s9 14.833 9 25.5s-3 19.167 -9 25.5s-13.667 9.5 -23 9.5z" />
    <glyph glyph-name="ae" unicode="&#xe6;" horiz-adv-x="990" 
d="M576 487c41.333 26.667 87.999 40.001 139.999 40.001c38.667 0 74 -6.66699 106 -20s59.333 -31.833 82 -55.5s40.334 -51.667 53.001 -84s19 -67.166 19 -104.499v-8.5v-16.5c0 -6 -0.166992 -12 -0.5 -18s-0.5 -10 -0.5 -12h-365c9.33301 -24 23.833 -43 43.5 -57
s42.5 -21 68.5 -21c25.333 0 47.5 5.33301 66.5 16s34.833 23.667 47.5 39l119 -82c-10 -15.333 -22.5 -29.666 -37.5 -42.999s-32.333 -25.333 -52 -36s-41.5 -19 -65.5 -25s-50.333 -9 -79 -9c-54.667 0 -103 13.333 -145 40v-30h-176v35
c-18.667 -12 -38.834 -21.333 -60.501 -28s-44.167 -10 -67.5 -10c-35.333 0 -68.5 6.66699 -99.5 20s-58 31.666 -81 54.999s-41.333 51.166 -55 83.499s-20.5 67.166 -20.5 104.499c0 36.667 6.83301 71 20.5 103s32 59.833 55 83.5s50 42.167 81 55.5s64.167 20 99.5 20
c23.333 0 45.833 -3.33301 67.5 -10s41.834 -16 60.501 -28v33h176v-30zM803.999 326.001c-8.66699 24.667 -21.833 41.667 -39.5 51s-35.167 14 -52.5 14c-24.667 0 -45.167 -5.83301 -61.5 -17.5s-28.833 -27.5 -37.5 -47.5h191zM296 149.001
c14.667 0 28.5 2.83301 41.5 8.5s24.167 13.334 33.5 23.001s16.833 21 22.5 34s8.5 27.167 8.5 42.5s-2.83301 29.5 -8.5 42.5s-13.167 24.333 -22.5 34s-20.5 17.334 -33.5 23.001s-26.833 8.5 -41.5 8.5s-28.5 -2.83301 -41.5 -8.5s-24.333 -13.334 -34 -23.001
s-17.334 -21 -23.001 -34s-8.5 -27.167 -8.5 -42.5s2.83301 -29.5 8.5 -42.5s13.334 -24.333 23.001 -34s21 -17.334 34 -23.001s26.833 -8.5 41.5 -8.5z" />
    <glyph glyph-name="ccedilla" unicode="&#xe7;" horiz-adv-x="547" 
d="M289 -223c-30.667 0 -55.666 9.16895 -74.999 27.502s-29 40.833 -29 67.5h82c0.666992 -6 3 -11 7 -15s9.33301 -6 16 -6c5.33301 0 10.166 2 14.499 6s6.5 9.33301 6.5 16c0 14.667 -8 22 -24 22h-71l42 94c-34 4 -65.667 13.667 -95 29s-55 34.833 -77 58.5
s-39.167 51 -51.5 82s-18.5 64.5 -18.5 100.5c0 38.667 7.33301 74.5 22 107.5s34.5 61.667 59.5 86s54.5 43.333 88.5 57s70 20.5 108 20.5c52.667 0 100.834 -12.333 144.501 -37s77.167 -59 100.5 -103l-138 -85c-9.33301 18.667 -23.166 33.5 -41.499 44.5
s-38.5 16.5 -60.5 16.5c-15.333 0 -29.833 -2.66699 -43.5 -8s-25.5 -13 -35.5 -23s-18 -21.667 -24 -35s-9 -28 -9 -44s3 -30.667 9 -44s14 -24.833 24 -34.5s21.833 -17.334 35.5 -23.001s28.167 -8.5 43.5 -8.5c21.333 0 41.166 5.5 59.499 16.5
s32.166 25.833 41.499 44.5l133 -90c-21.333 -36.667 -49.833 -65.834 -85.5 -87.501s-75.167 -35.167 -118.5 -40.5l-14 -28c24.667 0 44 -8 58 -24s21 -37.333 21 -64c0 -12.667 -2.33301 -24.667 -7 -36s-11.5 -21.5 -20.5 -30.5s-20 -16.167 -33 -21.5
s-27.833 -8 -44.5 -8z" />
    <glyph glyph-name="egrave" unicode="&#xe8;" horiz-adv-x="571" 
d="M533 103c-10.667 -15.333 -23.502 -29.9971 -38.502 -43.9971s-32.167 -26.333 -51.5 -37s-41 -19.167 -65 -25.5s-50.333 -9.5 -79 -9.5c-40 0 -77.333 6.83301 -112 20.5s-64.667 32.5 -90 56.5s-45.166 52.667 -59.499 86s-21.5 69.666 -21.5 108.999
c0 38 7.16699 73.5 21.5 106.5s34 61.667 59 86s54.5 43.5 88.5 57.5s70.333 21 109 21s74 -6.83301 106 -20.5s59.333 -32.334 82 -56.001s40.334 -51.834 53.001 -84.501s19 -68 19 -106v-8.5v-16.5c0 -6 -0.166992 -12 -0.5 -18s-0.5 -10 -0.5 -12h-365
c9.33301 -24 23.833 -43 43.5 -57s42.5 -21 68.5 -21c25.333 0 47.5 5.33301 66.5 16s34.833 23.667 47.5 39zM289.998 391.003c-24.667 0 -45.166 -5.83301 -61.499 -17.5s-28.833 -27.5 -37.5 -47.5h191c-8.66699 24.667 -21.834 41.667 -39.501 51s-35.167 14 -52.5 14z
M403.999 543.003l-252 52v157l252 -54v-155z" />
    <glyph glyph-name="eacute" unicode="&#xe9;" horiz-adv-x="571" 
d="M533 103c-10.667 -15.333 -23.502 -29.9971 -38.502 -43.9971s-32.167 -26.333 -51.5 -37s-41 -19.167 -65 -25.5s-50.333 -9.5 -79 -9.5c-40 0 -77.333 6.83301 -112 20.5s-64.667 32.5 -90 56.5s-45.166 52.667 -59.499 86s-21.5 69.666 -21.5 108.999
c0 38 7.16699 73.5 21.5 106.5s34 61.667 59 86s54.5 43.5 88.5 57.5s70.333 21 109 21s74 -6.83301 106 -20.5s59.333 -32.334 82 -56.001s40.334 -51.834 53.001 -84.501s19 -68 19 -106v-8.5v-16.5c0 -6 -0.166992 -12 -0.5 -18s-0.5 -10 -0.5 -12h-365
c9.33301 -24 23.833 -43 43.5 -57s42.5 -21 68.5 -21c25.333 0 47.5 5.33301 66.5 16s34.833 23.667 47.5 39zM289.998 391.003c-24.667 0 -45.166 -5.83301 -61.499 -17.5s-28.833 -27.5 -37.5 -47.5h191c-8.66699 24.667 -21.834 41.667 -39.501 51s-35.167 14 -52.5 14z
M161.999 553.003v155l252 54v-157z" />
    <glyph glyph-name="ecircumflex" unicode="&#xea;" horiz-adv-x="571" 
d="M533 103c-10.667 -15.333 -23.502 -29.9971 -38.502 -43.9971s-32.167 -26.333 -51.5 -37s-41 -19.167 -65 -25.5s-50.333 -9.5 -79 -9.5c-40 0 -77.333 6.83301 -112 20.5s-64.667 32.5 -90 56.5s-45.166 52.667 -59.499 86s-21.5 69.666 -21.5 108.999
c0 38 7.16699 73.5 21.5 106.5s34 61.667 59 86s54.5 43.5 88.5 57.5s70.333 21 109 21s74 -6.83301 106 -20.5s59.333 -32.334 82 -56.001s40.334 -51.834 53.001 -84.501s19 -68 19 -106v-8.5v-16.5c0 -6 -0.166992 -12 -0.5 -18s-0.5 -10 -0.5 -12h-365
c9.33301 -24 23.833 -43 43.5 -57s42.5 -21 68.5 -21c25.333 0 47.5 5.33301 66.5 16s34.833 23.667 47.5 39zM289.998 391.003c-24.667 0 -45.166 -5.83301 -61.499 -17.5s-28.833 -27.5 -37.5 -47.5h191c-8.66699 24.667 -21.834 41.667 -39.501 51s-35.167 14 -52.5 14z
M440.999 551.003l-156 23l-156 -23v108l156 44l156 -44v-108z" />
    <glyph glyph-name="edieresis" unicode="&#xeb;" horiz-adv-x="571" 
d="M533 103c-10.667 -15.333 -23.502 -29.9971 -38.502 -43.9971s-32.167 -26.333 -51.5 -37s-41 -19.167 -65 -25.5s-50.333 -9.5 -79 -9.5c-40 0 -77.333 6.83301 -112 20.5s-64.667 32.5 -90 56.5s-45.166 52.667 -59.499 86s-21.5 69.666 -21.5 108.999
c0 38 7.16699 73.5 21.5 106.5s34 61.667 59 86s54.5 43.5 88.5 57.5s70.333 21 109 21s74 -6.83301 106 -20.5s59.333 -32.334 82 -56.001s40.334 -51.834 53.001 -84.501s19 -68 19 -106v-8.5v-16.5c0 -6 -0.166992 -12 -0.5 -18s-0.5 -10 -0.5 -12h-365
c9.33301 -24 23.833 -43 43.5 -57s42.5 -21 68.5 -21c25.333 0 47.5 5.33301 66.5 16s34.833 23.667 47.5 39zM289.998 391.003c-24.667 0 -45.166 -5.83301 -61.499 -17.5s-28.833 -27.5 -37.5 -47.5h191c-8.66699 24.667 -21.834 41.667 -39.501 51s-35.167 14 -52.5 14z
M110.999 562.003v133h158v-133h-158zM300.999 562.003v133h158v-133h-158z" />
    <glyph glyph-name="igrave" unicode="&#xec;" horiz-adv-x="224" 
d="M24 0v518h176v-518h-176zM231 543l-252 52v157l252 -54v-155z" />
    <glyph glyph-name="iacute" unicode="&#xed;" horiz-adv-x="224" 
d="M24 0v518h176v-518h-176zM-11 553v155l252 54v-157z" />
    <glyph glyph-name="icircumflex" unicode="&#xee;" horiz-adv-x="224" 
d="M24 0v518h176v-518h-176zM268 551l-156 23l-156 -23v108l156 44l156 -44v-108z" />
    <glyph glyph-name="idieresis" unicode="&#xef;" horiz-adv-x="224" 
d="M24 0v518h176v-518h-176zM-62 562v133h158v-133h-158zM128 562v133h158v-133h-158z" />
    <glyph glyph-name="eth" unicode="&#xf0;" horiz-adv-x="586" 
d="M532 386c11.333 -24 19.332 -46.668 23.999 -68.001s7 -42.666 7 -63.999c0 -38.667 -7.16699 -74.334 -21.5 -107.001s-33.833 -60.834 -58.5 -84.501s-53.667 -42.167 -87 -55.5s-69 -20 -107 -20c-38.667 0 -74.667 6.66699 -108 20s-62.166 31.833 -86.499 55.5
s-43.5 51.834 -57.5 84.501s-21 68.334 -21 107.001c0 38 7 72.5 21 103.5s33.167 57.167 57.5 78.5s53 37.833 86 49.5s68.833 17.5 107.5 17.5h10l-14 31l-79 -11v98l35 5l-27 59h178l17 -36l77 12v-98l-34 -5zM288.999 143.999c31.333 0 56.833 10 76.5 30
s29.5 45.667 29.5 77c0 32 -9.83301 57.833 -29.5 77.5s-45.167 29.5 -76.5 29.5c-30.667 0 -56 -9.83301 -76 -29.5s-30 -45.5 -30 -77.5c0 -31.333 10 -57 30 -77s45.333 -30 76 -30z" />
    <glyph glyph-name="ntilde" unicode="&#xf1;" 
d="M197 470c16 19.333 36.501 33.835 61.501 43.502s52.167 14.5 81.5 14.5c30 0 57.333 -5 82 -15s45.667 -24.333 63 -43s30.666 -40.834 39.999 -66.501s14 -53.834 14 -84.501v-319h-176v277c0 25.333 -6.66699 46.5 -20 63.5s-33 25.5 -59 25.5
c-24 0 -44 -8.33301 -60 -25s-24 -40 -24 -70v-271h-176v518h173v-48zM340.001 561.002c-14.667 0 -28.167 1.5 -40.5 4.5s-24.166 6.33301 -35.499 10s-22.5 7 -33.5 10s-22.5 4.5 -34.5 4.5c-13.333 0 -26.333 -2.16699 -39 -6.5s-23.667 -9.5 -33 -15.5v112
c9.33301 11.333 22.5 21.833 39.5 31.5s36.167 14.5 57.5 14.5c14.667 0 28.167 -1.66699 40.5 -5s24.166 -6.83301 35.499 -10.5l33.5 -10.5c11 -3.33301 22.5 -5 34.5 -5c13.333 0 26.333 2.16699 39 6.5s23.667 9.5 33 15.5v-110
c-9.33301 -11.333 -22.5 -21.833 -39.5 -31.5s-36.167 -14.5 -57.5 -14.5z" />
    <glyph glyph-name="ograve" unicode="&#xf2;" horiz-adv-x="588" 
d="M294 530c38 0 74 -7 108 -21s63.5 -33.167 88.5 -57.5s44.833 -53 59.5 -86s22 -68.5 22 -106.5c0 -38.667 -7.33301 -74.5 -22 -107.5s-34.5 -61.667 -59.5 -86s-54.5 -43.5 -88.5 -57.5s-70 -21 -108 -21s-73.833 7 -107.5 21s-63.167 33.167 -88.5 57.5
s-45.333 53 -60 86s-22 68.833 -22 107.5c0 38 7.33301 73.5 22 106.5s34.667 61.667 60 86s54.833 43.5 88.5 57.5s69.5 21 107.5 21zM294 364c-14.667 0 -28.5 -2.83301 -41.5 -8.5s-24.333 -13.334 -34 -23.001s-17.334 -21 -23.001 -34s-8.5 -27.167 -8.5 -42.5
s2.83301 -29.5 8.5 -42.5s13.334 -24.333 23.001 -34s21 -17.334 34 -23.001s26.833 -8.5 41.5 -8.5s28.5 2.83301 41.5 8.5s24.333 13.334 34 23.001s17.334 21 23.001 34s8.5 27.167 8.5 42.5s-2.83301 29.5 -8.5 42.5s-13.334 24.333 -23.001 34s-21 17.334 -34 23.001
s-26.833 8.5 -41.5 8.5zM415 543l-252 52v157l252 -54v-155z" />
    <glyph glyph-name="oacute" unicode="&#xf3;" horiz-adv-x="588" 
d="M294 530c38 0 74 -7 108 -21s63.5 -33.167 88.5 -57.5s44.833 -53 59.5 -86s22 -68.5 22 -106.5c0 -38.667 -7.33301 -74.5 -22 -107.5s-34.5 -61.667 -59.5 -86s-54.5 -43.5 -88.5 -57.5s-70 -21 -108 -21s-73.833 7 -107.5 21s-63.167 33.167 -88.5 57.5
s-45.333 53 -60 86s-22 68.833 -22 107.5c0 38 7.33301 73.5 22 106.5s34.667 61.667 60 86s54.833 43.5 88.5 57.5s69.5 21 107.5 21zM294 364c-14.667 0 -28.5 -2.83301 -41.5 -8.5s-24.333 -13.334 -34 -23.001s-17.334 -21 -23.001 -34s-8.5 -27.167 -8.5 -42.5
s2.83301 -29.5 8.5 -42.5s13.334 -24.333 23.001 -34s21 -17.334 34 -23.001s26.833 -8.5 41.5 -8.5s28.5 2.83301 41.5 8.5s24.333 13.334 34 23.001s17.334 21 23.001 34s8.5 27.167 8.5 42.5s-2.83301 29.5 -8.5 42.5s-13.334 24.333 -23.001 34s-21 17.334 -34 23.001
s-26.833 8.5 -41.5 8.5zM173 553v155l252 54v-157z" />
    <glyph glyph-name="ocircumflex" unicode="&#xf4;" horiz-adv-x="588" 
d="M294 530c38 0 74 -7 108 -21s63.5 -33.167 88.5 -57.5s44.833 -53 59.5 -86s22 -68.5 22 -106.5c0 -38.667 -7.33301 -74.5 -22 -107.5s-34.5 -61.667 -59.5 -86s-54.5 -43.5 -88.5 -57.5s-70 -21 -108 -21s-73.833 7 -107.5 21s-63.167 33.167 -88.5 57.5
s-45.333 53 -60 86s-22 68.833 -22 107.5c0 38 7.33301 73.5 22 106.5s34.667 61.667 60 86s54.833 43.5 88.5 57.5s69.5 21 107.5 21zM294 364c-14.667 0 -28.5 -2.83301 -41.5 -8.5s-24.333 -13.334 -34 -23.001s-17.334 -21 -23.001 -34s-8.5 -27.167 -8.5 -42.5
s2.83301 -29.5 8.5 -42.5s13.334 -24.333 23.001 -34s21 -17.334 34 -23.001s26.833 -8.5 41.5 -8.5s28.5 2.83301 41.5 8.5s24.333 13.334 34 23.001s17.334 21 23.001 34s8.5 27.167 8.5 42.5s-2.83301 29.5 -8.5 42.5s-13.334 24.333 -23.001 34s-21 17.334 -34 23.001
s-26.833 8.5 -41.5 8.5zM452 551l-156 23l-156 -23v108l156 44l156 -44v-108z" />
    <glyph glyph-name="otilde" unicode="&#xf5;" horiz-adv-x="588" 
d="M294 530c38 0 74 -7 108 -21s63.5 -33.167 88.5 -57.5s44.833 -53 59.5 -86s22 -68.5 22 -106.5c0 -38.667 -7.33301 -74.5 -22 -107.5s-34.5 -61.667 -59.5 -86s-54.5 -43.5 -88.5 -57.5s-70 -21 -108 -21s-73.833 7 -107.5 21s-63.167 33.167 -88.5 57.5
s-45.333 53 -60 86s-22 68.833 -22 107.5c0 38 7.33301 73.5 22 106.5s34.667 61.667 60 86s54.833 43.5 88.5 57.5s69.5 21 107.5 21zM294 364c-14.667 0 -28.5 -2.83301 -41.5 -8.5s-24.333 -13.334 -34 -23.001s-17.334 -21 -23.001 -34s-8.5 -27.167 -8.5 -42.5
s2.83301 -29.5 8.5 -42.5s13.334 -24.333 23.001 -34s21 -17.334 34 -23.001s26.833 -8.5 41.5 -8.5s28.5 2.83301 41.5 8.5s24.333 13.334 34 23.001s17.334 21 23.001 34s8.5 27.167 8.5 42.5s-2.83301 29.5 -8.5 42.5s-13.334 24.333 -23.001 34s-21 17.334 -34 23.001
s-26.833 8.5 -41.5 8.5zM356 561c-14.667 0 -28.167 1.5 -40.5 4.5s-24.166 6.33301 -35.499 10s-22.5 7 -33.5 10s-22.5 4.5 -34.5 4.5c-13.333 0 -26.333 -2.16699 -39 -6.5s-23.667 -9.5 -33 -15.5v112c9.33301 11.333 22.5 21.833 39.5 31.5s36.167 14.5 57.5 14.5
c14.667 0 28.167 -1.66699 40.5 -5s24.166 -6.83301 35.499 -10.5l33.5 -10.5c11 -3.33301 22.5 -5 34.5 -5c13.333 0 26.333 2.16699 39 6.5s23.667 9.5 33 15.5v-110c-9.33301 -11.333 -22.5 -21.833 -39.5 -31.5s-36.167 -14.5 -57.5 -14.5z" />
    <glyph glyph-name="odieresis" unicode="&#xf6;" horiz-adv-x="588" 
d="M294 530c38 0 74 -7 108 -21s63.5 -33.167 88.5 -57.5s44.833 -53 59.5 -86s22 -68.5 22 -106.5c0 -38.667 -7.33301 -74.5 -22 -107.5s-34.5 -61.667 -59.5 -86s-54.5 -43.5 -88.5 -57.5s-70 -21 -108 -21s-73.833 7 -107.5 21s-63.167 33.167 -88.5 57.5
s-45.333 53 -60 86s-22 68.833 -22 107.5c0 38 7.33301 73.5 22 106.5s34.667 61.667 60 86s54.833 43.5 88.5 57.5s69.5 21 107.5 21zM294 364c-14.667 0 -28.5 -2.83301 -41.5 -8.5s-24.333 -13.334 -34 -23.001s-17.334 -21 -23.001 -34s-8.5 -27.167 -8.5 -42.5
s2.83301 -29.5 8.5 -42.5s13.334 -24.333 23.001 -34s21 -17.334 34 -23.001s26.833 -8.5 41.5 -8.5s28.5 2.83301 41.5 8.5s24.333 13.334 34 23.001s17.334 21 23.001 34s8.5 27.167 8.5 42.5s-2.83301 29.5 -8.5 42.5s-13.334 24.333 -23.001 34s-21 17.334 -34 23.001
s-26.833 8.5 -41.5 8.5zM122 562v133h158v-133h-158zM312 562v133h158v-133h-158z" />
    <glyph glyph-name="divide" unicode="&#xf7;" horiz-adv-x="440" 
d="M132 402v135h178v-135h-178zM13 201v166h414v-166h-414zM132 29v137h178v-137h-178z" />
    <glyph glyph-name="oslash" unicode="&#xf8;" horiz-adv-x="588" 
d="M299 364l-4.99902 0.000976562c-14.667 0 -28.5 -2.83301 -41.5 -8.5s-24.333 -13.334 -34 -23.001s-17.334 -21 -23.001 -34s-8.5 -27.167 -8.5 -42.5c0 -18 4 -34.333 12 -49zM289.001 148.001l4.99902 -0.000976562c14.667 0 28.5 2.83301 41.5 8.5
s24.333 13.334 34 23.001s17.334 21 23.001 34s8.5 27.167 8.5 42.5c0 16.667 -3.66699 33 -11 49zM486 455c26.667 -24.667 47.667 -53.668 63 -87.001s23 -69.666 23 -108.999c0 -38.667 -7.33301 -74.5 -22 -107.5s-34.5 -61.667 -59.5 -86s-54.5 -43.5 -88.5 -57.5
s-70 -21 -108 -21c-33.333 0 -66 5.66699 -98 17l-28 -44h-129l65 100c-27.333 24.667 -48.833 54 -64.5 88s-23.5 71 -23.5 111c0 38 7.33301 73.5 22 106.5s34.667 61.667 60 86s54.833 43.5 88.5 57.5s69.5 21 107.5 21c36 0 69.667 -6 101 -18l29 45h128z" />
    <glyph glyph-name="ugrave" unicode="&#xf9;" 
d="M364 0l-0.000976562 48.001c-16 -19.333 -36.5 -33.833 -61.5 -43.5s-52.167 -14.5 -81.5 -14.5c-30 0 -57.333 5 -82 15s-45.667 24.333 -63 43s-30.666 40.667 -39.999 66s-14 53.666 -14 84.999v319h176v-277c0 -25.333 6.66699 -46.5 20 -63.5s33 -25.5 59 -25.5
c24 0 44 8.33301 60 25s24 40 24 70v271h176v-518h-173zM398.999 543.001l-252 52v157l252 -54v-155z" />
    <glyph glyph-name="uacute" unicode="&#xfa;" 
d="M364 0l-0.000976562 48.001c-16 -19.333 -36.5 -33.833 -61.5 -43.5s-52.167 -14.5 -81.5 -14.5c-30 0 -57.333 5 -82 15s-45.667 24.333 -63 43s-30.666 40.667 -39.999 66s-14 53.666 -14 84.999v319h176v-277c0 -25.333 6.66699 -46.5 20 -63.5s33 -25.5 59 -25.5
c24 0 44 8.33301 60 25s24 40 24 70v271h176v-518h-173zM156.999 553.001v155l252 54v-157z" />
    <glyph glyph-name="ucircumflex" unicode="&#xfb;" 
d="M364 0l-0.000976562 48.001c-16 -19.333 -36.5 -33.833 -61.5 -43.5s-52.167 -14.5 -81.5 -14.5c-30 0 -57.333 5 -82 15s-45.667 24.333 -63 43s-30.666 40.667 -39.999 66s-14 53.666 -14 84.999v319h176v-277c0 -25.333 6.66699 -46.5 20 -63.5s33 -25.5 59 -25.5
c24 0 44 8.33301 60 25s24 40 24 70v271h176v-518h-173zM435.999 551.001l-156 23l-156 -23v108l156 44l156 -44v-108z" />
    <glyph glyph-name="udieresis" unicode="&#xfc;" 
d="M364 0l-0.000976562 48.001c-16 -19.333 -36.5 -33.833 -61.5 -43.5s-52.167 -14.5 -81.5 -14.5c-30 0 -57.333 5 -82 15s-45.667 24.333 -63 43s-30.666 40.667 -39.999 66s-14 53.666 -14 84.999v319h176v-277c0 -25.333 6.66699 -46.5 20 -63.5s33 -25.5 59 -25.5
c24 0 44 8.33301 60 25s24 40 24 70v271h176v-518h-173zM105.999 562.001v133h158v-133h-158zM295.999 562.001v133h158v-133h-158z" />
    <glyph glyph-name="yacute" unicode="&#xfd;" horiz-adv-x="557" 
d="M367 -15c-12 -34.667 -25.665 -63.332 -40.998 -85.999s-32.833 -40.5 -52.5 -53.5s-41.5 -22 -65.5 -27s-50.333 -7.5 -79 -7.5h-60v157h55c17.333 0 32.166 4.16699 44.499 12.5s20.166 21.166 23.499 38.499l-187 499h196l80 -267l82 267h189zM155.002 553.002v155
l252 54v-157z" />
    <glyph glyph-name="thorn" unicode="&#xfe;" horiz-adv-x="600" 
d="M304 365c-14.667 0 -28.5 -2.83301 -41.5 -8.5s-24.167 -13.334 -33.5 -23.001s-16.833 -21 -22.5 -34s-8.5 -27.167 -8.5 -42.5s2.83301 -29.5 8.5 -42.5s13.167 -24.333 22.5 -34s20.5 -17.334 33.5 -23.001s26.833 -8.5 41.5 -8.5s28.5 2.83301 41.5 8.5
s24.333 13.334 34 23.001s17.334 21 23.001 34s8.5 27.167 8.5 42.5s-2.83301 29.5 -8.5 42.5s-13.334 24.333 -23.001 34s-21 17.334 -34 23.001s-26.833 8.5 -41.5 8.5zM200 484c18.667 12 38.834 21.3301 60.501 27.9971s44.167 10 67.5 10
c34.667 0 67.667 -6.66699 99 -20s58.5 -31.833 81.5 -55.5s41.333 -51.5 55 -83.5s20.5 -66.333 20.5 -103c0 -37.333 -6.83301 -72.166 -20.5 -104.499s-32 -60.166 -55 -83.499s-50.167 -41.666 -81.5 -54.999s-64.333 -20 -99 -20c-23.333 0 -45.833 3.33301 -67.5 10
s-41.834 16 -60.501 28v-218h-176v868h176v-201z" />
    <glyph glyph-name="ydieresis" unicode="&#xff;" horiz-adv-x="557" 
d="M367 -15c-12 -34.667 -25.665 -63.332 -40.998 -85.999s-32.833 -40.5 -52.5 -53.5s-41.5 -22 -65.5 -27s-50.333 -7.5 -79 -7.5h-60v157h55c17.333 0 32.166 4.16699 44.499 12.5s20.166 21.166 23.499 38.499l-187 499h196l80 -267l82 267h189zM104.002 562.002v133
h158v-133h-158zM294.002 562.002v133h158v-133h-158z" />
    <glyph glyph-name="Amacron" unicode="&#x100;" horiz-adv-x="721" 
d="M355 492l-72 -233h143zM475 100h-240l-31 -100h-199l230 685h252l229 -685h-210zM217 731v157h286v-157h-286z" />
    <glyph glyph-name="amacron" unicode="&#x101;" horiz-adv-x="600" 
d="M296 365c-14.667 0 -28.5 -2.83301 -41.5 -8.5s-24.333 -13.334 -34 -23.001s-17.334 -21 -23.001 -34s-8.5 -27.167 -8.5 -42.5s2.83301 -29.5 8.5 -42.5s13.334 -24.333 23.001 -34s21 -17.334 34 -23.001s26.833 -8.5 41.5 -8.5s28.5 2.83301 41.5 8.5
s24.167 13.334 33.5 23.001s16.833 21 22.5 34s8.5 27.167 8.5 42.5s-2.83301 29.5 -8.5 42.5s-13.167 24.333 -22.5 34s-20.5 17.334 -33.5 23.001s-26.833 8.5 -41.5 8.5zM400 35c-21.333 -13.333 -42.666 -22.9971 -63.999 -28.9971s-42.666 -9 -63.999 -9
c-35.333 0 -68.5 6.66699 -99.5 20s-58 31.666 -81 54.999s-41.333 51.166 -55 83.499s-20.5 67.166 -20.5 104.499c0 36.667 6.83301 71 20.5 103s32 59.833 55 83.5s50 42.167 81 55.5s64.167 20 99.5 20c21.333 0 42.666 -3 63.999 -9s42.666 -15.667 63.999 -29v34h176
v-518h-176v35zM154 564.003v157h286v-157h-286z" />
    <glyph glyph-name="Abreve" unicode="&#x102;" horiz-adv-x="721" 
d="M355 492l-72 -233h143zM475 100h-240l-31 -100h-199l230 685h252l229 -685h-210zM360 727c-20.667 0 -39.3281 2 -55.9951 6s-31.167 9 -43.5 15s-22.833 12.167 -31.5 18.5s-15.334 12.166 -20.001 17.499v116c15.333 -8.66699 35.666 -17 60.999 -25s55.333 -12 90 -12
s64.667 4 90 12s45.666 16.333 60.999 25v-116c-4.66699 -5.33301 -11.334 -11.166 -20.001 -17.499s-19.167 -12.5 -31.5 -18.5s-26.833 -11 -43.5 -15s-35.334 -6 -56.001 -6z" />
    <glyph glyph-name="abreve" unicode="&#x103;" horiz-adv-x="600" 
d="M296 365c-14.667 0 -28.5 -2.83301 -41.5 -8.5s-24.333 -13.334 -34 -23.001s-17.334 -21 -23.001 -34s-8.5 -27.167 -8.5 -42.5s2.83301 -29.5 8.5 -42.5s13.334 -24.333 23.001 -34s21 -17.334 34 -23.001s26.833 -8.5 41.5 -8.5s28.5 2.83301 41.5 8.5
s24.167 13.334 33.5 23.001s16.833 21 22.5 34s8.5 27.167 8.5 42.5s-2.83301 29.5 -8.5 42.5s-13.167 24.333 -22.5 34s-20.5 17.334 -33.5 23.001s-26.833 8.5 -41.5 8.5zM400 35c-21.333 -13.333 -42.666 -22.9971 -63.999 -28.9971s-42.666 -9 -63.999 -9
c-35.333 0 -68.5 6.66699 -99.5 20s-58 31.666 -81 54.999s-41.333 51.166 -55 83.499s-20.5 67.166 -20.5 104.499c0 36.667 6.83301 71 20.5 103s32 59.833 55 83.5s50 42.167 81 55.5s64.167 20 99.5 20c21.333 0 42.666 -3 63.999 -9s42.666 -15.667 63.999 -29v34h176
v-518h-176v35zM297 560.003c-20.667 0 -39.3281 2 -55.9951 6s-31.167 9 -43.5 15s-22.833 12.167 -31.5 18.5s-15.334 12.166 -20.001 17.499v116c15.333 -8.66699 35.666 -17 60.999 -25s55.333 -12 90 -12s64.667 4 90 12s45.666 16.333 60.999 25v-116
c-4.66699 -5.33301 -11.334 -11.166 -20.001 -17.499s-19.167 -12.5 -31.5 -18.5s-26.833 -11 -43.5 -15s-35.334 -6 -56.001 -6z" />
    <glyph glyph-name="Aogonek" unicode="&#x104;" horiz-adv-x="721" 
d="M355 492l-72 -233h143zM610 -168c-4.66699 -3.33301 -10.332 -6.33105 -16.999 -8.99805c-5.33301 -2.66699 -12.166 -4.83398 -20.499 -6.50098s-17.833 -2.5 -28.5 -2.5c-32 0 -57.167 8.5 -75.5 25.5s-27.5 38.167 -27.5 63.5c0 21.333 6.16699 40.666 18.5 57.999
s28.166 30.333 47.499 39h-1l-31 100h-240l-31 -100h-199l230 685h252l229 -685h-136c-15.333 -9.33301 -26.333 -20.333 -33 -33s-10 -25 -10 -37c0 -22 11.333 -33 34 -33c11.333 0 20.666 1 27.999 3c4 0.666992 7.66699 1.66699 11 3v-71z" />
    <glyph glyph-name="aogonek" unicode="&#x105;" horiz-adv-x="600" 
d="M296 365c-14.667 0 -28.5 -2.83301 -41.5 -8.5s-24.333 -13.334 -34 -23.001s-17.334 -21 -23.001 -34s-8.5 -27.167 -8.5 -42.5s2.83301 -29.5 8.5 -42.5s13.334 -24.333 23.001 -34s21 -17.334 34 -23.001s26.833 -8.5 41.5 -8.5s28.5 2.83301 41.5 8.5
s24.167 13.334 33.5 23.001s16.833 21 22.5 34s8.5 27.167 8.5 42.5s-2.83301 29.5 -8.5 42.5s-13.167 24.333 -22.5 34s-20.5 17.334 -33.5 23.001s-26.833 8.5 -41.5 8.5zM575 -168c-4.66699 -3.33301 -10.332 -6.32812 -16.999 -8.99512
c-5.33301 -2.66699 -12.166 -4.83398 -20.499 -6.50098s-17.833 -2.5 -28.5 -2.5c-32 0 -57.167 8.5 -75.5 25.5s-27.5 38.167 -27.5 63.5c0 21.333 6.16699 40.666 18.5 57.999s28.166 30.333 47.499 39h-72v35c-21.333 -13.333 -42.666 -23 -63.999 -29
s-42.666 -9 -63.999 -9c-35.333 0 -68.5 6.66699 -99.5 20s-58 31.666 -81 54.999s-41.333 51.166 -55 83.499s-20.5 67.166 -20.5 104.499c0 36.667 6.83301 71 20.5 103s32 59.833 55 83.5s50 42.167 81 55.5s64.167 20 99.5 20c21.333 0 42.666 -3 63.999 -9
s42.666 -15.667 63.999 -29v34h176v-518h-31c-15.333 -9.33301 -26.333 -20.333 -33 -33s-10 -25 -10 -37c0 -22 11.333 -33 34 -33c11.333 0 20.666 1 27.999 3c4 0.666992 7.66699 1.66699 11 3v-71z" />
    <glyph glyph-name="Cacute" unicode="&#x106;" horiz-adv-x="712" 
d="M387 515c-23.333 0 -44.999 -4.33496 -64.999 -13.002s-37.5 -20.667 -52.5 -36s-26.833 -33.5 -35.5 -54.5s-13 -43.833 -13 -68.5c0 -25.333 4.33301 -48.666 13 -69.999s20.667 -39.666 36 -54.999s33.5 -27.166 54.5 -35.499s43.5 -12.5 67.5 -12.5
c38 0 70.167 9.16699 96.5 27.5s47.166 40.833 62.499 67.5l149 -108c-15.333 -24.667 -33.166 -47.334 -53.499 -68.001s-43.5 -38.667 -69.5 -54s-55 -27.333 -87 -36s-67.333 -13 -106 -13c-50 0 -97.167 9 -141.5 27s-83 42.833 -116 74.5s-59 69.334 -78 113.001
s-28.5 91.167 -28.5 142.5c0 52.667 9.66699 101 29 145s45.833 81.667 79.5 113s72.667 55.666 117 72.999s91.5 26 141.5 26c72 0 133.667 -15 185 -45s93.666 -72 126.999 -126l-154 -109c-17.333 30.667 -39 54.167 -65 70.5s-57 24.5 -93 24.5zM256.001 719.998v155
l252 54v-157z" />
    <glyph glyph-name="cacute" unicode="&#x107;" horiz-adv-x="547" 
d="M533 117c-24.667 -42 -58 -74.165 -100 -96.498s-88.333 -33.5 -139 -33.5c-38 0 -74 6.83301 -108 20.5s-63.5 32.667 -88.5 57s-44.833 53.166 -59.5 86.499s-22 69.333 -22 108s7.33301 74.5 22 107.5s34.5 61.667 59.5 86s54.5 43.333 88.5 57s70 20.5 108 20.5
c52.667 0 100.834 -12.333 144.501 -37s77.167 -59 100.5 -103l-138 -85c-9.33301 18.667 -23.166 33.5 -41.499 44.5s-38.5 16.5 -60.5 16.5c-15.333 0 -29.833 -2.66699 -43.5 -8s-25.5 -13 -35.5 -23s-18 -21.667 -24 -35s-9 -28 -9 -44s3 -30.667 9 -44
s14 -24.833 24 -34.5s21.833 -17.334 35.5 -23.001s28.167 -8.5 43.5 -8.5c21.333 0 41.166 5.5 59.499 16.5s32.166 25.833 41.499 44.5zM169 553.002v155l252 54v-157z" />
    <glyph glyph-name="Ccircumflex" unicode="&#x108;" horiz-adv-x="712" 
d="M387 515c-23.333 0 -44.999 -4.33496 -64.999 -13.002s-37.5 -20.667 -52.5 -36s-26.833 -33.5 -35.5 -54.5s-13 -43.833 -13 -68.5c0 -25.333 4.33301 -48.666 13 -69.999s20.667 -39.666 36 -54.999s33.5 -27.166 54.5 -35.499s43.5 -12.5 67.5 -12.5
c38 0 70.167 9.16699 96.5 27.5s47.166 40.833 62.499 67.5l149 -108c-15.333 -24.667 -33.166 -47.334 -53.499 -68.001s-43.5 -38.667 -69.5 -54s-55 -27.333 -87 -36s-67.333 -13 -106 -13c-50 0 -97.167 9 -141.5 27s-83 42.833 -116 74.5s-59 69.334 -78 113.001
s-28.5 91.167 -28.5 142.5c0 52.667 9.66699 101 29 145s45.833 81.667 79.5 113s72.667 55.666 117 72.999s91.5 26 141.5 26c72 0 133.667 -15 185 -45s93.666 -72 126.999 -126l-154 -109c-17.333 30.667 -39 54.167 -65 70.5s-57 24.5 -93 24.5zM535.001 717.998
l-156 23l-156 -23v108l156 44l156 -44v-108z" />
    <glyph glyph-name="ccircumflex" unicode="&#x109;" horiz-adv-x="547" 
d="M533 117c-24.667 -42 -58 -74.165 -100 -96.498s-88.333 -33.5 -139 -33.5c-38 0 -74 6.83301 -108 20.5s-63.5 32.667 -88.5 57s-44.833 53.166 -59.5 86.499s-22 69.333 -22 108s7.33301 74.5 22 107.5s34.5 61.667 59.5 86s54.5 43.333 88.5 57s70 20.5 108 20.5
c52.667 0 100.834 -12.333 144.501 -37s77.167 -59 100.5 -103l-138 -85c-9.33301 18.667 -23.166 33.5 -41.499 44.5s-38.5 16.5 -60.5 16.5c-15.333 0 -29.833 -2.66699 -43.5 -8s-25.5 -13 -35.5 -23s-18 -21.667 -24 -35s-9 -28 -9 -44s3 -30.667 9 -44
s14 -24.833 24 -34.5s21.833 -17.334 35.5 -23.001s28.167 -8.5 43.5 -8.5c21.333 0 41.166 5.5 59.499 16.5s32.166 25.833 41.499 44.5zM448 551.002l-156 23l-156 -23v108l156 44l156 -44v-108z" />
    <glyph glyph-name="Cdotaccent" unicode="&#x10a;" horiz-adv-x="712" 
d="M387 515c-23.333 0 -44.999 -4.33496 -64.999 -13.002s-37.5 -20.667 -52.5 -36s-26.833 -33.5 -35.5 -54.5s-13 -43.833 -13 -68.5c0 -25.333 4.33301 -48.666 13 -69.999s20.667 -39.666 36 -54.999s33.5 -27.166 54.5 -35.499s43.5 -12.5 67.5 -12.5
c38 0 70.167 9.16699 96.5 27.5s47.166 40.833 62.499 67.5l149 -108c-15.333 -24.667 -33.166 -47.334 -53.499 -68.001s-43.5 -38.667 -69.5 -54s-55 -27.333 -87 -36s-67.333 -13 -106 -13c-50 0 -97.167 9 -141.5 27s-83 42.833 -116 74.5s-59 69.334 -78 113.001
s-28.5 91.167 -28.5 142.5c0 52.667 9.66699 101 29 145s45.833 81.667 79.5 113s72.667 55.666 117 72.999s91.5 26 141.5 26c72 0 133.667 -15 185 -45s93.666 -72 126.999 -126l-154 -109c-17.333 30.667 -39 54.167 -65 70.5s-57 24.5 -93 24.5zM289.001 728.998v133
h178v-133h-178z" />
    <glyph glyph-name="cdotaccent" unicode="&#x10b;" horiz-adv-x="547" 
d="M533 117c-24.667 -42 -58 -74.165 -100 -96.498s-88.333 -33.5 -139 -33.5c-38 0 -74 6.83301 -108 20.5s-63.5 32.667 -88.5 57s-44.833 53.166 -59.5 86.499s-22 69.333 -22 108s7.33301 74.5 22 107.5s34.5 61.667 59.5 86s54.5 43.333 88.5 57s70 20.5 108 20.5
c52.667 0 100.834 -12.333 144.501 -37s77.167 -59 100.5 -103l-138 -85c-9.33301 18.667 -23.166 33.5 -41.499 44.5s-38.5 16.5 -60.5 16.5c-15.333 0 -29.833 -2.66699 -43.5 -8s-25.5 -13 -35.5 -23s-18 -21.667 -24 -35s-9 -28 -9 -44s3 -30.667 9 -44
s14 -24.833 24 -34.5s21.833 -17.334 35.5 -23.001s28.167 -8.5 43.5 -8.5c21.333 0 41.166 5.5 59.499 16.5s32.166 25.833 41.499 44.5zM202 562.002v133h178v-133h-178z" />
    <glyph glyph-name="Ccaron" unicode="&#x10c;" horiz-adv-x="712" 
d="M387 515c-23.333 0 -44.999 -4.33496 -64.999 -13.002s-37.5 -20.667 -52.5 -36s-26.833 -33.5 -35.5 -54.5s-13 -43.833 -13 -68.5c0 -25.333 4.33301 -48.666 13 -69.999s20.667 -39.666 36 -54.999s33.5 -27.166 54.5 -35.499s43.5 -12.5 67.5 -12.5
c38 0 70.167 9.16699 96.5 27.5s47.166 40.833 62.499 67.5l149 -108c-15.333 -24.667 -33.166 -47.334 -53.499 -68.001s-43.5 -38.667 -69.5 -54s-55 -27.333 -87 -36s-67.333 -13 -106 -13c-50 0 -97.167 9 -141.5 27s-83 42.833 -116 74.5s-59 69.334 -78 113.001
s-28.5 91.167 -28.5 142.5c0 52.667 9.66699 101 29 145s45.833 81.667 79.5 113s72.667 55.666 117 72.999s91.5 26 141.5 26c72 0 133.667 -15 185 -45s93.666 -72 126.999 -126l-154 -109c-17.333 30.667 -39 54.167 -65 70.5s-57 24.5 -93 24.5zM379.001 725.998
l-156 43v109l156 -23l156 23v-109z" />
    <glyph glyph-name="ccaron" unicode="&#x10d;" horiz-adv-x="547" 
d="M533 117c-24.667 -42 -58 -74.165 -100 -96.498s-88.333 -33.5 -139 -33.5c-38 0 -74 6.83301 -108 20.5s-63.5 32.667 -88.5 57s-44.833 53.166 -59.5 86.499s-22 69.333 -22 108s7.33301 74.5 22 107.5s34.5 61.667 59.5 86s54.5 43.333 88.5 57s70 20.5 108 20.5
c52.667 0 100.834 -12.333 144.501 -37s77.167 -59 100.5 -103l-138 -85c-9.33301 18.667 -23.166 33.5 -41.499 44.5s-38.5 16.5 -60.5 16.5c-15.333 0 -29.833 -2.66699 -43.5 -8s-25.5 -13 -35.5 -23s-18 -21.667 -24 -35s-9 -28 -9 -44s3 -30.667 9 -44
s14 -24.833 24 -34.5s21.833 -17.334 35.5 -23.001s28.167 -8.5 43.5 -8.5c21.333 0 41.166 5.5 59.499 16.5s32.166 25.833 41.499 44.5zM292 559.002l-156 43v109l156 -23l156 23v-109z" />
    <glyph glyph-name="Dcaron" unicode="&#x10e;" horiz-adv-x="710" 
d="M35 685l291 -0.00195312c56 0 106.5 -8.83301 151.5 -26.5s83.333 -41.667 115 -72s55.834 -66.166 72.501 -107.499s25 -85.666 25 -132.999c0 -48 -8.33301 -93 -25 -135s-40.834 -78.667 -72.501 -110s-70 -56 -115 -74s-95.5 -27 -151.5 -27h-291v685zM232 510.998
v-337h94c24.667 0 47.167 4.16699 67.5 12.5s37.5 20 51.5 35s24.833 32.667 32.5 53s11.5 42.5 11.5 66.5s-3.83301 46.333 -11.5 67s-18.5 38.667 -32.5 54s-31.167 27.333 -51.5 36s-42.833 13 -67.5 13h-94zM355 725.998l-156 43v109l156 -23l156 23v-109z" />
    <glyph glyph-name="dcaron" unicode="&#x10f;" horiz-adv-x="837" 
d="M813 535l-62 -137h-121l49 106h-49v181h183v-150zM296 149c14.667 0 28.5 2.83301 41.5 8.5s24.167 13.334 33.5 23.001s16.833 21 22.5 34s8.5 27.167 8.5 42.5s-2.83301 29.5 -8.5 42.5s-13.167 24.333 -22.5 34s-20.5 17.334 -33.5 23.001s-26.833 8.5 -41.5 8.5
s-28.5 -2.83301 -41.5 -8.5s-24.333 -13.334 -34 -23.001s-17.334 -21 -23.001 -34s-8.5 -27.167 -8.5 -42.5s2.83301 -29.5 8.5 -42.5s13.334 -24.333 23.001 -34s21 -17.334 34 -23.001s26.833 -8.5 41.5 -8.5zM400 35c-21.333 -13.333 -42.666 -22.9971 -63.999 -28.9971
s-42.666 -9 -63.999 -9c-35.333 0 -68.5 6.66699 -99.5 20s-58 31.666 -81 54.999s-41.333 51.166 -55 83.499s-20.5 67.166 -20.5 104.499c0 36.667 6.83301 71 20.5 103s32 59.833 55 83.5s50 42.167 81 55.5s64.167 20 99.5 20c21.333 0 42.666 -3 63.999 -9
s42.666 -15.667 63.999 -29v201h176v-685h-176v35z" />
    <glyph glyph-name="Dcroat" unicode="&#x110;" horiz-adv-x="720" 
d="M45 0v263.998h-38v156h38v265h291c56 0 106.5 -8.83301 151.5 -26.5s83.333 -41.667 115 -72s55.834 -66.166 72.501 -107.499s25 -85.666 25 -132.999c0 -48 -8.33301 -93 -25 -135s-40.834 -78.667 -72.501 -110s-70 -56 -115 -74s-95.5 -27 -151.5 -27h-291z
M336 173.998c24.667 0 47.167 4.16699 67.5 12.5s37.5 20 51.5 35s24.833 32.667 32.5 53s11.5 42.5 11.5 66.5s-3.83301 46.333 -11.5 67s-18.5 38.667 -32.5 54s-31.167 27.333 -51.5 36s-42.833 13 -67.5 13h-94v-91h96v-156h-96v-90h94z" />
    <glyph glyph-name="dcroat" unicode="&#x111;" horiz-adv-x="600" 
d="M296 149c14.667 0 28.5 2.5 41.5 7.5s24.167 12.167 33.5 21.5s16.833 20.166 22.5 32.499s8.5 26.166 8.5 41.499c0 30.667 -10.167 55.5 -30.5 74.5s-45.5 28.5 -75.5 28.5c-14.667 0 -28.5 -2.5 -41.5 -7.5s-24.333 -12 -34 -21s-17.334 -19.833 -23.001 -32.5
s-8.5 -26.667 -8.5 -42s2.83301 -29.166 8.5 -41.499s13.334 -23.166 23.001 -32.499s21 -16.5 34 -21.5s26.833 -7.5 41.5 -7.5zM576 545v-545.004h-176v33c-18.667 -11.333 -38.834 -20.166 -60.501 -26.499s-44.167 -9.5 -67.5 -9.5c-35.333 0 -68.5 6.33301 -99.5 19
s-58 30.5 -81 53.5s-41.333 50.333 -55 82s-20.5 66.167 -20.5 103.5c0 36.667 6.83301 70.834 20.5 102.501s32 58.834 55 81.501s50 40.5 81 53.5s64.167 19.5 99.5 19.5c23.333 0 45.833 -3.16699 67.5 -9.5s41.834 -15.166 60.501 -26.499v69h-118v96h118v44h176v-44h38
v-96h-38z" />
    <glyph glyph-name="Emacron" unicode="&#x112;" horiz-adv-x="585" 
d="M35 685h523v-168h-326v-90h296v-166h-296v-93h328v-168h-525v685zM149 731v157h286v-157h-286z" />
    <glyph glyph-name="emacron" unicode="&#x113;" horiz-adv-x="571" 
d="M533 103c-10.667 -15.333 -23.502 -29.9971 -38.502 -43.9971s-32.167 -26.333 -51.5 -37s-41 -19.167 -65 -25.5s-50.333 -9.5 -79 -9.5c-40 0 -77.333 6.83301 -112 20.5s-64.667 32.5 -90 56.5s-45.166 52.667 -59.499 86s-21.5 69.666 -21.5 108.999
c0 38 7.16699 73.5 21.5 106.5s34 61.667 59 86s54.5 43.5 88.5 57.5s70.333 21 109 21s74 -6.83301 106 -20.5s59.333 -32.334 82 -56.001s40.334 -51.834 53.001 -84.501s19 -68 19 -106v-8.5v-16.5c0 -6 -0.166992 -12 -0.5 -18s-0.5 -10 -0.5 -12h-365
c9.33301 -24 23.833 -43 43.5 -57s42.5 -21 68.5 -21c25.333 0 47.5 5.33301 66.5 16s34.833 23.667 47.5 39zM289.998 391.003c-24.667 0 -45.166 -5.83301 -61.499 -17.5s-28.833 -27.5 -37.5 -47.5h191c-8.66699 24.667 -21.834 41.667 -39.501 51s-35.167 14 -52.5 14z
M141.999 564.003v157h286v-157h-286z" />
    <glyph glyph-name="Ebreve" unicode="&#x114;" horiz-adv-x="585" 
d="M35 685h523v-168h-326v-90h296v-166h-296v-93h328v-168h-525v685zM292 727c-20.667 0 -39.3281 2 -55.9951 6s-31.167 9 -43.5 15s-22.833 12.167 -31.5 18.5s-15.334 12.166 -20.001 17.499v116c15.333 -8.66699 35.666 -17 60.999 -25s55.333 -12 90 -12
s64.667 4 90 12s45.666 16.333 60.999 25v-116c-4.66699 -5.33301 -11.334 -11.166 -20.001 -17.499s-19.167 -12.5 -31.5 -18.5s-26.833 -11 -43.5 -15s-35.334 -6 -56.001 -6z" />
    <glyph glyph-name="ebreve" unicode="&#x115;" horiz-adv-x="571" 
d="M533 103c-10.667 -15.333 -23.502 -29.9971 -38.502 -43.9971s-32.167 -26.333 -51.5 -37s-41 -19.167 -65 -25.5s-50.333 -9.5 -79 -9.5c-40 0 -77.333 6.83301 -112 20.5s-64.667 32.5 -90 56.5s-45.166 52.667 -59.499 86s-21.5 69.666 -21.5 108.999
c0 38 7.16699 73.5 21.5 106.5s34 61.667 59 86s54.5 43.5 88.5 57.5s70.333 21 109 21s74 -6.83301 106 -20.5s59.333 -32.334 82 -56.001s40.334 -51.834 53.001 -84.501s19 -68 19 -106v-8.5v-16.5c0 -6 -0.166992 -12 -0.5 -18s-0.5 -10 -0.5 -12h-365
c9.33301 -24 23.833 -43 43.5 -57s42.5 -21 68.5 -21c25.333 0 47.5 5.33301 66.5 16s34.833 23.667 47.5 39zM289.998 391.003c-24.667 0 -45.166 -5.83301 -61.499 -17.5s-28.833 -27.5 -37.5 -47.5h191c-8.66699 24.667 -21.834 41.667 -39.501 51s-35.167 14 -52.5 14z
M284.999 560.003c-20.667 0 -39.3281 2 -55.9951 6s-31.167 9 -43.5 15s-22.833 12.167 -31.5 18.5s-15.334 12.166 -20.001 17.499v116c15.333 -8.66699 35.666 -17 60.999 -25s55.333 -12 90 -12s64.667 4 90 12s45.666 16.333 60.999 25v-116
c-4.66699 -5.33301 -11.334 -11.166 -20.001 -17.499s-19.167 -12.5 -31.5 -18.5s-26.833 -11 -43.5 -15s-35.334 -6 -56.001 -6z" />
    <glyph glyph-name="Edotaccent" unicode="&#x116;" horiz-adv-x="585" 
d="M35 685h523v-168h-326v-90h296v-166h-296v-93h328v-168h-525v685zM202 729v133h178v-133h-178z" />
    <glyph glyph-name="edotaccent" unicode="&#x117;" horiz-adv-x="571" 
d="M533 103c-10.667 -15.333 -23.502 -29.9971 -38.502 -43.9971s-32.167 -26.333 -51.5 -37s-41 -19.167 -65 -25.5s-50.333 -9.5 -79 -9.5c-40 0 -77.333 6.83301 -112 20.5s-64.667 32.5 -90 56.5s-45.166 52.667 -59.499 86s-21.5 69.666 -21.5 108.999
c0 38 7.16699 73.5 21.5 106.5s34 61.667 59 86s54.5 43.5 88.5 57.5s70.333 21 109 21s74 -6.83301 106 -20.5s59.333 -32.334 82 -56.001s40.334 -51.834 53.001 -84.501s19 -68 19 -106v-8.5v-16.5c0 -6 -0.166992 -12 -0.5 -18s-0.5 -10 -0.5 -12h-365
c9.33301 -24 23.833 -43 43.5 -57s42.5 -21 68.5 -21c25.333 0 47.5 5.33301 66.5 16s34.833 23.667 47.5 39zM289.998 391.003c-24.667 0 -45.166 -5.83301 -61.499 -17.5s-28.833 -27.5 -37.5 -47.5h191c-8.66699 24.667 -21.834 41.667 -39.501 51s-35.167 14 -52.5 14z
M194.999 562.003v133h178v-133h-178z" />
    <glyph glyph-name="Eogonek" unicode="&#x118;" horiz-adv-x="585" 
d="M561 -168c-4.66699 -3.33301 -10.332 -6.33105 -16.999 -8.99805c-5.33301 -2.66699 -12.166 -4.83398 -20.499 -6.50098s-17.833 -2.5 -28.5 -2.5c-32 0 -57.167 8.5 -75.5 25.5s-27.5 38.167 -27.5 63.5c0 21.333 6.16699 40.666 18.5 57.999s28.166 30.333 47.499 39
h-423v685h523v-168h-326v-90h296v-166h-296v-93h328v-168h-29c-15.333 -9.33301 -26.333 -20.333 -33 -33s-10 -25 -10 -37c0 -22 11.333 -33 34 -33c11.333 0 20.666 1 27.999 3c4 0.666992 7.66699 1.66699 11 3v-71z" />
    <glyph glyph-name="eogonek" unicode="&#x119;" horiz-adv-x="571" 
d="M353 -186c-32 0 -57.166 8.50195 -75.499 25.502s-27.5 38.167 -27.5 63.5c0 17.333 3.83301 33.333 11.5 48s18.167 26.667 31.5 36c-39.333 0.666992 -76 8 -110 22s-63.333 33 -88 57s-44 52.333 -58 85s-21 68.667 -21 108c0 38 7.16699 73.5 21.5 106.5
s34 61.667 59 86s54.5 43.5 88.5 57.5s70.333 21 109 21s74 -6.83301 106 -20.5s59.333 -32.334 82 -56.001s40.334 -51.834 53.001 -84.501s19 -68 19 -106v-8.5v-16.5c0 -6 -0.166992 -12 -0.5 -18s-0.5 -10 -0.5 -12h-365c9.33301 -24 23.833 -43 43.5 -57
s42.5 -21 68.5 -21c25.333 0 47.5 5.33301 66.5 16s34.833 23.667 47.5 39l119 -82c-15.333 -22 -34.833 -42.333 -58.5 -61s-52.5 -33 -86.5 -43c-14.667 -9.33301 -25.334 -20.166 -32.001 -32.499s-10 -24.5 -10 -36.5c0 -22 11.333 -33 34 -33
c11.333 0 20.666 1 27.999 3c4 0.666992 7.66699 1.66699 11 3v-71c-4.66699 -3.33301 -10.334 -6.33301 -17.001 -9c-5.33301 -2.66699 -12.166 -4.83398 -20.499 -6.50098s-17.833 -2.5 -28.5 -2.5zM290.001 391.002c-24.667 0 -45.166 -5.83301 -61.499 -17.5
s-28.833 -27.5 -37.5 -47.5h191c-8.66699 24.667 -21.834 41.667 -39.501 51s-35.167 14 -52.5 14z" />
    <glyph glyph-name="Ecaron" unicode="&#x11a;" horiz-adv-x="585" 
d="M35 685h523v-168h-326v-90h296v-166h-296v-93h328v-168h-525v685zM292 726l-156 43v109l156 -23l156 23v-109z" />
    <glyph glyph-name="ecaron" unicode="&#x11b;" horiz-adv-x="571" 
d="M533 103c-10.667 -15.333 -23.502 -29.9971 -38.502 -43.9971s-32.167 -26.333 -51.5 -37s-41 -19.167 -65 -25.5s-50.333 -9.5 -79 -9.5c-40 0 -77.333 6.83301 -112 20.5s-64.667 32.5 -90 56.5s-45.166 52.667 -59.499 86s-21.5 69.666 -21.5 108.999
c0 38 7.16699 73.5 21.5 106.5s34 61.667 59 86s54.5 43.5 88.5 57.5s70.333 21 109 21s74 -6.83301 106 -20.5s59.333 -32.334 82 -56.001s40.334 -51.834 53.001 -84.501s19 -68 19 -106v-8.5v-16.5c0 -6 -0.166992 -12 -0.5 -18s-0.5 -10 -0.5 -12h-365
c9.33301 -24 23.833 -43 43.5 -57s42.5 -21 68.5 -21c25.333 0 47.5 5.33301 66.5 16s34.833 23.667 47.5 39zM289.998 391.003c-24.667 0 -45.166 -5.83301 -61.499 -17.5s-28.833 -27.5 -37.5 -47.5h191c-8.66699 24.667 -21.834 41.667 -39.501 51s-35.167 14 -52.5 14z
M284.999 559.003l-156 43v109l156 -23l156 23v-109z" />
    <glyph glyph-name="Gcircumflex" unicode="&#x11c;" horiz-adv-x="759" 
d="M743 343c0 -54 -9.33301 -103.166 -28 -147.499s-44 -82 -76 -113s-69.333 -55 -112 -72s-88.334 -25.5 -137.001 -25.5c-53.333 0 -102.666 9.33301 -147.999 28s-84.5 44 -117.5 76s-58.667 69.667 -77 113s-27.5 89.666 -27.5 138.999
c0 46.667 8.83301 91.667 26.5 135s42.834 81.5 75.501 114.5s72.167 59.5 118.5 79.5s98.166 30 155.499 30c39.333 0 75 -4.5 107 -13.5s60.5 -20.5 85.5 -34.5s46.5 -30 64.5 -48s32.667 -36 44 -54l-155 -111c-20 25.333 -42.167 44.833 -66.5 58.5
s-52.5 20.5 -84.5 20.5c-24 0 -46.333 -4.33301 -67 -13s-38.5 -21 -53.5 -37s-26.833 -35 -35.5 -57s-13 -46.333 -13 -73c0 -26 4.5 -49.833 13.5 -71.5s21.167 -40.167 36.5 -55.5s33.333 -27.333 54 -36s42.667 -13 66 -13c29.333 0 55.333 6 78 18s41.667 30.667 57 56
h-157v158h373v-51zM546 718.001l-156 23l-156 -23v108l156 44l156 -44v-108z" />
    <glyph glyph-name="gcircumflex" unicode="&#x11d;" horiz-adv-x="591" 
d="M292 367c-14.667 0 -28.334 -2.66699 -41.001 -8s-23.834 -12.833 -33.501 -22.5s-17.334 -21 -23.001 -34s-8.5 -26.833 -8.5 -41.5s2.83301 -28.5 8.5 -41.5s13.334 -24.167 23.001 -33.5s20.834 -16.833 33.501 -22.5s26.334 -8.5 41.001 -8.5
s28.334 2.83301 41.001 8.5s23.667 13.167 33 22.5s16.666 20.5 21.999 33.5s8 26.833 8 41.5s-2.66699 28.5 -8 41.5s-12.666 24.333 -21.999 34s-20.333 17.167 -33 22.5s-26.334 8 -41.001 8zM268 -196c-54.667 0 -101.834 9.33203 -141.501 27.999s-72.167 45 -97.5 79
l108 98c17.333 -18.667 36.166 -33 56.499 -43s44.5 -15 72.5 -15c36 0 65.833 7.5 89.5 22.5s36.5 37.833 38.5 68.5c-21.333 -13.333 -42.833 -22.833 -64.5 -28.5s-42.167 -8.5 -61.5 -8.5c-34.667 0 -67.167 6.66699 -97.5 20s-57 31.5 -80 54.5
s-41.167 50.333 -54.5 82s-20 65.834 -20 102.501s6.66699 70.667 20 102s31.5 58.5 54.5 81.5s49.667 41.167 80 54.5s62.833 20 97.5 20c20 0 40.833 -2.83301 62.5 -8.5s42.834 -15.167 63.501 -28.5v33h173v-460c0 -35.333 -6.33301 -68.333 -19 -99
s-31.5 -57.5 -56.5 -80.5s-56.167 -41.167 -93.5 -54.5s-80.666 -20 -129.999 -20zM447 550.999l-156 23l-156 -23v108l156 44l156 -44v-108z" />
    <glyph glyph-name="Gbreve" unicode="&#x11e;" horiz-adv-x="759" 
d="M743 343c0 -54 -9.33301 -103.166 -28 -147.499s-44 -82 -76 -113s-69.333 -55 -112 -72s-88.334 -25.5 -137.001 -25.5c-53.333 0 -102.666 9.33301 -147.999 28s-84.5 44 -117.5 76s-58.667 69.667 -77 113s-27.5 89.666 -27.5 138.999
c0 46.667 8.83301 91.667 26.5 135s42.834 81.5 75.501 114.5s72.167 59.5 118.5 79.5s98.166 30 155.499 30c39.333 0 75 -4.5 107 -13.5s60.5 -20.5 85.5 -34.5s46.5 -30 64.5 -48s32.667 -36 44 -54l-155 -111c-20 25.333 -42.167 44.833 -66.5 58.5
s-52.5 20.5 -84.5 20.5c-24 0 -46.333 -4.33301 -67 -13s-38.5 -21 -53.5 -37s-26.833 -35 -35.5 -57s-13 -46.333 -13 -73c0 -26 4.5 -49.833 13.5 -71.5s21.167 -40.167 36.5 -55.5s33.333 -27.333 54 -36s42.667 -13 66 -13c29.333 0 55.333 6 78 18s41.667 30.667 57 56
h-157v158h373v-51zM390 727.001c-20.667 0 -39.3281 2 -55.9951 6s-31.167 9 -43.5 15s-22.833 12.167 -31.5 18.5s-15.334 12.166 -20.001 17.499v116c15.333 -8.66699 35.666 -17 60.999 -25s55.333 -12 90 -12s64.667 4 90 12s45.666 16.333 60.999 25v-116
c-4.66699 -5.33301 -11.334 -11.166 -20.001 -17.499s-19.167 -12.5 -31.5 -18.5s-26.833 -11 -43.5 -15s-35.334 -6 -56.001 -6z" />
    <glyph glyph-name="gbreve" unicode="&#x11f;" horiz-adv-x="591" 
d="M292 367c-14.667 0 -28.334 -2.66699 -41.001 -8s-23.834 -12.833 -33.501 -22.5s-17.334 -21 -23.001 -34s-8.5 -26.833 -8.5 -41.5s2.83301 -28.5 8.5 -41.5s13.334 -24.167 23.001 -33.5s20.834 -16.833 33.501 -22.5s26.334 -8.5 41.001 -8.5
s28.334 2.83301 41.001 8.5s23.667 13.167 33 22.5s16.666 20.5 21.999 33.5s8 26.833 8 41.5s-2.66699 28.5 -8 41.5s-12.666 24.333 -21.999 34s-20.333 17.167 -33 22.5s-26.334 8 -41.001 8zM268 -196c-54.667 0 -101.834 9.33203 -141.501 27.999s-72.167 45 -97.5 79
l108 98c17.333 -18.667 36.166 -33 56.499 -43s44.5 -15 72.5 -15c36 0 65.833 7.5 89.5 22.5s36.5 37.833 38.5 68.5c-21.333 -13.333 -42.833 -22.833 -64.5 -28.5s-42.167 -8.5 -61.5 -8.5c-34.667 0 -67.167 6.66699 -97.5 20s-57 31.5 -80 54.5
s-41.167 50.333 -54.5 82s-20 65.834 -20 102.501s6.66699 70.667 20 102s31.5 58.5 54.5 81.5s49.667 41.167 80 54.5s62.833 20 97.5 20c20 0 40.833 -2.83301 62.5 -8.5s42.834 -15.167 63.501 -28.5v33h173v-460c0 -35.333 -6.33301 -68.333 -19 -99
s-31.5 -57.5 -56.5 -80.5s-56.167 -41.167 -93.5 -54.5s-80.666 -20 -129.999 -20zM291 559.999c-20.667 0 -39.3281 2 -55.9951 6s-31.167 9 -43.5 15s-22.833 12.167 -31.5 18.5s-15.334 12.166 -20.001 17.499v116c15.333 -8.66699 35.666 -17 60.999 -25
s55.333 -12 90 -12s64.667 4 90 12s45.666 16.333 60.999 25v-116c-4.66699 -5.33301 -11.334 -11.166 -20.001 -17.499s-19.167 -12.5 -31.5 -18.5s-26.833 -11 -43.5 -15s-35.334 -6 -56.001 -6z" />
    <glyph glyph-name="Gdotaccent" unicode="&#x120;" horiz-adv-x="759" 
d="M743 343c0 -54 -9.33301 -103.166 -28 -147.499s-44 -82 -76 -113s-69.333 -55 -112 -72s-88.334 -25.5 -137.001 -25.5c-53.333 0 -102.666 9.33301 -147.999 28s-84.5 44 -117.5 76s-58.667 69.667 -77 113s-27.5 89.666 -27.5 138.999
c0 46.667 8.83301 91.667 26.5 135s42.834 81.5 75.501 114.5s72.167 59.5 118.5 79.5s98.166 30 155.499 30c39.333 0 75 -4.5 107 -13.5s60.5 -20.5 85.5 -34.5s46.5 -30 64.5 -48s32.667 -36 44 -54l-155 -111c-20 25.333 -42.167 44.833 -66.5 58.5
s-52.5 20.5 -84.5 20.5c-24 0 -46.333 -4.33301 -67 -13s-38.5 -21 -53.5 -37s-26.833 -35 -35.5 -57s-13 -46.333 -13 -73c0 -26 4.5 -49.833 13.5 -71.5s21.167 -40.167 36.5 -55.5s33.333 -27.333 54 -36s42.667 -13 66 -13c29.333 0 55.333 6 78 18s41.667 30.667 57 56
h-157v158h373v-51zM300 729.001v133h178v-133h-178z" />
    <glyph glyph-name="gdotaccent" unicode="&#x121;" horiz-adv-x="591" 
d="M292 367c-14.667 0 -28.334 -2.66699 -41.001 -8s-23.834 -12.833 -33.501 -22.5s-17.334 -21 -23.001 -34s-8.5 -26.833 -8.5 -41.5s2.83301 -28.5 8.5 -41.5s13.334 -24.167 23.001 -33.5s20.834 -16.833 33.501 -22.5s26.334 -8.5 41.001 -8.5
s28.334 2.83301 41.001 8.5s23.667 13.167 33 22.5s16.666 20.5 21.999 33.5s8 26.833 8 41.5s-2.66699 28.5 -8 41.5s-12.666 24.333 -21.999 34s-20.333 17.167 -33 22.5s-26.334 8 -41.001 8zM268 -196c-54.667 0 -101.834 9.33203 -141.501 27.999s-72.167 45 -97.5 79
l108 98c17.333 -18.667 36.166 -33 56.499 -43s44.5 -15 72.5 -15c36 0 65.833 7.5 89.5 22.5s36.5 37.833 38.5 68.5c-21.333 -13.333 -42.833 -22.833 -64.5 -28.5s-42.167 -8.5 -61.5 -8.5c-34.667 0 -67.167 6.66699 -97.5 20s-57 31.5 -80 54.5
s-41.167 50.333 -54.5 82s-20 65.834 -20 102.501s6.66699 70.667 20 102s31.5 58.5 54.5 81.5s49.667 41.167 80 54.5s62.833 20 97.5 20c20 0 40.833 -2.83301 62.5 -8.5s42.834 -15.167 63.501 -28.5v33h173v-460c0 -35.333 -6.33301 -68.333 -19 -99
s-31.5 -57.5 -56.5 -80.5s-56.167 -41.167 -93.5 -54.5s-80.666 -20 -129.999 -20zM201 561.999v133h178v-133h-178z" />
    <glyph glyph-name="uni0122" unicode="&#x122;" horiz-adv-x="759" 
d="M743 343c0 -54 -9.33301 -103.166 -28 -147.499s-44 -82 -76 -113s-69.333 -55 -112 -72s-88.334 -25.5 -137.001 -25.5c-53.333 0 -102.666 9.33301 -147.999 28s-84.5 44 -117.5 76s-58.667 69.667 -77 113s-27.5 89.666 -27.5 138.999
c0 46.667 8.83301 91.667 26.5 135s42.834 81.5 75.501 114.5s72.167 59.5 118.5 79.5s98.166 30 155.499 30c39.333 0 75 -4.5 107 -13.5s60.5 -20.5 85.5 -34.5s46.5 -30 64.5 -48s32.667 -36 44 -54l-155 -111c-20 25.333 -42.167 44.833 -66.5 58.5
s-52.5 20.5 -84.5 20.5c-24 0 -46.333 -4.33301 -67 -13s-38.5 -21 -53.5 -37s-26.833 -35 -35.5 -57s-13 -46.333 -13 -73c0 -26 4.5 -49.833 13.5 -71.5s21.167 -40.167 36.5 -55.5s33.333 -27.333 54 -36s42.667 -13 66 -13c29.333 0 55.333 6 78 18s41.667 30.667 57 56
h-157v158h373v-51zM420 -230.999h-115l37 69h-37v128h161v-96z" />
    <glyph glyph-name="uni0123" unicode="&#x123;" horiz-adv-x="591" 
d="M256 759h115l-37 -69h37v-128h-161v96zM292 367c-14.667 0 -28.334 -2.66699 -41.001 -8s-23.834 -12.833 -33.501 -22.5s-17.334 -21 -23.001 -34s-8.5 -26.833 -8.5 -41.5s2.83301 -28.5 8.5 -41.5s13.334 -24.167 23.001 -33.5s20.834 -16.833 33.501 -22.5
s26.334 -8.5 41.001 -8.5s28.334 2.83301 41.001 8.5s23.667 13.167 33 22.5s16.666 20.5 21.999 33.5s8 26.833 8 41.5s-2.66699 28.5 -8 41.5s-12.666 24.333 -21.999 34s-20.333 17.167 -33 22.5s-26.334 8 -41.001 8zM268 -196
c-54.667 0 -101.834 9.33203 -141.501 27.999s-72.167 45 -97.5 79l108 98c17.333 -18.667 36.166 -33 56.499 -43s44.5 -15 72.5 -15c36 0 65.833 7.5 89.5 22.5s36.5 37.833 38.5 68.5c-21.333 -13.333 -42.833 -22.833 -64.5 -28.5s-42.167 -8.5 -61.5 -8.5
c-34.667 0 -67.167 6.66699 -97.5 20s-57 31.5 -80 54.5s-41.167 50.333 -54.5 82s-20 65.834 -20 102.501s6.66699 70.667 20 102s31.5 58.5 54.5 81.5s49.667 41.167 80 54.5s62.833 20 97.5 20c20 0 40.833 -2.83301 62.5 -8.5s42.834 -15.167 63.501 -28.5v33h173v-460
c0 -35.333 -6.33301 -68.333 -19 -99s-31.5 -57.5 -56.5 -80.5s-56.167 -41.167 -93.5 -54.5s-80.666 -20 -129.999 -20z" />
    <glyph glyph-name="Hcircumflex" unicode="&#x124;" horiz-adv-x="693" 
d="M461 250h-229v-250h-197v685h197v-261h229v261h197v-685h-197v250zM502 718l-156 23l-156 -23v108l156 44l156 -44v-108z" />
    <glyph glyph-name="hcircumflex" unicode="&#x125;" 
d="M200 470c16 19.333 36.001 33.835 60.001 43.502s50.667 14.5 80 14.5c30 0 57.333 -5 82 -15s45.667 -24.333 63 -43s30.666 -40.834 39.999 -66.501s14 -53.834 14 -84.501v-319h-176v277c0 25.333 -6.66699 46.5 -20 63.5s-33 25.5 -59 25.5
c-24 0 -44 -8.33301 -60 -25s-24 -40 -24 -70v-271h-176v685h176v-215zM269.001 718.002l-156 23l-156 -23v108l156 44l156 -44v-108z" />
    <glyph glyph-name="Hbar" unicode="&#x126;" horiz-adv-x="693" 
d="M461 424v53h-229v-53h229zM232 0h-197v477h-38v156h38v52h197v-52h229v52h197v-52h38v-156h-38v-477h-197v250h-229v-250z" />
    <glyph glyph-name="hbar" unicode="&#x127;" 
d="M200 460c16 19.333 36.001 33.835 60.001 43.502s50.667 14.5 80 14.5c30 0 57.333 -5 82 -15s45.667 -24.333 63 -43s30.666 -40.834 39.999 -66.501s14 -53.834 14 -84.501v-309h-176v267c0 25.333 -6.66699 46.5 -20 63.5s-33 25.5 -59 25.5
c-24 0 -44 -8.33301 -60 -25s-24 -40 -24 -70v-261h-176v545h-38v96h38v44h176v-44h118v-96h-118v-85z" />
    <glyph glyph-name="Itilde" unicode="&#x128;" horiz-adv-x="267" 
d="M35 0v685h197v-685h-197zM194 728c-14.667 0 -28.167 1.5 -40.5 4.5s-24.166 6.33301 -35.499 10s-22.5 7 -33.5 10s-22.5 4.5 -34.5 4.5c-13.333 0 -26.333 -2.16699 -39 -6.5s-23.667 -9.5 -33 -15.5v112c9.33301 11.333 22.5 21.833 39.5 31.5s36.167 14.5 57.5 14.5
c14.667 0 28.167 -1.66699 40.5 -5s24.166 -6.83301 35.499 -10.5l33.5 -10.5c11 -3.33301 22.5 -5 34.5 -5c13.333 0 26.333 2.16699 39 6.5s23.667 9.5 33 15.5v-110c-9.33301 -11.333 -22.5 -21.833 -39.5 -31.5s-36.167 -14.5 -57.5 -14.5z" />
    <glyph glyph-name="itilde" unicode="&#x129;" horiz-adv-x="224" 
d="M24 0v518h176v-518h-176zM172 561c-14.667 0 -28.167 1.5 -40.5 4.5s-24.166 6.33301 -35.499 10s-22.5 7 -33.5 10s-22.5 4.5 -34.5 4.5c-13.333 0 -26.333 -2.16699 -39 -6.5s-23.667 -9.5 -33 -15.5v112c9.33301 11.333 22.5 21.833 39.5 31.5s36.167 14.5 57.5 14.5
c14.667 0 28.167 -1.66699 40.5 -5s24.166 -6.83301 35.499 -10.5l33.5 -10.5c11 -3.33301 22.5 -5 34.5 -5c13.333 0 26.333 2.16699 39 6.5s23.667 9.5 33 15.5v-110c-9.33301 -11.333 -22.5 -21.833 -39.5 -31.5s-36.167 -14.5 -57.5 -14.5z" />
    <glyph glyph-name="Imacron" unicode="&#x12a;" horiz-adv-x="267" 
d="M35 0v685h197v-685h-197zM-9 731v157h286v-157h-286z" />
    <glyph glyph-name="imacron" unicode="&#x12b;" horiz-adv-x="224" 
d="M24 0v518h176v-518h-176zM-31 564v157h286v-157h-286z" />
    <glyph glyph-name="Ibreve" unicode="&#x12c;" horiz-adv-x="267" 
d="M35 0v685h197v-685h-197zM134 727c-20.667 0 -39.3281 2 -55.9951 6s-31.167 9 -43.5 15s-22.833 12.167 -31.5 18.5s-15.334 12.166 -20.001 17.499v116c15.333 -8.66699 35.666 -17 60.999 -25s55.333 -12 90 -12s64.667 4 90 12s45.666 16.333 60.999 25v-116
c-4.66699 -5.33301 -11.334 -11.166 -20.001 -17.499s-19.167 -12.5 -31.5 -18.5s-26.833 -11 -43.5 -15s-35.334 -6 -56.001 -6z" />
    <glyph glyph-name="ibreve" unicode="&#x12d;" horiz-adv-x="224" 
d="M24 0v518h176v-518h-176zM112 560c-20.667 0 -39.3281 2 -55.9951 6s-31.167 9 -43.5 15s-22.833 12.167 -31.5 18.5s-15.334 12.166 -20.001 17.499v116c15.333 -8.66699 35.666 -17 60.999 -25s55.333 -12 90 -12s64.667 4 90 12s45.666 16.333 60.999 25v-116
c-4.66699 -5.33301 -11.334 -11.166 -20.001 -17.499s-19.167 -12.5 -31.5 -18.5s-26.833 -11 -43.5 -15s-35.334 -6 -56.001 -6z" />
    <glyph glyph-name="Iogonek" unicode="&#x12e;" horiz-adv-x="267" 
d="M229 -168c-4.66699 -3.33301 -10.332 -6.33105 -16.999 -8.99805c-5.33301 -2.66699 -12.166 -4.83398 -20.499 -6.50098s-17.833 -2.5 -28.5 -2.5c-32 0 -57.167 8.5 -75.5 25.5s-27.5 38.167 -27.5 63.5c0 21.333 6.16699 40.666 18.5 57.999s28.166 30.333 47.499 39
h-91v685h197v-685h-33c-15.333 -9.33301 -26.333 -20.333 -33 -33s-10 -25 -10 -37c0 -22 11.333 -33 34 -33c11.333 0 20.666 1 27.999 3c4 0.666992 7.66699 1.66699 11 3v-71z" />
    <glyph glyph-name="iogonek" unicode="&#x12f;" horiz-adv-x="224" 
d="M24 547v138h176v-138h-176zM198 -168c-4.66699 -3.33301 -10.332 -6.33105 -16.999 -8.99805c-5.33301 -2.66699 -12.166 -4.83398 -20.499 -6.50098s-17.833 -2.5 -28.5 -2.5c-32 0 -57.167 8.5 -75.5 25.5s-27.5 38.167 -27.5 63.5
c0 21.333 6.16699 40.666 18.5 57.999s28.166 30.333 47.499 39h-71v518h176v-518h-32c-15.333 -9.33301 -26.333 -20.333 -33 -33s-10 -25 -10 -37c0 -22 11.333 -33 34 -33c11.333 0 20.666 1 27.999 3c4 0.666992 7.66699 1.66699 11 3v-71z" />
    <glyph glyph-name="dotlessi" unicode="&#x131;" horiz-adv-x="224" 
d="M24 0v518h176v-518h-176z" />
    <glyph glyph-name="IJ" unicode="&#x132;" horiz-adv-x="857" 
d="M35 0v685h197v-685h-197zM488 256c0 -34.667 6.33105 -58.6641 18.998 -71.9971s30 -20 52 -20c23.333 0 41 7.16699 53 21.5s18 33.166 18 56.499v443h197v-430c0 -38.667 -5.66699 -74.334 -17 -107.001s-28.333 -60.834 -51 -84.501s-51 -42.167 -85 -55.5
s-73.333 -20 -118 -20c-87.333 0 -153.666 23.5 -198.999 70.5s-67.666 112.833 -66.999 197.5h198z" />
    <glyph glyph-name="ij" unicode="&#x133;" horiz-adv-x="448" 
d="M24 547v138h176v-138h-176zM24 0v518h176v-518h-176zM248 547v138h176v-138h-176zM424 29c0 -78.667 -19.167 -135.501 -57.5 -170.501s-99.5 -52.167 -183.5 -51.5v156c26 0 43.333 5.33301 52 16s13 28.334 13 53.001v486h176v-489z" />
    <glyph glyph-name="Jcircumflex" unicode="&#x134;" horiz-adv-x="590" 
d="M221 256c0 -34.667 6.33105 -58.6641 18.998 -71.9971s30 -20 52 -20c23.333 0 41 7.16699 53 21.5s18 33.166 18 56.499v443h197v-430c0 -38.667 -5.66699 -74.334 -17 -107.001s-28.333 -60.834 -51 -84.501s-51 -42.167 -85 -55.5s-73.333 -20 -118 -20
c-87.333 0 -153.666 23.5 -198.999 70.5s-67.666 112.833 -66.999 197.5h198zM615.998 718.003l-156 23l-156 -23v108l156 44l156 -44v-108z" />
    <glyph glyph-name="jcircumflex" unicode="&#x135;" horiz-adv-x="224" 
d="M200 29c0 -78.667 -19.167 -135.501 -57.5 -170.501s-99.5 -52.167 -183.5 -51.5v156c26 0 43.333 5.33301 52 16s13 28.334 13 53.001v486h176v-489zM268 550.999l-156 23l-156 -23v108l156 44l156 -44v-108z" />
    <glyph glyph-name="uni0136" unicode="&#x136;" horiz-adv-x="665" 
d="M444 685h229l-253 -338l251 -347h-243l-196 280v-280h-197v685h197v-305zM367 -231h-115l37 69h-37v128h161v-96z" />
    <glyph glyph-name="uni0137" unicode="&#x137;" horiz-adv-x="549" 
d="M342 518h208l-188 -259l191 -259h-217l-135 199v-199h-177v685h177v-385zM299 -231h-115l37 69h-37v128h161v-96z" />
    <glyph glyph-name="kgreenlandic" unicode="&#x138;" horiz-adv-x="549" 
d="M342 518h208l-188 -259l191 -259h-217l-135 199v-199h-177v518h177v-218z" />
    <glyph glyph-name="Lacute" unicode="&#x139;" horiz-adv-x="542" 
d="M35 685h197v-511h290v-174h-487v685zM11 720v155l252 54v-157z" />
    <glyph glyph-name="lacute" unicode="&#x13a;" horiz-adv-x="224" 
d="M24 0v685h176v-685h-176zM-11 720v155l252 54v-157z" />
    <glyph glyph-name="uni013B" unicode="&#x13b;" horiz-adv-x="542" 
d="M35 685h197v-511h290v-174h-487v685zM314 -231h-115l37 69h-37v128h161v-96z" />
    <glyph glyph-name="uni013C" unicode="&#x13c;" horiz-adv-x="224" 
d="M24 0v685h176v-685h-176zM147 -231h-115l37 69h-37v128h161v-96z" />
    <glyph glyph-name="Lcaron" unicode="&#x13d;" horiz-adv-x="542" 
d="M506 535l-62 -137h-121l49 106h-49v181h183v-150zM35 685h197v-511h290v-174h-487v685z" />
    <glyph glyph-name="lcaron" unicode="&#x13e;" horiz-adv-x="461" 
d="M437 535l-62 -137h-121l49 106h-49v181h183v-150zM24 0v685h176v-685h-176z" />
    <glyph glyph-name="Ldot" unicode="&#x13f;" horiz-adv-x="542" 
d="M35 685h197v-511h290v-174h-487v685zM310 307v133h178v-133h-178z" />
    <glyph glyph-name="ldot" unicode="&#x140;" horiz-adv-x="403" 
d="M24 0v685h176v-685h-176zM225 295v133h178v-133h-178z" />
    <glyph glyph-name="Lslash" unicode="&#x141;" horiz-adv-x="552" 
d="M45 0v266l-36 -19v127l36 19v292h197v-186l49 26v-128l-49 -26v-197h290v-174h-487z" />
    <glyph glyph-name="lslash" unicode="&#x142;" horiz-adv-x="234" 
d="M205 359v-359h-176v264l-30 -17v127l30 17v294h176v-197l32 18v-128z" />
    <glyph glyph-name="Nacute" unicode="&#x143;" horiz-adv-x="700" 
d="M226 359v-359h-191v685h223l216 -366v366h191v-685h-223zM237 720v155l252 54v-157z" />
    <glyph glyph-name="nacute" unicode="&#x144;" 
d="M197 470c16 19.333 36.501 33.835 61.501 43.502s52.167 14.5 81.5 14.5c30 0 57.333 -5 82 -15s45.667 -24.333 63 -43s30.666 -40.834 39.999 -66.501s14 -53.834 14 -84.501v-319h-176v277c0 25.333 -6.66699 46.5 -20 63.5s-33 25.5 -59 25.5
c-24 0 -44 -8.33301 -60 -25s-24 -40 -24 -70v-271h-176v518h173v-48zM157.001 553.002v155l252 54v-157z" />
    <glyph glyph-name="uni0145" unicode="&#x145;" horiz-adv-x="700" 
d="M226 359v-359h-191v685h223l216 -366v366h191v-685h-223zM375 -231h-115l37 69h-37v128h161v-96z" />
    <glyph glyph-name="uni0146" unicode="&#x146;" 
d="M197 470c16 19.333 36.501 33.835 61.501 43.502s52.167 14.5 81.5 14.5c30 0 57.333 -5 82 -15s45.667 -24.333 63 -43s30.666 -40.834 39.999 -66.501s14 -53.834 14 -84.501v-319h-176v277c0 25.333 -6.66699 46.5 -20 63.5s-33 25.5 -59 25.5
c-24 0 -44 -8.33301 -60 -25s-24 -40 -24 -70v-271h-176v518h173v-48zM315.001 -230.998h-115l37 69h-37v128h161v-96z" />
    <glyph glyph-name="Ncaron" unicode="&#x147;" horiz-adv-x="700" 
d="M226 359v-359h-191v685h223l216 -366v366h191v-685h-223zM360 726l-156 43v109l156 -23l156 23v-109z" />
    <glyph glyph-name="ncaron" unicode="&#x148;" 
d="M197 470c16 19.333 36.501 33.835 61.501 43.502s52.167 14.5 81.5 14.5c30 0 57.333 -5 82 -15s45.667 -24.333 63 -43s30.666 -40.834 39.999 -66.501s14 -53.834 14 -84.501v-319h-176v277c0 25.333 -6.66699 46.5 -20 63.5s-33 25.5 -59 25.5
c-24 0 -44 -8.33301 -60 -25s-24 -40 -24 -70v-271h-176v518h173v-48zM280.001 559.002l-156 43v109l156 -23l156 23v-109z" />
    <glyph glyph-name="napostrophe" unicode="&#x149;" 
d="M197 470c16 19.333 36.501 33.835 61.501 43.502s52.167 14.5 81.5 14.5c30 0 57.333 -5 82 -15s45.667 -24.333 63 -43s30.666 -40.834 39.999 -66.501s14 -53.834 14 -84.501v-319h-176v277c0 25.333 -6.66699 46.5 -20 63.5s-33 25.5 -59 25.5
c-24 0 -44 -8.33301 -60 -25s-24 -40 -24 -70v-271h-176v518h173v-48zM137.001 553.002h-115l37 69h-37v128h161v-96z" />
    <glyph glyph-name="Eng" unicode="&#x14a;" horiz-adv-x="700" 
d="M409 -37c26 0 43.334 5.50098 52.001 16.501s13 30.167 13 57.5l-248 352v-389h-191v685h223l216 -310v310h191v-670c0 -34 -6 -64 -18 -90s-29.167 -47.833 -51.5 -65.5s-49.333 -30.834 -81 -39.501s-66.834 -13 -105.501 -13v156z" />
    <glyph glyph-name="eng" unicode="&#x14b;" 
d="M197 470c16 19.333 36.501 33.834 61.501 43.501s52.167 14.5 81.5 14.5c30 0 57.333 -5 82 -15s45.667 -24.333 63 -43s30.666 -40.834 39.999 -66.501s14 -53.834 14 -84.501v-290c0 -78.667 -19.167 -135.5 -57.5 -170.5s-99.5 -52.167 -183.5 -51.5v156
c26 0 43.333 5.33301 52 16s13 28.334 13 53.001v245c0 25.333 -6.66699 46.5 -20 63.5s-33 25.5 -59 25.5c-24 0 -44 -8.33301 -60 -25s-24 -40 -24 -70v-271h-176v518h173v-48z" />
    <glyph glyph-name="Omacron" unicode="&#x14c;" horiz-adv-x="771" 
d="M385 -14c-50 0 -97 9 -141 27s-82.667 42.833 -116 74.5s-59.666 69.334 -78.999 113.001s-29 91.167 -29 142.5c0 50.667 9.66699 97.834 29 141.501s45.666 81.5 78.999 113.5s72 57 116 75s91 27 141 27c50.667 0 98.167 -9 142.5 -27s83 -43 116 -75
s59.167 -69.833 78.5 -113.5s29 -90.834 29 -141.501c0 -51.333 -9.66699 -98.833 -29 -142.5s-45.5 -81.334 -78.5 -113.001s-71.667 -56.5 -116 -74.5s-91.833 -27 -142.5 -27zM385 171c22.667 0 44 4.5 64 13.5s37.5 21.333 52.5 37s26.833 33.834 35.5 54.501
s13 43 13 67c0 23.333 -4.33301 45.333 -13 66s-20.5 38.834 -35.5 54.501s-32.5 28.167 -52.5 37.5s-41.333 14 -64 14s-43.834 -4.66699 -63.501 -14s-37 -21.833 -52 -37.5s-26.833 -33.834 -35.5 -54.501s-13 -42.667 -13 -66c0 -24 4.33301 -46.333 13 -67
s20.5 -38.834 35.5 -54.501s32.333 -28 52 -37s40.834 -13.5 63.501 -13.5zM242 731v157h286v-157h-286z" />
    <glyph glyph-name="omacron" unicode="&#x14d;" horiz-adv-x="588" 
d="M294 530c38 0 74 -7 108 -21s63.5 -33.167 88.5 -57.5s44.833 -53 59.5 -86s22 -68.5 22 -106.5c0 -38.667 -7.33301 -74.5 -22 -107.5s-34.5 -61.667 -59.5 -86s-54.5 -43.5 -88.5 -57.5s-70 -21 -108 -21s-73.833 7 -107.5 21s-63.167 33.167 -88.5 57.5
s-45.333 53 -60 86s-22 68.833 -22 107.5c0 38 7.33301 73.5 22 106.5s34.667 61.667 60 86s54.833 43.5 88.5 57.5s69.5 21 107.5 21zM294 364c-14.667 0 -28.5 -2.83301 -41.5 -8.5s-24.333 -13.334 -34 -23.001s-17.334 -21 -23.001 -34s-8.5 -27.167 -8.5 -42.5
s2.83301 -29.5 8.5 -42.5s13.334 -24.333 23.001 -34s21 -17.334 34 -23.001s26.833 -8.5 41.5 -8.5s28.5 2.83301 41.5 8.5s24.333 13.334 34 23.001s17.334 21 23.001 34s8.5 27.167 8.5 42.5s-2.83301 29.5 -8.5 42.5s-13.334 24.333 -23.001 34s-21 17.334 -34 23.001
s-26.833 8.5 -41.5 8.5zM153 564v157h286v-157h-286z" />
    <glyph glyph-name="Obreve" unicode="&#x14e;" horiz-adv-x="771" 
d="M385 -14c-50 0 -97 9 -141 27s-82.667 42.833 -116 74.5s-59.666 69.334 -78.999 113.001s-29 91.167 -29 142.5c0 50.667 9.66699 97.834 29 141.501s45.666 81.5 78.999 113.5s72 57 116 75s91 27 141 27c50.667 0 98.167 -9 142.5 -27s83 -43 116 -75
s59.167 -69.833 78.5 -113.5s29 -90.834 29 -141.501c0 -51.333 -9.66699 -98.833 -29 -142.5s-45.5 -81.334 -78.5 -113.001s-71.667 -56.5 -116 -74.5s-91.833 -27 -142.5 -27zM385 171c22.667 0 44 4.5 64 13.5s37.5 21.333 52.5 37s26.833 33.834 35.5 54.501
s13 43 13 67c0 23.333 -4.33301 45.333 -13 66s-20.5 38.834 -35.5 54.501s-32.5 28.167 -52.5 37.5s-41.333 14 -64 14s-43.834 -4.66699 -63.501 -14s-37 -21.833 -52 -37.5s-26.833 -33.834 -35.5 -54.501s-13 -42.667 -13 -66c0 -24 4.33301 -46.333 13 -67
s20.5 -38.834 35.5 -54.501s32.333 -28 52 -37s40.834 -13.5 63.501 -13.5zM385 727c-20.667 0 -39.3281 2 -55.9951 6s-31.167 9 -43.5 15s-22.833 12.167 -31.5 18.5s-15.334 12.166 -20.001 17.499v116c15.333 -8.66699 35.666 -17 60.999 -25s55.333 -12 90 -12
s64.667 4 90 12s45.666 16.333 60.999 25v-116c-4.66699 -5.33301 -11.334 -11.166 -20.001 -17.499s-19.167 -12.5 -31.5 -18.5s-26.833 -11 -43.5 -15s-35.334 -6 -56.001 -6z" />
    <glyph glyph-name="obreve" unicode="&#x14f;" horiz-adv-x="588" 
d="M294 530c38 0 74 -7 108 -21s63.5 -33.167 88.5 -57.5s44.833 -53 59.5 -86s22 -68.5 22 -106.5c0 -38.667 -7.33301 -74.5 -22 -107.5s-34.5 -61.667 -59.5 -86s-54.5 -43.5 -88.5 -57.5s-70 -21 -108 -21s-73.833 7 -107.5 21s-63.167 33.167 -88.5 57.5
s-45.333 53 -60 86s-22 68.833 -22 107.5c0 38 7.33301 73.5 22 106.5s34.667 61.667 60 86s54.833 43.5 88.5 57.5s69.5 21 107.5 21zM294 364c-14.667 0 -28.5 -2.83301 -41.5 -8.5s-24.333 -13.334 -34 -23.001s-17.334 -21 -23.001 -34s-8.5 -27.167 -8.5 -42.5
s2.83301 -29.5 8.5 -42.5s13.334 -24.333 23.001 -34s21 -17.334 34 -23.001s26.833 -8.5 41.5 -8.5s28.5 2.83301 41.5 8.5s24.333 13.334 34 23.001s17.334 21 23.001 34s8.5 27.167 8.5 42.5s-2.83301 29.5 -8.5 42.5s-13.334 24.333 -23.001 34s-21 17.334 -34 23.001
s-26.833 8.5 -41.5 8.5zM296 560c-20.667 0 -39.3281 2 -55.9951 6s-31.167 9 -43.5 15s-22.833 12.167 -31.5 18.5s-15.334 12.166 -20.001 17.499v116c15.333 -8.66699 35.666 -17 60.999 -25s55.333 -12 90 -12s64.667 4 90 12s45.666 16.333 60.999 25v-116
c-4.66699 -5.33301 -11.334 -11.166 -20.001 -17.499s-19.167 -12.5 -31.5 -18.5s-26.833 -11 -43.5 -15s-35.334 -6 -56.001 -6z" />
    <glyph glyph-name="Ohungarumlaut" unicode="&#x150;" horiz-adv-x="771" 
d="M385 -14c-50 0 -97 9 -141 27s-82.667 42.833 -116 74.5s-59.666 69.334 -78.999 113.001s-29 91.167 -29 142.5c0 50.667 9.66699 97.834 29 141.501s45.666 81.5 78.999 113.5s72 57 116 75s91 27 141 27c50.667 0 98.167 -9 142.5 -27s83 -43 116 -75
s59.167 -69.833 78.5 -113.5s29 -90.834 29 -141.501c0 -51.333 -9.66699 -98.833 -29 -142.5s-45.5 -81.334 -78.5 -113.001s-71.667 -56.5 -116 -74.5s-91.833 -27 -142.5 -27zM385 171c22.667 0 44 4.5 64 13.5s37.5 21.333 52.5 37s26.833 33.834 35.5 54.501
s13 43 13 67c0 23.333 -4.33301 45.333 -13 66s-20.5 38.834 -35.5 54.501s-32.5 28.167 -52.5 37.5s-41.333 14 -64 14s-43.834 -4.66699 -63.501 -14s-37 -21.833 -52 -37.5s-26.833 -33.834 -35.5 -54.501s-13 -42.667 -13 -66c0 -24 4.33301 -46.333 13 -67
s20.5 -38.834 35.5 -54.501s32.333 -28 52 -37s40.834 -13.5 63.501 -13.5zM197 725l50 147h172l-54 -147h-168zM403 725l53 147h173l-57 -147h-169z" />
    <glyph glyph-name="ohungarumlaut" unicode="&#x151;" horiz-adv-x="588" 
d="M294 530c38 0 74 -7 108 -21s63.5 -33.167 88.5 -57.5s44.833 -53 59.5 -86s22 -68.5 22 -106.5c0 -38.667 -7.33301 -74.5 -22 -107.5s-34.5 -61.667 -59.5 -86s-54.5 -43.5 -88.5 -57.5s-70 -21 -108 -21s-73.833 7 -107.5 21s-63.167 33.167 -88.5 57.5
s-45.333 53 -60 86s-22 68.833 -22 107.5c0 38 7.33301 73.5 22 106.5s34.667 61.667 60 86s54.833 43.5 88.5 57.5s69.5 21 107.5 21zM294 364c-14.667 0 -28.5 -2.83301 -41.5 -8.5s-24.333 -13.334 -34 -23.001s-17.334 -21 -23.001 -34s-8.5 -27.167 -8.5 -42.5
s2.83301 -29.5 8.5 -42.5s13.334 -24.333 23.001 -34s21 -17.334 34 -23.001s26.833 -8.5 41.5 -8.5s28.5 2.83301 41.5 8.5s24.333 13.334 34 23.001s17.334 21 23.001 34s8.5 27.167 8.5 42.5s-2.83301 29.5 -8.5 42.5s-13.334 24.333 -23.001 34s-21 17.334 -34 23.001
s-26.833 8.5 -41.5 8.5zM108 558l50 147h172l-54 -147h-168zM314 558l53 147h173l-57 -147h-169z" />
    <glyph glyph-name="OE" unicode="&#x152;" horiz-adv-x="1028" 
d="M384 0c-56 0 -106.5 9.00195 -151.5 27.002s-83.333 42.667 -115 74s-55.834 68 -72.501 110s-25 87 -25 135c0 47.333 8.33301 91.666 25 132.999s40.834 77.166 72.501 107.499s70 54.333 115 72s95.5 26.5 151.5 26.5h617v-168h-326v-90h296v-166h-296v-93h328v-168
h-619zM478 174.002v337h-94c-25.333 0 -48 -4.33301 -68 -13s-37 -20.667 -51 -36s-24.833 -33.333 -32.5 -54s-11.5 -43 -11.5 -67s3.83301 -46.167 11.5 -66.5s18.5 -38 32.5 -53s31 -26.667 51 -35s42.667 -12.5 68 -12.5h94z" />
    <glyph glyph-name="oe" unicode="&#x153;" horiz-adv-x="963" 
d="M925 103c-10.667 -15.333 -23.501 -29.998 -38.501 -43.998s-32.167 -26.333 -51.5 -37s-41 -19.167 -65 -25.5s-50.333 -9.5 -79 -9.5c-41.333 0 -79.333 6.83301 -114 20.5s-64.667 33.167 -90 58.5c-24.667 -24.667 -53.5 -44 -86.5 -58s-68.5 -21 -106.5 -21
s-73.833 7 -107.5 21s-63.167 33.167 -88.5 57.5s-45.333 53 -60 86s-22 68.833 -22 107.5c0 38 7.33301 73.5 22 106.5s34.667 61.667 60 86s54.833 43.5 88.5 57.5s69.5 21 107.5 21s73.5 -7 106.5 -21s62.167 -33.333 87.5 -58c25.333 24.667 54.833 44 88.5 58
s70.167 21 109.5 21c38.667 0 74 -6.83301 106 -20.5s59.333 -32.334 82 -56.001s40.334 -51.834 53.001 -84.501s19 -68 19 -106v-8.5v-16.5c0 -6 -0.166992 -12 -0.5 -18s-0.5 -10 -0.5 -12h-365c9.33301 -24 23.833 -43 43.5 -57s42.5 -21 68.5 -21
c25.333 0 47.5 5.33301 66.5 16s34.833 23.667 47.5 39zM773.999 326.002c-8.66699 24.667 -21.833 41.667 -39.5 51s-35.167 14 -52.5 14c-24.667 0 -45.167 -5.83301 -61.5 -17.5s-28.833 -27.5 -37.5 -47.5h191zM294 148.002c14.667 0 28.5 2.83301 41.5 8.5
s24.333 13.334 34 23.001s17.334 21 23.001 34s8.5 27.167 8.5 42.5s-2.83301 29.5 -8.5 42.5s-13.334 24.333 -23.001 34s-21 17.334 -34 23.001s-26.833 8.5 -41.5 8.5s-28.5 -2.83301 -41.5 -8.5s-24.333 -13.334 -34 -23.001s-17.334 -21 -23.001 -34
s-8.5 -27.167 -8.5 -42.5s2.83301 -29.5 8.5 -42.5s13.334 -24.333 23.001 -34s21 -17.334 34 -23.001s26.833 -8.5 41.5 -8.5z" />
    <glyph glyph-name="Racute" unicode="&#x154;" horiz-adv-x="624" 
d="M232 511v-141h66c31.333 0 54 6.33301 68 19s21 29.334 21 50.001c0 21.333 -6.33301 38.666 -19 51.999s-36 20 -70 20h-66zM232 0l-197.001 0.000976562v685h310c35.333 0 67.833 -5 97.5 -15s55.334 -25 77.001 -45s38.5 -44.833 50.5 -74.5s18 -63.834 18 -102.501
c0 -48 -12.833 -90.667 -38.5 -128s-61.5 -65 -107.5 -83l194 -237h-250l-154 211v-211zM188.999 720.001v155l252 54v-157z" />
    <glyph glyph-name="racute" unicode="&#x155;" horiz-adv-x="355" 
d="M340 349c-52 0 -88.334 -11.667 -109.001 -35s-31 -55 -31 -95v-219h-176v518h175v-61c16 21.333 36.333 38 61 50s51.334 18 80.001 18v-176zM75.999 553v155l252 54v-157z" />
    <glyph glyph-name="uni0156" unicode="&#x156;" horiz-adv-x="624" 
d="M232 511v-141h66c31.333 0 54 6.33301 68 19s21 29.334 21 50.001c0 21.333 -6.33301 38.666 -19 51.999s-36 20 -70 20h-66zM232 0l-197.001 0.000976562v685h310c35.333 0 67.833 -5 97.5 -15s55.334 -25 77.001 -45s38.5 -44.833 50.5 -74.5s18 -63.834 18 -102.501
c0 -48 -12.833 -90.667 -38.5 -128s-61.5 -65 -107.5 -83l194 -237h-250l-154 211v-211zM346.999 -230.999h-115l37 69h-37v128h161v-96z" />
    <glyph glyph-name="uni0157" unicode="&#x157;" horiz-adv-x="355" 
d="M340 349c-52 0 -88.334 -11.667 -109.001 -35s-31 -55 -31 -95v-219h-176v518h175v-61c16 21.333 36.333 38 61 50s51.334 18 80.001 18v-176zM145.999 -231h-115l37 69h-37v128h161v-96z" />
    <glyph glyph-name="Rcaron" unicode="&#x158;" horiz-adv-x="624" 
d="M232 511v-141h66c31.333 0 54 6.33301 68 19s21 29.334 21 50.001c0 21.333 -6.33301 38.666 -19 51.999s-36 20 -70 20h-66zM232 0l-197.001 0.000976562v685h310c35.333 0 67.833 -5 97.5 -15s55.334 -25 77.001 -45s38.5 -44.833 50.5 -74.5s18 -63.834 18 -102.501
c0 -48 -12.833 -90.667 -38.5 -128s-61.5 -65 -107.5 -83l194 -237h-250l-154 211v-211zM311.999 726.001l-156 43v109l156 -23l156 23v-109z" />
    <glyph glyph-name="rcaron" unicode="&#x159;" horiz-adv-x="355" 
d="M340 349c-52 0 -88.334 -11.667 -109.001 -35s-31 -55 -31 -95v-219h-176v518h175v-61c16 21.333 36.333 38 61 50s51.334 18 80.001 18v-176zM198.999 559l-156 43v109l156 -23l156 23v-109z" />
    <glyph glyph-name="Sacute" unicode="&#x15a;" horiz-adv-x="604" 
d="M302 -13c-89.333 0 -158.333 19.8281 -207 59.4951s-75.667 96.834 -81 171.501h195c0.666992 -10 2.83398 -19.5 6.50098 -28.5s9.16699 -17.167 16.5 -24.5s17.166 -13.166 29.499 -17.499s27.5 -6.5 45.5 -6.5c24 0 43.167 3.83301 57.5 11.5s21.5 19.167 21.5 34.5
s-9.5 27 -28.5 35s-43.167 15.667 -72.5 23c-27.333 6.66699 -56.333 14.334 -87 23.001s-59 21.167 -85 37.5s-47.667 37.833 -65 64.5s-26 61.667 -26 105c0 34 6.33301 64.667 19 92s30.5 50.666 53.5 69.999s51 34.333 84 45s69.5 16 109.5 16
c85.333 0 152 -21.167 200 -63.5s74.667 -100.166 80 -173.499h-192c-0.666992 8.66699 -2.16699 17.667 -4.5 27s-6.66602 17.833 -12.999 25.5s-15.333 14 -27 19s-27.167 7.5 -46.5 7.5c-24 0 -41.5 -4.5 -52.5 -13.5s-16.5 -19.5 -16.5 -31.5
c0 -10.667 3.16699 -19.667 9.5 -27s15.166 -13.666 26.499 -18.999s24.333 -9.83301 39 -13.5l48 -11.5c26.667 -6 54.5 -13 83.5 -21s55.5 -19.667 79.5 -35s43.667 -35.666 59 -60.999s23 -58.333 23 -99c0 -31.333 -6 -60.5 -18 -87.5s-30 -50.333 -54 -70
s-53.5 -35.167 -88.5 -46.5s-75.5 -17 -121.5 -17zM176 712.995v155l252 54v-157z" />
    <glyph glyph-name="sacute" unicode="&#x15b;" horiz-adv-x="484" 
d="M173 160c0.666992 -15.333 6.50098 -28 17.501 -38s29.167 -15 54.5 -15c18 0 31.167 3 39.5 9s12.5 13.667 12.5 23c0 12.667 -8.33301 21.334 -25 26.001s-36.667 9.33398 -60 14.001c-21.333 4 -43.666 8.83301 -66.999 14.5s-44.666 14.667 -63.999 27
s-35.5 29 -48.5 50s-19.5 49.167 -19.5 84.5c0 24.667 5 47.5 15 68.5s24.5 39.167 43.5 54.5s42 27.333 69 36s57.5 13 91.5 13c68 0 122 -15.333 162 -46s62 -74.334 66 -131.001h-168c-0.666992 15.333 -4.83398 27.666 -12.501 36.999s-23.167 14 -46.5 14
c-33.333 0 -50 -11 -50 -33c0 -13.333 8.16699 -22.833 24.5 -28.5s36.166 -10.834 59.499 -15.501c21.333 -4 44.166 -8.83301 68.499 -14.5s46.666 -14 66.999 -25s37.333 -26 51 -45s20.5 -44.167 20.5 -75.5c0 -30 -5.83301 -56 -17.5 -78s-27.667 -40.333 -48 -55
s-44.666 -25.667 -72.999 -33s-59.5 -11 -93.5 -11c-37.333 0 -70.5 4.33301 -99.5 13s-53.5 20.834 -73.5 36.501s-35.333 34 -46 55s-16 43.833 -16 68.5h166zM111.001 553v155l252 54v-157z" />
    <glyph glyph-name="Scircumflex" unicode="&#x15c;" horiz-adv-x="604" 
d="M302 -13c-89.333 0 -158.333 19.8281 -207 59.4951s-75.667 96.834 -81 171.501h195c0.666992 -10 2.83398 -19.5 6.50098 -28.5s9.16699 -17.167 16.5 -24.5s17.166 -13.166 29.499 -17.499s27.5 -6.5 45.5 -6.5c24 0 43.167 3.83301 57.5 11.5s21.5 19.167 21.5 34.5
s-9.5 27 -28.5 35s-43.167 15.667 -72.5 23c-27.333 6.66699 -56.333 14.334 -87 23.001s-59 21.167 -85 37.5s-47.667 37.833 -65 64.5s-26 61.667 -26 105c0 34 6.33301 64.667 19 92s30.5 50.666 53.5 69.999s51 34.333 84 45s69.5 16 109.5 16
c85.333 0 152 -21.167 200 -63.5s74.667 -100.166 80 -173.499h-192c-0.666992 8.66699 -2.16699 17.667 -4.5 27s-6.66602 17.833 -12.999 25.5s-15.333 14 -27 19s-27.167 7.5 -46.5 7.5c-24 0 -41.5 -4.5 -52.5 -13.5s-16.5 -19.5 -16.5 -31.5
c0 -10.667 3.16699 -19.667 9.5 -27s15.166 -13.666 26.499 -18.999s24.333 -9.83301 39 -13.5l48 -11.5c26.667 -6 54.5 -13 83.5 -21s55.5 -19.667 79.5 -35s43.667 -35.666 59 -60.999s23 -58.333 23 -99c0 -31.333 -6 -60.5 -18 -87.5s-30 -50.333 -54 -70
s-53.5 -35.167 -88.5 -46.5s-75.5 -17 -121.5 -17zM455 710.995l-156 23l-156 -23v108l156 44l156 -44v-108z" />
    <glyph glyph-name="scircumflex" unicode="&#x15d;" horiz-adv-x="484" 
d="M173 160c0.666992 -15.333 6.50098 -28 17.501 -38s29.167 -15 54.5 -15c18 0 31.167 3 39.5 9s12.5 13.667 12.5 23c0 12.667 -8.33301 21.334 -25 26.001s-36.667 9.33398 -60 14.001c-21.333 4 -43.666 8.83301 -66.999 14.5s-44.666 14.667 -63.999 27
s-35.5 29 -48.5 50s-19.5 49.167 -19.5 84.5c0 24.667 5 47.5 15 68.5s24.5 39.167 43.5 54.5s42 27.333 69 36s57.5 13 91.5 13c68 0 122 -15.333 162 -46s62 -74.334 66 -131.001h-168c-0.666992 15.333 -4.83398 27.666 -12.501 36.999s-23.167 14 -46.5 14
c-33.333 0 -50 -11 -50 -33c0 -13.333 8.16699 -22.833 24.5 -28.5s36.166 -10.834 59.499 -15.501c21.333 -4 44.166 -8.83301 68.499 -14.5s46.666 -14 66.999 -25s37.333 -26 51 -45s20.5 -44.167 20.5 -75.5c0 -30 -5.83301 -56 -17.5 -78s-27.667 -40.333 -48 -55
s-44.666 -25.667 -72.999 -33s-59.5 -11 -93.5 -11c-37.333 0 -70.5 4.33301 -99.5 13s-53.5 20.834 -73.5 36.501s-35.333 34 -46 55s-16 43.833 -16 68.5h166zM390.001 551l-156 23l-156 -23v108l156 44l156 -44v-108z" />
    <glyph glyph-name="uni015E" unicode="&#x15e;" horiz-adv-x="604" 
d="M292 -223c-30.667 0 -55.666 9.16406 -74.999 27.4971s-29 40.833 -29 67.5h82c0.666992 -6 3 -11 7 -15s9.33301 -6 16 -6c5.33301 0 10.166 2 14.499 6s6.5 9.33301 6.5 16c0 14.667 -8 22 -24 22h-71l42 94c-76.667 6 -135.834 28.5 -177.501 67.5
s-64.834 92.833 -69.501 161.5h195c0.666992 -10 2.83398 -19.5 6.50098 -28.5s9.16699 -17.167 16.5 -24.5s17.166 -13.166 29.499 -17.499s27.5 -6.5 45.5 -6.5c24 0 43.167 3.83301 57.5 11.5s21.5 19.167 21.5 34.5s-9.5 27 -28.5 35s-43.167 15.667 -72.5 23
c-27.333 6.66699 -56.333 14.334 -87 23.001s-59 21.167 -85 37.5s-47.667 37.833 -65 64.5s-26 61.667 -26 105c0 34 6.33301 64.667 19 92s30.5 50.666 53.5 69.999s51 34.333 84 45s69.5 16 109.5 16c85.333 0 152 -21.167 200 -63.5s74.667 -100.166 80 -173.499h-192
c-0.666992 8.66699 -2.16699 17.667 -4.5 27s-6.66602 17.833 -12.999 25.5s-15.333 14 -27 19s-27.167 7.5 -46.5 7.5c-24 0 -41.5 -4.5 -52.5 -13.5s-16.5 -19.5 -16.5 -31.5c0 -10.667 3.16699 -19.667 9.5 -27s15.166 -13.666 26.499 -18.999s24.333 -9.83301 39 -13.5
l48 -11.5c26.667 -6 54.5 -13 83.5 -21s55.5 -19.667 79.5 -35s43.667 -35.666 59 -60.999s23 -58.333 23 -99c0 -30 -5.5 -57.833 -16.5 -83.5s-27.167 -48.334 -48.5 -68.001s-47.666 -35.5 -78.999 -47.5s-67.666 -19 -108.999 -21l-13 -27c24.667 0 44 -8 58 -24
s21 -37.333 21 -64c0 -12.667 -2.33301 -24.667 -7 -36s-11.5 -21.5 -20.5 -30.5s-20 -16.167 -33 -21.5s-27.833 -8 -44.5 -8z" />
    <glyph glyph-name="uni015F" unicode="&#x15f;" horiz-adv-x="484" 
d="M232 -223c-30.667 0 -55.6641 9.16797 -74.9971 27.501s-29 40.833 -29 67.5h82c0.666992 -6 3 -11 7 -15s9.33301 -6 16 -6c5.33301 0 10.166 2 14.499 6s6.5 9.33301 6.5 16c0 14.667 -8 22 -24 22h-71l42 94c-62 6.66699 -109.833 25.667 -143.5 57
s-50.5 69.333 -50.5 114h166c0.666992 -15.333 6.5 -28 17.5 -38s29.167 -15 54.5 -15c18 0 31.167 3 39.5 9s12.5 13.667 12.5 23c0 12.667 -8.33301 21.334 -25 26.001s-36.667 9.33398 -60 14.001c-21.333 4 -43.666 8.83301 -66.999 14.5s-44.666 14.667 -63.999 27
s-35.5 29 -48.5 50s-19.5 49.167 -19.5 84.5c0 24.667 5 47.5 15 68.5s24.5 39.167 43.5 54.5s42 27.333 69 36s57.5 13 91.5 13c68 0 122 -15.333 162 -46s62 -74.334 66 -131.001h-168c-0.666992 15.333 -4.83398 27.666 -12.501 36.999s-23.167 14 -46.5 14
c-33.333 0 -50 -11 -50 -33c0 -13.333 8.16699 -22.833 24.5 -28.5s36.166 -10.834 59.499 -15.501c21.333 -4 44.166 -8.83301 68.499 -14.5s46.666 -14 66.999 -25s37.333 -26 51 -45s20.5 -44.167 20.5 -75.5c0 -27.333 -5 -51.5 -15 -72.5s-23.833 -38.833 -41.5 -53.5
s-39 -26.167 -64 -34.5s-52.5 -13.5 -82.5 -15.5l-13 -27c24.667 0 44 -8 58 -24s21 -37.333 21 -64c0 -12.667 -2.33301 -24.667 -7 -36s-11.5 -21.5 -20.5 -30.5s-20 -16.167 -33 -21.5s-27.833 -8 -44.5 -8z" />
    <glyph glyph-name="Scaron" unicode="&#x160;" horiz-adv-x="604" 
d="M302 -13c-89.333 0 -158.333 19.8281 -207 59.4951s-75.667 96.834 -81 171.501h195c0.666992 -10 2.83398 -19.5 6.50098 -28.5s9.16699 -17.167 16.5 -24.5s17.166 -13.166 29.499 -17.499s27.5 -6.5 45.5 -6.5c24 0 43.167 3.83301 57.5 11.5s21.5 19.167 21.5 34.5
s-9.5 27 -28.5 35s-43.167 15.667 -72.5 23c-27.333 6.66699 -56.333 14.334 -87 23.001s-59 21.167 -85 37.5s-47.667 37.833 -65 64.5s-26 61.667 -26 105c0 34 6.33301 64.667 19 92s30.5 50.666 53.5 69.999s51 34.333 84 45s69.5 16 109.5 16
c85.333 0 152 -21.167 200 -63.5s74.667 -100.166 80 -173.499h-192c-0.666992 8.66699 -2.16699 17.667 -4.5 27s-6.66602 17.833 -12.999 25.5s-15.333 14 -27 19s-27.167 7.5 -46.5 7.5c-24 0 -41.5 -4.5 -52.5 -13.5s-16.5 -19.5 -16.5 -31.5
c0 -10.667 3.16699 -19.667 9.5 -27s15.166 -13.666 26.499 -18.999s24.333 -9.83301 39 -13.5l48 -11.5c26.667 -6 54.5 -13 83.5 -21s55.5 -19.667 79.5 -35s43.667 -35.666 59 -60.999s23 -58.333 23 -99c0 -31.333 -6 -60.5 -18 -87.5s-30 -50.333 -54 -70
s-53.5 -35.167 -88.5 -46.5s-75.5 -17 -121.5 -17zM299 718.995l-156 43v109l156 -23l156 23v-109z" />
    <glyph glyph-name="scaron" unicode="&#x161;" horiz-adv-x="484" 
d="M173 160c0.666992 -15.333 6.50098 -28 17.501 -38s29.167 -15 54.5 -15c18 0 31.167 3 39.5 9s12.5 13.667 12.5 23c0 12.667 -8.33301 21.334 -25 26.001s-36.667 9.33398 -60 14.001c-21.333 4 -43.666 8.83301 -66.999 14.5s-44.666 14.667 -63.999 27
s-35.5 29 -48.5 50s-19.5 49.167 -19.5 84.5c0 24.667 5 47.5 15 68.5s24.5 39.167 43.5 54.5s42 27.333 69 36s57.5 13 91.5 13c68 0 122 -15.333 162 -46s62 -74.334 66 -131.001h-168c-0.666992 15.333 -4.83398 27.666 -12.501 36.999s-23.167 14 -46.5 14
c-33.333 0 -50 -11 -50 -33c0 -13.333 8.16699 -22.833 24.5 -28.5s36.166 -10.834 59.499 -15.501c21.333 -4 44.166 -8.83301 68.499 -14.5s46.666 -14 66.999 -25s37.333 -26 51 -45s20.5 -44.167 20.5 -75.5c0 -30 -5.83301 -56 -17.5 -78s-27.667 -40.333 -48 -55
s-44.666 -25.667 -72.999 -33s-59.5 -11 -93.5 -11c-37.333 0 -70.5 4.33301 -99.5 13s-53.5 20.834 -73.5 36.501s-35.333 34 -46 55s-16 43.833 -16 68.5h166zM234.001 559l-156 43v109l156 -23l156 23v-109z" />
    <glyph glyph-name="uni0162" unicode="&#x162;" horiz-adv-x="607" 
d="M294 -223c-30.667 0 -55.666 9.16699 -74.999 27.5s-29 40.833 -29 67.5h82c0.666992 -6 3 -11 7 -15s9.33301 -6 16 -6c5.33301 0 10.166 2 14.499 6s6.5 9.33301 6.5 16c0 14.667 -8 22 -24 22h-71l46 105h-62v511h-190v174h577v-174h-190v-511h-63l-19 -39
c24.667 0 44 -8 58 -24s21 -37.333 21 -64c0 -12.667 -2.33301 -24.667 -7 -36s-11.5 -21.5 -20.5 -30.5s-20 -16.167 -33 -21.5s-27.833 -8 -44.5 -8z" />
    <glyph glyph-name="uni0163" unicode="&#x163;" horiz-adv-x="405" 
d="M229 -223c-30.667 0 -55.666 9.16699 -74.999 27.5s-29 40.833 -29 67.5h82c0.666992 -6 3 -11 7 -15s9.33301 -6 16 -6c5.33301 0 10.166 2 14.499 6s6.5 9.33301 6.5 16c0 14.667 -8 22 -24 22h-71l51 114c-40 10 -69 29.5 -87 58.5s-27 68.5 -27 118.5v175h-73v157h73
v127h176v-127h117v-157h-117v-152c0 -21.333 4.5 -36.833 13.5 -46.5s23.167 -14.5 42.5 -14.5h61v-148h-99h-12l-20 -39c24.667 0 44 -8 58 -24s21 -37.333 21 -64c0 -12.667 -2.33301 -24.667 -7 -36s-11.5 -21.5 -20.5 -30.5s-20 -16.167 -33 -21.5s-27.833 -8 -44.5 -8z
" />
    <glyph glyph-name="Tcaron" unicode="&#x164;" horiz-adv-x="607" 
d="M205 0v511h-190v174h577v-174h-190v-511h-197zM303 726l-156 43v109l156 -23l156 23v-109z" />
    <glyph glyph-name="tcaron" unicode="&#x165;" horiz-adv-x="405" 
d="M486 700l-62 -137h-121l49 106h-49v181h183v-150zM386 518v-157.001h-117v-152c0 -21.333 4.5 -36.833 13.5 -46.5s23.167 -14.5 42.5 -14.5h61v-148h-99c-68.667 0 -118.167 14.833 -148.5 44.5s-45.5 76.834 -45.5 141.501v175h-73v157h73v127h176v-127h117z" />
    <glyph glyph-name="Tbar" unicode="&#x166;" horiz-adv-x="607" 
d="M402 232v-232h-197v232h-143v156h143v123h-190v174h577v-174h-190v-123h143v-156h-143z" />
    <glyph glyph-name="tbar" unicode="&#x167;" horiz-adv-x="405" 
d="M287 0c-68.667 0 -118.167 14.832 -148.5 44.499s-45.5 76.834 -45.5 141.501v5h-73v132h73v38h-73v157h73v127h176v-127h117v-157h-117v-38h117v-132h-116c4.66699 -28.667 23 -43 55 -43h61v-148h-99z" />
    <glyph glyph-name="Utilde" unicode="&#x168;" horiz-adv-x="667" 
d="M334 -12c-50 0 -93.832 7.16699 -131.499 21.5s-69.334 34.5 -95.001 60.5s-45 56.833 -58 92.5s-19.5 75.167 -19.5 118.5v404h197v-381c0 -46 8.5 -80.333 25.5 -103s44.167 -34 81.5 -34c36.667 0 63.5 11.333 80.5 34s25.5 57 25.5 103v381h197v-404
c0 -43.333 -6.5 -82.833 -19.5 -118.5s-32.167 -66.5 -57.5 -92.5s-56.833 -46.167 -94.5 -60.5s-81.5 -21.5 -131.5 -21.5zM393.001 728c-14.667 0 -28.167 1.5 -40.5 4.5s-24.166 6.33301 -35.499 10s-22.5 7 -33.5 10s-22.5 4.5 -34.5 4.5
c-13.333 0 -26.333 -2.16699 -39 -6.5s-23.667 -9.5 -33 -15.5v112c9.33301 11.333 22.5 21.833 39.5 31.5s36.167 14.5 57.5 14.5c14.667 0 28.167 -1.66699 40.5 -5s24.166 -6.83301 35.499 -10.5l33.5 -10.5c11 -3.33301 22.5 -5 34.5 -5c13.333 0 26.333 2.16699 39 6.5
s23.667 9.5 33 15.5v-110c-9.33301 -11.333 -22.5 -21.833 -39.5 -31.5s-36.167 -14.5 -57.5 -14.5z" />
    <glyph glyph-name="utilde" unicode="&#x169;" 
d="M364 0l-0.000976562 48.001c-16 -19.333 -36.5 -33.833 -61.5 -43.5s-52.167 -14.5 -81.5 -14.5c-30 0 -57.333 5 -82 15s-45.667 24.333 -63 43s-30.666 40.667 -39.999 66s-14 53.666 -14 84.999v319h176v-277c0 -25.333 6.66699 -46.5 20 -63.5s33 -25.5 59 -25.5
c24 0 44 8.33301 60 25s24 40 24 70v271h176v-518h-173zM339.999 561.001c-14.667 0 -28.167 1.5 -40.5 4.5s-24.166 6.33301 -35.499 10s-22.5 7 -33.5 10s-22.5 4.5 -34.5 4.5c-13.333 0 -26.333 -2.16699 -39 -6.5s-23.667 -9.5 -33 -15.5v112
c9.33301 11.333 22.5 21.833 39.5 31.5s36.167 14.5 57.5 14.5c14.667 0 28.167 -1.66699 40.5 -5s24.166 -6.83301 35.499 -10.5l33.5 -10.5c11 -3.33301 22.5 -5 34.5 -5c13.333 0 26.333 2.16699 39 6.5s23.667 9.5 33 15.5v-110
c-9.33301 -11.333 -22.5 -21.833 -39.5 -31.5s-36.167 -14.5 -57.5 -14.5z" />
    <glyph glyph-name="Umacron" unicode="&#x16a;" horiz-adv-x="667" 
d="M334 -12c-50 0 -93.832 7.16699 -131.499 21.5s-69.334 34.5 -95.001 60.5s-45 56.833 -58 92.5s-19.5 75.167 -19.5 118.5v404h197v-381c0 -46 8.5 -80.333 25.5 -103s44.167 -34 81.5 -34c36.667 0 63.5 11.333 80.5 34s25.5 57 25.5 103v381h197v-404
c0 -43.333 -6.5 -82.833 -19.5 -118.5s-32.167 -66.5 -57.5 -92.5s-56.833 -46.167 -94.5 -60.5s-81.5 -21.5 -131.5 -21.5zM190.001 731v157h286v-157h-286z" />
    <glyph glyph-name="umacron" unicode="&#x16b;" 
d="M364 0l-0.000976562 48.001c-16 -19.333 -36.5 -33.833 -61.5 -43.5s-52.167 -14.5 -81.5 -14.5c-30 0 -57.333 5 -82 15s-45.667 24.333 -63 43s-30.666 40.667 -39.999 66s-14 53.666 -14 84.999v319h176v-277c0 -25.333 6.66699 -46.5 20 -63.5s33 -25.5 59 -25.5
c24 0 44 8.33301 60 25s24 40 24 70v271h176v-518h-173zM136.999 564.001v157h286v-157h-286z" />
    <glyph glyph-name="Ubreve" unicode="&#x16c;" horiz-adv-x="667" 
d="M334 -12c-50 0 -93.832 7.16699 -131.499 21.5s-69.334 34.5 -95.001 60.5s-45 56.833 -58 92.5s-19.5 75.167 -19.5 118.5v404h197v-381c0 -46 8.5 -80.333 25.5 -103s44.167 -34 81.5 -34c36.667 0 63.5 11.333 80.5 34s25.5 57 25.5 103v381h197v-404
c0 -43.333 -6.5 -82.833 -19.5 -118.5s-32.167 -66.5 -57.5 -92.5s-56.833 -46.167 -94.5 -60.5s-81.5 -21.5 -131.5 -21.5zM333.001 727c-20.667 0 -39.3281 2 -55.9951 6s-31.167 9 -43.5 15s-22.833 12.167 -31.5 18.5s-15.334 12.166 -20.001 17.499v116
c15.333 -8.66699 35.666 -17 60.999 -25s55.333 -12 90 -12s64.667 4 90 12s45.666 16.333 60.999 25v-116c-4.66699 -5.33301 -11.334 -11.166 -20.001 -17.499s-19.167 -12.5 -31.5 -18.5s-26.833 -11 -43.5 -15s-35.334 -6 -56.001 -6z" />
    <glyph glyph-name="ubreve" unicode="&#x16d;" 
d="M364 0l-0.000976562 48.001c-16 -19.333 -36.5 -33.833 -61.5 -43.5s-52.167 -14.5 -81.5 -14.5c-30 0 -57.333 5 -82 15s-45.667 24.333 -63 43s-30.666 40.667 -39.999 66s-14 53.666 -14 84.999v319h176v-277c0 -25.333 6.66699 -46.5 20 -63.5s33 -25.5 59 -25.5
c24 0 44 8.33301 60 25s24 40 24 70v271h176v-518h-173zM279.999 560.001c-20.667 0 -39.3281 2 -55.9951 6s-31.167 9 -43.5 15s-22.833 12.167 -31.5 18.5s-15.334 12.166 -20.001 17.499v116c15.333 -8.66699 35.666 -17 60.999 -25s55.333 -12 90 -12s64.667 4 90 12
s45.666 16.333 60.999 25v-116c-4.66699 -5.33301 -11.334 -11.166 -20.001 -17.499s-19.167 -12.5 -31.5 -18.5s-26.833 -11 -43.5 -15s-35.334 -6 -56.001 -6z" />
    <glyph glyph-name="Uring" unicode="&#x16e;" horiz-adv-x="667" 
d="M334 -12c-50 0 -93.832 7.16699 -131.499 21.5s-69.334 34.5 -95.001 60.5s-45 56.833 -58 92.5s-19.5 75.167 -19.5 118.5v404h197v-381c0 -46 8.5 -80.333 25.5 -103s44.167 -34 81.5 -34c36.667 0 63.5 11.333 80.5 34s25.5 57 25.5 103v381h197v-404
c0 -43.333 -6.5 -82.833 -19.5 -118.5s-32.167 -66.5 -57.5 -92.5s-56.833 -46.167 -94.5 -60.5s-81.5 -21.5 -131.5 -21.5zM333.001 936c14.667 0 28.666 -2.66699 41.999 -8s25 -13 35 -23s18 -21.667 24 -35s9 -28 9 -44s-2.83301 -30.667 -8.5 -44s-13.5 -25 -23.5 -35
s-21.667 -17.667 -35 -23s-27.666 -8 -42.999 -8c-14.667 0 -28.667 2.66699 -42 8s-25 13 -35 23s-18 21.667 -24 35s-9 28 -9 44s3 30.667 9 44s14 25 24 35s21.667 17.667 35 23s27.333 8 42 8zM333 861c-8.66699 0 -16.167 -3.16699 -22.5 -9.5s-9.5 -14.833 -9.5 -25.5
s3.16699 -19.167 9.5 -25.5s13.833 -9.5 22.5 -9.5c9.33301 0 17 3.16699 23 9.5s9 14.833 9 25.5s-3 19.167 -9 25.5s-13.667 9.5 -23 9.5z" />
    <glyph glyph-name="uring" unicode="&#x16f;" 
d="M364 0l-0.000976562 48.001c-16 -19.333 -36.5 -33.833 -61.5 -43.5s-52.167 -14.5 -81.5 -14.5c-30 0 -57.333 5 -82 15s-45.667 24.333 -63 43s-30.666 40.667 -39.999 66s-14 53.666 -14 84.999v319h176v-277c0 -25.333 6.66699 -46.5 20 -63.5s33 -25.5 59 -25.5
c24 0 44 8.33301 60 25s24 40 24 70v271h176v-518h-173zM279.999 769.001c14.667 0 28.666 -2.66699 41.999 -8s25 -13 35 -23s18 -21.667 24 -35s9 -28 9 -44s-2.83301 -30.667 -8.5 -44s-13.5 -25 -23.5 -35s-21.667 -17.667 -35 -23s-27.666 -8 -42.999 -8
c-14.667 0 -28.667 2.66699 -42 8s-25 13 -35 23s-18 21.667 -24 35s-9 28 -9 44s3 30.667 9 44s14 25 24 35s21.667 17.667 35 23s27.333 8 42 8zM279.998 694.001c-8.66699 0 -16.167 -3.16699 -22.5 -9.5s-9.5 -14.833 -9.5 -25.5s3.16699 -19.167 9.5 -25.5
s13.833 -9.5 22.5 -9.5c9.33301 0 17 3.16699 23 9.5s9 14.833 9 25.5s-3 19.167 -9 25.5s-13.667 9.5 -23 9.5z" />
    <glyph glyph-name="Uhungarumlaut" unicode="&#x170;" horiz-adv-x="667" 
d="M334 -12c-50 0 -93.832 7.16699 -131.499 21.5s-69.334 34.5 -95.001 60.5s-45 56.833 -58 92.5s-19.5 75.167 -19.5 118.5v404h197v-381c0 -46 8.5 -80.333 25.5 -103s44.167 -34 81.5 -34c36.667 0 63.5 11.333 80.5 34s25.5 57 25.5 103v381h197v-404
c0 -43.333 -6.5 -82.833 -19.5 -118.5s-32.167 -66.5 -57.5 -92.5s-56.833 -46.167 -94.5 -60.5s-81.5 -21.5 -131.5 -21.5zM145.001 725l50 147h172l-54 -147h-168zM351.001 725l53 147h173l-57 -147h-169z" />
    <glyph glyph-name="uhungarumlaut" unicode="&#x171;" 
d="M364 0l-0.000976562 48.001c-16 -19.333 -36.5 -33.833 -61.5 -43.5s-52.167 -14.5 -81.5 -14.5c-30 0 -57.333 5 -82 15s-45.667 24.333 -63 43s-30.666 40.667 -39.999 66s-14 53.666 -14 84.999v319h176v-277c0 -25.333 6.66699 -46.5 20 -63.5s33 -25.5 59 -25.5
c24 0 44 8.33301 60 25s24 40 24 70v271h176v-518h-173zM91.999 558.001l50 147h172l-54 -147h-168zM297.999 558.001l53 147h173l-57 -147h-169z" />
    <glyph glyph-name="Uogonek" unicode="&#x172;" horiz-adv-x="667" 
d="M401 -186c-32 0 -57.1641 8.50098 -75.4971 25.501s-27.5 38.167 -27.5 63.5c0 17.333 4.16699 33.5 12.5 48.5s19.166 27.167 32.499 36.5h-9c-50 0 -93.833 7.16699 -131.5 21.5s-69.334 34.5 -95.001 60.5s-45 56.833 -58 92.5s-19.5 75.167 -19.5 118.5v404h197v-381
c0 -46 8.5 -80.333 25.5 -103s44.167 -34 81.5 -34c36.667 0 63.5 11.333 80.5 34s25.5 57 25.5 103v381h197v-404c0 -69.333 -16.833 -129 -50.5 -179s-83.5 -83.667 -149.5 -101v-1c-15.333 -9.33301 -26.333 -20.333 -33 -33s-10 -25 -10 -37c0 -22 11.333 -33 34 -33
c11.333 0 20.666 1 27.999 3c4 0.666992 7.66699 1.66699 11 3v-71c-4.66699 -3.33301 -10.334 -6.33301 -17.001 -9c-5.33301 -2.66699 -12.166 -4.83398 -20.499 -6.50098s-17.833 -2.5 -28.5 -2.5z" />
    <glyph glyph-name="uogonek" unicode="&#x173;" 
d="M532 -168c-4.66699 -3.33301 -10.333 -6.33008 -17 -8.99707c-5.33301 -2.66699 -12.166 -4.83398 -20.499 -6.50098s-17.833 -2.5 -28.5 -2.5c-32 0 -57.167 8.5 -75.5 25.5s-27.5 38.167 -27.5 63.5c0 21.333 6.16699 40.666 18.5 57.999s28.166 30.333 47.499 39h-65
v48c-16 -19.333 -36.5 -33.833 -61.5 -43.5s-52.167 -14.5 -81.5 -14.5c-30 0 -57.333 5 -82 15s-45.667 24.333 -63 43s-30.666 40.667 -39.999 66s-14 53.666 -14 84.999v319h176v-277c0 -25.333 6.66699 -46.5 20 -63.5s33 -25.5 59 -25.5c24 0 44 8.33301 60 25
s24 40 24 70v271h176v-518h-35c-15.333 -9.33301 -26.333 -20.333 -33 -33s-10 -25 -10 -37c0 -22 11.333 -33 34 -33c11.333 0 20.666 1 27.999 3c4 0.666992 7.66699 1.66699 11 3v-71z" />
    <glyph glyph-name="Wcircumflex" unicode="&#x174;" horiz-adv-x="976" 
d="M487 353l-99 -353h-227l-156 685h209l79 -422l120 422h158l120 -423l82 423h198l-154 -685h-228zM644 718l-156 23l-156 -23v108l156 44l156 -44v-108z" />
    <glyph glyph-name="wcircumflex" unicode="&#x175;" horiz-adv-x="806" 
d="M402 260l-59 -260h-198l-140 518h180l67 -304l76 304h155l76 -304l67 304h175l-140 -518h-200zM559 551l-156 23l-156 -23v108l156 44l156 -44v-108z" />
    <glyph glyph-name="Ycircumflex" unicode="&#x176;" horiz-adv-x="678" 
d="M239 0v249l-237 436h214l123 -258l126 258h208l-237 -439v-246h-197zM497 718l-156 23l-156 -23v108l156 44l156 -44v-108z" />
    <glyph glyph-name="ycircumflex" unicode="&#x177;" horiz-adv-x="557" 
d="M367 -15c-12 -34.667 -25.665 -63.332 -40.998 -85.999s-32.833 -40.5 -52.5 -53.5s-41.5 -22 -65.5 -27s-50.333 -7.5 -79 -7.5h-60v157h55c17.333 0 32.166 4.16699 44.499 12.5s20.166 21.166 23.499 38.499l-187 499h196l80 -267l82 267h189zM434.002 551.002
l-156 23l-156 -23v108l156 44l156 -44v-108z" />
    <glyph glyph-name="Ydieresis" unicode="&#x178;" horiz-adv-x="678" 
d="M239 0v249l-237 436h214l123 -258l126 258h208l-237 -439v-246h-197zM167 729v133h158v-133h-158zM357 729v133h158v-133h-158z" />
    <glyph glyph-name="Zacute" unicode="&#x179;" horiz-adv-x="550" 
d="M258 169h281v-169h-524v154l278 362h-283v169h530v-158zM152 720v155l252 54v-157z" />
    <glyph glyph-name="zacute" unicode="&#x17a;" horiz-adv-x="479" 
d="M257 150h201v-150h-437v128l206 238h-214v152h450v-131zM116 553v155l252 54v-157z" />
    <glyph glyph-name="Zdotaccent" unicode="&#x17b;" horiz-adv-x="550" 
d="M258 169h281v-169h-524v154l278 362h-283v169h530v-158zM185 729v133h178v-133h-178z" />
    <glyph glyph-name="zdotaccent" unicode="&#x17c;" horiz-adv-x="479" 
d="M257 150h201v-150h-437v128l206 238h-214v152h450v-131zM149 562v133h178v-133h-178z" />
    <glyph glyph-name="Zcaron" unicode="&#x17d;" horiz-adv-x="550" 
d="M258 169h281v-169h-524v154l278 362h-283v169h530v-158zM275 726l-156 43v109l156 -23l156 23v-109z" />
    <glyph glyph-name="zcaron" unicode="&#x17e;" horiz-adv-x="479" 
d="M257 150h201v-150h-437v128l206 238h-214v152h450v-131zM239 559l-156 43v109l156 -23l156 23v-109z" />
    <glyph glyph-name="uni0192" unicode="&#x192;" horiz-adv-x="399" 
d="M331 570c-20 0 -34.665 -4.66699 -43.998 -14s-14 -22 -14 -38v-1h106v-152h-106v-309c0 -84 -20.333 -144.667 -61 -182s-104.334 -56 -191.001 -56v152c31.333 0 52.666 6.16699 63.999 18.5s17 32.833 17 61.5v315h-82v152h82v3c0 56 16.833 100.833 50.5 134.5
s86.5 50.5 158.5 50.5h69v-135h-49z" />
    <glyph glyph-name="uni0218" unicode="&#x218;" horiz-adv-x="604" 
d="M302 -13c-89.333 0 -158.333 19.8281 -207 59.4951s-75.667 96.834 -81 171.501h195c0.666992 -10 2.83398 -19.5 6.50098 -28.5s9.16699 -17.167 16.5 -24.5s17.166 -13.166 29.499 -17.499s27.5 -6.5 45.5 -6.5c24 0 43.167 3.83301 57.5 11.5s21.5 19.167 21.5 34.5
s-9.5 27 -28.5 35s-43.167 15.667 -72.5 23c-27.333 6.66699 -56.333 14.334 -87 23.001s-59 21.167 -85 37.5s-47.667 37.833 -65 64.5s-26 61.667 -26 105c0 34 6.33301 64.667 19 92s30.5 50.666 53.5 69.999s51 34.333 84 45s69.5 16 109.5 16
c85.333 0 152 -21.167 200 -63.5s74.667 -100.166 80 -173.499h-192c-0.666992 8.66699 -2.16699 17.667 -4.5 27s-6.66602 17.833 -12.999 25.5s-15.333 14 -27 19s-27.167 7.5 -46.5 7.5c-24 0 -41.5 -4.5 -52.5 -13.5s-16.5 -19.5 -16.5 -31.5
c0 -10.667 3.16699 -19.667 9.5 -27s15.166 -13.666 26.499 -18.999s24.333 -9.83301 39 -13.5l48 -11.5c26.667 -6 54.5 -13 83.5 -21s55.5 -19.667 79.5 -35s43.667 -35.666 59 -60.999s23 -58.333 23 -99c0 -31.333 -6 -60.5 -18 -87.5s-30 -50.333 -54 -70
s-53.5 -35.167 -88.5 -46.5s-75.5 -17 -121.5 -17zM337 -231.005h-115l37 69h-37v128h161v-96z" />
    <glyph glyph-name="uni0219" unicode="&#x219;" horiz-adv-x="484" 
d="M173 160c0.666992 -15.333 6.50098 -28 17.501 -38s29.167 -15 54.5 -15c18 0 31.167 3 39.5 9s12.5 13.667 12.5 23c0 12.667 -8.33301 21.334 -25 26.001s-36.667 9.33398 -60 14.001c-21.333 4 -43.666 8.83301 -66.999 14.5s-44.666 14.667 -63.999 27
s-35.5 29 -48.5 50s-19.5 49.167 -19.5 84.5c0 24.667 5 47.5 15 68.5s24.5 39.167 43.5 54.5s42 27.333 69 36s57.5 13 91.5 13c68 0 122 -15.333 162 -46s62 -74.334 66 -131.001h-168c-0.666992 15.333 -4.83398 27.666 -12.501 36.999s-23.167 14 -46.5 14
c-33.333 0 -50 -11 -50 -33c0 -13.333 8.16699 -22.833 24.5 -28.5s36.166 -10.834 59.499 -15.501c21.333 -4 44.166 -8.83301 68.499 -14.5s46.666 -14 66.999 -25s37.333 -26 51 -45s20.5 -44.167 20.5 -75.5c0 -30 -5.83301 -56 -17.5 -78s-27.667 -40.333 -48 -55
s-44.666 -25.667 -72.999 -33s-59.5 -11 -93.5 -11c-37.333 0 -70.5 4.33301 -99.5 13s-53.5 20.834 -73.5 36.501s-35.333 34 -46 55s-16 43.833 -16 68.5h166zM277.001 -231h-115l37 69h-37v128h161v-96z" />
    <glyph glyph-name="uni021A" unicode="&#x21a;" horiz-adv-x="607" 
d="M205 0v511h-190v174h577v-174h-190v-511h-197zM338 -231h-115l37 69h-37v128h161v-96z" />
    <glyph glyph-name="uni021B" unicode="&#x21b;" horiz-adv-x="405" 
d="M386 518v-157.001h-117v-152c0 -21.333 4.5 -36.833 13.5 -46.5s23.167 -14.5 42.5 -14.5h61v-148h-99c-68.667 0 -118.167 14.833 -148.5 44.5s-45.5 76.834 -45.5 141.501v175h-73v157h73v127h176v-127h117zM274 -231.001h-115l37 69h-37v128h161v-96z" />
    <glyph glyph-name="uni0237" unicode="&#x237;" horiz-adv-x="224" 
d="M200 29c0 -78.667 -19.167 -135.501 -57.5 -170.501s-99.5 -52.167 -183.5 -51.5v156c26 0 43.333 5.33301 52 16s13 28.334 13 53.001v486h176v-489z" />
    <glyph glyph-name="circumflex" unicode="&#x2c6;" horiz-adv-x="400" 
d="M356 551l-156 23l-156 -23v108l156 44l156 -44v-108z" />
    <glyph glyph-name="caron" unicode="&#x2c7;" horiz-adv-x="400" 
d="M200 559l-156 43v109l156 -23l156 23v-109z" />
    <glyph glyph-name="breve" unicode="&#x2d8;" horiz-adv-x="400" 
d="M200 560c-20.667 0 -39.3281 2 -55.9951 6s-31.167 9 -43.5 15s-22.833 12.167 -31.5 18.5s-15.334 12.166 -20.001 17.499v116c15.333 -8.66699 35.666 -17 60.999 -25s55.333 -12 90 -12s64.667 4 90 12s45.666 16.333 60.999 25v-116
c-4.66699 -5.33301 -11.334 -11.166 -20.001 -17.499s-19.167 -12.5 -31.5 -18.5s-26.833 -11 -43.5 -15s-35.334 -6 -56.001 -6z" />
    <glyph glyph-name="dotaccent" unicode="&#x2d9;" horiz-adv-x="400" 
d="M110 562v133h178v-133h-178z" />
    <glyph glyph-name="ring" unicode="&#x2da;" horiz-adv-x="400" 
d="M200 769c14.667 0 28.666 -2.66699 41.999 -8s25 -13 35 -23s18 -21.667 24 -35s9 -28 9 -44s-2.83301 -30.667 -8.5 -44s-13.5 -25 -23.5 -35s-21.667 -17.667 -35 -23s-27.666 -8 -42.999 -8c-14.667 0 -28.667 2.66699 -42 8s-25 13 -35 23s-18 21.667 -24 35
s-9 28 -9 44s3 30.667 9 44s14 25 24 35s21.667 17.667 35 23s27.333 8 42 8zM199.999 694c-8.66699 0 -16.167 -3.16699 -22.5 -9.5s-9.5 -14.833 -9.5 -25.5s3.16699 -19.167 9.5 -25.5s13.833 -9.5 22.5 -9.5c9.33301 0 17 3.16699 23 9.5s9 14.833 9 25.5
s-3 19.167 -9 25.5s-13.667 9.5 -23 9.5z" />
    <glyph glyph-name="ogonek" unicode="&#x2db;" horiz-adv-x="400" 
d="M259 0c-15.333 -9.33301 -26.332 -20.333 -32.999 -33s-10 -25 -10 -37c0 -22 11.333 -33 34 -33c11.333 0 20.666 1 27.999 3c4 0.666992 7.66699 1.66699 11 3v-71c-4.66699 -3.33301 -10.334 -6.33301 -17.001 -9
c-5.33301 -2.66699 -12.166 -4.83398 -20.499 -6.50098s-17.833 -2.5 -28.5 -2.5c-32 0 -57.167 8.5 -75.5 25.5s-27.5 38.167 -27.5 63.5c0 24 7.5 45.333 22.5 64s34.167 31.334 57.5 38.001l45 13z" />
    <glyph glyph-name="tilde" unicode="&#x2dc;" horiz-adv-x="400" 
d="M260 561c-14.667 0 -28.167 1.5 -40.5 4.5s-24.166 6.33301 -35.499 10s-22.5 7 -33.5 10s-22.5 4.5 -34.5 4.5c-13.333 0 -26.333 -2.16699 -39 -6.5s-23.667 -9.5 -33 -15.5v112c9.33301 11.333 22.5 21.833 39.5 31.5s36.167 14.5 57.5 14.5
c14.667 0 28.167 -1.66699 40.5 -5s24.166 -6.83301 35.499 -10.5l33.5 -10.5c11 -3.33301 22.5 -5 34.5 -5c13.333 0 26.333 2.16699 39 6.5s23.667 9.5 33 15.5v-110c-9.33301 -11.333 -22.5 -21.833 -39.5 -31.5s-36.167 -14.5 -57.5 -14.5z" />
    <glyph glyph-name="hungarumlaut" unicode="&#x2dd;" horiz-adv-x="400" 
d="M12 558l50 147h172l-54 -147h-168zM218 558l53 147h173l-57 -147h-169z" />
    <glyph glyph-name="uni04D9" unicode="&#x4d9;" horiz-adv-x="571" 
d="M37 414c10.667 15.333 23.502 29.9971 38.502 43.9971s32.167 26.333 51.5 37s41 19.167 65 25.5s50.333 9.5 79 9.5c40 0 77.333 -6.83301 112 -20.5s64.667 -32.5 90 -56.5s45.166 -52.667 59.499 -86s21.5 -69.666 21.5 -108.999c0 -38 -7.16699 -73.5 -21.5 -106.5
s-34 -61.667 -59 -86s-54.5 -43.5 -88.5 -57.5s-70.333 -21 -109 -21s-74 6.83301 -106 20.5s-59.333 32.334 -82 56.001s-40.334 51.834 -53.001 84.501s-19 68 -19 106v8.5v16.5c0 6 0.166992 12 0.5 18s0.5 10 0.5 12h365c-9.33301 24 -23.833 43 -43.5 57
s-42.5 21 -68.5 21c-25.333 0 -47.5 -5.33301 -66.5 -16s-34.833 -23.667 -47.5 -39zM280.002 125.997c24.667 0 45.166 5.83301 61.499 17.5s28.833 27.5 37.5 47.5h-191c8.66699 -24.667 21.834 -41.667 39.501 -51s35.167 -14 52.5 -14z" />
    <glyph glyph-name="Wgrave" unicode="&#x1e80;" horiz-adv-x="976" 
d="M487 353l-99 -353h-227l-156 685h209l79 -422l120 422h158l120 -423l82 423h198l-154 -685h-228zM607 710l-252 52v157l252 -54v-155z" />
    <glyph glyph-name="wgrave" unicode="&#x1e81;" horiz-adv-x="806" 
d="M402 260l-59 -260h-198l-140 518h180l67 -304l76 304h155l76 -304l67 304h175l-140 -518h-200zM522 543l-252 52v157l252 -54v-155z" />
    <glyph glyph-name="Wacute" unicode="&#x1e82;" horiz-adv-x="976" 
d="M487 353l-99 -353h-227l-156 685h209l79 -422l120 422h158l120 -423l82 423h198l-154 -685h-228zM365 720v155l252 54v-157z" />
    <glyph glyph-name="wacute" unicode="&#x1e83;" horiz-adv-x="806" 
d="M402 260l-59 -260h-198l-140 518h180l67 -304l76 304h155l76 -304l67 304h175l-140 -518h-200zM280 553v155l252 54v-157z" />
    <glyph glyph-name="Wdieresis" unicode="&#x1e84;" horiz-adv-x="976" 
d="M487 353l-99 -353h-227l-156 685h209l79 -422l120 422h158l120 -423l82 423h198l-154 -685h-228zM314 729v133h158v-133h-158zM504 729v133h158v-133h-158z" />
    <glyph glyph-name="wdieresis" unicode="&#x1e85;" horiz-adv-x="806" 
d="M402 260l-59 -260h-198l-140 518h180l67 -304l76 304h155l76 -304l67 304h175l-140 -518h-200zM229 562v133h158v-133h-158zM419 562v133h158v-133h-158z" />
    <glyph glyph-name="Ygrave" unicode="&#x1ef2;" horiz-adv-x="678" 
d="M239 0v249l-237 436h214l123 -258l126 258h208l-237 -439v-246h-197zM459 710l-252 52v157l252 -54v-155z" />
    <glyph glyph-name="ygrave" unicode="&#x1ef3;" horiz-adv-x="557" 
d="M367 -15c-12 -34.667 -25.665 -63.332 -40.998 -85.999s-32.833 -40.5 -52.5 -53.5s-41.5 -22 -65.5 -27s-50.333 -7.5 -79 -7.5h-60v157h55c17.333 0 32.166 4.16699 44.499 12.5s20.166 21.166 23.499 38.499l-187 499h196l80 -267l82 267h189zM397.002 543.002
l-252 52v157l252 -54v-155z" />
    <glyph glyph-name="uni2002" unicode="&#x2002;" horiz-adv-x="500" 
 />
    <glyph glyph-name="uni2003" unicode="&#x2003;" horiz-adv-x="1000" 
 />
    <glyph glyph-name="uni2008" unicode="&#x2008;" horiz-adv-x="150" 
 />
    <glyph glyph-name="uni2009" unicode="&#x2009;" horiz-adv-x="0" 
 />
    <glyph glyph-name="uni2010" unicode="&#x2010;" horiz-adv-x="100" 
 />
    <glyph glyph-name="figuredash" unicode="&#x2012;" horiz-adv-x="440" 
d="M13 203v166h414v-166h-414z" />
    <glyph glyph-name="endash" unicode="&#x2013;" horiz-adv-x="440" 
d="M13 201v168h414v-168h-414z" />
    <glyph glyph-name="emdash" unicode="&#x2014;" horiz-adv-x="836" 
d="M13 201v166h810v-166h-810z" />
    <glyph glyph-name="quoteleft" unicode="&#x2018;" horiz-adv-x="230" 
d="M85 685h121l-49 -106h49v-181h-183v150z" />
    <glyph glyph-name="quoteright" unicode="&#x2019;" horiz-adv-x="230" 
d="M144 398h-121l49 106h-49v181h183v-150z" />
    <glyph glyph-name="quotesinglbase" unicode="&#x201a;" horiz-adv-x="230" 
d="M144 -106h-121l49 106h-49v181h183v-150z" />
    <glyph glyph-name="quotedblleft" unicode="&#x201c;" horiz-adv-x="431" 
d="M295 685h116l-49 -106h49v-181h-178v150zM85 685h116l-49 -106h49v-181h-178v150z" />
    <glyph glyph-name="quotedblright" unicode="&#x201d;" horiz-adv-x="424" 
d="M139 398h-116l49 106h-49v181h178v-150zM349 398h-116l49 106h-49v181h178v-150z" />
    <glyph glyph-name="quotedblbase" unicode="&#x201e;" horiz-adv-x="435" 
d="M139 -106h-116l49 106h-49v181h178v-150zM349 -106h-116l49 106h-49v181h178v-150z" />
    <glyph glyph-name="dagger" unicode="&#x2020;" horiz-adv-x="373" 
d="M363 468v-162h-89v-449h-174v449h-90v162h90v162h174v-162h89z" />
    <glyph glyph-name="daggerdbl" unicode="&#x2021;" horiz-adv-x="373" 
d="M363 471v-163h-89v-123h89v-162h-89v-166h-174v166h-90v162h90v123h-90v163h90v159h174v-159h89z" />
    <glyph glyph-name="bullet" unicode="&#x2022;" horiz-adv-x="286" 
d="M143 398c16 0 30.833 -2.83301 44.5 -8.5s25.667 -13.5 36 -23.5s18.333 -21.833 24 -35.5s8.5 -28.5 8.5 -44.5s-2.83301 -30.833 -8.5 -44.5s-13.667 -25.5 -24 -35.5s-22.333 -17.833 -36 -23.5s-28.5 -8.5 -44.5 -8.5s-30.833 2.83301 -44.5 8.5
s-25.667 13.5 -36 23.5s-18.333 21.833 -24 35.5s-8.5 28.5 -8.5 44.5s2.83301 30.833 8.5 44.5s13.667 25.5 24 35.5s22.333 17.833 36 23.5s28.5 8.5 44.5 8.5z" />
    <glyph glyph-name="ellipsis" unicode="&#x2026;" horiz-adv-x="690" 
d="M23 0v181h183v-181h-183zM253 0v181h183v-181h-183zM483 0v181h183v-181h-183z" />
    <glyph glyph-name="guilsinglleft" unicode="&#x2039;" horiz-adv-x="330" 
d="M324 53h-178l-139 233l139 238h178l-140 -238z" />
    <glyph glyph-name="guilsinglright" unicode="&#x203a;" horiz-adv-x="330" 
d="M7 524h177l140 -238l-140 -233h-177l139 233z" />
    <glyph glyph-name="fraction" unicode="&#x2044;" horiz-adv-x="20" 
d="M-203 0l304 685h146l-304 -685h-146z" />
    <glyph glyph-name="Euro" unicode="&#x20ac;" horiz-adv-x="594" 
d="M253 209c5.33301 -18.667 17.002 -32.8311 35.002 -42.498s39 -14.5 63 -14.5c25.333 0 46.833 5.83301 64.5 17.5s30.5 27.5 38.5 47.5l140 -93c-23.333 -42 -55.833 -75 -97.5 -99s-90.167 -36 -145.5 -36c-82.667 0 -148.334 20.167 -197.001 60.5
s-78.334 93.5 -89.001 159.5h-60v115h59v37h-59v115h60c4 31.333 13.333 60.666 28 87.999s34.334 51 59.001 71s53.667 35.667 87 47s70.666 17 111.999 17c57.333 0 105.833 -12.167 145.5 -36.5s70.834 -57.5 93.501 -99.5l-143 -91
c-9.33301 19.333 -22.333 34.833 -39 46.5s-35.667 17.5 -57 17.5c-25.333 0 -46.833 -5.33301 -64.5 -16s-28.834 -25.334 -33.501 -44.001h109v-115h-115v-37h115v-115h-109z" />
    <glyph glyph-name="trademark" unicode="&#x2122;" horiz-adv-x="919" 
d="M279 597v-116h-79v-97c0 -29.333 13.333 -44 40 -44h39v-109h-65c-51.333 0 -87.833 10.5 -109.5 31.5s-32.5 54.167 -32.5 99.5v119h-52v116h52v89h128v-89h79zM447 567c13.333 10.667 27.334 19.501 42.001 26.501s31.667 10.5 51 10.5c42 0 75.333 -15 100 -45
c13.333 13.333 30 24.166 50 32.499s42.667 12.5 68 12.5c45.333 0 80.5 -13.667 105.5 -41s37.5 -63 37.5 -107v-225h-130v199c0 15.333 -3.5 28.333 -10.5 39s-18.167 16 -33.5 16c-14 0 -25.667 -5.5 -35 -16.5s-14 -26.167 -14 -45.5v-192h-129v199
c0 15.333 -3.5 28.333 -10.5 39s-18.167 16 -33.5 16c-14.667 0 -26.834 -5.5 -36.501 -16.5s-14.5 -26.167 -14.5 -45.5v-192h-128v366h121v-30z" />
    <glyph glyph-name="uni2153" unicode="&#x2153;" horiz-adv-x="751" 
d="M57 294v280h-45v111h166v-391h-121zM663 245c23.333 -8.66699 41.667 -22.332 55 -40.999s20 -41.334 20 -68.001c0 -20 -3.66699 -38.833 -11 -56.5s-17.833 -33 -31.5 -46s-30.5 -23.333 -50.5 -31s-42.667 -11.5 -68 -11.5c-37.333 0 -68.166 8.16699 -92.499 24.5
s-43.166 38.166 -56.499 65.499l93 54c6.66699 -15.333 15.167 -26 25.5 -32s21.166 -9 32.499 -9c13.333 0 23.5 3.83301 30.5 11.5s10.5 16.834 10.5 27.501s-3.83301 19.167 -11.5 25.5s-17.167 9.5 -28.5 9.5c-16.667 0 -30.334 -4.33301 -41.001 -13l-48 77l96 57h-134
v102h259v-115zM97.001 0.00195312l304 685h146l-304 -685h-146z" />
    <glyph glyph-name="uni2154" unicode="&#x2154;" horiz-adv-x="886" 
d="M6 601c16 25.333 37.167 46.832 63.5 64.499s58.5 26.5 96.5 26.5c48 0 84.667 -11.333 110 -34s38 -50.667 38 -84c0 -12 -1.5 -23.667 -4.5 -35s-8.66699 -23.5 -17 -36.5s-20.333 -27.833 -36 -44.5s-36.5 -36.667 -62.5 -60l-4 -4h126v-100h-286v88l114 110
c34 32.667 51 55.334 51 68.001c0 8 -2.66699 14.5 -8 19.5s-13.333 7.5 -24 7.5c-24 0 -44.667 -14 -62 -42zM798 244.999c23.333 -8.66699 41.667 -22.332 55 -40.999s20 -41.334 20 -68.001c0 -20 -3.66699 -38.833 -11 -56.5s-17.833 -33 -31.5 -46
s-30.5 -23.333 -50.5 -31s-42.667 -11.5 -68 -11.5c-37.333 0 -68.166 8.16699 -92.499 24.5s-43.166 38.166 -56.499 65.499l93 54c6.66699 -15.333 15.167 -26 25.5 -32s21.166 -9 32.499 -9c13.333 0 23.5 3.83301 30.5 11.5s10.5 16.834 10.5 27.501
s-3.83301 19.167 -11.5 25.5s-17.167 9.5 -28.5 9.5c-16.667 0 -30.334 -4.33301 -41.001 -13l-48 77l96 57h-134v102h259v-115zM232.001 0.000976562l304 685h146l-304 -685h-146z" />
    <glyph glyph-name="minus" unicode="&#x2212;" horiz-adv-x="440" 
d="M13 203v166h414v-166h-414z" />
    <glyph glyph-name="approxequal" unicode="&#x2248;" horiz-adv-x="440" 
d="M427 336c-8.66699 -8.66699 -18.668 -16.668 -30.001 -24.001c-9.33301 -6 -20.833 -11.5 -34.5 -16.5s-28.5 -7.5 -44.5 -7.5c-21.333 0 -40.833 1.83301 -58.5 5.5s-34.5 7.5 -50.5 11.5l-48 11.5c-16 3.66699 -32.333 5.5 -49 5.5c-12 0 -24 -1.83301 -36 -5.5
s-22.667 -7.5 -32 -11.5c-11.333 -5.33301 -21.666 -11 -30.999 -17v150c10.667 7.33301 22 14.333 34 21c10.667 5.33301 23.334 10.333 38.001 15s31.334 7 50.001 7c20 0 38.5 -1.83301 55.5 -5.5s33.333 -7.5 49 -11.5l46 -11.5c15 -3.66699 30.5 -5.5 46.5 -5.5
c11.333 0 22.666 1.66699 33.999 5s21.666 7.33301 30.999 12c10.667 4.66699 20.667 10.334 30 17.001v-145zM426.999 130.999c-10 -8 -21.3311 -15.335 -33.998 -22.002c-11.333 -5.33301 -24.5 -10.166 -39.5 -14.499s-31.833 -6.5 -50.5 -6.5
c-20 0 -38.333 1.83301 -55 5.5s-32.834 7.5 -48.501 11.5l-46 11.5c-15 3.66699 -30.5 5.5 -46.5 5.5c-11.333 0 -22.5 -1.83301 -33.5 -5.5s-21.167 -7.5 -30.5 -11.5c-10.667 -5.33301 -20.667 -11 -30 -17v145c8 8.66699 17.667 16.667 29 24
c9.33301 6 20.666 11.5 33.999 16.5s28 7.5 44 7.5c21.333 0 40.833 -1.83301 58.5 -5.5s34.667 -7.5 51 -11.5l48 -11.5c15.667 -3.66699 32.167 -5.5 49.5 -5.5c12 0 24 1.66699 36 5s22.667 7.33301 32 12c11.333 4.66699 22 10.334 32 17.001v-150z" />
    <glyph glyph-name="notequal" unicode="&#x2260;" horiz-adv-x="440" 
d="M427 474v-166h-137l-12 -45h149v-166h-193l-27 -105h-128l27 105h-93v166h137l12 45h-149v166h192l27 104h128l-27 -104h94z" />
    <glyph glyph-name="lessequal" unicode="&#x2264;" horiz-adv-x="440" 
d="M250 371l177 -36v-163l-414 134v127l414 133v-156zM13 0v153h414v-153h-414z" />
    <glyph glyph-name="greaterequal" unicode="&#x2265;" horiz-adv-x="440" 
d="M427 305l-414 -133v156l177 39l-177 36v163l414 -134v-127zM13 0v153h414v-153h-414z" />
    <glyph glyph-name="uniE001" unicode="&#xe001;" horiz-adv-x="703" 
d="M473 486l-121 -227h121v227zM473 100h-206l-53 -100h-214l390 685h278v-685h-195v100z" />
    <glyph glyph-name="uniE002" unicode="&#xe002;" horiz-adv-x="703" 
d="M222 486v-227h121zM428 100h-206v-100h-187v685h278l390 -685h-222z" />
    <glyph glyph-name="uniE006" unicode="&#xe006;" horiz-adv-x="1035" 
d="M413 401l-199 -401h-214l355 685h229v-341l179 341h237v-685h-195v400l-214 -400h-178v401z" />
    <glyph glyph-name="uniE007" unicode="&#xe007;" horiz-adv-x="1035" 
d="M225 400v-400h-190v685h237l179 -341v341h229l355 -685h-219l-199 401v-401h-178z" />
    <glyph glyph-name="uniE008" unicode="&#xe008;" horiz-adv-x="703" 
d="M0 685h222l259 -486v486h187v-685h-278z" />
    <glyph glyph-name="uniE009" unicode="&#xe009;" horiz-adv-x="703" 
d="M35 685h195v-486l259 486h214l-390 -685h-278v685z" />
    <glyph glyph-name="uniE00A" unicode="&#xe00a;" horiz-adv-x="1035" 
d="M588 341v-341h-233l-355 685h219l203 -410v410h178l210 -392v392h190v-685h-233z" />
    <glyph glyph-name="uniE00B" unicode="&#xe00b;" horiz-adv-x="1035" 
d="M447 341l-179 -341h-233v685h195v-392l210 392h178v-410l203 410h214l-355 -685h-233v341z" />
    <glyph glyph-name="uniE00C" unicode="&#xe00c;" horiz-adv-x="700" 
d="M226 359v-359h-191v685h223l216 -366v366h191v-685h-223zM150 750h-115l37 69h-37v128h161v-96z" />
    <glyph glyph-name="uniE00E" unicode="&#xe00e;" horiz-adv-x="549" 
d="M24 685h177v-345l118 178h219l-157 -204l154 -314h-208l-78 175l-48 -60v-115h-177v685z" />
    <glyph glyph-name="uniE011" unicode="&#xe011;" horiz-adv-x="627" 
d="M102 0v361h-82v157h82v2c0 28 4.66699 53.667 14 77s22.833 43.5 40.5 60.5s39.667 30.333 66 40s56.5 14.5 90.5 14.5h71v-138h-49c-20 0 -34.5 -5.16699 -43.5 -15.5s-13.5 -23.833 -13.5 -40.5h105v-157h-105v-361h-176zM427 547v138h176v-138h-176zM427 0v518h176
v-518h-176z" />
    <glyph glyph-name="uniE012" unicode="&#xe012;" horiz-adv-x="627" 
d="M102 0v361h-82v157h82v2c0 28 4.66699 53.667 14 77s22.833 43.5 40.5 60.5s39.667 30.333 66 40s56.5 14.5 90.5 14.5h71v-138h-49c-20 0 -34.5 -5.16699 -43.5 -15.5s-13.5 -23.833 -13.5 -40.5h105v-157h-105v-361h-176zM427 0v685h176v-685h-176z" />
    <glyph glyph-name="uniE013" unicode="&#xe013;" horiz-adv-x="591" 
d="M28 444c0 38.667 6.33301 73.5 19 104.5s30.667 57.5 54 79.5s51.5 38.833 84.5 50.5s69.833 17.5 110.5 17.5s77.334 -5.83301 110.001 -17.5s60.667 -28.5 84 -50.5s41.333 -48.5 54 -79.5s19 -65.833 19 -104.5v-205c0 -39.333 -6.33301 -74.5 -19 -105.5
s-30.667 -57.167 -54 -78.5s-51.333 -37.666 -84 -48.999s-69.334 -17 -110.001 -17s-77.5 5.66699 -110.5 17s-61.167 27.666 -84.5 48.999s-41.333 47.5 -54 78.5s-19 66.167 -19 105.5v205zM290 528c-24.667 -1.33301 -44.333 -9.99902 -59 -25.999s-22 -37 -22 -63v-195
v-9c0 -2.66699 0.333008 -5.33398 1 -8.00098zM303.001 157.001c23.333 1.33301 42.333 9.83301 57 25.5s22 36.167 22 61.5v195v9c0 2.66699 -0.333008 5.66699 -1 9z" />
    <glyph glyph-name="uniE014" unicode="&#xe014;" horiz-adv-x="617" 
d="M223 273h116v128h187v-128h65v-162h-65v-111h-187v111h-311v162l237 416h208z" />
    <glyph glyph-name="uniE043" unicode="&#xe043;" horiz-adv-x="341" 
d="M15 250c0 46 14 81.833 42 107.5s66 38.5 114 38.5s85.833 -12.833 113.5 -38.5s41.5 -61.5 41.5 -107.5v-112c0 -47.333 -13.833 -83.166 -41.5 -107.499s-65.5 -36.5 -113.5 -36.5s-86 12.167 -114 36.5s-42 60.166 -42 107.499v112zM212 246
c0 13.333 -3.66699 24 -11 32s-17.333 12 -30 12c-13.333 0 -23.666 -4 -30.999 -12s-11 -18.667 -11 -32v-104c0 -13.333 3.66699 -23.833 11 -31.5s17.666 -11.5 30.999 -11.5c12.667 0 22.667 3.83301 30 11.5s11 18.167 11 31.5v104z" />
    <glyph glyph-name="uniE044" unicode="&#xe044;" horiz-adv-x="195" 
d="M57 0v280h-45v111h166v-391h-121z" />
    <glyph glyph-name="uniE045" unicode="&#xe045;" horiz-adv-x="328" 
d="M6 307c16 25.333 37.167 46.832 63.5 64.499s58.5 26.5 96.5 26.5c48 0 84.667 -11.333 110 -34s38 -50.667 38 -84c0 -12 -1.5 -23.667 -4.5 -35s-8.66699 -23.5 -17 -36.5s-20.333 -27.833 -36 -44.5s-36.5 -36.667 -62.5 -60l-4 -4h126v-100h-286v88l114 110
c34 32.667 51 55.334 51 68.001c0 8 -2.66699 14.5 -8 19.5s-13.333 7.5 -24 7.5c-24 0 -44.667 -14 -62 -42z" />
    <glyph glyph-name="uniE046" unicode="&#xe046;" horiz-adv-x="341" 
d="M253 245c23.333 -8.66699 41.667 -22.332 55 -40.999s20 -41.334 20 -68.001c0 -20 -3.66699 -38.833 -11 -56.5s-17.833 -33 -31.5 -46s-30.5 -23.333 -50.5 -31s-42.667 -11.5 -68 -11.5c-37.333 0 -68.166 8.16699 -92.499 24.5s-43.166 38.166 -56.499 65.499l93 54
c6.66699 -15.333 15.167 -26 25.5 -32s21.166 -9 32.499 -9c13.333 0 23.5 3.83301 30.5 11.5s10.5 16.834 10.5 27.501s-3.83301 19.167 -11.5 25.5s-17.167 9.5 -28.5 9.5c-16.667 0 -30.334 -4.33301 -41.001 -13l-48 77l96 57h-134v102h259v-115z" />
    <glyph glyph-name="uniE047" unicode="&#xe047;" horiz-adv-x="359" 
d="M343 172v-101h-36v-71h-117v71h-174v101l161 221h130v-221h36zM190 172v74l-54 -74h54z" />
    <glyph glyph-name="uniE048" unicode="&#xe048;" horiz-adv-x="341" 
d="M142 291l-4.00098 -29.0029c6.66699 2 14.167 3.83301 22.5 5.5s17.833 2.5 28.5 2.5c18.667 0 36.334 -3 53.001 -9s31.334 -14.5 44.001 -25.5s22.667 -24.5 30 -40.5s11 -34 11 -54c0 -21.333 -3.83301 -41.166 -11.5 -59.499s-18.334 -34.166 -32.001 -47.499
s-30.167 -23.833 -49.5 -31.5s-40.666 -11.5 -63.999 -11.5c-37.333 0 -68.333 7.83301 -93 23.5s-43.667 37.834 -57 66.501l94 51c4 -11.333 10.667 -20.5 20 -27.5s20 -10.5 32 -10.5c11.333 0 21.333 3.83301 30 11.5s13 18.5 13 32.5c0 12 -3.83301 21.833 -11.5 29.5
s-18.834 11.5 -33.501 11.5c-20 0 -34.333 -8 -43 -24l-97 24l37 213h229v-101h-148z" />
    <glyph glyph-name="uniE049" unicode="&#xe049;" horiz-adv-x="323" 
d="M177 275c2.66699 0.666992 6.66504 1.00098 11.998 1.00098c18.667 0 35.834 -3.5 51.501 -10.5s29 -16.667 40 -29s19.667 -26.666 26 -42.999s9.5 -33.833 9.5 -52.5s-3.5 -36.834 -10.5 -54.501s-17 -33.5 -30 -47.5s-28.833 -25.167 -47.5 -33.5s-40 -12.5 -64 -12.5
c-23.333 0 -44.333 3.83301 -63 11.5s-34.667 18.167 -48 31.5s-23.5 29 -30.5 47s-10.5 37.667 -10.5 59c0 15.333 2.33301 31.666 7 48.999s12.334 36 23.001 56l77 145h123zM163.998 184.001c-12 0 -22.167 -4.33301 -30.5 -13s-12.5 -19.334 -12.5 -32.001
s4.16699 -23.5 12.5 -32.5s18.5 -13.5 30.5 -13.5c12.667 0 23 4.5 31 13.5s12 19.833 12 32.5s-4 23.334 -12 32.001s-18.333 13 -31 13z" />
    <glyph glyph-name="uniE04A" unicode="&#xe04a;" horiz-adv-x="322" 
d="M171 0h-139l151 282h-165v109h286v-107z" />
    <glyph glyph-name="uniE04B" unicode="&#xe04b;" horiz-adv-x="339" 
d="M167 396c20 0 37.6621 -2.99707 52.9951 -8.99707s28.333 -14 39 -24s18.834 -21.833 24.501 -35.5s8.5 -27.834 8.5 -42.501c0 -14 -2.66699 -27.167 -8 -39.5s-12.666 -22.833 -21.999 -31.5c12.667 -6.66699 24.334 -18.167 35.001 -34.5s16 -34.833 16 -55.5
c0 -38.667 -12.833 -69.834 -38.5 -93.501s-61.5 -35.5 -107.5 -35.5s-82 12 -108 36s-39 55 -39 93c0 21.333 5.5 40.5 16.5 57.5s22.5 27.833 34.5 32.5c-20 20 -30 43.667 -30 71c0 14.667 2.83301 28.667 8.5 42s13.834 25.166 24.501 35.499s23.834 18.5 39.501 24.5
s33.5 9 53.5 9zM166.995 309.003c-7.33301 0 -14 -2.66699 -20 -8s-9 -12.333 -9 -21c0 -8 3 -14.667 9 -20s12.667 -8 20 -8s13.833 2.66699 19.5 8s8.5 12 8.5 20c0 8.66699 -2.83301 15.667 -8.5 21s-12.167 8 -19.5 8zM166.995 163.003
c-10.667 0 -19.667 -3.5 -27 -10.5s-11 -16.5 -11 -28.5s3.66699 -21.667 11 -29s16.333 -11 27 -11c10 0 18.667 3.66699 26 11s11 17 11 29s-3.66699 21.5 -11 28.5s-16 10.5 -26 10.5z" />
    <glyph glyph-name="uniE04C" unicode="&#xe04c;" horiz-adv-x="323" 
d="M153 114c-2.66699 -0.666992 -6.66797 -1.00195 -12.001 -1.00195c-19.333 0 -36.666 3.66699 -51.999 11s-28.666 17 -39.999 29s-20 26.167 -26 42.5s-9 33.5 -9 51.5c0 18.667 3.33301 37 10 55s16.5 34 29.5 48s28.833 25.167 47.5 33.5s39.667 12.5 63 12.5
s44.5 -3.83301 63.5 -11.5s35.167 -18.167 48.5 -31.5s23.5 -29.166 30.5 -47.499s10.5 -38.166 10.5 -59.499c0 -15.333 -2.33301 -31.5 -7 -48.5s-12.334 -35.5 -23.001 -55.5l-76 -142h-122zM163.999 295.998c-12.667 0 -22.834 -4.66699 -30.501 -14
s-11.5 -20 -11.5 -32c0 -12.667 3.83301 -23.334 11.5 -32.001s17.834 -13 30.501 -13c13.333 0 24.166 4.33301 32.499 13s12.5 19.334 12.5 32.001c0 12 -4.16699 22.667 -12.5 32s-19.166 14 -32.499 14z" />
    <glyph glyph-name="uniE04D" unicode="&#xe04d;" horiz-adv-x="341" 
d="M15 544c0 46 14 81.833 42 107.5s66 38.5 114 38.5s85.833 -12.833 113.5 -38.5s41.5 -61.5 41.5 -107.5v-112c0 -47.333 -13.833 -83.166 -41.5 -107.499s-65.5 -36.5 -113.5 -36.5s-86 12.167 -114 36.5s-42 60.166 -42 107.499v112zM212 540
c0 13.333 -3.66699 24 -11 32s-17.333 12 -30 12c-13.333 0 -23.666 -4 -30.999 -12s-11 -18.667 -11 -32v-104c0 -13.333 3.66699 -23.833 11 -31.5s17.666 -11.5 30.999 -11.5c12.667 0 22.667 3.83301 30 11.5s11 18.167 11 31.5v104z" />
    <glyph glyph-name="uniE04E" unicode="&#xe04e;" horiz-adv-x="195" 
d="M57 294v280h-45v111h166v-391h-121z" />
    <glyph glyph-name="uniE04F" unicode="&#xe04f;" horiz-adv-x="328" 
d="M6 601c16 25.333 37.167 46.832 63.5 64.499s58.5 26.5 96.5 26.5c48 0 84.667 -11.333 110 -34s38 -50.667 38 -84c0 -12 -1.5 -23.667 -4.5 -35s-8.66699 -23.5 -17 -36.5s-20.333 -27.833 -36 -44.5s-36.5 -36.667 -62.5 -60l-4 -4h126v-100h-286v88l114 110
c34 32.667 51 55.334 51 68.001c0 8 -2.66699 14.5 -8 19.5s-13.333 7.5 -24 7.5c-24 0 -44.667 -14 -62 -42z" />
    <glyph glyph-name="uniE050" unicode="&#xe050;" horiz-adv-x="341" 
d="M253 539c23.333 -8.66699 41.667 -22.332 55 -40.999s20 -41.334 20 -68.001c0 -20 -3.66699 -38.833 -11 -56.5s-17.833 -33 -31.5 -46s-30.5 -23.333 -50.5 -31s-42.667 -11.5 -68 -11.5c-37.333 0 -68.166 8.16699 -92.499 24.5s-43.166 38.166 -56.499 65.499l93 54
c6.66699 -15.333 15.167 -26 25.5 -32s21.166 -9 32.499 -9c13.333 0 23.5 3.83301 30.5 11.5s10.5 16.834 10.5 27.501s-3.83301 19.167 -11.5 25.5s-17.167 9.5 -28.5 9.5c-16.667 0 -30.334 -4.33301 -41.001 -13l-48 77l96 57h-134v102h259v-115z" />
    <glyph glyph-name="uniE051" unicode="&#xe051;" horiz-adv-x="359" 
d="M343 466v-101h-36v-71h-117v71h-174v101l161 221h130v-221h36zM190 466v74l-54 -74h54z" />
    <glyph glyph-name="uniE052" unicode="&#xe052;" horiz-adv-x="341" 
d="M142 585l-4.00098 -29.0029c6.66699 2 14.167 3.83301 22.5 5.5s17.833 2.5 28.5 2.5c18.667 0 36.334 -3 53.001 -9s31.334 -14.5 44.001 -25.5s22.667 -24.5 30 -40.5s11 -34 11 -54c0 -21.333 -3.83301 -41.166 -11.5 -59.499s-18.334 -34.166 -32.001 -47.499
s-30.167 -23.833 -49.5 -31.5s-40.666 -11.5 -63.999 -11.5c-37.333 0 -68.333 7.83301 -93 23.5s-43.667 37.834 -57 66.501l94 51c4 -11.333 10.667 -20.5 20 -27.5s20 -10.5 32 -10.5c11.333 0 21.333 3.83301 30 11.5s13 18.5 13 32.5c0 12 -3.83301 21.833 -11.5 29.5
s-18.834 11.5 -33.501 11.5c-20 0 -34.333 -8 -43 -24l-97 24l37 213h229v-101h-148z" />
    <glyph glyph-name="uniE053" unicode="&#xe053;" horiz-adv-x="323" 
d="M177 569c2.66699 0.666992 6.66504 1.00098 11.998 1.00098c18.667 0 35.834 -3.5 51.501 -10.5s29 -16.667 40 -29s19.667 -26.666 26 -42.999s9.5 -33.833 9.5 -52.5s-3.5 -36.834 -10.5 -54.501s-17 -33.5 -30 -47.5s-28.833 -25.167 -47.5 -33.5s-40 -12.5 -64 -12.5
c-23.333 0 -44.333 3.83301 -63 11.5s-34.667 18.167 -48 31.5s-23.5 29 -30.5 47s-10.5 37.667 -10.5 59c0 15.333 2.33301 31.666 7 48.999s12.334 36 23.001 56l77 145h123zM163.998 478.001c-12 0 -22.167 -4.33301 -30.5 -13s-12.5 -19.334 -12.5 -32.001
s4.16699 -23.5 12.5 -32.5s18.5 -13.5 30.5 -13.5c12.667 0 23 4.5 31 13.5s12 19.833 12 32.5s-4 23.334 -12 32.001s-18.333 13 -31 13z" />
    <glyph glyph-name="uniE054" unicode="&#xe054;" horiz-adv-x="322" 
d="M171 294h-139l151 282h-165v109h286v-107z" />
    <glyph glyph-name="uniE055" unicode="&#xe055;" horiz-adv-x="339" 
d="M167 690c20 0 37.6621 -2.99707 52.9951 -8.99707s28.333 -14 39 -24s18.834 -21.833 24.501 -35.5s8.5 -27.834 8.5 -42.501c0 -14 -2.66699 -27.167 -8 -39.5s-12.666 -22.833 -21.999 -31.5c12.667 -6.66699 24.334 -18.167 35.001 -34.5s16 -34.833 16 -55.5
c0 -38.667 -12.833 -69.834 -38.5 -93.501s-61.5 -35.5 -107.5 -35.5s-82 12 -108 36s-39 55 -39 93c0 21.333 5.5 40.5 16.5 57.5s22.5 27.833 34.5 32.5c-20 20 -30 43.667 -30 71c0 14.667 2.83301 28.667 8.5 42s13.834 25.166 24.501 35.499s23.834 18.5 39.501 24.5
s33.5 9 53.5 9zM166.995 603.003c-7.33301 0 -14 -2.66699 -20 -8s-9 -12.333 -9 -21c0 -8 3 -14.667 9 -20s12.667 -8 20 -8s13.833 2.66699 19.5 8s8.5 12 8.5 20c0 8.66699 -2.83301 15.667 -8.5 21s-12.167 8 -19.5 8zM166.995 457.003
c-10.667 0 -19.667 -3.5 -27 -10.5s-11 -16.5 -11 -28.5s3.66699 -21.667 11 -29s16.333 -11 27 -11c10 0 18.667 3.66699 26 11s11 17 11 29s-3.66699 21.5 -11 28.5s-16 10.5 -26 10.5z" />
    <glyph glyph-name="uniE056" unicode="&#xe056;" horiz-adv-x="323" 
d="M153 408c-2.66699 -0.666992 -6.66797 -1.00195 -12.001 -1.00195c-19.333 0 -36.666 3.66699 -51.999 11s-28.666 17 -39.999 29s-20 26.167 -26 42.5s-9 33.5 -9 51.5c0 18.667 3.33301 37 10 55s16.5 34 29.5 48s28.833 25.167 47.5 33.5s39.667 12.5 63 12.5
s44.5 -3.83301 63.5 -11.5s35.167 -18.167 48.5 -31.5s23.5 -29.166 30.5 -47.499s10.5 -38.166 10.5 -59.499c0 -15.333 -2.33301 -31.5 -7 -48.5s-12.334 -35.5 -23.001 -55.5l-76 -142h-122zM163.999 589.998c-12.667 0 -22.834 -4.66699 -30.501 -14
s-11.5 -20 -11.5 -32c0 -12.667 3.83301 -23.334 11.5 -32.001s17.834 -13 30.501 -13c13.333 0 24.166 4.33301 32.499 13s12.5 19.334 12.5 32.001c0 12 -4.16699 22.667 -12.5 32s-19.166 14 -32.499 14z" />
    <glyph glyph-name="commaaccent" unicode="&#xf6c3;" horiz-adv-x="400" 
d="M235 -231h-115l37 69h-37v128h161v-96z" />
    <glyph glyph-name="uniF8FF" unicode="&#xf8ff;" horiz-adv-x="1105" 
d="M859 183h44.9971v-182h-45v12c-16 -10.667 -33.667 -16 -53 -16c-13.333 0 -25.666 2.5 -36.999 7.5s-21.166 11.833 -29.499 20.5s-15 18.667 -20 30s-7.5 23.333 -7.5 36c0 26 9.16699 48 27.5 66s40.5 27 66.5 27c20.667 0 38.334 -5.33301 53.001 -16v15zM807.997 40
c14 0 26 5 36 15s15 22 15 36s-5 26.167 -15 36.5s-22 15.5 -36 15.5c-14.667 0 -27 -5.16699 -37 -15.5s-15 -22.5 -15 -36.5s5 -26 15 -36s22.333 -15 37 -15zM167.997 183h43.998v-182h-44v12c-16 -10.667 -34 -16 -54 -16c-13.333 0 -25.666 2.5 -36.999 7.5
s-21.166 11.833 -29.499 20.5s-15 18.667 -20 30s-7.5 23.333 -7.5 36c0 26 9.16699 48 27.5 66s40.5 27 66.5 27c20.667 0 38.667 -5.33301 54 -16v15zM62.9951 91c0 -14 5.16699 -26 15.5 -36s22.5 -15 36.5 -15c14.667 0 27.167 5 37.5 15s15.5 22 15.5 36
s-5.16699 26.167 -15.5 36.5s-22.833 15.5 -37.5 15.5c-14 0 -26.167 -5.16699 -36.5 -15.5s-15.5 -22.5 -15.5 -36.5zM1038 108c14.667 -3.33301 26.1719 -9.16504 34.5049 -17.498s12.5 -18.833 12.5 -31.5c0 -22.667 -8 -38.667 -24 -48s-35.333 -14 -58 -14
c-25.333 0 -45 5.83301 -59 17.5s-21.667 26.5 -23 44.5h47c0 -5.33301 2.5 -11.333 7.5 -18s15.167 -10.334 30.5 -11.001c10 0 17.5 2.5 22.5 7.5s7.5 9.5 7.5 13.5c-0.666992 7.33301 -4.83398 12 -12.501 14s-16.167 3.66699 -25.5 5
c-20 3.33301 -36 7.66602 -48 12.999c-7.33301 3.33301 -13.333 9 -18 17s-7 16.667 -7 26c0 16.667 6.66699 30.5 20 41.5s31.666 16.5 54.999 16.5s41.666 -5.5 54.999 -16.5s20.666 -25.167 21.999 -42.5h-45c-0.666992 5.33301 -3.5 10.833 -8.5 16.5
s-12.5 8.5 -22.5 8.5c-8 0 -15 -1.16699 -21 -3.5s-9 -6.5 -9 -12.5c0 -4.66699 2.16699 -8.33398 6.5 -11.001s9.66602 -4.66699 15.999 -6s13.5 -2.66602 21.5 -3.99902s15.667 -3 23 -5zM718 244.001l-219 380l157 91l272 -471h-210zM442 183.001h45v-182h-45v182z
M653 244.001h43.998v-243h-44v12c-16 -10.667 -34 -16 -54 -16c-13.333 0 -25.666 2.5 -36.999 7.5s-21.166 11.833 -29.499 20.5s-15 18.667 -20 30s-7.5 23.333 -7.5 36c0 26 9.16699 48 27.5 66s40.5 27 66.5 27c20.667 0 38.667 -5.33301 54 -16v76zM599.998 40.001
c14.667 0 27.167 5 37.5 15s15.5 22 15.5 36s-5.16699 26.167 -15.5 36.5s-22.833 15.5 -37.5 15.5c-14 0 -26.167 -5.16699 -36.5 -15.5s-15.5 -22.5 -15.5 -36.5s5.16699 -26 15.5 -36s22.5 -15 36.5 -15zM475.998 549.001l177 -305h-166v-45h-45v45l-124 215z
M291.998 388.001l83 -144h-210l-30 53zM374.998 244.001l45 -0.000976562v-243h-45v12c-8 -5.33301 -16.333 -9.33301 -25 -12s-18 -4 -28 -4c-13.333 0 -25.666 2.5 -36.999 7.5s-21.333 11.833 -30 20.5s-15.5 18.667 -20.5 30s-7.5 23.333 -7.5 36s2.5 24.667 7.5 36
s11.833 21.333 20.5 30s18.667 15.334 30 20.001s23.666 7 36.999 7c20 0 37.667 -5.33301 53 -16v76zM322.998 40c14 0 26.167 5 36.5 15s15.5 22 15.5 36s-5.16699 26.167 -15.5 36.5s-22.5 15.5 -36.5 15.5c-14.667 0 -27.167 -5.16699 -37.5 -15.5
s-15.5 -22.5 -15.5 -36.5s5.16699 -26 15.5 -36s22.833 -15 37.5 -15z" />
    </font>
</defs>
</svg>
